<svg xmlns="http://www.w3.org/2000/svg" xmlns:xlink="http://www.w3.org/1999/xlink" viewBox="0 0 200 200"><defs><style>.cls-1{fill:url(#linear-gradient);}</style><linearGradient id="linear-gradient" x1="35.1" y1="163.46" x2="165.41" y2="36.04" gradientUnits="userSpaceOnUse"><stop offset="0" stop-color="#93785f"/><stop offset="0.1" stop-color="#c1a07a"/><stop offset="0.2" stop-color="#edce8c"/><stop offset="0.3" stop-color="#f5e2ba"/><stop offset="0.33" stop-color="#f9e9ca"/><stop offset="0.37" stop-color="#fcf0d8"/><stop offset="0.42" stop-color="#fef4e0"/><stop offset="0.5" stop-color="#fff5e3"/><stop offset="0.58" stop-color="#fef4e0"/><stop offset="0.63" stop-color="#fcf0d8"/><stop offset="0.67" stop-color="#f9e9ca"/><stop offset="0.7" stop-color="#f5e2ba"/><stop offset="0.8" stop-color="#edce8c"/><stop offset="0.9" stop-color="#c1a07a"/><stop offset="1" stop-color="#93785f"/></linearGradient></defs><title>goldflat</title><g id="Layer_23" data-name="Layer 23"><path class="cls-1" d="M160.76,30.39,143.28,12.91A97.27,97.27,0,0,0,12.92,143.3l15.82,15.82c-9.66-15.1-9.3-36.76-.27-58.83L35,106.78C29.41,113.22,28,121.16,32,125.15s11.92,2.61,18.37-2.94l5.93,5.93c-5.56,6.43-6.94,14.37-2.94,18.37s11.93,2.61,18.36-2.95l5.81,5.81c-5.56,6.43-6.94,14.37-3,18.36s11.93,2.62,18.37-2.94l6.62,6.62c-22.07,9-43.73,9.39-58.83-.26l15.93,15.92A97.26,97.26,0,0,0,187.08,56.71L169.49,39.12c11,15.15,11,37.75,1.61,60.79l-6.63-6.62c5.56-6.44,6.93-14.39,2.94-18.37s-11.93-2.61-18.36,2.94l-5.81-5.8c5.56-6.44,6.94-14.38,2.95-18.36s-11.93-2.62-18.37,2.94l-5.93-5.94c5.55-6.44,6.93-14.38,2.94-18.37s-11.93-2.61-18.37,3L100,28.78C123,19.36,145.61,19.39,160.76,30.39Zm-91.42,42c-5.56,6.45-6.94,14.39-3,18.38s11.93,2.6,18.38-3l5.93,5.93c-5.56,6.43-7,14.38-3,18.38s11.94,2.6,18.37-3l5.81,5.81c-5.57,6.44-7,14.38-3,18.37s11.94,2.61,18.38-3l13.44,13.44a132.72,132.72,0,0,1-37.35,25.91L95.72,162c5.56-6.44,6.93-14.38,2.94-18.37s-11.93-2.61-18.36,3l-5.81-5.81c5.56-6.43,6.94-14.37,3-18.36s-11.94-2.62-18.37,2.94l-5.93-5.93c5.55-6.45,6.93-14.39,2.94-18.37S44.15,98.48,37.71,104l-7.59-7.59A132.93,132.93,0,0,1,56,59.09ZM103.71,38c-5.55,6.44-6.93,14.38-2.94,18.37S112.7,59,119.14,53.45l5.93,5.94c-5.56,6.43-6.94,14.37-2.94,18.37s11.93,2.61,18.36-3l5.81,5.8c-5.56,6.44-6.94,14.38-3,18.37s11.94,2.61,18.37-2.94l7.72,7.72a132.85,132.85,0,0,1-25.9,37.34L130.1,127.66c5.54-6.44,6.92-14.38,2.93-18.37s-11.93-2.6-18.35,2.95l-5.81-5.81c5.56-6.43,6.94-14.37,2.95-18.36S99.88,85.45,93.45,91l-5.94-5.93c5.56-6.45,6.94-14.39,2.95-18.37S78.52,64.1,72.08,69.65L58.77,56.35A132.86,132.86,0,0,1,96.12,30.44Z"/></g></svg>