<svg xmlns="http://www.w3.org/2000/svg" xmlns:xlink="http://www.w3.org/1999/xlink" viewBox="0 0 3694.61 1863.28"><defs><style>.cls-1{fill:#133c2a;}.cls-2{fill:url(#linear-gradient);}.cls-3{fill:url(#linear-gradient-2);}.cls-4{fill:url(#linear-gradient-3);}.cls-5{fill:url(#linear-gradient-4);}.cls-6{fill:url(#linear-gradient-5);}.cls-7{fill:url(#linear-gradient-6);}.cls-8{fill:url(#linear-gradient-7);}.cls-9{fill:url(#linear-gradient-8);}.cls-10{fill:url(#linear-gradient-9);}.cls-11{fill:url(#linear-gradient-10);}.cls-12{opacity:0.3;}.cls-13{fill:url(#linear-gradient-11);}.cls-14{fill:url(#linear-gradient-12);}.cls-15{fill:url(#linear-gradient-13);}.cls-16{fill:url(#linear-gradient-14);}.cls-17{fill:url(#linear-gradient-15);}.cls-18{fill:url(#linear-gradient-16);}.cls-19{fill:url(#linear-gradient-17);}.cls-20{fill:url(#linear-gradient-18);}.cls-21{fill:url(#linear-gradient-19);}.cls-22{fill:url(#linear-gradient-20);}.cls-23{fill:url(#linear-gradient-21);}.cls-24{fill:url(#linear-gradient-22);}.cls-25{fill:url(#linear-gradient-23);}.cls-26{fill:url(#linear-gradient-24);}.cls-27{fill:url(#linear-gradient-25);}.cls-28{fill:url(#linear-gradient-26);}.cls-29{fill:url(#linear-gradient-27);}.cls-30{fill:url(#linear-gradient-28);}.cls-31{fill:url(#linear-gradient-29);}.cls-32{fill:url(#linear-gradient-30);}.cls-33{fill:url(#linear-gradient-31);}.cls-34{fill:url(#linear-gradient-32);}.cls-35{fill:url(#linear-gradient-33);}.cls-36{fill:url(#linear-gradient-34);}.cls-37{fill:url(#linear-gradient-35);}.cls-38{fill:url(#linear-gradient-36);}.cls-39{fill:url(#linear-gradient-37);}.cls-40{fill:url(#linear-gradient-38);}.cls-41{fill:url(#linear-gradient-39);}.cls-42{fill:url(#linear-gradient-40);}.cls-43{fill:url(#linear-gradient-41);}.cls-44{fill:url(#linear-gradient-42);}.cls-45{fill:url(#linear-gradient-43);}.cls-46{fill:url(#linear-gradient-44);}.cls-47{fill:url(#linear-gradient-45);}.cls-48{fill:url(#linear-gradient-46);}.cls-49{fill:url(#linear-gradient-47);}.cls-50{fill:url(#linear-gradient-48);}.cls-51{fill:url(#linear-gradient-49);}.cls-52{fill:url(#linear-gradient-50);}.cls-53{fill:url(#linear-gradient-51);}.cls-54{fill:url(#linear-gradient-52);}.cls-55{fill:url(#linear-gradient-53);}.cls-56{fill:url(#linear-gradient-54);}.cls-57{fill:url(#linear-gradient-55);}.cls-58{fill:url(#linear-gradient-56);}.cls-59{fill:url(#linear-gradient-57);}.cls-60{fill:url(#linear-gradient-58);}.cls-61{fill:url(#linear-gradient-59);}.cls-62{fill:url(#linear-gradient-60);}.cls-63{fill:url(#linear-gradient-61);}.cls-64{fill:#fff;}.cls-65{fill:url(#linear-gradient-62);}.cls-66{fill:url(#linear-gradient-63);}.cls-67{fill:url(#linear-gradient-64);}.cls-68{fill:url(#linear-gradient-65);}.cls-69{fill:url(#linear-gradient-66);}.cls-70{fill:url(#linear-gradient-67);}.cls-71{fill:url(#linear-gradient-68);}.cls-72{fill:url(#linear-gradient-69);}.cls-73{fill:url(#linear-gradient-70);}.cls-74{fill:url(#linear-gradient-71);}.cls-75{fill:url(#linear-gradient-72);}.cls-76{fill:url(#linear-gradient-73);}.cls-77{fill:url(#linear-gradient-74);}.cls-78{fill:url(#linear-gradient-75);}.cls-79{fill:url(#linear-gradient-76);}.cls-80{fill:url(#linear-gradient-77);}.cls-81{fill:url(#linear-gradient-78);}.cls-82{fill:url(#linear-gradient-79);}.cls-83{fill:url(#linear-gradient-80);}.cls-84{fill:url(#linear-gradient-81);}.cls-85{fill:url(#linear-gradient-82);}.cls-86{fill:url(#linear-gradient-83);}.cls-87{fill:url(#linear-gradient-84);}.cls-88{fill:url(#linear-gradient-85);}.cls-89{fill:url(#linear-gradient-86);}.cls-90{fill:url(#linear-gradient-87);}.cls-91{fill:url(#linear-gradient-88);}.cls-92{fill:url(#linear-gradient-89);}.cls-93{fill:url(#linear-gradient-90);}.cls-94{fill:url(#linear-gradient-91);}.cls-95{fill:url(#linear-gradient-92);}.cls-96{fill:url(#linear-gradient-93);}.cls-97{fill:url(#linear-gradient-94);}.cls-98{fill:url(#linear-gradient-95);}.cls-99{fill:url(#linear-gradient-96);}.cls-100{fill:url(#linear-gradient-97);}.cls-101{fill:url(#linear-gradient-98);}.cls-102{fill:url(#linear-gradient-99);}.cls-103{fill:url(#linear-gradient-100);}.cls-104{fill:url(#linear-gradient-101);}.cls-105{fill:url(#linear-gradient-102);}.cls-106{fill:url(#linear-gradient-103);}.cls-107{fill:url(#linear-gradient-104);}.cls-108{fill:url(#linear-gradient-105);}.cls-109{fill:url(#linear-gradient-106);}.cls-110{fill:url(#linear-gradient-107);}.cls-111{fill:url(#linear-gradient-108);}.cls-112{fill:url(#linear-gradient-109);}.cls-113{fill:url(#linear-gradient-110);}.cls-114{fill:url(#linear-gradient-111);}.cls-115{fill:url(#linear-gradient-112);}.cls-116{fill:url(#linear-gradient-113);}.cls-117{fill:url(#linear-gradient-114);}.cls-118{fill:url(#linear-gradient-115);}.cls-119{fill:url(#linear-gradient-116);}.cls-120{fill:url(#linear-gradient-117);}.cls-121{fill:url(#linear-gradient-118);}.cls-122{fill:url(#linear-gradient-119);}.cls-123{fill:url(#linear-gradient-120);}.cls-124{fill:url(#linear-gradient-121);}.cls-125{fill:url(#linear-gradient-122);}</style><linearGradient id="linear-gradient" x1="565.33" y1="925.51" x2="610.96" y2="925.51" gradientUnits="userSpaceOnUse"><stop offset="0" stop-color="#353535"/><stop offset="0.37" stop-color="#666"/><stop offset="0.39" stop-color="#6f6f6f"/><stop offset="0.48" stop-color="#868686"/><stop offset="0.55" stop-color="#949494"/><stop offset="0.62" stop-color="#999"/><stop offset="0.71" stop-color="#878787"/><stop offset="0.83" stop-color="#666"/><stop offset="0.92" stop-color="#555"/><stop offset="1" stop-color="#4c4c4c"/></linearGradient><linearGradient id="linear-gradient-2" x1="859.64" y1="925.51" x2="905.27" y2="925.51" xlink:href="#linear-gradient"/><linearGradient id="linear-gradient-3" x1="1150.53" y1="925.51" x2="1196.16" y2="925.51" xlink:href="#linear-gradient"/><linearGradient id="linear-gradient-4" x1="1448.26" y1="925.51" x2="1493.89" y2="925.51" xlink:href="#linear-gradient"/><linearGradient id="linear-gradient-5" x1="263.03" y1="925.51" x2="308.66" y2="925.51" xlink:href="#linear-gradient"/><linearGradient id="linear-gradient-6" x1="263.03" y1="472.63" x2="308.66" y2="472.63" xlink:href="#linear-gradient"/><linearGradient id="linear-gradient-7" x1="565.33" y1="472.63" x2="610.96" y2="472.63" xlink:href="#linear-gradient"/><linearGradient id="linear-gradient-8" x1="859.64" y1="472.63" x2="905.27" y2="472.63" xlink:href="#linear-gradient"/><linearGradient id="linear-gradient-9" x1="1150.53" y1="472.63" x2="1196.16" y2="472.63" xlink:href="#linear-gradient"/><linearGradient id="linear-gradient-10" x1="1448.26" y1="472.63" x2="1493.89" y2="472.63" xlink:href="#linear-gradient"/><linearGradient id="linear-gradient-11" x1="955.6" y1="329.66" x2="808.55" y2="455.36" gradientUnits="userSpaceOnUse"><stop offset="0" stop-color="#c4191b"/><stop offset="0.22" stop-color="#e64539"/><stop offset="0.47" stop-color="#c4191b"/><stop offset="0.81" stop-color="#690f15"/></linearGradient><linearGradient id="linear-gradient-12" x1="748.91" y1="375.43" x2="1018.02" y2="375.43" gradientUnits="userSpaceOnUse"><stop offset="0" stop-color="#690f15"/><stop offset="0.09" stop-color="#721016"/><stop offset="0.24" stop-color="#8a1418"/><stop offset="0.42" stop-color="#b1191c"/><stop offset="0.6" stop-color="#df2021"/><stop offset="0.63" stop-color="#e2312c"/><stop offset="0.66" stop-color="#e43c33"/><stop offset="0.7" stop-color="#e64338"/><stop offset="0.83" stop-color="#e64539"/><stop offset="1" stop-color="#df2021"/></linearGradient><linearGradient id="linear-gradient-13" x1="1544.69" y1="490.53" x2="1397.64" y2="616.23" xlink:href="#linear-gradient-11"/><linearGradient id="linear-gradient-14" x1="1338" y1="536.3" x2="1607.1" y2="536.3" xlink:href="#linear-gradient-12"/><linearGradient id="linear-gradient-15" x1="1544.69" y1="687.88" x2="1397.64" y2="813.58" xlink:href="#linear-gradient-11"/><linearGradient id="linear-gradient-16" x1="1338" y1="733.61" x2="1607.1" y2="733.61" xlink:href="#linear-gradient-12"/><linearGradient id="linear-gradient-17" x1="1544.69" y1="858.92" x2="1397.64" y2="984.62" xlink:href="#linear-gradient-11"/><linearGradient id="linear-gradient-18" x1="1338" y1="903.94" x2="1607.1" y2="903.94" xlink:href="#linear-gradient-12"/><linearGradient id="linear-gradient-19" x1="1544.69" y1="1030.03" x2="1397.64" y2="1155.73" xlink:href="#linear-gradient-11"/><linearGradient id="linear-gradient-20" x1="1338" y1="1075.47" x2="1607.1" y2="1075.47" xlink:href="#linear-gradient-12"/><linearGradient id="linear-gradient-21" x1="1544.69" y1="1201.52" x2="1397.64" y2="1327.22" xlink:href="#linear-gradient-11"/><linearGradient id="linear-gradient-22" x1="1338" y1="1247.38" x2="1607.1" y2="1247.38" xlink:href="#linear-gradient-12"/><linearGradient id="linear-gradient-23" x1="1246.49" y1="869.34" x2="1099.44" y2="995.04" xlink:href="#linear-gradient-11"/><linearGradient id="linear-gradient-24" x1="1039.8" y1="915.08" x2="1308.91" y2="915.08" xlink:href="#linear-gradient-12"/><linearGradient id="linear-gradient-25" x1="1246.49" y1="1040.39" x2="1099.44" y2="1166.09" xlink:href="#linear-gradient-11"/><linearGradient id="linear-gradient-26" x1="1039.8" y1="1085.4" x2="1308.91" y2="1085.4" xlink:href="#linear-gradient-12"/><linearGradient id="linear-gradient-27" x1="1246.49" y1="1211.5" x2="1099.44" y2="1337.2" xlink:href="#linear-gradient-11"/><linearGradient id="linear-gradient-28" x1="1039.8" y1="1256.94" x2="1308.91" y2="1256.94" xlink:href="#linear-gradient-12"/><linearGradient id="linear-gradient-29" x1="1246.49" y1="1382.59" x2="1099.44" y2="1508.29" xlink:href="#linear-gradient-11"/><linearGradient id="linear-gradient-30" x1="1039.8" y1="1428.47" x2="1308.91" y2="1428.47" xlink:href="#linear-gradient-12"/><linearGradient id="linear-gradient-31" x1="661.29" y1="1382.59" x2="514.24" y2="1508.29" xlink:href="#linear-gradient-11"/><linearGradient id="linear-gradient-32" x1="454.6" y1="1428.47" x2="723.7" y2="1428.47" xlink:href="#linear-gradient-12"/><linearGradient id="linear-gradient-33" x1="661.29" y1="1211.48" x2="514.24" y2="1337.18" xlink:href="#linear-gradient-11"/><linearGradient id="linear-gradient-34" x1="454.6" y1="1256.94" x2="723.7" y2="1256.94" xlink:href="#linear-gradient-12"/><linearGradient id="linear-gradient-35" x1="661.29" y1="329.66" x2="514.24" y2="455.36" xlink:href="#linear-gradient-11"/><linearGradient id="linear-gradient-36" x1="454.6" y1="375.43" x2="723.7" y2="375.43" xlink:href="#linear-gradient-12"/><linearGradient id="linear-gradient-37" x1="1246.49" y1="329.68" x2="1099.44" y2="455.38" xlink:href="#linear-gradient-11"/><linearGradient id="linear-gradient-38" x1="1039.8" y1="375.41" x2="1308.91" y2="375.41" xlink:href="#linear-gradient-12"/><linearGradient id="linear-gradient-39" x1="358.99" y1="329.68" x2="211.94" y2="455.38" xlink:href="#linear-gradient-11"/><linearGradient id="linear-gradient-40" x1="152.3" y1="375.41" x2="421.41" y2="375.41" xlink:href="#linear-gradient-12"/><linearGradient id="linear-gradient-41" x1="358.99" y1="869.07" x2="211.94" y2="994.77" xlink:href="#linear-gradient-11"/><linearGradient id="linear-gradient-42" x1="152.3" y1="914.8" x2="421.41" y2="914.8" xlink:href="#linear-gradient-12"/><linearGradient id="linear-gradient-43" x1="358.99" y1="1382.59" x2="211.94" y2="1508.29" xlink:href="#linear-gradient-11"/><linearGradient id="linear-gradient-44" x1="152.3" y1="1428.47" x2="421.41" y2="1428.47" xlink:href="#linear-gradient-12"/><linearGradient id="linear-gradient-45" x1="358.99" y1="1211.48" x2="211.94" y2="1337.18" xlink:href="#linear-gradient-11"/><linearGradient id="linear-gradient-46" x1="152.3" y1="1256.94" x2="421.41" y2="1256.94" xlink:href="#linear-gradient-12"/><linearGradient id="linear-gradient-47" x1="358.99" y1="1040.37" x2="211.94" y2="1166.07" xlink:href="#linear-gradient-11"/><linearGradient id="linear-gradient-48" x1="152.3" y1="1085.4" x2="421.41" y2="1085.4" xlink:href="#linear-gradient-12"/><linearGradient id="linear-gradient-49" x1="661.29" y1="869.32" x2="514.24" y2="995.02" xlink:href="#linear-gradient-11"/><linearGradient id="linear-gradient-50" x1="454.6" y1="915.06" x2="723.7" y2="915.06" xlink:href="#linear-gradient-12"/><linearGradient id="linear-gradient-51" x1="661.29" y1="1040.37" x2="514.24" y2="1166.07" xlink:href="#linear-gradient-11"/><linearGradient id="linear-gradient-52" x1="454.6" y1="1085.39" x2="723.7" y2="1085.39" xlink:href="#linear-gradient-12"/><linearGradient id="linear-gradient-53" x1="955.6" y1="1382.59" x2="808.55" y2="1508.29" xlink:href="#linear-gradient-11"/><linearGradient id="linear-gradient-54" x1="748.91" y1="1428.47" x2="1018.02" y2="1428.47" xlink:href="#linear-gradient-12"/><linearGradient id="linear-gradient-55" x1="955.6" y1="1211.48" x2="808.55" y2="1337.18" xlink:href="#linear-gradient-11"/><linearGradient id="linear-gradient-56" x1="748.91" y1="1256.94" x2="1018.02" y2="1256.94" xlink:href="#linear-gradient-12"/><linearGradient id="linear-gradient-57" x1="955.6" y1="1040.37" x2="808.55" y2="1166.07" xlink:href="#linear-gradient-11"/><linearGradient id="linear-gradient-58" x1="748.91" y1="1085.4" x2="1018.02" y2="1085.4" xlink:href="#linear-gradient-12"/><linearGradient id="linear-gradient-59" x1="955.6" y1="869.05" x2="808.55" y2="994.75" xlink:href="#linear-gradient-11"/><linearGradient id="linear-gradient-60" x1="748.91" y1="914.8" x2="1018.02" y2="914.8" xlink:href="#linear-gradient-12"/><linearGradient id="linear-gradient-61" x1="21.2" y1="1589.48" x2="1743.92" y2="248.38" gradientUnits="userSpaceOnUse"><stop offset="0" stop-color="#024712"/><stop offset="0.44" stop-color="#025e1a"/><stop offset="1" stop-color="#028125"/></linearGradient><linearGradient id="linear-gradient-62" x1="2494.81" y1="925.51" x2="2540.44" y2="925.51" xlink:href="#linear-gradient"/><linearGradient id="linear-gradient-63" x1="2789.13" y1="925.51" x2="2834.75" y2="925.51" xlink:href="#linear-gradient"/><linearGradient id="linear-gradient-64" x1="3080.02" y1="925.51" x2="3125.65" y2="925.51" xlink:href="#linear-gradient"/><linearGradient id="linear-gradient-65" x1="3377.75" y1="925.51" x2="3423.38" y2="925.51" xlink:href="#linear-gradient"/><linearGradient id="linear-gradient-66" x1="2192.51" y1="925.51" x2="2238.14" y2="925.51" xlink:href="#linear-gradient"/><linearGradient id="linear-gradient-67" x1="2192.51" y1="472.63" x2="2238.14" y2="472.63" xlink:href="#linear-gradient"/><linearGradient id="linear-gradient-68" x1="2494.81" y1="472.63" x2="2540.44" y2="472.63" xlink:href="#linear-gradient"/><linearGradient id="linear-gradient-69" x1="2789.13" y1="472.63" x2="2834.75" y2="472.63" xlink:href="#linear-gradient"/><linearGradient id="linear-gradient-70" x1="3080.02" y1="472.63" x2="3125.65" y2="472.63" xlink:href="#linear-gradient"/><linearGradient id="linear-gradient-71" x1="3377.75" y1="472.63" x2="3423.38" y2="472.63" xlink:href="#linear-gradient"/><linearGradient id="linear-gradient-72" x1="2885.08" y1="329.66" x2="2738.04" y2="455.36" xlink:href="#linear-gradient-11"/><linearGradient id="linear-gradient-73" x1="2678.4" y1="375.43" x2="2947.5" y2="375.43" xlink:href="#linear-gradient-12"/><linearGradient id="linear-gradient-74" x1="3474.17" y1="329.66" x2="3327.13" y2="455.36" xlink:href="#linear-gradient-11"/><linearGradient id="linear-gradient-75" x1="3267.48" y1="375.43" x2="3536.59" y2="375.43" xlink:href="#linear-gradient-12"/><linearGradient id="linear-gradient-76" x1="3474.17" y1="687.88" x2="3327.13" y2="813.58" xlink:href="#linear-gradient-11"/><linearGradient id="linear-gradient-77" x1="3267.48" y1="733.61" x2="3536.59" y2="733.61" xlink:href="#linear-gradient-12"/><linearGradient id="linear-gradient-78" x1="3474.17" y1="858.92" x2="3327.13" y2="984.62" xlink:href="#linear-gradient-11"/><linearGradient id="linear-gradient-79" x1="3267.48" y1="903.94" x2="3536.59" y2="903.94" xlink:href="#linear-gradient-12"/><linearGradient id="linear-gradient-80" x1="3474.17" y1="1211.5" x2="3327.13" y2="1337.2" xlink:href="#linear-gradient-11"/><linearGradient id="linear-gradient-81" x1="3267.48" y1="1256.94" x2="3536.59" y2="1256.94" xlink:href="#linear-gradient-12"/><linearGradient id="linear-gradient-82" x1="3474.17" y1="1382.61" x2="3327.13" y2="1508.31" xlink:href="#linear-gradient-11"/><linearGradient id="linear-gradient-83" x1="3267.48" y1="1428.47" x2="3536.59" y2="1428.47" xlink:href="#linear-gradient-12"/><linearGradient id="linear-gradient-84" x1="3175.97" y1="687.88" x2="3028.93" y2="813.58" xlink:href="#linear-gradient-11"/><linearGradient id="linear-gradient-85" x1="2969.29" y1="733.61" x2="3238.39" y2="733.61" xlink:href="#linear-gradient-12"/><linearGradient id="linear-gradient-86" x1="3175.97" y1="1040.39" x2="3028.93" y2="1166.09" xlink:href="#linear-gradient-11"/><linearGradient id="linear-gradient-87" x1="2969.29" y1="1085.4" x2="3238.39" y2="1085.4" xlink:href="#linear-gradient-12"/><linearGradient id="linear-gradient-88" x1="3175.97" y1="1211.5" x2="3028.93" y2="1337.2" xlink:href="#linear-gradient-11"/><linearGradient id="linear-gradient-89" x1="2969.29" y1="1256.94" x2="3238.39" y2="1256.94" xlink:href="#linear-gradient-12"/><linearGradient id="linear-gradient-90" x1="3175.97" y1="1382.59" x2="3028.93" y2="1508.29" xlink:href="#linear-gradient-11"/><linearGradient id="linear-gradient-91" x1="2969.29" y1="1428.47" x2="3238.39" y2="1428.47" xlink:href="#linear-gradient-12"/><linearGradient id="linear-gradient-92" x1="2590.77" y1="1382.59" x2="2443.73" y2="1508.29" xlink:href="#linear-gradient-11"/><linearGradient id="linear-gradient-93" x1="2384.09" y1="1428.47" x2="2653.19" y2="1428.47" xlink:href="#linear-gradient-12"/><linearGradient id="linear-gradient-94" x1="2590.77" y1="1211.48" x2="2443.73" y2="1337.18" xlink:href="#linear-gradient-11"/><linearGradient id="linear-gradient-95" x1="2384.09" y1="1256.94" x2="2653.19" y2="1256.94" xlink:href="#linear-gradient-12"/><linearGradient id="linear-gradient-96" x1="2590.77" y1="329.66" x2="2443.73" y2="455.36" xlink:href="#linear-gradient-11"/><linearGradient id="linear-gradient-97" x1="2384.09" y1="375.43" x2="2653.19" y2="375.43" xlink:href="#linear-gradient-12"/><linearGradient id="linear-gradient-98" x1="3175.97" y1="329.68" x2="3028.93" y2="455.38" xlink:href="#linear-gradient-11"/><linearGradient id="linear-gradient-99" x1="2969.29" y1="375.41" x2="3238.39" y2="375.41" xlink:href="#linear-gradient-12"/><linearGradient id="linear-gradient-100" x1="2288.47" y1="329.68" x2="2141.43" y2="455.38" xlink:href="#linear-gradient-11"/><linearGradient id="linear-gradient-101" x1="2081.79" y1="375.41" x2="2350.89" y2="375.41" xlink:href="#linear-gradient-12"/><linearGradient id="linear-gradient-102" x1="2288.47" y1="869.07" x2="2141.43" y2="994.77" xlink:href="#linear-gradient-11"/><linearGradient id="linear-gradient-103" x1="2081.79" y1="914.8" x2="2350.89" y2="914.8" xlink:href="#linear-gradient-12"/><linearGradient id="linear-gradient-104" x1="2288.47" y1="1382.59" x2="2141.43" y2="1508.29" xlink:href="#linear-gradient-11"/><linearGradient id="linear-gradient-105" x1="2081.79" y1="1428.47" x2="2350.89" y2="1428.47" xlink:href="#linear-gradient-12"/><linearGradient id="linear-gradient-106" x1="2288.47" y1="1211.48" x2="2141.43" y2="1337.18" xlink:href="#linear-gradient-11"/><linearGradient id="linear-gradient-107" x1="2081.79" y1="1256.94" x2="2350.89" y2="1256.94" xlink:href="#linear-gradient-12"/><linearGradient id="linear-gradient-108" x1="2288.47" y1="1040.37" x2="2141.43" y2="1166.07" xlink:href="#linear-gradient-11"/><linearGradient id="linear-gradient-109" x1="2081.79" y1="1085.4" x2="2350.89" y2="1085.4" xlink:href="#linear-gradient-12"/><linearGradient id="linear-gradient-110" x1="2590.77" y1="869.32" x2="2443.73" y2="995.02" xlink:href="#linear-gradient-11"/><linearGradient id="linear-gradient-111" x1="2384.09" y1="915.06" x2="2653.19" y2="915.06" xlink:href="#linear-gradient-12"/><linearGradient id="linear-gradient-112" x1="2590.77" y1="1040.37" x2="2443.73" y2="1166.07" xlink:href="#linear-gradient-11"/><linearGradient id="linear-gradient-113" x1="2384.09" y1="1085.39" x2="2653.19" y2="1085.39" xlink:href="#linear-gradient-12"/><linearGradient id="linear-gradient-114" x1="2885.08" y1="1382.59" x2="2738.04" y2="1508.29" xlink:href="#linear-gradient-11"/><linearGradient id="linear-gradient-115" x1="2678.4" y1="1428.47" x2="2947.5" y2="1428.47" xlink:href="#linear-gradient-12"/><linearGradient id="linear-gradient-116" x1="2885.08" y1="1211.48" x2="2738.04" y2="1337.18" xlink:href="#linear-gradient-11"/><linearGradient id="linear-gradient-117" x1="2678.4" y1="1256.94" x2="2947.5" y2="1256.94" xlink:href="#linear-gradient-12"/><linearGradient id="linear-gradient-118" x1="2885.08" y1="1040.37" x2="2738.04" y2="1166.07" xlink:href="#linear-gradient-11"/><linearGradient id="linear-gradient-119" x1="2678.4" y1="1085.4" x2="2947.5" y2="1085.4" xlink:href="#linear-gradient-12"/><linearGradient id="linear-gradient-120" x1="2885.08" y1="869.05" x2="2738.04" y2="994.75" xlink:href="#linear-gradient-11"/><linearGradient id="linear-gradient-121" x1="2678.4" y1="914.8" x2="2947.5" y2="914.8" xlink:href="#linear-gradient-12"/><linearGradient id="linear-gradient-122" x1="1950.69" y1="1589.48" x2="3673.41" y2="248.38" xlink:href="#linear-gradient-61"/></defs><title>nine_plus_three_expanded</title><g id="nine_plus_three"><path class="cls-1" d="M1837.44,77.21h19.73v28.28h38.88v14.28h-38.88v28.28h-19.73V119.77h-38.88V105.49h38.88Z"/><path class="cls-1" d="M859.93,123.27a13.78,13.78,0,0,0,5.9,9.73q5.13,3.7,13.83,3.71,8.9,0,14.22-3.43a24.63,24.63,0,0,0,8.22-8.54,34.74,34.74,0,0,0,4-10.92q1.07-5.8,1.65-10.71l-.39-.28a27.74,27.74,0,0,1-12.18,8.75,46.55,46.55,0,0,1-17,3,59.93,59.93,0,0,1-17.5-2.38,42.14,42.14,0,0,1-13.44-6.65,29.17,29.17,0,0,1-11.8-24,28.82,28.82,0,0,1,3.09-13.23,30.83,30.83,0,0,1,9.09-10.64,44.69,44.69,0,0,1,14.7-7.07A71,71,0,0,1,882,48.09q14.31,0,23.6,4A35.64,35.64,0,0,1,920.18,63a41.45,41.45,0,0,1,7.45,16.31,90.24,90.24,0,0,1,2.13,20,63.32,63.32,0,0,1-2.61,17.78,45.85,45.85,0,0,1-8.61,16.31,44.5,44.5,0,0,1-15.76,12Q893,150,878.69,150a57.52,57.52,0,0,1-15.28-2,46.58,46.58,0,0,1-12.67-5.46,31.66,31.66,0,0,1-9-8.4,20.85,20.85,0,0,1-3.87-10.92ZM881,61.39A30.78,30.78,0,0,0,870.57,63a20.25,20.25,0,0,0-7.35,4.41,18.36,18.36,0,0,0-4.35,6.44,20.21,20.21,0,0,0-1.45,7.56,21.06,21.06,0,0,0,1.45,7.77,18.27,18.27,0,0,0,4.35,6.51,22,22,0,0,0,7.35,4.55A28.4,28.4,0,0,0,881,102a31.85,31.85,0,0,0,10.84-1.68,21.51,21.51,0,0,0,7.64-4.55A19.29,19.29,0,0,0,904,89.18a20,20,0,0,0,1.55-7.77A19.19,19.19,0,0,0,904,73.85a18,18,0,0,0-4.54-6.37,22.69,22.69,0,0,0-7.64-4.41A31.85,31.85,0,0,0,881,61.39Z"/><path class="cls-1" d="M96.59,303.5V1534.36H1667.4V303.5Zm1525.54,1185H141.85V349.34H1622.13Z"/><rect class="cls-2" x="565.33" y="320.34" width="45.63" height="1210.33" rx="15.23" ry="15.23"/><rect class="cls-3" x="859.64" y="320.34" width="45.63" height="1210.33" rx="15.23" ry="15.23"/><rect class="cls-4" x="1150.53" y="320.34" width="45.63" height="1210.33" rx="15.23" ry="15.23"/><rect class="cls-5" x="1448.26" y="320.34" width="45.63" height="1210.33" rx="15.23" ry="15.23"/><rect class="cls-6" x="263.03" y="320.34" width="45.63" height="1210.33" rx="15.23" ry="15.23"/><polygon class="cls-1" points="1667.5 639.75 97 639.75 142.03 627.21 1622.47 627.21 1667.5 639.75"/><rect class="cls-7" x="263.03" y="306.66" width="45.63" height="331.96" rx="15.23" ry="15.23"/><rect class="cls-8" x="565.33" y="306.66" width="45.63" height="331.96" rx="15.23" ry="15.23"/><rect class="cls-9" x="859.64" y="306.66" width="45.63" height="331.96" rx="15.23" ry="15.23"/><rect class="cls-10" x="1150.53" y="306.66" width="45.63" height="331.96" rx="15.23" ry="15.23"/><rect class="cls-11" x="1448.26" y="306.66" width="45.63" height="331.96" rx="15.23" ry="15.23"/><g class="cls-12"><path class="cls-13" d="M1017.65,392.76a5.55,5.55,0,0,1-2,3.65l-14,12.62L981,427.64l-49,44.07a26.12,26.12,0,0,1-14.5,5.93c-.76.07-1.53.1-2.31.1H849.68c-.78,0-1.55,0-2.31-.1a26.12,26.12,0,0,1-14.5-5.93l-49-44.14-34.61-31.16a5.55,5.55,0,0,1-2-3.65,5.92,5.92,0,0,1,0-1.19,5.6,5.6,0,0,1,2-3.61L779,361.14l6-5.36,47.9-43.12a26.12,26.12,0,0,1,14.5-5.93c.76-.06,1.53-.1,2.31-.1h65.55c.78,0,1.55,0,2.31.1a26.12,26.12,0,0,1,14.5,5.93l48.42,43.6,35.21,31.7h0a5.54,5.54,0,0,1,2,3.62A5.72,5.72,0,0,1,1017.65,392.76Z"/><path class="cls-14" d="M1018,393a6,6,0,0,1-2,3.94l-13.81,12.32-.25.06c-25.82,6.06-71.77,8.65-125.12,3.09-.19,0-105.84-9.13-127.91-24.22l35.82-32.26,23-20.53c18.34,20.77,55.73,44.66,78.45,53.66,43.41,17.19,89.55,14.63,114,7.14,6.6-2,11.93-4.71,15.83-8a.48.48,0,0,0,.1-.17,6,6,0,0,1,1.87,3.8A4.58,4.58,0,0,1,1018,393Z"/></g><path class="cls-15" d="M1606.73,553.63a5.47,5.47,0,0,1-2,3.65l-14,12.62-20.65,18.61-48.95,44.07a26.12,26.12,0,0,1-14.5,5.93c-.76.07-1.54.1-2.31.1h-65.56c-.77,0-1.55,0-2.31-.1a26.12,26.12,0,0,1-14.5-5.93l-49-44.14-34.6-31.16a5.55,5.55,0,0,1-2-3.65,4.74,4.74,0,0,1,0-1.19,5.57,5.57,0,0,1,2-3.61L1368.11,522l6-5.36L1422,473.53a26.12,26.12,0,0,1,14.5-5.93c.76-.07,1.54-.1,2.31-.1h65.56c.77,0,1.55,0,2.31.1a26.12,26.12,0,0,1,14.5,5.93l48.42,43.6,35.2,31.7h0a5.45,5.45,0,0,1,2,3.62A4.58,4.58,0,0,1,1606.73,553.63Z"/><path class="cls-16" d="M1607.07,553.86a6,6,0,0,1-2,3.94l-13.8,12.32-.25,0c-25.83,6.07-71.77,8.66-125.12,3.1-.2,0-105.85-9.13-127.91-24.22l35.82-32.26,23-20.53c18.35,20.77,55.74,44.66,78.46,53.65,43.41,17.2,89.55,14.64,114,7.15,6.61-2,11.93-4.72,15.83-8,.05,0,.07-.12.11-.17a6,6,0,0,1,1.87,3.8A5.72,5.72,0,0,1,1607.07,553.86Z"/><path class="cls-17" d="M1606.73,751a5.49,5.49,0,0,1-2,3.65l-14,12.62-20.65,18.61-48.95,44.07a26.12,26.12,0,0,1-14.5,5.93c-.76.07-1.54.1-2.31.1h-65.56c-.77,0-1.55,0-2.31-.1a26.12,26.12,0,0,1-14.5-5.93l-49-44.14-34.6-31.16a5.58,5.58,0,0,1-2-3.65,4.74,4.74,0,0,1,0-1.19,5.57,5.57,0,0,1,2-3.61l29.78-26.82,6-5.36L1422,670.88a26.12,26.12,0,0,1,14.5-5.93c.76-.07,1.54-.1,2.31-.1h65.56c.77,0,1.55,0,2.31.1a26.12,26.12,0,0,1,14.5,5.93l48.42,43.59,35.2,31.71h0a5.45,5.45,0,0,1,2,3.62A4.58,4.58,0,0,1,1606.73,751Z"/><path class="cls-18" d="M1607.07,751.18a6,6,0,0,1-2,3.93l-13.8,12.32a1.83,1.83,0,0,1-.25.06c-25.83,6.07-71.77,8.65-125.12,3.1-.2,0-105.85-9.13-127.91-24.23l35.82-32.26,23-20.52c18.35,20.77,55.74,44.65,78.46,53.65,43.41,17.2,89.55,14.64,114,7.14,6.61-2,11.93-4.71,15.83-8a1.08,1.08,0,0,0,.11-.18,6,6,0,0,1,1.87,3.8A5.82,5.82,0,0,1,1607.07,751.18Z"/><path class="cls-19" d="M1606.73,922a5.49,5.49,0,0,1-2,3.66l-14,12.62-20.65,18.6L1521.13,1001a26,26,0,0,1-14.5,5.93c-.76.07-1.54.11-2.31.11h-65.56c-.77,0-1.55,0-2.31-.11A26,26,0,0,1,1422,1001l-49-44.14-34.6-31.15a5.58,5.58,0,0,1-2-3.66,4.74,4.74,0,0,1,0-1.19,5.6,5.6,0,0,1,2-3.61l29.78-26.82,6-5.36L1422,841.92a26,26,0,0,1,14.5-5.92c.76-.07,1.54-.11,2.31-.11h65.56c.77,0,1.55,0,2.31.11a26,26,0,0,1,14.5,5.92l48.42,43.6,35.2,31.7h0a5.45,5.45,0,0,1,2,3.62A4.58,4.58,0,0,1,1606.73,922Z"/><path class="cls-20" d="M1607.07,921.5a6,6,0,0,1-2,3.94l-13.8,12.32-.25.06c-25.83,6.06-71.77,8.65-125.12,3.09-.2,0-105.85-9.13-127.91-24.22l35.82-32.26,23-20.53c18.35,20.77,55.74,44.66,78.46,53.66,43.41,17.19,89.55,14.63,114,7.14,6.61-2,11.93-4.71,15.83-8a.71.71,0,0,0,.11-.17,6,6,0,0,1,1.87,3.8A5.72,5.72,0,0,1,1607.07,921.5Z"/><path class="cls-21" d="M1606.73,1093.13a5.49,5.49,0,0,1-2,3.66l-14,12.62-20.65,18.6-48.95,44.07a26,26,0,0,1-14.5,5.93c-.76.07-1.54.11-2.31.11h-65.56c-.77,0-1.55,0-2.31-.11a26,26,0,0,1-14.5-5.93l-49-44.14-34.6-31.15a5.58,5.58,0,0,1-2-3.66,4.74,4.74,0,0,1,0-1.19,5.6,5.6,0,0,1,2-3.61l29.78-26.82,6-5.36L1422,1013a26,26,0,0,1,14.5-5.92c.76-.07,1.54-.11,2.31-.11h65.56c.77,0,1.55,0,2.31.11a26,26,0,0,1,14.5,5.92l48.42,43.6,35.2,31.7h0a5.45,5.45,0,0,1,2,3.62A4.58,4.58,0,0,1,1606.73,1093.13Z"/><path class="cls-22" d="M1607.07,1093a6,6,0,0,1-2,3.93l-13.8,12.32-.25.06c-25.83,6.07-71.77,8.65-125.12,3.09-.2,0-105.85-9.13-127.91-24.22l35.82-32.26,23-20.52c18.35,20.77,55.74,44.65,78.46,53.65,43.41,17.19,89.55,14.63,114,7.14,6.61-2,11.93-4.71,15.83-8a.71.71,0,0,0,.11-.17,6,6,0,0,1,1.87,3.8A5.82,5.82,0,0,1,1607.07,1093Z"/><path class="cls-23" d="M1606.73,1264.62a5.47,5.47,0,0,1-2,3.65l-14,12.62-20.65,18.61-48.95,44.07a26.12,26.12,0,0,1-14.5,5.93c-.76.07-1.54.1-2.31.1h-65.56c-.77,0-1.55,0-2.31-.1a26.12,26.12,0,0,1-14.5-5.93l-49-44.14-34.6-31.16a5.55,5.55,0,0,1-2-3.65,4.74,4.74,0,0,1,0-1.19,5.6,5.6,0,0,1,2-3.61l29.78-26.82,6-5.36,47.89-43.12a26.12,26.12,0,0,1,14.5-5.93c.76-.06,1.54-.1,2.31-.1h65.56c.77,0,1.55,0,2.31.1a26.12,26.12,0,0,1,14.5,5.93l48.42,43.6,35.2,31.7h0a5.45,5.45,0,0,1,2,3.62A4.58,4.58,0,0,1,1606.73,1264.62Z"/><path class="cls-24" d="M1607.07,1264.94a6,6,0,0,1-2,3.94l-13.8,12.32-.25.06c-25.83,6.07-71.77,8.65-125.12,3.09-.2,0-105.85-9.13-127.91-24.22l35.82-32.26,23-20.52c18.35,20.77,55.74,44.65,78.46,53.65,43.41,17.19,89.55,14.63,114,7.14,6.61-2,11.93-4.71,15.83-8a.71.71,0,0,0,.11-.17,6,6,0,0,1,1.87,3.8A5.72,5.72,0,0,1,1607.07,1264.94Z"/><g class="cls-12"><path class="cls-25" d="M1308.54,932.44a5.58,5.58,0,0,1-2,3.66l-14,12.62-20.66,18.6-49,44.08a26,26,0,0,1-14.5,5.92c-.76.07-1.53.11-2.31.11h-65.55c-.78,0-1.55,0-2.31-.11a26,26,0,0,1-14.5-5.92l-49-44.15-34.61-31.15a5.58,5.58,0,0,1-2-3.66,5.92,5.92,0,0,1,0-1.19,5.6,5.6,0,0,1,2-3.61l29.78-26.82,5.95-5.36,47.9-43.11a26,26,0,0,1,14.5-5.93c.76-.07,1.53-.11,2.31-.11h65.55c.78,0,1.55,0,2.31.11a26,26,0,0,1,14.5,5.93l48.42,43.59,35.21,31.7h0a5.54,5.54,0,0,1,2,3.62A5.72,5.72,0,0,1,1308.54,932.44Z"/><path class="cls-26" d="M1308.87,932.64a6,6,0,0,1-2,3.94l-13.81,12.32-.25.06c-25.82,6.06-71.77,8.65-125.12,3.09-.19,0-105.84-9.13-127.91-24.22l35.82-32.26,23-20.53c18.34,20.77,55.73,44.66,78.45,53.66,43.41,17.19,89.55,14.63,114,7.14,6.6-2,11.93-4.71,15.83-8a.48.48,0,0,0,.1-.17,6,6,0,0,1,1.87,3.8A4.58,4.58,0,0,1,1308.87,932.64Z"/></g><g class="cls-12"><path class="cls-27" d="M1308.54,1103.49a5.58,5.58,0,0,1-2,3.65l-14,12.62-20.66,18.61-49,44.07a26.12,26.12,0,0,1-14.5,5.93c-.76.07-1.53.1-2.31.1h-65.55c-.78,0-1.55,0-2.31-.1a26.12,26.12,0,0,1-14.5-5.93l-49-44.14-34.61-31.16a5.58,5.58,0,0,1-2-3.65,5.92,5.92,0,0,1,0-1.19,5.57,5.57,0,0,1,2-3.61l29.78-26.82,5.95-5.36,47.9-43.12a26.12,26.12,0,0,1,14.5-5.93c.76-.07,1.53-.1,2.31-.1h65.55c.78,0,1.55,0,2.31.1a26.12,26.12,0,0,1,14.5,5.93l48.42,43.6,35.21,31.7h0a5.54,5.54,0,0,1,2,3.62A5.72,5.72,0,0,1,1308.54,1103.49Z"/><path class="cls-28" d="M1308.87,1103a5.94,5.94,0,0,1-2,3.93l-13.81,12.32a1.83,1.83,0,0,1-.25.06c-25.82,6.07-71.77,8.66-125.12,3.1-.19,0-105.84-9.13-127.91-24.23l35.82-32.26,23-20.52c18.34,20.77,55.73,44.65,78.45,53.65,43.41,17.2,89.55,14.64,114,7.14,6.6-2,11.93-4.71,15.83-8a.64.64,0,0,0,.1-.18,6,6,0,0,1,1.87,3.8A4.66,4.66,0,0,1,1308.87,1103Z"/></g><g class="cls-12"><path class="cls-29" d="M1308.54,1274.6a5.58,5.58,0,0,1-2,3.66l-14,12.62-20.66,18.6-49,44.07a26.12,26.12,0,0,1-14.5,5.93c-.76.07-1.53.1-2.31.1h-65.55c-.78,0-1.55,0-2.31-.1a26.12,26.12,0,0,1-14.5-5.93l-49-44.14-34.61-31.15a5.58,5.58,0,0,1-2-3.66,5.92,5.92,0,0,1,0-1.19,5.6,5.6,0,0,1,2-3.61l29.78-26.82,5.95-5.36,47.9-43.12a26.12,26.12,0,0,1,14.5-5.93c.76-.06,1.53-.1,2.31-.1h65.55c.78,0,1.55,0,2.31.1a26.12,26.12,0,0,1,14.5,5.93l48.42,43.6,35.21,31.7h0a5.54,5.54,0,0,1,2,3.62A5.72,5.72,0,0,1,1308.54,1274.6Z"/><path class="cls-30" d="M1308.87,1274.5a6,6,0,0,1-2,3.94l-13.81,12.32-.25,0c-25.82,6.07-71.77,8.66-125.12,3.1-.19,0-105.84-9.13-127.91-24.22l35.82-32.26,23-20.53c18.34,20.77,55.73,44.66,78.45,53.65,43.41,17.2,89.55,14.64,114,7.14,6.6-2,11.93-4.71,15.83-8,0,0,.07-.12.1-.17a6,6,0,0,1,1.87,3.8A4.58,4.58,0,0,1,1308.87,1274.5Z"/></g><g class="cls-12"><path class="cls-31" d="M1308.54,1445.69a5.58,5.58,0,0,1-2,3.66l-14,12.62-20.66,18.6-49,44.07a26,26,0,0,1-14.5,5.93c-.76.07-1.53.11-2.31.11h-65.55c-.78,0-1.55,0-2.31-.11a26,26,0,0,1-14.5-5.93l-49-44.14-34.61-31.15a5.58,5.58,0,0,1-2-3.66,5.92,5.92,0,0,1,0-1.19,5.6,5.6,0,0,1,2-3.61l29.78-26.82,5.95-5.36,47.9-43.12a26,26,0,0,1,14.5-5.92c.76-.07,1.53-.11,2.31-.11h65.55c.78,0,1.55,0,2.31.11a26,26,0,0,1,14.5,5.92l48.42,43.6,35.21,31.7h0a5.54,5.54,0,0,1,2,3.62A5.72,5.72,0,0,1,1308.54,1445.69Z"/><path class="cls-32" d="M1308.87,1446a6,6,0,0,1-2,3.94l-13.81,12.32-.25.06c-25.82,6.06-71.77,8.65-125.12,3.09-.19,0-105.84-9.13-127.91-24.22l35.82-32.26,23-20.53c18.34,20.77,55.73,44.66,78.45,53.66,43.41,17.19,89.55,14.63,114,7.14,6.6-2,11.93-4.71,15.83-8a.48.48,0,0,0,.1-.17,6,6,0,0,1,1.87,3.8A4.58,4.58,0,0,1,1308.87,1446Z"/></g><g class="cls-12"><path class="cls-33" d="M723.34,1445.69a5.58,5.58,0,0,1-2,3.66l-14,12.62-20.66,18.6-48.95,44.07a26,26,0,0,1-14.5,5.93c-.76.07-1.54.11-2.31.11H555.36c-.77,0-1.54,0-2.31-.11a25.94,25.94,0,0,1-14.49-5.93l-49-44.14-34.6-31.15a5.58,5.58,0,0,1-2-3.66,4.74,4.74,0,0,1,0-1.19,5.6,5.6,0,0,1,2-3.61l29.78-26.82,6-5.36,47.9-43.12a26,26,0,0,1,14.49-5.92c.77-.07,1.54-.11,2.31-.11h65.56c.77,0,1.55,0,2.31.11a26,26,0,0,1,14.5,5.92l48.42,43.6,35.21,31.7h0a5.54,5.54,0,0,1,2,3.62A5.72,5.72,0,0,1,723.34,1445.69Z"/><path class="cls-34" d="M723.67,1446a6,6,0,0,1-2,3.94l-13.8,12.32-.25.06c-25.83,6.06-71.77,8.65-125.12,3.09-.19,0-105.85-9.13-127.91-24.22L490.42,1409l23-20.53c18.35,20.77,55.74,44.66,78.46,53.66,43.41,17.19,89.55,14.63,114,7.14,6.61-2,11.93-4.71,15.84-8,0,0,.06-.11.1-.17a6,6,0,0,1,1.87,3.8A5.72,5.72,0,0,1,723.67,1446Z"/></g><g class="cls-12"><path class="cls-35" d="M723.34,1274.58a5.58,5.58,0,0,1-2,3.66l-14,12.62-20.66,18.6-48.95,44.07a26,26,0,0,1-14.5,5.93c-.76.07-1.54.11-2.31.11H555.36c-.77,0-1.54,0-2.31-.11a25.94,25.94,0,0,1-14.49-5.93l-49-44.14-34.6-31.15a5.58,5.58,0,0,1-2-3.66,4.74,4.74,0,0,1,0-1.19,5.6,5.6,0,0,1,2-3.61L484.71,1243l6-5.36,47.9-43.12a26,26,0,0,1,14.49-5.92c.77-.07,1.54-.11,2.31-.11h65.56c.77,0,1.55,0,2.31.11a26,26,0,0,1,14.5,5.92l48.42,43.6,35.21,31.7h0a5.54,5.54,0,0,1,2,3.62A5.72,5.72,0,0,1,723.34,1274.58Z"/><path class="cls-36" d="M723.67,1274.5a6,6,0,0,1-2,3.94l-13.8,12.32-.25,0c-25.83,6.07-71.77,8.66-125.12,3.1-.19,0-105.85-9.13-127.91-24.22l35.82-32.26,23-20.53c18.35,20.77,55.74,44.66,78.46,53.65,43.41,17.2,89.55,14.64,114,7.14,6.61-2,11.93-4.71,15.84-8,0,0,.06-.12.1-.17a6,6,0,0,1,1.87,3.8A5.72,5.72,0,0,1,723.67,1274.5Z"/></g><g class="cls-12"><path class="cls-37" d="M723.34,392.76a5.55,5.55,0,0,1-2,3.65l-14,12.62-20.66,18.61-48.95,44.07a26.12,26.12,0,0,1-14.5,5.93c-.76.07-1.54.1-2.31.1H555.36c-.77,0-1.54,0-2.31-.1a26.08,26.08,0,0,1-14.49-5.93l-49-44.14-34.6-31.16a5.55,5.55,0,0,1-2-3.65,4.74,4.74,0,0,1,0-1.19,5.6,5.6,0,0,1,2-3.61l29.78-26.82,6-5.36,47.9-43.12a26.08,26.08,0,0,1,14.49-5.93c.77-.06,1.54-.1,2.31-.1h65.56c.77,0,1.55,0,2.31.1a26.12,26.12,0,0,1,14.5,5.93l48.42,43.6L721.36,388h0a5.54,5.54,0,0,1,2,3.62A5.72,5.72,0,0,1,723.34,392.76Z"/><path class="cls-38" d="M723.67,393a6,6,0,0,1-2,3.94l-13.8,12.32-.25.05c-25.83,6.07-71.77,8.66-125.12,3.1-.19,0-105.85-9.13-127.91-24.22l35.82-32.26,23-20.53c18.35,20.77,55.74,44.66,78.46,53.65,43.41,17.2,89.55,14.64,114,7.15,6.61-2,11.93-4.72,15.84-8,0,0,.06-.11.1-.17a6,6,0,0,1,1.87,3.8A5.72,5.72,0,0,1,723.67,393Z"/></g><g class="cls-12"><path class="cls-39" d="M1308.54,392.79a5.58,5.58,0,0,1-2,3.65l-14,12.62-20.66,18.6-49,44.08a26,26,0,0,1-14.5,5.92c-.76.07-1.53.11-2.31.11h-65.55c-.78,0-1.55,0-2.31-.11a26,26,0,0,1-14.5-5.92l-49-44.14-34.61-31.16a5.58,5.58,0,0,1-2-3.65,6,6,0,0,1,0-1.2,5.6,5.6,0,0,1,2-3.61l29.78-26.82,5.95-5.36,47.9-43.11a26,26,0,0,1,14.5-5.93c.76-.07,1.53-.1,2.31-.1h65.55c.78,0,1.55,0,2.31.1a26,26,0,0,1,14.5,5.93l48.42,43.59,35.21,31.7v0a5.49,5.49,0,0,1,2,3.61A5.82,5.82,0,0,1,1308.54,392.79Z"/><path class="cls-40" d="M1308.87,393a6,6,0,0,1-2,3.94l-13.81,12.32-.25.06c-25.82,6.07-71.77,8.65-125.12,3.09-.19,0-105.84-9.13-127.91-24.22l35.82-32.26,23-20.52C1117,356.15,1154.36,380,1177.08,389c43.41,17.19,89.55,14.63,114,7.14,6.6-2,11.93-4.71,15.83-8a.48.48,0,0,0,.1-.17,6,6,0,0,1,1.87,3.8A4.58,4.58,0,0,1,1308.87,393Z"/></g><g class="cls-12"><path class="cls-41" d="M421,392.79a5.58,5.58,0,0,1-2,3.65l-14,12.62-20.66,18.6-48.95,44.08a26,26,0,0,1-14.5,5.92c-.76.07-1.53.11-2.31.11H253.07c-.78,0-1.55,0-2.31-.11a26,26,0,0,1-14.5-5.92l-49-44.14-34.61-31.16a5.58,5.58,0,0,1-2-3.65,6,6,0,0,1,0-1.2,5.6,5.6,0,0,1,2-3.61l29.78-26.82,6-5.36,47.9-43.11a26,26,0,0,1,14.5-5.93c.76-.07,1.53-.1,2.31-.1h65.55c.78,0,1.55,0,2.31.1a26,26,0,0,1,14.5,5.93l48.42,43.59L419.06,388v0a5.49,5.49,0,0,1,2,3.61A5.82,5.82,0,0,1,421,392.79Z"/><path class="cls-42" d="M421.37,393a6,6,0,0,1-2,3.94l-13.81,12.32-.25.06c-25.82,6.07-71.77,8.65-125.12,3.09-.19,0-105.84-9.13-127.91-24.22l35.82-32.26,23-20.52C229.47,356.15,266.86,380,289.58,389c43.41,17.19,89.55,14.63,114,7.14,6.6-2,11.93-4.71,15.83-8a.48.48,0,0,0,.1-.17,6,6,0,0,1,1.87,3.8A4.58,4.58,0,0,1,421.37,393Z"/></g><g class="cls-12"><path class="cls-43" d="M421,932.17a5.58,5.58,0,0,1-2,3.65l-14,12.62-20.66,18.61-48.95,44.07a26.12,26.12,0,0,1-14.5,5.93c-.76.07-1.53.1-2.31.1H253.07c-.78,0-1.55,0-2.31-.1a26.12,26.12,0,0,1-14.5-5.93l-49-44.14-34.61-31.16a5.58,5.58,0,0,1-2-3.65,6,6,0,0,1,0-1.2,5.58,5.58,0,0,1,2-3.6l29.78-26.82,6-5.36,47.9-43.12a26.12,26.12,0,0,1,14.5-5.93c.76-.07,1.53-.1,2.31-.1h65.55c.78,0,1.55,0,2.31.1a26.12,26.12,0,0,1,14.5,5.93l48.42,43.59,35.21,31.71h0a5.52,5.52,0,0,1,2,3.62A5.72,5.72,0,0,1,421,932.17Z"/><path class="cls-44" d="M421.37,932.37a5.94,5.94,0,0,1-2,3.93l-13.81,12.32a1.83,1.83,0,0,1-.25.06c-25.82,6.07-71.77,8.65-125.12,3.1-.19,0-105.84-9.14-127.91-24.23l35.82-32.26,23-20.52c18.34,20.77,55.73,44.65,78.45,53.65,43.41,17.19,89.55,14.64,114,7.14,6.6-2,11.93-4.71,15.83-8a.48.48,0,0,0,.1-.17,6,6,0,0,1,1.87,3.8A4.66,4.66,0,0,1,421.37,932.37Z"/></g><g class="cls-12"><path class="cls-45" d="M421,1445.69a5.58,5.58,0,0,1-2,3.66L405,1462l-20.66,18.6-48.95,44.07a26,26,0,0,1-14.5,5.93c-.76.07-1.53.11-2.31.11H253.07c-.78,0-1.55,0-2.31-.11a26,26,0,0,1-14.5-5.93l-49-44.14-34.61-31.15a5.58,5.58,0,0,1-2-3.66,5.92,5.92,0,0,1,0-1.19,5.6,5.6,0,0,1,2-3.61l29.78-26.82,6-5.36,47.9-43.12a26,26,0,0,1,14.5-5.92c.76-.07,1.53-.11,2.31-.11h65.55c.78,0,1.55,0,2.31.11a26,26,0,0,1,14.5,5.92l48.42,43.6,35.21,31.7h0a5.54,5.54,0,0,1,2,3.62A5.72,5.72,0,0,1,421,1445.69Z"/><path class="cls-46" d="M421.37,1446a6,6,0,0,1-2,3.94l-13.81,12.32-.25.06c-25.82,6.06-71.77,8.65-125.12,3.09-.19,0-105.84-9.13-127.91-24.22L188.12,1409l23-20.53c18.34,20.77,55.73,44.66,78.45,53.66,43.41,17.19,89.55,14.63,114,7.14,6.6-2,11.93-4.71,15.83-8a.48.48,0,0,0,.1-.17,6,6,0,0,1,1.87,3.8A4.58,4.58,0,0,1,421.37,1446Z"/></g><g class="cls-12"><path class="cls-47" d="M421,1274.58a5.58,5.58,0,0,1-2,3.66l-14,12.62-20.66,18.6-48.95,44.07a26,26,0,0,1-14.5,5.93c-.76.07-1.53.11-2.31.11H253.07c-.78,0-1.55,0-2.31-.11a26,26,0,0,1-14.5-5.93l-49-44.14-34.61-31.15a5.58,5.58,0,0,1-2-3.66,5.92,5.92,0,0,1,0-1.19,5.6,5.6,0,0,1,2-3.61L182.41,1243l6-5.36,47.9-43.12a26,26,0,0,1,14.5-5.92c.76-.07,1.53-.11,2.31-.11h65.55c.78,0,1.55,0,2.31.11a26,26,0,0,1,14.5,5.92l48.42,43.6,35.21,31.7h0a5.54,5.54,0,0,1,2,3.62A5.72,5.72,0,0,1,421,1274.58Z"/><path class="cls-48" d="M421.37,1274.5a6,6,0,0,1-2,3.94l-13.81,12.32-.25,0c-25.82,6.07-71.77,8.66-125.12,3.1-.19,0-105.84-9.13-127.91-24.22l35.82-32.26,23-20.53c18.34,20.77,55.73,44.66,78.45,53.65,43.41,17.2,89.55,14.64,114,7.14,6.6-2,11.93-4.71,15.83-8,.05,0,.07-.12.1-.17a6,6,0,0,1,1.87,3.8A4.58,4.58,0,0,1,421.37,1274.5Z"/></g><g class="cls-12"><path class="cls-49" d="M421,1103.47a5.58,5.58,0,0,1-2,3.65l-14,12.62-20.66,18.61-48.95,44.07a26.12,26.12,0,0,1-14.5,5.93c-.76.07-1.53.1-2.31.1H253.07c-.78,0-1.55,0-2.31-.1a26.12,26.12,0,0,1-14.5-5.93l-49-44.14-34.61-31.16a5.58,5.58,0,0,1-2-3.65,5.92,5.92,0,0,1,0-1.19,5.57,5.57,0,0,1,2-3.61l29.78-26.82,6-5.36,47.9-43.12a26.12,26.12,0,0,1,14.5-5.93c.76-.07,1.53-.1,2.31-.1h65.55c.78,0,1.55,0,2.31.1a26.12,26.12,0,0,1,14.5,5.93l48.42,43.6,35.21,31.7h0a5.54,5.54,0,0,1,2,3.62A5.72,5.72,0,0,1,421,1103.47Z"/><path class="cls-50" d="M421.37,1103a5.94,5.94,0,0,1-2,3.94l-13.81,12.32-.25.06c-25.82,6.07-71.77,8.65-125.12,3.09-.19,0-105.84-9.13-127.91-24.22l35.82-32.26,23-20.52c18.34,20.77,55.73,44.65,78.45,53.65,43.41,17.19,89.55,14.63,114,7.14,6.6-2,11.93-4.71,15.83-8a.48.48,0,0,0,.1-.17,6,6,0,0,1,1.87,3.8A4.58,4.58,0,0,1,421.37,1103Z"/></g><g class="cls-12"><path class="cls-51" d="M723.34,932.43a5.58,5.58,0,0,1-2,3.65l-14,12.62-20.66,18.6-48.95,44.08a26,26,0,0,1-14.5,5.92c-.76.07-1.54.11-2.31.11H555.36c-.77,0-1.54,0-2.31-.11a26,26,0,0,1-14.49-5.92l-49-44.14-34.6-31.16a5.58,5.58,0,0,1-2-3.65,4.82,4.82,0,0,1,0-1.2,5.6,5.6,0,0,1,2-3.61l29.78-26.82,6-5.36,47.9-43.11a25.94,25.94,0,0,1,14.49-5.93c.77-.07,1.54-.11,2.31-.11h65.56c.77,0,1.55,0,2.31.11a26,26,0,0,1,14.5,5.93l48.42,43.59,35.21,31.7h0a5.54,5.54,0,0,1,2,3.62A5.82,5.82,0,0,1,723.34,932.43Z"/><path class="cls-52" d="M723.67,932.62a6,6,0,0,1-2,3.94l-13.8,12.32-.25.06C681.8,955,635.86,957.59,582.51,952c-.19,0-105.85-9.13-127.91-24.22l35.82-32.26,23-20.53c18.35,20.77,55.74,44.66,78.46,53.66,43.41,17.19,89.55,14.63,114,7.14,6.61-2,11.93-4.71,15.84-8,0,0,.06-.11.1-.17a6,6,0,0,1,1.87,3.8A5.72,5.72,0,0,1,723.67,932.62Z"/></g><g class="cls-12"><path class="cls-53" d="M723.34,1103.47a5.58,5.58,0,0,1-2,3.65l-14,12.62-20.66,18.61-48.95,44.07a26.12,26.12,0,0,1-14.5,5.93c-.76.07-1.54.1-2.31.1H555.36c-.77,0-1.54,0-2.31-.1a26.08,26.08,0,0,1-14.49-5.93l-49-44.14-34.6-31.16a5.58,5.58,0,0,1-2-3.65,4.74,4.74,0,0,1,0-1.19,5.57,5.57,0,0,1,2-3.61l29.78-26.82,6-5.36,47.9-43.12a26.08,26.08,0,0,1,14.49-5.93c.77-.07,1.54-.1,2.31-.1h65.56c.77,0,1.55,0,2.31.1a26.12,26.12,0,0,1,14.5,5.93l48.42,43.6,35.21,31.7h0a5.54,5.54,0,0,1,2,3.62A5.72,5.72,0,0,1,723.34,1103.47Z"/><path class="cls-54" d="M723.67,1103a6,6,0,0,1-2,3.93l-13.8,12.32a1.83,1.83,0,0,1-.25.06c-25.83,6.07-71.77,8.66-125.12,3.1-.19,0-105.85-9.13-127.91-24.23l35.82-32.26,23-20.52c18.35,20.77,55.74,44.65,78.46,53.65,43.41,17.2,89.55,14.64,114,7.14,6.61-2,11.93-4.71,15.84-8,0-.05.06-.12.1-.18a6,6,0,0,1,1.87,3.8A5.82,5.82,0,0,1,723.67,1103Z"/></g><g class="cls-12"><path class="cls-55" d="M1017.65,1445.69a5.58,5.58,0,0,1-2,3.66l-14,12.62L981,1480.57l-49,44.07a26,26,0,0,1-14.5,5.93c-.76.07-1.53.11-2.31.11H849.68c-.78,0-1.55,0-2.31-.11a26,26,0,0,1-14.5-5.93l-49-44.14-34.61-31.15a5.58,5.58,0,0,1-2-3.66,5.92,5.92,0,0,1,0-1.19,5.6,5.6,0,0,1,2-3.61L779,1414.07l6-5.36,47.9-43.12a26,26,0,0,1,14.5-5.92c.76-.07,1.53-.11,2.31-.11h65.55c.78,0,1.55,0,2.31.11a26,26,0,0,1,14.5,5.92l48.42,43.6,35.21,31.7h0a5.54,5.54,0,0,1,2,3.62A5.72,5.72,0,0,1,1017.65,1445.69Z"/><path class="cls-56" d="M1018,1446a6,6,0,0,1-2,3.94l-13.81,12.32-.25.06c-25.82,6.06-71.77,8.65-125.12,3.09-.19,0-105.84-9.13-127.91-24.22L784.73,1409l23-20.53c18.34,20.77,55.73,44.66,78.45,53.66,43.41,17.19,89.55,14.63,114,7.14,6.6-2,11.93-4.71,15.83-8a.48.48,0,0,0,.1-.17,6,6,0,0,1,1.87,3.8A4.58,4.58,0,0,1,1018,1446Z"/></g><g class="cls-12"><path class="cls-57" d="M1017.65,1274.58a5.58,5.58,0,0,1-2,3.66l-14,12.61L981,1309.46l-49,44.07a26.12,26.12,0,0,1-14.5,5.93c-.76.07-1.53.1-2.31.1H849.68c-.78,0-1.55,0-2.31-.1a26.12,26.12,0,0,1-14.5-5.93l-49-44.14-34.61-31.15a5.58,5.58,0,0,1-2-3.66,5.92,5.92,0,0,1,0-1.19,5.6,5.6,0,0,1,2-3.61L779,1243l6-5.36,47.9-43.12a26.12,26.12,0,0,1,14.5-5.93c.76-.06,1.53-.1,2.31-.1h65.55c.78,0,1.55,0,2.31.1a26.12,26.12,0,0,1,14.5,5.93l48.42,43.6,35.21,31.7h0a5.54,5.54,0,0,1,2,3.62A5.72,5.72,0,0,1,1017.65,1274.58Z"/><path class="cls-58" d="M1018,1274.5a6,6,0,0,1-2,3.94l-13.81,12.32-.25,0c-25.82,6.07-71.77,8.66-125.12,3.1-.19,0-105.84-9.13-127.91-24.22l35.82-32.26,23-20.53c18.34,20.77,55.73,44.66,78.45,53.65,43.41,17.2,89.55,14.64,114,7.14,6.6-2,11.93-4.71,15.83-8,0,0,.07-.12.1-.17a6,6,0,0,1,1.87,3.8A4.58,4.58,0,0,1,1018,1274.5Z"/></g><g class="cls-12"><path class="cls-59" d="M1017.65,1103.47a5.58,5.58,0,0,1-2,3.65l-14,12.62L981,1138.35l-49,44.07a26.12,26.12,0,0,1-14.5,5.93c-.76.07-1.53.1-2.31.1H849.68c-.78,0-1.55,0-2.31-.1a26.12,26.12,0,0,1-14.5-5.93l-49-44.14-34.61-31.16a5.58,5.58,0,0,1-2-3.65,5.92,5.92,0,0,1,0-1.19,5.57,5.57,0,0,1,2-3.61L779,1071.85l6-5.36,47.9-43.12a26.12,26.12,0,0,1,14.5-5.93c.76-.07,1.53-.1,2.31-.1h65.55c.78,0,1.55,0,2.31.1a26.12,26.12,0,0,1,14.5,5.93l48.42,43.6,35.21,31.7h0a5.54,5.54,0,0,1,2,3.62A5.72,5.72,0,0,1,1017.65,1103.47Z"/><path class="cls-60" d="M1018,1103a5.94,5.94,0,0,1-2,3.93l-13.81,12.32-.25.06c-25.82,6.07-71.77,8.65-125.12,3.1-.19,0-105.84-9.14-127.91-24.23l35.82-32.26,23-20.52c18.34,20.77,55.73,44.65,78.45,53.65,43.41,17.19,89.55,14.64,114,7.14,6.6-2,11.93-4.71,15.83-8a.48.48,0,0,0,.1-.17,6,6,0,0,1,1.87,3.8A4.66,4.66,0,0,1,1018,1103Z"/></g><g class="cls-12"><path class="cls-61" d="M1017.65,932.15a5.55,5.55,0,0,1-2,3.65l-14,12.62L981,967l-49,44.07a26.12,26.12,0,0,1-14.5,5.93c-.76.07-1.53.1-2.31.1H849.68c-.78,0-1.55,0-2.31-.1a26.12,26.12,0,0,1-14.5-5.93l-49-44.14L749.24,935.8a5.55,5.55,0,0,1-2-3.65,5.92,5.92,0,0,1,0-1.19,5.6,5.6,0,0,1,2-3.61L779,900.53l6-5.36,47.9-43.12a26.12,26.12,0,0,1,14.5-5.93c.76-.06,1.53-.1,2.31-.1h65.55c.78,0,1.55,0,2.31.1a26.12,26.12,0,0,1,14.5,5.93l48.42,43.6,35.21,31.7h0a5.54,5.54,0,0,1,2,3.62A5.72,5.72,0,0,1,1017.65,932.15Z"/><path class="cls-62" d="M1018,932.37a5.94,5.94,0,0,1-2,3.93l-13.81,12.32a1.83,1.83,0,0,1-.25.06c-25.82,6.07-71.77,8.65-125.12,3.1-.19,0-105.84-9.14-127.91-24.23l35.82-32.26,23-20.52c18.34,20.77,55.73,44.65,78.45,53.65,43.41,17.19,89.55,14.64,114,7.14,6.6-2,11.93-4.71,15.83-8a.48.48,0,0,0,.1-.17,6,6,0,0,1,1.87,3.8A4.66,4.66,0,0,1,1018,932.37Z"/></g><path class="cls-63" d="M23.58,245.32V1592.54h1718V245.32Zm1643.82,1289H96.59V672.83h1570.7V639.75H96.59V303.5H1667.4Z"/><path class="cls-64" d="M1449.11,510.71h51.31v10.46h-39.26l-5.1,18.26.28.2a22.31,22.31,0,0,1,8.29-4,37.7,37.7,0,0,1,10-1.38A44.8,44.8,0,0,1,1487.8,536a28.58,28.58,0,0,1,9.78,5,21.41,21.41,0,0,1,6,7.64,22.45,22.45,0,0,1,2.05,9.54,23.19,23.19,0,0,1-8,17.18,32.88,32.88,0,0,1-10.7,6.16,45.16,45.16,0,0,1-15.59,2.41,60.69,60.69,0,0,1-13.39-1.39,37.19,37.19,0,0,1-10.84-4.15,23,23,0,0,1-7.44-6.82,18.21,18.21,0,0,1-3-9.49h16.16a11.85,11.85,0,0,0,5.53,9q4.82,3.13,12.75,3.13a26.61,26.61,0,0,0,8.65-1.23,15.28,15.28,0,0,0,5.74-3.38,12.13,12.13,0,0,0,3.11-5,19.85,19.85,0,0,0,.93-6.15,14.58,14.58,0,0,0-1.14-5.7,13.37,13.37,0,0,0-3.4-4.77,16.72,16.72,0,0,0-5.88-3.28,26.18,26.18,0,0,0-8.43-1.23,32.23,32.23,0,0,0-9.57,1.38,10.4,10.4,0,0,0-6.45,5.18h-16.16Z"/><path class="cls-64" d="M1439.19,719.93a76.47,76.47,0,0,0,9.92-.62,39.69,39.69,0,0,0,8.72-2,22.65,22.65,0,0,0,6.66-3.69,10.33,10.33,0,0,0,3.61-5.54h13.19v71.81h-17.72V729.16h-24.38Z"/><path class="cls-64" d="M1439.19,890.41a78.3,78.3,0,0,0,9.92-.61,39.68,39.68,0,0,0,8.72-2.06,22.65,22.65,0,0,0,6.66-3.69,10.33,10.33,0,0,0,3.61-5.54h13.19v71.81h-17.72V899.64h-24.38Z"/><path class="cls-64" d="M1439.19,1061.79a78.28,78.28,0,0,0,9.92-.62,39.69,39.69,0,0,0,8.72-2.05,23.11,23.11,0,0,0,6.66-3.69,10.36,10.36,0,0,0,3.61-5.54h13.19v71.8h-17.72V1071h-24.38Z"/><path class="cls-64" d="M1439.19,1233.64a78.3,78.3,0,0,0,9.92-.61,39.68,39.68,0,0,0,8.72-2.06,22.65,22.65,0,0,0,6.66-3.69,10.33,10.33,0,0,0,3.61-5.54h13.19v71.81h-17.72v-50.68h-24.38Z"/><path class="cls-1" d="M3447.36,1795h-92.45a32.14,32.14,0,0,1,8.12-21.28q7.93-9.11,21.66-15.82,6.58-3.5,13.74-6.79a113.44,113.44,0,0,0,13.15-7.07,44.94,44.94,0,0,0,9.87-8.19,15.83,15.83,0,0,0,4.06-10.15,20.49,20.49,0,0,0-.87-5.67,13.34,13.34,0,0,0-3.39-5.6,19.49,19.49,0,0,0-7-4.34,32.18,32.18,0,0,0-11.61-1.75,27.49,27.49,0,0,0-10.92,1.89,17.66,17.66,0,0,0-7,5.18,21.81,21.81,0,0,0-3.87,7.77,41.4,41.4,0,0,0-1.45,9.66h-22a37.49,37.49,0,0,1,3-15,32.25,32.25,0,0,1,9-12,44.07,44.07,0,0,1,14.61-7.91,63.39,63.39,0,0,1,20-2.87q12.38,0,20.69,2.94a40.92,40.92,0,0,1,13.45,7.42,26.12,26.12,0,0,1,7.25,9.73,26.64,26.64,0,0,1,2.13,10,22.37,22.37,0,0,1-2.52,10.64,33.19,33.19,0,0,1-6.77,8.75,61.11,61.11,0,0,1-9.67,7.35q-5.42,3.36-11.22,6.3t-11.6,5.6q-5.81,2.65-10.74,5.32a60.89,60.89,0,0,0-8.6,5.53,15.51,15.51,0,0,0-5,6.09h66Z"/><path class="cls-1" d="M3059.31,1713.27a106.89,106.89,0,0,0,13.54-.84,54.23,54.23,0,0,0,11.9-2.8,31.71,31.71,0,0,0,9.09-5,14.2,14.2,0,0,0,4.93-7.56h18v98h-24.18v-69.16h-33.27Z"/><path class="cls-1" d="M2929.25,1752.61h-97.49v-14.28h97.49Zm0,28.28h-97.49v-14.28h97.49Z"/><path class="cls-1" d="M2802.38,90.65a70.2,70.2,0,0,0,10.83-.56,38.32,38.32,0,0,0,9.67-2.45,17.61,17.61,0,0,0,6.87-4.83,11.28,11.28,0,0,0,2.61-7.56q0-6.3-5.9-10.08t-15.19-3.78a27.29,27.29,0,0,0-10.05,1.68,19.88,19.88,0,0,0-7.06,4.55,18.51,18.51,0,0,0-4.16,6.44,17.79,17.79,0,0,0-1.16,7.35h-22.05a30.94,30.94,0,0,1,3.67-13.23,33.69,33.69,0,0,1,9-10.57,42.43,42.43,0,0,1,13.83-7,61.86,61.86,0,0,1,18.37-2.52,72.24,72.24,0,0,1,15.57,1.68,54.23,54.23,0,0,1,13.74,4.9,28.47,28.47,0,0,1,9.76,8.19,18.69,18.69,0,0,1,3.68,11.41,19.54,19.54,0,0,1-4.64,13q-4.65,5.53-14.51,8v.28q11.61,1.68,18.08,8.33a22.3,22.3,0,0,1,6.48,16.17,21.39,21.39,0,0,1-3.86,12.53,32.64,32.64,0,0,1-10.45,9.38,56,56,0,0,1-15.28,5.95,78.13,78.13,0,0,1-18.38,2.1,77.29,77.29,0,0,1-20.59-2.45,43.2,43.2,0,0,1-14.71-6.93,30.11,30.11,0,0,1-9-10.78,33.33,33.33,0,0,1-3.29-14h22.05a18.22,18.22,0,0,0,6.1,14.91q6.47,6,19.43,6,11,0,18.48-4.55t7.44-13q0-5.74-3.09-9.1a19.57,19.57,0,0,0-8.13-5.11,42.94,42.94,0,0,0-11.31-2.17q-6.28-.42-12.86-.28Z"/><path class="cls-1" d="M2026.07,303.5V1534.36H3596.88V303.5Zm1525.55,1185H2071.34V349.34H3551.62Z"/><rect class="cls-65" x="2494.81" y="320.34" width="45.63" height="1210.33" rx="15.23" ry="15.23"/><rect class="cls-66" x="2789.13" y="320.34" width="45.63" height="1210.33" rx="15.23" ry="15.23"/><rect class="cls-67" x="3080.02" y="320.34" width="45.63" height="1210.33" rx="15.23" ry="15.23"/><rect class="cls-68" x="3377.75" y="320.34" width="45.63" height="1210.33" rx="15.23" ry="15.23"/><rect class="cls-69" x="2192.51" y="320.34" width="45.63" height="1210.33" rx="15.23" ry="15.23"/><polygon class="cls-1" points="3596.99 639.75 2026.49 639.75 2071.51 627.21 3551.96 627.21 3596.99 639.75"/><rect class="cls-70" x="2192.51" y="306.66" width="45.63" height="331.96" rx="15.23" ry="15.23"/><rect class="cls-71" x="2494.81" y="306.66" width="45.63" height="331.96" rx="15.23" ry="15.23"/><rect class="cls-72" x="2789.13" y="306.66" width="45.63" height="331.96" rx="15.23" ry="15.23"/><rect class="cls-73" x="3080.02" y="306.66" width="45.63" height="331.96" rx="15.23" ry="15.23"/><rect class="cls-74" x="3377.75" y="306.66" width="45.63" height="331.96" rx="15.23" ry="15.23"/><g class="cls-12"><path class="cls-75" d="M2947.13,392.76a5.55,5.55,0,0,1-2,3.65l-14,12.62-20.65,18.61-48.95,44.07a26.12,26.12,0,0,1-14.5,5.93c-.76.07-1.54.1-2.31.1h-65.56c-.77,0-1.55,0-2.31-.1a26.12,26.12,0,0,1-14.5-5.93l-49-44.14-34.6-31.16a5.55,5.55,0,0,1-2-3.65,4.74,4.74,0,0,1,0-1.19,5.6,5.6,0,0,1,2-3.61l29.78-26.82,5.95-5.36,47.89-43.12a26.12,26.12,0,0,1,14.5-5.93c.76-.06,1.54-.1,2.31-.1h65.56c.77,0,1.55,0,2.31.1a26.12,26.12,0,0,1,14.5,5.93l48.41,43.6,35.21,31.7h0a5.54,5.54,0,0,1,2,3.62A4.58,4.58,0,0,1,2947.13,392.76Z"/><path class="cls-76" d="M2947.47,393a6,6,0,0,1-2,3.94l-13.8,12.32-.25.06c-25.83,6.06-71.77,8.65-125.12,3.09-.2,0-105.85-9.13-127.91-24.22l35.82-32.26,23-20.53c18.35,20.77,55.74,44.66,78.46,53.66,43.41,17.19,89.55,14.63,114,7.14,6.61-2,11.93-4.71,15.83-8a.71.71,0,0,0,.11-.17,6,6,0,0,1,1.87,3.8A5.72,5.72,0,0,1,2947.47,393Z"/></g><path class="cls-77" d="M3536.22,392.76a5.55,5.55,0,0,1-2,3.65l-14,12.62-20.65,18.61-49,44.07a26.12,26.12,0,0,1-14.5,5.93c-.76.07-1.53.1-2.31.1h-65.55c-.78,0-1.55,0-2.31-.1a26.12,26.12,0,0,1-14.5-5.93l-49-44.14-34.61-31.16a5.55,5.55,0,0,1-2-3.65,5.92,5.92,0,0,1,0-1.19,5.6,5.6,0,0,1,2-3.61l29.78-26.82,5.95-5.36,47.9-43.12a26.12,26.12,0,0,1,14.5-5.93c.76-.06,1.53-.1,2.31-.1h65.55c.78,0,1.55,0,2.31.1a26.12,26.12,0,0,1,14.5,5.93l48.42,43.6,35.21,31.7h0a5.54,5.54,0,0,1,2,3.62A5.72,5.72,0,0,1,3536.22,392.76Z"/><path class="cls-78" d="M3536.55,393a6,6,0,0,1-2,3.94l-13.81,12.32-.25.06c-25.82,6.06-71.77,8.65-125.12,3.09-.19,0-105.84-9.13-127.91-24.22l35.82-32.26,23-20.53c18.34,20.77,55.73,44.66,78.45,53.66,43.41,17.19,89.55,14.63,114,7.14,6.6-2,11.93-4.71,15.83-8a.48.48,0,0,0,.1-.17,6,6,0,0,1,1.87,3.8A4.58,4.58,0,0,1,3536.55,393Z"/><path class="cls-79" d="M3536.22,751a5.58,5.58,0,0,1-2,3.65l-14,12.62-20.65,18.61-49,44.07a26.12,26.12,0,0,1-14.5,5.93c-.76.07-1.53.1-2.31.1h-65.55c-.78,0-1.55,0-2.31-.1a26.12,26.12,0,0,1-14.5-5.93l-49-44.14-34.61-31.16a5.58,5.58,0,0,1-2-3.65,5.92,5.92,0,0,1,0-1.19,5.57,5.57,0,0,1,2-3.61l29.78-26.82,5.95-5.36,47.9-43.12a26.12,26.12,0,0,1,14.5-5.93c.76-.07,1.53-.1,2.31-.1h65.55c.78,0,1.55,0,2.31.1a26.12,26.12,0,0,1,14.5,5.93L3499,714.47l35.21,31.71h0a5.54,5.54,0,0,1,2,3.62A5.72,5.72,0,0,1,3536.22,751Z"/><path class="cls-80" d="M3536.55,751.18a5.94,5.94,0,0,1-2,3.93l-13.81,12.32a1.83,1.83,0,0,1-.25.06c-25.82,6.07-71.77,8.65-125.12,3.1-.19,0-105.84-9.13-127.91-24.23l35.82-32.26,23-20.52c18.34,20.77,55.73,44.65,78.45,53.65,43.41,17.2,89.55,14.64,114,7.14,6.6-2,11.93-4.71,15.83-8a.64.64,0,0,0,.1-.18,6,6,0,0,1,1.87,3.8A4.66,4.66,0,0,1,3536.55,751.18Z"/><path class="cls-81" d="M3536.22,922a5.58,5.58,0,0,1-2,3.66l-14,12.62-20.65,18.6-49,44.07a26,26,0,0,1-14.5,5.93c-.76.07-1.53.11-2.31.11h-65.55c-.78,0-1.55,0-2.31-.11a26,26,0,0,1-14.5-5.93l-49-44.14-34.61-31.15a5.58,5.58,0,0,1-2-3.66,5.92,5.92,0,0,1,0-1.19,5.6,5.6,0,0,1,2-3.61l29.78-26.82,5.95-5.36,47.9-43.12a26,26,0,0,1,14.5-5.92c.76-.07,1.53-.11,2.31-.11h65.55c.78,0,1.55,0,2.31.11a26,26,0,0,1,14.5,5.92l48.42,43.6,35.21,31.7h0a5.54,5.54,0,0,1,2,3.62A5.72,5.72,0,0,1,3536.22,922Z"/><path class="cls-82" d="M3536.55,921.5a6,6,0,0,1-2,3.94l-13.81,12.32-.25.06c-25.82,6.06-71.77,8.65-125.12,3.09-.19,0-105.84-9.13-127.91-24.22l35.82-32.26,23-20.53c18.34,20.77,55.73,44.66,78.45,53.66,43.41,17.19,89.55,14.63,114,7.14,6.6-2,11.93-4.71,15.83-8a.48.48,0,0,0,.1-.17,6,6,0,0,1,1.87,3.8A4.58,4.58,0,0,1,3536.55,921.5Z"/><path class="cls-83" d="M3536.22,1274.6a5.58,5.58,0,0,1-2,3.65l-14,12.62-20.65,18.61-49,44.07a26.12,26.12,0,0,1-14.5,5.93c-.76.07-1.53.1-2.31.1h-65.55c-.78,0-1.55,0-2.31-.1a26.12,26.12,0,0,1-14.5-5.93l-49-44.14-34.61-31.16a5.58,5.58,0,0,1-2-3.65,6,6,0,0,1,0-1.2,5.58,5.58,0,0,1,2-3.6l29.78-26.82,5.95-5.36,47.9-43.12a26.12,26.12,0,0,1,14.5-5.93c.76-.07,1.53-.1,2.31-.1h65.55c.78,0,1.55,0,2.31.1a26.12,26.12,0,0,1,14.5,5.93l48.42,43.59,35.21,31.71h0a5.52,5.52,0,0,1,2,3.62A5.72,5.72,0,0,1,3536.22,1274.6Z"/><path class="cls-84" d="M3536.55,1274.5a6,6,0,0,1-2,3.94l-13.81,12.32-.25,0c-25.82,6.07-71.77,8.66-125.12,3.1-.19,0-105.84-9.13-127.91-24.22l35.82-32.26,23-20.53c18.34,20.77,55.73,44.66,78.45,53.65,43.41,17.2,89.55,14.64,114,7.14,6.6-2,11.93-4.71,15.83-8,.05,0,.07-.12.1-.17a6,6,0,0,1,1.87,3.8A4.58,4.58,0,0,1,3536.55,1274.5Z"/><path class="cls-85" d="M3536.22,1445.71a5.58,5.58,0,0,1-2,3.65l-14,12.62-20.65,18.61-49,44.07a26.12,26.12,0,0,1-14.5,5.93c-.76.07-1.53.1-2.31.1h-65.55c-.78,0-1.55,0-2.31-.1a26.12,26.12,0,0,1-14.5-5.93l-49-44.14-34.61-31.16a5.58,5.58,0,0,1-2-3.65,6,6,0,0,1,0-1.2,5.58,5.58,0,0,1,2-3.6l29.78-26.82,5.95-5.36,47.9-43.12a26.12,26.12,0,0,1,14.5-5.93c.76-.07,1.53-.1,2.31-.1h65.55c.78,0,1.55,0,2.31.1a26.12,26.12,0,0,1,14.5,5.93L3499,1409.2l35.21,31.71h0a5.52,5.52,0,0,1,2,3.62A5.72,5.72,0,0,1,3536.22,1445.71Z"/><path class="cls-86" d="M3536.55,1446a6,6,0,0,1-2,3.94l-13.81,12.32-.25.06c-25.82,6.06-71.77,8.65-125.12,3.09-.19,0-105.84-9.13-127.91-24.22L3303.3,1409l23-20.53c18.34,20.77,55.73,44.66,78.45,53.66,43.41,17.19,89.55,14.63,114,7.14,6.6-2,11.93-4.71,15.83-8a.48.48,0,0,0,.1-.17,6,6,0,0,1,1.87,3.8A4.58,4.58,0,0,1,3536.55,1446Z"/><path class="cls-87" d="M3238,751a5.53,5.53,0,0,1-2,3.65l-14,12.62-20.65,18.61-48.95,44.07a26.12,26.12,0,0,1-14.5,5.93c-.76.07-1.54.1-2.31.1h-65.56c-.77,0-1.55,0-2.31-.1a26.12,26.12,0,0,1-14.5-5.93l-49-44.14-34.6-31.16a5.58,5.58,0,0,1-2-3.65,4.74,4.74,0,0,1,0-1.19,5.57,5.57,0,0,1,2-3.61l29.78-26.82,5.95-5.36,47.89-43.12a26.12,26.12,0,0,1,14.5-5.93c.76-.07,1.54-.1,2.31-.1h65.56c.77,0,1.55,0,2.31.1a26.12,26.12,0,0,1,14.5,5.93l48.42,43.59,35.2,31.71h0a5.5,5.5,0,0,1,2,3.62A4.58,4.58,0,0,1,3238,751Z"/><path class="cls-88" d="M3238.36,751.18a6,6,0,0,1-2,3.93l-13.8,12.32a1.83,1.83,0,0,1-.25.06c-25.83,6.07-71.77,8.65-125.12,3.1-.2,0-105.85-9.13-127.91-24.23l35.82-32.26,23-20.52c18.35,20.77,55.74,44.65,78.46,53.65,43.41,17.2,89.55,14.64,114,7.14,6.61-2,11.93-4.71,15.83-8a1.08,1.08,0,0,0,.11-.18,6,6,0,0,1,1.87,3.8A5.82,5.82,0,0,1,3238.36,751.18Z"/><g class="cls-12"><path class="cls-89" d="M3238,1103.49a5.53,5.53,0,0,1-2,3.65l-14,12.62-20.65,18.61-48.95,44.07a26.12,26.12,0,0,1-14.5,5.93c-.76.07-1.54.1-2.31.1h-65.56c-.77,0-1.55,0-2.31-.1a26.12,26.12,0,0,1-14.5-5.93l-49-44.14-34.6-31.16a5.58,5.58,0,0,1-2-3.65,4.74,4.74,0,0,1,0-1.19,5.57,5.57,0,0,1,2-3.61l29.78-26.82,5.95-5.36,47.89-43.12a26.12,26.12,0,0,1,14.5-5.93c.76-.07,1.54-.1,2.31-.1h65.56c.77,0,1.55,0,2.31.1a26.12,26.12,0,0,1,14.5,5.93l48.42,43.6,35.2,31.7h0a5.5,5.5,0,0,1,2,3.62A4.58,4.58,0,0,1,3238,1103.49Z"/><path class="cls-90" d="M3238.36,1103a6,6,0,0,1-2,3.93l-13.8,12.32a1.83,1.83,0,0,1-.25.06c-25.83,6.07-71.77,8.66-125.12,3.1-.2,0-105.85-9.13-127.91-24.23l35.82-32.26,23-20.52c18.35,20.77,55.74,44.65,78.46,53.65,43.41,17.2,89.55,14.64,114,7.14,6.61-2,11.93-4.71,15.83-8a1.08,1.08,0,0,0,.11-.18,6,6,0,0,1,1.87,3.8A5.82,5.82,0,0,1,3238.36,1103Z"/></g><g class="cls-12"><path class="cls-91" d="M3238,1274.6a5.53,5.53,0,0,1-2,3.66l-14,12.62-20.65,18.6-48.95,44.07a26.12,26.12,0,0,1-14.5,5.93c-.76.07-1.54.1-2.31.1h-65.56c-.77,0-1.55,0-2.31-.1a26.12,26.12,0,0,1-14.5-5.93l-49-44.14-34.6-31.15a5.58,5.58,0,0,1-2-3.66,4.74,4.74,0,0,1,0-1.19,5.6,5.6,0,0,1,2-3.61L2999.4,1243l5.95-5.36,47.89-43.12a26.12,26.12,0,0,1,14.5-5.93c.76-.06,1.54-.1,2.31-.1h65.56c.77,0,1.55,0,2.31.1a26.12,26.12,0,0,1,14.5,5.93l48.42,43.6,35.2,31.7h0a5.5,5.5,0,0,1,2,3.62A4.58,4.58,0,0,1,3238,1274.6Z"/><path class="cls-92" d="M3238.36,1274.5a6,6,0,0,1-2,3.94l-13.8,12.32-.25,0c-25.83,6.07-71.77,8.66-125.12,3.1-.2,0-105.85-9.13-127.91-24.22l35.82-32.26,23-20.53c18.35,20.77,55.74,44.66,78.46,53.65,43.41,17.2,89.55,14.64,114,7.14,6.61-2,11.93-4.71,15.83-8,0,0,.07-.12.11-.17a6,6,0,0,1,1.87,3.8A5.72,5.72,0,0,1,3238.36,1274.5Z"/></g><g class="cls-12"><path class="cls-93" d="M3238,1445.69a5.53,5.53,0,0,1-2,3.66L3222,1462l-20.65,18.6-48.95,44.07a26,26,0,0,1-14.5,5.93c-.76.07-1.54.11-2.31.11h-65.56c-.77,0-1.55,0-2.31-.11a26,26,0,0,1-14.5-5.93l-49-44.14-34.6-31.15a5.58,5.58,0,0,1-2-3.66,4.74,4.74,0,0,1,0-1.19,5.6,5.6,0,0,1,2-3.61l29.78-26.82,5.95-5.36,47.89-43.12a26,26,0,0,1,14.5-5.92c.76-.07,1.54-.11,2.31-.11h65.56c.77,0,1.55,0,2.31.11a26,26,0,0,1,14.5,5.92l48.42,43.6,35.2,31.7h0a5.5,5.5,0,0,1,2,3.62A4.58,4.58,0,0,1,3238,1445.69Z"/><path class="cls-94" d="M3238.36,1446a6,6,0,0,1-2,3.94l-13.8,12.32-.25.06c-25.83,6.06-71.77,8.65-125.12,3.09-.2,0-105.85-9.13-127.91-24.22l35.82-32.26,23-20.53c18.35,20.77,55.74,44.66,78.46,53.66,43.41,17.19,89.55,14.63,114,7.14,6.61-2,11.93-4.71,15.83-8a.71.71,0,0,0,.11-.17,6,6,0,0,1,1.87,3.8A5.72,5.72,0,0,1,3238.36,1446Z"/></g><g class="cls-12"><path class="cls-95" d="M2652.82,1445.69a5.58,5.58,0,0,1-2,3.66l-14,12.62-20.65,18.6-49,44.07a25.94,25.94,0,0,1-14.49,5.93c-.77.07-1.54.11-2.31.11h-65.56c-.77,0-1.55,0-2.31-.11a26,26,0,0,1-14.5-5.93l-49-44.14-34.61-31.15a5.58,5.58,0,0,1-2-3.66,5.92,5.92,0,0,1,0-1.19,5.6,5.6,0,0,1,2-3.61l29.78-26.82,6-5.36,47.89-43.12a26,26,0,0,1,14.5-5.92c.76-.07,1.54-.11,2.31-.11h65.56c.77,0,1.54,0,2.31.11a26,26,0,0,1,14.49,5.92l48.42,43.6,35.21,31.7h0a5.54,5.54,0,0,1,2,3.62A4.58,4.58,0,0,1,2652.82,1445.69Z"/><path class="cls-96" d="M2653.15,1446a5.92,5.92,0,0,1-2,3.94l-13.8,12.32-.26.06c-25.82,6.06-71.77,8.65-125.12,3.09-.19,0-105.84-9.13-127.9-24.22,0,0,35.82-32.26,35.82-32.26l23-20.53c18.35,20.77,55.73,44.66,78.45,53.66,43.42,17.19,89.55,14.63,114,7.14,6.6-2,11.93-4.71,15.83-8a.48.48,0,0,0,.1-.17,5.93,5.93,0,0,1,1.87,3.8A4.58,4.58,0,0,1,2653.15,1446Z"/></g><g class="cls-12"><path class="cls-97" d="M2652.82,1274.58a5.58,5.58,0,0,1-2,3.66l-14,12.62-20.65,18.6-49,44.07a25.94,25.94,0,0,1-14.49,5.93c-.77.07-1.54.11-2.31.11h-65.56c-.77,0-1.55,0-2.31-.11a26,26,0,0,1-14.5-5.93l-49-44.14-34.61-31.15a5.58,5.58,0,0,1-2-3.66,5.92,5.92,0,0,1,0-1.19,5.6,5.6,0,0,1,2-3.61l29.78-26.82,6-5.36,47.89-43.12a26,26,0,0,1,14.5-5.92c.76-.07,1.54-.11,2.31-.11h65.56c.77,0,1.54,0,2.31.11a26,26,0,0,1,14.49,5.92l48.42,43.6,35.21,31.7h0a5.54,5.54,0,0,1,2,3.62A4.58,4.58,0,0,1,2652.82,1274.58Z"/><path class="cls-98" d="M2653.15,1274.5a5.92,5.92,0,0,1-2,3.94l-13.8,12.32-.26,0c-25.82,6.07-71.77,8.66-125.12,3.1-.19,0-105.84-9.13-127.9-24.22,0,0,35.82-32.26,35.82-32.26l23-20.53c18.35,20.77,55.73,44.66,78.45,53.65,43.42,17.2,89.55,14.64,114,7.14,6.6-2,11.93-4.71,15.83-8,.05,0,.07-.12.1-.17a5.91,5.91,0,0,1,1.87,3.8A4.58,4.58,0,0,1,2653.15,1274.5Z"/></g><g class="cls-12"><path class="cls-99" d="M2652.82,392.76a5.55,5.55,0,0,1-2,3.65l-14,12.62-20.65,18.61-49,44.07a26.08,26.08,0,0,1-14.49,5.93c-.77.07-1.54.1-2.31.1h-65.56c-.77,0-1.55,0-2.31-.1a26.12,26.12,0,0,1-14.5-5.93l-49-44.14-34.61-31.16a5.55,5.55,0,0,1-2-3.65,5.92,5.92,0,0,1,0-1.19,5.6,5.6,0,0,1,2-3.61l29.78-26.82,6-5.36L2468,312.66a26.12,26.12,0,0,1,14.5-5.93c.76-.06,1.54-.1,2.31-.1h65.56c.77,0,1.54,0,2.31.1a26.08,26.08,0,0,1,14.49,5.93l48.42,43.6,35.21,31.7h0a5.54,5.54,0,0,1,2,3.62A4.58,4.58,0,0,1,2652.82,392.76Z"/><path class="cls-100" d="M2653.15,393a5.92,5.92,0,0,1-2,3.94l-13.8,12.32-.26.05c-25.82,6.07-71.77,8.66-125.12,3.1-.19,0-105.84-9.13-127.9-24.22,0,0,35.82-32.26,35.82-32.26l23-20.53c18.35,20.77,55.73,44.66,78.45,53.65,43.42,17.2,89.55,14.64,114,7.15,6.6-2,11.93-4.72,15.83-8a.48.48,0,0,0,.1-.17,5.93,5.93,0,0,1,1.87,3.8A4.58,4.58,0,0,1,2653.15,393Z"/></g><g class="cls-12"><path class="cls-101" d="M3238,392.79a5.53,5.53,0,0,1-2,3.65l-14,12.62-20.65,18.6-48.95,44.08a26,26,0,0,1-14.5,5.92c-.76.07-1.54.11-2.31.11h-65.56c-.77,0-1.55,0-2.31-.11a26,26,0,0,1-14.5-5.92l-49-44.14-34.6-31.16a5.58,5.58,0,0,1-2-3.65,4.82,4.82,0,0,1,0-1.2,5.6,5.6,0,0,1,2-3.61l29.78-26.82,5.95-5.36,47.89-43.11a26,26,0,0,1,14.5-5.93c.76-.07,1.54-.1,2.31-.1h65.56c.77,0,1.55,0,2.31.1a26,26,0,0,1,14.5,5.93l48.42,43.59L3236,388v0a5.45,5.45,0,0,1,2,3.61A4.66,4.66,0,0,1,3238,392.79Z"/><path class="cls-102" d="M3238.36,393a6,6,0,0,1-2,3.94l-13.8,12.32-.25.06c-25.83,6.07-71.77,8.65-125.12,3.09-.2,0-105.85-9.13-127.91-24.22l35.82-32.26,23-20.52c18.35,20.77,55.74,44.65,78.46,53.65,43.41,17.19,89.55,14.63,114,7.14,6.61-2,11.93-4.71,15.83-8a.71.71,0,0,0,.11-.17,6,6,0,0,1,1.87,3.8A5.72,5.72,0,0,1,3238.36,393Z"/></g><g class="cls-12"><path class="cls-103" d="M2350.52,392.79a5.58,5.58,0,0,1-2,3.65l-14,12.62-20.65,18.6-48.95,44.08a26,26,0,0,1-14.5,5.92c-.76.07-1.54.11-2.31.11h-65.56c-.77,0-1.55,0-2.31-.11a26,26,0,0,1-14.5-5.92l-49-44.14-34.6-31.16a5.53,5.53,0,0,1-2-3.65,4.82,4.82,0,0,1,0-1.2,5.6,5.6,0,0,1,2-3.61l29.78-26.82,5.95-5.36,47.89-43.11a26,26,0,0,1,14.5-5.93c.76-.07,1.54-.1,2.31-.1h65.56c.77,0,1.55,0,2.31.1a26,26,0,0,1,14.5,5.93l48.41,43.59,35.21,31.7v0a5.49,5.49,0,0,1,2,3.61A4.66,4.66,0,0,1,2350.52,392.79Z"/><path class="cls-104" d="M2350.86,393a6,6,0,0,1-2,3.94l-13.8,12.32-.25.06c-25.83,6.07-71.77,8.65-125.12,3.09-.2,0-105.85-9.13-127.91-24.22l35.82-32.26,23-20.52C2159,356.15,2196.35,380,2219.07,389c43.41,17.19,89.55,14.63,114,7.14,6.61-2,11.93-4.71,15.83-8a.71.71,0,0,0,.11-.17,6,6,0,0,1,1.87,3.8A5.72,5.72,0,0,1,2350.86,393Z"/></g><g class="cls-12"><path class="cls-105" d="M2350.52,932.17a5.58,5.58,0,0,1-2,3.65l-14,12.62-20.65,18.61-48.95,44.07a26.12,26.12,0,0,1-14.5,5.93c-.76.07-1.54.1-2.31.1h-65.56c-.77,0-1.55,0-2.31-.1a26.12,26.12,0,0,1-14.5-5.93l-49-44.14-34.6-31.16a5.53,5.53,0,0,1-2-3.65,4.82,4.82,0,0,1,0-1.2,5.58,5.58,0,0,1,2-3.6l29.78-26.82,5.95-5.36,47.89-43.12a26.12,26.12,0,0,1,14.5-5.93c.76-.07,1.54-.1,2.31-.1h65.56c.77,0,1.55,0,2.31.1a26.12,26.12,0,0,1,14.5,5.93l48.41,43.59,35.21,31.71h0a5.52,5.52,0,0,1,2,3.62A4.58,4.58,0,0,1,2350.52,932.17Z"/><path class="cls-106" d="M2350.86,932.37a6,6,0,0,1-2,3.93l-13.8,12.32a1.83,1.83,0,0,1-.25.06c-25.83,6.07-71.77,8.65-125.12,3.1-.2,0-105.85-9.14-127.91-24.23l35.82-32.26,23-20.52c18.35,20.77,55.74,44.65,78.46,53.65,43.41,17.19,89.55,14.64,114,7.14,6.61-2,11.93-4.71,15.83-8a.71.71,0,0,0,.11-.17,6,6,0,0,1,1.87,3.8A5.82,5.82,0,0,1,2350.86,932.37Z"/></g><g class="cls-12"><path class="cls-107" d="M2350.52,1445.69a5.58,5.58,0,0,1-2,3.66l-14,12.62-20.65,18.6-48.95,44.07a26,26,0,0,1-14.5,5.93c-.76.07-1.54.11-2.31.11h-65.56c-.77,0-1.55,0-2.31-.11a26,26,0,0,1-14.5-5.93l-49-44.14-34.6-31.15a5.53,5.53,0,0,1-2-3.66,4.74,4.74,0,0,1,0-1.19,5.6,5.6,0,0,1,2-3.61l29.78-26.82,5.95-5.36,47.89-43.12a26,26,0,0,1,14.5-5.92c.76-.07,1.54-.11,2.31-.11h65.56c.77,0,1.55,0,2.31.11a26,26,0,0,1,14.5,5.92l48.41,43.6,35.21,31.7h0a5.54,5.54,0,0,1,2,3.62A4.58,4.58,0,0,1,2350.52,1445.69Z"/><path class="cls-108" d="M2350.86,1446a6,6,0,0,1-2,3.94l-13.8,12.32-.25.06c-25.83,6.06-71.77,8.65-125.12,3.09-.2,0-105.85-9.13-127.91-24.22l35.82-32.26,23-20.53c18.35,20.77,55.74,44.66,78.46,53.66,43.41,17.19,89.55,14.63,114,7.14,6.61-2,11.93-4.71,15.83-8a.71.71,0,0,0,.11-.17,6,6,0,0,1,1.87,3.8A5.72,5.72,0,0,1,2350.86,1446Z"/></g><g class="cls-12"><path class="cls-109" d="M2350.52,1274.58a5.58,5.58,0,0,1-2,3.66l-14,12.62-20.65,18.6-48.95,44.07a26,26,0,0,1-14.5,5.93c-.76.07-1.54.11-2.31.11h-65.56c-.77,0-1.55,0-2.31-.11a26,26,0,0,1-14.5-5.93l-49-44.14-34.6-31.15a5.53,5.53,0,0,1-2-3.66,4.74,4.74,0,0,1,0-1.19,5.6,5.6,0,0,1,2-3.61L2111.9,1243l5.95-5.36,47.89-43.12a26,26,0,0,1,14.5-5.92c.76-.07,1.54-.11,2.31-.11h65.56c.77,0,1.55,0,2.31.11a26,26,0,0,1,14.5,5.92l48.41,43.6,35.21,31.7h0a5.54,5.54,0,0,1,2,3.62A4.58,4.58,0,0,1,2350.52,1274.58Z"/><path class="cls-110" d="M2350.86,1274.5a6,6,0,0,1-2,3.94l-13.8,12.32-.25,0c-25.83,6.07-71.77,8.66-125.12,3.1-.2,0-105.85-9.13-127.91-24.22l35.82-32.26,23-20.53c18.35,20.77,55.74,44.66,78.46,53.65,43.41,17.2,89.55,14.64,114,7.14,6.61-2,11.93-4.71,15.83-8,0,0,.07-.12.11-.17a6,6,0,0,1,1.87,3.8A5.72,5.72,0,0,1,2350.86,1274.5Z"/></g><g class="cls-12"><path class="cls-111" d="M2350.52,1103.47a5.58,5.58,0,0,1-2,3.65l-14,12.62-20.65,18.61-48.95,44.07a26.12,26.12,0,0,1-14.5,5.93c-.76.07-1.54.1-2.31.1h-65.56c-.77,0-1.55,0-2.31-.1a26.12,26.12,0,0,1-14.5-5.93l-49-44.14-34.6-31.16a5.53,5.53,0,0,1-2-3.65,4.74,4.74,0,0,1,0-1.19,5.57,5.57,0,0,1,2-3.61l29.78-26.82,5.95-5.36,47.89-43.12a26.12,26.12,0,0,1,14.5-5.93c.76-.07,1.54-.1,2.31-.1h65.56c.77,0,1.55,0,2.31.1a26.12,26.12,0,0,1,14.5,5.93l48.41,43.6,35.21,31.7h0a5.54,5.54,0,0,1,2,3.62A4.58,4.58,0,0,1,2350.52,1103.47Z"/><path class="cls-112" d="M2350.86,1103a6,6,0,0,1-2,3.94l-13.8,12.32-.25.06c-25.83,6.07-71.77,8.65-125.12,3.09-.2,0-105.85-9.13-127.91-24.22l35.82-32.26,23-20.52c18.35,20.77,55.74,44.65,78.46,53.65,43.41,17.19,89.55,14.63,114,7.14,6.61-2,11.93-4.71,15.83-8a.71.71,0,0,0,.11-.17,6,6,0,0,1,1.87,3.8A5.72,5.72,0,0,1,2350.86,1103Z"/></g><g class="cls-12"><path class="cls-113" d="M2652.82,932.43a5.58,5.58,0,0,1-2,3.65l-14,12.62-20.65,18.6-49,44.08a26,26,0,0,1-14.49,5.92c-.77.07-1.54.11-2.31.11h-65.56c-.77,0-1.55,0-2.31-.11a26,26,0,0,1-14.5-5.92l-49-44.14-34.61-31.16a5.58,5.58,0,0,1-2-3.65,6,6,0,0,1,0-1.2,5.6,5.6,0,0,1,2-3.61l29.78-26.82,6-5.36L2468,852.33a26,26,0,0,1,14.5-5.93c.76-.07,1.54-.11,2.31-.11h65.56c.77,0,1.54,0,2.31.11a25.94,25.94,0,0,1,14.49,5.93l48.42,43.59,35.21,31.7h0a5.54,5.54,0,0,1,2,3.62A4.66,4.66,0,0,1,2652.82,932.43Z"/><path class="cls-114" d="M2653.15,932.62a5.92,5.92,0,0,1-2,3.94l-13.8,12.32-.26.06c-25.82,6.06-71.77,8.65-125.12,3.09-.19,0-105.84-9.13-127.9-24.22,0,0,35.82-32.26,35.82-32.26l23-20.53c18.35,20.77,55.73,44.66,78.45,53.66,43.42,17.19,89.55,14.63,114,7.14,6.6-2,11.93-4.71,15.83-8a.48.48,0,0,0,.1-.17,6,6,0,0,1,1.87,3.8A4.58,4.58,0,0,1,2653.15,932.62Z"/></g><g class="cls-12"><path class="cls-115" d="M2652.82,1103.47a5.58,5.58,0,0,1-2,3.65l-14,12.62-20.65,18.61-49,44.07a26.08,26.08,0,0,1-14.49,5.93c-.77.07-1.54.1-2.31.1h-65.56c-.77,0-1.55,0-2.31-.1a26.12,26.12,0,0,1-14.5-5.93l-49-44.14-34.61-31.16a5.58,5.58,0,0,1-2-3.65,5.92,5.92,0,0,1,0-1.19,5.57,5.57,0,0,1,2-3.61l29.78-26.82,6-5.36,47.89-43.12a26.12,26.12,0,0,1,14.5-5.93c.76-.07,1.54-.1,2.31-.1h65.56c.77,0,1.54,0,2.31.1a26.08,26.08,0,0,1,14.49,5.93l48.42,43.6,35.21,31.7h0a5.54,5.54,0,0,1,2,3.62A4.58,4.58,0,0,1,2652.82,1103.47Z"/><path class="cls-116" d="M2653.15,1103a5.9,5.9,0,0,1-2,3.93l-13.8,12.32a1.67,1.67,0,0,1-.26.06c-25.82,6.07-71.77,8.66-125.12,3.1-.19,0-105.84-9.13-127.9-24.23,0,0,35.82-32.26,35.82-32.26l23-20.52c18.35,20.77,55.73,44.65,78.45,53.65,43.42,17.2,89.55,14.64,114,7.14,6.6-2,11.93-4.71,15.83-8a.64.64,0,0,0,.1-.18,6,6,0,0,1,1.87,3.8A4.66,4.66,0,0,1,2653.15,1103Z"/></g><g class="cls-12"><path class="cls-117" d="M2947.13,1445.69a5.58,5.58,0,0,1-2,3.66l-14,12.62-20.65,18.6-48.95,44.07a26,26,0,0,1-14.5,5.93c-.76.07-1.54.11-2.31.11h-65.56c-.77,0-1.55,0-2.31-.11a26,26,0,0,1-14.5-5.93l-49-44.14-34.6-31.15a5.58,5.58,0,0,1-2-3.66,4.74,4.74,0,0,1,0-1.19,5.6,5.6,0,0,1,2-3.61l29.78-26.82,5.95-5.36,47.89-43.12a26,26,0,0,1,14.5-5.92c.76-.07,1.54-.11,2.31-.11h65.56c.77,0,1.55,0,2.31.11a26,26,0,0,1,14.5,5.92l48.41,43.6,35.21,31.7h0a5.54,5.54,0,0,1,2,3.62A4.58,4.58,0,0,1,2947.13,1445.69Z"/><path class="cls-118" d="M2947.47,1446a6,6,0,0,1-2,3.94l-13.8,12.32-.25.06c-25.83,6.06-71.77,8.65-125.12,3.09-.2,0-105.85-9.13-127.91-24.22l35.82-32.26,23-20.53c18.35,20.77,55.74,44.66,78.46,53.66,43.41,17.19,89.55,14.63,114,7.14,6.61-2,11.93-4.71,15.83-8a.71.71,0,0,0,.11-.17,6,6,0,0,1,1.87,3.8A5.72,5.72,0,0,1,2947.47,1446Z"/></g><g class="cls-12"><path class="cls-119" d="M2947.13,1274.58a5.58,5.58,0,0,1-2,3.66l-14,12.61-20.65,18.61-48.95,44.07a26.12,26.12,0,0,1-14.5,5.93c-.76.07-1.54.1-2.31.1h-65.56c-.77,0-1.55,0-2.31-.1a26.12,26.12,0,0,1-14.5-5.93l-49-44.14-34.6-31.15a5.58,5.58,0,0,1-2-3.66,4.74,4.74,0,0,1,0-1.19,5.6,5.6,0,0,1,2-3.61l29.78-26.82,5.95-5.36,47.89-43.12a26.12,26.12,0,0,1,14.5-5.93c.76-.06,1.54-.1,2.31-.1h65.56c.77,0,1.55,0,2.31.1a26.12,26.12,0,0,1,14.5,5.93l48.41,43.6,35.21,31.7h0a5.54,5.54,0,0,1,2,3.62A4.58,4.58,0,0,1,2947.13,1274.58Z"/><path class="cls-120" d="M2947.47,1274.5a6,6,0,0,1-2,3.94l-13.8,12.32-.25,0c-25.83,6.07-71.77,8.66-125.12,3.1-.2,0-105.85-9.13-127.91-24.22l35.82-32.26,23-20.53c18.35,20.77,55.74,44.66,78.46,53.65,43.41,17.2,89.55,14.64,114,7.14,6.61-2,11.93-4.71,15.83-8,.05,0,.07-.12.11-.17a6,6,0,0,1,1.87,3.8A5.72,5.72,0,0,1,2947.47,1274.5Z"/></g><g class="cls-12"><path class="cls-121" d="M2947.13,1103.47a5.58,5.58,0,0,1-2,3.65l-14,12.62-20.65,18.61-48.95,44.07a26.12,26.12,0,0,1-14.5,5.93c-.76.07-1.54.1-2.31.1h-65.56c-.77,0-1.55,0-2.31-.1a26.12,26.12,0,0,1-14.5-5.93l-49-44.14-34.6-31.16a5.58,5.58,0,0,1-2-3.65,4.74,4.74,0,0,1,0-1.19,5.57,5.57,0,0,1,2-3.61l29.78-26.82,5.95-5.36,47.89-43.12a26.12,26.12,0,0,1,14.5-5.93c.76-.07,1.54-.1,2.31-.1h65.56c.77,0,1.55,0,2.31.1a26.12,26.12,0,0,1,14.5,5.93l48.41,43.6,35.21,31.7h0a5.54,5.54,0,0,1,2,3.62A4.58,4.58,0,0,1,2947.13,1103.47Z"/><path class="cls-122" d="M2947.47,1103a6,6,0,0,1-2,3.93l-13.8,12.32-.25.06c-25.83,6.07-71.77,8.65-125.12,3.1-.2,0-105.85-9.14-127.91-24.23l35.82-32.26,23-20.52c18.35,20.77,55.74,44.65,78.46,53.65,43.41,17.19,89.55,14.64,114,7.14,6.61-2,11.93-4.71,15.83-8a.71.71,0,0,0,.11-.17,6,6,0,0,1,1.87,3.8A5.82,5.82,0,0,1,2947.47,1103Z"/></g><g class="cls-12"><path class="cls-123" d="M2947.13,932.15a5.55,5.55,0,0,1-2,3.65l-14,12.62L2910.48,967l-48.95,44.07A26.12,26.12,0,0,1,2847,1017c-.76.07-1.54.1-2.31.1h-65.56c-.77,0-1.55,0-2.31-.1a26.12,26.12,0,0,1-14.5-5.93l-49-44.14-34.6-31.16a5.55,5.55,0,0,1-2-3.65,4.74,4.74,0,0,1,0-1.19,5.6,5.6,0,0,1,2-3.61l29.78-26.82,5.95-5.36,47.89-43.12a26.12,26.12,0,0,1,14.5-5.93c.76-.06,1.54-.1,2.31-.1h65.56c.77,0,1.55,0,2.31.1a26.12,26.12,0,0,1,14.5,5.93l48.41,43.6,35.21,31.7h0a5.54,5.54,0,0,1,2,3.62A4.58,4.58,0,0,1,2947.13,932.15Z"/><path class="cls-124" d="M2947.47,932.37a6,6,0,0,1-2,3.93l-13.8,12.32a1.83,1.83,0,0,1-.25.06c-25.83,6.07-71.77,8.65-125.12,3.1-.2,0-105.85-9.14-127.91-24.23l35.82-32.26,23-20.52c18.35,20.77,55.74,44.65,78.46,53.65,43.41,17.19,89.55,14.64,114,7.14,6.61-2,11.93-4.71,15.83-8a.71.71,0,0,0,.11-.17,6,6,0,0,1,1.87,3.8A5.82,5.82,0,0,1,2947.47,932.37Z"/></g><path class="cls-125" d="M1953.07,245.32V1592.54H3671V245.32Zm1643.81,1289H2026.07V672.83h1570.7V639.75H2026.07V303.5H3596.88Z"/><path class="cls-64" d="M3368.68,719.93a78.28,78.28,0,0,0,9.92-.62,39.6,39.6,0,0,0,8.71-2,22.83,22.83,0,0,0,6.67-3.69,10.38,10.38,0,0,0,3.61-5.54h13.18v71.81h-17.72V729.16h-24.37Z"/><path class="cls-64" d="M3070.94,719.93a78.28,78.28,0,0,0,9.92-.62,39.69,39.69,0,0,0,8.72-2,22.65,22.65,0,0,0,6.66-3.69,10.33,10.33,0,0,0,3.61-5.54H3113v71.81h-17.71V729.16h-24.38Z"/><path class="cls-64" d="M3368.68,890.41a76.47,76.47,0,0,0,9.92-.62,39.6,39.6,0,0,0,8.71-2,22.83,22.83,0,0,0,6.67-3.69,10.38,10.38,0,0,0,3.61-5.54h13.18v71.81h-17.72V899.64h-24.37Z"/></g></svg>