<svg xmlns="http://www.w3.org/2000/svg" xmlns:xlink="http://www.w3.org/1999/xlink" viewBox="0 0 900 900"><defs><style>.cls-1{fill:url(#linear-gradient);}.cls-2{fill:#446355;}</style><linearGradient id="linear-gradient" y1="450" x2="900" y2="450" gradientUnits="userSpaceOnUse"><stop offset="0" stop-color="#f5e2ba"/><stop offset="1" stop-color="#eece8c"/></linearGradient></defs><title>Artboard 1 copy 3</title><g id="guide"><circle class="cls-1" cx="450" cy="450" r="450"/></g><g id="text_expanded"><path class="cls-2" d="M73,328.47Q90.72,294,118.11,294q36.66,0,53.61,46.18a165.38,165.38,0,0,1,10.05,52.05H151.09q-2.93-20.07-7.52-30.29-8.19-18.16-24.29-18.16-16.4,0-25.86,25.64T84,442q0,46.94,10,70.31t25.38,23.37q15.78,0,24.07-20.06,4.58-10.78,7.6-32.36h30.48q-3.94,45.62-20.15,74.19t-41.54,28.58q-31.34,0-49.27-38.61Q52.57,508.64,52.58,441.07,52.58,368,73,328.47ZM241.25,372V496.34q0,17.59,2.18,26.49,3.85,15.72,15.16,15.71,14.48,0,19.82-22.33,2.77-12.11,2.78-32V372H310V578.29h-27.6V549.14c-.26.63-.92,2.53-2,5.68a42,42,0,0,1-3.77,8.33q-6.66,11.36-12.87,15.52a25.55,25.55,0,0,1-14.55,4.16q-24,0-32.38-32.93-4.68-18.17-4.67-53.56V372ZM368.56,512.42q.9,14.39,3.9,20.44,5.31,10.8,19.62,10.79,8.4,0,13.36-4.73t4.95-14.19q0-9.09-4-13.82t-29.69-16.28q-18.51-8.7-26.08-21.76-7.58-12.87-7.57-37.1,0-28.56,11.83-49.11t33.29-20.53q20.35,0,33.19,15.42t14.72,53.28H407.71q-.61-10.41-3.1-16.47-4.69-11-16-11-9.3,0-13.24,5.49a21.44,21.44,0,0,0-3.94,12.86q0,9.28,4.19,13.44,4.2,4.36,29.64,14.95,17,7.58,25.43,22.9,8.37,15.53,8.37,38.8,0,30.66-12,50.06t-37.17,19.4q-25.67,0-37.88-20.54t-12.23-52.33Zm89.26-100.11V373.89H473V316.35h28.09v57.54h17.63v38.42H501.05v109q0,12.67,1.69,15.8t10.36,3.13c.86,0,1.78,0,2.74-.1s1.91-.16,2.84-.28v40.31l-13.45.94q-20.12,1.33-27.49-13.24Q473,558.61,473,539.3v-127ZM636.43,553.05q-13.74,32.24-41.74,32.24T553,553.05q-13.76-32.24-13.75-77.63,0-44.61,13.75-77.33t41.73-32.72q28,0,41.74,32.72t13.75,77.33Q650.18,520.81,636.43,553.05Zm-22.71-29.81q6.67-16.82,6.67-47.82t-6.67-47.71Q607,411,594.59,411t-19.17,16.73q-6.72,16.73-6.72,47.71t6.72,47.82q6.72,16.82,19.17,16.82T613.72,523.24ZM814.94,372.75q7,5.31,12.65,18.55,4.59,10.79,6.18,26.5,1,10.41,1,30.47l-.2,130H805.48V446.94a78,78,0,0,0-2-19.3q-3.79-14.38-14-14.39-11.76,0-16.24,18.55A106.19,106.19,0,0,0,771,455.46V578.29H742.43V455.46q0-18.36-2-26.69-3.58-14.94-14-14.95-12.15,0-16.34,14.95-2.29,8.52-2.29,25.36V578.29H679V372.37h27.6v30.1q5.28-16.1,10-22.9,8.26-12.12,21.41-12.12,12.45,0,20.12,10.41,6.18,9.66,9.37,24.79Q773,384.49,781.27,376q8.78-8.52,19.53-8.52Q808,367.45,814.94,372.75Z"/></g></svg>