<svg xmlns="http://www.w3.org/2000/svg" xmlns:xlink="http://www.w3.org/1999/xlink" viewBox="0 0 3694.61 1863.28"><defs><style>.cls-1{fill:#133c2a;}.cls-2{fill:url(#linear-gradient);}.cls-3{fill:url(#linear-gradient-2);}.cls-4{fill:url(#linear-gradient-3);}.cls-5{fill:url(#linear-gradient-4);}.cls-6{fill:url(#linear-gradient-5);}.cls-7{fill:url(#linear-gradient-6);}.cls-8{fill:url(#linear-gradient-7);}.cls-9{fill:url(#linear-gradient-8);}.cls-10{fill:url(#linear-gradient-9);}.cls-11{fill:url(#linear-gradient-10);}.cls-12{opacity:0.3;}.cls-13{fill:url(#linear-gradient-11);}.cls-14{fill:url(#linear-gradient-12);}.cls-15{fill:url(#linear-gradient-13);}.cls-16{fill:url(#linear-gradient-14);}.cls-17{fill:url(#linear-gradient-15);}.cls-18{fill:url(#linear-gradient-16);}.cls-19{fill:url(#linear-gradient-17);}.cls-20{fill:url(#linear-gradient-18);}.cls-21{fill:url(#linear-gradient-19);}.cls-22{fill:url(#linear-gradient-20);}.cls-23{fill:url(#linear-gradient-21);}.cls-24{fill:url(#linear-gradient-22);}.cls-25{fill:url(#linear-gradient-23);}.cls-26{fill:url(#linear-gradient-24);}.cls-27{fill:url(#linear-gradient-25);}.cls-28{fill:url(#linear-gradient-26);}.cls-29{fill:url(#linear-gradient-27);}.cls-30{fill:url(#linear-gradient-28);}.cls-31{fill:url(#linear-gradient-29);}.cls-32{fill:url(#linear-gradient-30);}.cls-33{fill:url(#linear-gradient-31);}.cls-34{fill:url(#linear-gradient-32);}.cls-35{fill:url(#linear-gradient-33);}.cls-36{fill:url(#linear-gradient-34);}.cls-37{fill:url(#linear-gradient-35);}.cls-38{fill:url(#linear-gradient-36);}.cls-39{fill:url(#linear-gradient-37);}.cls-40{fill:url(#linear-gradient-38);}.cls-41{fill:url(#linear-gradient-39);}.cls-42{fill:url(#linear-gradient-40);}.cls-43{fill:url(#linear-gradient-41);}.cls-44{fill:url(#linear-gradient-42);}.cls-45{fill:url(#linear-gradient-43);}.cls-46{fill:url(#linear-gradient-44);}.cls-47{fill:url(#linear-gradient-45);}.cls-48{fill:url(#linear-gradient-46);}.cls-49{fill:url(#linear-gradient-47);}.cls-50{fill:url(#linear-gradient-48);}.cls-51{fill:url(#linear-gradient-49);}.cls-52{fill:url(#linear-gradient-50);}.cls-53{fill:url(#linear-gradient-51);}.cls-54{fill:url(#linear-gradient-52);}.cls-55{fill:url(#linear-gradient-53);}.cls-56{fill:url(#linear-gradient-54);}.cls-57{fill:url(#linear-gradient-55);}.cls-58{fill:url(#linear-gradient-56);}.cls-59{fill:url(#linear-gradient-57);}.cls-60{fill:url(#linear-gradient-58);}.cls-61{fill:url(#linear-gradient-59);}.cls-62{fill:url(#linear-gradient-60);}.cls-63{fill:url(#linear-gradient-61);}.cls-64{fill:#fff;}.cls-65{fill:url(#linear-gradient-62);}.cls-66{fill:url(#linear-gradient-63);}.cls-67{fill:url(#linear-gradient-64);}.cls-68{fill:url(#linear-gradient-65);}.cls-69{fill:url(#linear-gradient-66);}.cls-70{fill:url(#linear-gradient-67);}.cls-71{fill:url(#linear-gradient-68);}.cls-72{fill:url(#linear-gradient-69);}.cls-73{fill:url(#linear-gradient-70);}.cls-74{fill:url(#linear-gradient-71);}.cls-75{fill:url(#linear-gradient-72);}.cls-76{fill:url(#linear-gradient-73);}.cls-77{fill:url(#linear-gradient-74);}.cls-78{fill:url(#linear-gradient-75);}.cls-79{fill:url(#linear-gradient-76);}.cls-80{fill:url(#linear-gradient-77);}.cls-81{fill:url(#linear-gradient-78);}.cls-82{fill:url(#linear-gradient-79);}.cls-83{fill:url(#linear-gradient-80);}.cls-84{fill:url(#linear-gradient-81);}.cls-85{fill:url(#linear-gradient-82);}.cls-86{fill:url(#linear-gradient-83);}.cls-87{fill:url(#linear-gradient-84);}.cls-88{fill:url(#linear-gradient-85);}.cls-89{fill:url(#linear-gradient-86);}.cls-90{fill:url(#linear-gradient-87);}.cls-91{fill:url(#linear-gradient-88);}.cls-92{fill:url(#linear-gradient-89);}.cls-93{fill:url(#linear-gradient-90);}.cls-94{fill:url(#linear-gradient-91);}.cls-95{fill:url(#linear-gradient-92);}.cls-96{fill:url(#linear-gradient-93);}.cls-97{fill:url(#linear-gradient-94);}.cls-98{fill:url(#linear-gradient-95);}.cls-99{fill:url(#linear-gradient-96);}.cls-100{fill:url(#linear-gradient-97);}.cls-101{fill:url(#linear-gradient-98);}.cls-102{fill:url(#linear-gradient-99);}.cls-103{fill:url(#linear-gradient-100);}.cls-104{fill:url(#linear-gradient-101);}.cls-105{fill:url(#linear-gradient-102);}.cls-106{fill:url(#linear-gradient-103);}.cls-107{fill:url(#linear-gradient-104);}.cls-108{fill:url(#linear-gradient-105);}.cls-109{fill:url(#linear-gradient-106);}.cls-110{fill:url(#linear-gradient-107);}.cls-111{fill:url(#linear-gradient-108);}.cls-112{fill:url(#linear-gradient-109);}.cls-113{fill:url(#linear-gradient-110);}.cls-114{fill:url(#linear-gradient-111);}.cls-115{fill:url(#linear-gradient-112);}.cls-116{fill:url(#linear-gradient-113);}.cls-117{fill:url(#linear-gradient-114);}.cls-118{fill:url(#linear-gradient-115);}.cls-119{fill:url(#linear-gradient-116);}.cls-120{fill:url(#linear-gradient-117);}.cls-121{fill:url(#linear-gradient-118);}.cls-122{fill:url(#linear-gradient-119);}.cls-123{fill:url(#linear-gradient-120);}.cls-124{fill:url(#linear-gradient-121);}.cls-125{fill:url(#linear-gradient-122);}</style><linearGradient id="linear-gradient" x1="565.33" y1="928.1" x2="610.96" y2="928.1" gradientUnits="userSpaceOnUse"><stop offset="0" stop-color="#353535"/><stop offset="0.37" stop-color="#666"/><stop offset="0.39" stop-color="#6f6f6f"/><stop offset="0.48" stop-color="#868686"/><stop offset="0.55" stop-color="#949494"/><stop offset="0.62" stop-color="#999"/><stop offset="0.71" stop-color="#878787"/><stop offset="0.83" stop-color="#666"/><stop offset="0.92" stop-color="#555"/><stop offset="1" stop-color="#4c4c4c"/></linearGradient><linearGradient id="linear-gradient-2" x1="859.64" y1="928.1" x2="905.27" y2="928.1" xlink:href="#linear-gradient"/><linearGradient id="linear-gradient-3" x1="1150.53" y1="928.1" x2="1196.16" y2="928.1" xlink:href="#linear-gradient"/><linearGradient id="linear-gradient-4" x1="1510.27" y1="928.1" x2="1555.9" y2="928.1" xlink:href="#linear-gradient"/><linearGradient id="linear-gradient-5" x1="263.03" y1="928.1" x2="308.66" y2="928.1" xlink:href="#linear-gradient"/><linearGradient id="linear-gradient-6" x1="263.03" y1="475.22" x2="308.66" y2="475.22" xlink:href="#linear-gradient"/><linearGradient id="linear-gradient-7" x1="565.33" y1="475.22" x2="610.96" y2="475.22" xlink:href="#linear-gradient"/><linearGradient id="linear-gradient-8" x1="859.64" y1="475.22" x2="905.27" y2="475.22" xlink:href="#linear-gradient"/><linearGradient id="linear-gradient-9" x1="1150.53" y1="475.22" x2="1196.16" y2="475.22" xlink:href="#linear-gradient"/><linearGradient id="linear-gradient-10" x1="1510.27" y1="475.22" x2="1555.9" y2="475.22" xlink:href="#linear-gradient"/><linearGradient id="linear-gradient-11" x1="955.6" y1="332.25" x2="808.56" y2="457.95" gradientUnits="userSpaceOnUse"><stop offset="0" stop-color="#c4191b"/><stop offset="0.22" stop-color="#e64539"/><stop offset="0.47" stop-color="#c4191b"/><stop offset="0.81" stop-color="#690f15"/></linearGradient><linearGradient id="linear-gradient-12" x1="748.91" y1="378.02" x2="1018.02" y2="378.02" gradientUnits="userSpaceOnUse"><stop offset="0" stop-color="#690f15"/><stop offset="0.09" stop-color="#721016"/><stop offset="0.24" stop-color="#8a1418"/><stop offset="0.42" stop-color="#b1191c"/><stop offset="0.6" stop-color="#df2021"/><stop offset="0.63" stop-color="#e2312c"/><stop offset="0.66" stop-color="#e43c33"/><stop offset="0.7" stop-color="#e64338"/><stop offset="0.83" stop-color="#e64539"/><stop offset="1" stop-color="#df2021"/></linearGradient><linearGradient id="linear-gradient-13" x1="1606.69" y1="493.12" x2="1459.64" y2="618.82" xlink:href="#linear-gradient-11"/><linearGradient id="linear-gradient-14" x1="1400" y1="538.89" x2="1669.1" y2="538.89" xlink:href="#linear-gradient-12"/><linearGradient id="linear-gradient-15" x1="1606.69" y1="871.93" x2="1459.64" y2="997.63" xlink:href="#linear-gradient-11"/><linearGradient id="linear-gradient-16" x1="1400" y1="917.66" x2="1669.1" y2="917.66" xlink:href="#linear-gradient-12"/><linearGradient id="linear-gradient-17" x1="1606.69" y1="1042.97" x2="1459.64" y2="1168.67" xlink:href="#linear-gradient-11"/><linearGradient id="linear-gradient-18" x1="1400" y1="1087.99" x2="1669.1" y2="1087.99" xlink:href="#linear-gradient-12"/><linearGradient id="linear-gradient-19" x1="1606.69" y1="1214.08" x2="1459.64" y2="1339.78" xlink:href="#linear-gradient-11"/><linearGradient id="linear-gradient-20" x1="1400" y1="1259.52" x2="1669.1" y2="1259.52" xlink:href="#linear-gradient-12"/><linearGradient id="linear-gradient-21" x1="1606.69" y1="1385.2" x2="1459.64" y2="1510.9" xlink:href="#linear-gradient-11"/><linearGradient id="linear-gradient-22" x1="1400" y1="1431.06" x2="1669.1" y2="1431.06" xlink:href="#linear-gradient-12"/><linearGradient id="linear-gradient-23" x1="1246.49" y1="871.93" x2="1099.45" y2="997.63" xlink:href="#linear-gradient-11"/><linearGradient id="linear-gradient-24" x1="1039.8" y1="917.67" x2="1308.91" y2="917.67" xlink:href="#linear-gradient-12"/><linearGradient id="linear-gradient-25" x1="1246.49" y1="1042.98" x2="1099.45" y2="1168.68" xlink:href="#linear-gradient-11"/><linearGradient id="linear-gradient-26" x1="1039.8" y1="1088" x2="1308.91" y2="1088" xlink:href="#linear-gradient-12"/><linearGradient id="linear-gradient-27" x1="1246.49" y1="1214.09" x2="1099.45" y2="1339.79" xlink:href="#linear-gradient-11"/><linearGradient id="linear-gradient-28" x1="1039.8" y1="1259.53" x2="1308.91" y2="1259.53" xlink:href="#linear-gradient-12"/><linearGradient id="linear-gradient-29" x1="1246.49" y1="1385.18" x2="1099.45" y2="1510.88" xlink:href="#linear-gradient-11"/><linearGradient id="linear-gradient-30" x1="1039.8" y1="1431.06" x2="1308.91" y2="1431.06" xlink:href="#linear-gradient-12"/><linearGradient id="linear-gradient-31" x1="661.29" y1="1385.18" x2="514.24" y2="1510.88" xlink:href="#linear-gradient-11"/><linearGradient id="linear-gradient-32" x1="454.6" y1="1431.06" x2="723.7" y2="1431.06" xlink:href="#linear-gradient-12"/><linearGradient id="linear-gradient-33" x1="661.29" y1="1214.07" x2="514.24" y2="1339.77" xlink:href="#linear-gradient-11"/><linearGradient id="linear-gradient-34" x1="454.6" y1="1259.53" x2="723.7" y2="1259.53" xlink:href="#linear-gradient-12"/><linearGradient id="linear-gradient-35" x1="661.29" y1="332.25" x2="514.24" y2="457.95" xlink:href="#linear-gradient-11"/><linearGradient id="linear-gradient-36" x1="454.6" y1="378.02" x2="723.7" y2="378.02" xlink:href="#linear-gradient-12"/><linearGradient id="linear-gradient-37" x1="1246.49" y1="332.27" x2="1099.45" y2="457.97" xlink:href="#linear-gradient-11"/><linearGradient id="linear-gradient-38" x1="1039.8" y1="378" x2="1308.91" y2="378" xlink:href="#linear-gradient-12"/><linearGradient id="linear-gradient-39" x1="358.99" y1="332.27" x2="211.95" y2="457.97" xlink:href="#linear-gradient-11"/><linearGradient id="linear-gradient-40" x1="152.3" y1="378" x2="421.41" y2="378" xlink:href="#linear-gradient-12"/><linearGradient id="linear-gradient-41" x1="358.99" y1="871.66" x2="211.95" y2="997.36" xlink:href="#linear-gradient-11"/><linearGradient id="linear-gradient-42" x1="152.3" y1="917.39" x2="421.41" y2="917.39" xlink:href="#linear-gradient-12"/><linearGradient id="linear-gradient-43" x1="358.99" y1="1385.18" x2="211.95" y2="1510.88" xlink:href="#linear-gradient-11"/><linearGradient id="linear-gradient-44" x1="152.3" y1="1431.06" x2="421.41" y2="1431.06" xlink:href="#linear-gradient-12"/><linearGradient id="linear-gradient-45" x1="358.99" y1="1214.07" x2="211.95" y2="1339.77" xlink:href="#linear-gradient-11"/><linearGradient id="linear-gradient-46" x1="152.3" y1="1259.53" x2="421.41" y2="1259.53" xlink:href="#linear-gradient-12"/><linearGradient id="linear-gradient-47" x1="358.99" y1="1042.96" x2="211.95" y2="1168.66" xlink:href="#linear-gradient-11"/><linearGradient id="linear-gradient-48" x1="152.3" y1="1087.99" x2="421.41" y2="1087.99" xlink:href="#linear-gradient-12"/><linearGradient id="linear-gradient-49" x1="661.29" y1="871.91" x2="514.24" y2="997.61" xlink:href="#linear-gradient-11"/><linearGradient id="linear-gradient-50" x1="454.6" y1="917.65" x2="723.7" y2="917.65" xlink:href="#linear-gradient-12"/><linearGradient id="linear-gradient-51" x1="661.29" y1="1042.96" x2="514.24" y2="1168.66" xlink:href="#linear-gradient-11"/><linearGradient id="linear-gradient-52" x1="454.6" y1="1087.98" x2="723.7" y2="1087.98" xlink:href="#linear-gradient-12"/><linearGradient id="linear-gradient-53" x1="955.6" y1="1385.18" x2="808.56" y2="1510.88" xlink:href="#linear-gradient-11"/><linearGradient id="linear-gradient-54" x1="748.91" y1="1431.06" x2="1018.02" y2="1431.06" xlink:href="#linear-gradient-12"/><linearGradient id="linear-gradient-55" x1="955.6" y1="1214.07" x2="808.56" y2="1339.77" xlink:href="#linear-gradient-11"/><linearGradient id="linear-gradient-56" x1="748.91" y1="1259.53" x2="1018.02" y2="1259.53" xlink:href="#linear-gradient-12"/><linearGradient id="linear-gradient-57" x1="955.6" y1="1042.96" x2="808.56" y2="1168.66" xlink:href="#linear-gradient-11"/><linearGradient id="linear-gradient-58" x1="748.91" y1="1087.99" x2="1018.02" y2="1087.99" xlink:href="#linear-gradient-12"/><linearGradient id="linear-gradient-59" x1="955.6" y1="871.64" x2="808.56" y2="997.34" xlink:href="#linear-gradient-11"/><linearGradient id="linear-gradient-60" x1="748.91" y1="917.39" x2="1018.02" y2="917.39" xlink:href="#linear-gradient-12"/><linearGradient id="linear-gradient-61" x1="21.2" y1="1592.07" x2="1743.93" y2="250.97" gradientUnits="userSpaceOnUse"><stop offset="0" stop-color="#024712"/><stop offset="0.44" stop-color="#025e1a"/><stop offset="1" stop-color="#028125"/></linearGradient><linearGradient id="linear-gradient-62" x1="2494.81" y1="928.1" x2="2540.44" y2="928.1" xlink:href="#linear-gradient"/><linearGradient id="linear-gradient-63" x1="2789.13" y1="928.1" x2="2834.76" y2="928.1" xlink:href="#linear-gradient"/><linearGradient id="linear-gradient-64" x1="3080.02" y1="928.1" x2="3125.65" y2="928.1" xlink:href="#linear-gradient"/><linearGradient id="linear-gradient-65" x1="3377.75" y1="928.1" x2="3423.38" y2="928.1" xlink:href="#linear-gradient"/><linearGradient id="linear-gradient-66" x1="2192.52" y1="928.1" x2="2238.15" y2="928.1" xlink:href="#linear-gradient"/><linearGradient id="linear-gradient-67" x1="2192.52" y1="475.22" x2="2238.15" y2="475.22" xlink:href="#linear-gradient"/><linearGradient id="linear-gradient-68" x1="2494.81" y1="475.22" x2="2540.44" y2="475.22" xlink:href="#linear-gradient"/><linearGradient id="linear-gradient-69" x1="2789.13" y1="475.22" x2="2834.76" y2="475.22" xlink:href="#linear-gradient"/><linearGradient id="linear-gradient-70" x1="3080.02" y1="475.22" x2="3125.65" y2="475.22" xlink:href="#linear-gradient"/><linearGradient id="linear-gradient-71" x1="3377.75" y1="475.22" x2="3423.38" y2="475.22" xlink:href="#linear-gradient"/><linearGradient id="linear-gradient-72" x1="2885.09" y1="332.25" x2="2738.04" y2="457.95" xlink:href="#linear-gradient-11"/><linearGradient id="linear-gradient-73" x1="2678.4" y1="378.02" x2="2947.5" y2="378.02" xlink:href="#linear-gradient-12"/><linearGradient id="linear-gradient-74" x1="3474.17" y1="493.12" x2="3327.13" y2="618.82" xlink:href="#linear-gradient-11"/><linearGradient id="linear-gradient-75" x1="3267.48" y1="538.89" x2="3536.59" y2="538.89" xlink:href="#linear-gradient-12"/><linearGradient id="linear-gradient-76" x1="3474.17" y1="690.47" x2="3327.13" y2="816.17" xlink:href="#linear-gradient-11"/><linearGradient id="linear-gradient-77" x1="3267.48" y1="736.21" x2="3536.59" y2="736.21" xlink:href="#linear-gradient-12"/><linearGradient id="linear-gradient-78" x1="3474.17" y1="861.51" x2="3327.13" y2="987.21" xlink:href="#linear-gradient-11"/><linearGradient id="linear-gradient-79" x1="3267.48" y1="906.53" x2="3536.59" y2="906.53" xlink:href="#linear-gradient-12"/><linearGradient id="linear-gradient-80" x1="3474.17" y1="1032.62" x2="3327.13" y2="1158.32" xlink:href="#linear-gradient-11"/><linearGradient id="linear-gradient-81" x1="3267.48" y1="1078.06" x2="3536.59" y2="1078.06" xlink:href="#linear-gradient-12"/><linearGradient id="linear-gradient-82" x1="3474.17" y1="1385.2" x2="3327.13" y2="1510.9" xlink:href="#linear-gradient-11"/><linearGradient id="linear-gradient-83" x1="3267.48" y1="1431.06" x2="3536.59" y2="1431.06" xlink:href="#linear-gradient-12"/><linearGradient id="linear-gradient-84" x1="3175.98" y1="871.93" x2="3028.93" y2="997.63" xlink:href="#linear-gradient-11"/><linearGradient id="linear-gradient-85" x1="2969.29" y1="917.67" x2="3238.39" y2="917.67" xlink:href="#linear-gradient-12"/><linearGradient id="linear-gradient-86" x1="3175.98" y1="1042.98" x2="3028.93" y2="1168.68" xlink:href="#linear-gradient-11"/><linearGradient id="linear-gradient-87" x1="2969.29" y1="1088" x2="3238.39" y2="1088" xlink:href="#linear-gradient-12"/><linearGradient id="linear-gradient-88" x1="3175.98" y1="1214.09" x2="3028.93" y2="1339.79" xlink:href="#linear-gradient-11"/><linearGradient id="linear-gradient-89" x1="2969.29" y1="1259.53" x2="3238.39" y2="1259.53" xlink:href="#linear-gradient-12"/><linearGradient id="linear-gradient-90" x1="3175.98" y1="1385.18" x2="3028.93" y2="1510.88" xlink:href="#linear-gradient-11"/><linearGradient id="linear-gradient-91" x1="2969.29" y1="1431.06" x2="3238.39" y2="1431.06" xlink:href="#linear-gradient-12"/><linearGradient id="linear-gradient-92" x1="2590.77" y1="1385.18" x2="2443.73" y2="1510.88" xlink:href="#linear-gradient-11"/><linearGradient id="linear-gradient-93" x1="2384.09" y1="1431.06" x2="2653.19" y2="1431.06" xlink:href="#linear-gradient-12"/><linearGradient id="linear-gradient-94" x1="2590.77" y1="1214.07" x2="2443.73" y2="1339.77" xlink:href="#linear-gradient-11"/><linearGradient id="linear-gradient-95" x1="2384.09" y1="1259.53" x2="2653.19" y2="1259.53" xlink:href="#linear-gradient-12"/><linearGradient id="linear-gradient-96" x1="2590.77" y1="332.25" x2="2443.73" y2="457.95" xlink:href="#linear-gradient-11"/><linearGradient id="linear-gradient-97" x1="2384.09" y1="378.02" x2="2653.19" y2="378.02" xlink:href="#linear-gradient-12"/><linearGradient id="linear-gradient-98" x1="3175.98" y1="332.27" x2="3028.93" y2="457.97" xlink:href="#linear-gradient-11"/><linearGradient id="linear-gradient-99" x1="2969.29" y1="378" x2="3238.39" y2="378" xlink:href="#linear-gradient-12"/><linearGradient id="linear-gradient-100" x1="2288.48" y1="332.27" x2="2141.43" y2="457.97" xlink:href="#linear-gradient-11"/><linearGradient id="linear-gradient-101" x1="2081.79" y1="378" x2="2350.89" y2="378" xlink:href="#linear-gradient-12"/><linearGradient id="linear-gradient-102" x1="2288.48" y1="871.66" x2="2141.43" y2="997.36" xlink:href="#linear-gradient-11"/><linearGradient id="linear-gradient-103" x1="2081.79" y1="917.39" x2="2350.89" y2="917.39" xlink:href="#linear-gradient-12"/><linearGradient id="linear-gradient-104" x1="2288.48" y1="1385.18" x2="2141.43" y2="1510.88" xlink:href="#linear-gradient-11"/><linearGradient id="linear-gradient-105" x1="2081.79" y1="1431.06" x2="2350.89" y2="1431.06" xlink:href="#linear-gradient-12"/><linearGradient id="linear-gradient-106" x1="2288.48" y1="1214.07" x2="2141.43" y2="1339.77" xlink:href="#linear-gradient-11"/><linearGradient id="linear-gradient-107" x1="2081.79" y1="1259.53" x2="2350.89" y2="1259.53" xlink:href="#linear-gradient-12"/><linearGradient id="linear-gradient-108" x1="2288.48" y1="1042.96" x2="2141.43" y2="1168.66" xlink:href="#linear-gradient-11"/><linearGradient id="linear-gradient-109" x1="2081.79" y1="1087.99" x2="2350.89" y2="1087.99" xlink:href="#linear-gradient-12"/><linearGradient id="linear-gradient-110" x1="2590.77" y1="871.91" x2="2443.73" y2="997.61" xlink:href="#linear-gradient-11"/><linearGradient id="linear-gradient-111" x1="2384.09" y1="917.65" x2="2653.19" y2="917.65" xlink:href="#linear-gradient-12"/><linearGradient id="linear-gradient-112" x1="2590.77" y1="1042.96" x2="2443.73" y2="1168.66" xlink:href="#linear-gradient-11"/><linearGradient id="linear-gradient-113" x1="2384.09" y1="1087.98" x2="2653.19" y2="1087.98" xlink:href="#linear-gradient-12"/><linearGradient id="linear-gradient-114" x1="2885.09" y1="1385.18" x2="2738.04" y2="1510.88" xlink:href="#linear-gradient-11"/><linearGradient id="linear-gradient-115" x1="2678.4" y1="1431.06" x2="2947.5" y2="1431.06" xlink:href="#linear-gradient-12"/><linearGradient id="linear-gradient-116" x1="2885.09" y1="1214.07" x2="2738.04" y2="1339.77" xlink:href="#linear-gradient-11"/><linearGradient id="linear-gradient-117" x1="2678.4" y1="1259.53" x2="2947.5" y2="1259.53" xlink:href="#linear-gradient-12"/><linearGradient id="linear-gradient-118" x1="2885.09" y1="1042.96" x2="2738.04" y2="1168.66" xlink:href="#linear-gradient-11"/><linearGradient id="linear-gradient-119" x1="2678.4" y1="1087.99" x2="2947.5" y2="1087.99" xlink:href="#linear-gradient-12"/><linearGradient id="linear-gradient-120" x1="2885.09" y1="871.64" x2="2738.04" y2="997.34" xlink:href="#linear-gradient-11"/><linearGradient id="linear-gradient-121" x1="2678.4" y1="917.39" x2="2947.5" y2="917.39" xlink:href="#linear-gradient-12"/><linearGradient id="linear-gradient-122" x1="1950.69" y1="1592.07" x2="3673.41" y2="250.97" xlink:href="#linear-gradient-61"/></defs><title>five_plus_three_expanded</title><g id="fivethree"><path class="cls-1" d="M96.59,306.09V1537H1667.4V306.09Zm1525.54,1185H141.85V351.93H1622.13Z"/><rect class="cls-2" x="565.33" y="322.93" width="45.63" height="1210.33" rx="15.23" ry="15.23"/><rect class="cls-3" x="859.64" y="322.93" width="45.63" height="1210.33" rx="15.23" ry="15.23"/><rect class="cls-4" x="1150.53" y="322.93" width="45.63" height="1210.33" rx="15.23" ry="15.23"/><rect class="cls-5" x="1510.27" y="322.93" width="45.63" height="1210.33" rx="15.23" ry="15.23"/><rect class="cls-6" x="263.03" y="322.93" width="45.63" height="1210.33" rx="15.23" ry="15.23"/><polygon class="cls-1" points="1667.5 642.34 97 642.34 142.03 629.79 1622.47 629.79 1667.5 642.34"/><rect class="cls-7" x="263.03" y="309.25" width="45.63" height="331.96" rx="15.23" ry="15.23"/><rect class="cls-8" x="565.33" y="309.25" width="45.63" height="331.96" rx="15.23" ry="15.23"/><rect class="cls-9" x="859.64" y="309.25" width="45.63" height="331.96" rx="15.23" ry="15.23"/><rect class="cls-10" x="1150.53" y="309.25" width="45.63" height="331.96" rx="15.23" ry="15.23"/><rect class="cls-11" x="1510.27" y="309.25" width="45.63" height="331.96" rx="15.23" ry="15.23"/><g class="cls-12"><path class="cls-13" d="M1017.65,395.35a5.58,5.58,0,0,1-2,3.66l-14,12.62L981,430.23,932,474.3a26.12,26.12,0,0,1-14.5,5.93c-.76.07-1.53.1-2.31.1H849.68c-.78,0-1.55,0-2.31-.1a26.12,26.12,0,0,1-14.5-5.93l-49-44.14L749.24,399a5.58,5.58,0,0,1-2-3.66,5.92,5.92,0,0,1,0-1.19,5.6,5.6,0,0,1,2-3.61L779,363.73l6-5.36,47.9-43.12a26.12,26.12,0,0,1,14.5-5.93c.76-.06,1.53-.1,2.31-.1h65.55c.78,0,1.55,0,2.31.1a26.12,26.12,0,0,1,14.5,5.93l48.42,43.6,35.21,31.7h0a5.54,5.54,0,0,1,2,3.62A5.72,5.72,0,0,1,1017.65,395.35Z"/><path class="cls-14" d="M1018,395.58a6,6,0,0,1-2,3.94l-13.81,12.32-.25.06c-25.82,6.06-71.77,8.65-125.12,3.09-.19,0-105.84-9.13-127.91-24.22l35.82-32.26,23-20.53c18.34,20.77,55.73,44.66,78.45,53.66,43.41,17.19,89.55,14.63,114,7.14,6.6-2,11.93-4.71,15.83-8a.48.48,0,0,0,.1-.17,6,6,0,0,1,1.87,3.8A4.58,4.58,0,0,1,1018,395.58Z"/></g><path class="cls-15" d="M1668.73,556.22a5.47,5.47,0,0,1-2,3.65l-14,12.62-20.65,18.61-48.95,44.07a26.12,26.12,0,0,1-14.5,5.93c-.76.07-1.54.1-2.31.1h-65.56c-.77,0-1.55,0-2.31-.1a26.12,26.12,0,0,1-14.5-5.93l-49-44.14-34.6-31.16a5.55,5.55,0,0,1-2-3.65,4.74,4.74,0,0,1,0-1.19,5.6,5.6,0,0,1,2-3.61l29.78-26.82,6-5.36L1484,476.12a26.12,26.12,0,0,1,14.5-5.93c.76-.06,1.54-.1,2.31-.1h65.56c.77,0,1.55,0,2.31.1a26.12,26.12,0,0,1,14.5,5.93l48.42,43.6,35.2,31.7h0a5.45,5.45,0,0,1,2,3.62A4.58,4.58,0,0,1,1668.73,556.22Z"/><path class="cls-16" d="M1669.07,556.45a6,6,0,0,1-2,3.94l-13.8,12.32-.25,0c-25.83,6.07-71.77,8.66-125.12,3.1-.2,0-105.85-9.13-127.91-24.22l35.82-32.26,23-20.53c18.35,20.77,55.74,44.66,78.46,53.66,43.41,17.19,89.55,14.63,114,7.14,6.61-2,11.93-4.72,15.83-8a.71.71,0,0,0,.11-.17,6,6,0,0,1,1.87,3.8A5.72,5.72,0,0,1,1669.07,556.45Z"/><path class="cls-17" d="M1668.73,935a5.49,5.49,0,0,1-2,3.65l-14,12.62-20.65,18.61L1583.13,1014a26.12,26.12,0,0,1-14.5,5.93c-.76.07-1.54.1-2.31.1h-65.56c-.77,0-1.55,0-2.31-.1A26.12,26.12,0,0,1,1484,1014l-49-44.14-34.6-31.16a5.58,5.58,0,0,1-2-3.65,4.74,4.74,0,0,1,0-1.19,5.57,5.57,0,0,1,2-3.61l29.78-26.82,6-5.36L1484,854.93a26.12,26.12,0,0,1,14.5-5.93c.76-.07,1.54-.1,2.31-.1h65.56c.77,0,1.55,0,2.31.1a26.12,26.12,0,0,1,14.5,5.93l48.42,43.6,35.2,31.7h0a5.45,5.45,0,0,1,2,3.62A4.58,4.58,0,0,1,1668.73,935Z"/><path class="cls-18" d="M1669.07,935.23a6,6,0,0,1-2,3.93l-13.8,12.32a1.83,1.83,0,0,1-.25.06c-25.83,6.07-71.77,8.66-125.12,3.1-.2,0-105.85-9.13-127.91-24.23l35.82-32.26,23-20.52c18.35,20.77,55.74,44.65,78.46,53.65,43.41,17.2,89.55,14.64,114,7.14,6.61-2,11.93-4.71,15.83-8a1.08,1.08,0,0,0,.11-.18,6,6,0,0,1,1.87,3.8A5.82,5.82,0,0,1,1669.07,935.23Z"/><path class="cls-19" d="M1668.73,1106.07a5.49,5.49,0,0,1-2,3.66l-14,12.62-20.65,18.6L1583.13,1185a26,26,0,0,1-14.5,5.93c-.76.07-1.54.11-2.31.11h-65.56c-.77,0-1.55,0-2.31-.11A26,26,0,0,1,1484,1185l-49-44.14-34.6-31.15a5.58,5.58,0,0,1-2-3.66,4.74,4.74,0,0,1,0-1.19,5.6,5.6,0,0,1,2-3.61l29.78-26.82,6-5.36L1484,1026a26,26,0,0,1,14.5-5.93c.76-.07,1.54-.11,2.31-.11h65.56c.77,0,1.55,0,2.31.11a26,26,0,0,1,14.5,5.93l48.42,43.59,35.2,31.7h0a5.45,5.45,0,0,1,2,3.62A4.58,4.58,0,0,1,1668.73,1106.07Z"/><path class="cls-20" d="M1669.07,1105.55a6,6,0,0,1-2,3.94l-13.8,12.32-.25.06c-25.83,6.06-71.77,8.65-125.12,3.09-.2,0-105.85-9.13-127.91-24.22l35.82-32.26,23-20.53c18.35,20.77,55.74,44.66,78.46,53.66,43.41,17.19,89.55,14.63,114,7.14,6.61-2,11.93-4.71,15.83-8a.71.71,0,0,0,.11-.17,6,6,0,0,1,1.87,3.8A5.72,5.72,0,0,1,1669.07,1105.55Z"/><path class="cls-21" d="M1668.73,1277.18a5.49,5.49,0,0,1-2,3.66l-14,12.62-20.65,18.6-48.95,44.07a26,26,0,0,1-14.5,5.93c-.76.07-1.54.11-2.31.11h-65.56c-.77,0-1.55,0-2.31-.11a26,26,0,0,1-14.5-5.93l-49-44.14-34.6-31.15a5.58,5.58,0,0,1-2-3.66,4.74,4.74,0,0,1,0-1.19,5.6,5.6,0,0,1,2-3.61l29.78-26.82,6-5.36,47.89-43.11a26,26,0,0,1,14.5-5.93c.76-.07,1.54-.11,2.31-.11h65.56c.77,0,1.55,0,2.31.11a26,26,0,0,1,14.5,5.93l48.42,43.59,35.2,31.7h0a5.45,5.45,0,0,1,2,3.62A4.58,4.58,0,0,1,1668.73,1277.18Z"/><path class="cls-22" d="M1669.07,1277.09a6,6,0,0,1-2,3.93l-13.8,12.32-.25.06c-25.83,6.07-71.77,8.65-125.12,3.09-.2,0-105.85-9.13-127.91-24.22l35.82-32.26,23-20.52c18.35,20.77,55.74,44.65,78.46,53.65,43.41,17.19,89.55,14.63,114,7.14,6.61-2,11.93-4.71,15.83-8a.71.71,0,0,0,.11-.17,6,6,0,0,1,1.87,3.8A5.82,5.82,0,0,1,1669.07,1277.09Z"/><path class="cls-23" d="M1668.73,1448.3a5.49,5.49,0,0,1-2,3.65l-14,12.62-20.65,18.61-48.95,44.07a26.12,26.12,0,0,1-14.5,5.93c-.76.07-1.54.1-2.31.1h-65.56c-.77,0-1.55,0-2.31-.1a26.12,26.12,0,0,1-14.5-5.93l-49-44.14-34.6-31.16a5.58,5.58,0,0,1-2-3.65,4.74,4.74,0,0,1,0-1.19,5.57,5.57,0,0,1,2-3.61l29.78-26.82,6-5.36L1484,1368.2a26.12,26.12,0,0,1,14.5-5.93c.76-.07,1.54-.1,2.31-.1h65.56c.77,0,1.55,0,2.31.1a26.12,26.12,0,0,1,14.5,5.93l48.42,43.59,35.2,31.71h0a5.45,5.45,0,0,1,2,3.62A4.58,4.58,0,0,1,1668.73,1448.3Z"/><path class="cls-24" d="M1669.07,1448.62a6,6,0,0,1-2,3.94l-13.8,12.32-.25.06c-25.83,6.06-71.77,8.65-125.12,3.09-.2,0-105.85-9.13-127.91-24.22l35.82-32.26,23-20.53c18.35,20.77,55.74,44.66,78.46,53.66,43.41,17.19,89.55,14.63,114,7.14,6.61-2,11.93-4.71,15.83-8a.71.71,0,0,0,.11-.17,6,6,0,0,1,1.87,3.8A5.72,5.72,0,0,1,1669.07,1448.62Z"/><g class="cls-12"><path class="cls-25" d="M1308.54,935a5.58,5.58,0,0,1-2,3.65l-14,12.62-20.65,18.6-49,44.08a26,26,0,0,1-14.5,5.92c-.76.07-1.53.11-2.31.11h-65.55c-.78,0-1.55,0-2.31-.11a26,26,0,0,1-14.5-5.92l-49-44.15-34.61-31.15a5.58,5.58,0,0,1-2-3.65,6,6,0,0,1,0-1.2,5.6,5.6,0,0,1,2-3.61l29.78-26.82,5.95-5.36,47.9-43.11a26,26,0,0,1,14.5-5.93c.76-.07,1.53-.11,2.31-.11h65.55c.78,0,1.55,0,2.31.11a26,26,0,0,1,14.5,5.93l48.42,43.59,35.21,31.7h0a5.54,5.54,0,0,1,2,3.62A5.82,5.82,0,0,1,1308.54,935Z"/><path class="cls-26" d="M1308.87,935.23a6,6,0,0,1-2,3.94l-13.81,12.32-.25.06c-25.82,6.06-71.77,8.65-125.12,3.09-.19,0-105.84-9.13-127.91-24.22l35.82-32.26,23-20.53c18.34,20.77,55.73,44.66,78.45,53.66,43.41,17.19,89.55,14.63,114,7.14,6.6-2,11.93-4.71,15.83-8a.48.48,0,0,0,.1-.17,6,6,0,0,1,1.87,3.8A4.58,4.58,0,0,1,1308.87,935.23Z"/></g><g class="cls-12"><path class="cls-27" d="M1308.54,1106.08a5.55,5.55,0,0,1-2,3.65l-14,12.62L1271.89,1141l-49,44.07a26.12,26.12,0,0,1-14.5,5.93c-.76.07-1.53.1-2.31.1h-65.55c-.78,0-1.55,0-2.31-.1a26.12,26.12,0,0,1-14.5-5.93l-49-44.14-34.61-31.16a5.55,5.55,0,0,1-2-3.65,5.92,5.92,0,0,1,0-1.19,5.57,5.57,0,0,1,2-3.61l29.78-26.82,5.95-5.36,47.9-43.12a26.12,26.12,0,0,1,14.5-5.93c.76-.07,1.53-.1,2.31-.1h65.55c.78,0,1.55,0,2.31.1a26.12,26.12,0,0,1,14.5,5.93l48.42,43.6,35.21,31.7h0a5.54,5.54,0,0,1,2,3.62A5.72,5.72,0,0,1,1308.54,1106.08Z"/><path class="cls-28" d="M1308.87,1105.56a5.94,5.94,0,0,1-2,3.93l-13.81,12.32a1.83,1.83,0,0,1-.25.06c-25.82,6.07-71.77,8.66-125.12,3.1-.19,0-105.84-9.13-127.91-24.23l35.82-32.26,23-20.52c18.34,20.77,55.73,44.65,78.45,53.65,43.41,17.2,89.55,14.64,114,7.14,6.6-2,11.93-4.71,15.83-8a.64.64,0,0,0,.1-.18,6,6,0,0,1,1.87,3.8A4.66,4.66,0,0,1,1308.87,1105.56Z"/></g><g class="cls-12"><path class="cls-29" d="M1308.54,1277.19a5.58,5.58,0,0,1-2,3.66l-14,12.62-20.65,18.6-49,44.07a26,26,0,0,1-14.5,5.93c-.76.07-1.53.1-2.31.1h-65.55c-.78,0-1.55,0-2.31-.1a26,26,0,0,1-14.5-5.93l-49-44.14-34.61-31.15a5.58,5.58,0,0,1-2-3.66,5.92,5.92,0,0,1,0-1.19,5.6,5.6,0,0,1,2-3.61l29.78-26.82,5.95-5.36,47.9-43.12a26.12,26.12,0,0,1,14.5-5.93c.76-.06,1.53-.1,2.31-.1h65.55c.78,0,1.55,0,2.31.1a26.12,26.12,0,0,1,14.5,5.93l48.42,43.6,35.21,31.7h0a5.54,5.54,0,0,1,2,3.62A5.72,5.72,0,0,1,1308.54,1277.19Z"/><path class="cls-30" d="M1308.87,1277.09a6,6,0,0,1-2,3.94l-13.81,12.32-.25.05c-25.82,6.07-71.77,8.66-125.12,3.1-.19,0-105.84-9.13-127.91-24.22l35.82-32.26,23-20.53c18.34,20.77,55.73,44.66,78.45,53.65,43.41,17.2,89.55,14.64,114,7.14,6.6-2,11.93-4.71,15.83-8,0,0,.07-.12.1-.17a6,6,0,0,1,1.87,3.8A4.58,4.58,0,0,1,1308.87,1277.09Z"/></g><g class="cls-12"><path class="cls-31" d="M1308.54,1448.28a5.58,5.58,0,0,1-2,3.66l-14,12.62-20.65,18.6-49,44.07a26,26,0,0,1-14.5,5.93c-.76.07-1.53.11-2.31.11h-65.55c-.78,0-1.55,0-2.31-.11a26,26,0,0,1-14.5-5.93l-49-44.14-34.61-31.15a5.58,5.58,0,0,1-2-3.66,5.92,5.92,0,0,1,0-1.19,5.6,5.6,0,0,1,2-3.61l29.78-26.82,5.95-5.36,47.9-43.12a26,26,0,0,1,14.5-5.92c.76-.07,1.53-.11,2.31-.11h65.55c.78,0,1.55,0,2.31.11a26,26,0,0,1,14.5,5.92l48.42,43.6,35.21,31.7h0a5.54,5.54,0,0,1,2,3.62A5.72,5.72,0,0,1,1308.54,1448.28Z"/><path class="cls-32" d="M1308.87,1448.62a6,6,0,0,1-2,3.94l-13.81,12.32-.25.06c-25.82,6.06-71.77,8.65-125.12,3.09-.19,0-105.84-9.13-127.91-24.22l35.82-32.26,23-20.53c18.34,20.77,55.73,44.66,78.45,53.66,43.41,17.19,89.55,14.63,114,7.14,6.6-2,11.93-4.71,15.83-8a.48.48,0,0,0,.1-.17,6,6,0,0,1,1.87,3.8A4.58,4.58,0,0,1,1308.87,1448.62Z"/></g><g class="cls-12"><path class="cls-33" d="M723.34,1448.28a5.58,5.58,0,0,1-2,3.66l-14,12.62-20.66,18.6-48.95,44.07a26,26,0,0,1-14.5,5.93c-.76.07-1.53.11-2.31.11H555.36c-.77,0-1.54,0-2.31-.11a25.94,25.94,0,0,1-14.49-5.93l-49-44.14-34.61-31.15a5.58,5.58,0,0,1-2-3.66,4.74,4.74,0,0,1,0-1.19,5.6,5.6,0,0,1,2-3.61l29.78-26.82,6-5.36,47.9-43.12a26,26,0,0,1,14.49-5.92c.77-.07,1.54-.11,2.31-.11h65.56c.78,0,1.55,0,2.31.11a26,26,0,0,1,14.5,5.92l48.42,43.6,35.21,31.7h0a5.54,5.54,0,0,1,2,3.62A5.72,5.72,0,0,1,723.34,1448.28Z"/><path class="cls-34" d="M723.67,1448.62a6,6,0,0,1-2,3.94l-13.8,12.32-.25.06c-25.83,6.06-71.77,8.65-125.12,3.09-.19,0-105.85-9.13-127.91-24.22l35.82-32.26,23-20.53c18.35,20.77,55.74,44.66,78.46,53.66,43.41,17.19,89.55,14.63,114,7.14,6.6-2,11.92-4.71,15.83-8,0,0,.06-.11.1-.17a6,6,0,0,1,1.87,3.8A4.58,4.58,0,0,1,723.67,1448.62Z"/></g><g class="cls-12"><path class="cls-35" d="M723.34,1277.17a5.58,5.58,0,0,1-2,3.66l-14,12.62-20.66,18.6-48.95,44.07a26,26,0,0,1-14.5,5.93c-.76.07-1.53.11-2.31.11H555.36c-.77,0-1.54,0-2.31-.11a25.94,25.94,0,0,1-14.49-5.93l-49-44.14-34.61-31.15a5.58,5.58,0,0,1-2-3.66,4.74,4.74,0,0,1,0-1.19,5.6,5.6,0,0,1,2-3.61l29.78-26.82,6-5.36,47.9-43.12a26,26,0,0,1,14.49-5.92c.77-.07,1.54-.11,2.31-.11h65.56c.78,0,1.55,0,2.31.11a26,26,0,0,1,14.5,5.92l48.42,43.6,35.21,31.7h0a5.54,5.54,0,0,1,2,3.62A5.72,5.72,0,0,1,723.34,1277.17Z"/><path class="cls-36" d="M723.67,1277.09a6,6,0,0,1-2,3.94l-13.8,12.32-.25.05c-25.83,6.07-71.77,8.66-125.12,3.1-.19,0-105.85-9.13-127.91-24.22L490.42,1240l23-20.53c18.35,20.77,55.74,44.66,78.46,53.65,43.41,17.2,89.55,14.64,114,7.14,6.6-2,11.92-4.71,15.83-8,0,0,.06-.12.1-.17a6,6,0,0,1,1.87,3.8A4.58,4.58,0,0,1,723.67,1277.09Z"/></g><g class="cls-12"><path class="cls-37" d="M723.34,395.35a5.58,5.58,0,0,1-2,3.66l-14,12.62-20.66,18.6L637.73,474.3a26.12,26.12,0,0,1-14.5,5.93c-.76.07-1.53.1-2.31.1H555.36c-.77,0-1.54,0-2.31-.1a26.08,26.08,0,0,1-14.49-5.93l-49-44.14L454.93,399a5.58,5.58,0,0,1-2-3.66,4.74,4.74,0,0,1,0-1.19,5.6,5.6,0,0,1,2-3.61l29.78-26.82,6-5.36,47.9-43.12a26.08,26.08,0,0,1,14.49-5.93c.77-.06,1.54-.1,2.31-.1h65.56c.78,0,1.55,0,2.31.1a26.12,26.12,0,0,1,14.5,5.93l48.42,43.6,35.21,31.7h0a5.54,5.54,0,0,1,2,3.62A5.72,5.72,0,0,1,723.34,395.35Z"/><path class="cls-38" d="M723.67,395.58a6,6,0,0,1-2,3.94l-13.8,12.32-.25.05c-25.83,6.07-71.77,8.66-125.12,3.1-.19,0-105.85-9.13-127.91-24.22l35.82-32.26,23-20.53c18.35,20.77,55.74,44.66,78.46,53.66,43.41,17.19,89.55,14.63,114,7.14,6.6-2,11.92-4.71,15.83-8,0,0,.06-.11.1-.17a6,6,0,0,1,1.87,3.8A4.58,4.58,0,0,1,723.67,395.58Z"/></g><g class="cls-12"><path class="cls-39" d="M1308.54,395.38a5.58,5.58,0,0,1-2,3.65l-14,12.62-20.65,18.6-49,44.08a26.12,26.12,0,0,1-14.5,5.93c-.76.06-1.53.1-2.31.1h-65.55c-.78,0-1.55,0-2.31-.1a26.12,26.12,0,0,1-14.5-5.93l-49-44.14L1040.13,399a5.58,5.58,0,0,1-2-3.65,6,6,0,0,1,0-1.2,5.6,5.6,0,0,1,2-3.61l29.78-26.82,5.95-5.36,47.9-43.11a26,26,0,0,1,14.5-5.93c.76-.07,1.53-.1,2.31-.1h65.55c.78,0,1.55,0,2.31.1a26,26,0,0,1,14.5,5.93l48.42,43.59,35.21,31.7v0a5.49,5.49,0,0,1,2,3.61A5.82,5.82,0,0,1,1308.54,395.38Z"/><path class="cls-40" d="M1308.87,395.57a5.94,5.94,0,0,1-2,3.93l-13.81,12.32-.25.06c-25.82,6.07-71.77,8.65-125.12,3.09-.19,0-105.84-9.13-127.91-24.22l35.82-32.26,23-20.52c18.34,20.77,55.73,44.65,78.45,53.65,43.41,17.19,89.55,14.63,114,7.14,6.6-2,11.93-4.71,15.83-8a.48.48,0,0,0,.1-.17,6,6,0,0,1,1.87,3.8A4.66,4.66,0,0,1,1308.87,395.57Z"/></g><g class="cls-12"><path class="cls-41" d="M421,395.38a5.58,5.58,0,0,1-2,3.65l-14,12.62-20.65,18.6-49,44.08a26.12,26.12,0,0,1-14.5,5.93c-.76.06-1.53.1-2.31.1H253.07c-.78,0-1.55,0-2.31-.1a26.12,26.12,0,0,1-14.5-5.93l-49-44.14L152.63,399a5.58,5.58,0,0,1-2-3.65,6,6,0,0,1,0-1.2,5.6,5.6,0,0,1,2-3.61l29.78-26.82,6-5.36,47.9-43.11a26,26,0,0,1,14.5-5.93c.76-.07,1.53-.1,2.31-.1h65.55c.78,0,1.55,0,2.31.1a26,26,0,0,1,14.5,5.93l48.42,43.59,35.21,31.7v0a5.49,5.49,0,0,1,2,3.61A5.82,5.82,0,0,1,421,395.38Z"/><path class="cls-42" d="M421.37,395.57a5.94,5.94,0,0,1-2,3.93l-13.81,12.32-.25.06c-25.82,6.07-71.77,8.65-125.12,3.09-.19,0-105.84-9.13-127.91-24.22l35.82-32.26,23-20.52c18.34,20.77,55.73,44.65,78.45,53.65,43.41,17.19,89.55,14.63,114,7.14,6.6-2,11.93-4.71,15.83-8a.48.48,0,0,0,.1-.17,6,6,0,0,1,1.87,3.8A4.66,4.66,0,0,1,421.37,395.57Z"/></g><g class="cls-12"><path class="cls-43" d="M421,934.76a5.58,5.58,0,0,1-2,3.65L405,951l-20.65,18.61-49,44.07a26.12,26.12,0,0,1-14.5,5.93c-.76.07-1.53.1-2.31.1H253.07c-.78,0-1.55,0-2.31-.1a26.12,26.12,0,0,1-14.5-5.93l-49-44.14-34.61-31.16a5.58,5.58,0,0,1-2-3.65,6,6,0,0,1,0-1.2,5.58,5.58,0,0,1,2-3.6l29.78-26.82,6-5.36,47.9-43.12a26.12,26.12,0,0,1,14.5-5.93c.76-.07,1.53-.1,2.31-.1h65.55c.78,0,1.55,0,2.31.1a26.12,26.12,0,0,1,14.5,5.93l48.42,43.59L419.06,930h0a5.52,5.52,0,0,1,2,3.62A5.72,5.72,0,0,1,421,934.76Z"/><path class="cls-44" d="M421.37,935a5.94,5.94,0,0,1-2,3.93l-13.81,12.32a1.83,1.83,0,0,1-.25.06c-25.82,6.07-71.77,8.65-125.12,3.1-.19,0-105.84-9.13-127.91-24.23l35.82-32.26,23-20.52C229.47,898.13,266.86,922,289.58,931c43.41,17.19,89.55,14.64,114,7.14,6.6-2,11.93-4.71,15.83-8a.48.48,0,0,0,.1-.17,6,6,0,0,1,1.87,3.8A4.66,4.66,0,0,1,421.37,935Z"/></g><g class="cls-12"><path class="cls-45" d="M421,1448.28a5.58,5.58,0,0,1-2,3.66l-14,12.62-20.65,18.6-49,44.07a26,26,0,0,1-14.5,5.93c-.76.07-1.53.11-2.31.11H253.07c-.78,0-1.55,0-2.31-.11a26,26,0,0,1-14.5-5.93l-49-44.14-34.61-31.15a5.58,5.58,0,0,1-2-3.66,5.92,5.92,0,0,1,0-1.19,5.6,5.6,0,0,1,2-3.61l29.78-26.82,6-5.36,47.9-43.12a26,26,0,0,1,14.5-5.92c.76-.07,1.53-.11,2.31-.11h65.55c.78,0,1.55,0,2.31.11a26,26,0,0,1,14.5,5.92l48.42,43.6,35.21,31.7h0a5.54,5.54,0,0,1,2,3.62A5.72,5.72,0,0,1,421,1448.28Z"/><path class="cls-46" d="M421.37,1448.62a6,6,0,0,1-2,3.94l-13.81,12.32-.25.06c-25.82,6.06-71.77,8.65-125.12,3.09-.19,0-105.84-9.13-127.91-24.22l35.82-32.26,23-20.53c18.34,20.77,55.73,44.66,78.45,53.66,43.41,17.19,89.55,14.63,114,7.14,6.6-2,11.93-4.71,15.83-8a.48.48,0,0,0,.1-.17,6,6,0,0,1,1.87,3.8A4.58,4.58,0,0,1,421.37,1448.62Z"/></g><g class="cls-12"><path class="cls-47" d="M421,1277.17a5.58,5.58,0,0,1-2,3.66l-14,12.62-20.65,18.6-49,44.07a26,26,0,0,1-14.5,5.93c-.76.07-1.53.11-2.31.11H253.07c-.78,0-1.55,0-2.31-.11a26,26,0,0,1-14.5-5.93l-49-44.14-34.61-31.15a5.58,5.58,0,0,1-2-3.66,5.92,5.92,0,0,1,0-1.19,5.6,5.6,0,0,1,2-3.61l29.78-26.82,6-5.36,47.9-43.12a26,26,0,0,1,14.5-5.92c.76-.07,1.53-.11,2.31-.11h65.55c.78,0,1.55,0,2.31.11a26,26,0,0,1,14.5,5.92l48.42,43.6,35.21,31.7h0a5.54,5.54,0,0,1,2,3.62A5.72,5.72,0,0,1,421,1277.17Z"/><path class="cls-48" d="M421.37,1277.09a6,6,0,0,1-2,3.94l-13.81,12.32-.25.05c-25.82,6.07-71.77,8.66-125.12,3.1-.19,0-105.84-9.13-127.91-24.22L188.12,1240l23-20.53c18.34,20.77,55.73,44.66,78.45,53.65,43.41,17.2,89.55,14.64,114,7.14,6.6-2,11.93-4.71,15.83-8,.05,0,.07-.12.1-.17a6,6,0,0,1,1.87,3.8A4.58,4.58,0,0,1,421.37,1277.09Z"/></g><g class="cls-12"><path class="cls-49" d="M421,1106.06a5.55,5.55,0,0,1-2,3.65l-14,12.62-20.65,18.61-49,44.07a26.12,26.12,0,0,1-14.5,5.93c-.76.07-1.53.1-2.31.1H253.07c-.78,0-1.55,0-2.31-.1a26.12,26.12,0,0,1-14.5-5.93l-49-44.14-34.61-31.16a5.55,5.55,0,0,1-2-3.65,5.92,5.92,0,0,1,0-1.19,5.57,5.57,0,0,1,2-3.61l29.78-26.82,6-5.36,47.9-43.12a26.12,26.12,0,0,1,14.5-5.93c.76-.07,1.53-.1,2.31-.1h65.55c.78,0,1.55,0,2.31.1a26.12,26.12,0,0,1,14.5,5.93l48.42,43.6,35.21,31.7h0a5.54,5.54,0,0,1,2,3.62A5.72,5.72,0,0,1,421,1106.06Z"/><path class="cls-50" d="M421.37,1105.56a5.94,5.94,0,0,1-2,3.93l-13.81,12.32-.25.06c-25.82,6.07-71.77,8.65-125.12,3.09-.19,0-105.84-9.13-127.91-24.22l35.82-32.26,23-20.52c18.34,20.77,55.73,44.65,78.45,53.65,43.41,17.19,89.55,14.63,114,7.14,6.6-2,11.93-4.71,15.83-8a.48.48,0,0,0,.1-.17,6,6,0,0,1,1.87,3.8A4.66,4.66,0,0,1,421.37,1105.56Z"/></g><g class="cls-12"><path class="cls-51" d="M723.34,935a5.58,5.58,0,0,1-2,3.65l-14,12.62-20.66,18.6L637.73,1014a26,26,0,0,1-14.5,5.92c-.76.07-1.53.11-2.31.11H555.36c-.77,0-1.54,0-2.31-.11a26,26,0,0,1-14.49-5.92l-49-44.14-34.61-31.16a5.58,5.58,0,0,1-2-3.65,4.82,4.82,0,0,1,0-1.2,5.6,5.6,0,0,1,2-3.61l29.78-26.82,6-5.36,47.9-43.11A26,26,0,0,1,553.05,849c.77-.07,1.54-.1,2.31-.1h65.56c.78,0,1.55,0,2.31.1a26,26,0,0,1,14.5,5.93l48.42,43.59,35.21,31.7v0a5.49,5.49,0,0,1,2,3.61A5.82,5.82,0,0,1,723.34,935Z"/><path class="cls-52" d="M723.67,935.21a6,6,0,0,1-2,3.94l-13.8,12.32-.25.06c-25.83,6.06-71.77,8.65-125.12,3.09-.19,0-105.85-9.13-127.91-24.22l35.82-32.26,23-20.53c18.35,20.77,55.74,44.66,78.46,53.66,43.41,17.19,89.55,14.63,114,7.14,6.6-2,11.92-4.71,15.83-8,0,0,.06-.11.1-.17a6,6,0,0,1,1.87,3.8A4.58,4.58,0,0,1,723.67,935.21Z"/></g><g class="cls-12"><path class="cls-53" d="M723.34,1106.06a5.55,5.55,0,0,1-2,3.65l-14,12.62-20.66,18.61L637.73,1185a26.12,26.12,0,0,1-14.5,5.93c-.76.07-1.53.1-2.31.1H555.36c-.77,0-1.54,0-2.31-.1a26.08,26.08,0,0,1-14.49-5.93l-49-44.14-34.61-31.16a5.55,5.55,0,0,1-2-3.65,4.74,4.74,0,0,1,0-1.19,5.57,5.57,0,0,1,2-3.61l29.78-26.82,6-5.36,47.9-43.12a26.08,26.08,0,0,1,14.49-5.93c.77-.07,1.54-.1,2.31-.1h65.56c.78,0,1.55,0,2.31.1a26.12,26.12,0,0,1,14.5,5.93l48.42,43.6,35.21,31.7h0a5.54,5.54,0,0,1,2,3.62A5.72,5.72,0,0,1,723.34,1106.06Z"/><path class="cls-54" d="M723.67,1105.54a6,6,0,0,1-2,3.93l-13.8,12.32a1.83,1.83,0,0,1-.25.06c-25.83,6.07-71.77,8.66-125.12,3.1-.19,0-105.85-9.13-127.91-24.22l35.82-32.27,23-20.52c18.35,20.77,55.74,44.65,78.46,53.65,43.41,17.2,89.55,14.64,114,7.14,6.6-2,11.92-4.71,15.83-8,0,0,.06-.12.1-.17a6,6,0,0,1,1.87,3.79A4.66,4.66,0,0,1,723.67,1105.54Z"/></g><g class="cls-12"><path class="cls-55" d="M1017.65,1448.28a5.58,5.58,0,0,1-2,3.66l-14,12.62L981,1483.16l-49,44.07a26,26,0,0,1-14.5,5.93c-.76.07-1.53.11-2.31.11H849.68c-.78,0-1.55,0-2.31-.11a26,26,0,0,1-14.5-5.93l-49-44.14-34.61-31.15a5.58,5.58,0,0,1-2-3.66,5.92,5.92,0,0,1,0-1.19,5.6,5.6,0,0,1,2-3.61L779,1416.66l6-5.36,47.9-43.12a26,26,0,0,1,14.5-5.92c.76-.07,1.53-.11,2.31-.11h65.55c.78,0,1.55,0,2.31.11a26,26,0,0,1,14.5,5.92l48.42,43.6,35.21,31.7h0a5.54,5.54,0,0,1,2,3.62A5.72,5.72,0,0,1,1017.65,1448.28Z"/><path class="cls-56" d="M1018,1448.62a6,6,0,0,1-2,3.94l-13.81,12.32-.25.06c-25.82,6.06-71.77,8.65-125.12,3.09-.19,0-105.84-9.13-127.91-24.22l35.82-32.26,23-20.53c18.34,20.77,55.73,44.66,78.45,53.66,43.41,17.19,89.55,14.63,114,7.14,6.6-2,11.93-4.71,15.83-8a.48.48,0,0,0,.1-.17,6,6,0,0,1,1.87,3.8A4.58,4.58,0,0,1,1018,1448.62Z"/></g><g class="cls-12"><path class="cls-57" d="M1017.65,1277.17a5.58,5.58,0,0,1-2,3.66l-14,12.62L981,1312.05l-49,44.07a26.12,26.12,0,0,1-14.5,5.93c-.76.07-1.53.1-2.31.1H849.68c-.78,0-1.55,0-2.31-.1a26.12,26.12,0,0,1-14.5-5.93l-49-44.14-34.61-31.15a5.58,5.58,0,0,1-2-3.66,5.92,5.92,0,0,1,0-1.19,5.6,5.6,0,0,1,2-3.61L779,1245.55l6-5.36,47.9-43.12a26.12,26.12,0,0,1,14.5-5.93c.76-.06,1.53-.1,2.31-.1h65.55c.78,0,1.55,0,2.31.1a26.12,26.12,0,0,1,14.5,5.93l48.42,43.6,35.21,31.7h0a5.54,5.54,0,0,1,2,3.62A5.72,5.72,0,0,1,1017.65,1277.17Z"/><path class="cls-58" d="M1018,1277.09a6,6,0,0,1-2,3.94l-13.81,12.32-.25.05c-25.82,6.07-71.77,8.66-125.12,3.1-.19,0-105.84-9.13-127.91-24.22L784.73,1240l23-20.53c18.34,20.77,55.73,44.66,78.45,53.65,43.41,17.2,89.55,14.64,114,7.14,6.6-2,11.93-4.71,15.83-8,0,0,.07-.12.1-.17a6,6,0,0,1,1.87,3.8A4.58,4.58,0,0,1,1018,1277.09Z"/></g><g class="cls-12"><path class="cls-59" d="M1017.65,1106.06a5.55,5.55,0,0,1-2,3.65l-14,12.62L981,1140.94,932,1185a26.12,26.12,0,0,1-14.5,5.93c-.76.07-1.53.1-2.31.1H849.68c-.78,0-1.55,0-2.31-.1a26.12,26.12,0,0,1-14.5-5.93l-49-44.14-34.61-31.16a5.55,5.55,0,0,1-2-3.65,5.92,5.92,0,0,1,0-1.19,5.57,5.57,0,0,1,2-3.61L779,1074.44l6-5.36,47.9-43.12a26.12,26.12,0,0,1,14.5-5.93c.76-.07,1.53-.1,2.31-.1h65.55c.78,0,1.55,0,2.31.1A26.12,26.12,0,0,1,932,1026l48.42,43.6,35.21,31.7h0a5.54,5.54,0,0,1,2,3.62A5.72,5.72,0,0,1,1017.65,1106.06Z"/><path class="cls-60" d="M1018,1105.56a5.94,5.94,0,0,1-2,3.93l-13.81,12.32a1.83,1.83,0,0,1-.25.06c-25.82,6.07-71.77,8.65-125.12,3.1-.19,0-105.84-9.14-127.91-24.23l35.82-32.26,23-20.52c18.34,20.77,55.73,44.65,78.45,53.65,43.41,17.19,89.55,14.64,114,7.14,6.6-2,11.93-4.71,15.83-8a.48.48,0,0,0,.1-.17,6,6,0,0,1,1.87,3.8A4.66,4.66,0,0,1,1018,1105.56Z"/></g><g class="cls-12"><path class="cls-61" d="M1017.65,934.74a5.58,5.58,0,0,1-2,3.66l-14,12.61L981,969.62l-49,44.07a26.12,26.12,0,0,1-14.5,5.93c-.76.07-1.53.1-2.31.1H849.68c-.78,0-1.55,0-2.31-.1a26.12,26.12,0,0,1-14.5-5.93l-49-44.14L749.24,938.4a5.58,5.58,0,0,1-2-3.66,5.92,5.92,0,0,1,0-1.19,5.6,5.6,0,0,1,2-3.61L779,903.12l6-5.36,47.9-43.12a26.12,26.12,0,0,1,14.5-5.93c.76-.06,1.53-.1,2.31-.1h65.55c.78,0,1.55,0,2.31.1a26.12,26.12,0,0,1,14.5,5.93l48.42,43.6,35.21,31.7h0a5.54,5.54,0,0,1,2,3.62A5.72,5.72,0,0,1,1017.65,934.74Z"/><path class="cls-62" d="M1018,935a5.94,5.94,0,0,1-2,3.93l-13.81,12.32a1.83,1.83,0,0,1-.25.06c-25.82,6.07-71.77,8.65-125.12,3.1-.19,0-105.84-9.13-127.91-24.23l35.82-32.26,23-20.52C826.08,898.13,863.47,922,886.19,931c43.41,17.19,89.55,14.64,114,7.14,6.6-2,11.93-4.71,15.83-8a.48.48,0,0,0,.1-.17,6,6,0,0,1,1.87,3.8A4.66,4.66,0,0,1,1018,935Z"/></g><path class="cls-63" d="M23.58,247.91V1595.13h1718V247.91ZM1667.4,1537H96.59V675.43h1570.7V642.34H96.59V306.09H1667.4Z"/><path class="cls-64" d="M1511.11,513.3h51.31v10.46h-39.26l-5.1,18.26.28.2a22.31,22.31,0,0,1,8.29-4.05,37.59,37.59,0,0,1,10-1.38,44.85,44.85,0,0,1,13.18,1.79,28.58,28.58,0,0,1,9.78,5,21.52,21.52,0,0,1,6,7.64,22.45,22.45,0,0,1,2.05,9.54,23.19,23.19,0,0,1-8,17.18,32.88,32.88,0,0,1-10.7,6.16,45.16,45.16,0,0,1-15.59,2.41,60.69,60.69,0,0,1-13.39-1.39,37.19,37.19,0,0,1-10.84-4.15,23,23,0,0,1-7.44-6.82,18.21,18.21,0,0,1-3-9.49h16.16a11.85,11.85,0,0,0,5.53,9q4.82,3.14,12.75,3.13a26.61,26.61,0,0,0,8.65-1.23,15.28,15.28,0,0,0,5.74-3.38,12.13,12.13,0,0,0,3.11-5,19.87,19.87,0,0,0,.92-6.16,14.55,14.55,0,0,0-1.13-5.69,13.37,13.37,0,0,0-3.4-4.77,16.57,16.57,0,0,0-5.88-3.28,26.2,26.2,0,0,0-8.44-1.23,32.16,32.16,0,0,0-9.56,1.38,10.43,10.43,0,0,0-6.45,5.18h-16.16Z"/><path class="cls-1" d="M852.58,50.05h70V64.33H869l-7,24.92.39.28A30.21,30.21,0,0,1,873.76,84a51.2,51.2,0,0,1,13.64-1.89,61.06,61.06,0,0,1,18,2.45,39.18,39.18,0,0,1,13.34,6.86A29.35,29.35,0,0,1,927,101.85a30.43,30.43,0,0,1,2.81,13A31.23,31.23,0,0,1,927.15,127a31.78,31.78,0,0,1-8.32,11.34,45,45,0,0,1-14.6,8.4Q895.32,150,883,150a83.36,83.36,0,0,1-18.28-1.89,50.69,50.69,0,0,1-14.8-5.67,31.38,31.38,0,0,1-10.15-9.31,24.76,24.76,0,0,1-4.16-12.95h22.05a16.24,16.24,0,0,0,7.54,12.25q6.58,4.27,17.41,4.27a36.16,36.16,0,0,0,11.8-1.68,20.83,20.83,0,0,0,7.84-4.62,16.69,16.69,0,0,0,4.25-6.86,27.26,27.26,0,0,0,1.26-8.4,20,20,0,0,0-1.55-7.77,18.17,18.17,0,0,0-4.64-6.51,22.72,22.72,0,0,0-8-4.48A35.75,35.75,0,0,0,882,94.71a43.8,43.8,0,0,0-13.05,1.89,14.15,14.15,0,0,0-8.8,7.07H838.07Z"/><path class="cls-1" d="M1837.44,77.21h19.73v28.28h38.88v14.28h-38.88v28.28h-19.73V119.77h-38.88V105.49h38.88Z"/><path class="cls-1" d="M2026.07,306.09V1537H3596.88V306.09Zm1525.55,1185H2071.34V351.93H3551.62Z"/><rect class="cls-65" x="2494.81" y="322.93" width="45.63" height="1210.33" rx="15.23" ry="15.23"/><rect class="cls-66" x="2789.13" y="322.93" width="45.63" height="1210.33" rx="15.23" ry="15.23"/><rect class="cls-67" x="3080.02" y="322.93" width="45.63" height="1210.33" rx="15.23" ry="15.23"/><rect class="cls-68" x="3377.75" y="322.93" width="45.63" height="1210.33" rx="15.23" ry="15.23"/><rect class="cls-69" x="2192.52" y="322.93" width="45.63" height="1210.33" rx="15.23" ry="15.23"/><polygon class="cls-1" points="3596.99 642.34 2026.49 642.34 2071.52 629.79 3551.96 629.79 3596.99 642.34"/><rect class="cls-70" x="2192.52" y="309.25" width="45.63" height="331.96" rx="15.23" ry="15.23"/><rect class="cls-71" x="2494.81" y="309.25" width="45.63" height="331.96" rx="15.23" ry="15.23"/><rect class="cls-72" x="2789.13" y="309.25" width="45.63" height="331.96" rx="15.23" ry="15.23"/><rect class="cls-73" x="3080.02" y="309.25" width="45.63" height="331.96" rx="15.23" ry="15.23"/><rect class="cls-74" x="3377.75" y="309.25" width="45.63" height="331.96" rx="15.23" ry="15.23"/><g class="cls-12"><path class="cls-75" d="M2947.13,395.35a5.49,5.49,0,0,1-2,3.66l-14,12.62-20.65,18.6-48.95,44.07a26.12,26.12,0,0,1-14.5,5.93c-.76.07-1.54.1-2.31.1h-65.56c-.77,0-1.55,0-2.31-.1a26.12,26.12,0,0,1-14.5-5.93l-49-44.14L2678.73,399a5.58,5.58,0,0,1-2-3.66,4.74,4.74,0,0,1,0-1.19,5.6,5.6,0,0,1,2-3.61l29.78-26.82,5.95-5.36,47.89-43.12a26.12,26.12,0,0,1,14.5-5.93c.76-.06,1.54-.1,2.31-.1h65.56c.77,0,1.55,0,2.31.1a26.12,26.12,0,0,1,14.5,5.93l48.42,43.6,35.2,31.7h0a5.45,5.45,0,0,1,2,3.62A4.58,4.58,0,0,1,2947.13,395.35Z"/><path class="cls-76" d="M2947.47,395.58a6,6,0,0,1-2,3.94l-13.8,12.32-.25.06c-25.83,6.06-71.77,8.65-125.12,3.09-.2,0-105.85-9.13-127.91-24.22l35.82-32.26,23-20.53c18.35,20.77,55.74,44.66,78.46,53.66,43.41,17.19,89.55,14.63,114,7.14,6.61-2,11.93-4.71,15.83-8a.71.71,0,0,0,.11-.17,6,6,0,0,1,1.87,3.8A5.72,5.72,0,0,1,2947.47,395.58Z"/></g><path class="cls-77" d="M3536.22,556.22a5.55,5.55,0,0,1-2,3.65l-14,12.62-20.65,18.61-49,44.07a26.09,26.09,0,0,1-14.5,5.93c-.76.07-1.53.1-2.31.1h-65.55c-.78,0-1.55,0-2.31-.1a26.12,26.12,0,0,1-14.5-5.93l-49-44.14-34.61-31.16a5.55,5.55,0,0,1-2-3.65,5.92,5.92,0,0,1,0-1.19,5.6,5.6,0,0,1,2-3.61l29.78-26.82,5.95-5.36,47.9-43.12a26.12,26.12,0,0,1,14.5-5.93c.76-.06,1.53-.1,2.31-.1h65.55c.78,0,1.55,0,2.31.1a26.09,26.09,0,0,1,14.5,5.93l48.42,43.6,35.21,31.7h0a5.54,5.54,0,0,1,2,3.62A5.72,5.72,0,0,1,3536.22,556.22Z"/><path class="cls-78" d="M3536.55,556.45a6,6,0,0,1-2,3.94l-13.81,12.32-.25,0c-25.82,6.07-71.77,8.66-125.12,3.1-.19,0-105.84-9.13-127.91-24.22l35.82-32.26,23-20.53c18.34,20.77,55.73,44.66,78.45,53.66,43.42,17.19,89.55,14.63,114,7.14,6.6-2,11.93-4.72,15.83-8a.48.48,0,0,0,.1-.17,5.93,5.93,0,0,1,1.87,3.8A4.58,4.58,0,0,1,3536.55,556.45Z"/><path class="cls-79" d="M3536.22,753.57a5.58,5.58,0,0,1-2,3.65l-14,12.62-20.65,18.61-49,44.07a26.09,26.09,0,0,1-14.5,5.93c-.76.07-1.53.1-2.31.1h-65.55c-.78,0-1.55,0-2.31-.1a26.12,26.12,0,0,1-14.5-5.93l-49-44.14-34.61-31.16a5.58,5.58,0,0,1-2-3.65,5.92,5.92,0,0,1,0-1.19,5.57,5.57,0,0,1,2-3.61L3297.59,722l5.95-5.36,47.9-43.12a26.12,26.12,0,0,1,14.5-5.93c.76-.07,1.53-.1,2.31-.1h65.55c.78,0,1.55,0,2.31.1a26.09,26.09,0,0,1,14.5,5.93l48.42,43.6,35.21,31.7h0a5.54,5.54,0,0,1,2,3.62A5.72,5.72,0,0,1,3536.22,753.57Z"/><path class="cls-80" d="M3536.55,753.77a5.94,5.94,0,0,1-2,3.93L3520.76,770a1.83,1.83,0,0,1-.25.06c-25.82,6.07-71.77,8.66-125.12,3.1-.19,0-105.84-9.13-127.91-24.23l35.82-32.26,23-20.52c18.34,20.77,55.73,44.65,78.45,53.65,43.42,17.2,89.55,14.64,114,7.14,6.6-2,11.93-4.71,15.83-8a.64.64,0,0,0,.1-.18,6,6,0,0,1,1.87,3.8A4.66,4.66,0,0,1,3536.55,753.77Z"/><path class="cls-81" d="M3536.22,924.61a5.58,5.58,0,0,1-2,3.66l-14,12.62-20.65,18.6-49,44.07a25.94,25.94,0,0,1-14.5,5.93c-.76.07-1.53.11-2.31.11h-65.55c-.78,0-1.55,0-2.31-.11a26,26,0,0,1-14.5-5.93l-49-44.14-34.61-31.15a5.58,5.58,0,0,1-2-3.66,5.92,5.92,0,0,1,0-1.19,5.6,5.6,0,0,1,2-3.61L3297.59,893l5.95-5.36,47.9-43.11a26,26,0,0,1,14.5-5.93c.76-.07,1.53-.11,2.31-.11h65.55c.78,0,1.55,0,2.31.11a25.94,25.94,0,0,1,14.5,5.93L3499,888.11l35.21,31.7h0a5.54,5.54,0,0,1,2,3.62A5.72,5.72,0,0,1,3536.22,924.61Z"/><path class="cls-82" d="M3536.55,924.09a6,6,0,0,1-2,3.94l-13.81,12.32-.25.06c-25.82,6.06-71.77,8.65-125.12,3.09-.19,0-105.84-9.13-127.91-24.22L3303.3,887l23-20.53c18.34,20.78,55.73,44.66,78.45,53.66,43.42,17.19,89.55,14.63,114,7.14,6.6-2,11.93-4.71,15.83-8a.48.48,0,0,0,.1-.17,6,6,0,0,1,1.87,3.8A4.58,4.58,0,0,1,3536.55,924.09Z"/><path class="cls-83" d="M3536.22,1095.72a5.58,5.58,0,0,1-2,3.66l-14,12.62-20.65,18.6-49,44.07a25.94,25.94,0,0,1-14.5,5.93c-.76.07-1.53.11-2.31.11h-65.55c-.78,0-1.55,0-2.31-.11a26,26,0,0,1-14.5-5.93l-49-44.14-34.61-31.15a5.58,5.58,0,0,1-2-3.66,5.92,5.92,0,0,1,0-1.19,5.6,5.6,0,0,1,2-3.61l29.78-26.82,5.95-5.36,47.9-43.11a26,26,0,0,1,14.5-5.93c.76-.07,1.53-.11,2.31-.11h65.55c.78,0,1.55,0,2.31.11a25.94,25.94,0,0,1,14.5,5.93l48.42,43.59,35.21,31.7h0a5.54,5.54,0,0,1,2,3.62A5.72,5.72,0,0,1,3536.22,1095.72Z"/><path class="cls-84" d="M3536.55,1095.63a5.94,5.94,0,0,1-2,3.93l-13.81,12.32-.25.06c-25.82,6.07-71.77,8.65-125.12,3.09-.19,0-105.84-9.13-127.91-24.22l35.82-32.26,23-20.52c18.34,20.77,55.73,44.65,78.45,53.65,43.42,17.19,89.55,14.63,114,7.14,6.6-2,11.93-4.71,15.83-8a.48.48,0,0,0,.1-.17,6,6,0,0,1,1.87,3.8A4.66,4.66,0,0,1,3536.55,1095.63Z"/><path class="cls-85" d="M3536.22,1448.3a5.58,5.58,0,0,1-2,3.65l-14,12.62-20.65,18.61-49,44.07a26.09,26.09,0,0,1-14.5,5.93c-.76.07-1.53.1-2.31.1h-65.55c-.78,0-1.55,0-2.31-.1a26.12,26.12,0,0,1-14.5-5.93l-49-44.14L3267.81,1452a5.58,5.58,0,0,1-2-3.65,5.92,5.92,0,0,1,0-1.19,5.57,5.57,0,0,1,2-3.61l29.78-26.82,5.95-5.36,47.9-43.12a26.12,26.12,0,0,1,14.5-5.93c.76-.07,1.53-.1,2.31-.1h65.55c.78,0,1.55,0,2.31.1a26.09,26.09,0,0,1,14.5,5.93l48.42,43.59,35.21,31.71h0a5.54,5.54,0,0,1,2,3.62A5.72,5.72,0,0,1,3536.22,1448.3Z"/><path class="cls-86" d="M3536.55,1448.62a6,6,0,0,1-2,3.94l-13.81,12.32-.25.06c-25.82,6.06-71.77,8.65-125.12,3.09-.19,0-105.84-9.13-127.91-24.22l35.82-32.26,23-20.53c18.34,20.77,55.73,44.66,78.45,53.66,43.42,17.19,89.55,14.63,114,7.14,6.6-2,11.93-4.71,15.83-8a.48.48,0,0,0,.1-.17,5.93,5.93,0,0,1,1.87,3.8A4.58,4.58,0,0,1,3536.55,1448.62Z"/><g class="cls-12"><path class="cls-87" d="M3238,935a5.49,5.49,0,0,1-2,3.65l-14,12.62-20.65,18.6L3152.42,1014a26,26,0,0,1-14.5,5.92c-.76.07-1.54.11-2.31.11h-65.56c-.77,0-1.55,0-2.31-.11a26,26,0,0,1-14.49-5.92l-49-44.15-34.6-31.15a5.58,5.58,0,0,1-2-3.65,4.82,4.82,0,0,1,0-1.2,5.6,5.6,0,0,1,2-3.61l29.78-26.82,5.95-5.36,47.9-43.11a25.91,25.91,0,0,1,14.49-5.93c.76-.07,1.54-.11,2.31-.11h65.56c.77,0,1.55,0,2.31.11a26,26,0,0,1,14.5,5.93l48.42,43.59,35.2,31.7h0a5.48,5.48,0,0,1,2,3.62A4.66,4.66,0,0,1,3238,935Z"/><path class="cls-88" d="M3238.36,935.23a6,6,0,0,1-2,3.94l-13.8,12.32-.25.06c-25.83,6.06-71.77,8.65-125.12,3.09-.2,0-105.85-9.13-127.91-24.22l35.82-32.26,23-20.53c18.35,20.77,55.74,44.66,78.46,53.66,43.41,17.19,89.55,14.63,114,7.14,6.61-2,11.93-4.71,15.83-8a.71.71,0,0,0,.11-.17,6,6,0,0,1,1.87,3.8A5.72,5.72,0,0,1,3238.36,935.23Z"/></g><g class="cls-12"><path class="cls-89" d="M3238,1106.08a5.47,5.47,0,0,1-2,3.65l-14,12.62L3201.37,1141,3152.42,1185a26.12,26.12,0,0,1-14.5,5.93c-.76.07-1.54.1-2.31.1h-65.56c-.77,0-1.55,0-2.31-.1a26.06,26.06,0,0,1-14.49-5.93l-49-44.14-34.6-31.16a5.55,5.55,0,0,1-2-3.65,4.74,4.74,0,0,1,0-1.19,5.57,5.57,0,0,1,2-3.61l29.78-26.82,5.95-5.36,47.9-43.12a26.06,26.06,0,0,1,14.49-5.93c.76-.07,1.54-.1,2.31-.1h65.56c.77,0,1.55,0,2.31.1a26.12,26.12,0,0,1,14.5,5.93l48.42,43.6,35.2,31.7h0a5.48,5.48,0,0,1,2,3.62A4.58,4.58,0,0,1,3238,1106.08Z"/><path class="cls-90" d="M3238.36,1105.56a6,6,0,0,1-2,3.93l-13.8,12.32a1.83,1.83,0,0,1-.25.06c-25.83,6.07-71.77,8.66-125.12,3.1-.2,0-105.85-9.13-127.91-24.23l35.82-32.26,23-20.52c18.35,20.77,55.74,44.65,78.46,53.65,43.41,17.2,89.55,14.64,114,7.14,6.61-2,11.93-4.71,15.83-8a1.08,1.08,0,0,0,.11-.18,6,6,0,0,1,1.87,3.8A5.82,5.82,0,0,1,3238.36,1105.56Z"/></g><g class="cls-12"><path class="cls-91" d="M3238,1277.19a5.49,5.49,0,0,1-2,3.66l-14,12.62-20.65,18.6-48.95,44.07a26,26,0,0,1-14.5,5.93c-.76.07-1.54.1-2.31.1h-65.56c-.77,0-1.55,0-2.31-.1a26,26,0,0,1-14.49-5.93l-49-44.14-34.6-31.15a5.58,5.58,0,0,1-2-3.66,4.74,4.74,0,0,1,0-1.19,5.6,5.6,0,0,1,2-3.61l29.78-26.82,5.95-5.36,47.9-43.12a26.06,26.06,0,0,1,14.49-5.93c.76-.06,1.54-.1,2.31-.1h65.56c.77,0,1.55,0,2.31.1a26.12,26.12,0,0,1,14.5,5.93l48.42,43.6,35.2,31.7h0a5.48,5.48,0,0,1,2,3.62A4.58,4.58,0,0,1,3238,1277.19Z"/><path class="cls-92" d="M3238.36,1277.09a6,6,0,0,1-2,3.94l-13.8,12.32-.25.05c-25.83,6.07-71.77,8.66-125.12,3.1-.2,0-105.85-9.13-127.91-24.22l35.82-32.26,23-20.53c18.35,20.77,55.74,44.66,78.46,53.65,43.41,17.2,89.55,14.64,114,7.14,6.61-2,11.93-4.71,15.83-8,0,0,.07-.12.11-.17a6,6,0,0,1,1.87,3.8A5.72,5.72,0,0,1,3238.36,1277.09Z"/></g><g class="cls-12"><path class="cls-93" d="M3238,1448.28a5.49,5.49,0,0,1-2,3.66l-14,12.62-20.65,18.6-48.95,44.07a26,26,0,0,1-14.5,5.93c-.76.07-1.54.11-2.31.11h-65.56c-.77,0-1.55,0-2.31-.11a25.91,25.91,0,0,1-14.49-5.93l-49-44.14-34.6-31.15a5.58,5.58,0,0,1-2-3.66,4.74,4.74,0,0,1,0-1.19,5.6,5.6,0,0,1,2-3.61l29.78-26.82,5.95-5.36,47.9-43.12a26,26,0,0,1,14.49-5.92c.76-.07,1.54-.11,2.31-.11h65.56c.77,0,1.55,0,2.31.11a26,26,0,0,1,14.5,5.92l48.42,43.6,35.2,31.7h0a5.48,5.48,0,0,1,2,3.62A4.58,4.58,0,0,1,3238,1448.28Z"/><path class="cls-94" d="M3238.36,1448.62a6,6,0,0,1-2,3.94l-13.8,12.32-.25.06c-25.83,6.06-71.77,8.65-125.12,3.09-.2,0-105.85-9.13-127.91-24.22l35.82-32.26,23-20.53c18.35,20.77,55.74,44.66,78.46,53.66,43.41,17.19,89.55,14.63,114,7.14,6.61-2,11.93-4.71,15.83-8a.71.71,0,0,0,.11-.17,6,6,0,0,1,1.87,3.8A5.72,5.72,0,0,1,3238.36,1448.62Z"/></g><g class="cls-12"><path class="cls-95" d="M2652.82,1448.28a5.58,5.58,0,0,1-2,3.66l-14,12.62-20.65,18.6-49,44.07a25.94,25.94,0,0,1-14.49,5.93c-.77.07-1.54.11-2.31.11h-65.56c-.77,0-1.55,0-2.31-.11a26,26,0,0,1-14.5-5.93l-49-44.14-34.6-31.15a5.49,5.49,0,0,1-2-3.66,4.74,4.74,0,0,1,0-1.19,5.51,5.51,0,0,1,2-3.61l29.78-26.82,6-5.36,47.89-43.12a26,26,0,0,1,14.5-5.92c.76-.07,1.54-.11,2.31-.11h65.56c.77,0,1.54,0,2.31.11a26,26,0,0,1,14.49,5.92l48.42,43.6,35.21,31.7h0a5.54,5.54,0,0,1,2,3.62A4.58,4.58,0,0,1,2652.82,1448.28Z"/><path class="cls-96" d="M2653.15,1448.62a5.92,5.92,0,0,1-2,3.94l-13.8,12.32-.25.06c-25.83,6.06-71.78,8.65-125.12,3.09-.2,0-105.85-9.13-127.91-24.22l35.82-32.26,23-20.53c18.35,20.77,55.74,44.66,78.45,53.66,43.42,17.19,89.56,14.63,114,7.14,6.61-2,11.93-4.71,15.83-8a.48.48,0,0,0,.1-.17,5.93,5.93,0,0,1,1.87,3.8A4.58,4.58,0,0,1,2653.15,1448.62Z"/></g><g class="cls-12"><path class="cls-97" d="M2652.82,1277.17a5.58,5.58,0,0,1-2,3.66l-14,12.62-20.65,18.6-49,44.07a25.94,25.94,0,0,1-14.49,5.93c-.77.07-1.54.11-2.31.11h-65.56c-.77,0-1.55,0-2.31-.11a26,26,0,0,1-14.5-5.93L2419,1312l-34.6-31.15a5.49,5.49,0,0,1-2-3.66,4.74,4.74,0,0,1,0-1.19,5.51,5.51,0,0,1,2-3.61l29.78-26.82,6-5.36,47.89-43.12a26,26,0,0,1,14.5-5.92c.76-.07,1.54-.11,2.31-.11h65.56c.77,0,1.54,0,2.31.11a26,26,0,0,1,14.49,5.92l48.42,43.6,35.21,31.7h0a5.54,5.54,0,0,1,2,3.62A4.58,4.58,0,0,1,2652.82,1277.17Z"/><path class="cls-98" d="M2653.15,1277.09a5.92,5.92,0,0,1-2,3.94l-13.8,12.32-.25.05c-25.83,6.07-71.78,8.66-125.12,3.1-.2,0-105.85-9.13-127.91-24.22l35.82-32.26,23-20.53c18.35,20.77,55.74,44.66,78.45,53.65,43.42,17.2,89.56,14.64,114,7.14,6.61-2,11.93-4.71,15.83-8,.05,0,.07-.12.1-.17a5.93,5.93,0,0,1,1.87,3.8A4.58,4.58,0,0,1,2653.15,1277.09Z"/></g><g class="cls-12"><path class="cls-99" d="M2652.82,395.35a5.58,5.58,0,0,1-2,3.66l-14,12.62-20.65,18.6-49,44.07a26.08,26.08,0,0,1-14.49,5.93c-.77.07-1.54.1-2.31.1h-65.56c-.77,0-1.55,0-2.31-.1a26.12,26.12,0,0,1-14.5-5.93l-49-44.14L2384.42,399a5.49,5.49,0,0,1-2-3.66,4.74,4.74,0,0,1,0-1.19,5.51,5.51,0,0,1,2-3.61l29.78-26.82,6-5.36L2468,315.25a26.12,26.12,0,0,1,14.5-5.93c.76-.06,1.54-.1,2.31-.1h65.56c.77,0,1.54,0,2.31.1a26.08,26.08,0,0,1,14.49,5.93l48.42,43.6,35.21,31.7h0a5.54,5.54,0,0,1,2,3.62A4.58,4.58,0,0,1,2652.82,395.35Z"/><path class="cls-100" d="M2653.15,395.58a5.92,5.92,0,0,1-2,3.94l-13.8,12.32-.25.05c-25.83,6.07-71.78,8.66-125.12,3.1-.2,0-105.85-9.13-127.91-24.22l35.82-32.26,23-20.53c18.35,20.77,55.74,44.66,78.45,53.66,43.42,17.19,89.56,14.63,114,7.14,6.61-2,11.93-4.71,15.83-8a.48.48,0,0,0,.1-.17,5.93,5.93,0,0,1,1.87,3.8A4.58,4.58,0,0,1,2653.15,395.58Z"/></g><g class="cls-12"><path class="cls-101" d="M3238,395.38a5.49,5.49,0,0,1-2,3.65l-14,12.62-20.65,18.6-48.95,44.08a26.12,26.12,0,0,1-14.5,5.93c-.76.06-1.54.1-2.31.1h-65.56c-.77,0-1.55,0-2.31-.1a26.06,26.06,0,0,1-14.49-5.93l-49-44.14L2969.62,399a5.58,5.58,0,0,1-2-3.65,4.82,4.82,0,0,1,0-1.2,5.6,5.6,0,0,1,2-3.61l29.78-26.82,5.95-5.36,47.9-43.11a26,26,0,0,1,14.49-5.93c.76-.07,1.54-.1,2.31-.1h65.56c.77,0,1.55,0,2.31.1a26,26,0,0,1,14.5,5.93l48.42,43.59,35.2,31.7,0,0a5.44,5.44,0,0,1,2,3.61A4.66,4.66,0,0,1,3238,395.38Z"/><path class="cls-102" d="M3238.36,395.57a6,6,0,0,1-2,3.93l-13.8,12.32-.25.06c-25.83,6.07-71.77,8.65-125.12,3.09-.2,0-105.85-9.13-127.91-24.22l35.82-32.26,23-20.52c18.35,20.77,55.74,44.65,78.46,53.65,43.41,17.19,89.55,14.63,114,7.14,6.61-2,11.93-4.71,15.83-8a.71.71,0,0,0,.11-.17,6,6,0,0,1,1.87,3.8A5.82,5.82,0,0,1,3238.36,395.57Z"/></g><g class="cls-12"><path class="cls-103" d="M2350.52,395.38a5.49,5.49,0,0,1-2,3.65l-14,12.62-20.65,18.6-48.95,44.08a26.12,26.12,0,0,1-14.5,5.93c-.76.06-1.54.1-2.31.1h-65.56c-.77,0-1.54,0-2.31-.1a26.06,26.06,0,0,1-14.49-5.93l-49-44.14L2082.12,399a5.58,5.58,0,0,1-2-3.65,4.82,4.82,0,0,1,0-1.2,5.6,5.6,0,0,1,2-3.61l29.78-26.82,5.95-5.36,47.9-43.11a26,26,0,0,1,14.49-5.93c.77-.07,1.54-.1,2.31-.1h65.56c.77,0,1.55,0,2.31.1a26,26,0,0,1,14.5,5.93l48.42,43.59,35.2,31.7,0,0a5.44,5.44,0,0,1,2,3.61A4.66,4.66,0,0,1,2350.52,395.38Z"/><path class="cls-104" d="M2350.86,395.57a6,6,0,0,1-2,3.93l-13.8,12.32-.25.06C2309,418,2263.05,420.53,2209.7,415c-.2,0-105.85-9.13-127.91-24.22l35.82-32.26,23-20.52c18.35,20.77,55.74,44.65,78.46,53.65,43.41,17.19,89.55,14.63,114,7.14,6.61-2,11.93-4.71,15.83-8a.71.71,0,0,0,.11-.17,6,6,0,0,1,1.87,3.8A5.82,5.82,0,0,1,2350.86,395.57Z"/></g><g class="cls-12"><path class="cls-105" d="M2350.52,934.76a5.49,5.49,0,0,1-2,3.65l-14,12.62-20.65,18.61-48.95,44.07a26.12,26.12,0,0,1-14.5,5.93c-.76.07-1.54.1-2.31.1h-65.56c-.77,0-1.54,0-2.31-.1a26.06,26.06,0,0,1-14.49-5.93l-49-44.14-34.6-31.16a5.58,5.58,0,0,1-2-3.65,4.82,4.82,0,0,1,0-1.2,5.58,5.58,0,0,1,2-3.6l29.78-26.82,5.95-5.36,47.9-43.12a26.06,26.06,0,0,1,14.49-5.93c.77-.07,1.54-.1,2.31-.1h65.56c.77,0,1.55,0,2.31.1a26.12,26.12,0,0,1,14.5,5.93l48.42,43.59,35.2,31.71h0a5.46,5.46,0,0,1,2,3.62A4.58,4.58,0,0,1,2350.52,934.76Z"/><path class="cls-106" d="M2350.86,935a6,6,0,0,1-2,3.93l-13.8,12.32a1.83,1.83,0,0,1-.25.06c-25.83,6.07-71.77,8.65-125.12,3.1-.2,0-105.85-9.13-127.91-24.23l35.82-32.26,23-20.52C2159,898.13,2196.35,922,2219.07,931c43.41,17.19,89.55,14.64,114,7.14,6.61-2,11.93-4.71,15.83-8a.71.71,0,0,0,.11-.17,6,6,0,0,1,1.87,3.8A5.82,5.82,0,0,1,2350.86,935Z"/></g><g class="cls-12"><path class="cls-107" d="M2350.52,1448.28a5.49,5.49,0,0,1-2,3.66l-14,12.62-20.65,18.6-48.95,44.07a26,26,0,0,1-14.5,5.93c-.76.07-1.54.11-2.31.11h-65.56c-.77,0-1.54,0-2.31-.11a25.91,25.91,0,0,1-14.49-5.93l-49-44.14-34.6-31.15a5.58,5.58,0,0,1-2-3.66,4.74,4.74,0,0,1,0-1.19,5.6,5.6,0,0,1,2-3.61l29.78-26.82,5.95-5.36,47.9-43.12a26,26,0,0,1,14.49-5.92c.77-.07,1.54-.11,2.31-.11h65.56c.77,0,1.55,0,2.31.11a26,26,0,0,1,14.5,5.92l48.42,43.6,35.2,31.7h0a5.48,5.48,0,0,1,2,3.62A4.58,4.58,0,0,1,2350.52,1448.28Z"/><path class="cls-108" d="M2350.86,1448.62a6,6,0,0,1-2,3.94l-13.8,12.32-.25.06c-25.83,6.06-71.77,8.65-125.12,3.09-.2,0-105.85-9.13-127.91-24.22l35.82-32.26,23-20.53c18.35,20.77,55.74,44.66,78.46,53.66,43.41,17.19,89.55,14.63,114,7.14,6.61-2,11.93-4.71,15.83-8a.71.71,0,0,0,.11-.17,6,6,0,0,1,1.87,3.8A5.72,5.72,0,0,1,2350.86,1448.62Z"/></g><g class="cls-12"><path class="cls-109" d="M2350.52,1277.17a5.49,5.49,0,0,1-2,3.66l-14,12.62-20.65,18.6-48.95,44.07a26,26,0,0,1-14.5,5.93c-.76.07-1.54.11-2.31.11h-65.56c-.77,0-1.54,0-2.31-.11a25.91,25.91,0,0,1-14.49-5.93l-49-44.14-34.6-31.15a5.58,5.58,0,0,1-2-3.66,4.74,4.74,0,0,1,0-1.19,5.6,5.6,0,0,1,2-3.61l29.78-26.82,5.95-5.36,47.9-43.12a26,26,0,0,1,14.49-5.92c.77-.07,1.54-.11,2.31-.11h65.56c.77,0,1.55,0,2.31.11a26,26,0,0,1,14.5,5.92l48.42,43.6,35.2,31.7h0a5.48,5.48,0,0,1,2,3.62A4.58,4.58,0,0,1,2350.52,1277.17Z"/><path class="cls-110" d="M2350.86,1277.09a6,6,0,0,1-2,3.94l-13.8,12.32-.25.05c-25.83,6.07-71.77,8.66-125.12,3.1-.2,0-105.85-9.13-127.91-24.22l35.82-32.26,23-20.53c18.35,20.77,55.74,44.66,78.46,53.65,43.41,17.2,89.55,14.64,114,7.14,6.61-2,11.93-4.71,15.83-8,0,0,.07-.12.11-.17a6,6,0,0,1,1.87,3.8A5.72,5.72,0,0,1,2350.86,1277.09Z"/></g><g class="cls-12"><path class="cls-111" d="M2350.52,1106.06a5.47,5.47,0,0,1-2,3.65l-14,12.62-20.65,18.61L2264.92,1185a26.12,26.12,0,0,1-14.5,5.93c-.76.07-1.54.1-2.31.1h-65.56c-.77,0-1.54,0-2.31-.1a26.06,26.06,0,0,1-14.49-5.93l-49-44.14-34.6-31.16a5.55,5.55,0,0,1-2-3.65,4.74,4.74,0,0,1,0-1.19,5.57,5.57,0,0,1,2-3.61l29.78-26.82,5.95-5.36,47.9-43.12a26.06,26.06,0,0,1,14.49-5.93c.77-.07,1.54-.1,2.31-.1h65.56c.77,0,1.55,0,2.31.1a26.12,26.12,0,0,1,14.5,5.93l48.42,43.6,35.2,31.7h0a5.48,5.48,0,0,1,2,3.62A4.58,4.58,0,0,1,2350.52,1106.06Z"/><path class="cls-112" d="M2350.86,1105.56a6,6,0,0,1-2,3.93l-13.8,12.32-.25.06c-25.83,6.07-71.77,8.65-125.12,3.09-.2,0-105.85-9.13-127.91-24.22l35.82-32.26,23-20.52c18.35,20.77,55.74,44.65,78.46,53.65,43.41,17.19,89.55,14.63,114,7.14,6.61-2,11.93-4.71,15.83-8a.71.71,0,0,0,.11-.17,6,6,0,0,1,1.87,3.8A5.82,5.82,0,0,1,2350.86,1105.56Z"/></g><g class="cls-12"><path class="cls-113" d="M2652.82,935a5.58,5.58,0,0,1-2,3.65l-14,12.62-20.65,18.6-49,44.08a26,26,0,0,1-14.49,5.92c-.77.07-1.54.11-2.31.11h-65.56c-.77,0-1.55,0-2.31-.11A26,26,0,0,1,2468,1014l-49-44.14-34.6-31.16a5.49,5.49,0,0,1-2-3.65,4.82,4.82,0,0,1,0-1.2,5.51,5.51,0,0,1,2-3.61l29.78-26.82,6-5.36L2468,854.92a26,26,0,0,1,14.5-5.93c.76-.07,1.54-.1,2.31-.1h65.56c.77,0,1.54,0,2.31.1a26,26,0,0,1,14.49,5.93l48.42,43.59,35.21,31.7v0a5.49,5.49,0,0,1,2,3.61A4.66,4.66,0,0,1,2652.82,935Z"/><path class="cls-114" d="M2653.15,935.21a5.92,5.92,0,0,1-2,3.94l-13.8,12.32-.25.06c-25.83,6.06-71.78,8.65-125.12,3.09-.2,0-105.85-9.13-127.91-24.22l35.82-32.26,23-20.53c18.35,20.77,55.74,44.66,78.45,53.66,43.42,17.19,89.56,14.63,114,7.14,6.61-2,11.93-4.71,15.83-8a.48.48,0,0,0,.1-.17,6,6,0,0,1,1.87,3.8A4.58,4.58,0,0,1,2653.15,935.21Z"/></g><g class="cls-12"><path class="cls-115" d="M2652.82,1106.06a5.55,5.55,0,0,1-2,3.65l-14,12.62-20.65,18.61-49,44.07a26.08,26.08,0,0,1-14.49,5.93c-.77.07-1.54.1-2.31.1h-65.56c-.77,0-1.55,0-2.31-.1A26.12,26.12,0,0,1,2468,1185l-49-44.14-34.6-31.16a5.47,5.47,0,0,1-2-3.65,4.74,4.74,0,0,1,0-1.19,5.49,5.49,0,0,1,2-3.61l29.78-26.82,6-5.36L2468,1026a26.12,26.12,0,0,1,14.5-5.93c.76-.07,1.54-.1,2.31-.1h65.56c.77,0,1.54,0,2.31.1a26.08,26.08,0,0,1,14.49,5.93l48.42,43.6,35.21,31.7h0a5.54,5.54,0,0,1,2,3.62A4.58,4.58,0,0,1,2652.82,1106.06Z"/><path class="cls-116" d="M2653.15,1105.54a5.9,5.9,0,0,1-2,3.93l-13.8,12.32a1.83,1.83,0,0,1-.25.06c-25.83,6.07-71.78,8.66-125.12,3.1-.2,0-105.85-9.13-127.91-24.22l35.82-32.27,23-20.52c18.35,20.77,55.74,44.65,78.45,53.65,43.42,17.2,89.56,14.64,114,7.14,6.61-2,11.93-4.71,15.83-8a.75.75,0,0,0,.1-.17,5.9,5.9,0,0,1,1.87,3.79A4.66,4.66,0,0,1,2653.15,1105.54Z"/></g><g class="cls-12"><path class="cls-117" d="M2947.13,1448.28a5.49,5.49,0,0,1-2,3.66l-14,12.62-20.65,18.6-48.95,44.07a26,26,0,0,1-14.5,5.93c-.76.07-1.54.11-2.31.11h-65.56c-.77,0-1.55,0-2.31-.11a26,26,0,0,1-14.5-5.93l-49-44.14-34.6-31.15a5.58,5.58,0,0,1-2-3.66,4.74,4.74,0,0,1,0-1.19,5.6,5.6,0,0,1,2-3.61l29.78-26.82,5.95-5.36,47.89-43.12a26,26,0,0,1,14.5-5.92c.76-.07,1.54-.11,2.31-.11h65.56c.77,0,1.55,0,2.31.11a26,26,0,0,1,14.5,5.92l48.42,43.6,35.2,31.7h0a5.45,5.45,0,0,1,2,3.62A4.58,4.58,0,0,1,2947.13,1448.28Z"/><path class="cls-118" d="M2947.47,1448.62a6,6,0,0,1-2,3.94l-13.8,12.32-.25.06c-25.83,6.06-71.77,8.65-125.12,3.09-.2,0-105.85-9.13-127.91-24.22l35.82-32.26,23-20.53c18.35,20.77,55.74,44.66,78.46,53.66,43.41,17.19,89.55,14.63,114,7.14,6.61-2,11.93-4.71,15.83-8a.71.71,0,0,0,.11-.17,6,6,0,0,1,1.87,3.8A5.72,5.72,0,0,1,2947.47,1448.62Z"/></g><g class="cls-12"><path class="cls-119" d="M2947.13,1277.17a5.49,5.49,0,0,1-2,3.66l-14,12.62-20.65,18.6-48.95,44.07a26.12,26.12,0,0,1-14.5,5.93c-.76.07-1.54.1-2.31.1h-65.56c-.77,0-1.55,0-2.31-.1a26.12,26.12,0,0,1-14.5-5.93l-49-44.14-34.6-31.15a5.58,5.58,0,0,1-2-3.66,4.74,4.74,0,0,1,0-1.19,5.6,5.6,0,0,1,2-3.61l29.78-26.82,5.95-5.36,47.89-43.12a26.12,26.12,0,0,1,14.5-5.93c.76-.06,1.54-.1,2.31-.1h65.56c.77,0,1.55,0,2.31.1a26.12,26.12,0,0,1,14.5,5.93l48.42,43.6,35.2,31.7h0a5.45,5.45,0,0,1,2,3.62A4.58,4.58,0,0,1,2947.13,1277.17Z"/><path class="cls-120" d="M2947.47,1277.09a6,6,0,0,1-2,3.94l-13.8,12.32-.25.05c-25.83,6.07-71.77,8.66-125.12,3.1-.2,0-105.85-9.13-127.91-24.22l35.82-32.26,23-20.53c18.35,20.77,55.74,44.66,78.46,53.65,43.41,17.2,89.55,14.64,114,7.14,6.61-2,11.93-4.71,15.83-8,.05,0,.07-.12.11-.17a6,6,0,0,1,1.87,3.8A5.72,5.72,0,0,1,2947.47,1277.09Z"/></g><g class="cls-12"><path class="cls-121" d="M2947.13,1106.06a5.47,5.47,0,0,1-2,3.65l-14,12.62-20.65,18.61L2861.53,1185a26.12,26.12,0,0,1-14.5,5.93c-.76.07-1.54.1-2.31.1h-65.56c-.77,0-1.55,0-2.31-.1a26.12,26.12,0,0,1-14.5-5.93l-49-44.14-34.6-31.16a5.55,5.55,0,0,1-2-3.65,4.74,4.74,0,0,1,0-1.19,5.57,5.57,0,0,1,2-3.61l29.78-26.82,5.95-5.36,47.89-43.12a26.12,26.12,0,0,1,14.5-5.93c.76-.07,1.54-.1,2.31-.1h65.56c.77,0,1.55,0,2.31.1a26.12,26.12,0,0,1,14.5,5.93l48.42,43.6,35.2,31.7h0a5.45,5.45,0,0,1,2,3.62A4.58,4.58,0,0,1,2947.13,1106.06Z"/><path class="cls-122" d="M2947.47,1105.56a6,6,0,0,1-2,3.93l-13.8,12.32a1.83,1.83,0,0,1-.25.06c-25.83,6.07-71.77,8.65-125.12,3.1-.2,0-105.85-9.14-127.91-24.23l35.82-32.26,23-20.52c18.35,20.77,55.74,44.65,78.46,53.65,43.41,17.19,89.55,14.64,114,7.14,6.61-2,11.93-4.71,15.83-8a.71.71,0,0,0,.11-.17,6,6,0,0,1,1.87,3.8A5.82,5.82,0,0,1,2947.47,1105.56Z"/></g><g class="cls-12"><path class="cls-123" d="M2947.13,934.74a5.49,5.49,0,0,1-2,3.66l-14,12.61-20.65,18.61-48.95,44.07a26.12,26.12,0,0,1-14.5,5.93c-.76.07-1.54.1-2.31.1h-65.56c-.77,0-1.55,0-2.31-.1a26.12,26.12,0,0,1-14.5-5.93l-49-44.14-34.6-31.15a5.58,5.58,0,0,1-2-3.66,4.74,4.74,0,0,1,0-1.19,5.6,5.6,0,0,1,2-3.61l29.78-26.82,5.95-5.36,47.89-43.12a26.12,26.12,0,0,1,14.5-5.93c.76-.06,1.54-.1,2.31-.1h65.56c.77,0,1.55,0,2.31.1a26.12,26.12,0,0,1,14.5,5.93l48.42,43.6,35.2,31.7h0a5.45,5.45,0,0,1,2,3.62A4.58,4.58,0,0,1,2947.13,934.74Z"/><path class="cls-124" d="M2947.47,935a6,6,0,0,1-2,3.93l-13.8,12.32a1.83,1.83,0,0,1-.25.06c-25.83,6.07-71.77,8.65-125.12,3.1-.2,0-105.85-9.13-127.91-24.23l35.82-32.26,23-20.52C2755.57,898.13,2793,922,2815.68,931c43.41,17.19,89.55,14.64,114,7.14,6.61-2,11.93-4.71,15.83-8a.71.71,0,0,0,.11-.17,6,6,0,0,1,1.87,3.8A5.82,5.82,0,0,1,2947.47,935Z"/></g><path class="cls-125" d="M1953.07,247.91V1595.13H3671V247.91ZM3596.88,1537H2026.07V675.43h1570.7V642.34H2026.07V306.09H3596.88Z"/><path class="cls-64" d="M3378.6,513.3h51.3v10.46h-39.26l-5.1,18.26.29.2a22.39,22.39,0,0,1,8.29-4.05,37.59,37.59,0,0,1,10-1.38,44.89,44.89,0,0,1,13.18,1.79,29,29,0,0,1,9.78,5,21.49,21.49,0,0,1,6,7.64,22.31,22.31,0,0,1,2.06,9.54,22.79,22.79,0,0,1-1.92,8.87,23.11,23.11,0,0,1-6.09,8.31,33.09,33.09,0,0,1-10.7,6.16,45.24,45.24,0,0,1-15.59,2.41,60.56,60.56,0,0,1-13.39-1.39,37,37,0,0,1-10.85-4.15,23.24,23.24,0,0,1-7.44-6.82,18.09,18.09,0,0,1-3-9.49h16.15a11.87,11.87,0,0,0,5.53,9q4.82,3.14,12.75,3.13a26.53,26.53,0,0,0,8.65-1.23,15.28,15.28,0,0,0,5.74-3.38,12.26,12.26,0,0,0,3.12-5A20.1,20.1,0,0,0,3419,561a14.79,14.79,0,0,0-1.13-5.7,13.39,13.39,0,0,0-3.41-4.77,16.72,16.72,0,0,0-5.88-3.28,26.18,26.18,0,0,0-8.43-1.23,32.28,32.28,0,0,0-9.57,1.38,10.48,10.48,0,0,0-6.45,5.18H3368Z"/><path class="cls-64" d="M3368.68,722.52a78.41,78.41,0,0,0,9.92-.61,39.59,39.59,0,0,0,8.71-2.06,22.65,22.65,0,0,0,6.66-3.69,10.35,10.35,0,0,0,3.62-5.54h13.18v71.81h-17.72V731.75h-24.37Z"/><path class="cls-64" d="M3368.68,893a78.41,78.41,0,0,0,9.92-.61,40.17,40.17,0,0,0,8.71-2,22.89,22.89,0,0,0,6.66-3.7,10.35,10.35,0,0,0,3.62-5.54h13.18v71.81h-17.72V902.24h-24.37Z"/><path class="cls-64" d="M3368.68,1064.38a78.39,78.39,0,0,0,9.92-.62,39.6,39.6,0,0,0,8.71-2A23.11,23.11,0,0,0,3394,1058a10.35,10.35,0,0,0,3.62-5.54h13.18v71.8h-17.72v-50.67h-24.37Z"/><path class="cls-1" d="M3400.57,1797a82,82,0,0,1-19.06-2.1,50.53,50.53,0,0,1-15.18-6.09,30.43,30.43,0,0,1-10-9.73,23.82,23.82,0,0,1-3.58-12.88,20.52,20.52,0,0,1,6.67-15.54q6.67-6.3,18.09-8.4V1742q-9.28-2.52-14.22-7.77a17.49,17.49,0,0,1-4.93-12.39q0-12.6,10.93-19.67t31.24-7.07q20.31,0,31.23,7.07t10.93,19.67a17.49,17.49,0,0,1-4.93,12.39q-4.93,5.25-14.22,7.77v.28q11.41,2.1,18.09,8.4a20.52,20.52,0,0,1,6.67,15.54,23.82,23.82,0,0,1-3.58,12.88,30.43,30.43,0,0,1-10,9.73,50.63,50.63,0,0,1-15.18,6.09A82,82,0,0,1,3400.57,1797Zm0-12.6q11,0,18.37-4.76a15.12,15.12,0,0,0,7.35-13.44q0-8.12-7.35-12.67t-18.37-4.55q-11,0-18.38,4.55t-7.35,12.67a15.12,15.12,0,0,0,7.35,13.44Q3389.54,1784.4,3400.57,1784.39Zm0-76.72q-8.91,0-15.09,3.85a12.34,12.34,0,0,0-6.19,11.13,11.86,11.86,0,0,0,6,10.71q6,3.71,15.28,3.71t15.28-3.71a11.87,11.87,0,0,0,6-10.71,12.34,12.34,0,0,0-6.19-11.13Q3409.46,1707.67,3400.57,1707.67Z"/><path class="cls-1" d="M3227,1752.61h-97.49v-14.28H3227Zm0,28.28h-97.49v-14.28H3227Z"/><path class="cls-1" d="M2802.38,90.65a70.2,70.2,0,0,0,10.83-.56,38.32,38.32,0,0,0,9.67-2.45,17.61,17.61,0,0,0,6.87-4.83,11.28,11.28,0,0,0,2.61-7.56q0-6.3-5.9-10.08t-15.19-3.78a27.29,27.29,0,0,0-10.05,1.68,19.88,19.88,0,0,0-7.06,4.55,18.51,18.51,0,0,0-4.16,6.44,17.79,17.79,0,0,0-1.16,7.35h-22.05a30.94,30.94,0,0,1,3.67-13.23,33.69,33.69,0,0,1,9-10.57,42.43,42.43,0,0,1,13.83-7,61.86,61.86,0,0,1,18.37-2.52,72.24,72.24,0,0,1,15.57,1.68,54.23,54.23,0,0,1,13.74,4.9,28.47,28.47,0,0,1,9.76,8.19,18.69,18.69,0,0,1,3.68,11.41,19.54,19.54,0,0,1-4.64,13q-4.65,5.53-14.51,8v.28q11.61,1.68,18.09,8.33a22.33,22.33,0,0,1,6.47,16.17,21.39,21.39,0,0,1-3.86,12.53,32.64,32.64,0,0,1-10.45,9.38,56,56,0,0,1-15.28,5.95,78.1,78.1,0,0,1-18.37,2.1,77.32,77.32,0,0,1-20.6-2.45,43.2,43.2,0,0,1-14.71-6.93,30.11,30.11,0,0,1-9-10.78,33.33,33.33,0,0,1-3.29-14h22.05a18.22,18.22,0,0,0,6.1,14.91q6.47,6,19.44,6,11,0,18.47-4.55t7.44-13q0-5.74-3.09-9.1a19.6,19.6,0,0,0-8.12-5.11,43.1,43.1,0,0,0-11.32-2.17q-6.28-.42-12.86-.28Z"/></g></svg>