<svg xmlns="http://www.w3.org/2000/svg" xmlns:xlink="http://www.w3.org/1999/xlink" viewBox="0 0 900 900"><defs><style>.cls-1{fill:url(#linear-gradient);}</style><linearGradient id="linear-gradient" x1="279.62" y1="450" x2="620.38" y2="450" gradientUnits="userSpaceOnUse"><stop offset="0" stop-color="#f5e2ba"/><stop offset="1" stop-color="#eece8c"/></linearGradient></defs><title>Artboard 1 copy</title><g id="numbers_epanded"><path class="cls-1" d="M302.61,602.2q20.92-49.76,98.83-105.36Q469,448.45,489,427.52q30.54-32.59,30.54-71.38,0-31.56-17.5-52.5t-50.1-20.94q-44.62,0-60.74,33.29-9.27,19.23-11,61.09H285.11q2.38-63.49,23-102.61Q347.29,200,447.25,200q79,0,125.73,43.75T619.7,359.57q0,55.26-33,98.15Q565,486.2,515.52,521.21L476.32,549Q439.54,575.09,426,586.75a110.52,110.52,0,0,0-22.82,27.11H620.38V700H279.62Q281,646.46,302.61,602.2Z"/></g></svg>