<svg xmlns="http://www.w3.org/2000/svg" xmlns:xlink="http://www.w3.org/1999/xlink" viewBox="0 0 900 900"><defs><style>.cls-1{fill:url(#linear-gradient);}</style><linearGradient id="linear-gradient" x1="282.22" y1="450" x2="617.78" y2="450" gradientUnits="userSpaceOnUse"><stop offset="0" stop-color="#f5e2ba"/><stop offset="1" stop-color="#eece8c"/></linearGradient></defs><title>Artboard 1 copy 2</title><g id="numbers_epanded"><path class="cls-1" d="M376,538.91q0,29.15,9.35,48.23,17.37,35.16,63.15,35.16,28.06,0,48.94-19.25t20.89-55.43q0-47.88-38.73-64-22-9-69.44-9.05V406.3q46.38-.68,64.74-9.05,31.71-14.06,31.71-56.93,0-27.79-16.2-45.21T444.8,277.7q-33.74,0-49.6,21.43T380,356.4H290.92a239.7,239.7,0,0,1,12.38-68.66q11.71-28.46,36.8-52.58A128.31,128.31,0,0,1,384.59,209q25.76-9,63.23-9,69.58,0,112.24,36t42.65,96.62q0,42.87-25.45,72.34-16.08,18.42-33.49,25.11,13.07,0,37.51,22.44,36.5,33.84,36.5,92.43,0,61.63-42.65,108.34T448.83,700q-103,0-143.19-67.31-21.09-35.84-23.42-93.78Z"/></g></svg>