<svg xmlns="http://www.w3.org/2000/svg" xmlns:xlink="http://www.w3.org/1999/xlink" viewBox="0 0 400 400"><defs><style>.cls-1{fill:url(#linear-gradient);}.cls-2{fill:#fff;}</style><linearGradient id="linear-gradient" y1="200" x2="400" y2="200" gradientUnits="userSpaceOnUse"><stop offset="0" stop-color="#edce8c"/><stop offset="0.01" stop-color="#edcf8e"/><stop offset="0.14" stop-color="#f3ddae"/><stop offset="0.21" stop-color="#f5e2ba"/><stop offset="0.29" stop-color="#f4e0b6"/><stop offset="0.37" stop-color="#f2dbaa"/><stop offset="0.45" stop-color="#efd397"/><stop offset="0.48" stop-color="#edce8c"/><stop offset="0.91" stop-color="#93785f"/><stop offset="1" stop-color="#93785f"/></linearGradient></defs><title>goldtarget</title><g id="artboard2"><g id="difficulty_copy_3" data-name="difficulty copy 3"><circle class="cls-1" cx="200" cy="200" r="200"/><path class="cls-2" d="M200,385c-4.42,0-8-4.69-8-10.47V25.47c0-5.78,3.58-10.47,8-10.47s8,4.69,8,10.47V374.53C208,380.31,204.42,385,200,385Z"/><path class="cls-2" d="M374.53,208H25.47C19.69,208,15,204.42,15,200s4.69-8,10.47-8H374.53c5.78,0,10.47,3.58,10.47,8S380.31,208,374.53,208Z"/><path class="cls-2" d="M200,58A142,142,0,1,1,99.59,99.59,141.07,141.07,0,0,1,200,58m0-8A150,150,0,1,0,350,200,150,150,0,0,0,200,50Z"/><path class="cls-2" d="M200,116a84,84,0,1,1-84,84,84.09,84.09,0,0,1,84-84m0-8a92,92,0,1,0,92,92,92,92,0,0,0-92-92Z"/><circle class="cls-2" cx="200" cy="200" r="34"/></g></g></svg>