<svg xmlns="http://www.w3.org/2000/svg" xmlns:xlink="http://www.w3.org/1999/xlink" viewBox="0 0 400 400"><defs><style>.cls-1{fill:url(#linear-gradient);}</style><linearGradient id="linear-gradient" y1="151.73" x2="400" y2="151.73" gradientUnits="userSpaceOnUse"><stop offset="0" stop-color="#edce8c"/><stop offset="0.01" stop-color="#edcf8e"/><stop offset="0.14" stop-color="#f3ddae"/><stop offset="0.21" stop-color="#f5e2ba"/><stop offset="0.29" stop-color="#f4e0b6"/><stop offset="0.37" stop-color="#f2dbaa"/><stop offset="0.45" stop-color="#efd397"/><stop offset="0.48" stop-color="#edce8c"/><stop offset="0.91" stop-color="#93785f"/><stop offset="1" stop-color="#93785f"/></linearGradient></defs><title>golddifficulty</title><g id="artboard2"><g id="difficulty_copy_3" data-name="difficulty copy 3"><path class="cls-1" d="M200,0C89.54,0,0,89.54,0,200a199,199,0,0,0,24.81,96.53q1.94,3.51,4,6.93l50.23-29,43.35-25,7-4c-1.45-2.23-2.78-4.54-4-6.92a83.67,83.67,0,0,1-5.12-64.8L185,220a25,25,0,1,0,21.06-44.27l-77.27-20.26a84,84,0,0,1,145.82,83c-1.23,2.38-2.56,4.69-4,6.92l7,4,43.35,25,50.23,29q2.07-3.42,4-6.93A199,199,0,0,0,400,200C400,89.54,310.46,0,200,0ZM325,267.54l-43.37-25a92,92,0,0,0-160.92-89.13c-22.43-5.88-40.49-10.6-40.55-10.6a1,1,0,0,0-1,1,1,1,0,0,0,.62.92l33.67,24.1a92.24,92.24,0,0,0,5,73.71L75,267.54a142,142,0,1,1,250,0Z"/></g></g></svg>