<svg xmlns="http://www.w3.org/2000/svg" xmlns:xlink="http://www.w3.org/1999/xlink" viewBox="0 0 676.54 203.95"><defs><style>.cls-1{fill:#133c2a;}.cls-2{fill:url(#linear-gradient);}.cls-3{fill:url(#linear-gradient-2);}.cls-4{fill:url(#linear-gradient-3);}.cls-5{fill:url(#linear-gradient-4);}.cls-6{opacity:0.8;}.cls-7{fill:#996aab;}.cls-8{opacity:0.7;}.cls-9{fill:#ecf8ec;}.cls-10{opacity:0.1;}</style><linearGradient id="linear-gradient" x1="2.48" y1="30.63" x2="674.48" y2="30.63" gradientUnits="userSpaceOnUse"><stop offset="0" stop-color="#267855"/><stop offset="0.5" stop-color="#b1ddb1"/><stop offset="1" stop-color="#ecf8ec"/></linearGradient><linearGradient id="linear-gradient-2" x1="344.9" y1="10.29" x2="349.9" y2="10.29" xlink:href="#linear-gradient"/><linearGradient id="linear-gradient-3" x1="2.48" y1="30.63" x2="674.48" y2="30.63" gradientUnits="userSpaceOnUse"><stop offset="0" stop-color="#133c2a"/><stop offset="0.5" stop-color="#267855"/><stop offset="1" stop-color="#b1ddb1"/></linearGradient><linearGradient id="linear-gradient-4" x1="342.9" y1="10.29" x2="347.9" y2="10.29" xlink:href="#linear-gradient-3"/></defs><title>transparentArtboard 5 copy 2</title><g id="Layer_15" data-name="Layer 15"><path class="cls-1" d="M139,95.19l2.57-11.87q.66-3,1.06-6.3a49.44,49.44,0,0,0,.4-6c0-.43,0-.81,0-1.13l2.26-1v.57c0,.91-.08,2.37-.25,4.38s-.33,3.57-.51,4.65A26.77,26.77,0,0,1,147.68,73a19,19,0,0,1,3.83-4,6.22,6.22,0,0,1,3.57-1.46,3.08,3.08,0,0,1,2.58,1.29,5.53,5.53,0,0,1,1,3.44,13.77,13.77,0,0,1-1.18,5.45,18.9,18.9,0,0,1-3.19,5,16.61,16.61,0,0,1-4.45,3.63A9.9,9.9,0,0,1,145,87.68a6.18,6.18,0,0,1-1.25-.14l1.09-1.46a6.58,6.58,0,0,0,2.06.33,6.18,6.18,0,0,0,3.42-1.14,11.06,11.06,0,0,0,3.07-3.22,18.83,18.83,0,0,0,2.14-4.76,17,17,0,0,0,.89-4.93,5.21,5.21,0,0,0-.59-2.69,1.84,1.84,0,0,0-1.63-1,5.58,5.58,0,0,0-3.42,1.7A21.07,21.07,0,0,0,147,75a22.5,22.5,0,0,0-2.23,4.44,41.34,41.34,0,0,0-1.6,5.53L141,95.19Z"/><path class="cls-1" d="M157.11,89.35a12.63,12.63,0,0,0,2.37-4,2.9,2.9,0,0,1-1.67-2.65,2.15,2.15,0,0,1,.39-1.34,1.2,1.2,0,0,1,2,0,2.55,2.55,0,0,1,.39,1.47,5.17,5.17,0,0,1-.23,1.42,3.88,3.88,0,0,0,1,.14,3,3,0,0,0,2.1-.74h1l-.14.29a39.19,39.19,0,0,0-2.44,5.34,13,13,0,0,0-1,3.92,1.3,1.3,0,0,0,.24.79.76.76,0,0,0,.6.32c.56,0,1.47-.6,2.71-1.79l.33.37A15.22,15.22,0,0,1,163,94.53a3.35,3.35,0,0,1-2,.86,1.58,1.58,0,0,1-1.27-.53,2.2,2.2,0,0,1-.46-1.46,9.28,9.28,0,0,1,1.19-3.91c.29-.59.66-1.26,1.12-2s1-1.65,1.7-2.7l.21-.28a4.51,4.51,0,0,1-1.31.87,3.76,3.76,0,0,1-1.43.26,3.25,3.25,0,0,1-.78-.11,12.61,12.61,0,0,1-2.47,4.16Zm2.82-5.22a5.08,5.08,0,0,0,.08-.87,2.38,2.38,0,0,0-.23-1.13.7.7,0,0,0-.61-.41.45.45,0,0,0-.36.2.76.76,0,0,0-.15.48A2.12,2.12,0,0,0,159.93,84.13Z"/><path class="cls-1" d="M170.33,83.16l-1.8,6.76a10.52,10.52,0,0,0-.46,2.68,2.23,2.23,0,0,0,.23,1.07.68.68,0,0,0,.6.41c.42,0,1.1-.51,2-1.52l.33.28-.21.23a19.23,19.23,0,0,1-1.72,1.86,1.65,1.65,0,0,1-1,.48,1.27,1.27,0,0,1-1.08-.64,2.78,2.78,0,0,1-.44-1.62,12.41,12.41,0,0,1,.24-2l1.3-7.2Zm.6-8.06a1.14,1.14,0,0,1,.86.33,1.27,1.27,0,0,1,0,1.73,1.15,1.15,0,0,1-.84.35,1.18,1.18,0,0,1-.84-.37,1.16,1.16,0,0,1-.37-.85,1.11,1.11,0,0,1,.35-.84A1.18,1.18,0,0,1,170.93,75.1Z"/><path class="cls-1" d="M172.49,95.39,174.67,84l2-.84-1.77,7.55a23,23,0,0,1,3.39-5.47,4.63,4.63,0,0,1,3.23-1.88,1.58,1.58,0,0,1,1.23.51,1.86,1.86,0,0,1,.48,1.35,5.74,5.74,0,0,1-.23,1.33l-.21.87-.61,2.5-.21.81a8.8,8.8,0,0,0-.31,1.89,2.16,2.16,0,0,0,.23,1.06.69.69,0,0,0,.6.4c.42,0,1.1-.51,2-1.52l.33.28-.21.23a19.23,19.23,0,0,1-1.72,1.86,1.65,1.65,0,0,1-1,.48,1.27,1.27,0,0,1-1.08-.64,2.86,2.86,0,0,1-.44-1.62,11.66,11.66,0,0,1,.24-2l.81-4.36a10.42,10.42,0,0,0,.16-1.44.86.86,0,0,0-.23-.66.82.82,0,0,0-.61-.22c-.95,0-2.11,1-3.5,3a19.56,19.56,0,0,0-1.66,2.89,35.45,35.45,0,0,0-1.48,4l-.19.55Z"/><path class="cls-1" d="M189.87,84.21l-1.56,6.85a8.25,8.25,0,0,0-.25,1.6,1.91,1.91,0,0,0,.35,1.19,1.11,1.11,0,0,0,.92.45,1.71,1.71,0,0,0,1-.32,10.16,10.16,0,0,0,1.41-1.32l.25-.25.31.31a13.16,13.16,0,0,1-2,2.09,2.68,2.68,0,0,1-1.59.6,2,2,0,0,1-1.58-.64,2.45,2.45,0,0,1-.58-1.7,11.74,11.74,0,0,1,.31-2.26l1.33-6.6h-2l.14-.7h2L189.48,78l2-.78L190,83.51h3.33l-.14.7Z"/><path class="cls-1" d="M205.08,83l-1.93,7.52a8.9,8.9,0,0,0-.31,1.93,2,2,0,0,0,.27,1.07.77.77,0,0,0,.66.46c.4,0,1-.49,2-1.46l.29.28-.23.27a18.13,18.13,0,0,1-1.67,1.76,1.71,1.71,0,0,1-1,.5,1.38,1.38,0,0,1-1.14-.69,2.69,2.69,0,0,1-.48-1.59,19.22,19.22,0,0,1,.49-3l.16-.78a14.86,14.86,0,0,1-2,3.39Q198,95.44,196,95.44a2.24,2.24,0,0,1-1.85-.85,3.44,3.44,0,0,1-.68-2.26,8.7,8.7,0,0,1,1.1-4,11.28,11.28,0,0,1,2.73-3.49,5,5,0,0,1,3.18-1.36,2.73,2.73,0,0,1,2.43,1.19l.22-.78Zm-2.36,2.63a2.4,2.4,0,0,0-.83-1.23,2.21,2.21,0,0,0-1.35-.44,3.06,3.06,0,0,0-1.91.84,8.12,8.12,0,0,0-1.85,2.31,12.93,12.93,0,0,0-1.1,2.59,8.14,8.14,0,0,0-.45,2.34,2.92,2.92,0,0,0,.41,1.65,1.27,1.27,0,0,0,1.14.59,3.06,3.06,0,0,0,2-.88,10.71,10.71,0,0,0,2-2.53,9.36,9.36,0,0,0,1-1.89,24.43,24.43,0,0,0,.78-2.63Z"/><path class="cls-1" d="M212.61,67.27l2.18-1-5.92,25.35q3.69-8.26,7.26-8.27a2.27,2.27,0,0,1,1.28.38,2.59,2.59,0,0,1,.89,1.12,4,4,0,0,1,.31,1.57,9.5,9.5,0,0,1-.74,3.46A11.32,11.32,0,0,1,216,93.09a5.75,5.75,0,0,1-4.44,2.45,4.24,4.24,0,0,1-1.46-.26,7.46,7.46,0,0,1-1.56-.85l-1.44.86Zm-3.74,25.82A2.88,2.88,0,0,0,211.52,95,3.15,3.15,0,0,0,213.81,94a9.09,9.09,0,0,0,1.88-3.1,15.92,15.92,0,0,0,.79-2.5,10.43,10.43,0,0,0,.3-2.15c0-1.29-.45-1.93-1.35-1.93a3.21,3.21,0,0,0-2.06,1.11,14.08,14.08,0,0,0-2.31,3.1A31.56,31.56,0,0,0,208.87,93.09Z"/><path class="cls-1" d="M228,66.22l-5.41,23.7-.18.81a8.44,8.44,0,0,0-.27,1.91,2,2,0,0,0,.24,1,.68.68,0,0,0,.58.4c.43,0,1.11-.51,2-1.52l.33.28-.21.23a19,19,0,0,1-1.73,1.86,1.63,1.63,0,0,1-1,.48,1.3,1.3,0,0,1-1.08-.68,2.77,2.77,0,0,1-.47-1.58,11.09,11.09,0,0,1,.27-2l4.75-23.93Z"/><path class="cls-1" d="M234.78,92l.37.31a9.75,9.75,0,0,1-2.49,2.44,4.88,4.88,0,0,1-2.61.75,3.45,3.45,0,0,1-2.68-1.11,4.21,4.21,0,0,1-1-2.94,8.19,8.19,0,0,1,1-3.76,10.17,10.17,0,0,1,2.45-3.14,4.54,4.54,0,0,1,2.91-1.25,2,2,0,0,1,1.39.5,1.64,1.64,0,0,1,.54,1.27,4.41,4.41,0,0,1-1.73,3.17,14.39,14.39,0,0,1-4.7,2.69,2.12,2.12,0,0,0,0,.37,3.37,3.37,0,0,0,.78,2.31,2.54,2.54,0,0,0,2,.9,3.26,3.26,0,0,0,1.87-.61A9,9,0,0,0,234.78,92Zm-6.58-1.56a11.1,11.1,0,0,0,3.41-2.2,7.41,7.41,0,0,0,1.29-1.77,3.76,3.76,0,0,0,.5-1.71c0-.64-.3-1-.89-1q-1.33,0-2.7,2.1A10.1,10.1,0,0,0,228.2,90.44Z"/><path class="cls-1" d="M255.46,83l-1.93,7.52a8.32,8.32,0,0,0-.31,1.93,2,2,0,0,0,.27,1.07.74.74,0,0,0,.65.46c.4,0,1.06-.49,2-1.46l.29.28-.23.27a19.22,19.22,0,0,1-1.68,1.76,1.72,1.72,0,0,1-1,.5,1.38,1.38,0,0,1-1.14-.69,2.63,2.63,0,0,1-.49-1.59,19.75,19.75,0,0,1,.5-3l.16-.78a15.28,15.28,0,0,1-2,3.39c-1.42,1.81-2.79,2.72-4.09,2.72a2.26,2.26,0,0,1-1.85-.85,3.5,3.5,0,0,1-.68-2.26,8.82,8.82,0,0,1,1.1-4,11.46,11.46,0,0,1,2.74-3.49,5,5,0,0,1,3.17-1.36,2.71,2.71,0,0,1,2.43,1.19l.23-.78Zm-2.36,2.63a2.47,2.47,0,0,0-.84-1.23,2.2,2.2,0,0,0-1.34-.44,3.08,3.08,0,0,0-1.92.84,8.12,8.12,0,0,0-1.85,2.31,13.54,13.54,0,0,0-1.1,2.59,8.42,8.42,0,0,0-.44,2.34,2.92,2.92,0,0,0,.4,1.65,1.29,1.29,0,0,0,1.14.59,3.11,3.11,0,0,0,2-.88,10.7,10.7,0,0,0,2-2.53,9.42,9.42,0,0,0,1-1.89c.23-.63.49-1.51.78-2.63Z"/><path class="cls-1" d="M263,67.27l2.18-1-5.93,25.35q3.7-8.26,7.26-8.27a2.3,2.3,0,0,1,1.29.38,2.57,2.57,0,0,1,.88,1.12,4,4,0,0,1,.32,1.57,9.72,9.72,0,0,1-.74,3.46,11.55,11.55,0,0,1-1.87,3.26,5.76,5.76,0,0,1-4.44,2.45,4.19,4.19,0,0,1-1.46-.26,7.5,7.5,0,0,1-1.57-.85l-1.43.86Zm-3.75,25.82A2.89,2.89,0,0,0,261.9,95,3.17,3.17,0,0,0,264.19,94a9.41,9.41,0,0,0,1.88-3.1,14.93,14.93,0,0,0,.78-2.5,9.9,9.9,0,0,0,.31-2.15c0-1.29-.45-1.93-1.36-1.93a3.19,3.19,0,0,0-2.05,1.11,14.41,14.41,0,0,0-2.32,3.1A33.77,33.77,0,0,0,259.24,93.09Z"/><path class="cls-1" d="M282.27,83l-1.93,7.52a8.32,8.32,0,0,0-.31,1.93,2,2,0,0,0,.27,1.07A.77.77,0,0,0,281,94c.39,0,1.05-.49,2-1.46l.29.28-.23.27a18.13,18.13,0,0,1-1.67,1.76,1.71,1.71,0,0,1-1,.5,1.38,1.38,0,0,1-1.14-.69,2.7,2.7,0,0,1-.49-1.59,19.75,19.75,0,0,1,.5-3l.16-.78a15.23,15.23,0,0,1-2,3.39c-1.43,1.81-2.79,2.72-4.1,2.72a2.27,2.27,0,0,1-1.85-.85,3.5,3.5,0,0,1-.67-2.26,8.7,8.7,0,0,1,1.1-4,11.28,11.28,0,0,1,2.73-3.49,5,5,0,0,1,3.18-1.36,2.7,2.7,0,0,1,2.42,1.19l.23-.78Zm-2.36,2.63a2.46,2.46,0,0,0-.83-1.23,2.23,2.23,0,0,0-1.35-.44,3,3,0,0,0-1.91.84A8,8,0,0,0,274,87.15a12.93,12.93,0,0,0-1.1,2.59,8.14,8.14,0,0,0-.45,2.34,3,3,0,0,0,.4,1.65,1.29,1.29,0,0,0,1.15.59,3.08,3.08,0,0,0,2-.88,11,11,0,0,0,2-2.53,9.36,9.36,0,0,0,1-1.89c.23-.63.49-1.51.78-2.63Z"/><path class="cls-1" d="M293,92.1a10.38,10.38,0,0,1-2.44,2.58,4.47,4.47,0,0,1-2.62.82,3.29,3.29,0,0,1-2.58-1.11,4.12,4.12,0,0,1-1-2.88,8.26,8.26,0,0,1,1-3.77,9.77,9.77,0,0,1,2.47-3.16,4.63,4.63,0,0,1,2.91-1.26,2.16,2.16,0,0,1,1.52.53,1.8,1.8,0,0,1,.58,1.41,2.35,2.35,0,0,1-.61,1.53,1.73,1.73,0,0,1-1.3.73.76.76,0,0,1-.56-.25,2.22,2.22,0,0,0,1.34-2.22,1.24,1.24,0,0,0-.3-.89,1,1,0,0,0-.79-.32,2.44,2.44,0,0,0-1.53.61,6.68,6.68,0,0,0-1.45,1.72,10,10,0,0,0-1.06,2.35,8.68,8.68,0,0,0-.38,2.51,4,4,0,0,0,.72,2.47,2.27,2.27,0,0,0,1.89,1,3.41,3.41,0,0,0,1.95-.64,9.21,9.21,0,0,0,2-2Z"/><path class="cls-1" d="M298.6,83.16l-2,8a8,8,0,0,0-.26,1.81,1.52,1.52,0,0,0,.45,1.15,1.61,1.61,0,0,0,1.17.43q1.76,0,3.64-2.86l.08-.12q0-.21.06-.33L303,84l2-.84-1.8,6.76a10.52,10.52,0,0,0-.46,2.68,2.23,2.23,0,0,0,.23,1.07.68.68,0,0,0,.6.41c.42,0,1.1-.51,2-1.52l.33.28-.21.23a19.23,19.23,0,0,1-1.72,1.86,1.65,1.65,0,0,1-1,.48,1.27,1.27,0,0,1-1.08-.64,2.78,2.78,0,0,1-.44-1.62,5.24,5.24,0,0,1,0-.57q-2.14,2.83-4.24,2.83a2.29,2.29,0,0,1-1.67-.6,2.15,2.15,0,0,1-.63-1.62,9.41,9.41,0,0,1,.23-1.91L296.6,84Z"/><path class="cls-1" d="M306,93.87l1.15-1.35A3,3,0,0,0,310,94.65a2.5,2.5,0,0,0,1.76-.67,2.06,2.06,0,0,0,.73-1.55,1.78,1.78,0,0,0-.35-1.09,12.52,12.52,0,0,0-1.67-1.52,10,10,0,0,1-1.63-1.55,2.14,2.14,0,0,1-.42-1.31,3.16,3.16,0,0,1,.56-1.79,4.21,4.21,0,0,1,1.51-1.32,4.16,4.16,0,0,1,2-.51,2.55,2.55,0,0,1,1.55.47,1.41,1.41,0,0,1,.63,1.18,1.28,1.28,0,0,1-.8,1.29,2.43,2.43,0,0,0-.73-1.51,2.28,2.28,0,0,0-1.56-.54,2.19,2.19,0,0,0-1.47.54A1.62,1.62,0,0,0,309.5,86a2.26,2.26,0,0,0,1.07,1.7l1.19,1a3.78,3.78,0,0,1,1.75,2.82,3.64,3.64,0,0,1-.61,2A4.33,4.33,0,0,1,311.25,95a4.57,4.57,0,0,1-2.19.56A3.72,3.72,0,0,1,306,93.87Z"/><path class="cls-1" d="M334.93,83l-5.12,20.31h-1.09l2.86-13.06a15,15,0,0,1-2.12,3.19q-1.71,2-3.39,2a2.38,2.38,0,0,1-2-.9,3.49,3.49,0,0,1-.73-2.31,9.58,9.58,0,0,1,2.2-5.76A9.18,9.18,0,0,1,328,84.26a4.59,4.59,0,0,1,2.46-.75,3.15,3.15,0,0,1,2.46,1l.17-.72Zm-2.3,2.55a2.15,2.15,0,0,0-2.1-1.51,3.07,3.07,0,0,0-1.8.69,6.28,6.28,0,0,0-1.59,1.76,14.33,14.33,0,0,0-1.43,3,9.27,9.27,0,0,0-.55,2.82,2.31,2.31,0,0,0,.46,1.53,1.46,1.46,0,0,0,1.21.57A3.24,3.24,0,0,0,329,93.32a12.3,12.3,0,0,0,2.14-3.09,14.84,14.84,0,0,0,1.36-3.86Z"/><path class="cls-1" d="M340.24,83.16l-2,8a7.55,7.55,0,0,0-.27,1.81,1.49,1.49,0,0,0,.46,1.15,1.61,1.61,0,0,0,1.17.43c1.16,0,2.38-1,3.64-2.86l.08-.12q0-.21.06-.33l1.3-7.2,2-.84-1.81,6.76a10.89,10.89,0,0,0-.45,2.68,2.23,2.23,0,0,0,.23,1.07.68.68,0,0,0,.59.41c.43,0,1.11-.51,2-1.52l.33.28-.21.23a17.79,17.79,0,0,1-1.73,1.86,1.63,1.63,0,0,1-1,.48,1.27,1.27,0,0,1-1.08-.64,2.78,2.78,0,0,1-.44-1.62,5.24,5.24,0,0,1,0-.57q-2.15,2.83-4.24,2.83a2.33,2.33,0,0,1-1.68-.6,2.18,2.18,0,0,1-.62-1.62,10.06,10.06,0,0,1,.22-1.91l1.4-7.28Z"/><path class="cls-1" d="M357.16,92l.37.31A9.75,9.75,0,0,1,355,94.75a4.88,4.88,0,0,1-2.61.75,3.43,3.43,0,0,1-2.67-1.11,4.17,4.17,0,0,1-1-2.94,8.08,8.08,0,0,1,1-3.76,10.14,10.14,0,0,1,2.44-3.14,4.54,4.54,0,0,1,2.91-1.25,2,2,0,0,1,1.39.5,1.64,1.64,0,0,1,.54,1.27,4.43,4.43,0,0,1-1.72,3.17,14.34,14.34,0,0,1-4.71,2.69,2.12,2.12,0,0,0,0,.37,3.37,3.37,0,0,0,.78,2.31,2.54,2.54,0,0,0,2,.9,3.31,3.31,0,0,0,1.88-.61A9.18,9.18,0,0,0,357.16,92Zm-6.58-1.56a11,11,0,0,0,3.41-2.2,7.46,7.46,0,0,0,1.3-1.77,3.74,3.74,0,0,0,.49-1.71c0-.64-.29-1-.88-1-.89,0-1.8.7-2.71,2.1A10.1,10.1,0,0,0,350.58,90.44Z"/><path class="cls-1" d="M357.82,93.87,359,92.52a3,3,0,0,0,2.88,2.13A2.47,2.47,0,0,0,363.6,94a2,2,0,0,0,.73-1.55,1.72,1.72,0,0,0-.35-1.09,11.61,11.61,0,0,0-1.66-1.52,10.21,10.21,0,0,1-1.64-1.55,2.14,2.14,0,0,1-.42-1.31,3.09,3.09,0,0,1,.57-1.79,4.38,4.38,0,0,1,3.5-1.83,2.56,2.56,0,0,1,1.56.47,1.42,1.42,0,0,1,.62,1.18,1.27,1.27,0,0,1-.8,1.29,2.34,2.34,0,0,0-.73-1.51,2.23,2.23,0,0,0-1.55-.54,2.19,2.19,0,0,0-1.47.54,1.63,1.63,0,0,0-.63,1.25,2.29,2.29,0,0,0,1.07,1.7l1.19,1a3.75,3.75,0,0,1,1.75,2.82,3.56,3.56,0,0,1-.61,2A4.3,4.3,0,0,1,363.09,95a4.57,4.57,0,0,1-2.19.56A3.71,3.71,0,0,1,357.82,93.87Z"/><path class="cls-1" d="M371.84,84.21l-1.56,6.85a8.25,8.25,0,0,0-.25,1.6,1.91,1.91,0,0,0,.35,1.19,1.11,1.11,0,0,0,.92.45,1.71,1.71,0,0,0,1-.32,10.16,10.16,0,0,0,1.41-1.32l.25-.25.31.31a13.16,13.16,0,0,1-2,2.09,2.68,2.68,0,0,1-1.59.6,2,2,0,0,1-1.58-.64,2.45,2.45,0,0,1-.58-1.7,11.74,11.74,0,0,1,.31-2.26l1.33-6.6h-2l.14-.7h2L371.45,78l2-.78L372,83.51h3.33l-.14.7Z"/><path class="cls-1" d="M379.57,83.16l-1.81,6.76a10.89,10.89,0,0,0-.45,2.68,2.24,2.24,0,0,0,.22,1.07.69.69,0,0,0,.6.41c.43,0,1.1-.51,2-1.52l.33.28-.21.23a19,19,0,0,1-1.73,1.86,1.63,1.63,0,0,1-1,.48,1.29,1.29,0,0,1-1.08-.64,2.86,2.86,0,0,1-.44-1.62,12.74,12.74,0,0,1,.25-2l1.3-7.2Zm.6-8.06a1.13,1.13,0,0,1,1.19,1.19,1.22,1.22,0,0,1-.35.87,1.15,1.15,0,0,1-.84.35A1.27,1.27,0,0,1,379,76.29a1.15,1.15,0,0,1,.35-.84A1.2,1.2,0,0,1,380.17,75.1Z"/><path class="cls-1" d="M381.52,91.24a7.76,7.76,0,0,1,1-3.69,9,9,0,0,1,2.58-3,5.43,5.43,0,0,1,3.23-1.15,3.64,3.64,0,0,1,2.79,1.14,4.18,4.18,0,0,1,1.05,3,8.09,8.09,0,0,1-1,3.82,8.86,8.86,0,0,1-2.57,3,5.45,5.45,0,0,1-3.22,1.18,3.65,3.65,0,0,1-2.82-1.18A4.49,4.49,0,0,1,381.52,91.24Zm8.8-4.52a3.31,3.31,0,0,0-.6-2,1.88,1.88,0,0,0-1.56-.8,2.84,2.84,0,0,0-1.65.55,5.44,5.44,0,0,0-1.45,1.63,12.29,12.29,0,0,0-1.22,2.88,10.23,10.23,0,0,0-.49,2.92,3.93,3.93,0,0,0,.6,2.34,2,2,0,0,0,1.71.82c1.19,0,2.24-.83,3.14-2.48a12.16,12.16,0,0,0,1.11-2.86A11.56,11.56,0,0,0,390.32,86.72Z"/><path class="cls-1" d="M394.07,95.39,396.25,84l1.95-.84-1.77,7.55a23,23,0,0,1,3.39-5.47,4.63,4.63,0,0,1,3.23-1.88,1.62,1.62,0,0,1,1.24.51,1.9,1.9,0,0,1,.47,1.35,5.74,5.74,0,0,1-.23,1.33l-.2.87-.62,2.5-.21.81a8.65,8.65,0,0,0-.3,1.89,2.17,2.17,0,0,0,.22,1.06.69.69,0,0,0,.6.4c.42,0,1.1-.51,2-1.52l.33.28-.2.23a19,19,0,0,1-1.73,1.86,1.63,1.63,0,0,1-1,.48,1.29,1.29,0,0,1-1.08-.64,2.86,2.86,0,0,1-.44-1.62,10.89,10.89,0,0,1,.25-2l.8-4.36a10.42,10.42,0,0,0,.16-1.44.89.89,0,0,0-.22-.66.84.84,0,0,0-.62-.22c-.95,0-2.11,1-3.5,3a19.56,19.56,0,0,0-1.66,2.89,37.57,37.57,0,0,0-1.48,4l-.19.55Z"/><path class="cls-1" d="M406.38,93.87l1.15-1.35a3,3,0,0,0,2.88,2.13,2.5,2.5,0,0,0,1.76-.67,2,2,0,0,0,.73-1.55,1.78,1.78,0,0,0-.35-1.09,12.23,12.23,0,0,0-1.66-1.52,10.21,10.21,0,0,1-1.64-1.55,2.14,2.14,0,0,1-.42-1.31,3.16,3.16,0,0,1,.56-1.79,4.25,4.25,0,0,1,1.52-1.32,4.12,4.12,0,0,1,2-.51,2.53,2.53,0,0,1,1.55.47,1.41,1.41,0,0,1,.63,1.18,1.28,1.28,0,0,1-.8,1.29,2.38,2.38,0,0,0-.73-1.51,2.25,2.25,0,0,0-1.55-.54,2.15,2.15,0,0,0-1.47.54A1.63,1.63,0,0,0,409.9,86a2.26,2.26,0,0,0,1.07,1.7l1.19,1a3.75,3.75,0,0,1,1.75,2.82,3.56,3.56,0,0,1-.61,2A4.3,4.3,0,0,1,411.66,95a4.63,4.63,0,0,1-2.19.56A3.74,3.74,0,0,1,406.38,93.87Z"/><path class="cls-1" d="M426.33,84.21h-2l.15-.7h2l1.93-9a26.84,26.84,0,0,1,1-3.58,9.63,9.63,0,0,1,1.24-2.3,5.31,5.31,0,0,1,4.4-2.36,4.45,4.45,0,0,1,1.62.28L436,68.4a2.49,2.49,0,0,0-2.1-1.16,1.91,1.91,0,0,0-1.57.76,6.68,6.68,0,0,0-1,2.47l-3.14,13h3.31l-.15.7h-3.33l-2.82,11.68A20.28,20.28,0,0,1,424,99.38a8,8,0,0,1-1.42,2.14,4.86,4.86,0,0,1-3.6,1.79,4.11,4.11,0,0,1-1.69-.33l1-1.48a2.88,2.88,0,0,0,1.87.7,2.44,2.44,0,0,0,2.28-1.6,21.57,21.57,0,0,0,1.17-3.95Z"/><path class="cls-1" d="M430.52,91.24a7.65,7.65,0,0,1,1-3.69,8.73,8.73,0,0,1,2.58-3,5.43,5.43,0,0,1,3.23-1.15,3.6,3.6,0,0,1,2.78,1.14,4.14,4.14,0,0,1,1.06,3,8.09,8.09,0,0,1-1,3.82,9,9,0,0,1-2.57,3,5.45,5.45,0,0,1-3.22,1.18,3.64,3.64,0,0,1-2.82-1.18A4.49,4.49,0,0,1,430.52,91.24Zm8.8-4.52a3.31,3.31,0,0,0-.6-2,1.9,1.9,0,0,0-1.56-.8,2.84,2.84,0,0,0-1.65.55,5.44,5.44,0,0,0-1.45,1.63,12.3,12.3,0,0,0-1.23,2.88,10.54,10.54,0,0,0-.48,2.92,3.93,3.93,0,0,0,.6,2.34,2,2,0,0,0,1.7.82c1.2,0,2.25-.83,3.15-2.48a12.16,12.16,0,0,0,1.11-2.86A12,12,0,0,0,439.32,86.72Z"/><path class="cls-1" d="M442.86,89.35a12.39,12.39,0,0,0,2.36-4,2.89,2.89,0,0,1-1.66-2.65,2.15,2.15,0,0,1,.39-1.34,1.2,1.2,0,0,1,1-.51,1.18,1.18,0,0,1,1,.56,2.55,2.55,0,0,1,.39,1.47,5.13,5.13,0,0,1-.22,1.42,3.82,3.82,0,0,0,1,.14,3,3,0,0,0,2.09-.74h1l-.14.29a39.19,39.19,0,0,0-2.44,5.34,12.79,12.79,0,0,0-1,3.92,1.31,1.31,0,0,0,.25.79.73.73,0,0,0,.6.32c.56,0,1.46-.6,2.71-1.79l.33.37a15.47,15.47,0,0,1-1.79,1.58,3.35,3.35,0,0,1-2,.86,1.57,1.57,0,0,1-1.26-.53A2.15,2.15,0,0,1,445,93.4a9.14,9.14,0,0,1,1.19-3.91q.44-.88,1.11-2c.45-.76,1-1.65,1.71-2.7l.2-.28a4.61,4.61,0,0,1-1.3.87,3.8,3.8,0,0,1-1.43.26,3.12,3.12,0,0,1-.78-.11,12.79,12.79,0,0,1-2.47,4.16Zm2.82-5.22a6.35,6.35,0,0,0,.08-.87,2.26,2.26,0,0,0-.24-1.13.7.7,0,0,0-.61-.41.45.45,0,0,0-.35.2.71.71,0,0,0-.16.48C444.4,83,444.83,83.62,445.68,84.13Z"/><path class="cls-1" d="M470.86,83l-1.93,7.52a8.9,8.9,0,0,0-.31,1.93,2,2,0,0,0,.27,1.07.77.77,0,0,0,.66.46c.4,0,1.05-.49,2-1.46l.29.28-.23.27a18.13,18.13,0,0,1-1.67,1.76,1.71,1.71,0,0,1-1,.5,1.38,1.38,0,0,1-1.14-.69,2.69,2.69,0,0,1-.48-1.59,19.22,19.22,0,0,1,.49-3l.16-.78a14.86,14.86,0,0,1-2,3.39q-2.14,2.72-4.09,2.72a2.24,2.24,0,0,1-1.85-.85,3.44,3.44,0,0,1-.68-2.26,8.7,8.7,0,0,1,1.1-4,11.28,11.28,0,0,1,2.73-3.49,5,5,0,0,1,3.18-1.36,2.7,2.7,0,0,1,2.42,1.19l.23-.78Zm-2.36,2.63a2.46,2.46,0,0,0-.83-1.23,2.21,2.21,0,0,0-1.35-.44,3.06,3.06,0,0,0-1.91.84,8.12,8.12,0,0,0-1.85,2.31,12.93,12.93,0,0,0-1.1,2.59,8.14,8.14,0,0,0-.45,2.34,2.92,2.92,0,0,0,.41,1.65,1.27,1.27,0,0,0,1.14.59,3.06,3.06,0,0,0,2-.88,10.71,10.71,0,0,0,2-2.53,9.36,9.36,0,0,0,1-1.89,24.43,24.43,0,0,0,.78-2.63Z"/><path class="cls-1" d="M480.67,66.22l-5.41,23.7-.18.81a8.44,8.44,0,0,0-.27,1.91,2,2,0,0,0,.24,1,.69.69,0,0,0,.58.4c.43,0,1.11-.51,2-1.52l.33.28-.21.23a19.23,19.23,0,0,1-1.72,1.86,1.65,1.65,0,0,1-1,.48,1.3,1.3,0,0,1-1.08-.68,2.76,2.76,0,0,1-.46-1.58,10.84,10.84,0,0,1,.26-2l4.75-23.93Z"/><path class="cls-1" d="M486.74,66.22l-5.41,23.7-.19.81a9,9,0,0,0-.26,1.91,2.13,2.13,0,0,0,.23,1,.71.71,0,0,0,.59.4c.42,0,1.1-.51,2-1.52l.32.28-.2.23a19,19,0,0,1-1.73,1.86,1.63,1.63,0,0,1-1,.48,1.3,1.3,0,0,1-1.08-.68,2.84,2.84,0,0,1-.46-1.58,11.09,11.09,0,0,1,.27-2l4.75-23.93Z"/><path class="cls-1" d="M491.26,93.87l1.15-1.35a3,3,0,0,0,2.88,2.13,2.5,2.5,0,0,0,1.76-.67,2,2,0,0,0,.73-1.55,1.78,1.78,0,0,0-.35-1.09,11.88,11.88,0,0,0-1.67-1.52,10,10,0,0,1-1.63-1.55,2.14,2.14,0,0,1-.42-1.31,3.16,3.16,0,0,1,.56-1.79,4.21,4.21,0,0,1,1.51-1.32,4.16,4.16,0,0,1,2-.51,2.53,2.53,0,0,1,1.55.47A1.41,1.41,0,0,1,500,85a1.28,1.28,0,0,1-.8,1.29,2.43,2.43,0,0,0-.73-1.51,2.28,2.28,0,0,0-1.56-.54,2.19,2.19,0,0,0-1.47.54,1.65,1.65,0,0,0-.62,1.25,2.26,2.26,0,0,0,1.07,1.7l1.19,1a3.78,3.78,0,0,1,1.75,2.82,3.64,3.64,0,0,1-.61,2A4.3,4.3,0,0,1,496.54,95a4.63,4.63,0,0,1-2.19.56A3.74,3.74,0,0,1,491.26,93.87Z"/><path class="cls-1" d="M509,66.22l-5.6,24.32a15.1,15.1,0,0,1,1.13-2.14,18.29,18.29,0,0,1,1.5-2,13.44,13.44,0,0,1,1.63-1.6,7.9,7.9,0,0,1,2-1.19,7.4,7.4,0,0,1,2.3-.45l-.37,1.64a5.31,5.31,0,0,0-.93-.12,6,6,0,0,0-4.52,2.45A35.62,35.62,0,0,0,508,91.2c.35.7.67,1.26.93,1.67a4.36,4.36,0,0,0,.74.92,1.07,1.07,0,0,0,.67.29q.78,0,2-1.26l.16-.18.27.31c-1.39,1.67-2.4,2.51-3,2.51a1.68,1.68,0,0,1-1.19-.56A8.77,8.77,0,0,1,507.2,93a37.78,37.78,0,0,1-2.12-4.48,18.07,18.07,0,0,0-2.47,6.43l-1.34.43,5.52-28.1Z"/><path class="cls-1" d="M517.66,83.16l-1.81,6.76a10.89,10.89,0,0,0-.45,2.68,2.23,2.23,0,0,0,.23,1.07.68.68,0,0,0,.59.41c.43,0,1.11-.51,2-1.52l.33.28-.21.23a19,19,0,0,1-1.73,1.86,1.63,1.63,0,0,1-1,.48,1.27,1.27,0,0,1-1.08-.64,2.79,2.79,0,0,1-.45-1.62,12.74,12.74,0,0,1,.25-2l1.3-7.2Zm.6-8.06a1.13,1.13,0,0,1,1.19,1.19,1.22,1.22,0,0,1-.35.87,1.15,1.15,0,0,1-.84.35,1.27,1.27,0,0,1-1.21-1.22,1.14,1.14,0,0,1,.34-.84A1.22,1.22,0,0,1,518.26,75.1Z"/><path class="cls-1" d="M527.33,66.22l-5.41,23.7-.19.81a8.35,8.35,0,0,0-.26,1.91,2,2,0,0,0,.23,1,.71.71,0,0,0,.59.4c.42,0,1.1-.51,2-1.52l.33.28-.2.23a19,19,0,0,1-1.73,1.86,1.63,1.63,0,0,1-1,.48,1.3,1.3,0,0,1-1.08-.68,2.76,2.76,0,0,1-.46-1.58,11.09,11.09,0,0,1,.27-2l4.75-23.93Z"/><path class="cls-1" d="M533.39,66.22,528,89.92l-.18.81a8.44,8.44,0,0,0-.27,1.91,2,2,0,0,0,.24,1,.69.69,0,0,0,.58.4c.43,0,1.11-.51,2-1.52l.33.28-.21.23a19.23,19.23,0,0,1-1.72,1.86,1.65,1.65,0,0,1-1,.48,1.3,1.3,0,0,1-1.08-.68,2.76,2.76,0,0,1-.46-1.58,10.84,10.84,0,0,1,.26-2l4.75-23.93Z"/><path class="cls-1" d="M546.76,66.22l-5.41,23.7-.19.81a9,9,0,0,0-.26,1.91,2.13,2.13,0,0,0,.23,1,.71.71,0,0,0,.59.4c.42,0,1.1-.51,2-1.52l.33.28-.2.23a19,19,0,0,1-1.73,1.86,1.63,1.63,0,0,1-1,.48,1.3,1.3,0,0,1-1.08-.68,2.84,2.84,0,0,1-.46-1.58,11.09,11.09,0,0,1,.27-2l4.75-23.93Z"/><path class="cls-1" d="M553.52,92l.37.31a9.75,9.75,0,0,1-2.49,2.44,4.88,4.88,0,0,1-2.61.75,3.43,3.43,0,0,1-2.67-1.11,4.22,4.22,0,0,1-1-2.94,8.2,8.2,0,0,1,1-3.76,10.17,10.17,0,0,1,2.45-3.14,4.54,4.54,0,0,1,2.9-1.25,2,2,0,0,1,1.39.5,1.62,1.62,0,0,1,.55,1.27,4.44,4.44,0,0,1-1.73,3.17,14.34,14.34,0,0,1-4.71,2.69c0,.11,0,.23,0,.37a3.37,3.37,0,0,0,.78,2.31,2.54,2.54,0,0,0,2,.9,3.28,3.28,0,0,0,1.87-.61A9,9,0,0,0,553.52,92Zm-6.58-1.56a11,11,0,0,0,3.41-2.2,7.46,7.46,0,0,0,1.3-1.77,3.74,3.74,0,0,0,.49-1.71c0-.64-.29-1-.88-1q-1.34,0-2.7,2.1A10.11,10.11,0,0,0,546.94,90.44Z"/><path class="cls-1" d="M555.87,84l1.85-.84v.53c0,2,.15,4.11.35,6.32.11,1.15.2,2,.28,2.56a3.89,3.89,0,0,0,.29,1.12.51.51,0,0,0,.45.29c.51,0,1.42-1,2.72-2.9a8.55,8.55,0,0,0,1.75-4.71,3.82,3.82,0,0,0-.19-1.27,3,3,0,0,0-.7-1l1.54-1.43a3.67,3.67,0,0,1,.72,2.3q0,2.73-3.25,7.22a17.75,17.75,0,0,1-2.09,2.42,5.58,5.58,0,0,1-.84.67,1.19,1.19,0,0,1-.62.2.79.79,0,0,1-.72-.39,4.34,4.34,0,0,1-.35-1.49Z"/><path class="cls-1" d="M574.47,92l.37.31a9.89,9.89,0,0,1-2.48,2.44,4.89,4.89,0,0,1-2.62.75,3.43,3.43,0,0,1-2.67-1.11,4.22,4.22,0,0,1-1-2.94,8.2,8.2,0,0,1,1-3.76,10.17,10.17,0,0,1,2.45-3.14,4.54,4.54,0,0,1,2.91-1.25,2,2,0,0,1,1.38.5,1.62,1.62,0,0,1,.55,1.27,4.44,4.44,0,0,1-1.73,3.17,14.34,14.34,0,0,1-4.71,2.69c0,.11,0,.23,0,.37a3.37,3.37,0,0,0,.78,2.31,2.57,2.57,0,0,0,2,.9,3.28,3.28,0,0,0,1.87-.61A9,9,0,0,0,574.47,92Zm-6.58-1.56a11.16,11.16,0,0,0,3.42-2.2,7.7,7.7,0,0,0,1.29-1.77,3.76,3.76,0,0,0,.5-1.71c0-.64-.3-1-.89-1q-1.34,0-2.7,2.1A10.23,10.23,0,0,0,567.89,90.44Z"/><path class="cls-1" d="M584,66.22l-5.4,23.7-.19.81a8.44,8.44,0,0,0-.27,1.91,2,2,0,0,0,.24,1,.7.7,0,0,0,.59.4c.42,0,1.1-.51,2-1.52l.33.28-.21.23a19.23,19.23,0,0,1-1.72,1.86,1.65,1.65,0,0,1-1,.48,1.3,1.3,0,0,1-1.08-.68,2.76,2.76,0,0,1-.46-1.58,11.86,11.86,0,0,1,.26-2l4.75-23.93Z"/><path class="cls-1" d="M581.2,93.87l1.15-1.35a3,3,0,0,0,2.88,2.13A2.51,2.51,0,0,0,587,94a2.06,2.06,0,0,0,.73-1.55,1.78,1.78,0,0,0-.35-1.09,12.52,12.52,0,0,0-1.67-1.52,10,10,0,0,1-1.63-1.55,2.14,2.14,0,0,1-.43-1.31,3.09,3.09,0,0,1,.57-1.79,4.21,4.21,0,0,1,1.51-1.32,4.16,4.16,0,0,1,2-.51,2.55,2.55,0,0,1,1.55.47A1.41,1.41,0,0,1,589.9,85a1.28,1.28,0,0,1-.81,1.29,2.34,2.34,0,0,0-.73-1.51,2.23,2.23,0,0,0-1.55-.54,2.19,2.19,0,0,0-1.47.54,1.63,1.63,0,0,0-.63,1.25,2.29,2.29,0,0,0,1.07,1.7l1.2,1a3.76,3.76,0,0,1,1.74,2.82,3.63,3.63,0,0,1-.6,2A4.4,4.4,0,0,1,586.47,95a4.57,4.57,0,0,1-2.19.56A3.71,3.71,0,0,1,581.2,93.87Z"/><path class="cls-2" d="M674.48,42.23H594.11a7.4,7.4,0,0,0,1.19-1.56,7.08,7.08,0,0,0,.81-3.52,5.64,5.64,0,0,0-2.06-4.57A15,15,0,0,0,587.66,30a13.35,13.35,0,0,1-4.44-1.54,2.93,2.93,0,0,1-1.41-2.63,3.22,3.22,0,0,1,.45-1.72,3.53,3.53,0,0,1,1.17-1.2,5.19,5.19,0,0,1,1.67-.68A8.6,8.6,0,0,1,587,22a6.79,6.79,0,0,1,3.62,1A6.26,6.26,0,0,1,593,25.46l2.71-2a8,8,0,0,0-3.6-3.23,11.3,11.3,0,0,0-5-1.15,12.39,12.39,0,0,0-3.23.42,8.88,8.88,0,0,0-2.79,1.27,6.48,6.48,0,0,0-2,2.2,6.61,6.61,0,0,0-.73,3.2A5.57,5.57,0,0,0,579.1,29a6.32,6.32,0,0,0,1.72,1.91,8.2,8.2,0,0,0,2.27,1.14c.82.26,1.59.48,2.32.66a23.49,23.49,0,0,1,5.35,1.8,3.09,3.09,0,0,1,1.85,2.89,3.88,3.88,0,0,1-.47,2,4,4,0,0,1-1.25,1.33,5,5,0,0,1-1.83.73,11,11,0,0,1-2.19.21,8,8,0,0,1-6.78-3.81L577.28,40a10.27,10.27,0,0,0,2.09,2.26h-8.68c0-.32,0-.62,0-1,0-1,0-1.89,0-2.56v-19h-3.55V32.19a13.2,13.2,0,0,1-.62,4.26,8.93,8.93,0,0,1-1.67,3,6.76,6.76,0,0,1-5.11,2.32,7.23,7.23,0,0,1-3.21-.63,5.17,5.17,0,0,1-2-1.74,7.47,7.47,0,0,1-1.07-2.69,18.56,18.56,0,0,1-.31-3.49V19.67h-3.55v15A11,11,0,0,0,551.8,42c.08.1.17.18.26.28H542.4a11.52,11.52,0,0,0,1.75-1.74l-2.66-2a7.81,7.81,0,0,1-6.62,3.18,9.4,9.4,0,0,1-3.86-.76,8.35,8.35,0,0,1-2.92-2.09,9.3,9.3,0,0,1-1.85-3.1,11,11,0,0,1-.66-3.86,11.13,11.13,0,0,1,.66-3.88,9,9,0,0,1,1.87-3.13,8.65,8.65,0,0,1,2.95-2.09,9.56,9.56,0,0,1,3.86-.76,7.64,7.64,0,0,1,3.68.92,6.64,6.64,0,0,1,2.58,2.32l2.76-2a9.67,9.67,0,0,0-4.09-3.15,12.81,12.81,0,0,0-5-1.07,14.35,14.35,0,0,0-5.37,1,11.79,11.79,0,0,0-6.73,6.76,14.36,14.36,0,0,0,0,10.22,12,12,0,0,0,2.63,4.07,11.08,11.08,0,0,0,1.38,1.17H514.63c0-.22,0-.46,0-.7-.07-1-.11-2-.11-2.92V27.92a9.69,9.69,0,0,0-.73-3.92,7.35,7.35,0,0,0-2-2.76,8.71,8.71,0,0,0-3-1.64,12,12,0,0,0-3.7-.55,15,15,0,0,0-5.61,1,11.85,11.85,0,0,0-4,2.5l2,2.35a9.93,9.93,0,0,1,3.19-2.09,10.47,10.47,0,0,1,4.07-.78,6.86,6.86,0,0,1,4.85,1.56,6.13,6.13,0,0,1,1.67,4.71v.77q-3.34,0-6.45.24a22.68,22.68,0,0,0-5.5,1.05,8.54,8.54,0,0,0-3.83,2.46,6.56,6.56,0,0,0-1.44,4.47,6.89,6.89,0,0,0,.81,3.46,7.64,7.64,0,0,0,1.12,1.49H483.27A10.75,10.75,0,0,0,484.66,41a12.19,12.19,0,0,0,2.56-4.07,14.52,14.52,0,0,0,0-10.12,12.29,12.29,0,0,0-2.56-4.07,11.82,11.82,0,0,0-4-2.71,13.12,13.12,0,0,0-5.19-1,11.55,11.55,0,0,0-5.16,1.23,10,10,0,0,0-4.07,3.62h-.11V4.65h-3.54V42.23h-6.12L441.45,7.16H437.8L422.64,42.23h-20a14.61,14.61,0,0,0,2.72-2.68l-2.66-2.09a9.39,9.39,0,0,1-3.05,2.95,9.29,9.29,0,0,1-8.27.57,9.11,9.11,0,0,1-2.81-1.9,8.66,8.66,0,0,1-1.88-2.82,9.41,9.41,0,0,1-.73-3.44h20.24c0-.31.05-.61.05-.89v-.78a14.11,14.11,0,0,0-.76-4.69,11.26,11.26,0,0,0-2.21-3.84A10.65,10.65,0,0,0,399.67,20a12.51,12.51,0,0,0-5.06-1,12,12,0,0,0-8.77,3.65,12.47,12.47,0,0,0-2.61,4.07,13.74,13.74,0,0,0-.93,5.11,13.36,13.36,0,0,0,1,5.11,12.54,12.54,0,0,0,2.64,4.07,11.46,11.46,0,0,0,1.34,1.17H369.38l9.16-22.56h-3.81l-8,20.66h-.1l-7.93-20.66h-4L364,42.23H349.17V19.67h-3.54V42.23h-9.1a6.61,6.61,0,0,0,2-5.08,5.61,5.61,0,0,0-2.06-4.57A14.87,14.87,0,0,0,330.08,30a13.37,13.37,0,0,1-4.43-1.54,2.93,2.93,0,0,1-1.41-2.63,3.31,3.31,0,0,1,.44-1.72,3.66,3.66,0,0,1,1.18-1.2,5.1,5.1,0,0,1,1.67-.68A8.51,8.51,0,0,1,329.4,22,6.8,6.8,0,0,1,333,23a6.23,6.23,0,0,1,2.37,2.47l2.72-2a8,8,0,0,0-3.6-3.23,11.33,11.33,0,0,0-5-1.15,12.39,12.39,0,0,0-3.23.42,8.68,8.68,0,0,0-2.79,1.27,6.25,6.25,0,0,0-2.69,5.4,5.57,5.57,0,0,0,.68,2.87,6.19,6.19,0,0,0,1.72,1.91,8.07,8.07,0,0,0,2.27,1.14c.82.26,1.59.48,2.32.66a23.67,23.67,0,0,1,5.35,1.8A3.09,3.09,0,0,1,335,37.41a3.75,3.75,0,0,1-1.72,3.34,5,5,0,0,1-1.83.73,11,11,0,0,1-2.19.21,8,8,0,0,1-6.78-3.81L319.7,40a10.56,10.56,0,0,0,2.1,2.26h-8.42a7.75,7.75,0,0,0,1.19-1.56,7.18,7.18,0,0,0,.8-3.52,5.61,5.61,0,0,0-2.06-4.57A14.87,14.87,0,0,0,306.92,30a13.37,13.37,0,0,1-4.43-1.54,2.93,2.93,0,0,1-1.41-2.63,3.22,3.22,0,0,1,.45-1.72,3.53,3.53,0,0,1,1.17-1.2,5.19,5.19,0,0,1,1.67-.68,8.53,8.53,0,0,1,1.88-.21,6.79,6.79,0,0,1,3.62,1,6.23,6.23,0,0,1,2.37,2.47l2.72-2a8,8,0,0,0-3.6-3.23,11.3,11.3,0,0,0-5-1.15,12.39,12.39,0,0,0-3.23.42,8.78,8.78,0,0,0-2.79,1.27,6.25,6.25,0,0,0-2.69,5.4,5.57,5.57,0,0,0,.68,2.87,6.19,6.19,0,0,0,1.72,1.91,8.07,8.07,0,0,0,2.27,1.14c.82.26,1.59.48,2.32.66a23.67,23.67,0,0,1,5.35,1.8,3.09,3.09,0,0,1,1.85,2.89,3.75,3.75,0,0,1-1.72,3.34,5,5,0,0,1-1.83.73,11,11,0,0,1-2.19.21,8,8,0,0,1-6.78-3.81L296.54,40a10.56,10.56,0,0,0,2.1,2.26H288a14.61,14.61,0,0,0,2.72-2.68l-2.66-2.09a9.39,9.39,0,0,1-3,2.95,8.72,8.72,0,0,1-4.77,1.28,8.61,8.61,0,0,1-3.49-.71,9,9,0,0,1-2.82-1.9,8.66,8.66,0,0,1-1.88-2.82,9.41,9.41,0,0,1-.73-3.44h20.24c0-.31.05-.61.05-.89v-.78a14.11,14.11,0,0,0-.76-4.69,11.26,11.26,0,0,0-2.21-3.84A10.65,10.65,0,0,0,285,20a12.51,12.51,0,0,0-5.06-1,12,12,0,0,0-11.37,7.72,13.54,13.54,0,0,0-.94,5.11,13.36,13.36,0,0,0,1,5.11,12.54,12.54,0,0,0,2.64,4.07,11.46,11.46,0,0,0,1.34,1.17H255.13V31.6a12.93,12.93,0,0,1,.6-4.19,8.64,8.64,0,0,1,1.56-2.86,5.85,5.85,0,0,1,2.27-1.64,7.22,7.22,0,0,1,2.71-.52,10.14,10.14,0,0,1,1.46.1,6.71,6.71,0,0,1,1,.21l.47-3.39a8.1,8.1,0,0,0-1.12-.21c-.37,0-.78-.05-1.23-.05a8.5,8.5,0,0,0-4.69,1.33,8.35,8.35,0,0,0-3.13,3.47H255c0-.52,0-1.18-.05-2s-.09-1.53-.16-2.2h-3.39c.07.84.12,1.78.16,2.82s.05,1.9.05,2.56V42.23h-9.23V19.67H238.8V23.9h-.1a9.67,9.67,0,0,0-4-3.6,11.78,11.78,0,0,0-5.22-1.25,13.12,13.12,0,0,0-5.19,1,12,12,0,0,0-4,2.71,12.38,12.38,0,0,0-2.56,4,13.29,13.29,0,0,0-.91,4.9,13.46,13.46,0,0,0,.91,5,11.52,11.52,0,0,0,2.56,3.94,11.73,11.73,0,0,0,2.15,1.66H206a12,12,0,0,0,1.39-1.17A12.35,12.35,0,0,0,210,37a14.08,14.08,0,0,0,0-10.22A12.08,12.08,0,0,0,203.23,20a14.08,14.08,0,0,0-5.27-1,13.93,13.93,0,0,0-5.22,1,12,12,0,0,0-6.8,6.76,13.94,13.94,0,0,0,0,10.22,12.32,12.32,0,0,0,2.68,4.07A12,12,0,0,0,190,42.23H172.45V31.6a12.93,12.93,0,0,1,.6-4.19,8.47,8.47,0,0,1,1.57-2.86,5.78,5.78,0,0,1,2.27-1.64,7.14,7.14,0,0,1,2.71-.52,10.24,10.24,0,0,1,1.46.1,6.53,6.53,0,0,1,1,.21l.47-3.39a7.59,7.59,0,0,0-1.12-.21c-.36,0-.77-.05-1.23-.05a8.63,8.63,0,0,0-7.82,4.8h-.1q0-.78-.06-2c0-.8-.08-1.53-.15-2.2H168.7q.11,1.26.15,2.82c0,1.05.06,1.9.06,2.56V42.23H145.12V26.93h6.57a19.61,19.61,0,0,0,5.14-.63,11.51,11.51,0,0,0,4-1.85,8.41,8.41,0,0,0,2.56-3.08,9.73,9.73,0,0,0,.91-4.36,10,10,0,0,0-.88-4.35,8.41,8.41,0,0,0-2.53-3.08,11.45,11.45,0,0,0-3.94-1.82,20.24,20.24,0,0,0-5.11-.6H141.36V42.23H2.48v2.1H194.65a14.23,14.23,0,0,0,3.31.38,14.51,14.51,0,0,0,3.35-.38h37.48a12.93,12.93,0,0,1-.51,3.28,8.4,8.4,0,0,1-1.64,3,7.74,7.74,0,0,1-2.95,2.06,11.68,11.68,0,0,1-4.43.76,11.53,11.53,0,0,1-5.35-1.31,11.75,11.75,0,0,1-4-3.18l-2.56,2.71a15.63,15.63,0,0,0,5.27,3.6,16.41,16.41,0,0,0,6.47,1.31,15,15,0,0,0,6.62-1.26,11.31,11.31,0,0,0,4.05-3.13,10.53,10.53,0,0,0,2-4.12,17.35,17.35,0,0,0,.53-3.77h34.75a13.21,13.21,0,0,0,3.19.38,13.73,13.73,0,0,0,3.23-.38h19.61a12.8,12.8,0,0,0,3.08.38,14.31,14.31,0,0,0,3.26-.38h16.82a12.8,12.8,0,0,0,3.08.38,14.31,14.31,0,0,0,3.26-.38h59.12a13.21,13.21,0,0,0,3.19.38,13.73,13.73,0,0,0,3.23-.38h74.46a11.37,11.37,0,0,0,2.9.38,13.85,13.85,0,0,0,3.28-.38h20.73a11.53,11.53,0,0,0,2.85.38,12.66,12.66,0,0,0,3.18-.38h25.88a15.11,15.11,0,0,0,3.44.38,13.65,13.65,0,0,0,3.3-.38h17.46a12.15,12.15,0,0,0,3.13.38,9.71,9.71,0,0,0,2.69-.38h22.4a12.74,12.74,0,0,0,3.08.38,14.44,14.44,0,0,0,3.26-.38h84.29ZM386.83,27a9,9,0,0,1,1.83-2.55,8.68,8.68,0,0,1,2.66-1.78,8.29,8.29,0,0,1,3.29-.65,7.52,7.52,0,0,1,5.86,2.27A8.75,8.75,0,0,1,402.69,30H386.05A8.33,8.33,0,0,1,386.83,27ZM272.18,27A9.18,9.18,0,0,1,274,24.45a8.8,8.8,0,0,1,2.66-1.78A8.29,8.29,0,0,1,280,22a7.56,7.56,0,0,1,5.87,2.27A8.79,8.79,0,0,1,288,30H271.4A8.33,8.33,0,0,1,272.18,27Zm-83.45,4.88a11,11,0,0,1,.65-3.83,9.24,9.24,0,0,1,1.85-3.13A8.78,8.78,0,0,1,198,22a9.24,9.24,0,0,1,3.86.78,8.83,8.83,0,0,1,2.92,2.12,9.24,9.24,0,0,1,1.85,3.13,11.61,11.61,0,0,1,0,7.66,9.15,9.15,0,0,1-1.85,3.13,8.35,8.35,0,0,1-2.92,2.09,9.4,9.4,0,0,1-3.86.76,9.19,9.19,0,0,1-3.83-.76,8.46,8.46,0,0,1-2.9-2.09,9.15,9.15,0,0,1-1.85-3.13A11,11,0,0,1,188.73,31.88ZM145.12,10.39h6.36A11.87,11.87,0,0,1,158.13,12a5.61,5.61,0,0,1,2.38,5,5.86,5.86,0,0,1-2.3,5q-2.29,1.73-6.73,1.72h-6.36Zm422,29.52h.1c0,.53,0,1.19,0,2,0,.11,0,.22,0,.33h-2A7.48,7.48,0,0,0,567.11,39.91Zm-68.39-5.53a7.78,7.78,0,0,1,2.95-1.59,20.18,20.18,0,0,1,4-.73q2.22-.18,4.41-.18h1.05v1.83a9,9,0,0,1-.53,3.07,7.71,7.71,0,0,1-1.51,2.59,7.11,7.11,0,0,1-2.45,1.77,8,8,0,0,1-3.34.65,9.56,9.56,0,0,1-2.06-.23,5.66,5.66,0,0,1-1.85-.79,4,4,0,0,1-1.33-1.43,4.43,4.43,0,0,1-.5-2.19A3.59,3.59,0,0,1,498.72,34.38Zm12.52,5.74h.1c0,.66,0,1.34.11,2a.2.2,0,0,0,0,.07h-2A12.61,12.61,0,0,0,511.24,40.12ZM466.46,28a9.39,9.39,0,0,1,2-3.13,8.83,8.83,0,0,1,3-2.09,9.31,9.31,0,0,1,3.75-.76,9.43,9.43,0,0,1,3.92.78A8.6,8.6,0,0,1,482,24.92a9.3,9.3,0,0,1,1.8,3.13,12,12,0,0,1,0,7.66,9.2,9.2,0,0,1-1.8,3.13,8.14,8.14,0,0,1-2.89,2.09,9.59,9.59,0,0,1-3.92.76,9.14,9.14,0,0,1-3.75-.76,9,9,0,0,1-3-2.06,9.26,9.26,0,0,1-2-3.1,11,11,0,0,1,0-7.77Zm-.29,12h.11a10.13,10.13,0,0,0,2.06,2.26h-2.17ZM439.52,11.33l8.13,19.61H431.38ZM430,34.38h19.09l3.29,7.85H426.72ZM220.6,31.57a10.72,10.72,0,0,1,.62-3.65,9.23,9.23,0,0,1,1.8-3,8.85,8.85,0,0,1,2.9-2.09,9.38,9.38,0,0,1,3.91-.78,9,9,0,0,1,3.76.78,9.84,9.84,0,0,1,3,2.09,9.7,9.7,0,0,1,2.66,6.68,10.27,10.27,0,0,1-.71,3.88,8.58,8.58,0,0,1-4.92,4.93,10,10,0,0,1-3.76.68,9.7,9.7,0,0,1-3.91-.75,8.63,8.63,0,0,1-2.9-2.06,9.23,9.23,0,0,1-1.8-3A10.76,10.76,0,0,1,220.6,31.57Zm18.1,7.72h.1v2.94h-3A9.24,9.24,0,0,0,238.7,39.29Z"/><path class="cls-3" d="M347.4,12.79a2.54,2.54,0,0,0,1.72-.7,2.32,2.32,0,0,0,.78-1.8,2.32,2.32,0,0,0-.78-1.8,2.44,2.44,0,0,0-3.44,0,2.32,2.32,0,0,0-.78,1.8,2.32,2.32,0,0,0,.78,1.8A2.54,2.54,0,0,0,347.4,12.79Z"/><path class="cls-4" d="M674.48,43.23H590.85l.34-.21a6.77,6.77,0,0,0,2.92-5.87,5.64,5.64,0,0,0-2.06-4.57A15,15,0,0,0,585.66,30a13.35,13.35,0,0,1-4.44-1.54,2.93,2.93,0,0,1-1.41-2.63,3.22,3.22,0,0,1,.45-1.72,3.53,3.53,0,0,1,1.17-1.2,5.19,5.19,0,0,1,1.67-.68A8.6,8.6,0,0,1,585,22a6.79,6.79,0,0,1,3.62,1A6.26,6.26,0,0,1,591,25.46l2.71-2a8,8,0,0,0-3.6-3.23,11.3,11.3,0,0,0-5-1.15,12.39,12.39,0,0,0-3.23.42,8.88,8.88,0,0,0-2.79,1.27,6.48,6.48,0,0,0-2,2.2,6.61,6.61,0,0,0-.73,3.2A5.57,5.57,0,0,0,577.1,29a6.32,6.32,0,0,0,1.72,1.91,8.2,8.2,0,0,0,2.27,1.14c.82.26,1.59.48,2.32.66a23.49,23.49,0,0,1,5.35,1.8,3.09,3.09,0,0,1,1.85,2.89,3.88,3.88,0,0,1-.47,2,4,4,0,0,1-1.25,1.33,5,5,0,0,1-1.83.73,11,11,0,0,1-2.19.21,8,8,0,0,1-6.78-3.81L575.28,40a10,10,0,0,0,3.63,3.26H568.75c0-.61-.07-1.25-.1-2,0-1,0-1.89,0-2.56v-19h-3.55V32.19a13.2,13.2,0,0,1-.62,4.26,8.93,8.93,0,0,1-1.67,3,6.76,6.76,0,0,1-5.11,2.32,7.23,7.23,0,0,1-3.21-.63,5.17,5.17,0,0,1-2-1.74,7.47,7.47,0,0,1-1.07-2.69,18.56,18.56,0,0,1-.31-3.49V19.67h-3.55v15A11,11,0,0,0,549.8,42a6.92,6.92,0,0,0,1.42,1.28H538.91a11.56,11.56,0,0,0,3.24-2.74l-2.66-2a7.81,7.81,0,0,1-6.62,3.18,9.4,9.4,0,0,1-3.86-.76,8.35,8.35,0,0,1-2.92-2.09,9.3,9.3,0,0,1-1.85-3.1,11,11,0,0,1-.66-3.86,11.13,11.13,0,0,1,.66-3.88,9,9,0,0,1,1.87-3.13,8.65,8.65,0,0,1,2.95-2.09,9.56,9.56,0,0,1,3.86-.76,7.64,7.64,0,0,1,3.68.92,6.64,6.64,0,0,1,2.58,2.32l2.76-2a9.67,9.67,0,0,0-4.09-3.15,12.81,12.81,0,0,0-5-1.07,14.35,14.35,0,0,0-5.37,1,11.79,11.79,0,0,0-6.73,6.76,14.36,14.36,0,0,0,0,10.22,12,12,0,0,0,2.63,4.07,11.37,11.37,0,0,0,3,2.17H512.75c-.07-.51-.13-1.07-.17-1.7-.07-1-.11-2-.11-2.92V27.92a9.69,9.69,0,0,0-.73-3.92,7.35,7.35,0,0,0-2-2.76,8.71,8.71,0,0,0-3-1.64,12,12,0,0,0-3.7-.55,15,15,0,0,0-5.61,1,11.85,11.85,0,0,0-4,2.5l2,2.35a9.93,9.93,0,0,1,3.19-2.09,10.47,10.47,0,0,1,4.07-.78,6.86,6.86,0,0,1,4.85,1.56,6.13,6.13,0,0,1,1.67,4.71v.77q-3.34,0-6.45.24a22.68,22.68,0,0,0-5.5,1.05,8.54,8.54,0,0,0-3.83,2.46,6.56,6.56,0,0,0-1.44,4.47,6.89,6.89,0,0,0,.81,3.46,7.21,7.21,0,0,0,2,2.3l.28.19H479.72A11.55,11.55,0,0,0,482.66,41a12.19,12.19,0,0,0,2.56-4.07,14.52,14.52,0,0,0,0-10.12,12.29,12.29,0,0,0-2.56-4.07,11.82,11.82,0,0,0-4-2.71,13.12,13.12,0,0,0-5.19-1,11.55,11.55,0,0,0-5.16,1.23,10,10,0,0,0-4.07,3.62h-.11V4.65h-3.54V43.23h-5.69L439.45,7.16H435.8L420.21,43.23H399.1a13.44,13.44,0,0,0,4.3-3.68l-2.66-2.09a9.39,9.39,0,0,1-3.05,2.95,9.29,9.29,0,0,1-8.27.57,9.11,9.11,0,0,1-2.81-1.9,8.66,8.66,0,0,1-1.88-2.82,9.41,9.41,0,0,1-.73-3.44h20.24c0-.31.05-.61.05-.89v-.78a14.11,14.11,0,0,0-.76-4.69,11.26,11.26,0,0,0-2.21-3.84A10.65,10.65,0,0,0,397.67,20a12.51,12.51,0,0,0-5.06-1,12,12,0,0,0-8.77,3.65,12.47,12.47,0,0,0-2.61,4.07,13.74,13.74,0,0,0-.93,5.11,13.36,13.36,0,0,0,1,5.11,12.54,12.54,0,0,0,2.64,4.07,11.47,11.47,0,0,0,2.89,2.17H367l9.56-23.56h-3.81l-8,20.66h-.1l-7.93-20.66h-4l9.62,23.56h-15.2V19.67h-3.54V43.23H333.28l.33-.21a6.92,6.92,0,0,0,2.11-2.35,7.08,7.08,0,0,0,.81-3.52,5.61,5.61,0,0,0-2.06-4.57A14.87,14.87,0,0,0,328.08,30a13.37,13.37,0,0,1-4.43-1.54,2.93,2.93,0,0,1-1.41-2.63,3.31,3.31,0,0,1,.44-1.72,3.66,3.66,0,0,1,1.18-1.2,5.1,5.1,0,0,1,1.67-.68A8.51,8.51,0,0,1,327.4,22,6.8,6.8,0,0,1,331,23a6.23,6.23,0,0,1,2.37,2.47l2.72-2a8,8,0,0,0-3.6-3.23,11.33,11.33,0,0,0-5-1.15,12.39,12.39,0,0,0-3.23.42,8.68,8.68,0,0,0-2.79,1.27,6.25,6.25,0,0,0-2.69,5.4,5.57,5.57,0,0,0,.68,2.87,6.19,6.19,0,0,0,1.72,1.91,8.07,8.07,0,0,0,2.27,1.14c.82.26,1.59.48,2.32.66a23.67,23.67,0,0,1,5.35,1.8A3.09,3.09,0,0,1,333,37.41a3.75,3.75,0,0,1-1.72,3.34,5,5,0,0,1-1.83.73,11,11,0,0,1-2.19.21,8,8,0,0,1-6.78-3.81L317.7,40a10,10,0,0,0,3.64,3.26H310.12l.33-.21a7.05,7.05,0,0,0,2.12-2.35,7.18,7.18,0,0,0,.8-3.52,5.61,5.61,0,0,0-2.06-4.57A14.87,14.87,0,0,0,304.92,30a13.37,13.37,0,0,1-4.43-1.54,2.93,2.93,0,0,1-1.41-2.63,3.22,3.22,0,0,1,.45-1.72,3.53,3.53,0,0,1,1.17-1.2,5.19,5.19,0,0,1,1.67-.68,8.53,8.53,0,0,1,1.88-.21,6.79,6.79,0,0,1,3.62,1,6.23,6.23,0,0,1,2.37,2.47l2.72-2a8,8,0,0,0-3.6-3.23,11.3,11.3,0,0,0-5-1.15,12.39,12.39,0,0,0-3.23.42,8.78,8.78,0,0,0-2.79,1.27,6.25,6.25,0,0,0-2.69,5.4,5.57,5.57,0,0,0,.68,2.87,6.19,6.19,0,0,0,1.72,1.91,8.07,8.07,0,0,0,2.27,1.14c.82.26,1.59.48,2.32.66a23.67,23.67,0,0,1,5.35,1.8,3.09,3.09,0,0,1,1.85,2.89,3.75,3.75,0,0,1-1.72,3.34,5,5,0,0,1-1.83.73,11,11,0,0,1-2.19.21,8,8,0,0,1-6.78-3.81L294.54,40a10,10,0,0,0,3.64,3.26H284.45a13.44,13.44,0,0,0,4.3-3.68l-2.66-2.09a9.39,9.39,0,0,1-3,2.95,8.72,8.72,0,0,1-4.77,1.28,8.61,8.61,0,0,1-3.49-.71,9,9,0,0,1-2.82-1.9,8.66,8.66,0,0,1-1.88-2.82,9.41,9.41,0,0,1-.73-3.44h20.24c0-.31.05-.61.05-.89v-.78a14.11,14.11,0,0,0-.76-4.69,11.26,11.26,0,0,0-2.21-3.84A10.65,10.65,0,0,0,283,20a12.51,12.51,0,0,0-5.06-1,12,12,0,0,0-11.37,7.72,13.54,13.54,0,0,0-.94,5.11,13.36,13.36,0,0,0,1,5.11,12.54,12.54,0,0,0,2.64,4.07,11.47,11.47,0,0,0,2.89,2.17h-19V31.6a12.93,12.93,0,0,1,.6-4.19,8.64,8.64,0,0,1,1.56-2.86,5.85,5.85,0,0,1,2.27-1.64,7.22,7.22,0,0,1,2.71-.52,10.14,10.14,0,0,1,1.46.1,6.71,6.71,0,0,1,1,.21l.47-3.39a8.1,8.1,0,0,0-1.12-.21c-.37,0-.78-.05-1.23-.05a8.5,8.5,0,0,0-4.69,1.33,8.35,8.35,0,0,0-3.13,3.47H253c0-.52,0-1.18-.05-2s-.09-1.53-.16-2.2h-3.39c.07.84.12,1.78.16,2.82s.05,1.9.05,2.56V43.23h-9.23V19.67H236.8V23.9h-.1a9.67,9.67,0,0,0-4-3.6,11.78,11.78,0,0,0-5.22-1.25,13.12,13.12,0,0,0-5.19,1,12,12,0,0,0-4,2.71,12.38,12.38,0,0,0-2.56,4,13.29,13.29,0,0,0-.91,4.9,13.46,13.46,0,0,0,.91,5,11.52,11.52,0,0,0,2.56,3.94,12,12,0,0,0,4,2.58l.24.08H202.36a12,12,0,0,0,3-2.17A12.35,12.35,0,0,0,208,37a14.08,14.08,0,0,0,0-10.22A12.08,12.08,0,0,0,201.23,20a14.08,14.08,0,0,0-5.27-1,13.93,13.93,0,0,0-5.22,1,12,12,0,0,0-6.8,6.76,13.94,13.94,0,0,0,0,10.22,12.32,12.32,0,0,0,2.68,4.07,12,12,0,0,0,3,2.17H170.45V31.6a12.93,12.93,0,0,1,.6-4.19,8.47,8.47,0,0,1,1.57-2.86,5.78,5.78,0,0,1,2.27-1.64,7.14,7.14,0,0,1,2.71-.52,10.24,10.24,0,0,1,1.46.1,6.53,6.53,0,0,1,1,.21l.47-3.39a7.59,7.59,0,0,0-1.12-.21c-.36,0-.77-.05-1.23-.05a8.63,8.63,0,0,0-7.82,4.8h-.1q0-.78-.06-2c0-.8-.08-1.53-.15-2.2H166.7q.11,1.26.15,2.82c0,1.05.06,1.9.06,2.56V43.23H143.12V26.93h6.57a19.61,19.61,0,0,0,5.14-.63,11.51,11.51,0,0,0,4-1.85,8.41,8.41,0,0,0,2.56-3.08,9.73,9.73,0,0,0,.91-4.36,10,10,0,0,0-.88-4.35,8.41,8.41,0,0,0-2.53-3.08,11.45,11.45,0,0,0-3.94-1.82,20.24,20.24,0,0,0-5.11-.6H139.36V43.23H2.48v1.1H192.65a14.23,14.23,0,0,0,3.31.38,14.51,14.51,0,0,0,3.35-.38h37.48a12.93,12.93,0,0,1-.51,3.28,8.4,8.4,0,0,1-1.64,3,7.74,7.74,0,0,1-2.95,2.06,11.68,11.68,0,0,1-4.43.76,11.53,11.53,0,0,1-5.35-1.31,11.75,11.75,0,0,1-4-3.18l-2.56,2.71a15.63,15.63,0,0,0,5.27,3.6,16.41,16.41,0,0,0,6.47,1.31,15,15,0,0,0,6.62-1.26,11.31,11.31,0,0,0,4.05-3.13,10.53,10.53,0,0,0,2-4.12,17.35,17.35,0,0,0,.53-3.77h34.75a13.21,13.21,0,0,0,3.19.38,13.73,13.73,0,0,0,3.23-.38h19.61a12.8,12.8,0,0,0,3.08.38,14.31,14.31,0,0,0,3.26-.38h16.82a12.8,12.8,0,0,0,3.08.38,14.31,14.31,0,0,0,3.26-.38h59.12a13.21,13.21,0,0,0,3.19.38,13.73,13.73,0,0,0,3.23-.38h74.46a11.37,11.37,0,0,0,2.9.38,13.85,13.85,0,0,0,3.28-.38h20.73a11.53,11.53,0,0,0,2.85.38,12.66,12.66,0,0,0,3.18-.38h25.88a15.11,15.11,0,0,0,3.44.38,13.65,13.65,0,0,0,3.3-.38h17.46a12.15,12.15,0,0,0,3.13.38,9.71,9.71,0,0,0,2.69-.38h22.4a12.74,12.74,0,0,0,3.08.38,14.44,14.44,0,0,0,3.26-.38h86.29ZM384.83,27a9,9,0,0,1,1.83-2.55,8.68,8.68,0,0,1,2.66-1.78,8.29,8.29,0,0,1,3.29-.65,7.52,7.52,0,0,1,5.86,2.27A8.75,8.75,0,0,1,400.69,30H384.05A8.33,8.33,0,0,1,384.83,27ZM270.18,27A9.18,9.18,0,0,1,272,24.45a8.8,8.8,0,0,1,2.66-1.78A8.29,8.29,0,0,1,278,22a7.56,7.56,0,0,1,5.87,2.27A8.79,8.79,0,0,1,286,30H269.4A8.33,8.33,0,0,1,270.18,27Zm-82.8,8.71a11.61,11.61,0,0,1,0-7.66,9.24,9.24,0,0,1,1.85-3.13A8.78,8.78,0,0,1,196,22a9.24,9.24,0,0,1,3.86.78,8.83,8.83,0,0,1,2.92,2.12,9.24,9.24,0,0,1,1.85,3.13,11.61,11.61,0,0,1,0,7.66,9.15,9.15,0,0,1-1.85,3.13,8.35,8.35,0,0,1-2.92,2.09,9.4,9.4,0,0,1-3.86.76,9.19,9.19,0,0,1-3.83-.76,8.46,8.46,0,0,1-2.9-2.09A9.15,9.15,0,0,1,187.38,35.71ZM143.12,10.39h6.36A11.87,11.87,0,0,1,156.13,12a5.61,5.61,0,0,1,2.38,5,5.86,5.86,0,0,1-2.3,5q-2.29,1.73-6.73,1.72h-6.36Zm353.6,24a7.78,7.78,0,0,1,2.95-1.59,20.18,20.18,0,0,1,4-.73q2.22-.18,4.41-.18h1.05v1.83a9,9,0,0,1-.53,3.07,7.71,7.71,0,0,1-1.51,2.59,7.11,7.11,0,0,1-2.45,1.77,8,8,0,0,1-3.34.65,9.56,9.56,0,0,1-2.06-.23,5.66,5.66,0,0,1-1.85-.79,4,4,0,0,1-1.33-1.43,4.43,4.43,0,0,1-.5-2.19A3.59,3.59,0,0,1,496.72,34.38Zm12.52,5.74h.1c0,.66,0,1.34.11,2,0,.37.08.73.13,1.07h-3.44A10.66,10.66,0,0,0,509.24,40.12ZM464.46,28a9.39,9.39,0,0,1,2-3.13,8.83,8.83,0,0,1,3-2.09,9.31,9.31,0,0,1,3.75-.76,9.43,9.43,0,0,1,3.92.78A8.6,8.6,0,0,1,480,24.92a9.3,9.3,0,0,1,1.8,3.13,12,12,0,0,1,0,7.66,9.2,9.2,0,0,1-1.8,3.13,8.14,8.14,0,0,1-2.89,2.09,9.59,9.59,0,0,1-3.92.76,9.14,9.14,0,0,1-3.75-.76,9,9,0,0,1-3-2.06,9.26,9.26,0,0,1-2-3.1,11,11,0,0,1,0-7.77Zm-.29,12h.11a10,10,0,0,0,3.56,3.26h-3.67ZM437.52,11.33l8.13,19.61H429.38ZM428,34.38h19.09l3.71,8.85H424.31ZM221,38.25a9.23,9.23,0,0,1-1.8-3,11.05,11.05,0,0,1,0-7.3,9.23,9.23,0,0,1,1.8-3,8.85,8.85,0,0,1,2.9-2.09,9.38,9.38,0,0,1,3.91-.78,9,9,0,0,1,3.76.78,9.84,9.84,0,0,1,3,2.09,9.7,9.7,0,0,1,2.66,6.68,10.27,10.27,0,0,1-.71,3.88,8.58,8.58,0,0,1-4.92,4.93,10,10,0,0,1-3.76.68,9.7,9.7,0,0,1-3.91-.75A8.63,8.63,0,0,1,221,38.25Zm11.69,4.58a9.3,9.3,0,0,0,4-3.54h.1v3.94h-5A8.55,8.55,0,0,0,232.71,42.83Zm332.4-2.92h.1c0,.53,0,1.19,0,2,0,.47,0,.91.08,1.33H562A8,8,0,0,0,565.11,39.91Z"/><path class="cls-5" d="M345.4,12.79a2.54,2.54,0,0,0,1.72-.7,2.32,2.32,0,0,0,.78-1.8,2.32,2.32,0,0,0-.78-1.8,2.44,2.44,0,0,0-3.44,0,2.32,2.32,0,0,0-.78,1.8,2.32,2.32,0,0,0,.78,1.8A2.54,2.54,0,0,0,345.4,12.79Z"/><g class="cls-6"><path class="cls-7" d="M71.76,136c26.69,0,40.09,4.27,40.09,6.65s-13.4,6.65-40.09,6.65-40.09-4.26-40.09-6.65S45.07,136,71.76,136m0-1c-23,0-41.11,3.43-41.11,7.67s18.1,7.68,41.11,7.68,41.12-3.44,41.12-7.68S94.77,135,71.76,135Z"/></g><g class="cls-6"><path class="cls-7" d="M112.88,142.69a1.85,1.85,0,0,1-.47,1.17,9.5,9.5,0,0,1-4,2.36A64.26,64.26,0,0,1,95.56,149a186.78,186.78,0,0,1-23.8,1.4c-16.35,0-30.23-1.74-36.89-4.26-2.45-.93-3.93-2-4.18-3.07a.18.18,0,0,1,0-.1.25.25,0,0,1,0-.12.3.3,0,0,1,0-.13.25.25,0,0,1,0-.12.3.3,0,0,1,0-.13.2.2,0,0,1,0-.1c.25-1.1,1.73-2.13,4.18-3.06,6.66-2.52,20.54-4.26,36.89-4.26,5.86,0,11.4.22,16.4.62,8.76.71,15.89,2,20.2,3.53a9.52,9.52,0,0,1,4,2.34s0,0,0,0A1.85,1.85,0,0,1,112.88,142.69Z"/></g><g class="cls-6"><path class="cls-7" d="M112.88,142.69a.93.93,0,0,1-.25.54c-.38.47-1.32,1.2-3.67,2.05A65,65,0,0,1,96.22,148l-1.44.17a193.64,193.64,0,0,1-22.52,1.22c-15.89,0-30.07-1.61-37-4.2-2.94-1.1-3.49-2-3.59-2.3l0-.17,0-.18c.09-.31.63-1.2,3.59-2.31,6.92-2.58,21.1-4.19,37-4.19,5.78,0,11.34.21,16.52.62h.06c8.71.71,15.85,1.93,20.13,3.47,2.45.88,3.33,1.65,3.64,2l.07.08a1.05,1.05,0,0,1,.19.36A.41.41,0,0,1,112.88,142.69Z"/></g><path class="cls-7" d="M71.7,124c8.51,0,8.51,0,17,4.27a197.66,197.66,0,0,1,19.58,10.88c2.33,1.55,3.41,2.68,3.41,3.54s-1.08,2-3.41,3.54a195.61,195.61,0,0,1-19.58,10.88c-8.54,4.27-8.54,4.27-17,4.27s-8.52,0-17.06-4.27a195.61,195.61,0,0,1-19.58-10.88c-2.33-1.55-3.41-2.67-3.41-3.54s1.08-2,3.41-3.54a197.66,197.66,0,0,1,19.58-10.88C63.18,124,63.18,124,71.7,124m0-1c-8.76,0-8.76,0-17.51,4.38a197,197,0,0,0-19.68,10.94c-5.15,3.43-5.15,5.31,0,8.75A196.65,196.65,0,0,0,54.19,158c8.75,4.38,8.75,4.38,17.51,4.38s8.75,0,17.5-4.38a196.65,196.65,0,0,0,19.68-10.93c5.15-3.44,5.15-5.32,0-8.75A197,197,0,0,0,89.2,127.38C80.45,123,80.45,123,71.7,123Z"/><g class="cls-6"><path class="cls-7" d="M112.41,143.86a9.5,9.5,0,0,1-4,2.36l0,0c-.93.62-1.9,1.23-2.9,1.85,1.35-.35,2.56-.73,3.45-1A197.93,197.93,0,0,1,89.19,158c-8.75,4.37-8.75,4.37-17.5,4.37s-8.75,0-17.5-4.37A200.2,200.2,0,0,1,34.5,147.07c-2.35-1.57-3.62-2.81-3.81-4a.18.18,0,0,1,0-.1.25.25,0,0,1,0-.12,1,1,0,0,1,0-.25.3.3,0,0,1,0-.13.2.2,0,0,1,0-.1c.19-1.21,1.46-2.46,3.81-4a198.13,198.13,0,0,1,19.69-10.94C62.94,123,62.94,123,71.69,123a49.41,49.41,0,0,1,7.49.3h0c2.69.42,4.8,1.48,10,4.07a195.91,195.91,0,0,1,19.69,10.94,10.94,10.94,0,0,1,3.52,3.19s0,0,0,0A2.24,2.24,0,0,1,112.41,143.86Z"/></g><g class="cls-8"><path class="cls-9" d="M112.88,142.69a.93.93,0,0,1-.25.54c-.38.47-1.32,1.2-3.67,2.05A65,65,0,0,1,96.22,148l-1.44.17a1.14,1.14,0,0,1-.08-.46c0-1.18-.8-3.48-5.86-11.05l-.68-1C87.6,134.82,87,134,86.35,133c-2.2-3.15-4.62-6.36-6.26-8.51-.34-.45-.65-.85-.9-1.2,2.69.42,4.8,1.48,10,4.07a195.91,195.91,0,0,1,19.69,10.94,10.94,10.94,0,0,1,3.52,3.19s0,0,0,0a1.87,1.87,0,0,1,.46,1.06A.41.41,0,0,1,112.88,142.69Z"/></g><g class="cls-10"><path class="cls-9" d="M112.88,142.69a.93.93,0,0,1-.25.54c-.38.47-1.32,1.2-3.67,2.05A65,65,0,0,1,96.22,148l-1.44.17a1.14,1.14,0,0,1-.08-.46c0-1.18-.8-3.48-5.86-11.05l-.68-1C87.6,134.82,87,134,86.35,133c-2.2-3.15-4.62-6.36-6.26-8.51-.34-.45-.65-.85-.9-1.2,2.69.42,4.8,1.48,10,4.07a195.91,195.91,0,0,1,19.69,10.94,10.94,10.94,0,0,1,3.52,3.19s0,0,0,0a1.87,1.87,0,0,1,.46,1.06A.41.41,0,0,1,112.88,142.69Z"/></g><g class="cls-6"><path class="cls-7" d="M71.76,175.41c26.69,0,40.09,4.26,40.09,6.64s-13.4,6.65-40.09,6.65-40.09-4.26-40.09-6.65,13.4-6.64,40.09-6.64m0-1c-23,0-41.11,3.43-41.11,7.67s18.1,7.68,41.11,7.68,41.12-3.44,41.12-7.68-18.11-7.67-41.12-7.67Z"/></g><g class="cls-6"><path class="cls-7" d="M112.88,182.05a1.85,1.85,0,0,1-.47,1.17,9.5,9.5,0,0,1-4,2.36,64.26,64.26,0,0,1-12.8,2.75,186.78,186.78,0,0,1-23.8,1.4c-16.35,0-30.23-1.74-36.89-4.26-2.45-.93-3.93-2-4.18-3.07a.18.18,0,0,1,0-.1.25.25,0,0,1,0-.12.3.3,0,0,1,0-.13.25.25,0,0,1,0-.12.3.3,0,0,1,0-.13.2.2,0,0,1,0-.1c.25-1.1,1.73-2.13,4.18-3.06,6.66-2.52,20.54-4.26,36.89-4.26,5.86,0,11.4.22,16.4.62,8.76.71,15.89,2,20.2,3.53a9.52,9.52,0,0,1,4,2.34h0A1.85,1.85,0,0,1,112.88,182.05Z"/></g><g class="cls-6"><path class="cls-7" d="M112.88,182.05a.93.93,0,0,1-.25.54c-.38.47-1.32,1.2-3.67,2a65,65,0,0,1-12.74,2.7l-1.44.17a193.64,193.64,0,0,1-22.52,1.22c-15.89,0-30.07-1.61-37-4.2-2.94-1.1-3.49-2-3.59-2.3l0-.17,0-.18c.09-.31.63-1.2,3.59-2.31,6.92-2.58,21.1-4.19,37-4.19,5.78,0,11.34.21,16.52.62h.06c8.71.71,15.85,1.93,20.13,3.47,2.45.88,3.33,1.65,3.64,2l.07.08a1.05,1.05,0,0,1,.19.36A.41.41,0,0,1,112.88,182.05Z"/></g><path class="cls-7" d="M71.7,163.36c8.51,0,8.51,0,17,4.28a197.29,197.29,0,0,1,19.58,10.87c2.33,1.55,3.41,2.68,3.41,3.54s-1.08,2-3.41,3.54a195.61,195.61,0,0,1-19.58,10.88c-8.54,4.27-8.54,4.27-17,4.27s-8.52,0-17.06-4.27a195.61,195.61,0,0,1-19.58-10.88c-2.33-1.55-3.41-2.67-3.41-3.54s1.08-2,3.41-3.54a199.74,199.74,0,0,1,19.58-10.88c8.54-4.27,8.54-4.27,17.06-4.27m0-1c-8.76,0-8.76,0-17.51,4.38a197,197,0,0,0-19.68,10.94c-5.15,3.43-5.15,5.31,0,8.75a196.65,196.65,0,0,0,19.68,10.93c8.75,4.38,8.75,4.38,17.51,4.38s8.75,0,17.5-4.38a196.65,196.65,0,0,0,19.68-10.93c5.15-3.44,5.15-5.32,0-8.75A197,197,0,0,0,89.2,166.74c-8.75-4.38-8.75-4.38-17.5-4.38Z"/><g class="cls-6"><path class="cls-7" d="M112.41,183.22a9.5,9.5,0,0,1-4,2.36l0,0c-.93.62-1.9,1.23-2.9,1.85,1.35-.35,2.56-.73,3.45-1a197.93,197.93,0,0,1-19.69,10.94c-8.75,4.37-8.75,4.37-17.5,4.37s-8.75,0-17.5-4.37A200.2,200.2,0,0,1,34.5,186.43c-2.35-1.57-3.62-2.81-3.81-4a.18.18,0,0,1,0-.1.25.25,0,0,1,0-.12,1,1,0,0,1,0-.25.3.3,0,0,1,0-.13.2.2,0,0,1,0-.1c.19-1.21,1.46-2.46,3.81-4a198.13,198.13,0,0,1,19.69-10.94c8.75-4.37,8.75-4.37,17.5-4.37a49.41,49.41,0,0,1,7.49.3h0c2.69.42,4.8,1.48,10,4.07a195.91,195.91,0,0,1,19.69,10.94,10.94,10.94,0,0,1,3.52,3.19h0A2.24,2.24,0,0,1,112.41,183.22Z"/></g><g class="cls-8"><path class="cls-9" d="M112.88,182.05a.93.93,0,0,1-.25.54c-.38.47-1.32,1.2-3.67,2a65,65,0,0,1-12.74,2.7l-1.44.17a1.14,1.14,0,0,1-.08-.46c0-1.18-.8-3.48-5.86-11.05l-.68-1c-.56-.82-1.16-1.69-1.81-2.62-2.2-3.15-4.62-6.36-6.26-8.51-.34-.45-.65-.85-.9-1.2,2.69.42,4.8,1.48,10,4.07a195.91,195.91,0,0,1,19.69,10.94,10.94,10.94,0,0,1,3.52,3.19h0a1.87,1.87,0,0,1,.46,1.06A.41.41,0,0,1,112.88,182.05Z"/></g><g class="cls-10"><path class="cls-9" d="M112.88,182.05a.93.93,0,0,1-.25.54c-.38.47-1.32,1.2-3.67,2a65,65,0,0,1-12.74,2.7l-1.44.17a1.14,1.14,0,0,1-.08-.46c0-1.18-.8-3.48-5.86-11.05l-.68-1c-.56-.82-1.16-1.69-1.81-2.62-2.2-3.15-4.62-6.36-6.26-8.51-.34-.45-.65-.85-.9-1.2,2.69.42,4.8,1.48,10,4.07a195.91,195.91,0,0,1,19.69,10.94,10.94,10.94,0,0,1,3.52,3.19h0a1.87,1.87,0,0,1,.46,1.06A.41.41,0,0,1,112.88,182.05Z"/></g><g class="cls-6"><path class="cls-7" d="M72.17,96.69c26.7,0,40.09,4.26,40.09,6.65S98.87,110,72.17,110s-40.08-4.26-40.08-6.64,13.39-6.65,40.08-6.65m0-1c-23,0-41.11,3.44-41.11,7.68S49.16,111,72.17,111s41.12-3.43,41.12-7.67-18.11-7.68-41.12-7.68Z"/></g><g class="cls-6"><path class="cls-7" d="M113.3,103.33a1.85,1.85,0,0,1-.47,1.17,9.5,9.5,0,0,1-4,2.36A64.26,64.26,0,0,1,96,109.61a186.78,186.78,0,0,1-23.8,1.4c-16.35,0-30.23-1.74-36.89-4.26-2.45-.93-3.93-2-4.18-3.07a.18.18,0,0,1,0-.1.25.25,0,0,1,0-.12.3.3,0,0,1,0-.13.25.25,0,0,1,0-.12.3.3,0,0,1,0-.13.2.2,0,0,1,0-.1c.25-1.1,1.73-2.13,4.18-3.06C42,97.4,55.83,95.66,72.18,95.66c5.86,0,11.4.22,16.4.62,8.76.71,15.89,2,20.2,3.53a9.52,9.52,0,0,1,4,2.34h0A1.85,1.85,0,0,1,113.3,103.33Z"/></g><g class="cls-6"><path class="cls-7" d="M113.3,103.33a.93.93,0,0,1-.25.54c-.38.47-1.32,1.2-3.67,2a65,65,0,0,1-12.74,2.7l-1.44.17A193.64,193.64,0,0,1,72.68,110c-15.89,0-30.07-1.61-37-4.2-2.94-1.1-3.49-2-3.59-2.3l0-.17,0-.18c.09-.31.63-1.2,3.59-2.31,6.92-2.58,21.1-4.19,37-4.19,5.78,0,11.34.21,16.52.62h.06c8.71.71,15.85,1.93,20.13,3.47,2.45.88,3.33,1.65,3.64,2l.07.08a1.05,1.05,0,0,1,.19.36A.41.41,0,0,1,113.3,103.33Z"/></g><path class="cls-7" d="M72.11,84.65c8.51,0,8.51,0,17.06,4.27a199.37,199.37,0,0,1,19.57,10.87c2.33,1.56,3.42,2.68,3.42,3.55s-1.09,2-3.42,3.54a197.66,197.66,0,0,1-19.58,10.88c-8.54,4.27-8.54,4.27-17,4.27s-8.52,0-17.06-4.27a198.79,198.79,0,0,1-19.58-10.88c-2.33-1.55-3.41-2.68-3.41-3.54s1.08-2,3.41-3.55A199.37,199.37,0,0,1,55.05,88.92c8.54-4.27,8.54-4.27,17.06-4.27m0-1c-8.75,0-8.75,0-17.5,4.38A195.56,195.56,0,0,0,34.92,99c-5.15,3.44-5.15,5.32,0,8.75a195.91,195.91,0,0,0,19.69,10.94C63.36,123,63.36,123,72.11,123s8.75,0,17.5-4.38a198.13,198.13,0,0,0,19.69-10.94c5.14-3.43,5.14-5.31,0-8.75A197.77,197.77,0,0,0,89.61,88c-8.75-4.38-8.75-4.38-17.5-4.38Z"/><g class="cls-6"><path class="cls-7" d="M112.83,104.5a9.5,9.5,0,0,1-4,2.36l0,0c-.93.62-1.9,1.23-2.9,1.85,1.35-.35,2.56-.73,3.45-1a197.93,197.93,0,0,1-19.69,10.94C80.86,123,80.86,123,72.11,123s-8.75,0-17.5-4.37a200.2,200.2,0,0,1-19.69-10.94c-2.35-1.57-3.62-2.81-3.81-4a.18.18,0,0,1,0-.1.25.25,0,0,1,0-.12,1,1,0,0,1,0-.25.3.3,0,0,1,0-.13.2.2,0,0,1,0-.1c.19-1.21,1.46-2.46,3.81-4A198.13,198.13,0,0,1,54.61,88c8.75-4.37,8.75-4.37,17.5-4.37a49.41,49.41,0,0,1,7.49.3h0c2.69.42,4.8,1.48,10,4.07A195.91,195.91,0,0,1,109.3,99a10.94,10.94,0,0,1,3.52,3.19h0A2.24,2.24,0,0,1,112.83,104.5Z"/></g><g class="cls-6"><path class="cls-7" d="M71.76,57.35c26.69,0,40.09,4.26,40.09,6.64s-13.4,6.65-40.09,6.65S31.67,66.38,31.67,64s13.4-6.64,40.09-6.64m0-1c-23,0-41.11,3.44-41.11,7.67s18.1,7.68,41.11,7.68,41.12-3.44,41.12-7.68-18.11-7.67-41.12-7.67Z"/></g><g class="cls-6"><path class="cls-7" d="M112.88,64a1.85,1.85,0,0,1-.47,1.17,9.5,9.5,0,0,1-4,2.36,64.26,64.26,0,0,1-12.8,2.75,186.78,186.78,0,0,1-23.8,1.4c-16.35,0-30.23-1.74-36.89-4.26-2.45-.93-3.93-2-4.18-3.07a.18.18,0,0,1,0-.1.25.25,0,0,1,0-.12.3.3,0,0,1,0-.13.25.25,0,0,1,0-.12.3.3,0,0,1,0-.13.2.2,0,0,1,0-.1c.25-1.1,1.73-2.13,4.18-3.06,6.66-2.52,20.54-4.26,36.89-4.26,5.86,0,11.4.22,16.4.62,8.76.71,15.89,2,20.2,3.53a9.52,9.52,0,0,1,4,2.34h0A1.85,1.85,0,0,1,112.88,64Z"/></g><g class="cls-6"><path class="cls-7" d="M112.88,64a.93.93,0,0,1-.25.54c-.38.47-1.32,1.2-3.67,2a65,65,0,0,1-12.74,2.7l-1.44.17a193.64,193.64,0,0,1-22.52,1.22c-15.89,0-30.07-1.61-37-4.2-2.94-1.1-3.49-2-3.59-2.3l0-.17,0-.18c.09-.31.63-1.2,3.59-2.31,6.92-2.58,21.1-4.19,37-4.19,5.78,0,11.34.21,16.52.62h.06c8.71.71,15.85,1.93,20.13,3.47,2.45.88,3.33,1.65,3.64,2l.07.08a1.05,1.05,0,0,1,.19.36A.41.41,0,0,1,112.88,64Z"/></g><path class="cls-7" d="M71.7,45.31c8.51,0,8.51,0,17,4.27a197.29,197.29,0,0,1,19.58,10.87c2.33,1.56,3.41,2.68,3.41,3.54s-1.08,2-3.41,3.55A197.29,197.29,0,0,1,88.75,78.41c-8.54,4.27-8.54,4.27-17,4.27s-8.52,0-17.06-4.27A197.29,197.29,0,0,1,35.06,67.54C32.73,66,31.65,64.86,31.65,64s1.08-2,3.41-3.54A197.29,197.29,0,0,1,54.64,49.58c8.54-4.27,8.54-4.27,17.06-4.27m0-1c-8.76,0-8.76,0-17.51,4.37A197,197,0,0,0,34.51,59.62c-5.15,3.43-5.15,5.32,0,8.75A199.06,199.06,0,0,0,54.19,79.31c8.75,4.37,8.75,4.37,17.51,4.37s8.75,0,17.5-4.37a199.06,199.06,0,0,0,19.68-10.94c5.15-3.43,5.15-5.32,0-8.75A197,197,0,0,0,89.2,48.68c-8.75-4.37-8.75-4.37-17.5-4.37Z"/><g class="cls-6"><path class="cls-7" d="M112.41,65.16a9.5,9.5,0,0,1-4,2.36l0,0c-.93.62-1.9,1.23-2.9,1.85,1.35-.35,2.56-.73,3.45-1A197.93,197.93,0,0,1,89.19,79.31c-8.75,4.37-8.75,4.37-17.5,4.37s-8.75,0-17.5-4.37A200.2,200.2,0,0,1,34.5,68.37c-2.35-1.57-3.62-2.81-3.81-4a.18.18,0,0,1,0-.1.25.25,0,0,1,0-.12,1,1,0,0,1,0-.25.3.3,0,0,1,0-.13.2.2,0,0,1,0-.1c.19-1.21,1.46-2.46,3.81-4A198.13,198.13,0,0,1,54.19,48.68c8.75-4.37,8.75-4.37,17.5-4.37a49.41,49.41,0,0,1,7.49.3h0c2.69.42,4.8,1.48,10,4.07a195.91,195.91,0,0,1,19.69,10.94,10.94,10.94,0,0,1,3.52,3.19h0A2.24,2.24,0,0,1,112.41,65.16Z"/></g><g class="cls-8"><path class="cls-9" d="M112.88,64a.93.93,0,0,1-.25.54c-.38.47-1.32,1.2-3.67,2a65,65,0,0,1-12.74,2.7l-1.44.17A1.14,1.14,0,0,1,94.7,69c0-1.18-.8-3.48-5.86-11l-.68-1c-.56-.82-1.16-1.69-1.81-2.62-2.2-3.15-4.62-6.36-6.26-8.51-.34-.45-.65-.85-.9-1.2,2.69.42,4.8,1.48,10,4.07a195.91,195.91,0,0,1,19.69,10.94,10.94,10.94,0,0,1,3.52,3.19h0a1.87,1.87,0,0,1,.46,1.06A.41.41,0,0,1,112.88,64Z"/></g><g class="cls-10"><path class="cls-9" d="M112.88,64a.93.93,0,0,1-.25.54c-.38.47-1.32,1.2-3.67,2a65,65,0,0,1-12.74,2.7l-1.44.17A1.14,1.14,0,0,1,94.7,69c0-1.18-.8-3.48-5.86-11l-.68-1c-.56-.82-1.16-1.69-1.81-2.62-2.2-3.15-4.62-6.36-6.26-8.51-.34-.45-.65-.85-.9-1.2,2.69.42,4.8,1.48,10,4.07a195.91,195.91,0,0,1,19.69,10.94,10.94,10.94,0,0,1,3.52,3.19h0a1.87,1.87,0,0,1,.46,1.06A.41.41,0,0,1,112.88,64Z"/></g><g class="cls-6"><path class="cls-7" d="M71.76,15.9c26.69,0,40.09,4.26,40.09,6.64s-13.4,6.65-40.09,6.65-40.09-4.26-40.09-6.65,13.4-6.64,40.09-6.64m0-1c-23,0-41.11,3.44-41.11,7.67s18.1,7.68,41.11,7.68,41.12-3.44,41.12-7.68-18.11-7.67-41.12-7.67Z"/></g><g class="cls-6"><path class="cls-7" d="M112.88,22.54a1.85,1.85,0,0,1-.47,1.17,9.5,9.5,0,0,1-4,2.36,64.26,64.26,0,0,1-12.8,2.75,186.78,186.78,0,0,1-23.8,1.4c-16.35,0-30.23-1.74-36.89-4.26-2.45-.93-3.93-2-4.18-3.07a.18.18,0,0,1,0-.1.25.25,0,0,1,0-.12.3.3,0,0,1,0-.13.25.25,0,0,1,0-.12.3.3,0,0,1,0-.13.2.2,0,0,1,0-.1c.25-1.1,1.73-2.13,4.18-3.06,6.66-2.52,20.54-4.26,36.89-4.26,5.86,0,11.4.22,16.4.62,8.76.71,15.89,2,20.2,3.53a9.52,9.52,0,0,1,4,2.34s0,0,0,0A1.85,1.85,0,0,1,112.88,22.54Z"/></g><g class="cls-6"><path class="cls-7" d="M112.88,22.54a.93.93,0,0,1-.25.54c-.38.47-1.32,1.2-3.67,2.05a65,65,0,0,1-12.74,2.7L94.78,28a193.64,193.64,0,0,1-22.52,1.22c-15.89,0-30.07-1.61-37-4.2-2.94-1.1-3.49-2-3.59-2.3l0-.17,0-.18c.09-.31.63-1.2,3.59-2.31,6.92-2.58,21.1-4.19,37-4.19,5.78,0,11.34.21,16.52.62h.06c8.71.71,15.85,1.93,20.13,3.47,2.45.88,3.33,1.65,3.64,2l.07.08a1.05,1.05,0,0,1,.19.36A.41.41,0,0,1,112.88,22.54Z"/></g><path class="cls-7" d="M71.7,3.86c8.51,0,8.51,0,17,4.27A197.29,197.29,0,0,1,108.33,19c2.33,1.55,3.41,2.68,3.41,3.54s-1.08,2-3.41,3.55A197.29,197.29,0,0,1,88.75,37c-8.54,4.27-8.54,4.27-17,4.27s-8.52,0-17.06-4.27A197.29,197.29,0,0,1,35.06,26.09c-2.33-1.56-3.41-2.68-3.41-3.55s1.08-2,3.41-3.54A197.29,197.29,0,0,1,54.64,8.13c8.54-4.27,8.54-4.27,17.06-4.27m0-1c-8.76,0-8.76,0-17.51,4.37A197,197,0,0,0,34.51,18.17c-5.15,3.43-5.15,5.32,0,8.75A199.06,199.06,0,0,0,54.19,37.86c8.75,4.37,8.75,4.37,17.51,4.37s8.75,0,17.5-4.37a199.06,199.06,0,0,0,19.68-10.94c5.15-3.43,5.15-5.32,0-8.75A197,197,0,0,0,89.2,7.23c-8.75-4.37-8.75-4.37-17.5-4.37Z"/><g class="cls-6"><path class="cls-7" d="M112.41,23.71a9.5,9.5,0,0,1-4,2.36l0,0c-.93.62-1.9,1.23-2.9,1.85,1.35-.35,2.56-.73,3.45-1A197.93,197.93,0,0,1,89.19,37.86c-8.75,4.37-8.75,4.37-17.5,4.37s-8.75,0-17.5-4.37A200.2,200.2,0,0,1,34.5,26.92c-2.35-1.57-3.62-2.81-3.81-4a.18.18,0,0,1,0-.1.25.25,0,0,1,0-.12,1,1,0,0,1,0-.25.3.3,0,0,1,0-.13.2.2,0,0,1,0-.1c.19-1.21,1.46-2.46,3.81-4A198.13,198.13,0,0,1,54.19,7.23c8.75-4.37,8.75-4.37,17.5-4.37a49.41,49.41,0,0,1,7.49.3h0c2.69.42,4.8,1.48,10,4.07a195.91,195.91,0,0,1,19.69,10.94,10.94,10.94,0,0,1,3.52,3.19s0,0,0,0A2.24,2.24,0,0,1,112.41,23.71Z"/></g><g class="cls-8"><path class="cls-9" d="M112.88,22.54a.93.93,0,0,1-.25.54c-.38.47-1.32,1.2-3.67,2.05a65,65,0,0,1-12.74,2.7L94.78,28a1.14,1.14,0,0,1-.08-.46c0-1.18-.8-3.48-5.86-11l-.68-1c-.56-.82-1.16-1.69-1.81-2.62-2.2-3.15-4.62-6.36-6.26-8.51-.34-.45-.65-.85-.9-1.2,2.69.42,4.8,1.48,10,4.07a195.91,195.91,0,0,1,19.69,10.94,10.94,10.94,0,0,1,3.52,3.19s0,0,0,0a1.87,1.87,0,0,1,.46,1.06A.41.41,0,0,1,112.88,22.54Z"/></g><g class="cls-10"><path class="cls-9" d="M112.88,22.54a.93.93,0,0,1-.25.54c-.38.47-1.32,1.2-3.67,2.05a65,65,0,0,1-12.74,2.7L94.78,28a1.14,1.14,0,0,1-.08-.46c0-1.18-.8-3.48-5.86-11l-.68-1c-.56-.82-1.16-1.69-1.81-2.62-2.2-3.15-4.62-6.36-6.26-8.51-.34-.45-.65-.85-.9-1.2,2.69.42,4.8,1.48,10,4.07a195.91,195.91,0,0,1,19.69,10.94,10.94,10.94,0,0,1,3.52,3.19s0,0,0,0a1.87,1.87,0,0,1,.46,1.06A.41.41,0,0,1,112.88,22.54Z"/></g><g class="cls-8"><path class="cls-9" d="M113.3,103.33a.93.93,0,0,1-.25.54c-.38.47-1.32,1.2-3.67,2a65,65,0,0,1-12.74,2.7l-1.44.17a1.14,1.14,0,0,1-.08-.46c0-1.18-.8-3.48-5.86-11l-.68-1c-.56-.82-1.16-1.69-1.81-2.62-2.2-3.15-4.62-6.36-6.26-8.51-.34-.45-.65-.85-.9-1.2,2.69.42,4.8,1.48,10,4.07A195.91,195.91,0,0,1,109.3,99a10.94,10.94,0,0,1,3.52,3.19h0a1.87,1.87,0,0,1,.46,1.06A.41.41,0,0,1,113.3,103.33Z"/></g><g class="cls-10"><path class="cls-9" d="M113.3,103.33a.93.93,0,0,1-.25.54c-.38.47-1.32,1.2-3.67,2a65,65,0,0,1-12.74,2.7l-1.44.17a1.14,1.14,0,0,1-.08-.46c0-1.18-.8-3.48-5.86-11l-.68-1c-.56-.82-1.16-1.69-1.81-2.62-2.2-3.15-4.62-6.36-6.26-8.51-.34-.45-.65-.85-.9-1.2,2.69.42,4.8,1.48,10,4.07A195.91,195.91,0,0,1,109.3,99a10.94,10.94,0,0,1,3.52,3.19h0a1.87,1.87,0,0,1,.46,1.06A.41.41,0,0,1,113.3,103.33Z"/></g></g></svg>