<svg xmlns="http://www.w3.org/2000/svg" xmlns:xlink="http://www.w3.org/1999/xlink" viewBox="0 0 454.75 338.09"><defs><style>.cls-1{fill:url(#linear-gradient);}.cls-2{fill:url(#linear-gradient-2);}</style><linearGradient id="linear-gradient" x1="14.21" y1="169.04" x2="440.54" y2="169.04" gradientUnits="userSpaceOnUse"><stop offset="0" stop-color="#267855"/><stop offset="0.86" stop-color="#edce8c"/></linearGradient><linearGradient id="linear-gradient-2" x1="38.21" y1="169.04" x2="416.54" y2="169.04" xlink:href="#linear-gradient"/></defs><title>arrowarrow_6</title><g id="Layer_4" data-name="Layer 4"><path class="cls-1" d="M202.79,34.18a16.12,16.12,0,0,1,8.05,2.17L416.48,155.08a16.13,16.13,0,0,1,0,27.93L210.84,301.73a16.11,16.11,0,0,1-24.19-14V227.55H46.33a16.14,16.14,0,0,1-16.12-16.12V125.86a16.14,16.14,0,0,1,16.12-16.12H186.65V50.32a16.16,16.16,0,0,1,16.14-16.14m0-16a32.18,32.18,0,0,0-32.14,32.14V93.74H46.33a32.16,32.16,0,0,0-32.12,32.12v85.57a32.16,32.16,0,0,0,32.12,32.12H170.65v44.22a32.18,32.18,0,0,0,32.14,32.13h0a32.18,32.18,0,0,0,16.05-4.31L424.48,196.86a32.13,32.13,0,0,0,0-55.64L218.84,22.5a32.09,32.09,0,0,0-16.05-4.32Z"/><path class="cls-2" d="M412.48,162,206.84,43.28a8.13,8.13,0,0,0-12.19,7v67.42H46.33a8.12,8.12,0,0,0-8.12,8.12v85.57a8.12,8.12,0,0,0,8.12,8.12H194.65v68.22a8.12,8.12,0,0,0,12.19,7L412.48,176.08A8.13,8.13,0,0,0,412.48,162Z"/></g></svg>