<svg xmlns="http://www.w3.org/2000/svg" viewBox="0 0 200 200"><defs><style>.cls-1{fill:#996aab;}</style></defs><title>lineArtboard 1 copy 4</title><g id="Layer_15" data-name="Layer 15"><path class="cls-1" d="M110.35,59.77q.59,10,.78,20c.16,6.66.21,13.32.22,20s-.06,13.32-.22,20-.39,13.32-.78,20q-.57-10-.77-20c-.16-6.66-.21-13.32-.23-20s.06-13.32.22-20S110,66.43,110.35,59.77Z"/><path class="cls-1" d="M89.29,59.77A1.09,1.09,0,0,1,89.4,59a3.51,3.51,0,0,1,.5-.65,6.89,6.89,0,0,1,1.27-.91A13.18,13.18,0,0,1,94,56.29a22.61,22.61,0,0,1,11.7,0,13.14,13.14,0,0,1,2.8,1.13,7.45,7.45,0,0,1,1.27.92,3.51,3.51,0,0,1,.5.65,1.09,1.09,0,0,1,.11.78,1.52,1.52,0,0,0-1-.72,9.59,9.59,0,0,0-1.32-.24c-.89-.1-1.8-.16-2.7-.2-1.82-.07-3.64-.08-5.46-.09s-3.64,0-5.46.09c-.91,0-1.81.09-2.71.2a8.17,8.17,0,0,0-1.31.24A1.5,1.5,0,0,0,89.29,59.77Z"/><path class="cls-1" d="M89.29,139.69q-.58-10-.78-20c-.16-6.66-.2-13.32-.22-20s.06-13.32.22-20,.39-13.32.78-20q.57,10,.78,20c.15,6.66.2,13.32.21,20s-.06,13.32-.22,20S89.67,133,89.29,139.69Z"/><path class="cls-1" d="M188.85,100a.57.57,0,0,1,0,.26h0a.37.37,0,0,1-.05.23h0a6.51,6.51,0,0,1-1.26,2.87,15.88,15.88,0,0,1-2.14,2.35,45.77,45.77,0,0,1-5,3.88c-3.49,2.38-7,4.63-10.66,6.81-7.23,4.35-14.61,8.43-22.06,12.39-3.72,2-7.48,3.88-11.23,5.79s-7.5,3.85-11.42,5.55a41.89,41.89,0,0,1-6.1,2.13,37.69,37.69,0,0,1-6.4,1c-4.27.32-8.49.29-12.7.34s-8.42.11-12.72-.14a35.7,35.7,0,0,1-6.45-.93,41.42,41.42,0,0,1-6.17-2.08c-4-1.66-7.72-3.57-11.5-5.43s-7.54-3.76-11.3-5.68c-7.52-3.83-15-7.8-22.29-12.06-3.65-2.12-7.27-4.33-10.82-6.67a47.19,47.19,0,0,1-5.23-3.89A17.23,17.23,0,0,1,11,104.21a8,8,0,0,1-1.59-3.5l.21.57a1.64,1.64,0,0,1-.25-.67,2.16,2.16,0,0,1,0-.35l0,.32a1.45,1.45,0,0,1,0-.27,1.83,1.83,0,0,1,.06-.74l0,.66a8.34,8.34,0,0,1,0-1l0,.66a1.83,1.83,0,0,1-.06-.77l0-.18,0,.24a2.52,2.52,0,0,1,0-.38,2.33,2.33,0,0,1,.17-.51l-.14.44A8.08,8.08,0,0,1,11,95.23a16.71,16.71,0,0,1,2.37-2.51,46.18,46.18,0,0,1,5.23-3.88c3.54-2.34,7.16-4.55,10.82-6.68,7.31-4.25,14.77-8.22,22.28-12,3.76-1.92,7.53-3.79,11.31-5.66S70.53,60.68,74.48,59a42.6,42.6,0,0,1,6.17-2.08A37.56,37.56,0,0,1,87.1,56c4.3-.25,8.51-.15,12.72-.14s8.42,0,12.7.34a37.85,37.85,0,0,1,6.4,1,41.89,41.89,0,0,1,6.1,2.13c3.92,1.7,7.66,3.65,11.42,5.55s7.5,3.82,11.23,5.78c7.45,4,14.84,8,22.06,12.39,3.6,2.17,7.17,4.43,10.65,6.81a43.45,43.45,0,0,1,5,3.87,15.88,15.88,0,0,1,2.14,2.35A6.51,6.51,0,0,1,188.8,99h0a.48.48,0,0,1,0,.23h0a.54.54,0,0,1,0,.28h0Zm0,0v-.54h0a.82.82,0,0,0,0-.27h0a.38.38,0,0,0,0-.21h0a6.62,6.62,0,0,0-1.36-2.79,15.46,15.46,0,0,0-2.19-2.24,45.27,45.27,0,0,0-5.11-3.67c-3.53-2.28-7.14-4.43-10.8-6.51C162,79.6,154.53,75.73,147,72L135.68,66.4c-3.78-1.84-7.56-3.72-11.39-5.31a39.19,39.19,0,0,0-5.84-1.94,36.33,36.33,0,0,0-6.08-.85c-4.13-.24-8.34-.14-12.55-.12s-8.42,0-12.54.33a35.41,35.41,0,0,0-6,.91,38.61,38.61,0,0,0-5.77,2C71.69,63,67.94,65,64.18,66.83s-7.52,3.78-11.25,5.71c-7.47,3.86-14.86,7.84-22.08,12.09C27.24,86.76,23.67,89,20.2,91.28a43.42,43.42,0,0,0-4.88,3.66c-1.45,1.29-2.77,2.83-3,4.25l-.14.44a1.11,1.11,0,0,0,.09-.29c0-.12,0-.2,0-.16v.12l0,.13c0,.1,0,.15,0,.09a1.34,1.34,0,0,0,0-.49l0,.66a.06.06,0,0,1,0,.08l0,.66a1.27,1.27,0,0,0,0-.48c0-.09,0-.1,0,0l0,.19v.14a1.3,1.3,0,0,0-.19-.57l.21.56c.21,1.43,1.53,3,3,4.27a45.65,45.65,0,0,0,4.88,3.66c3.47,2.31,7,4.51,10.65,6.64,7.22,4.25,14.62,8.24,22.08,12.1,3.73,1.93,7.49,3.83,11.25,5.72s7.51,3.81,11.31,5.43a39.85,39.85,0,0,0,5.78,2,36.44,36.44,0,0,0,6,.92c4.11.31,8.33.28,12.54.33s8.42.12,12.55-.12a36,36,0,0,0,6.08-.85,40.49,40.49,0,0,0,5.85-1.94c3.83-1.59,7.6-3.47,11.39-5.31l11.31-5.6c7.54-3.74,15-7.62,22.32-11.77,3.66-2.08,7.27-4.23,10.81-6.51a45.15,45.15,0,0,0,5.1-3.67,15,15,0,0,0,2.19-2.25,6.43,6.43,0,0,0,1.36-2.8h0a.4.4,0,0,0,.05-.22h0A.58.58,0,0,0,188.85,100Z"/><path class="cls-1" d="M121.07,139.69a2.15,2.15,0,0,1-.33,1.12l0,0h0a33.17,33.17,0,0,1-5.12,1.22c-1.73.3-3.49.48-5.24.61-3.5.31-7,.5-10.5.7s-7,.41-10.55.47a51.93,51.93,0,0,1-5.4-.27,31.17,31.17,0,0,1-5.41-1.14l-.58-.17-.39-.58A3.65,3.65,0,0,1,77,139a4.28,4.28,0,0,1,1.18-2.15,9.7,9.7,0,0,1,3-2,25.35,25.35,0,0,1,6-1.72,42.6,42.6,0,0,1,6-.6q3-.1,6,0a66.35,66.35,0,0,1,11.84,1.58,34.55,34.55,0,0,1,5.7,1.7,12.77,12.77,0,0,1,2.64,1.38A3.28,3.28,0,0,1,121.07,139.69Zm-.2,0a3.11,3.11,0,0,0-1.57-2.26,13.28,13.28,0,0,0-2.61-1.31,32,32,0,0,0-5.69-1.49,64.1,64.1,0,0,0-11.74-.9,62.15,62.15,0,0,0-11.71,1.16A27.06,27.06,0,0,0,82,136.63a7.93,7.93,0,0,0-2.39,1.57,2.52,2.52,0,0,0-.67,1.17,1.74,1.74,0,0,0,.26,1.27l-.11-.08a38,38,0,0,0,10.29,1.6c3.48.14,7,.13,10.48.14s7,0,10.48-.09a38.33,38.33,0,0,0,10.32-1.56l-.06,0A1.9,1.9,0,0,0,120.87,139.69Z"/><path class="cls-1" d="M110.45,139.69a1.62,1.62,0,0,1-.89,1.15,8,8,0,0,1-1.3.6,20.05,20.05,0,0,1-2.75.78,32,32,0,0,1-5.69.72,36,36,0,0,1-5.76-.29,18.52,18.52,0,0,1-2.88-.62,7.47,7.47,0,0,1-1.45-.61,3.48,3.48,0,0,1-.74-.58,1.78,1.78,0,0,1-.5-1.14,1.85,1.85,0,0,1,.46-1.18,3.39,3.39,0,0,1,.73-.62,7.93,7.93,0,0,1,1.44-.7,18.21,18.21,0,0,1,2.88-.8,26.54,26.54,0,0,1,5.82-.46,24.43,24.43,0,0,1,5.74.9,20.21,20.21,0,0,1,2.74,1,8.48,8.48,0,0,1,1.3.68A1.65,1.65,0,0,1,110.45,139.69Zm-.2,0c0-.42-.43-.72-.82-.95a6.2,6.2,0,0,0-1.29-.47,15.93,15.93,0,0,0-2.76-.37c-1.86-.1-3.72,0-5.56,0s-3.69.16-5.49.41a17,17,0,0,0-2.63.52,6.61,6.61,0,0,0-1.14.46c-.33.18-.49.44-.47.36a1.23,1.23,0,0,0,.43.43,6.69,6.69,0,0,0,1.14.54,16.8,16.8,0,0,0,2.62.71,35.27,35.27,0,0,0,5.54.57,40.58,40.58,0,0,0,5.62-.14,16,16,0,0,0,2.75-.55,6.37,6.37,0,0,0,1.28-.56C109.85,140.45,110.24,140.11,110.25,139.69Z"/><path class="cls-1" d="M110.45,98.23a1.69,1.69,0,0,1-.86,1.19,8.87,8.87,0,0,1-1.28.71,23.67,23.67,0,0,1-2.73,1.05,16.07,16.07,0,0,1-5.76.63,45.16,45.16,0,0,1-5.7-.94c-.94-.19-1.88-.39-2.81-.66a10.18,10.18,0,0,1-1.41-.54,3,3,0,0,1-.69-.48,1.59,1.59,0,0,1-.47-1,1.61,1.61,0,0,1,.37-1,4.18,4.18,0,0,1,.65-.62,6.73,6.73,0,0,1,1.39-.75A15,15,0,0,1,94,95a29.2,29.2,0,0,1,5.81-.57,20.19,20.19,0,0,1,5.76.85,22,22,0,0,1,2.73,1.06,8.87,8.87,0,0,1,1.28.71A1.66,1.66,0,0,1,110.45,98.23Zm-.2,0a1.41,1.41,0,0,0-.81-1,5.34,5.34,0,0,0-1.31-.45,15,15,0,0,0-2.77-.27c-1.86,0-3.7,0-5.54,0a50.27,50.27,0,0,0-5.5.29,22,22,0,0,0-2.64.5,6.76,6.76,0,0,0-1.2.4,1.45,1.45,0,0,0-.65.49c0,.11.18.47.52.71a4.73,4.73,0,0,0,1.18.62,11.65,11.65,0,0,0,2.69.67,29.09,29.09,0,0,0,5.6-.08c1.85-.14,3.69-.19,5.55-.23a14.22,14.22,0,0,0,2.77-.28,5.34,5.34,0,0,0,1.31-.45C109.84,99,110.23,98.65,110.25,98.23Z"/><path class="cls-1" d="M110.35,85.31q12.66,0,25.31.79h.13a257.64,257.64,0,0,1,29.41,3.42,102.88,102.88,0,0,1,14.46,3.6,28.94,28.94,0,0,1,6.92,3.28,8.82,8.82,0,0,1,1.56,1.4l.16.19a3.08,3.08,0,0,1,.2.26,3.41,3.41,0,0,1,.32.6,2.13,2.13,0,0,1,.16.88,2.42,2.42,0,0,1-.18.82,5.31,5.31,0,0,1-1.42,1.84,12.86,12.86,0,0,1-1.63,1.2,35.41,35.41,0,0,1-6.95,3.15c-2.37.83-4.77,1.51-7.18,2.12-4.83,1.22-9.72,2.1-14.61,2.87-9.81,1.47-19.63,2.42-29.5,3a452.14,452.14,0,0,1-59.24-.19c-9.86-.72-19.71-1.72-29.48-3.4a140.79,140.79,0,0,1-14.56-3.24c-1.2-.35-2.4-.7-3.58-1.14s-2.38-.82-3.55-1.34a25,25,0,0,1-3.44-1.79A13.07,13.07,0,0,1,12,102.43a5,5,0,0,1-1.44-2l-.06-.16V99.1l.05-.14a4.12,4.12,0,0,1,.94-1.51,8.82,8.82,0,0,1,1.09-1,17.46,17.46,0,0,1,2.29-1.41,37,37,0,0,1,4.76-2,84.65,84.65,0,0,1,9.76-2.7,194.73,194.73,0,0,1,19.85-3.19c6.65-.77,13.32-1.27,20-1.6s13.35-.51,20-.55h.29v.28l-.27,14.34L89,85.3l.28.28c-13.33.48-26.63,1.53-39.82,3.25a192.83,192.83,0,0,0-19.6,3.52,81.76,81.76,0,0,0-9.46,2.81,34,34,0,0,0-4.43,2A13.4,13.4,0,0,0,14,98.35a6.68,6.68,0,0,0-.77.71,1.87,1.87,0,0,0-.39.58l0-.34v.76l0-.37a2.82,2.82,0,0,0,.77.91,10.55,10.55,0,0,0,1.33,1,26.85,26.85,0,0,0,3.13,1.56c1.08.48,2.22.87,3.37,1.25s2.3.74,3.46,1.07a134.49,134.49,0,0,0,14.29,3.09c9.66,1.6,19.44,2.53,29.23,3.19s19.62.87,29.43,1,19.65-.14,29.45-.69,19.61-1.44,29.28-2.83c4.85-.71,9.66-1.6,14.41-2.7,2.37-.56,4.72-1.17,7-1.93a33,33,0,0,0,6.54-2.81,9.72,9.72,0,0,0,1.36-1,3.53,3.53,0,0,0,.87-1s0-.09,0-.07,0,0,0,0a1.08,1.08,0,0,0-.11-.21l-.08-.11-.14-.17a6.35,6.35,0,0,0-1.16-1.07A27,27,0,0,0,179,95a100.58,100.58,0,0,0-14.12-3.79c-9.62-1.92-19.38-3.22-29.17-4.18h-.13c-4.2-.4-8.4-.72-12.61-1S114.57,85.48,110.35,85.31Z"/><path class="cls-1" d="M110.35,85.31c4.22,0,8.44,0,12.66.09s8.44.29,12.66.53h.14a256.94,256.94,0,0,1,29.46,3.27,101.81,101.81,0,0,1,14.53,3.53,29.22,29.22,0,0,1,7,3.33,8.55,8.55,0,0,1,1.64,1.47l.17.19a3.72,3.72,0,0,1,.22.3,3.09,3.09,0,0,1,.36.68,2.58,2.58,0,0,1,.19,1,2.63,2.63,0,0,1-.21,1,4.28,4.28,0,0,1-.73,1.18,7.1,7.1,0,0,1-.81.83A12.73,12.73,0,0,1,186,104a35.65,35.65,0,0,1-7,3.21c-2.39.83-4.8,1.53-7.23,2.14-4.84,1.21-9.73,2.12-14.63,2.9-9.84,1.51-19.66,2.51-29.55,3.1a458.51,458.51,0,0,1-59.31-.24,291.06,291.06,0,0,1-29.52-3.47,137.73,137.73,0,0,1-14.59-3.31c-1.2-.36-2.4-.72-3.59-1.17A37.68,37.68,0,0,1,17,105.74a26.29,26.29,0,0,1-3.48-1.82,13.71,13.71,0,0,1-1.69-1.26,5.24,5.24,0,0,1-1.52-2.14l-.08-.2V99.05l.06-.17a4.19,4.19,0,0,1,1-1.63,8.56,8.56,0,0,1,1.12-1,16.15,16.15,0,0,1,2.34-1.43,34.06,34.06,0,0,1,4.79-2,80,80,0,0,1,9.81-2.66,184.51,184.51,0,0,1,19.89-3.06c6.66-.68,13.33-1.13,20-1.43s13.35-.41,20-.36q-10,.53-20,1.36c-6.64.58-13.26,1.31-19.84,2.26S36.34,91,29.93,92.58a84.87,84.87,0,0,0-9.43,2.84,32.7,32.7,0,0,0-4.38,2,13.18,13.18,0,0,0-1.9,1.22,5.33,5.33,0,0,0-.73.67,1.61,1.61,0,0,0-.33.46l.06-.42v.76l-.07-.46a3.22,3.22,0,0,0,.69.78,10.15,10.15,0,0,0,1.29.92,25.38,25.38,0,0,0,3.09,1.53c1.08.46,2.22.84,3.36,1.21s2.29.72,3.46,1a138.28,138.28,0,0,0,14.26,3c9.64,1.57,19.41,2.43,29.18,3.12s19.6.92,29.41.94,19.62-.16,29.41-.72c4.89-.27,9.78-.66,14.66-1.1,2.43-.22,4.88-.48,7.32-.75s4.84-.58,7.26-.92c4.83-.71,9.65-1.55,14.37-2.66,2.36-.56,4.71-1.17,7-1.91a33.77,33.77,0,0,0,6.46-2.76,10,10,0,0,0,1.3-.91,5.86,5.86,0,0,0,.5-.49,1.86,1.86,0,0,0,.26-.36s0,0,0,.07.05.2,0,.15a.59.59,0,0,0-.07-.14l0-.07-.14-.17a5.85,5.85,0,0,0-1.08-1,26.32,26.32,0,0,0-6.24-3.09,101.47,101.47,0,0,0-14.05-3.86c-9.58-2-19.33-3.31-29.11-4.33h-.14q-6.28-.63-12.59-1.06C118.78,85.79,114.57,85.51,110.35,85.31Z"/><path class="cls-1" d="M188.85,100a.57.57,0,0,1,0,.26h0a.45.45,0,0,1,0,.23h0a6.54,6.54,0,0,1-1.26,2.88,15.41,15.41,0,0,1-2.12,2.37,45.66,45.66,0,0,1-5,3.91c-3.48,2.4-7,4.67-10.64,6.86-7.2,4.39-14.57,8.51-22,12.49-3.72,2-7.47,3.92-11.22,5.85s-7.47,3.89-11.41,5.61a40.58,40.58,0,0,1-6.14,2.17,38,38,0,0,1-6.47,1c-4.3.32-8.52.3-12.73.35s-8.42.13-12.75-.12a36.82,36.82,0,0,1-6.53-.93,42.29,42.29,0,0,1-6.24-2.08c-4-1.66-7.75-3.57-11.54-5.42s-7.55-3.73-11.32-5.64c-7.54-3.81-15-7.81-22.31-12.07-3.66-2.14-7.28-4.35-10.84-6.7A48,48,0,0,1,13,107.1a17.27,17.27,0,0,1-2.43-2.59,8.46,8.46,0,0,1-1.69-3.72l.28.75a2.31,2.31,0,0,1-.32-.85,3.4,3.4,0,0,1,0-.43l0,.43a2,2,0,0,1-.06-.32,2.17,2.17,0,0,1,.08-.94l-.06.88a5.62,5.62,0,0,1,0-1.16l.06.88a2.23,2.23,0,0,1-.08-1c0-.19,0-.22,0-.2l0,.33a2.09,2.09,0,0,1,0-.47,2.36,2.36,0,0,1,.21-.65l-.18.59a8.52,8.52,0,0,1,1.69-3.72A18.38,18.38,0,0,1,13,92.34a47.9,47.9,0,0,1,5.29-3.93c3.55-2.35,7.17-4.56,10.83-6.7,7.33-4.26,14.78-8.25,22.31-12.07C55.21,67.73,59,65.87,62.77,64s7.55-3.75,11.54-5.42a42.29,42.29,0,0,1,6.24-2.08,37.49,37.49,0,0,1,6.53-.93c4.32-.25,8.53-.15,12.74-.12s8.43,0,12.73.35a37,37,0,0,1,6.47,1A39.51,39.51,0,0,1,125.16,59c3.93,1.72,7.66,3.69,11.41,5.6s7.49,3.86,11.22,5.84c7.43,4,14.8,8.1,22,12.49q5.42,3.28,10.64,6.86a44.72,44.72,0,0,1,5,3.91,15.89,15.89,0,0,1,2.13,2.36A6.63,6.63,0,0,1,188.81,99h0a.62.62,0,0,1,0,.23h0a.66.66,0,0,1,0,.28h0Zm0,0v-.54h0a.63.63,0,0,0,0-.27h0a.38.38,0,0,0-.05-.21h0a6.54,6.54,0,0,0-1.37-2.78,15.91,15.91,0,0,0-2.2-2.22,43.84,43.84,0,0,0-5.12-3.63c-3.54-2.27-7.16-4.4-10.83-6.46-7.33-4.12-14.81-8-22.36-11.66l-11.34-5.54c-3.79-1.82-7.57-3.68-11.39-5.25a41.78,41.78,0,0,0-5.8-1.9,36.09,36.09,0,0,0-6-.83c-4.1-.23-8.32-.13-12.52-.11s-8.43,0-12.51.35a35.29,35.29,0,0,0-6,.91,39,39,0,0,0-5.7,2c-3.77,1.62-7.51,3.55-11.26,5.44S56.89,71.07,53.17,73c-7.45,3.87-14.85,7.83-22.06,12.07C27.5,87.2,24,89.4,20.48,91.71a42.86,42.86,0,0,0-4.82,3.6c-1.43,1.26-2.67,2.78-2.83,4l-.19.58a1.46,1.46,0,0,0,.14-.42c0-.17,0-.29,0-.25v.16l0,.17c0,.11,0,.18,0,.08a1.66,1.66,0,0,0,0-.7l.06.88a0,0,0,0,0,0-.08l-.06.88a1.84,1.84,0,0,0,.07-.68c0-.13,0-.16,0-.06l.05.23v.2s0,0,0-.19a1.77,1.77,0,0,0-.24-.64l.28.75c.15,1.19,1.39,2.69,2.82,4a45.16,45.16,0,0,0,4.82,3.61c3.47,2.31,7,4.5,10.63,6.62,7.21,4.25,14.62,8.2,22.06,12.09,3.72,1.94,7.47,3.84,11.23,5.75s7.49,3.82,11.26,5.44a38.65,38.65,0,0,0,5.71,2,36.35,36.35,0,0,0,6,.93c4.08.3,8.31.28,12.51.34s8.42.12,12.53-.11a36.24,36.24,0,0,0,6-.84,40,40,0,0,0,5.8-1.89c3.82-1.56,7.6-3.43,11.39-5.25l11.34-5.54c7.55-3.72,15-7.56,22.36-11.68,3.67-2.06,7.29-4.19,10.84-6.45a47,47,0,0,0,5.12-3.64,16.56,16.56,0,0,0,2.2-2.23,6.45,6.45,0,0,0,1.36-2.79h0a.4.4,0,0,0,0-.22h0A.47.47,0,0,0,188.85,100Z"/><path class="cls-1" d="M110.45,59.77a1.58,1.58,0,0,1-.89,1.15,7.76,7.76,0,0,1-1.31.6,19.66,19.66,0,0,1-2.75.78,31.87,31.87,0,0,1-5.68.72,35.87,35.87,0,0,1-5.76-.29,18.89,18.89,0,0,1-2.89-.62,7.74,7.74,0,0,1-1.45-.61,3.79,3.79,0,0,1-.73-.58,1.79,1.79,0,0,1-.5-1.16A1.87,1.87,0,0,1,89,58.59a3.89,3.89,0,0,1,.72-.61,7.4,7.4,0,0,1,1.45-.7A18.74,18.74,0,0,1,94,56.47,27.06,27.06,0,0,1,99.82,56a24.27,24.27,0,0,1,5.74.9,20.34,20.34,0,0,1,2.75,1,8,8,0,0,1,1.29.69A1.6,1.6,0,0,1,110.45,59.77Zm-.2,0c0-.42-.43-.72-.81-.94a5.89,5.89,0,0,0-1.29-.48,16.19,16.19,0,0,0-2.76-.37c-1.87-.1-3.73,0-5.57,0s-3.68.15-5.49.41a16,16,0,0,0-2.62.52,6.61,6.61,0,0,0-1.14.46c-.34.18-.5.43-.48.36a1.1,1.1,0,0,0,.43.43,6.24,6.24,0,0,0,1.13.54,17.11,17.11,0,0,0,2.62.71,35.27,35.27,0,0,0,5.55.57,40.47,40.47,0,0,0,5.61-.14,16.25,16.25,0,0,0,2.76-.55,6.34,6.34,0,0,0,1.28-.55C109.85,60.53,110.24,60.2,110.25,59.77Z"/><path class="cls-1" d="M121,59.77a3.22,3.22,0,0,1-1.6,2.37,12.3,12.3,0,0,1-2.62,1.36,35.25,35.25,0,0,1-5.68,1.68,70.78,70.78,0,0,1-11.81,1.5,54.51,54.51,0,0,1-12-.63,24.92,24.92,0,0,1-6-1.71,9.52,9.52,0,0,1-2.92-1.91,4,4,0,0,1-1.11-2A3.4,3.4,0,0,1,77.72,58l.32-.5.5-.15a31.77,31.77,0,0,1,5.36-1.14,51.39,51.39,0,0,1,5.37-.28c3.55,0,7,.21,10.55.4s7,.35,10.5.63a43.59,43.59,0,0,1,10.34,1.79h0A2.07,2.07,0,0,1,121,59.77Zm0,0a2,2,0,0,0-.32-1h0a32,32,0,0,0-5.12-1.11c-1.73-.19-3.48-.26-5.23-.28-3.49,0-7,.21-10.48.4s-7,.36-10.44.63a41.81,41.81,0,0,0-9.95,1.76l.82-.65c-.11.21-.1.26-.07.35a1.35,1.35,0,0,0,.33.54,6.87,6.87,0,0,0,2,1.31,30.1,30.1,0,0,0,5.29,1.75,70.4,70.4,0,0,0,11.48,1.64A58.92,58.92,0,0,0,111,64.74a31.49,31.49,0,0,0,5.72-1.35,12.62,12.62,0,0,0,2.63-1.3A3.19,3.19,0,0,0,121,59.77Z"/><path class="cls-1" d="M121.07,59.77a3.31,3.31,0,0,1-1.64,2.46,13.23,13.23,0,0,1-2.64,1.37,34.3,34.3,0,0,1-5.7,1.71,66.11,66.11,0,0,1-11.83,1.58c-2,.1-4,.11-6,0a41.19,41.19,0,0,1-6-.6,24.89,24.89,0,0,1-6-1.72,9.66,9.66,0,0,1-3-2A4.21,4.21,0,0,1,77,60.49a3.68,3.68,0,0,1,.51-2.68l.39-.6.59-.18a30.61,30.61,0,0,1,5.41-1.13,49.31,49.31,0,0,1,5.4-.27c3.56.06,7.06.28,10.56.47s7,.39,10.51.69a43.81,43.81,0,0,1,10.36,1.83h0l0,0A2.13,2.13,0,0,1,121.07,59.77Zm-.2,0a1.94,1.94,0,0,0-.3-1l.05,0a38.2,38.2,0,0,0-10.31-1.56c-3.49-.13-7-.09-10.49-.09s-7,0-10.49.14A38.09,38.09,0,0,0,79,58.91l.11-.08a1.64,1.64,0,0,0-.24,1.27,2.52,2.52,0,0,0,.67,1.17A8.12,8.12,0,0,0,82,62.84a27,27,0,0,0,5.59,1.73,62.07,62.07,0,0,0,11.71,1.16,64.06,64.06,0,0,0,11.73-.9,32,32,0,0,0,5.69-1.49A13.28,13.28,0,0,0,119.3,62,3.09,3.09,0,0,0,120.87,59.77Z"/></g></svg>