<svg xmlns="http://www.w3.org/2000/svg" xmlns:xlink="http://www.w3.org/1999/xlink" viewBox="0 0 200 200"><defs><style>.cls-1{fill:#133c2a;}.cls-2{fill:url(#linear-gradient);}.cls-3,.cls-6{fill:#996aab;}.cls-3{opacity:0.2;}.cls-4{fill:#fff;}.cls-5{fill:url(#linear-gradient-2);}.cls-20,.cls-33,.cls-46,.cls-59,.cls-6,.cls-7{opacity:0.3;}.cls-7{fill:url(#linear-gradient-3);}.cls-21,.cls-34,.cls-47,.cls-60,.cls-8{opacity:0.6;}.cls-8{fill:url(#linear-gradient-4);}.cls-9{fill:url(#linear-gradient-5);}.cls-10{fill:url(#linear-gradient-6);}.cls-11{fill:url(#linear-gradient-7);}.cls-12,.cls-13,.cls-14,.cls-25,.cls-26,.cls-27,.cls-38,.cls-39,.cls-40,.cls-51,.cls-52,.cls-53,.cls-64,.cls-65,.cls-66{fill:none;stroke-miterlimit:10;}.cls-12,.cls-25,.cls-38,.cls-51,.cls-64{stroke-width:0.84px;}.cls-12,.cls-13,.cls-25,.cls-26,.cls-38,.cls-39,.cls-51,.cls-52,.cls-64,.cls-65{opacity:0.8;}.cls-12{stroke:url(#linear-gradient-8);}.cls-13,.cls-26,.cls-39,.cls-52,.cls-65{stroke-width:0.22px;}.cls-13{stroke:url(#linear-gradient-9);}.cls-14,.cls-27,.cls-40,.cls-53,.cls-66{stroke-width:0.31px;}.cls-14{stroke:url(#linear-gradient-10);}.cls-15{fill:url(#linear-gradient-11);}.cls-16{fill:url(#linear-gradient-12);}.cls-17{fill:url(#linear-gradient-13);}.cls-18{fill:url(#linear-gradient-14);}.cls-19{fill:url(#linear-gradient-15);}.cls-20{fill:url(#linear-gradient-16);}.cls-21{fill:url(#linear-gradient-17);}.cls-22{fill:url(#linear-gradient-18);}.cls-23{fill:url(#linear-gradient-19);}.cls-24{fill:url(#linear-gradient-20);}.cls-25{stroke:url(#linear-gradient-21);}.cls-26{stroke:url(#linear-gradient-22);}.cls-27{stroke:url(#linear-gradient-23);}.cls-28{fill:url(#linear-gradient-24);}.cls-29{fill:url(#linear-gradient-25);}.cls-30{fill:url(#linear-gradient-26);}.cls-31{fill:url(#linear-gradient-27);}.cls-32{fill:url(#linear-gradient-28);}.cls-33{fill:url(#linear-gradient-29);}.cls-34{fill:url(#linear-gradient-30);}.cls-35{fill:url(#linear-gradient-31);}.cls-36{fill:url(#linear-gradient-32);}.cls-37{fill:url(#linear-gradient-33);}.cls-38{stroke:url(#linear-gradient-34);}.cls-39{stroke:url(#linear-gradient-35);}.cls-40{stroke:url(#linear-gradient-36);}.cls-41{fill:url(#linear-gradient-37);}.cls-42{fill:url(#linear-gradient-38);}.cls-43{fill:url(#linear-gradient-39);}.cls-44{fill:url(#linear-gradient-40);}.cls-45{fill:url(#linear-gradient-41);}.cls-46{fill:url(#linear-gradient-42);}.cls-47{fill:url(#linear-gradient-43);}.cls-48{fill:url(#linear-gradient-44);}.cls-49{fill:url(#linear-gradient-45);}.cls-50{fill:url(#linear-gradient-46);}.cls-51{stroke:url(#linear-gradient-47);}.cls-52{stroke:url(#linear-gradient-48);}.cls-53{stroke:url(#linear-gradient-49);}.cls-54{fill:url(#linear-gradient-50);}.cls-55{fill:url(#linear-gradient-51);}.cls-56{fill:url(#linear-gradient-52);}.cls-57{fill:url(#linear-gradient-53);}.cls-58{fill:url(#linear-gradient-54);}.cls-59{fill:url(#linear-gradient-55);}.cls-60{fill:url(#linear-gradient-56);}.cls-61{fill:url(#linear-gradient-57);}.cls-62{fill:url(#linear-gradient-58);}.cls-63{fill:url(#linear-gradient-59);}.cls-64{stroke:url(#linear-gradient-60);}.cls-65{stroke:url(#linear-gradient-61);}.cls-66{stroke:url(#linear-gradient-62);}.cls-67{fill:url(#linear-gradient-63);}.cls-68{fill:url(#linear-gradient-64);}.cls-69{fill:url(#linear-gradient-65);}</style><linearGradient id="linear-gradient" x1="101.49" y1="178.71" x2="88.72" y2="178.71" gradientUnits="userSpaceOnUse"><stop offset="0" stop-color="#996aab"/><stop offset="0.5" stop-color="#fff" stop-opacity="0.8"/><stop offset="1" stop-color="#996aab"/></linearGradient><linearGradient id="linear-gradient-2" x1="102.11" y1="178.71" x2="91.39" y2="178.71" gradientUnits="userSpaceOnUse"><stop offset="0" stop-color="#fff" stop-opacity="0"/><stop offset="1" stop-color="#996aab" stop-opacity="0.4"/></linearGradient><linearGradient id="linear-gradient-3" x1="96.97" y1="199.52" x2="96.97" y2="196.84" gradientUnits="userSpaceOnUse"><stop offset="0" stop-color="#996aab" stop-opacity="0"/><stop offset="1" stop-color="#996aab"/></linearGradient><linearGradient id="linear-gradient-4" x1="54.04" y1="178.71" x2="139.9" y2="178.71" gradientUnits="userSpaceOnUse"><stop offset="0" stop-color="#996aab"/><stop offset="1" stop-color="#996aab" stop-opacity="0.3"/></linearGradient><linearGradient id="linear-gradient-5" x1="53.58" y1="178.71" x2="140.36" y2="178.71" gradientUnits="userSpaceOnUse"><stop offset="0" stop-color="#996aab"/><stop offset="1" stop-color="#996aab" stop-opacity="0.7"/></linearGradient><linearGradient id="linear-gradient-6" x1="52.67" y1="178.71" x2="141.28" y2="178.71" gradientUnits="userSpaceOnUse"><stop offset="0" stop-color="#996aab"/><stop offset="1" stop-color="#996aab" stop-opacity="0.4"/></linearGradient><linearGradient id="linear-gradient-7" x1="96.97" y1="160.58" x2="96.97" y2="157.9" gradientUnits="userSpaceOnUse"><stop offset="0" stop-color="#996aab"/><stop offset="1" stop-color="#996aab" stop-opacity="0"/></linearGradient><linearGradient id="linear-gradient-8" x1="91.32" y1="162.98" x2="102.74" y2="194.35" gradientUnits="userSpaceOnUse"><stop offset="0" stop-color="#996aab"/><stop offset="1" stop-color="#fff"/></linearGradient><linearGradient id="linear-gradient-9" x1="91.4" y1="163.72" x2="102.33" y2="193.73" gradientUnits="userSpaceOnUse"><stop offset="0" stop-color="#fff" stop-opacity="0.4"/><stop offset="1" stop-color="#996aab"/></linearGradient><linearGradient id="linear-gradient-10" x1="91.51" y1="164.73" x2="102.43" y2="153.81" gradientUnits="userSpaceOnUse"><stop offset="0" stop-color="#fff" stop-opacity="0"/><stop offset="1" stop-color="#fff" stop-opacity="0.7"/></linearGradient><linearGradient id="linear-gradient-11" x1="92.11" y1="159.24" x2="101.83" y2="159.24" gradientUnits="userSpaceOnUse"><stop offset="0" stop-color="#fff" stop-opacity="0"/><stop offset="1" stop-color="#fff" stop-opacity="0.5"/></linearGradient><linearGradient id="linear-gradient-12" x1="111.92" y1="176.05" x2="126.5" y2="160.47" gradientUnits="userSpaceOnUse"><stop offset="0" stop-color="#fff" stop-opacity="0.1"/><stop offset="0.17" stop-color="#fff" stop-opacity="0.2"/><stop offset="0.47" stop-color="#fff" stop-opacity="0.6"/><stop offset="0.58" stop-color="#fff" stop-opacity="0.6"/><stop offset="0.86" stop-color="#fff" stop-opacity="0.1"/><stop offset="1" stop-color="#fff" stop-opacity="0"/></linearGradient><linearGradient id="linear-gradient-13" x1="73.97" y1="190.11" x2="79.45" y2="183.53" xlink:href="#linear-gradient-4"/><linearGradient id="linear-gradient-14" x1="101.49" y1="139.35" x2="88.72" y2="139.35" xlink:href="#linear-gradient"/><linearGradient id="linear-gradient-15" x1="102.11" y1="139.35" x2="91.39" y2="139.35" xlink:href="#linear-gradient-2"/><linearGradient id="linear-gradient-16" x1="96.97" y1="160.16" x2="96.97" y2="157.48" xlink:href="#linear-gradient-3"/><linearGradient id="linear-gradient-17" x1="54.04" y1="139.35" x2="139.9" y2="139.35" xlink:href="#linear-gradient-4"/><linearGradient id="linear-gradient-18" x1="53.58" y1="139.35" x2="140.36" y2="139.35" xlink:href="#linear-gradient-5"/><linearGradient id="linear-gradient-19" x1="52.67" y1="139.35" x2="141.28" y2="139.35" xlink:href="#linear-gradient-6"/><linearGradient id="linear-gradient-20" x1="96.97" y1="121.22" x2="96.97" y2="118.54" xlink:href="#linear-gradient-7"/><linearGradient id="linear-gradient-21" x1="91.32" y1="123.62" x2="102.74" y2="154.99" xlink:href="#linear-gradient-8"/><linearGradient id="linear-gradient-22" x1="91.4" y1="124.36" x2="102.33" y2="154.37" xlink:href="#linear-gradient-9"/><linearGradient id="linear-gradient-23" x1="91.51" y1="125.36" x2="102.43" y2="114.44" xlink:href="#linear-gradient-10"/><linearGradient id="linear-gradient-24" x1="92.11" y1="119.88" x2="101.83" y2="119.88" xlink:href="#linear-gradient-11"/><linearGradient id="linear-gradient-25" x1="111.92" y1="136.69" x2="126.5" y2="121.11" xlink:href="#linear-gradient-12"/><linearGradient id="linear-gradient-26" x1="73.97" y1="150.75" x2="79.45" y2="144.17" xlink:href="#linear-gradient-4"/><linearGradient id="linear-gradient-27" x1="101.49" y1="99.99" x2="88.72" y2="99.99" xlink:href="#linear-gradient"/><linearGradient id="linear-gradient-28" x1="102.11" y1="99.99" x2="91.39" y2="99.99" xlink:href="#linear-gradient-2"/><linearGradient id="linear-gradient-29" x1="96.97" y1="120.8" x2="96.97" y2="118.12" xlink:href="#linear-gradient-3"/><linearGradient id="linear-gradient-30" x1="54.04" y1="99.99" x2="139.9" y2="99.99" xlink:href="#linear-gradient-4"/><linearGradient id="linear-gradient-31" x1="53.58" y1="99.99" x2="140.36" y2="99.99" xlink:href="#linear-gradient-5"/><linearGradient id="linear-gradient-32" x1="52.67" y1="99.99" x2="141.28" y2="99.99" xlink:href="#linear-gradient-6"/><linearGradient id="linear-gradient-33" x1="96.97" y1="81.85" x2="96.97" y2="79.17" xlink:href="#linear-gradient-7"/><linearGradient id="linear-gradient-34" x1="91.32" y1="84.26" x2="102.74" y2="115.62" xlink:href="#linear-gradient-8"/><linearGradient id="linear-gradient-35" x1="91.4" y1="84.99" x2="102.33" y2="115.01" xlink:href="#linear-gradient-9"/><linearGradient id="linear-gradient-36" x1="91.51" y1="86" x2="102.43" y2="75.08" xlink:href="#linear-gradient-10"/><linearGradient id="linear-gradient-37" x1="92.11" y1="80.51" x2="101.83" y2="80.51" xlink:href="#linear-gradient-11"/><linearGradient id="linear-gradient-38" x1="111.92" y1="97.33" x2="126.5" y2="81.75" xlink:href="#linear-gradient-12"/><linearGradient id="linear-gradient-39" x1="73.97" y1="111.39" x2="79.45" y2="104.81" xlink:href="#linear-gradient-4"/><linearGradient id="linear-gradient-40" x1="101.49" y1="60.62" x2="88.72" y2="60.62" xlink:href="#linear-gradient"/><linearGradient id="linear-gradient-41" x1="102.11" y1="60.62" x2="91.39" y2="60.62" xlink:href="#linear-gradient-2"/><linearGradient id="linear-gradient-42" x1="96.97" y1="81.44" x2="96.97" y2="78.76" xlink:href="#linear-gradient-3"/><linearGradient id="linear-gradient-43" x1="54.04" y1="60.63" x2="139.9" y2="60.63" xlink:href="#linear-gradient-4"/><linearGradient id="linear-gradient-44" x1="53.58" y1="60.63" x2="140.36" y2="60.63" xlink:href="#linear-gradient-5"/><linearGradient id="linear-gradient-45" x1="52.67" y1="60.63" x2="141.28" y2="60.63" xlink:href="#linear-gradient-6"/><linearGradient id="linear-gradient-46" x1="96.97" y1="42.49" x2="96.97" y2="39.81" xlink:href="#linear-gradient-7"/><linearGradient id="linear-gradient-47" x1="91.32" y1="44.89" x2="102.74" y2="76.26" xlink:href="#linear-gradient-8"/><linearGradient id="linear-gradient-48" x1="91.4" y1="45.63" x2="102.33" y2="75.64" xlink:href="#linear-gradient-9"/><linearGradient id="linear-gradient-49" x1="91.51" y1="46.64" x2="102.43" y2="35.72" xlink:href="#linear-gradient-10"/><linearGradient id="linear-gradient-50" x1="92.11" y1="41.15" x2="101.83" y2="41.15" xlink:href="#linear-gradient-11"/><linearGradient id="linear-gradient-51" x1="111.92" y1="57.97" x2="126.5" y2="42.39" xlink:href="#linear-gradient-12"/><linearGradient id="linear-gradient-52" x1="73.97" y1="72.03" x2="79.45" y2="65.44" xlink:href="#linear-gradient-4"/><linearGradient id="linear-gradient-53" x1="101.49" y1="21.26" x2="88.72" y2="21.26" xlink:href="#linear-gradient"/><linearGradient id="linear-gradient-54" x1="102.11" y1="21.26" x2="91.39" y2="21.26" xlink:href="#linear-gradient-2"/><linearGradient id="linear-gradient-55" x1="96.97" y1="42.08" x2="96.97" y2="39.4" xlink:href="#linear-gradient-3"/><linearGradient id="linear-gradient-56" x1="54.04" y1="21.26" x2="139.9" y2="21.26" xlink:href="#linear-gradient-4"/><linearGradient id="linear-gradient-57" x1="53.58" y1="21.26" x2="140.36" y2="21.26" xlink:href="#linear-gradient-5"/><linearGradient id="linear-gradient-58" x1="52.67" y1="21.26" x2="141.28" y2="21.26" xlink:href="#linear-gradient-6"/><linearGradient id="linear-gradient-59" x1="96.97" y1="3.13" x2="96.97" y2="0.45" xlink:href="#linear-gradient-7"/><linearGradient id="linear-gradient-60" x1="91.32" y1="5.53" x2="102.74" y2="36.9" xlink:href="#linear-gradient-8"/><linearGradient id="linear-gradient-61" x1="91.4" y1="6.27" x2="102.33" y2="36.28" xlink:href="#linear-gradient-9"/><linearGradient id="linear-gradient-62" x1="91.51" y1="7.28" x2="102.43" y2="-3.64" xlink:href="#linear-gradient-10"/><linearGradient id="linear-gradient-63" x1="92.11" y1="1.79" x2="101.83" y2="1.79" xlink:href="#linear-gradient-11"/><linearGradient id="linear-gradient-64" x1="111.92" y1="18.6" x2="126.5" y2="3.02" xlink:href="#linear-gradient-12"/><linearGradient id="linear-gradient-65" x1="73.97" y1="32.66" x2="79.45" y2="26.08" xlink:href="#linear-gradient-4"/></defs><title>beadreal</title><g id="Layer_5" data-name="Layer 5"><path class="cls-1" d="M141.13,179.1a.25.25,0,0,0,0-.12s0-.08,0-.12a.61.61,0,0,0,0-.27.23.23,0,0,0,0-.14.22.22,0,0,0,0-.11c-.2-1.31-1.58-2.66-4.11-4.35-7.11-4.73-16.56-9.45-21.29-11.82a64,64,0,0,0-8.53-3.87c-2.72-.85-5-.85-10.38-.85s-7.67,0-10.38.85a64,64,0,0,0-8.54,3.87c-4.72,2.37-14.18,7.09-21.28,11.82-2.54,1.69-3.91,3-4.12,4.35a.22.22,0,0,0,0,.11.33.33,0,0,0,0,.14,1.22,1.22,0,0,0,0,.27.25.25,0,0,0,0,.12.25.25,0,0,0,0,.12c.21,1.32,1.58,2.66,4.12,4.35A218.16,218.16,0,0,0,77.9,195.28a63.25,63.25,0,0,0,8.54,3.87c2.72.85,5,.85,10.38.85s7.66,0,10.37-.85a62.69,62.69,0,0,0,8.54-3.87A218.16,218.16,0,0,0,137,183.45C139.55,181.76,140.93,180.42,141.13,179.1Z"/><path class="cls-2" d="M101.61,159.24v38.94c0,.74-2.08,1.34-4.64,1.34s-4.64-.6-4.64-1.34V159.24c0-.74,2.08-1.34,4.64-1.34S101.61,158.5,101.61,159.24Z"/><path class="cls-3" d="M140.36,178.84a.29.29,0,0,1,0,.13.17.17,0,0,1,0,.11c-.2,1.29-1.54,2.6-4,4.26a210.82,210.82,0,0,1-20.82,11.56,62.57,62.57,0,0,1-8.36,3.8c-2.65.83-4.93.83-10.15.83s-7.49,0-10.15-.83a62,62,0,0,1-8.35-3.8,209.68,209.68,0,0,1-20.82-11.56c-2.49-1.66-3.83-3-4-4.26a.23.23,0,0,1,0-.11.29.29,0,0,1,0-.13,1.13,1.13,0,0,1,0-.26.34.34,0,0,1,0-.14.26.26,0,0,1,0-.11c.2-1.27,1.54-2.6,4-4.25a207.65,207.65,0,0,1,20.82-11.56,63,63,0,0,1,8.35-3.79c2.65-.83,4.93-.83,10.15-.83s7.5,0,10.15.83a62.34,62.34,0,0,1,8.36,3.79,208.76,208.76,0,0,1,20.82,11.56c2.48,1.65,3.82,3,4,4.25a.18.18,0,0,1,0,.11.34.34,0,0,1,0,.14A1.13,1.13,0,0,1,140.36,178.84Z"/><path class="cls-4" d="M97,158.36c3,0,4.56.64,4.68.88v38.91c-.12.27-1.64.91-4.68.91s-4.55-.64-4.67-.88V159.27c.13-.27,1.65-.91,4.68-.91m0-.46c-2.83,0-5.13.6-5.13,1.34v38.94c0,.74,2.3,1.34,5.13,1.34s5.14-.6,5.14-1.34V159.24c0-.74-2.3-1.34-5.14-1.34Z"/><path class="cls-5" d="M96.75,158.37c2.94,0,4.72.58,4.89.87v38.9c-.17.33-2,.91-4.89.91s-4.73-.58-4.89-.87v-38.9c.16-.33,2-.91,4.89-.91m0-.47c-3,0-5.36.6-5.36,1.34v38.94c0,.74,2.4,1.34,5.36,1.34s5.36-.6,5.36-1.34V159.24c0-.74-2.4-1.34-5.36-1.34Z"/><path class="cls-6" d="M107.28,198.18a1,1,0,0,1-.16.52c-2.65.83-4.93.83-10.15.83s-7.49,0-10.15-.83a1,1,0,0,1-.15-.52c0-1.64,4.61-3,10.3-3S107.28,196.54,107.28,198.18Z"/><path class="cls-7" d="M101.61,198.18c0,.74-2.08,1.34-4.64,1.34s-4.64-.6-4.64-1.34,2.08-1.34,4.64-1.34S101.61,197.44,101.61,198.18Z"/><path class="cls-8" d="M139.9,178.68a1,1,0,0,1-.26.57c-.4.5-1.4,1.27-3.88,2.17a69.63,69.63,0,0,1-13.48,2.86l-1.52.17A203.81,203.81,0,0,1,97,185.74c-16.8,0-31.8-1.7-39.11-4.44-3.11-1.16-3.69-2.1-3.8-2.43v-.37c.1-.33.67-1.27,3.8-2.44,6.56-2.45,19.31-4.07,34-4.38v7c0,.36,2.3.66,5.13.66s5.14-.3,5.14-.66v-7c4.26.09,8.39.29,12.31.6h.06c9.21.75,16.76,2,21.29,3.67,2.59.93,3.52,1.75,3.85,2.15l.07.08a1,1,0,0,1,.2.39A.37.37,0,0,1,139.9,178.68Z"/><path class="cls-9" d="M140.36,178.84a.29.29,0,0,1,0,.13.17.17,0,0,1,0,.11c-.2,1.29-1.54,2.6-4,4.26a210.82,210.82,0,0,1-20.82,11.56,62.57,62.57,0,0,1-8.36,3.8c-2.65.83-4.93.83-10.15.83s-7.49,0-10.15-.83a62,62,0,0,1-8.35-3.8,209.68,209.68,0,0,1-20.82-11.56c-2.49-1.66-3.83-3-4-4.26a.23.23,0,0,1,0-.11.29.29,0,0,1,0-.13,1.13,1.13,0,0,1,0-.26.34.34,0,0,1,0-.14.26.26,0,0,1,0-.11c.2-1.27,1.54-2.6,4-4.25a207.65,207.65,0,0,1,20.82-11.56,63,63,0,0,1,8.35-3.79c2.65-.83,4.93-.83,10.15-.83s7.5,0,10.15.83a62.34,62.34,0,0,1,8.36,3.79,208.76,208.76,0,0,1,20.82,11.56c2.48,1.65,3.82,3,4,4.25a.18.18,0,0,1,0,.11.34.34,0,0,1,0,.14A1.13,1.13,0,0,1,140.36,178.84Z"/><path class="cls-10" d="M97,157.9c5.23,0,7.5,0,10.15.83a62.34,62.34,0,0,1,8.36,3.79,208.76,208.76,0,0,1,20.82,11.56c2.48,1.65,3.82,3,4,4.25a.18.18,0,0,1,0,.11.34.34,0,0,1,0,.14,1.13,1.13,0,0,1,0,.26.29.29,0,0,1,0,.13.17.17,0,0,1,0,.11c-.2,1.29-1.54,2.6-4,4.26a210.82,210.82,0,0,1-20.82,11.56,62.57,62.57,0,0,1-8.36,3.8c-2.65.83-4.93.83-10.15.83s-7.49,0-10.15-.83a62,62,0,0,1-8.35-3.8,209.68,209.68,0,0,1-20.82-11.56c-2.49-1.66-3.83-3-4-4.26a.23.23,0,0,1,0-.11.29.29,0,0,1,0-.13,1.13,1.13,0,0,1,0-.26.34.34,0,0,1,0-.14.26.26,0,0,1,0-.11c.2-1.27,1.54-2.6,4-4.25a207.65,207.65,0,0,1,20.82-11.56,62.37,62.37,0,0,1,8.35-3.79c2.65-.83,4.93-.83,10.15-.83m0-.91c-5.24,0-7.64,0-10.42.87a61.47,61.47,0,0,0-8.45,3.82l-.14.08a208.06,208.06,0,0,0-20.82,11.57c-2.8,1.85-4.13,3.29-4.4,4.77a.86.86,0,0,0-.05.24,1.44,1.44,0,0,0,0,.24v.26a1.44,1.44,0,0,0,0,.24,1.29,1.29,0,0,0,.05.24c.28,1.49,1.56,2.88,4.4,4.77A213.73,213.73,0,0,0,78,195.67l.11.05a62.92,62.92,0,0,0,8.49,3.85c2.79.87,5.18.87,10.42.87s7.64,0,10.42-.87a62.36,62.36,0,0,0,8.49-3.85l.11-.05a213.73,213.73,0,0,0,20.81-11.58c2.84-1.89,4.13-3.28,4.41-4.77a.75.75,0,0,0,0-.24,1.44,1.44,0,0,0,0-.24,1.13,1.13,0,0,0,0-.26.82.82,0,0,0,0-.24.8.8,0,0,0,0-.24c-.28-1.48-1.61-2.92-4.41-4.78A210.87,210.87,0,0,0,116,161.76l-.11-.06a62.39,62.39,0,0,0-8.48-3.84C104.61,157,102.22,157,97,157Z"/><path class="cls-11" d="M101.61,159.24c0,.74-2.08,1.34-4.64,1.34s-4.64-.6-4.64-1.34,2.08-1.34,4.64-1.34S101.61,158.5,101.61,159.24Z"/><path class="cls-12" d="M102.11,171.27c17.45.38,31.53,2.62,36.36,5.36,1.19.67,1.63,1.34,1.61,2.05a2.18,2.18,0,0,1-1.18,1.77c-4.76,3.09-21.47,5.75-41.94,5.75-18.85,0-34.57-2.36-40.64-5.1-1.73-.78-2.28-1.43-2.28-2.23s.62-1.91,2.47-2.73c5.62-2.49,19-4.51,35.33-4.87"/><path class="cls-13" d="M102.1,171.73c20.42.44,37.38,3.86,37.63,7-.09,3.53-20.32,7-43.07,7s-42.62-3.6-42.62-7,17.13-6.56,37.35-7"/><path class="cls-14" d="M107.28,159.24c0,1.64-4.62,3-10.31,3s-10.3-1.34-10.3-3a1,1,0,0,1,.15-.51c2.65-.83,4.93-.83,10.15-.83s7.5,0,10.15.83A.88.88,0,0,1,107.28,159.24Z"/><path class="cls-6" d="M107.28,159.24c0,1.64-4.62,3-10.31,3s-10.3-1.34-10.3-3a1,1,0,0,1,.15-.51c2.65-.83,4.93-.83,10.15-.83s7.5,0,10.15.83A.88.88,0,0,1,107.28,159.24Z"/><path class="cls-15" d="M97,157.9c2.56,0,4.64.6,4.64,1.34s-2.08,1.34-4.64,1.34-4.64-.6-4.64-1.34,2.08-1.34,4.64-1.34m0-.22c-2.41,0-4.86.53-4.86,1.56s2.45,1.56,4.86,1.56,4.86-.54,4.86-1.56-2.44-1.56-4.86-1.56Z"/><path class="cls-16" d="M140.36,178.84a.29.29,0,0,1,0,.13.17.17,0,0,1,0,.11c-.2,1.29-1.54,2.6-4,4.26a210.82,210.82,0,0,1-20.82,11.56,62.57,62.57,0,0,1-8.36,3.8c7.57-3.87,11.57-11.41,11.55-13.58,0-2.56-13.48-24.08-13.48-24.08A11.85,11.85,0,0,0,97,157.9c5.23,0,7.5,0,10.15.83a62.34,62.34,0,0,1,8.36,3.79,208.76,208.76,0,0,1,20.82,11.56c2.48,1.65,3.82,3,4,4.25a.18.18,0,0,1,0,.11.34.34,0,0,1,0,.14A1.13,1.13,0,0,1,140.36,178.84Z"/><path class="cls-17" d="M53.5,178.58a.25.25,0,0,1,0-.12.2.2,0,0,1,0-.11c.2-1.29,1.55-2.61,4-4.26a213.28,213.28,0,0,1,20.82-11.57,61.61,61.61,0,0,1,8.36-3.79c-7.58,3.86-16,12-16,14.19,0,2.57,17.89,23.47,17.89,23.47a11.93,11.93,0,0,0,8.22,3.14c-5.22,0-7.49,0-10.15-.83a63.35,63.35,0,0,1-8.35-3.8,208.76,208.76,0,0,1-20.82-11.56c-2.48-1.65-3.83-3-4-4.25a.22.22,0,0,1,0-.11.33.33,0,0,1,0-.14A1.13,1.13,0,0,1,53.5,178.58Z"/><path class="cls-1" d="M141.13,139.73a.2.2,0,0,0,0-.11.19.19,0,0,0,0-.13.57.57,0,0,0,0-.26.23.23,0,0,0,0-.14.22.22,0,0,0,0-.11c-.2-1.31-1.58-2.66-4.11-4.35a213.63,213.63,0,0,0-21.29-11.82,64.42,64.42,0,0,0-8.53-3.88c-2.72-.84-5-.84-10.38-.84s-7.67,0-10.38.84a64.39,64.39,0,0,0-8.54,3.88,213.63,213.63,0,0,0-21.28,11.82c-2.54,1.69-3.91,3-4.12,4.35a.22.22,0,0,0,0,.11.33.33,0,0,0,0,.14,1.13,1.13,0,0,0,0,.26.28.28,0,0,0,0,.13.2.2,0,0,0,0,.11c.21,1.32,1.58,2.66,4.12,4.36A215.69,215.69,0,0,0,77.9,155.91a63.65,63.65,0,0,0,8.54,3.88c2.72.85,5,.85,10.38.85s7.66,0,10.37-.85a63.08,63.08,0,0,0,8.54-3.88A215.69,215.69,0,0,0,137,144.09C139.55,142.39,140.93,141.05,141.13,139.73Z"/><path class="cls-18" d="M101.61,119.88v38.94c0,.74-2.08,1.34-4.64,1.34s-4.64-.6-4.64-1.34V119.88c0-.75,2.08-1.34,4.64-1.34S101.61,119.13,101.61,119.88Z"/><path class="cls-3" d="M140.36,139.48a.29.29,0,0,1,0,.13.17.17,0,0,1,0,.11c-.2,1.28-1.54,2.6-4,4.25a209.11,209.11,0,0,1-20.82,11.57,60.9,60.9,0,0,1-8.36,3.79c-2.65.83-4.93.83-10.15.83s-7.49,0-10.15-.83a60.37,60.37,0,0,1-8.35-3.79A208,208,0,0,1,57.65,144c-2.49-1.65-3.83-3-4-4.25a.23.23,0,0,1,0-.11.29.29,0,0,1,0-.13,1.13,1.13,0,0,1,0-.26.33.33,0,0,1,0-.14.26.26,0,0,1,0-.11c.2-1.28,1.54-2.6,4-4.25a207.65,207.65,0,0,1,20.82-11.56,63,63,0,0,1,8.35-3.79c2.65-.83,4.93-.83,10.15-.83s7.5,0,10.15.83a62.34,62.34,0,0,1,8.36,3.79,208.76,208.76,0,0,1,20.82,11.56c2.48,1.65,3.82,3,4,4.25a.18.18,0,0,1,0,.11.33.33,0,0,1,0,.14A1.13,1.13,0,0,1,140.36,139.48Z"/><path class="cls-4" d="M97,119c3,0,4.56.64,4.68.88v38.91c-.12.27-1.64.91-4.68.91s-4.55-.64-4.67-.88V119.91c.13-.27,1.65-.91,4.68-.91m0-.46c-2.83,0-5.13.59-5.13,1.34v38.94c0,.74,2.3,1.34,5.13,1.34s5.14-.6,5.14-1.34V119.88c0-.75-2.3-1.34-5.14-1.34Z"/><path class="cls-19" d="M96.75,119c2.94,0,4.72.59,4.89.88v38.9c-.17.32-2,.91-4.89.91s-4.73-.59-4.89-.87v-38.9c.16-.33,2-.92,4.89-.92m0-.46c-3,0-5.36.59-5.36,1.34v38.94c0,.74,2.4,1.34,5.36,1.34s5.36-.6,5.36-1.34V119.88c0-.75-2.4-1.34-5.36-1.34Z"/><path class="cls-6" d="M107.28,158.82a.9.9,0,0,1-.16.51c-2.65.83-4.93.83-10.15.83s-7.49,0-10.15-.83a1,1,0,0,1-.15-.51c0-1.65,4.61-3,10.3-3S107.28,157.17,107.28,158.82Z"/><path class="cls-20" d="M101.61,158.82c0,.74-2.08,1.34-4.64,1.34s-4.64-.6-4.64-1.34,2.08-1.34,4.64-1.34S101.61,158.08,101.61,158.82Z"/><path class="cls-21" d="M139.9,139.32a1,1,0,0,1-.26.57c-.4.5-1.4,1.27-3.88,2.17a69,69,0,0,1-13.48,2.85c-.49.07-1,.13-1.52.18A203.81,203.81,0,0,1,97,146.38c-16.8,0-31.8-1.7-39.11-4.44-3.11-1.16-3.69-2.1-3.8-2.43v-.37c.1-.33.67-1.27,3.8-2.44,6.56-2.45,19.31-4.07,34-4.38v7c0,.37,2.3.66,5.13.66s5.14-.29,5.14-.66v-7c4.26.09,8.39.29,12.31.6h.06c9.21.75,16.76,2,21.29,3.67,2.59.93,3.52,1.74,3.85,2.15l.07.08a1.08,1.08,0,0,1,.2.38A.49.49,0,0,1,139.9,139.32Z"/><path class="cls-22" d="M140.36,139.48a.29.29,0,0,1,0,.13.17.17,0,0,1,0,.11c-.2,1.28-1.54,2.6-4,4.25a209.11,209.11,0,0,1-20.82,11.57,60.9,60.9,0,0,1-8.36,3.79c-2.65.83-4.93.83-10.15.83s-7.49,0-10.15-.83a60.37,60.37,0,0,1-8.35-3.79A208,208,0,0,1,57.65,144c-2.49-1.65-3.83-3-4-4.25a.23.23,0,0,1,0-.11.29.29,0,0,1,0-.13,1.13,1.13,0,0,1,0-.26.33.33,0,0,1,0-.14.26.26,0,0,1,0-.11c.2-1.28,1.54-2.6,4-4.25a207.65,207.65,0,0,1,20.82-11.56,63,63,0,0,1,8.35-3.79c2.65-.83,4.93-.83,10.15-.83s7.5,0,10.15.83a62.34,62.34,0,0,1,8.36,3.79,208.76,208.76,0,0,1,20.82,11.56c2.48,1.65,3.82,3,4,4.25a.18.18,0,0,1,0,.11.33.33,0,0,1,0,.14A1.13,1.13,0,0,1,140.36,139.48Z"/><path class="cls-23" d="M97,118.54c5.23,0,7.5,0,10.15.83a62.34,62.34,0,0,1,8.36,3.79,208.76,208.76,0,0,1,20.82,11.56c2.48,1.65,3.82,3,4,4.25a.18.18,0,0,1,0,.11.33.33,0,0,1,0,.14,1.13,1.13,0,0,1,0,.26.29.29,0,0,1,0,.13.17.17,0,0,1,0,.11c-.2,1.28-1.54,2.6-4,4.25a209.11,209.11,0,0,1-20.82,11.57,60.9,60.9,0,0,1-8.36,3.79c-2.65.83-4.93.83-10.15.83s-7.49,0-10.15-.83a60.37,60.37,0,0,1-8.35-3.79A208,208,0,0,1,57.65,144c-2.49-1.65-3.83-3-4-4.25a.23.23,0,0,1,0-.11.29.29,0,0,1,0-.13,1.13,1.13,0,0,1,0-.26.33.33,0,0,1,0-.14.26.26,0,0,1,0-.11c.2-1.27,1.54-2.6,4-4.25a207.65,207.65,0,0,1,20.82-11.56,62.37,62.37,0,0,1,8.35-3.79c2.65-.83,4.93-.83,10.15-.83m0-.92c-5.24,0-7.64,0-10.42.88a61.47,61.47,0,0,0-8.45,3.82l-.14.07A212.19,212.19,0,0,0,57.14,134c-2.8,1.86-4.13,3.3-4.4,4.78a.86.86,0,0,0-.05.24,1.44,1.44,0,0,0,0,.24v.26a1.44,1.44,0,0,0,0,.24,1.29,1.29,0,0,0,.05.24c.28,1.49,1.56,2.88,4.4,4.77A213.73,213.73,0,0,0,78,156.31l.11.05a62.53,62.53,0,0,0,8.49,3.84c2.79.88,5.18.88,10.42.88s7.64,0,10.42-.88a62,62,0,0,0,8.49-3.84l.11-.06a211.24,211.24,0,0,0,20.81-11.57c2.84-1.89,4.13-3.28,4.41-4.77a.75.75,0,0,0,0-.24,1.44,1.44,0,0,0,0-.24,1.13,1.13,0,0,0,0-.26.82.82,0,0,0,0-.24.8.8,0,0,0,0-.24c-.28-1.48-1.61-2.92-4.41-4.78A213.35,213.35,0,0,0,116,122.39l-.11,0a62.39,62.39,0,0,0-8.48-3.84c-2.79-.88-5.18-.88-10.43-.88Z"/><path class="cls-24" d="M101.61,119.88c0,.74-2.08,1.34-4.64,1.34s-4.64-.6-4.64-1.34,2.08-1.34,4.64-1.34S101.61,119.13,101.61,119.88Z"/><path class="cls-25" d="M102.11,131.91c17.45.38,31.53,2.62,36.36,5.35,1.19.68,1.63,1.35,1.61,2.06a2.18,2.18,0,0,1-1.18,1.77c-4.76,3.09-21.47,5.75-41.94,5.75-18.85,0-34.57-2.37-40.64-5.1C54.59,141,54,140.31,54,139.51s.62-1.91,2.47-2.73c5.62-2.49,19-4.51,35.33-4.87"/><path class="cls-26" d="M102.1,132.37c20.42.44,37.38,3.86,37.63,7-.09,3.53-20.32,7-43.07,7s-42.62-3.6-42.62-7,17.13-6.56,37.35-7"/><path class="cls-27" d="M107.28,119.88c0,1.64-4.62,3-10.31,3s-10.3-1.34-10.3-3a1,1,0,0,1,.15-.51c2.65-.83,4.93-.83,10.15-.83s7.5,0,10.15.83A.88.88,0,0,1,107.28,119.88Z"/><path class="cls-6" d="M107.28,119.88c0,1.64-4.62,3-10.31,3s-10.3-1.34-10.3-3a1,1,0,0,1,.15-.51c2.65-.83,4.93-.83,10.15-.83s7.5,0,10.15.83A.88.88,0,0,1,107.28,119.88Z"/><path class="cls-28" d="M97,118.54c2.56,0,4.64.59,4.64,1.34s-2.08,1.34-4.64,1.34-4.64-.6-4.64-1.34,2.08-1.34,4.64-1.34m0-.22c-2.41,0-4.86.53-4.86,1.56s2.45,1.55,4.86,1.55,4.86-.53,4.86-1.55-2.44-1.56-4.86-1.56Z"/><path class="cls-29" d="M140.36,139.48a.29.29,0,0,1,0,.13.17.17,0,0,1,0,.11c-.2,1.28-1.54,2.6-4,4.25a209.11,209.11,0,0,1-20.82,11.57,60.9,60.9,0,0,1-8.36,3.79c7.57-3.86,11.57-11.4,11.55-13.57,0-2.56-13.48-24.09-13.48-24.09A11.85,11.85,0,0,0,97,118.54c5.23,0,7.5,0,10.15.83a62.34,62.34,0,0,1,8.36,3.79,208.76,208.76,0,0,1,20.82,11.56c2.48,1.65,3.82,3,4,4.25a.18.18,0,0,1,0,.11.33.33,0,0,1,0,.14A1.13,1.13,0,0,1,140.36,139.48Z"/><path class="cls-30" d="M53.5,139.22a.29.29,0,0,1,0-.13.23.23,0,0,1,0-.11c.2-1.29,1.55-2.6,4-4.25a209.11,209.11,0,0,1,20.82-11.57,60.36,60.36,0,0,1,8.36-3.79c-7.58,3.86-16,12-16,14.19,0,2.57,17.89,23.47,17.89,23.47a11.89,11.89,0,0,0,8.22,3.13c-5.22,0-7.49,0-10.15-.83a63,63,0,0,1-8.35-3.79A208.76,208.76,0,0,1,57.56,144c-2.48-1.65-3.83-3-4-4.25a.26.26,0,0,1,0-.11.33.33,0,0,1,0-.14A1.13,1.13,0,0,1,53.5,139.22Z"/><path class="cls-1" d="M141.13,100.37a.2.2,0,0,0,0-.11.19.19,0,0,0,0-.13.61.61,0,0,0,0-.27s0-.08,0-.13a.27.27,0,0,0,0-.12c-.2-1.3-1.58-2.66-4.11-4.34a213.63,213.63,0,0,0-21.29-11.82,64.42,64.42,0,0,0-8.53-3.88c-2.72-.85-5-.85-10.38-.85s-7.67,0-10.38.85a64.39,64.39,0,0,0-8.54,3.88A213.63,213.63,0,0,0,56.62,95.27c-2.54,1.68-3.91,3-4.12,4.34a.27.27,0,0,0,0,.12.3.3,0,0,0,0,.13,1.22,1.22,0,0,0,0,.27.28.28,0,0,0,0,.13.2.2,0,0,0,0,.11c.21,1.32,1.58,2.66,4.12,4.36,7.1,4.72,16.56,9.45,21.28,11.82a65,65,0,0,0,8.54,3.88c2.72.85,5,.85,10.38.85s7.66,0,10.37-.85a64.39,64.39,0,0,0,8.54-3.88A217.79,217.79,0,0,0,137,104.73C139.55,103,140.93,101.69,141.13,100.37Z"/><path class="cls-31" d="M101.61,80.52v38.94c0,.74-2.08,1.34-4.64,1.34s-4.64-.6-4.64-1.34V80.52c0-.75,2.08-1.35,4.64-1.35S101.61,79.77,101.61,80.52Z"/><path class="cls-3" d="M140.36,100.12a.25.25,0,0,1,0,.12.14.14,0,0,1,0,.11c-.2,1.29-1.54,2.6-4,4.26a213.28,213.28,0,0,1-20.82,11.57,62.18,62.18,0,0,1-8.36,3.79c-2.65.83-4.93.83-10.15.83s-7.49,0-10.15-.83a61.63,61.63,0,0,1-8.35-3.79,212.12,212.12,0,0,1-20.82-11.57c-2.49-1.66-3.83-3-4-4.26a.2.2,0,0,1,0-.11.25.25,0,0,1,0-.12,1.22,1.22,0,0,1,0-.27.3.3,0,0,1,0-.13.22.22,0,0,1,0-.11c.2-1.28,1.54-2.6,4-4.25A207.65,207.65,0,0,1,78.47,83.8,63.35,63.35,0,0,1,86.82,80c2.65-.83,4.93-.83,10.15-.83s7.5,0,10.15.83a62.74,62.74,0,0,1,8.36,3.8A208.76,208.76,0,0,1,136.3,95.36c2.48,1.65,3.82,3,4,4.25a.15.15,0,0,1,0,.11.3.3,0,0,1,0,.13A1.22,1.22,0,0,1,140.36,100.12Z"/><path class="cls-4" d="M97,79.63c3,0,4.56.65,4.68.89v38.91c-.12.27-1.64.91-4.68.91s-4.55-.64-4.67-.88V80.55c.13-.27,1.65-.92,4.68-.92m0-.46c-2.83,0-5.13.6-5.13,1.35v38.94c0,.74,2.3,1.34,5.13,1.34s5.14-.6,5.14-1.34V80.52c0-.75-2.3-1.35-5.14-1.35Z"/><path class="cls-32" d="M96.75,79.64c2.94,0,4.72.59,4.89.88v38.9c-.17.32-2,.91-4.89.91s-4.73-.59-4.89-.87V80.56c.16-.33,2-.92,4.89-.92m0-.47c-3,0-5.36.6-5.36,1.35v38.94c0,.74,2.4,1.34,5.36,1.34s5.36-.6,5.36-1.34V80.52c0-.75-2.4-1.35-5.36-1.35Z"/><path class="cls-6" d="M107.28,119.46a.9.9,0,0,1-.16.51c-2.65.83-4.93.83-10.15.83s-7.49,0-10.15-.83a1,1,0,0,1-.15-.51c0-1.65,4.61-3,10.3-3S107.28,117.81,107.28,119.46Z"/><path class="cls-33" d="M101.61,119.46c0,.74-2.08,1.34-4.64,1.34s-4.64-.6-4.64-1.34,2.08-1.34,4.64-1.34S101.61,118.72,101.61,119.46Z"/><path class="cls-34" d="M139.9,100a1,1,0,0,1-.26.57c-.4.5-1.4,1.27-3.88,2.17a69,69,0,0,1-13.48,2.85c-.49.06-1,.13-1.52.18A203.81,203.81,0,0,1,97,107c-16.8,0-31.8-1.7-39.11-4.44-3.11-1.16-3.69-2.1-3.8-2.43v-.37c.1-.33.67-1.27,3.8-2.44,6.56-2.45,19.31-4.07,34-4.38v7c0,.37,2.3.66,5.13.66s5.14-.29,5.14-.66V93c4.26.09,8.39.29,12.31.6h.06c9.21.75,16.76,2,21.29,3.67,2.59.93,3.52,1.74,3.85,2.14l.07.09a1,1,0,0,1,.2.38A.49.49,0,0,1,139.9,100Z"/><path class="cls-35" d="M140.36,100.12a.25.25,0,0,1,0,.12.14.14,0,0,1,0,.11c-.2,1.29-1.54,2.6-4,4.26a213.28,213.28,0,0,1-20.82,11.57,62.18,62.18,0,0,1-8.36,3.79c-2.65.83-4.93.83-10.15.83s-7.49,0-10.15-.83a61.63,61.63,0,0,1-8.35-3.79,212.12,212.12,0,0,1-20.82-11.57c-2.49-1.66-3.83-3-4-4.26a.2.2,0,0,1,0-.11.25.25,0,0,1,0-.12,1.22,1.22,0,0,1,0-.27.3.3,0,0,1,0-.13.22.22,0,0,1,0-.11c.2-1.28,1.54-2.6,4-4.25A207.65,207.65,0,0,1,78.47,83.8,63.35,63.35,0,0,1,86.82,80c2.65-.83,4.93-.83,10.15-.83s7.5,0,10.15.83a62.74,62.74,0,0,1,8.36,3.8A208.76,208.76,0,0,1,136.3,95.36c2.48,1.65,3.82,3,4,4.25a.15.15,0,0,1,0,.11.3.3,0,0,1,0,.13A1.22,1.22,0,0,1,140.36,100.12Z"/><path class="cls-36" d="M97,79.17c5.23,0,7.5,0,10.15.83a62.74,62.74,0,0,1,8.36,3.8A208.76,208.76,0,0,1,136.3,95.36c2.48,1.65,3.82,3,4,4.25a.15.15,0,0,1,0,.11.3.3,0,0,1,0,.13,1.22,1.22,0,0,1,0,.27.25.25,0,0,1,0,.12.14.14,0,0,1,0,.11c-.2,1.29-1.54,2.6-4,4.26a213.28,213.28,0,0,1-20.82,11.57,62.18,62.18,0,0,1-8.36,3.79c-2.65.83-4.93.83-10.15.83s-7.49,0-10.15-.83a61.63,61.63,0,0,1-8.35-3.79,212.12,212.12,0,0,1-20.82-11.57c-2.49-1.66-3.83-3-4-4.26a.2.2,0,0,1,0-.11.25.25,0,0,1,0-.12,1.22,1.22,0,0,1,0-.27.3.3,0,0,1,0-.13.22.22,0,0,1,0-.11c.2-1.28,1.54-2.6,4-4.25A207.65,207.65,0,0,1,78.47,83.8,62.76,62.76,0,0,1,86.82,80c2.65-.83,4.93-.83,10.15-.83m0-.91c-5.24,0-7.64,0-10.42.87A63.13,63.13,0,0,0,78.1,83L78,83A210.1,210.1,0,0,0,57.14,94.6c-2.8,1.86-4.13,3.3-4.4,4.77a.92.92,0,0,0-.05.25,1.4,1.4,0,0,0,0,.23v.27a1.44,1.44,0,0,0,0,.24,1.48,1.48,0,0,0,.05.24c.28,1.48,1.56,2.88,4.4,4.77A211.24,211.24,0,0,0,78,116.94l.11.06a62.53,62.53,0,0,0,8.49,3.84c2.79.87,5.18.87,10.42.87s7.64,0,10.42-.87a62,62,0,0,0,8.49-3.84l.11-.06a211.24,211.24,0,0,0,20.81-11.57c2.84-1.89,4.13-3.29,4.41-4.77a.8.8,0,0,0,0-.24,1.54,1.54,0,0,0,0-.24,1.22,1.22,0,0,0,0-.27.79.79,0,0,0,0-.23.85.85,0,0,0,0-.25c-.28-1.47-1.61-2.91-4.41-4.77C129.86,90,120.49,85.29,116,83l-.11,0a64.1,64.1,0,0,0-8.48-3.85c-2.79-.87-5.18-.87-10.43-.87Z"/><path class="cls-37" d="M101.61,80.52c0,.73-2.08,1.33-4.64,1.33s-4.64-.6-4.64-1.33,2.08-1.35,4.64-1.35S101.61,79.77,101.61,80.52Z"/><path class="cls-38" d="M102.11,92.55c17.45.37,31.53,2.62,36.36,5.35,1.19.67,1.63,1.35,1.61,2.06a2.16,2.16,0,0,1-1.18,1.76c-4.76,3.09-21.47,5.76-41.94,5.76-18.85,0-34.57-2.37-40.64-5.1-1.73-.79-2.28-1.44-2.28-2.23s.62-1.91,2.47-2.73c5.62-2.49,19-4.51,35.33-4.87"/><path class="cls-39" d="M102.1,93c20.42.43,37.38,3.86,37.63,7-.09,3.53-20.32,7-43.07,7s-42.62-3.6-42.62-7,17.13-6.56,37.35-7"/><path class="cls-40" d="M107.28,80.52c0,1.64-4.62,3-10.31,3s-10.3-1.33-10.3-3a1,1,0,0,1,.15-.52c2.65-.83,4.93-.83,10.15-.83s7.5,0,10.15.83A.93.93,0,0,1,107.28,80.52Z"/><path class="cls-6" d="M107.28,80.52c0,1.64-4.62,3-10.31,3s-10.3-1.33-10.3-3a1,1,0,0,1,.15-.52c2.65-.83,4.93-.83,10.15-.83s7.5,0,10.15.83A.93.93,0,0,1,107.28,80.52Z"/><path class="cls-41" d="M97,79.17c2.56,0,4.64.6,4.64,1.35S99.53,81.85,97,81.85s-4.64-.6-4.64-1.33,2.08-1.35,4.64-1.35M97,79c-2.41,0-4.86.54-4.86,1.57s2.45,1.55,4.86,1.55,4.86-.53,4.86-1.55S99.39,79,97,79Z"/><path class="cls-42" d="M140.36,100.12a.25.25,0,0,1,0,.12.14.14,0,0,1,0,.11c-.2,1.29-1.54,2.6-4,4.26a213.28,213.28,0,0,1-20.82,11.57,62.18,62.18,0,0,1-8.36,3.79c7.57-3.86,11.57-11.4,11.55-13.57,0-2.57-13.48-24.09-13.48-24.09A11.89,11.89,0,0,0,97,79.17c5.23,0,7.5,0,10.15.83a62.74,62.74,0,0,1,8.36,3.8A208.76,208.76,0,0,1,136.3,95.36c2.48,1.65,3.82,3,4,4.25a.15.15,0,0,1,0,.11.3.3,0,0,1,0,.13A1.22,1.22,0,0,1,140.36,100.12Z"/><path class="cls-43" d="M53.5,99.86a.29.29,0,0,1,0-.13.23.23,0,0,1,0-.11c.2-1.29,1.55-2.6,4-4.26A210.82,210.82,0,0,1,78.38,83.8,62,62,0,0,1,86.74,80c-7.58,3.87-16,12-16,14.2,0,2.56,17.89,23.46,17.89,23.46a11.89,11.89,0,0,0,8.22,3.14c-5.22,0-7.49,0-10.15-.83a63,63,0,0,1-8.35-3.79,208.76,208.76,0,0,1-20.82-11.56c-2.48-1.65-3.83-3-4-4.25a.26.26,0,0,1,0-.11.34.34,0,0,1,0-.14A1.13,1.13,0,0,1,53.5,99.86Z"/><path class="cls-1" d="M141.13,61a.2.2,0,0,0,0-.11.2.2,0,0,0,0-.13.61.61,0,0,0,0-.27s0-.08,0-.14a.26.26,0,0,0,0-.11c-.2-1.3-1.58-2.66-4.11-4.34a211.61,211.61,0,0,0-21.29-11.82,64.42,64.42,0,0,0-8.53-3.88c-2.72-.85-5-.85-10.38-.85s-7.67,0-10.38.85a64.39,64.39,0,0,0-8.54,3.88c-4.72,2.36-14.18,7.08-21.28,11.82-2.54,1.68-3.91,3-4.12,4.34a.26.26,0,0,0,0,.11.35.35,0,0,0,0,.14,1.22,1.22,0,0,0,0,.27.29.29,0,0,0,0,.13.2.2,0,0,0,0,.11c.21,1.32,1.58,2.66,4.12,4.35,7.1,4.73,16.56,9.46,21.28,11.83a65,65,0,0,0,8.54,3.88c2.72.84,5,.84,10.38.84s7.66,0,10.37-.84a64.39,64.39,0,0,0,8.54-3.88A216.05,216.05,0,0,0,137,65.36C139.55,63.67,140.93,62.33,141.13,61Z"/><path class="cls-44" d="M101.61,41.15V80.09c0,.75-2.08,1.35-4.64,1.35s-4.64-.6-4.64-1.35V41.15c0-.74,2.08-1.34,4.64-1.34S101.61,40.41,101.61,41.15Z"/><path class="cls-3" d="M140.36,60.76a.25.25,0,0,1,0,.12.14.14,0,0,1,0,.11c-.2,1.29-1.54,2.6-4,4.26a213.28,213.28,0,0,1-20.82,11.57,62.18,62.18,0,0,1-8.36,3.79c-2.65.83-4.93.83-10.15.83s-7.49,0-10.15-.83a61.63,61.63,0,0,1-8.35-3.79A212.12,212.12,0,0,1,57.65,65.25c-2.49-1.66-3.83-3-4-4.26a.2.2,0,0,1,0-.11.25.25,0,0,1,0-.12,1.22,1.22,0,0,1,0-.27.3.3,0,0,1,0-.13.22.22,0,0,1,0-.11c.2-1.28,1.54-2.6,4-4.25,6.94-4.63,16.2-9.25,20.82-11.57a64.32,64.32,0,0,1,8.35-3.79c2.65-.83,4.93-.83,10.15-.83s7.5,0,10.15.83a63.68,63.68,0,0,1,8.36,3.79A211.18,211.18,0,0,1,136.3,56c2.48,1.65,3.82,3,4,4.25a.15.15,0,0,1,0,.11.3.3,0,0,1,0,.13A1.22,1.22,0,0,1,140.36,60.76Z"/><path class="cls-4" d="M97,40.27c3,0,4.56.65,4.68.88V80.07c-.12.26-1.64.91-4.68.91s-4.55-.65-4.67-.89V41.18c.13-.26,1.65-.91,4.68-.91m0-.46c-2.83,0-5.13.6-5.13,1.34V80.09c0,.75,2.3,1.35,5.13,1.35s5.14-.6,5.14-1.35V41.15c0-.74-2.3-1.34-5.14-1.34Z"/><path class="cls-45" d="M96.75,40.28c2.94,0,4.72.59,4.89.87v38.9c-.17.33-2,.92-4.89.92s-4.73-.59-4.89-.88V41.19c.16-.32,2-.91,4.89-.91m0-.47c-3,0-5.36.6-5.36,1.34V80.09c0,.75,2.4,1.35,5.36,1.35s5.36-.6,5.36-1.35V41.15c0-.74-2.4-1.34-5.36-1.34Z"/><path class="cls-6" d="M107.28,80.09a.93.93,0,0,1-.16.52c-2.65.83-4.93.83-10.15.83s-7.49,0-10.15-.83a1,1,0,0,1-.15-.52c0-1.64,4.61-3,10.3-3S107.28,78.45,107.28,80.09Z"/><path class="cls-46" d="M101.61,80.09c0,.75-2.08,1.35-4.64,1.35s-4.64-.6-4.64-1.35,2.08-1.33,4.64-1.33S101.61,79.36,101.61,80.09Z"/><path class="cls-47" d="M139.9,60.59a1,1,0,0,1-.26.58c-.4.49-1.4,1.26-3.88,2.17a69.74,69.74,0,0,1-13.48,2.85c-.49.06-1,.13-1.52.18A206,206,0,0,1,97,67.66c-16.8,0-31.8-1.71-39.11-4.44-3.11-1.17-3.69-2.11-3.8-2.43v-.38c.1-.32.67-1.26,3.8-2.44,6.56-2.44,19.31-4.07,34-4.38v7c0,.37,2.3.66,5.13.66s5.14-.29,5.14-.66v-7c4.26.09,8.39.29,12.31.6h.06c9.21.75,16.76,2,21.29,3.67,2.59.93,3.52,1.74,3.85,2.14l.07.09a1,1,0,0,1,.2.38A.41.41,0,0,1,139.9,60.59Z"/><path class="cls-48" d="M140.36,60.76a.25.25,0,0,1,0,.12.14.14,0,0,1,0,.11c-.2,1.29-1.54,2.6-4,4.26a213.28,213.28,0,0,1-20.82,11.57,62.18,62.18,0,0,1-8.36,3.79c-2.65.83-4.93.83-10.15.83s-7.49,0-10.15-.83a61.63,61.63,0,0,1-8.35-3.79A212.12,212.12,0,0,1,57.65,65.25c-2.49-1.66-3.83-3-4-4.26a.2.2,0,0,1,0-.11.25.25,0,0,1,0-.12,1.22,1.22,0,0,1,0-.27.3.3,0,0,1,0-.13.22.22,0,0,1,0-.11c.2-1.28,1.54-2.6,4-4.25,6.94-4.63,16.2-9.25,20.82-11.57a64.32,64.32,0,0,1,8.35-3.79c2.65-.83,4.93-.83,10.15-.83s7.5,0,10.15.83a63.68,63.68,0,0,1,8.36,3.79A211.18,211.18,0,0,1,136.3,56c2.48,1.65,3.82,3,4,4.25a.15.15,0,0,1,0,.11.3.3,0,0,1,0,.13A1.22,1.22,0,0,1,140.36,60.76Z"/><path class="cls-49" d="M97,39.81c5.23,0,7.5,0,10.15.83a63.68,63.68,0,0,1,8.36,3.79A211.18,211.18,0,0,1,136.3,56c2.48,1.65,3.82,3,4,4.25a.15.15,0,0,1,0,.11.3.3,0,0,1,0,.13,1.22,1.22,0,0,1,0,.27.25.25,0,0,1,0,.12.14.14,0,0,1,0,.11c-.2,1.29-1.54,2.6-4,4.26a213.28,213.28,0,0,1-20.82,11.57,62.18,62.18,0,0,1-8.36,3.79c-2.65.83-4.93.83-10.15.83s-7.49,0-10.15-.83a61.63,61.63,0,0,1-8.35-3.79A212.12,212.12,0,0,1,57.65,65.25c-2.49-1.66-3.83-3-4-4.26a.2.2,0,0,1,0-.11.25.25,0,0,1,0-.12,1.22,1.22,0,0,1,0-.27.3.3,0,0,1,0-.13.22.22,0,0,1,0-.11c.2-1.28,1.54-2.6,4-4.25,6.94-4.63,16.2-9.25,20.82-11.57a63.71,63.71,0,0,1,8.35-3.79c2.65-.83,4.93-.83,10.15-.83m0-.91c-5.24,0-7.64,0-10.42.87A63.13,63.13,0,0,0,78.1,43.6l-.14.07A208.06,208.06,0,0,0,57.14,55.24C54.34,57.1,53,58.53,52.74,60a.92.92,0,0,0-.05.25,1.4,1.4,0,0,0,0,.23v.27a1.54,1.54,0,0,0,0,.24,1.39,1.39,0,0,0,.05.23c.28,1.49,1.56,2.89,4.4,4.78A213.35,213.35,0,0,0,78,77.58l.11,0a61.65,61.65,0,0,0,8.49,3.85c2.79.87,5.18.87,10.42.87s7.64,0,10.42-.87a61.11,61.11,0,0,0,8.49-3.85l.11,0A213.35,213.35,0,0,0,136.8,66c2.84-1.89,4.13-3.29,4.41-4.78a.74.74,0,0,0,0-.23,1.66,1.66,0,0,0,0-.24,1.22,1.22,0,0,0,0-.27.72.72,0,0,0,0-.23.85.85,0,0,0,0-.25c-.28-1.48-1.61-2.91-4.41-4.77A209.18,209.18,0,0,0,116,43.67l-.11-.05a64.1,64.1,0,0,0-8.48-3.85c-2.79-.87-5.18-.87-10.43-.87Z"/><path class="cls-50" d="M101.61,41.15c0,.74-2.08,1.34-4.64,1.34s-4.64-.6-4.64-1.34,2.08-1.34,4.64-1.34S101.61,40.41,101.61,41.15Z"/><path class="cls-51" d="M102.11,53.19c17.45.37,31.53,2.62,36.36,5.35,1.19.67,1.63,1.34,1.61,2.05a2.16,2.16,0,0,1-1.18,1.77c-4.76,3.09-21.47,5.75-41.94,5.75-18.85,0-34.57-2.36-40.64-5.1C54.59,62.23,54,61.58,54,60.79s.62-1.92,2.47-2.74c5.62-2.48,19-4.51,35.33-4.86"/><path class="cls-52" d="M102.1,53.64c20.42.44,37.38,3.87,37.63,7-.09,3.52-20.32,7-43.07,7S54,64.06,54,60.7s17.13-6.56,37.35-7.05"/><path class="cls-53" d="M107.28,41.15c0,1.65-4.62,3-10.31,3s-10.3-1.33-10.3-3a1,1,0,0,1,.15-.51c2.65-.83,4.93-.83,10.15-.83s7.5,0,10.15.83A.93.93,0,0,1,107.28,41.15Z"/><path class="cls-6" d="M107.28,41.15c0,1.65-4.62,3-10.31,3s-10.3-1.33-10.3-3a1,1,0,0,1,.15-.51c2.65-.83,4.93-.83,10.15-.83s7.5,0,10.15.83A.93.93,0,0,1,107.28,41.15Z"/><path class="cls-54" d="M97,39.81c2.56,0,4.64.6,4.64,1.34S99.53,42.49,97,42.49s-4.64-.6-4.64-1.34,2.08-1.34,4.64-1.34m0-.22c-2.41,0-4.86.54-4.86,1.56s2.45,1.56,4.86,1.56,4.86-.53,4.86-1.56S99.39,39.59,97,39.59Z"/><path class="cls-55" d="M140.36,60.76a.25.25,0,0,1,0,.12.14.14,0,0,1,0,.11c-.2,1.29-1.54,2.6-4,4.26a213.28,213.28,0,0,1-20.82,11.57,62.18,62.18,0,0,1-8.36,3.79c7.57-3.86,11.57-11.4,11.55-13.57,0-2.57-13.48-24.09-13.48-24.09A11.85,11.85,0,0,0,97,39.81c5.23,0,7.5,0,10.15.83a63.68,63.68,0,0,1,8.36,3.79A211.18,211.18,0,0,1,136.3,56c2.48,1.65,3.82,3,4,4.25a.15.15,0,0,1,0,.11.3.3,0,0,1,0,.13A1.22,1.22,0,0,1,140.36,60.76Z"/><path class="cls-56" d="M53.5,60.5a.28.28,0,0,1,0-.13.23.23,0,0,1,0-.11c.2-1.29,1.55-2.6,4-4.26A213.28,213.28,0,0,1,78.38,44.43a62.92,62.92,0,0,1,8.36-3.79c-7.58,3.87-16,12-16,14.2,0,2.56,17.89,23.46,17.89,23.46a11.89,11.89,0,0,0,8.22,3.14c-5.22,0-7.49,0-10.15-.83a63,63,0,0,1-8.35-3.79A207.09,207.09,0,0,1,57.56,65.25c-2.48-1.64-3.83-3-4-4.25a.2.2,0,0,1,0-.1.35.35,0,0,1,0-.14A1.13,1.13,0,0,1,53.5,60.5Z"/><path class="cls-1" d="M141.13,21.65a.23.23,0,0,0,0-.11.2.2,0,0,0,0-.13.61.61,0,0,0,0-.27s0-.08,0-.14a.23.23,0,0,0,0-.11c-.2-1.31-1.58-2.66-4.11-4.34-7.11-4.74-16.56-9.46-21.29-11.83A65.37,65.37,0,0,0,107.2.85C104.48,0,102.16,0,96.82,0S89.15,0,86.44.85A65.34,65.34,0,0,0,77.9,4.72c-4.72,2.37-14.18,7.09-21.28,11.83-2.54,1.68-3.91,3-4.12,4.34a.23.23,0,0,0,0,.11.35.35,0,0,0,0,.14,1.22,1.22,0,0,0,0,.27.29.29,0,0,0,0,.13.23.23,0,0,0,0,.11c.21,1.32,1.58,2.66,4.12,4.35,7.1,4.73,16.56,9.46,21.28,11.83a63.25,63.25,0,0,0,8.54,3.87c2.72.85,5,.85,10.38.85s7.66,0,10.37-.85a62.69,62.69,0,0,0,8.54-3.87A216.05,216.05,0,0,0,137,26C139.55,24.31,140.93,23,141.13,21.65Z"/><path class="cls-57" d="M101.61,1.79V40.73c0,.75-2.08,1.35-4.64,1.35s-4.64-.6-4.64-1.35V1.79c0-.74,2.08-1.34,4.64-1.34S101.61,1.05,101.61,1.79Z"/><path class="cls-3" d="M140.36,21.39a.28.28,0,0,1,0,.13.15.15,0,0,1,0,.11c-.2,1.29-1.54,2.6-4,4.26a213.28,213.28,0,0,1-20.82,11.57,63.51,63.51,0,0,1-8.36,3.79c-2.65.83-4.93.83-10.15.83s-7.49,0-10.15-.83a63,63,0,0,1-8.35-3.79A212.12,212.12,0,0,1,57.65,25.89c-2.49-1.66-3.83-3-4-4.26a.22.22,0,0,1,0-.11.28.28,0,0,1,0-.13,1.13,1.13,0,0,1,0-.26.3.3,0,0,1,0-.13.22.22,0,0,1,0-.11c.2-1.28,1.54-2.6,4-4.25A208,208,0,0,1,78.47,5.07a63,63,0,0,1,8.35-3.79C89.47.45,91.75.45,97,.45s7.5,0,10.15.83a62.34,62.34,0,0,1,8.36,3.79A209.11,209.11,0,0,1,136.3,16.64c2.48,1.65,3.82,3,4,4.25a.15.15,0,0,1,0,.11.3.3,0,0,1,0,.13A1.13,1.13,0,0,1,140.36,21.39Z"/><path class="cls-4" d="M97,.91c3,0,4.56.64,4.68.88V40.7c-.12.27-1.64.92-4.68.92s-4.55-.65-4.67-.89V1.82c.13-.27,1.65-.91,4.68-.91m0-.46c-2.83,0-5.13.6-5.13,1.34V40.73c0,.75,2.3,1.35,5.13,1.35s5.14-.6,5.14-1.35V1.79c0-.74-2.3-1.34-5.14-1.34Z"/><path class="cls-58" d="M96.75.92c2.94,0,4.72.59,4.89.87v38.9c-.17.33-2,.92-4.89.92S92,41,91.86,40.73V1.83c.16-.32,2-.91,4.89-.91m0-.47c-3,0-5.36.6-5.36,1.34V40.73c0,.75,2.4,1.35,5.36,1.35s5.36-.6,5.36-1.35V1.79c0-.74-2.4-1.34-5.36-1.34Z"/><path class="cls-6" d="M107.28,40.73a.93.93,0,0,1-.16.52c-2.65.83-4.93.83-10.15.83s-7.49,0-10.15-.83a1,1,0,0,1-.15-.52c0-1.64,4.61-3,10.3-3S107.28,39.09,107.28,40.73Z"/><path class="cls-59" d="M101.61,40.73c0,.75-2.08,1.35-4.64,1.35s-4.64-.6-4.64-1.35S94.41,39.4,97,39.4,101.61,40,101.61,40.73Z"/><path class="cls-60" d="M139.9,21.23a1,1,0,0,1-.26.57c-.4.5-1.4,1.27-3.88,2.17a68.88,68.88,0,0,1-13.48,2.86c-.49.06-1,.13-1.52.18A206,206,0,0,1,97,28.3c-16.8,0-31.8-1.71-39.11-4.44-3.11-1.17-3.69-2.11-3.8-2.44v-.37c.1-.33.67-1.27,3.8-2.44,6.56-2.45,19.31-4.07,34-4.38v7c0,.37,2.3.66,5.13.66s5.14-.29,5.14-.66v-7c4.26.08,8.39.28,12.31.6h.06c9.21.75,16.76,2,21.29,3.66,2.59.93,3.52,1.75,3.85,2.15l.07.09a.94.94,0,0,1,.2.38A.41.41,0,0,1,139.9,21.23Z"/><path class="cls-61" d="M140.36,21.39a.28.28,0,0,1,0,.13.15.15,0,0,1,0,.11c-.2,1.29-1.54,2.6-4,4.26a213.28,213.28,0,0,1-20.82,11.57,63.51,63.51,0,0,1-8.36,3.79c-2.65.83-4.93.83-10.15.83s-7.49,0-10.15-.83a63,63,0,0,1-8.35-3.79A212.12,212.12,0,0,1,57.65,25.89c-2.49-1.66-3.83-3-4-4.26a.22.22,0,0,1,0-.11.28.28,0,0,1,0-.13,1.13,1.13,0,0,1,0-.26.3.3,0,0,1,0-.13.22.22,0,0,1,0-.11c.2-1.28,1.54-2.6,4-4.25A208,208,0,0,1,78.47,5.07a63,63,0,0,1,8.35-3.79C89.47.45,91.75.45,97,.45s7.5,0,10.15.83a62.34,62.34,0,0,1,8.36,3.79A209.11,209.11,0,0,1,136.3,16.64c2.48,1.65,3.82,3,4,4.25a.15.15,0,0,1,0,.11.3.3,0,0,1,0,.13A1.13,1.13,0,0,1,140.36,21.39Z"/><path class="cls-62" d="M97,.45c5.23,0,7.5,0,10.15.83a62.34,62.34,0,0,1,8.36,3.79A209.11,209.11,0,0,1,136.3,16.64c2.48,1.65,3.82,3,4,4.25a.15.15,0,0,1,0,.11.3.3,0,0,1,0,.13,1.13,1.13,0,0,1,0,.26.28.28,0,0,1,0,.13.15.15,0,0,1,0,.11c-.2,1.29-1.54,2.6-4,4.26a213.28,213.28,0,0,1-20.82,11.57,63.51,63.51,0,0,1-8.36,3.79c-2.65.83-4.93.83-10.15.83s-7.49,0-10.15-.83a63,63,0,0,1-8.35-3.79A212.12,212.12,0,0,1,57.65,25.89c-2.49-1.66-3.83-3-4-4.26a.22.22,0,0,1,0-.11.28.28,0,0,1,0-.13,1.13,1.13,0,0,1,0-.26.3.3,0,0,1,0-.13.22.22,0,0,1,0-.11c.2-1.28,1.54-2.6,4-4.25A208,208,0,0,1,78.47,5.07a62.37,62.37,0,0,1,8.35-3.79C89.47.45,91.75.45,97,.45m0-.91c-5.24,0-7.64,0-10.42.87A61.84,61.84,0,0,0,78.1,4.24L78,4.31A208.06,208.06,0,0,0,57.14,15.88c-2.8,1.86-4.13,3.29-4.4,4.77a.92.92,0,0,0-.05.25,1.21,1.21,0,0,0,0,.23v.27a1.54,1.54,0,0,0,0,.24,1.39,1.39,0,0,0,.05.23c.28,1.49,1.56,2.88,4.4,4.78A213.35,213.35,0,0,0,78,38.22l.11.05a61.65,61.65,0,0,0,8.49,3.85C89.34,43,91.73,43,97,43s7.64,0,10.42-.87a61.11,61.11,0,0,0,8.49-3.85l.11-.05A213.35,213.35,0,0,0,136.8,26.65c2.84-1.9,4.13-3.29,4.41-4.78a.74.74,0,0,0,0-.23,1.66,1.66,0,0,0,0-.24,1.22,1.22,0,0,0,0-.27.72.72,0,0,0,0-.23.85.85,0,0,0,0-.25c-.28-1.48-1.61-2.91-4.41-4.77A209.18,209.18,0,0,0,116,4.31l-.11,0A62.78,62.78,0,0,0,107.4.41C104.61-.46,102.22-.46,97-.46Z"/><path class="cls-63" d="M101.61,1.79c0,.74-2.08,1.34-4.64,1.34s-4.64-.6-4.64-1.34S94.41.45,97,.45,101.61,1.05,101.61,1.79Z"/><path class="cls-64" d="M102.11,13.83c17.45.37,31.53,2.62,36.36,5.35,1.19.67,1.63,1.34,1.61,2.05A2.16,2.16,0,0,1,138.9,23c-4.76,3.09-21.47,5.75-41.94,5.75-18.85,0-34.57-2.36-40.64-5.1C54.59,22.87,54,22.22,54,21.42s.62-1.91,2.47-2.73c5.62-2.49,19-4.51,35.33-4.86"/><path class="cls-65" d="M102.1,14.28c20.42.44,37.38,3.87,37.63,7-.09,3.53-20.32,7-43.07,7S54,24.7,54,21.33s17.13-6.56,37.35-7"/><path class="cls-66" d="M107.28,1.79c0,1.65-4.62,3-10.31,3s-10.3-1.33-10.3-3a1,1,0,0,1,.15-.51C89.47.45,91.75.45,97,.45s7.5,0,10.15.83A.93.93,0,0,1,107.28,1.79Z"/><path class="cls-6" d="M107.28,1.79c0,1.65-4.62,3-10.31,3s-10.3-1.33-10.3-3a1,1,0,0,1,.15-.51C89.47.45,91.75.45,97,.45s7.5,0,10.15.83A.93.93,0,0,1,107.28,1.79Z"/><path class="cls-67" d="M97,.45c2.56,0,4.64.6,4.64,1.34S99.53,3.13,97,3.13s-4.64-.6-4.64-1.34S94.41.45,97,.45m0-.22c-2.41,0-4.86.54-4.86,1.56S94.56,3.35,97,3.35s4.86-.54,4.86-1.56S99.39.23,97,.23Z"/><path class="cls-68" d="M140.36,21.39a.28.28,0,0,1,0,.13.15.15,0,0,1,0,.11c-.2,1.29-1.54,2.6-4,4.26a213.28,213.28,0,0,1-20.82,11.57,63.51,63.51,0,0,1-8.36,3.79c7.57-3.87,11.57-11.4,11.55-13.58,0-2.56-13.48-24.08-13.48-24.08A11.85,11.85,0,0,0,97,.45c5.23,0,7.5,0,10.15.83a62.34,62.34,0,0,1,8.36,3.79A209.11,209.11,0,0,1,136.3,16.64c2.48,1.65,3.82,3,4,4.25a.15.15,0,0,1,0,.11.3.3,0,0,1,0,.13A1.13,1.13,0,0,1,140.36,21.39Z"/><path class="cls-69" d="M53.5,21.14a.28.28,0,0,1,0-.13.2.2,0,0,1,0-.11c.2-1.29,1.55-2.6,4-4.26A213.28,213.28,0,0,1,78.38,5.07a62.92,62.92,0,0,1,8.36-3.79c-7.58,3.87-16,12-16,14.2,0,2.56,17.89,23.46,17.89,23.46a11.89,11.89,0,0,0,8.22,3.14c-5.22,0-7.49,0-10.15-.83a63,63,0,0,1-8.35-3.79A209.11,209.11,0,0,1,57.56,25.89c-2.48-1.65-3.83-3-4-4.25a.22.22,0,0,1,0-.11.3.3,0,0,1,0-.13A1.13,1.13,0,0,1,53.5,21.14Z"/></g></svg>