<svg xmlns="http://www.w3.org/2000/svg" viewBox="0 0 200 200"><defs><style>.cls-1{fill:#996aab;}.cls-2{opacity:0.6;}.cls-3{fill:#fff;}.cls-4{opacity:0.4;}</style></defs><title>beadpurple</title><g id="highlight"><path class="cls-1" d="M151,180a.17.17,0,0,0,0-.11.28.28,0,0,0,0-.13,1,1,0,0,0,0-.25.34.34,0,0,0,0-.14.14.14,0,0,0,0-.1c-.24-1.25-1.81-2.55-4.73-4.17-8.17-4.54-19-9.07-24.47-11.33a82.94,82.94,0,0,0-9.82-3.72c-3.12-.81-5.79-.81-11.93-.81s-8.81,0-11.93.81a82.94,82.94,0,0,0-9.82,3.72C72.82,166,62,170.52,53.78,175.06c-2.92,1.62-4.49,2.92-4.73,4.17a.14.14,0,0,0,0,.1.34.34,0,0,0,0,.14,1,1,0,0,0,0,.25.28.28,0,0,0,0,.13.17.17,0,0,0,0,.11c.24,1.26,1.81,2.54,4.73,4.17,8.17,4.53,19,9.07,24.47,11.34a80.67,80.67,0,0,0,9.82,3.71c3.12.82,5.79.82,11.93.82s8.81,0,11.93-.82a80.67,80.67,0,0,0,9.82-3.71c5.43-2.27,16.3-6.81,24.47-11.34C149.14,182.5,150.71,181.22,151,180Z"/><g class="cls-2"><path class="cls-3" d="M83.68,185.15c4.55-.35,9.06-.54,13.57-.72l13.49-.56c4.49-.19,9-.37,13.47-.61s9-.54,13.53-.89a68.33,68.33,0,0,1-13.28,3.26,121.78,121.78,0,0,1-13.59,1.3c-4.55.19-9.1.14-13.64-.12A96.8,96.8,0,0,1,83.68,185.15Z"/></g><path class="cls-1" d="M151,20.27a1,1,0,0,1,0,.25.28.28,0,0,1,0,.13.18.18,0,0,1,0,.06.08.08,0,0,1,0,.05c-.24,1.26-1.82,2.55-4.74,4.17-8.15,4.53-19,9.07-24.46,11.34A78.38,78.38,0,0,1,111.92,40a29.54,29.54,0,0,1-7.54.81H100c-6.14,0-8.81,0-11.92-.82a78.38,78.38,0,0,1-9.83-3.71C72.82,34,61.94,29.46,53.79,24.93c-2.92-1.62-4.5-2.91-4.74-4.17a.15.15,0,0,1,0-.11.28.28,0,0,1,0-.13,1,1,0,0,1,0-.25.35.35,0,0,1,0-.14.14.14,0,0,1,0-.1c.24-1.25,1.82-2.55,4.74-4.17,8.15-4.54,19-9.07,24.46-11.33A82.43,82.43,0,0,1,88.07.82C91.19,0,93.86,0,100,0h4.38a29.23,29.23,0,0,1,7.55.81,82.43,82.43,0,0,1,9.82,3.71c5.43,2.26,16.31,6.79,24.46,11.33,2.92,1.62,4.5,2.92,4.74,4.17l0,0a.09.09,0,0,1,0,.05A.35.35,0,0,1,151,20.27Z"/><path class="cls-1" d="M151,60.55a.13.13,0,0,0,0-.1.29.29,0,0,0,0-.13,1.13,1.13,0,0,0,0-.26.3.3,0,0,0,0-.13.18.18,0,0,0,0-.11c-.24-1.25-1.81-2.54-4.73-4.16-8.17-4.54-19-9.07-24.47-11.33a81.16,81.16,0,0,0-9.82-3.72c-3.12-.81-5.79-.81-11.93-.81s-8.81,0-11.93.81a81.16,81.16,0,0,0-9.82,3.72C72.82,46.59,62,51.12,53.78,55.66c-2.92,1.62-4.49,2.91-4.73,4.16a.18.18,0,0,0,0,.11.3.3,0,0,0,0,.13,1.13,1.13,0,0,0,0,.26.29.29,0,0,0,0,.13.13.13,0,0,0,0,.1c.24,1.27,1.81,2.55,4.73,4.18,8.17,4.53,19,9.06,24.47,11.34a80.67,80.67,0,0,0,9.82,3.71c3.12.81,5.79.81,11.93.81s8.81,0,11.93-.81a80.67,80.67,0,0,0,9.82-3.71c5.43-2.28,16.3-6.81,24.47-11.34C149.14,63.1,150.71,61.82,151,60.55Z"/><path class="cls-1" d="M151,100.4a.17.17,0,0,0,0-.11.25.25,0,0,0,0-.12,1.13,1.13,0,0,0,0-.26.3.3,0,0,0,0-.13.15.15,0,0,0,0-.11c-.24-1.25-1.81-2.55-4.73-4.17-8.17-4.53-19-9.06-24.47-11.33a82.94,82.94,0,0,0-9.82-3.72c-3.12-.81-5.79-.81-11.93-.81s-8.81,0-11.93.81a82.94,82.94,0,0,0-9.82,3.72C72.82,86.44,62,91,53.78,95.5c-2.92,1.62-4.49,2.92-4.73,4.17a.15.15,0,0,0,0,.11.3.3,0,0,0,0,.13,1.13,1.13,0,0,0,0,.26.25.25,0,0,0,0,.12.17.17,0,0,0,0,.11c.24,1.26,1.81,2.55,4.73,4.17,8.17,4.53,19,9.07,24.47,11.34a79,79,0,0,0,9.82,3.71c3.12.82,5.79.82,11.93.82s8.81,0,11.93-.82a79,79,0,0,0,9.82-3.71c5.43-2.27,16.3-6.81,24.47-11.34C149.14,103,150.71,101.66,151,100.4Z"/><path class="cls-1" d="M151,140.18a.17.17,0,0,0,0-.11.28.28,0,0,0,0-.13,1,1,0,0,0,0-.25.29.29,0,0,0,0-.13.15.15,0,0,0,0-.11c-.24-1.25-1.81-2.55-4.73-4.17-8.17-4.54-19-9.06-24.47-11.33a82.94,82.94,0,0,0-9.82-3.72c-3.12-.81-5.79-.81-11.93-.81s-8.81,0-11.93.81A82.94,82.94,0,0,0,78.25,124c-5.43,2.27-16.3,6.79-24.47,11.33-2.92,1.62-4.49,2.92-4.73,4.17a.15.15,0,0,0,0,.11.29.29,0,0,0,0,.13,1,1,0,0,0,0,.25.28.28,0,0,0,0,.13.17.17,0,0,0,0,.11c.24,1.26,1.81,2.55,4.73,4.17,8.17,4.53,19,9.07,24.47,11.34a80.67,80.67,0,0,0,9.82,3.71c3.12.82,5.79.82,11.93.82s8.81,0,11.93-.82a80.67,80.67,0,0,0,9.82-3.71c5.43-2.27,16.3-6.81,24.47-11.34C149.14,142.73,150.71,141.44,151,140.18Z"/><g class="cls-4"><path class="cls-3" d="M103.57,159.93c14.35,4,39.35,18.84,40.29,21.65,1,3.06-32.64,18.35-42.84,18.35-9.18,1-24.48-10.19-27.54-14.27s5.92-17,21.45-26.22c-8.71-2.47-19-10.3-21.45-13.56-3-4,5.92-17,21.45-26.22-8.71-2.47-19-10.3-21.45-13.56-3-4,6-17.1,21.54-26.27C86.29,77.4,75.94,69.51,73.48,66.24c-3-4,5.89-17,21.38-26.18-8.7-2.48-18.94-10.29-21.38-13.54C70.42,22.44,79.6,9.18,95.46,0H100c13.26,2,42.84,19.38,43.86,22.44.94,2.82-27.74,16.11-40.15,18.11,14.37,4.05,39.22,18.81,40.15,21.61s-28.25,16.35-40.47,18.16c14.32,3.92,39.53,18.87,40.47,21.7s-28,16.22-40.29,18.13c14.35,4,39.35,18.84,40.29,21.65S115.89,158,103.57,159.93Z"/></g><g class="cls-2"><path class="cls-3" d="M83.68,65.83c4.55-.35,9.06-.54,13.57-.72l13.49-.56c4.49-.19,9-.37,13.47-.62s9-.54,13.53-.88a68.33,68.33,0,0,1-13.28,3.26,121.78,121.78,0,0,1-13.59,1.3c-4.55.19-9.1.14-13.64-.12A96.8,96.8,0,0,1,83.68,65.83Z"/></g><g class="cls-2"><path class="cls-3" d="M83.68,105.59c4.55-.35,9.06-.53,13.57-.72l13.49-.55c4.49-.2,9-.38,13.47-.62s9-.54,13.53-.89a68.33,68.33,0,0,1-13.28,3.26,119.46,119.46,0,0,1-13.59,1.3c-4.55.19-9.1.14-13.64-.12A96.8,96.8,0,0,1,83.68,105.59Z"/></g><g class="cls-2"><path class="cls-3" d="M83.68,145.37c4.55-.35,9.06-.53,13.57-.72l13.49-.55c4.49-.2,9-.38,13.47-.62s9-.54,13.53-.89a68.33,68.33,0,0,1-13.28,3.26,121.78,121.78,0,0,1-13.59,1.3c-4.55.19-9.1.14-13.64-.12A96.8,96.8,0,0,1,83.68,145.37Z"/></g><g class="cls-2"><path class="cls-3" d="M83.68,26c4.55-.35,9.06-.53,13.57-.72l13.49-.55c4.49-.2,9-.37,13.47-.62s9-.54,13.53-.88a68.31,68.31,0,0,1-13.28,3.25,121.8,121.8,0,0,1-13.59,1.31,134.9,134.9,0,0,1-13.64-.13A93.9,93.9,0,0,1,83.68,26Z"/></g></g></svg>