<svg xmlns="http://www.w3.org/2000/svg" viewBox="0 0 200 200"><defs><style>.cls-1{fill:#133c2a;}.cls-2{opacity:0.4;}.cls-3{fill:#fff;}.cls-4{opacity:0.6;}</style></defs><title>beadgreen</title><g id="beads_copy" data-name="beads copy"><path class="cls-1" d="M150,19.87a1,1,0,0,1,0,.25.28.28,0,0,1,0,.13.11.11,0,0,1,0,.05.08.08,0,0,1,0,.05c-.23,1.24-1.78,2.5-4.64,4.09-8,4.44-18.66,8.89-24,11.12a77.25,77.25,0,0,1-9.63,3.64,29,29,0,0,1-7.4.79H100c-6,0-8.64,0-11.69-.8a77.25,77.25,0,0,1-9.63-3.64c-5.33-2.23-16-6.68-24-11.12-2.86-1.59-4.41-2.85-4.64-4.09a.13.13,0,0,1,0-.1.28.28,0,0,1,0-.13,1,1,0,0,1,0-.25.3.3,0,0,1,0-.13.14.14,0,0,1,0-.1c.23-1.23,1.78-2.5,4.64-4.09,8-4.45,18.66-8.89,24-11.11A81.36,81.36,0,0,1,88.3.8C91.36,0,94,0,100,0h4.29A29.16,29.16,0,0,1,111.7.8a81.36,81.36,0,0,1,9.62,3.64c5.33,2.22,16,6.66,24,11.11,2.86,1.59,4.41,2.86,4.64,4.09a.17.17,0,0,1,0,.05.09.09,0,0,1,0,0A.3.3,0,0,1,150,19.87Z"/><path class="cls-1" d="M150,59.37a.15.15,0,0,0,0-.11.25.25,0,0,0,0-.12,1,1,0,0,0,0-.25.3.3,0,0,0,0-.13.17.17,0,0,0,0-.11c-.23-1.22-1.78-2.5-4.64-4.08-8-4.45-18.66-8.89-24-11.11a77.87,77.87,0,0,0-9.62-3.64C108.64,39,106,39,100,39s-8.64,0-11.7.8a77.87,77.87,0,0,0-9.62,3.64c-5.33,2.22-16,6.66-24,11.11-2.86,1.58-4.41,2.86-4.64,4.08a.17.17,0,0,0,0,.11.3.3,0,0,0,0,.13,1,1,0,0,0,0,.25.25.25,0,0,0,0,.12.15.15,0,0,0,0,.11c.23,1.24,1.78,2.5,4.64,4.09,8,4.44,18.66,8.89,24,11.12a78.93,78.93,0,0,0,9.63,3.64c3,.8,5.67.8,11.69.8s8.64,0,11.69-.8a78.93,78.93,0,0,0,9.63-3.64c5.33-2.23,16-6.68,24-11.12C148.17,61.87,149.72,60.61,150,59.37Z"/><path class="cls-1" d="M150,98.43a.13.13,0,0,0,0-.1.28.28,0,0,0,0-.13,1,1,0,0,0,0-.25.3.3,0,0,0,0-.13.14.14,0,0,0,0-.1c-.23-1.23-1.78-2.5-4.64-4.09-8-4.45-18.66-8.89-24-11.11a81.36,81.36,0,0,0-9.62-3.64c-3.06-.8-5.68-.8-11.7-.8s-8.64,0-11.7.8a81.36,81.36,0,0,0-9.62,3.64c-5.33,2.22-16,6.66-24,11.11-2.86,1.59-4.41,2.86-4.64,4.09a.14.14,0,0,0,0,.1A.3.3,0,0,0,50,98a1,1,0,0,0,0,.25.28.28,0,0,0,0,.13.13.13,0,0,0,0,.1c.23,1.24,1.78,2.5,4.64,4.09,8,4.44,18.66,8.89,24,11.12a77.25,77.25,0,0,0,9.63,3.64c3,.8,5.67.8,11.69.8s8.64,0,11.69-.8a77.25,77.25,0,0,0,9.63-3.64c5.33-2.23,16-6.68,24-11.12C148.17,100.93,149.72,99.67,150,98.43Z"/><path class="cls-1" d="M150,137.43a.13.13,0,0,0,0-.1.28.28,0,0,0,0-.13,1,1,0,0,0,0-.25.3.3,0,0,0,0-.13.14.14,0,0,0,0-.1c-.23-1.23-1.78-2.5-4.64-4.09-8-4.45-18.66-8.89-24-11.11a81.36,81.36,0,0,0-9.62-3.64c-3.06-.8-5.68-.8-11.7-.8s-8.64,0-11.7.8a81.36,81.36,0,0,0-9.62,3.64c-5.33,2.22-16,6.66-24,11.11-2.86,1.59-4.41,2.86-4.64,4.09a.14.14,0,0,0,0,.1.3.3,0,0,0,0,.13,1,1,0,0,0,0,.25.28.28,0,0,0,0,.13.13.13,0,0,0,0,.1c.23,1.24,1.78,2.5,4.64,4.09,8,4.44,18.66,8.89,24,11.12a77.25,77.25,0,0,0,9.63,3.64c3,.8,5.67.8,11.69.8s8.64,0,11.69-.8a77.25,77.25,0,0,0,9.63-3.64c5.33-2.23,16-6.68,24-11.12C148.17,139.93,149.72,138.67,150,137.43Z"/><path class="cls-1" d="M150,176.43a.13.13,0,0,0,0-.1.28.28,0,0,0,0-.13,1,1,0,0,0,0-.25.3.3,0,0,0,0-.13.14.14,0,0,0,0-.1c-.23-1.23-1.78-2.5-4.64-4.09-8-4.45-18.66-8.89-24-11.11a81.36,81.36,0,0,0-9.62-3.64c-3.06-.8-5.68-.8-11.7-.8s-8.64,0-11.7.8a81.36,81.36,0,0,0-9.62,3.64c-5.33,2.22-16,6.66-24,11.11-2.86,1.59-4.41,2.86-4.64,4.09a.14.14,0,0,0,0,.1.3.3,0,0,0,0,.13,1,1,0,0,0,0,.25.28.28,0,0,0,0,.13.13.13,0,0,0,0,.1c.23,1.24,1.78,2.5,4.64,4.09,8,4.44,18.66,8.89,24,11.12a77.25,77.25,0,0,0,9.63,3.64c3,.8,5.67.8,11.69.8s8.64,0,11.69-.8a77.25,77.25,0,0,0,9.63-3.64c5.33-2.23,16-6.68,24-11.12C148.17,178.93,149.72,177.67,150,176.43Z"/></g><g id="highlight"><g class="cls-2"><path class="cls-3" d="M95.55,0C80,9,71,22,74,26s18,15,27,14c10,0,43-15,42-18S113,2,100,0Z"/></g><g class="cls-2"><path class="cls-3" d="M95.55,38.94C80,47.94,71,60.94,74,64.94s18,15,27,14c10,0,43-15,42-18s-30-20-43-22C98.26,37.92,96.62,37.28,95.55,38.94Z"/></g><g class="cls-2"><path class="cls-3" d="M95.55,78C80,87,71,100,74,104s18,15,27,14c10,0,43-15,42-18s-30-20-43-22C98.26,77,96.62,76.36,95.55,78Z"/></g><g class="cls-2"><path class="cls-3" d="M95.55,117C80,126,71,139,74,143s18,15,27,14c10,0,43-15,42-18s-30-20-43-22C98.26,116,96.62,115.36,95.55,117Z"/></g><g class="cls-2"><path class="cls-3" d="M95.55,156C80,165,71,178,74,182s18,15,27,14c10,0,43-15,42-18s-30-20-43-22C98.26,155,96.62,154.36,95.55,156Z"/></g><g class="cls-4"><path class="cls-3" d="M84,64.54c4.46-.35,8.89-.53,13.3-.71l13.23-.54c4.4-.19,8.81-.37,13.21-.61s8.8-.53,13.26-.87A67.12,67.12,0,0,1,124,65a117,117,0,0,1-13.32,1.27c-2.23.07-4.46.13-6.69.11s-4.46-.07-6.69-.23A94.42,94.42,0,0,1,84,64.54Z"/></g><g class="cls-4"><path class="cls-3" d="M84,103.52c4.46-.34,8.89-.52,13.3-.7l13.23-.55c4.4-.19,8.81-.36,13.21-.6s8.8-.53,13.26-.87a67.12,67.12,0,0,1-13,3.2,121.73,121.73,0,0,1-13.32,1.27c-2.23.07-4.46.12-6.69.11s-4.46-.07-6.69-.23A93,93,0,0,1,84,103.52Z"/></g><g class="cls-4"><path class="cls-3" d="M84,142.52c4.46-.34,8.89-.52,13.3-.7l13.23-.55c4.4-.19,8.81-.36,13.21-.6s8.8-.53,13.26-.87a67.12,67.12,0,0,1-13,3.2,121.73,121.73,0,0,1-13.32,1.27c-2.23.07-4.46.12-6.69.11s-4.46-.07-6.69-.23A93,93,0,0,1,84,142.52Z"/></g><g class="cls-4"><path class="cls-3" d="M84,181.52c4.46-.34,8.89-.52,13.3-.7l13.23-.55c4.4-.19,8.81-.36,13.21-.6s8.8-.53,13.26-.87a67.12,67.12,0,0,1-13,3.2,121.73,121.73,0,0,1-13.32,1.27c-2.23.07-4.46.12-6.69.11s-4.46-.07-6.69-.23A93,93,0,0,1,84,181.52Z"/></g><g class="cls-4"><path class="cls-3" d="M84,25.52c4.46-.34,8.89-.52,13.3-.7l13.23-.55c4.4-.19,8.81-.36,13.21-.6s8.8-.53,13.26-.87A67.12,67.12,0,0,1,124,26a121.73,121.73,0,0,1-13.32,1.27c-2.23.07-4.46.12-6.69.11s-4.46-.07-6.69-.23A93,93,0,0,1,84,25.52Z"/></g></g></svg>