<svg xmlns="http://www.w3.org/2000/svg" xmlns:xlink="http://www.w3.org/1999/xlink" viewBox="0 0 454.75 338.09"><defs><style>.cls-1{fill:#edce8c;}.cls-2{fill:url(#linear-gradient);}</style><linearGradient id="linear-gradient" x1="432.54" y1="169.04" x2="22.21" y2="169.04" gradientUnits="userSpaceOnUse"><stop offset="0" stop-color="#267855"/><stop offset="0.86" stop-color="#edce8c"/></linearGradient></defs><title>yellowleft copy</title><g id="Layer_6" data-name="Layer 6"><path class="cls-1" d="M42.27,162,247.91,43.28a8.12,8.12,0,0,1,12.18,7v67.42H408.42a8.13,8.13,0,0,1,8.12,8.12v85.57a8.13,8.13,0,0,1-8.12,8.12H260.09v68.22a8.12,8.12,0,0,1-12.18,7L42.27,176.08A8.12,8.12,0,0,1,42.27,162Z"/><path class="cls-2" d="M252,42.18a8.14,8.14,0,0,1,8.13,8.14v67.42H408.42a8.13,8.13,0,0,1,8.12,8.12v85.57a8.13,8.13,0,0,1-8.12,8.12H260.09v68.22A8.13,8.13,0,0,1,252,295.9a8,8,0,0,1-4.05-1.1L42.27,176.08a8.12,8.12,0,0,1,0-14.07L247.91,43.28a8.07,8.07,0,0,1,4.05-1.1m0-16h0a24,24,0,0,0-12,3.25L34.27,148.15a24.13,24.13,0,0,0,0,41.79L239.91,308.66a24.11,24.11,0,0,0,36.18-20.89V235.55H408.42a24.15,24.15,0,0,0,24.12-24.12V125.86a24.15,24.15,0,0,0-24.12-24.12H276.09V50.32A24.17,24.17,0,0,0,252,26.18Z"/></g></svg>