<svg xmlns="http://www.w3.org/2000/svg" xmlns:xlink="http://www.w3.org/1999/xlink" viewBox="0 0 454.75 338.09"><defs><style>.cls-1{fill:#267855;}.cls-2{fill:url(#linear-gradient);}</style><linearGradient id="linear-gradient" x1="38.21" y1="169.04" x2="416.54" y2="169.04" gradientTransform="matrix(-1, 0, 0, 1, 454.75, 0)" gradientUnits="userSpaceOnUse"><stop offset="0" stop-color="#267855"/><stop offset="0.86" stop-color="#edce8c"/></linearGradient></defs><title>borderleft</title><g id="Layer_4" data-name="Layer 4"><path class="cls-1" d="M252,34.18a16.16,16.16,0,0,1,16.13,16.14v59.42H408.42a16.14,16.14,0,0,1,16.12,16.12v85.57a16.14,16.14,0,0,1-16.12,16.12H268.09v60.22a16.11,16.11,0,0,1-24.18,14L38.27,183a16.13,16.13,0,0,1,0-27.93L243.91,36.35A16.12,16.12,0,0,1,252,34.18m0-16a32.09,32.09,0,0,0-16.05,4.32L30.27,141.22a32.13,32.13,0,0,0,0,55.64L235.91,315.59a32.17,32.17,0,0,0,16,4.31h0a32.17,32.17,0,0,0,32.13-32.13V243.55H408.42a32.16,32.16,0,0,0,32.12-32.12V125.86a32.16,32.16,0,0,0-32.12-32.12H284.09V50.32A32.17,32.17,0,0,0,252,18.18Z"/><path class="cls-2" d="M42.27,162,247.91,43.28a8.12,8.12,0,0,1,12.18,7v67.42H408.42a8.13,8.13,0,0,1,8.12,8.12v85.57a8.13,8.13,0,0,1-8.12,8.12H260.09v68.22a8.12,8.12,0,0,1-12.18,7L42.27,176.08A8.12,8.12,0,0,1,42.27,162Z"/></g></svg>