<svg xmlns="http://www.w3.org/2000/svg" viewBox="0 0 200 200"><defs><style>.cls-1,.cls-5{fill:#133c2a;}.cls-2{fill:#fff;}.cls-3{fill:#edce8c;}.cls-4{fill:none;stroke:#edce8c;stroke-miterlimit:10;stroke-width:1.09px;}.cls-5{font-size:29.08px;font-family:Impact, Impact;}</style></defs><title>circleciricle</title><g id="Layer_14" data-name="Layer 14"><path class="cls-1" d="M200,100A100,100,0,0,1,16,154.26,100,100,0,1,1,200,100Z"/><path class="cls-2" d="M16.81,152.76a98.57,98.57,0,0,1,0-105.51H183.2a98.57,98.57,0,0,1,0,105.51Z"/><path class="cls-1" d="M182.37,48.75a97.07,97.07,0,0,1,0,102.51H17.64a97.07,97.07,0,0,1,0-102.51H182.37m1.65-3H16a100.07,100.07,0,0,0,0,108.51H184a100.07,100.07,0,0,0,0-108.51Z"/><ellipse class="cls-3" cx="135.61" cy="87.86" rx="13.92" ry="6.7"/><ellipse class="cls-3" cx="171.29" cy="87.86" rx="13.92" ry="6.7"/><ellipse class="cls-3" cx="171.29" cy="70.03" rx="13.92" ry="6.7"/><ellipse class="cls-3" cx="64.25" cy="123.51" rx="13.92" ry="6.7"/><ellipse class="cls-3" cx="99.93" cy="123.51" rx="13.92" ry="6.7"/><ellipse class="cls-3" cx="135.61" cy="123.51" rx="13.92" ry="6.7"/><ellipse class="cls-3" cx="171.29" cy="123.51" rx="13.92" ry="6.7"/><ellipse class="cls-3" cx="64.25" cy="141.33" rx="13.92" ry="6.7"/><ellipse class="cls-3" cx="28.57" cy="141.33" rx="13.92" ry="6.7"/><ellipse class="cls-3" cx="99.93" cy="141.33" rx="13.92" ry="6.7"/><ellipse class="cls-3" cx="135.61" cy="141.33" rx="13.92" ry="6.7"/><ellipse class="cls-3" cx="171.29" cy="141.33" rx="13.92" ry="6.7"/><ellipse class="cls-3" cx="99.93" cy="105.68" rx="13.91" ry="6.7"/><ellipse class="cls-3" cx="135.61" cy="105.68" rx="13.92" ry="6.7"/><ellipse class="cls-3" cx="171.29" cy="105.68" rx="13.92" ry="6.7"/><line class="cls-4" x1="64.25" y1="45.75" x2="64.25" y2="152.61"/><line class="cls-4" x1="28.57" y1="46.96" x2="28.57" y2="152.61"/><line class="cls-4" x1="99.74" y1="45.75" x2="99.74" y2="152.61"/><line class="cls-4" x1="135.61" y1="45.75" x2="135.61" y2="152.61"/><line class="cls-4" x1="171.29" y1="47.2" x2="171.29" y2="152.61"/><path class="cls-1" d="M182.37,48.75a97.07,97.07,0,0,1,0,102.51H17.64a97.07,97.07,0,0,1,0-102.51H182.37m1.65-3H16a100.07,100.07,0,0,0,0,108.51H184a100.07,100.07,0,0,0,0-108.51Z"/><text class="cls-5" transform="translate(20.4 79) scale(1.03 1)">Progressive<tspan x="0" y="34.89">Abacus</tspan></text><path class="cls-1" d="M100,4A96,96,0,1,1,19.34,47.92,95.73,95.73,0,0,1,100,4m0-4a100,100,0,1,0,84,45.75A99.92,99.92,0,0,0,100,0Z"/></g></svg>