<svg xmlns="http://www.w3.org/2000/svg" xmlns:xlink="http://www.w3.org/1999/xlink" viewBox="0 0 200 200"><defs><style>.cls-1{fill:url(#linear-gradient);}</style><linearGradient id="linear-gradient" x1="32.75" y1="166.56" x2="167.07" y2="33.6" gradientUnits="userSpaceOnUse"><stop offset="0" stop-color="#133c2a"/><stop offset="0.5" stop-color="#b8c4bf"/><stop offset="1" stop-color="#133c2a"/></linearGradient></defs><title>colorciricle copy 3</title><g id="Layer_19" data-name="Layer 19"><path class="cls-1" d="M184,45.75A100.07,100.07,0,1,0,200,100,99.92,99.92,0,0,0,184,45.75Zm-17.19-13c15.33,15.33,16.53,41.06,5.78,67.37l-6.81-6.82c5.71-6.62,7.13-14.79,3-18.89s-12.27-2.69-18.89,3l-6-6c5.71-6.62,7.13-14.79,3-18.89s-12.27-2.69-18.89,3L122,49.5c5.71-6.62,7.13-14.79,3-18.9s-12.27-2.68-18.89,3L99.45,27C125.76,16.2,151.5,17.41,166.83,32.74ZM54.26,58.13,68,71.82c-5.71,6.62-7.13,14.79-3,18.89s12.27,2.68,18.89-3l6.1,6.1c-5.71,6.62-7.13,14.79-3,18.89s12.27,2.69,18.89-3l6,6c-5.72,6.62-7.13,14.79-3,18.89s12.27,2.69,18.89-3l13.83,13.83A136.52,136.52,0,0,1,103,171.94L95.09,164c5.71-6.62,7.13-14.79,3-18.89s-12.27-2.69-18.89,3l-6-6c5.71-6.62,7.13-14.79,3-18.89s-12.27-2.69-18.89,3l-6.1-6.1c5.71-6.62,7.13-14.79,3-18.9s-12.27-2.68-18.89,3l-7.81-7.8A136.73,136.73,0,0,1,54.26,58.13ZM31.7,167.86c-15.33-15.33-16.54-41.06-5.78-67.37l6.68,6.68c-5.71,6.62-7.13,14.79-3,18.89s12.27,2.69,18.89-3l6.1,6.11c-5.71,6.62-7.13,14.79-3,18.89s12.27,2.68,18.89-3l6,6c-5.71,6.62-7.13,14.78-3,18.89s12.27,2.68,18.89-3l6.82,6.82C72.77,184.4,47,183.19,31.7,167.86Zm112.57-25.39-13.83-13.83c5.71-6.62,7.13-14.78,3-18.89s-12.27-2.68-18.89,3l-6-6c5.71-6.63,7.13-14.79,3-18.9s-12.27-2.68-18.89,3l-6.1-6.1c5.71-6.62,7.13-14.79,3-18.89S77.4,63.27,70.78,69L57.09,55.3A136.32,136.32,0,0,1,95.5,28.66l7.81,7.8c-5.71,6.62-7.13,14.79-3,18.89s12.27,2.69,18.89-3l6.1,6.11c-5.71,6.62-7.13,14.79-3,18.89s12.27,2.68,18.89-3l6,6c-5.71,6.62-7.13,14.78-3,18.89s12.28,2.68,18.9-3l7.94,7.94A136.73,136.73,0,0,1,144.27,142.47Z"/></g></svg>