<svg xmlns="http://www.w3.org/2000/svg" xmlns:xlink="http://www.w3.org/1999/xlink" viewBox="0 0 800 800"><defs><style>.cls-1{fill:#d17d18;}.cls-2{fill:url(#linear-gradient);}.cls-3{fill:#fff;}</style><linearGradient id="linear-gradient" x1="10" y1="400" x2="790" y2="400" gradientUnits="userSpaceOnUse"><stop offset="0" stop-color="#edce8c"/><stop offset="0.2" stop-color="#edce8c"/><stop offset="0.27" stop-color="#e7cb8a"/><stop offset="0.38" stop-color="#d4c385"/><stop offset="0.5" stop-color="#b7b67d"/><stop offset="0.63" stop-color="#8da571"/><stop offset="0.78" stop-color="#598e63"/><stop offset="0.9" stop-color="#267855"/><stop offset="1" stop-color="#267855"/></linearGradient></defs><title>customversion2 copy 2</title><g id="Layer_3" data-name="Layer 3"><circle class="cls-1" cx="400" cy="400" r="390"/><path class="cls-2" d="M790,400q0,3.66-.07,7.3a388.08,388.08,0,0,1-35.69,156q-7,15.09-15.17,29.47C672,710.59,545.26,790,400,790S128,710.59,60.93,592.81q-8.2-14.37-15.17-29.47a388.08,388.08,0,0,1-35.69-156Q10,403.66,10,400q0-4.15.09-8.3a388.17,388.17,0,0,1,36.13-156q7-15.1,15.27-29.47C128.75,89,255.15,10,400,10S671.25,89,738.51,206.2q8.25,14.37,15.27,29.47a388.17,388.17,0,0,1,36.13,156Q790,395.84,790,400Z"/><path class="cls-3" d="M790,398.41q0,3.66-.07,7.3H10.07q-.08-3.65-.07-7.3,0-4.16.09-8.3H789.91Q790,394.25,790,398.41Z"/><path class="cls-3" d="M753.78,234.94H46.22q7-16,15.27-31.2h677Q746.76,219,753.78,234.94Z"/><path class="cls-3" d="M754.24,560.88q-7,16-15.17,31.2H60.93q-8.2-15.21-15.17-31.2Z"/><circle class="cls-3" cx="254.92" cy="576.48" r="66.3"/><circle class="cls-3" cx="628.02" cy="397.38" r="48.75"/><circle class="cls-3" cx="254.92" cy="223.52" r="66.3"/></g></svg>