<svg xmlns="http://www.w3.org/2000/svg" xmlns:xlink="http://www.w3.org/1999/xlink" viewBox="0 0 400 400"><defs><style>.cls-1{fill:#d17d18;}.cls-2{fill:url(#linear-gradient);}.cls-3{fill:#fff;}</style><linearGradient id="linear-gradient" y1="200" x2="400" y2="200" gradientUnits="userSpaceOnUse"><stop offset="0" stop-color="#edce8c"/><stop offset="0.01" stop-color="#edcf8e"/><stop offset="0.14" stop-color="#f3ddae"/><stop offset="0.21" stop-color="#f5e2ba"/><stop offset="0.29" stop-color="#f4e0b6"/><stop offset="0.37" stop-color="#f2dbaa"/><stop offset="0.45" stop-color="#efd397"/><stop offset="0.48" stop-color="#edce8c"/><stop offset="0.91" stop-color="#93785f"/><stop offset="1" stop-color="#93785f"/></linearGradient></defs><title>goldcustom</title><g id="artboard2"><g id="difficulty_copy_3" data-name="difficulty copy 3"><circle class="cls-1" cx="200" cy="200" r="200"/><path class="cls-2" d="M400,200c0,1.25,0,2.5,0,3.74a199,199,0,0,1-18.3,80q-3.57,7.74-7.78,15.12a200.06,200.06,0,0,1-347.76,0q-4.22-7.38-7.78-15.12a199,199,0,0,1-18.3-80c0-1.24,0-2.49,0-3.74,0-1.42,0-2.84.05-4.26a199,199,0,0,1,18.52-80q3.6-7.76,7.83-15.12a200.08,200.08,0,0,1,347.2,0q4.22,7.38,7.83,15.12a199,199,0,0,1,18.52,80C400,197.16,400,198.58,400,200Z"/><path class="cls-3" d="M400,199.18c0,1.25,0,2.5,0,3.75H0c0-1.25,0-2.5,0-3.75,0-1.42,0-2.84.05-4.25H400C400,196.34,400,197.76,400,199.18Z"/><path class="cls-3" d="M381.43,115.36H18.57q3.6-8.2,7.83-16H373.6Q377.82,107.16,381.43,115.36Z"/><path class="cls-3" d="M381.66,282.5q-3.57,8.21-7.78,16H26.12q-4.22-7.8-7.78-16Z"/><circle class="cls-3" cx="125.6" cy="290.5" r="34"/><circle class="cls-3" cx="316.93" cy="198.66" r="25"/><circle class="cls-3" cx="125.6" cy="109.5" r="34"/></g></g></svg>