<svg xmlns="http://www.w3.org/2000/svg" xmlns:xlink="http://www.w3.org/1999/xlink" viewBox="0 0 800 1000"><defs><style>.cls-1{fill:url(#linear-gradient);}.cls-2{fill:#267855;}.cls-3{fill:#edce8c;}.cls-4{fill:#67a187;}.cls-5{fill:url(#linear-gradient-2);}.cls-6{fill:url(#linear-gradient-3);}.cls-7{fill:url(#linear-gradient-4);}.cls-8{fill:red;}</style><linearGradient id="linear-gradient" x1="400.26" y1="77.83" x2="400.26" y2="20" gradientUnits="userSpaceOnUse"><stop offset="0" stop-color="#267855"/><stop offset="0.1" stop-color="#2f7c57"/><stop offset="0.27" stop-color="#47865e"/><stop offset="0.48" stop-color="#6f9869"/><stop offset="0.72" stop-color="#a6af78"/><stop offset="1" stop-color="#eccd8c"/><stop offset="1" stop-color="#edce8c"/></linearGradient><linearGradient id="linear-gradient-2" x1="243.69" y1="710.66" x2="188.22" y2="777.41" gradientUnits="userSpaceOnUse"><stop offset="0" stop-color="#edce8c"/><stop offset="0.2" stop-color="#edce8c"/><stop offset="0.39" stop-color="#ebcd8b" stop-opacity="0.99"/><stop offset="0.5" stop-color="#e3ca89" stop-opacity="0.97"/><stop offset="0.6" stop-color="#d6c486" stop-opacity="0.93"/><stop offset="0.68" stop-color="#c4bc81" stop-opacity="0.88"/><stop offset="0.76" stop-color="#adb27a" stop-opacity="0.81"/><stop offset="0.83" stop-color="#90a672" stop-opacity="0.72"/><stop offset="0.89" stop-color="#6d9769" stop-opacity="0.61"/><stop offset="0.96" stop-color="#46865e" stop-opacity="0.5"/><stop offset="1" stop-color="#267855" stop-opacity="0.4"/></linearGradient><linearGradient id="linear-gradient-3" x1="561.2" y1="603.33" x2="645.86" y2="518.68" gradientUnits="userSpaceOnUse"><stop offset="0" stop-color="#267855" stop-opacity="0.4"/><stop offset="0.04" stop-color="#46865e" stop-opacity="0.5"/><stop offset="0.11" stop-color="#6d9769" stop-opacity="0.61"/><stop offset="0.17" stop-color="#90a672" stop-opacity="0.72"/><stop offset="0.24" stop-color="#adb27a" stop-opacity="0.81"/><stop offset="0.32" stop-color="#c4bc81" stop-opacity="0.88"/><stop offset="0.4" stop-color="#d6c486" stop-opacity="0.93"/><stop offset="0.5" stop-color="#e3ca89" stop-opacity="0.97"/><stop offset="0.61" stop-color="#ebcd8b" stop-opacity="0.99"/><stop offset="0.8" stop-color="#edce8c"/><stop offset="1" stop-color="#edce8c"/></linearGradient><linearGradient id="linear-gradient-4" x1="181.23" y1="419.32" x2="251.95" y2="348.61" xlink:href="#linear-gradient-3"/></defs><title>customversion1 copy 2</title><g id="Layer_7" data-name="Layer 7"><path class="cls-1" d="M42.94,60.71a5.18,5.18,0,0,1,3.37-1.21,4.11,4.11,0,0,1,2.81,1,3.42,3.42,0,0,1,1.17,2.68,6.85,6.85,0,0,1-.44,1.9,45.73,45.73,0,0,1-3.28,4.41,23.64,23.64,0,0,1-4,3.8A19.19,19.19,0,0,1,37.66,76a16.78,16.78,0,0,1-5.87,1,19.93,19.93,0,0,1-8.73-1.9,20.48,20.48,0,0,1-6.83-5.23,24,24,0,0,1-4.41-7.78,28.64,28.64,0,0,1-1.56-9.55,22.41,22.41,0,0,1,1-6.65,38.41,38.41,0,0,1,3-7.26,23.74,23.74,0,0,1,4.15-5.49,29.12,29.12,0,0,1,5.53-4.24,52.87,52.87,0,0,1,7.18-3.5H31a35.93,35.93,0,0,1,4.8-1.73,16.86,16.86,0,0,1,4.45-.6,10,10,0,0,1,5.88,1.81A16.74,16.74,0,0,1,51,31.06a6.07,6.07,0,0,1,.17,1.39A3.42,3.42,0,0,1,50,35.13a4.06,4.06,0,0,1-2.81,1,5.28,5.28,0,0,1-3.8-1.72,26.1,26.1,0,0,0-1.9-2.94,2,2,0,0,0-1.56-.87,5.55,5.55,0,0,0-1.55.35c-.7.23-1.44.49-2.25.78l-1.38.51a32.9,32.9,0,0,0-6,3,23,23,0,0,0-5.06,4.37,20,20,0,0,0-3.5,5.87,20.86,20.86,0,0,0-1.3,7.65,20.44,20.44,0,0,0,.87,5.92,16.54,16.54,0,0,0,2.55,5.19A13.06,13.06,0,0,0,26.34,68a10.87,10.87,0,0,0,5.53,1.39,7.72,7.72,0,0,0,3.42-.78,12.59,12.59,0,0,0,2.94-2,20.38,20.38,0,0,0,2.5-2.72,24.75,24.75,0,0,0,2-3.07Zm49,8.13a5,5,0,0,1,1.12,2.85,3.19,3.19,0,0,1-1.17,2.55,4.18,4.18,0,0,1-2.81,1,4.49,4.49,0,0,1-3.38-1.47,12.89,12.89,0,0,1-2.35-3.45,22,22,0,0,1-5.09,3.45,13.08,13.08,0,0,1-6,1.47,13.48,13.48,0,0,1-4.62-.82,16.18,16.18,0,0,1-4.23-2.24,15.89,15.89,0,0,1-3.37-3.33,15.47,15.47,0,0,1-2.2-4.07A23.26,23.26,0,0,1,57,59.85c-.14-1.79-.21-3.66-.21-5.62V50.51c0-1.21,0-2.39.08-3.54.06-1,.1-1.93.13-2.85s.05-1.79.05-2.6a4.53,4.53,0,0,1,1.58-2.76,4.35,4.35,0,0,1,2.69-.87,4.54,4.54,0,0,1,2.53.83,4.05,4.05,0,0,1,1.67,2.54v3.89q0,1.91-.09,3.81c-.06,1.32-.1,2.62-.13,3.89s0,2.62,0,4.06a14.31,14.31,0,0,0,1.82,7.61,5.59,5.59,0,0,0,5,2.93,6.89,6.89,0,0,0,4.69-1.94,36.45,36.45,0,0,0,4.17-4.45,69.42,69.42,0,0,1-.52-8.47c0-1.67,0-3.37,0-5.1a23.93,23.93,0,0,1,.51-4.71,9,9,0,0,1,1.46-3.46,3.43,3.43,0,0,1,3-1.34,4.23,4.23,0,0,1,2.78,1,3.81,3.81,0,0,1,1.24,3.11,36.41,36.41,0,0,1-.26,4.15c-.11,1-.2,2-.25,3.11s-.09,2.22-.09,3.37c0,1.56,0,3.13.13,4.71A37.45,37.45,0,0,0,89.4,62a27.47,27.47,0,0,0,1,3.93A8.94,8.94,0,0,0,92,68.84Zm6.83,0q-1.22-2.5,0-4.19A3.89,3.89,0,0,1,102.15,63a6,6,0,0,1,3.19,1.12,17.05,17.05,0,0,0,4.32,4.07,7,7,0,0,0,5.28,1.12,5.69,5.69,0,0,0,2.29-1,4.77,4.77,0,0,0,1.47-1.69,4.5,4.5,0,0,0,.47-2.07,3.84,3.84,0,0,0-.6-2.08,7.38,7.38,0,0,0-1.69-1.9,6.82,6.82,0,0,0-1.9-1,13.93,13.93,0,0,0-1.9-.52,11.27,11.27,0,0,1-1.69-.43c-.86-.23-1.73-.47-2.59-.73a15.44,15.44,0,0,1-2.51-1A13.21,13.21,0,0,1,104,55.31,12.91,12.91,0,0,1,101.8,53a10.33,10.33,0,0,1-1.47-2.81,8.85,8.85,0,0,1-.52-2.81,10.89,10.89,0,0,1,.69-3.72,14.16,14.16,0,0,1,1.86-3.5,12.72,12.72,0,0,1,2.77-2.76,9.42,9.42,0,0,1,3.41-1.6,17.45,17.45,0,0,1,7.56-.26A22.33,22.33,0,0,1,123.15,38,6.82,6.82,0,0,1,125,39.8a3.41,3.41,0,0,1,.6,1.81,3.26,3.26,0,0,1-.56,1.86,4.51,4.51,0,0,1-1.47,1.34,4.18,4.18,0,0,1-2.07.52,5.2,5.2,0,0,1-2.47-.7,15.71,15.71,0,0,0-2.9-1,11.49,11.49,0,0,0-3.67-.34,5.05,5.05,0,0,0-3,1.16c-.8.69-1.12,1.85-1,3.46a6,6,0,0,0,1.26,1.6,7.06,7.06,0,0,0,1.64,1.08,12.49,12.49,0,0,0,2,.73c.69.21,1.35.39,2,.57a38.25,38.25,0,0,1,4.93,1.77,14.5,14.5,0,0,1,3.89,2.46,10.11,10.11,0,0,1,2.55,3.55,12.36,12.36,0,0,1,.91,5,10.6,10.6,0,0,1-1,4.54,14.31,14.31,0,0,1-2.72,3.93A13.68,13.68,0,0,1,120,75.93a9.91,9.91,0,0,1-4.32,1,21.83,21.83,0,0,1-9.42-2.16,18.78,18.78,0,0,1-7.35-6Zm37.94-23.51a5.94,5.94,0,0,1-3.24-1.39,3.24,3.24,0,0,1-1.08-2.42,3.69,3.69,0,0,1,1.17-2.59,4.62,4.62,0,0,1,3.5-1.21h4V24.5a4.74,4.74,0,0,1,1.6-2.73,4.23,4.23,0,0,1,2.64-.91,4.53,4.53,0,0,1,2.59.83,4.12,4.12,0,0,1,1.64,2.55V37.72h7.61a5.64,5.64,0,0,1,2.81,1.56,3.32,3.32,0,0,1,.91,2.24c0,1.85-1.33,3.11-4,3.81h-7.35v15.9c0,1.79,0,3.58.05,5.36s0,3.57,0,5.36a3.74,3.74,0,0,1-1.38,3.2,4.72,4.72,0,0,1-2.86,1,4.37,4.37,0,0,1-2.72-1,4.16,4.16,0,0,1-1.51-2.93c0-2.19,0-4.46,0-6.79s-.05-4.65-.05-7V45.33Zm44.43-7.78a13.14,13.14,0,0,1,6.44,1.55,15.13,15.13,0,0,1,4.75,4.11A18.19,18.19,0,0,1,195.28,49a22.22,22.22,0,0,1,1,6.61,19.35,19.35,0,0,1-.18,2.73c-.11.83-.25,1.68-.43,2.55a25.87,25.87,0,0,1-2.81,6.65,23.52,23.52,0,0,1-4.36,5.4,19.23,19.23,0,0,1-5.58,3.59,16.43,16.43,0,0,1-6.44,1.3A13.37,13.37,0,0,1,170,76.27a15.93,15.93,0,0,1-4.88-4A19,19,0,0,1,161,60.54a23,23,0,0,1,1.6-8.43,26.46,26.46,0,0,1,4.32-7.35,21.87,21.87,0,0,1,6.4-5.22A16.15,16.15,0,0,1,181.15,37.55ZM170.09,56.17a17.4,17.4,0,0,0-.52,4.42,14.71,14.71,0,0,0,.69,4.56,8.34,8.34,0,0,0,2.29,3.6,6.08,6.08,0,0,0,4.28,1.47,7.45,7.45,0,0,0,4.62-1.52A14,14,0,0,0,184.91,65a18.49,18.49,0,0,0,2.2-4.77,16,16,0,0,0,.78-4.64,16.52,16.52,0,0,0-.43-3.77,11,11,0,0,0-1.34-3.34,7.88,7.88,0,0,0-2.2-2.38,5,5,0,0,0-2.94-.92,7.5,7.5,0,0,0-3.89,1.09,13.66,13.66,0,0,0-3.24,2.69,15.53,15.53,0,0,0-2.38,3.55A18.57,18.57,0,0,0,170.09,56.17ZM224.46,72.3V49a8.16,8.16,0,0,0-2.86-3.67,6,6,0,0,0-4.23-1.08,5.14,5.14,0,0,0-1.47.34,5,5,0,0,0-1.21.78,13,13,0,0,0-1.34,1.39q-.73.86-1.77,2.16V72.38a4,4,0,0,1-1.43,3.2,4.67,4.67,0,0,1-2.9,1,4.44,4.44,0,0,1-2.72-1A4.17,4.17,0,0,1,203,72.73V39.62q1-3.54,4.23-3.54a4.68,4.68,0,0,1,2.24.56,3.83,3.83,0,0,1,1.64,1.86,15.59,15.59,0,0,1,3.06-1.38,11.36,11.36,0,0,1,3.76-.61,16.45,16.45,0,0,1,11.47,5c.58-.57,1.22-1.16,1.94-1.77a20.82,20.82,0,0,1,2.25-1.64A13.59,13.59,0,0,1,236,36.9a7.11,7.11,0,0,1,2.55-.48,15.94,15.94,0,0,1,5.43,1,18.43,18.43,0,0,1,4.84,2.54,13.19,13.19,0,0,1,3.45,3.72,8.58,8.58,0,0,1,1.29,4.54V72a4,4,0,0,1-1.41,3.19,4.4,4.4,0,0,1-2.78,1,4.33,4.33,0,0,1-2.74-1,4.28,4.28,0,0,1-1.45-2.94V49a7,7,0,0,0-2.68-3.76,6.36,6.36,0,0,0-3.37-1.08,6.27,6.27,0,0,0-3.55,1,8.63,8.63,0,0,0-2.76,3.89L232.93,72a4.07,4.07,0,0,1-1.39,3.2,4.44,4.44,0,0,1-2.85,1,4.28,4.28,0,0,1-2.76-1A4.21,4.21,0,0,1,224.46,72.3ZM262.74,26a4.88,4.88,0,0,1,4.85-4.85,4.77,4.77,0,0,1,3.5,1.43A4.66,4.66,0,0,1,272.51,26a4.53,4.53,0,0,1-1.42,3.37,4.84,4.84,0,0,1-3.5,1.38,4.74,4.74,0,0,1-3.42-1.38A4.54,4.54,0,0,1,262.74,26ZM272,72.21a4.09,4.09,0,0,1-1.37,3.2,4.38,4.38,0,0,1-2.82,1,4.07,4.07,0,0,1-4.19-3.89l-.26-32.84A4.81,4.81,0,0,1,264.89,37a4,4,0,0,1,2.65-.91,4.43,4.43,0,0,1,2.57.82,4.13,4.13,0,0,1,1.62,2.55Zm42.36-4a5.13,5.13,0,0,1,2.76,1.62,3.66,3.66,0,0,1,.87,2.32,3.49,3.49,0,0,1-1.47,2.7,5,5,0,0,1-3.89,1q-3.28-.44-6.7-.65c-2.28-.14-4.51-.22-6.7-.22q-3.72,0-7.39.18c-2.45.11-4.91.26-7.39.43a5.69,5.69,0,0,1-3.24-1.25A3.13,3.13,0,0,1,280.12,72a5.12,5.12,0,0,1,.86-2.68,124.9,124.9,0,0,1,8.9-11.67q4.85-5.61,9.95-11.06l2-2.16c-3.05,0-6,0-8.77.17s-5.75.32-8.86.6a4.89,4.89,0,0,1-3.28-1.25,3.46,3.46,0,0,1-1-2.46,3.54,3.54,0,0,1,.78-2.16A5.21,5.21,0,0,1,283,37.63c3.28-.34,6.56-.57,9.81-.69s6.55-.17,9.9-.17h4.45c1.47,0,2.92,0,4.36.09q3.56,1,3.55,3.7a4.1,4.1,0,0,1-.3,1.47,4.39,4.39,0,0,1-1,1.46l-5.36,5.69q-4.23,4.4-8.47,9.1t-7.78,9.17c1.15,0,2.28-.08,3.37-.08h3.37c2.6,0,5.16.07,7.7.22s5.1.36,7.69.65Zm35.09-3.64a6.05,6.05,0,0,1,2.55-.43,4.36,4.36,0,0,1,2,.6,4,4,0,0,1,1.3,1.34,3.56,3.56,0,0,1,.47,1.78,3.36,3.36,0,0,1-.6,1.86,6,6,0,0,1-1.91,1.68,44.53,44.53,0,0,1-7.82,3.67A24.62,24.62,0,0,1,337,76.62a18.54,18.54,0,0,1-5.09-.74,16.21,16.21,0,0,1-4.85-2.29,18,18,0,0,1-5.66-7,21,21,0,0,1-2-8.95A21.79,21.79,0,0,1,321.13,49a15.12,15.12,0,0,1,5.66-6.75,29,29,0,0,1,6.75-3.45,22,22,0,0,1,7.52-1.3,19.64,19.64,0,0,1,4.06.43,10.7,10.7,0,0,1,3.54,1.52A12.19,12.19,0,0,1,351.52,42a12.5,12.5,0,0,1,1.9,3.33,10.15,10.15,0,0,1,.69,3.63,10.53,10.53,0,0,1-.26,2.33,6.46,6.46,0,0,1-1,2.16A12.12,12.12,0,0,1,349.35,57a28.44,28.44,0,0,1-4.92,2.64,45,45,0,0,1-5.53,1.9c-1.91.52-3.69,1-5.36,1.38s-2.93.75-3.42.86a5.65,5.65,0,0,1-.91.18,9.68,9.68,0,0,0,3.46,4,8.59,8.59,0,0,0,5.54,1.21,15.27,15.27,0,0,0,5.74-1.6A56.12,56.12,0,0,0,349.44,64.6Zm-15.9-17.37a9.89,9.89,0,0,0-4.24,3.93,12.59,12.59,0,0,0-1.56,5.49l.91-.26c.43-.11,1.08-.3,2-.56s2.1-.62,3.72-1.08c.57-.18,1.44-.42,2.59-.74s2.32-.69,3.5-1.12a22,22,0,0,0,3.28-1.51,4.83,4.83,0,0,0,2-1.9c.12-1.68-.25-2.83-1.12-3.46a5.06,5.06,0,0,0-3.11-1,13.65,13.65,0,0,0-4.24.73A33.65,33.65,0,0,0,333.54,47.23ZM446.08,26a4.87,4.87,0,0,1,1.68-2.77,4.44,4.44,0,0,1,5.54.21,4,4,0,0,1,1.25,3.16,82.88,82.88,0,0,1-3.07,13.1q-2.12,6.6-4.45,12.83-2.43,5.88-4.37,11.67a81,81,0,0,1-4.79,11.32,4.68,4.68,0,0,1-3.63,1.82,3.88,3.88,0,0,1-3.89-2.25l-5.8-15.56c-.51-1.5-1-2.86-1.47-4.1s-.9-2.45-1.34-3.63-.87-2.41-1.34-3.68-1-2.65-1.64-4.15q-.94,2.6-2,5.41t-2,5.31q-2.52,6.83-4.45,11.89a85.73,85.73,0,0,1-3.94,8.86,4.65,4.65,0,0,1-3.63,1.81,4.48,4.48,0,0,1-4.23-2.85q-2.43-9.33-5.32-17.89T387,39.54q-1-2.77-2.12-5.62a54.94,54.94,0,0,0-2.55-5.71,5.49,5.49,0,0,1-.6-2.24,3.5,3.5,0,0,1,1.12-2.69,4,4,0,0,1,2.85-1,4.93,4.93,0,0,1,2.17.56,5.67,5.67,0,0,1,2.07,2q1.22,2.6,2.59,6.09c.92,2.34,1.85,4.72,2.77,7.14,1,2.76,1.94,5.17,2.72,7.21s1.48,3.92,2.12,5.62,1.21,3.34,1.73,4.93,1,3.3,1.55,5.14q3.12-8.11,5.92-16a144.44,144.44,0,0,0,4.72-16.21,4.52,4.52,0,0,1,7.86-.26q1.73,4.59,3.2,8.65t2.94,8c.57,1.68,1.11,3.22,1.6,4.63s1,2.8,1.47,4.15,1,2.75,1.55,4.19,1.17,3,1.86,4.58Q436.22,58,438,53.45t3.29-9.12c1-3,2-6.06,2.8-9.12A91.78,91.78,0,0,0,446.08,26Zm29.65,11.58a13.1,13.1,0,0,1,6.43,1.55,15.17,15.17,0,0,1,4.76,4.11A18.4,18.4,0,0,1,489.86,49a22.53,22.53,0,0,1,1,6.61,21,21,0,0,1-.17,2.73c-.12.83-.26,1.68-.43,2.55a26.23,26.23,0,0,1-2.81,6.65,23.55,23.55,0,0,1-4.37,5.4,19.31,19.31,0,0,1-5.57,3.59,16.47,16.47,0,0,1-6.44,1.3,13.37,13.37,0,0,1-6.44-1.56,16,16,0,0,1-4.89-4,18.54,18.54,0,0,1-3.06-5.53,18.25,18.25,0,0,1-1.08-6.18,23.18,23.18,0,0,1,1.59-8.43,26.24,26.24,0,0,1,4.33-7.35,21.7,21.7,0,0,1,6.39-5.22A16.16,16.16,0,0,1,475.73,37.55ZM464.66,56.17a17.87,17.87,0,0,0-.52,4.42,14.71,14.71,0,0,0,.69,4.56,8.45,8.45,0,0,0,2.3,3.6,6.05,6.05,0,0,0,4.27,1.47A7.5,7.5,0,0,0,476,68.7,14.36,14.36,0,0,0,479.49,65a18.82,18.82,0,0,0,2.2-4.77,16,16,0,0,0,.78-4.64,16.53,16.53,0,0,0-.44-3.77,11,11,0,0,0-1.33-3.34,7.91,7.91,0,0,0-2.21-2.38,5,5,0,0,0-2.94-.92,7.5,7.5,0,0,0-3.89,1.09,13.66,13.66,0,0,0-3.24,2.69A15.86,15.86,0,0,0,466,52.48,19.21,19.21,0,0,0,464.66,56.17Zm34.58-10.56a7.53,7.53,0,0,1-2.3-1.86,3.32,3.32,0,0,1-.64-2,3.25,3.25,0,0,1,1.16-2.52,4.45,4.45,0,0,1,3.06-1,7.69,7.69,0,0,1,3,.7,10.42,10.42,0,0,1,2.78,1.64,27.35,27.35,0,0,1,5.39-3.46,13.11,13.11,0,0,1,5.75-1.3,12.22,12.22,0,0,1,2.63.43,14.82,14.82,0,0,1,3.46,1.34,11.22,11.22,0,0,1,3,2.33,4.8,4.8,0,0,1,1.3,3.33,3.19,3.19,0,0,1-1.17,2.55,4.2,4.2,0,0,1-2.81,1,3.53,3.53,0,0,1-2-.51,14.54,14.54,0,0,1-1.56-1.18A10.84,10.84,0,0,0,518.81,44a2.8,2.8,0,0,0-1.51-.55,5,5,0,0,0-2.25.7,21.83,21.83,0,0,0-2.59,1.64,26,26,0,0,0-2.55,2.12c-.84.78-1.54,1.45-2.12,2V72.55a4,4,0,0,1-1.41,3.2,4.45,4.45,0,0,1-2.78,1,4.18,4.18,0,0,1-2.74-1,4.45,4.45,0,0,1-1.45-3V45.69Zm41.48,26.25A4.08,4.08,0,0,1,539.44,75a4.14,4.14,0,0,1-2.82,1,4.53,4.53,0,0,1-2.74-1,4,4,0,0,1-1.54-2.85V23.63a4.75,4.75,0,0,1,1.54-2.72,3.92,3.92,0,0,1,2.57-.91,4.39,4.39,0,0,1,2.6.82,4.56,4.56,0,0,1,1.67,2.55v24A29.49,29.49,0,0,0,544.05,45q1.51-1.25,3-2.76t3.11-3.33q1.59-1.82,3.59-4a6.29,6.29,0,0,1,1.85-1.08,5.68,5.68,0,0,1,1.78-.3,4,4,0,0,1,2.85,1,3.29,3.29,0,0,1,1.12,2.51,5.2,5.2,0,0,1-1.21,3c-2,2.36-3.92,4.44-5.7,6.22a54.87,54.87,0,0,1-5.79,5L564.49,69a7,7,0,0,1,1.39,3.29,3.45,3.45,0,0,1-1.08,2.54A3.81,3.81,0,0,1,562,75.93a5.16,5.16,0,0,1-1.86-.35,5,5,0,0,1-1.77-1.21l-6.23-6.92c-1.72-2-3.41-3.94-5-5.79s-3.45-3.8-5.41-5.87a1.51,1.51,0,0,1-.43.21,2.84,2.84,0,0,0-.52.22Zm29.91-3q-1.21-2.5,0-4.19A3.87,3.87,0,0,1,574,63a6,6,0,0,1,3.2,1.12,17.05,17.05,0,0,0,4.32,4.07,7,7,0,0,0,5.27,1.12,5.57,5.57,0,0,0,2.29-1,4.58,4.58,0,0,0,1.47-1.69,4.5,4.5,0,0,0,.48-2.07,3.77,3.77,0,0,0-.61-2.08,7.36,7.36,0,0,0-1.68-1.9,7,7,0,0,0-1.9-1,14.45,14.45,0,0,0-1.91-.52,11.45,11.45,0,0,1-1.68-.43c-.87-.23-1.73-.47-2.59-.73a15.09,15.09,0,0,1-2.51-1,12.52,12.52,0,0,1-2.33-1.51A12.91,12.91,0,0,1,573.66,53a10.06,10.06,0,0,1-1.47-2.81,8.58,8.58,0,0,1-.52-2.81,10.89,10.89,0,0,1,.69-3.72,14.16,14.16,0,0,1,1.86-3.5A12.9,12.9,0,0,1,577,37.42a9.54,9.54,0,0,1,3.42-1.6,17.45,17.45,0,0,1,7.56-.26A22.51,22.51,0,0,1,595,38a6.77,6.77,0,0,1,1.81,1.82,3.43,3.43,0,0,1,.61,1.81,3.2,3.2,0,0,1-.57,1.86,4.38,4.38,0,0,1-1.46,1.34,4.2,4.2,0,0,1-2.08.52,5.13,5.13,0,0,1-2.46-.7,16,16,0,0,0-2.9-1,11.52,11.52,0,0,0-3.67-.34,5.05,5.05,0,0,0-3,1.16c-.81.69-1.12,1.85-1,3.46a6.13,6.13,0,0,0,1.25,1.6,7.12,7.12,0,0,0,1.65,1.08,12.37,12.37,0,0,0,1.94.73c.69.21,1.35.39,2,.57a38.25,38.25,0,0,1,4.93,1.77A14.82,14.82,0,0,1,596,56.13a10.24,10.24,0,0,1,2.55,3.55,12.53,12.53,0,0,1,.9,5,10.59,10.59,0,0,1-1,4.54,14.13,14.13,0,0,1-2.73,3.93,13.64,13.64,0,0,1-3.84,2.77,10,10,0,0,1-4.32,1,21.91,21.91,0,0,1-9.43-2.16,18.82,18.82,0,0,1-7.34-6Zm45.12,3.46a4.43,4.43,0,0,1-1.38,3.11,4.25,4.25,0,0,1-2.85,1,4.55,4.55,0,0,1-2.77-1,4.05,4.05,0,0,1-1.56-2.85V25.19a4.75,4.75,0,0,1,1.56-2.64,4,4,0,0,1,2.59-.91,4.54,4.54,0,0,1,2.64.82,5,5,0,0,1,1.77,2.47l0,18.58a24.31,24.31,0,0,1,7.63-3.8,12.29,12.29,0,0,1,7,.34A11.12,11.12,0,0,1,635,42.6a16,16,0,0,1,3.15,4.07,20.45,20.45,0,0,1,1.9,4.88,24.54,24.54,0,0,1,.73,5v11c0,1.19,0,2.15,0,2.9s.05,1.47.05,2.16a4.52,4.52,0,0,1-1.33,3.11,4,4,0,0,1-2.78,1,4.56,4.56,0,0,1-2.74-1,4.12,4.12,0,0,1-1.54-2.94v-8q0-3.93-.08-8.08a18.31,18.31,0,0,0-1.17-5.36,8.25,8.25,0,0,0-3.24-4.06,6.18,6.18,0,0,0-3.24.17,10.29,10.29,0,0,0-3,1.69,20.45,20.45,0,0,0-2.93,2.9c-1,1.15-2,2.36-3,3.63Zm62.41-7.7a6.05,6.05,0,0,1,2.55-.43,4.36,4.36,0,0,1,2,.6A3.93,3.93,0,0,1,684,66.11a3.47,3.47,0,0,1,.48,1.78,3.37,3.37,0,0,1-.61,1.86,5.8,5.8,0,0,1-1.9,1.68,44.87,44.87,0,0,1-7.82,3.67,24.7,24.7,0,0,1-8.43,1.52,18.67,18.67,0,0,1-5.1-.74,16.16,16.16,0,0,1-4.84-2.29,17.92,17.92,0,0,1-5.66-7,21,21,0,0,1-2-8.95A21.79,21.79,0,0,1,649.85,49a15.12,15.12,0,0,1,5.66-6.75,29,29,0,0,1,6.74-3.45,22.07,22.07,0,0,1,7.52-1.3,19.66,19.66,0,0,1,4.07.43,10.88,10.88,0,0,1,3.54,1.52A12.14,12.14,0,0,1,680.23,42a12.53,12.53,0,0,1,1.91,3.33,10.37,10.37,0,0,1,.69,3.63,10.53,10.53,0,0,1-.26,2.33,6.67,6.67,0,0,1-1,2.16A12.12,12.12,0,0,1,678.07,57a28.53,28.53,0,0,1-4.93,2.64,44.48,44.48,0,0,1-5.53,1.9q-2.85.78-5.36,1.38c-1.78.46-2.92.75-3.41.86a5.65,5.65,0,0,1-.91.18,9.68,9.68,0,0,0,3.46,4,8.56,8.56,0,0,0,5.53,1.21,15.31,15.31,0,0,0,5.75-1.6A56.12,56.12,0,0,0,678.16,64.6ZM662.25,47.23A9.86,9.86,0,0,0,658,51.16a12.46,12.46,0,0,0-1.56,5.49c.17-.06.48-.14.91-.26s1.08-.3,2-.56L663,54.75c.58-.18,1.44-.42,2.59-.74s2.32-.69,3.5-1.12a21.62,21.62,0,0,0,3.29-1.51,4.83,4.83,0,0,0,2-1.9c.12-1.68-.26-2.83-1.12-3.46a5.11,5.11,0,0,0-3.12-1,13.64,13.64,0,0,0-4.23.73A33.13,33.13,0,0,0,662.25,47.23Zm57,17.37a6.05,6.05,0,0,1,2.55-.43,4.36,4.36,0,0,1,2,.6,3.93,3.93,0,0,1,1.29,1.34,3.47,3.47,0,0,1,.48,1.78,3.3,3.3,0,0,1-.61,1.86,5.8,5.8,0,0,1-1.9,1.68,44.53,44.53,0,0,1-7.82,3.67,24.66,24.66,0,0,1-8.43,1.52,18.67,18.67,0,0,1-5.1-.74,16.27,16.27,0,0,1-4.84-2.29,17.92,17.92,0,0,1-5.66-7,21,21,0,0,1-2-8.95A21.79,21.79,0,0,1,691,49a15.12,15.12,0,0,1,5.66-6.75,29,29,0,0,1,6.75-3.45,22,22,0,0,1,7.52-1.3,19.64,19.64,0,0,1,4.06.43,10.7,10.7,0,0,1,3.54,1.52A12.19,12.19,0,0,1,721.38,42a12.5,12.5,0,0,1,1.9,3.33A10.15,10.15,0,0,1,724,49a10.53,10.53,0,0,1-.26,2.33,6.46,6.46,0,0,1-1,2.16A12.12,12.12,0,0,1,719.21,57a28.44,28.44,0,0,1-4.92,2.64,45,45,0,0,1-5.53,1.9c-1.91.52-3.69,1-5.36,1.38s-2.93.75-3.42.86a5.65,5.65,0,0,1-.91.18,9.68,9.68,0,0,0,3.46,4,8.57,8.57,0,0,0,5.54,1.21,15.32,15.32,0,0,0,5.74-1.6A56.12,56.12,0,0,0,719.3,64.6ZM703.4,47.23a9.83,9.83,0,0,0-4.24,3.93,12.59,12.59,0,0,0-1.56,5.49l.91-.26c.43-.11,1.08-.3,2-.56l3.71-1.08c.58-.18,1.44-.42,2.6-.74s2.32-.69,3.5-1.12a22,22,0,0,0,3.28-1.51,4.83,4.83,0,0,0,2-1.9c.12-1.68-.26-2.83-1.12-3.46a5.06,5.06,0,0,0-3.11-1,13.65,13.65,0,0,0-4.24.73A32.14,32.14,0,0,0,703.4,47.23Zm30.25-1.9a5.94,5.94,0,0,1-3.24-1.39,3.24,3.24,0,0,1-1.08-2.42,3.72,3.72,0,0,1,1.16-2.59,4.65,4.65,0,0,1,3.5-1.21h4V24.5a4.68,4.68,0,0,1,1.6-2.73,4.22,4.22,0,0,1,2.63-.91,4.53,4.53,0,0,1,2.6.83,4.12,4.12,0,0,1,1.64,2.55V37.72h7.61a5.69,5.69,0,0,1,2.81,1.56,3.36,3.36,0,0,1,.9,2.24c0,1.85-1.32,3.11-4,3.81h-7.35v15.9c0,1.79,0,3.58,0,5.36s0,3.57,0,5.36a3.74,3.74,0,0,1-1.38,3.2,4.74,4.74,0,0,1-2.86,1,4.35,4.35,0,0,1-2.72-1,4.13,4.13,0,0,1-1.51-2.93c0-2.19,0-4.46,0-6.79s0-4.65,0-7V45.33Zm27.83,23.51q-1.22-2.5,0-4.19A3.87,3.87,0,0,1,764.85,63a6,6,0,0,1,3.2,1.12,17.05,17.05,0,0,0,4.32,4.07,7,7,0,0,0,5.28,1.12,5.69,5.69,0,0,0,2.29-1,4.64,4.64,0,0,0,1.46-1.69,4.5,4.5,0,0,0,.48-2.07,3.84,3.84,0,0,0-.6-2.08,7.57,7.57,0,0,0-1.69-1.9,6.82,6.82,0,0,0-1.9-1,14.33,14.33,0,0,0-1.9-.52,11.27,11.27,0,0,1-1.69-.43c-.86-.23-1.73-.47-2.59-.73a15.09,15.09,0,0,1-2.51-1,13.21,13.21,0,0,1-2.33-1.51A12.91,12.91,0,0,1,764.51,53,10.06,10.06,0,0,1,763,50.21a8.58,8.58,0,0,1-.52-2.81,10.89,10.89,0,0,1,.69-3.72,14.16,14.16,0,0,1,1.86-3.5,12.9,12.9,0,0,1,2.76-2.76,9.54,9.54,0,0,1,3.42-1.6,17.45,17.45,0,0,1,7.56-.26A22.42,22.42,0,0,1,785.86,38a6.77,6.77,0,0,1,1.81,1.82,3.43,3.43,0,0,1,.61,1.81,3.26,3.26,0,0,1-.56,1.86,4.51,4.51,0,0,1-1.47,1.34,4.2,4.2,0,0,1-2.08.52,5.13,5.13,0,0,1-2.46-.7,15.71,15.71,0,0,0-2.9-1,11.52,11.52,0,0,0-3.67-.34,5.05,5.05,0,0,0-3,1.16c-.8.69-1.12,1.85-1,3.46a6,6,0,0,0,1.26,1.6,7.06,7.06,0,0,0,1.64,1.08,12.37,12.37,0,0,0,1.94.73l2,.57a38.25,38.25,0,0,1,4.93,1.77,14.66,14.66,0,0,1,3.89,2.46,10.24,10.24,0,0,1,2.55,3.55,12.53,12.53,0,0,1,.9,5,10.59,10.59,0,0,1-1,4.54,14.31,14.31,0,0,1-2.72,3.93,13.83,13.83,0,0,1-3.85,2.77,9.91,9.91,0,0,1-4.32,1,21.91,21.91,0,0,1-9.43-2.16,18.82,18.82,0,0,1-7.34-6Z"/><path class="cls-2" d="M797,562q0,3.72-.07,7.43H3.07Q3,565.73,3,562q0-4.23.09-8.45H796.91Q797,557.77,797,562Z"/><path class="cls-2" d="M760.13,394.72H39.87q7.14-15.37,15.54-30H744.59Q753,379.35,760.13,394.72Z"/><path class="cls-2" d="M579.77,207.94H220.23q17.25-8.77,35.42-15.88h288.7Q562.52,199.15,579.77,207.94Z"/><path class="cls-2" d="M760.6,728.27q-7.08,15.36-15.44,30H54.84q-8.34-14.62-15.44-30Z"/><path class="cls-2" d="M195,902.06H605q-14.1,8.52-28.94,15.88H224Z"/><ellipse class="cls-3" cx="603.53" cy="560.43" rx="50.35" ry="50.06"/><path class="cls-4" d="M603.53,520a40.41,40.41,0,1,1-40.69,40.41A40.6,40.6,0,0,1,603.53,520m0-19.31a59.72,59.72,0,1,0,60,59.72,59.86,59.86,0,0,0-60-59.72Z"/><circle class="cls-3" cx="216.59" cy="743.27" r="50"/><circle class="cls-5" cx="216.59" cy="743.27" r="50"/><ellipse class="cls-3" cx="603.53" cy="561" rx="60" ry="59.71"/><ellipse class="cls-6" cx="603.53" cy="561" rx="60" ry="59.71"/><circle class="cls-3" cx="216.59" cy="383.97" r="50"/><circle class="cls-7" cx="216.59" cy="383.97" r="50"/><path class="cls-8" d="M493.05,728.56a1.5,1.5,0,0,0,0-3,1.5,1.5,0,0,0,0,3Z"/></g></svg>