<svg id="arrow" xmlns="http://www.w3.org/2000/svg" viewBox="0 0 454.75 338.09"><defs><style>.cls-1{fill:#267855;}</style></defs><title>darkright copy 2</title><path class="cls-1" d="M212.2,43.9a14.85,14.85,0,0,1,7.48,2L410.41,156.06a15,15,0,0,1,0,26L219.68,292.16a15,15,0,0,1-22.5-13V209.64H51.84a15,15,0,0,1-15-15v-52a15,15,0,0,1,15-15H197.18V58.93a15,15,0,0,1,15-15m0-32h0a47.08,47.08,0,0,0-47,47V95.65H51.84a47,47,0,0,0-47,47v52a47.05,47.05,0,0,0,47,47H165.18v37.53a47,47,0,0,0,70.49,40.7L426.41,209.75a47,47,0,0,0,0-81.41L235.68,18.22A47.05,47.05,0,0,0,212.2,11.9Z"/></svg>