<svg id="Layer_1" data-name="Layer 1" xmlns="http://www.w3.org/2000/svg" xmlns:xlink="http://www.w3.org/1999/xlink" viewBox="0 0 800 800"><defs><style>.cls-1,.cls-2,.cls-3,.cls-4{fill:none;stroke-miterlimit:10;}.cls-1{stroke:#edce8c;}.cls-1,.cls-2,.cls-4{stroke-width:15.78px;}.cls-2{stroke:#67a187;}.cls-3{stroke-width:55.24px;stroke:url(#linear-gradient);}.cls-4{stroke:url(#linear-gradient-2);}.cls-5{fill:#67a187;}</style><linearGradient id="linear-gradient" x1="793.62" y1="277.28" x2="4.38" y2="277.28" gradientUnits="userSpaceOnUse"><stop offset="0" stop-color="#67a187"/><stop offset="0.1" stop-color="#67a187"/><stop offset="0.9" stop-color="#edce8c"/><stop offset="1" stop-color="#edce8c"/></linearGradient><linearGradient id="linear-gradient-2" x1="592.37" y1="339.39" x2="205.63" y2="339.39" xlink:href="#linear-gradient"/></defs><title>difficultyArtboard 1</title><line class="cls-1" x1="81.1" y1="522.2" x2="219.21" y2="465"/><line class="cls-2" x1="716.78" y1="522.2" x2="578.67" y2="465"/><path class="cls-3" d="M59.85,539.55c-55-133-28.49-291.86,79.64-400,143.32-143.33,375.7-143.33,519,0,108.13,108.13,134.68,267,79.64,400"/><path class="cls-4" d="M227.59,470.06a185.51,185.51,0,1,1,342.82,0"/><path class="cls-5" d="M409.24,377.56c-11.18-6.39-261.68-145.86-261.72-145.88a1.54,1.54,0,0,0-1.74,2.54c3.11,2.15,230,191.57,230.21,191.78a29.9,29.9,0,0,0,2.71,2.13,29.6,29.6,0,1,0,33.5-48.8A30.84,30.84,0,0,0,409.24,377.56Z"/></svg>