<svg xmlns="http://www.w3.org/2000/svg" xmlns:xlink="http://www.w3.org/1999/xlink" viewBox="0 0 800 800"><defs><style>.cls-1{fill:url(#linear-gradient);}</style><linearGradient id="linear-gradient" x1="10" y1="305.87" x2="790" y2="305.87" gradientUnits="userSpaceOnUse"><stop offset="0" stop-color="#edce8c"/><stop offset="0.2" stop-color="#edce8c"/><stop offset="0.27" stop-color="#e7cb8a"/><stop offset="0.38" stop-color="#d4c385"/><stop offset="0.5" stop-color="#b7b67d"/><stop offset="0.63" stop-color="#8da571"/><stop offset="0.78" stop-color="#598e63"/><stop offset="0.9" stop-color="#267855"/><stop offset="1" stop-color="#267855"/></linearGradient></defs><title>difficultymedium copy 5</title><g id="medium"><path class="cls-1" d="M400,10C184.61,10,10,184.61,10,400A388.29,388.29,0,0,0,58.37,588.23q3.78,6.84,7.8,13.51l98-56.55,84.55-48.81,13.62-7.86q-4.23-6.56-7.83-13.5a163.22,163.22,0,0,1-10-126.37L370.79,439a48.75,48.75,0,1,0,41.06-86.33l-150.67-39.5A163.78,163.78,0,0,1,400,236.2c90.32,0,163.8,73.48,163.8,163.8a162.78,162.78,0,0,1-18.26,75q-3.6,6.94-7.83,13.5l13.62,7.86,84.55,48.81,98,56.55q4-6.66,7.8-13.51A388.29,388.29,0,0,0,790,400C790,184.61,615.39,10,400,10ZM643.71,531.7l-84.57-48.83a179.42,179.42,0,0,0-313.8-173.81c-43.72-11.45-78.94-20.66-79.06-20.66a2,2,0,0,0-1.95,2,1.93,1.93,0,0,0,1.2,1.79l65.67,47a179.78,179.78,0,0,0,9.66,143.73L156.29,531.7a276.9,276.9,0,1,1,487.42,0Z"/></g></svg>