<svg id="Layer_1" data-name="Layer 1" xmlns="http://www.w3.org/2000/svg" xmlns:xlink="http://www.w3.org/1999/xlink" viewBox="0 0 800 800"><defs><style>.cls-1,.cls-2,.cls-3,.cls-4{fill:none;stroke-miterlimit:10;}.cls-1{stroke:#edce8c;}.cls-1,.cls-2,.cls-4{stroke-width:15.78px;}.cls-2{stroke:#67a187;}.cls-3{stroke-width:55.24px;stroke:url(#linear-gradient);}.cls-4{stroke:url(#linear-gradient-2);}.cls-5{fill:#67a187;}.cls-6{fill:url(#linear-gradient-3);}</style><linearGradient id="linear-gradient" x1="793.62" y1="277.28" x2="4.38" y2="277.28" gradientUnits="userSpaceOnUse"><stop offset="0" stop-color="#67a187"/><stop offset="0.1" stop-color="#67a187"/><stop offset="0.9" stop-color="#edce8c"/><stop offset="1" stop-color="#edce8c"/></linearGradient><linearGradient id="linear-gradient-2" x1="592.37" y1="339.39" x2="205.63" y2="339.39" xlink:href="#linear-gradient"/><linearGradient id="linear-gradient-3" x1="400.48" y1="762.97" x2="400.48" y2="683.94" gradientUnits="userSpaceOnUse"><stop offset="0" stop-color="#67a187"/><stop offset="0.14" stop-color="#70a487"/><stop offset="0.36" stop-color="#88ac88"/><stop offset="0.64" stop-color="#b0ba8a"/><stop offset="0.96" stop-color="#e6cc8c"/><stop offset="1" stop-color="#edce8c"/></linearGradient></defs><title>difficultyArtboard 1</title><line class="cls-1" x1="81.1" y1="522.2" x2="219.21" y2="465"/><line class="cls-2" x1="716.78" y1="522.2" x2="578.67" y2="465"/><path class="cls-3" d="M59.85,539.55c-55-133-28.49-291.86,79.64-400,143.32-143.33,375.7-143.33,519,0,108.13,108.13,134.68,267,79.64,400"/><path class="cls-4" d="M227.59,470.06a185.51,185.51,0,1,1,342.82,0"/><path class="cls-5" d="M409.24,377.56c-11.18-6.39-261.68-145.86-261.72-145.88a1.54,1.54,0,0,0-1.74,2.54c3.11,2.15,230,191.57,230.21,191.78a29.9,29.9,0,0,0,2.71,2.13,29.6,29.6,0,1,0,33.5-48.8A30.84,30.84,0,0,0,409.24,377.56Z"/><path class="cls-6" d="M44.86,729a5.45,5.45,0,0,1,3.55-1.28,4.31,4.31,0,0,1,3,1.1,3.59,3.59,0,0,1,1.23,2.82,7.42,7.42,0,0,1-.46,2,50.13,50.13,0,0,1-3.45,4.64,25.75,25.75,0,0,1-4.23,4A20.66,20.66,0,0,1,39.32,745a17.64,17.64,0,0,1-6.19,1,21,21,0,0,1-9.18-2,21.7,21.7,0,0,1-7.19-5.51,25.17,25.17,0,0,1-4.64-8.18,30.26,30.26,0,0,1-1.64-10,24,24,0,0,1,1-7,40.39,40.39,0,0,1,3.19-7.65A25.38,25.38,0,0,1,19,699.9a31.12,31.12,0,0,1,5.82-4.46,55.42,55.42,0,0,1,7.55-3.68h-.09a37.88,37.88,0,0,1,5-1.82A17.84,17.84,0,0,1,42,689.3a10.55,10.55,0,0,1,6.19,1.91,17.55,17.55,0,0,1,5.09,6.55,6.09,6.09,0,0,1,.19,1.46A3.6,3.6,0,0,1,52.28,702a4.35,4.35,0,0,1-3,1.09,5.57,5.57,0,0,1-4-1.82,27.84,27.84,0,0,0-2-3.09,2.08,2.08,0,0,0-1.64-.91,5.88,5.88,0,0,0-1.64.36c-.72.24-1.51.52-2.36.82l-1.46.54a34.39,34.39,0,0,0-6.36,3.19,23.84,23.84,0,0,0-5.32,4.59A21,21,0,0,0,20.85,713a22,22,0,0,0-1.36,8,21.48,21.48,0,0,0,.91,6.22,17.39,17.39,0,0,0,2.68,5.46,13.77,13.77,0,0,0,4.32,3.87,11.53,11.53,0,0,0,5.82,1.45,8.08,8.08,0,0,0,3.6-.82,13,13,0,0,0,3.09-2.09,21.2,21.2,0,0,0,2.63-2.86,25.05,25.05,0,0,0,2.14-3.23Zm24.93,12.19a4.65,4.65,0,0,1-1.46,3.27,4.45,4.45,0,0,1-3,1.09,4.82,4.82,0,0,1-2.91-1,4.24,4.24,0,0,1-1.64-3V691.58a5,5,0,0,1,1.64-2.78,4.17,4.17,0,0,1,2.73-.95,4.74,4.74,0,0,1,2.77.86,5.34,5.34,0,0,1,1.87,2.59l0,19.56a25.45,25.45,0,0,1,8-4,12.84,12.84,0,0,1,7.39.36A11.77,11.77,0,0,1,90,709.9a16.82,16.82,0,0,1,3.31,4.28,21.61,21.61,0,0,1,2,5.14,25.81,25.81,0,0,1,.77,5.27v11.6c0,1.24,0,2.26.05,3s0,1.54,0,2.27a4.69,4.69,0,0,1-1.39,3.27,4.23,4.23,0,0,1-2.93,1.09,4.73,4.73,0,0,1-2.88-1,4.3,4.3,0,0,1-1.62-3.09v-8.41q0-4.14-.09-8.5A18.87,18.87,0,0,0,86,719.23,8.68,8.68,0,0,0,82.61,715a6.51,6.51,0,0,0-3.41.18,10.75,10.75,0,0,0-3.14,1.78A22,22,0,0,0,73,720q-1.55,1.83-3.18,3.82Zm53.84-36.57a13.73,13.73,0,0,1,6.77,1.64,16,16,0,0,1,5,4.32,19.44,19.44,0,0,1,3.09,6.09,23.58,23.58,0,0,1,1,7,21.34,21.34,0,0,1-.18,2.87c-.12.88-.27,1.77-.45,2.68a27.24,27.24,0,0,1-3,7,24.8,24.8,0,0,1-4.59,5.69,20.51,20.51,0,0,1-5.87,3.77,17.21,17.21,0,0,1-6.77,1.37,14.1,14.1,0,0,1-6.78-1.64,16.68,16.68,0,0,1-5.14-4.23,19.71,19.71,0,0,1-3.23-5.82,19.38,19.38,0,0,1-1.13-6.5,24.25,24.25,0,0,1,1.68-8.87,27.27,27.27,0,0,1,4.55-7.73,23,23,0,0,1,6.73-5.51A17.06,17.06,0,0,1,123.63,704.58ZM112,724.18a18.19,18.19,0,0,0-.55,4.65,15.21,15.21,0,0,0,.73,4.79,8.69,8.69,0,0,0,2.41,3.79,6.35,6.35,0,0,0,4.5,1.55,7.91,7.91,0,0,0,4.87-1.6,15,15,0,0,0,3.64-3.92,19.58,19.58,0,0,0,2.31-5,16.76,16.76,0,0,0,.82-4.88,17.71,17.71,0,0,0-.45-4,12,12,0,0,0-1.41-3.51,8.26,8.26,0,0,0-2.32-2.51,5.24,5.24,0,0,0-3.09-1,7.88,7.88,0,0,0-4.1,1.14,14.4,14.4,0,0,0-3.41,2.83,16.4,16.4,0,0,0-2.5,3.74A19.46,19.46,0,0,0,112,724.18Zm54.93-19.6a13.8,13.8,0,0,1,6.78,1.64,15.85,15.85,0,0,1,5,4.32,19.44,19.44,0,0,1,3.09,6.09,23.59,23.59,0,0,1,1.05,7,21.34,21.34,0,0,1-.18,2.87c-.13.88-.28,1.77-.46,2.68a27.24,27.24,0,0,1-3,7,24.8,24.8,0,0,1-4.59,5.69,20.6,20.6,0,0,1-5.86,3.77A17.29,17.29,0,0,1,162,747a14.1,14.1,0,0,1-6.78-1.64,16.68,16.68,0,0,1-5.14-4.23,20.06,20.06,0,0,1-4.36-12.32,24.25,24.25,0,0,1,1.68-8.87,27.27,27.27,0,0,1,4.55-7.73,23,23,0,0,1,6.73-5.51A17.09,17.09,0,0,1,166.92,704.58Zm-11.64,19.6a18.65,18.65,0,0,0-.55,4.65,15.21,15.21,0,0,0,.73,4.79,8.78,8.78,0,0,0,2.41,3.79,6.35,6.35,0,0,0,4.5,1.55,7.91,7.91,0,0,0,4.87-1.6,15,15,0,0,0,3.64-3.92,20,20,0,0,0,2.32-5,17.1,17.1,0,0,0,.82-4.88,17.72,17.72,0,0,0-.46-4,11.43,11.43,0,0,0-1.41-3.51,8.26,8.26,0,0,0-2.32-2.51,5.24,5.24,0,0,0-3.09-1,7.82,7.82,0,0,0-4.09,1.14,14.21,14.21,0,0,0-3.41,2.83,16.44,16.44,0,0,0-2.51,3.74A20.09,20.09,0,0,0,155.28,724.18Zm31.47,13.33q-1.27-2.64-.05-4.41a4.08,4.08,0,0,1,3.59-1.78,6.29,6.29,0,0,1,3.37,1.19,17.94,17.94,0,0,0,4.55,4.27,7.32,7.32,0,0,0,5.55,1.18,6,6,0,0,0,2.41-1,5,5,0,0,0,1.54-1.78,4.69,4.69,0,0,0,.5-2.18,4,4,0,0,0-.63-2.18,7.66,7.66,0,0,0-1.78-2,7.16,7.16,0,0,0-2-1.1,14.28,14.28,0,0,0-2-.54,12,12,0,0,1-1.77-.46c-.91-.24-1.82-.5-2.73-.77a16.64,16.64,0,0,1-2.64-1,13.79,13.79,0,0,1-2.46-1.6,13.58,13.58,0,0,1-2.27-2.41,10.79,10.79,0,0,1-1.54-3,9,9,0,0,1-.55-3,11.33,11.33,0,0,1,.73-3.91,14.57,14.57,0,0,1,2-3.68,13.17,13.17,0,0,1,2.91-2.91,10.05,10.05,0,0,1,3.6-1.69,18.6,18.6,0,0,1,7.95-.27A23.83,23.83,0,0,1,212.4,705a7.2,7.2,0,0,1,1.91,1.91,3.6,3.6,0,0,1,.63,1.91,3.33,3.33,0,0,1-.59,1.95,4.54,4.54,0,0,1-1.54,1.41,4.29,4.29,0,0,1-2.19.55A5.46,5.46,0,0,1,208,712a15.84,15.84,0,0,0-3.05-1,11.87,11.87,0,0,0-3.86-.37,5.26,5.26,0,0,0-3.18,1.23c-.85.73-1.19,1.94-1,3.64a6.31,6.31,0,0,0,1.31,1.68,7.86,7.86,0,0,0,1.73,1.14,13.81,13.81,0,0,0,2.05.77l2.09.59a41,41,0,0,1,5.18,1.87,15.4,15.4,0,0,1,4.1,2.59,10.7,10.7,0,0,1,2.68,3.73,13,13,0,0,1,1,5.27,11.1,11.1,0,0,1-1.1,4.78,15.17,15.17,0,0,1-2.86,4.14A14.2,14.2,0,0,1,209,745a10.51,10.51,0,0,1-4.55,1.09,22.93,22.93,0,0,1-9.91-2.28,19.66,19.66,0,0,1-7.73-6.27Zm68.39-4.46a6.42,6.42,0,0,1,2.69-.45,4.55,4.55,0,0,1,2.09.63,4.16,4.16,0,0,1,1.36,1.41,3.62,3.62,0,0,1,.5,1.87,3.47,3.47,0,0,1-.63,2,6.26,6.26,0,0,1-2,1.78,47.46,47.46,0,0,1-8.23,3.86,26,26,0,0,1-8.86,1.59,19.85,19.85,0,0,1-5.37-.77,17.11,17.11,0,0,1-5.09-2.41,18.9,18.9,0,0,1-6-7.41,22,22,0,0,1-2.14-9.42,22.8,22.8,0,0,1,1.87-9.09,15.94,15.94,0,0,1,5.95-7.1,30.11,30.11,0,0,1,7.1-3.63,23.3,23.3,0,0,1,7.91-1.37,19.69,19.69,0,0,1,4.28.46,11.28,11.28,0,0,1,3.73,1.59,13,13,0,0,1,3,2.73,13.35,13.35,0,0,1,2,3.5,10.76,10.76,0,0,1,.72,3.82,10.89,10.89,0,0,1-.27,2.45,6.76,6.76,0,0,1-1,2.28,12.62,12.62,0,0,1-3.73,3.77,30,30,0,0,1-5.18,2.78,47.51,47.51,0,0,1-5.82,2c-2,.54-3.88,1-5.64,1.45s-3.08.79-3.59.91a7.17,7.17,0,0,1-1,.19,10.2,10.2,0,0,0,3.64,4.18,9.05,9.05,0,0,0,5.82,1.27,16.39,16.39,0,0,0,6.05-1.68A60.74,60.74,0,0,0,255.14,733.05Zm-16.73-18.28a10.39,10.39,0,0,0-4.46,4.14,13.15,13.15,0,0,0-1.64,5.77l1-.27,2-.59,3.91-1.14c.6-.18,1.51-.44,2.73-.77s2.44-.73,3.68-1.18a22.79,22.79,0,0,0,3.45-1.6,5,5,0,0,0,2.14-2c.12-1.75-.27-3-1.18-3.63a5.36,5.36,0,0,0-3.27-1,14.24,14.24,0,0,0-4.46.77A32.53,32.53,0,0,0,238.41,714.77Zm66.94-2a6.17,6.17,0,0,1-3.41-1.46,3.39,3.39,0,0,1-1.14-2.54A3.89,3.89,0,0,1,302,706a4.89,4.89,0,0,1,3.68-1.27h4.18V690.85a5,5,0,0,1,1.69-2.87,4.43,4.43,0,0,1,2.77-1,4.82,4.82,0,0,1,2.73.86,4.35,4.35,0,0,1,1.73,2.69v14.19h8a5.82,5.82,0,0,1,3,1.63,3.52,3.52,0,0,1,1,2.37q0,2.91-4.18,4h-7.73V729.5c0,1.88,0,3.76,0,5.64s0,3.76,0,5.64a3.94,3.94,0,0,1-1.46,3.37,5,5,0,0,1-3,1.09,4.67,4.67,0,0,1-2.86-1,4.39,4.39,0,0,1-1.59-3.09q0-3.46-.05-7.14t-.05-7.33V712.77Zm41.29,28.38a4.64,4.64,0,0,1-1.45,3.27,4.45,4.45,0,0,1-3,1.09,4.82,4.82,0,0,1-2.92-1,4.23,4.23,0,0,1-1.63-3V691.58a5,5,0,0,1,1.63-2.78,4.2,4.2,0,0,1,2.73-.95,4.77,4.77,0,0,1,2.78.86,5.33,5.33,0,0,1,1.86,2.59l0,19.56a25.45,25.45,0,0,1,8-4,12.85,12.85,0,0,1,7.39.36,11.77,11.77,0,0,1,4.81,2.68,17,17,0,0,1,3.31,4.28,21.17,21.17,0,0,1,2,5.14,25.17,25.17,0,0,1,.78,5.27v11.6c0,1.24,0,2.26,0,3s0,1.54,0,2.27a4.7,4.7,0,0,1-1.4,3.27,4.21,4.21,0,0,1-2.93,1.09,4.7,4.7,0,0,1-2.87-1,4.23,4.23,0,0,1-1.62-3.09v-8.41c0-2.76,0-5.59-.1-8.5a19.16,19.16,0,0,0-1.22-5.64,8.73,8.73,0,0,0-3.41-4.28,6.54,6.54,0,0,0-3.42.18,10.7,10.7,0,0,0-3.13,1.78,22,22,0,0,0-3.1,3q-1.54,1.83-3.18,3.82Zm65.67-8.1a6.37,6.37,0,0,1,2.68-.45,4.48,4.48,0,0,1,2.09.63,4.19,4.19,0,0,1,1.37,1.41,3.72,3.72,0,0,1,.5,1.87,3.49,3.49,0,0,1-.64,2,6.11,6.11,0,0,1-2,1.78,48.17,48.17,0,0,1-8.23,3.86,26,26,0,0,1-8.87,1.59,19.73,19.73,0,0,1-5.36-.77,17.28,17.28,0,0,1-5.1-2.41,18.88,18.88,0,0,1-5.95-7.41,22,22,0,0,1-2.14-9.42,23,23,0,0,1,1.86-9.09,15.89,15.89,0,0,1,6-7.1,30,30,0,0,1,7.09-3.63,23.39,23.39,0,0,1,7.92-1.37,19.67,19.67,0,0,1,4.27.46,11.19,11.19,0,0,1,3.73,1.59,13,13,0,0,1,3,2.73,12.81,12.81,0,0,1,2,3.5,10.56,10.56,0,0,1,.73,3.82A10.89,10.89,0,0,1,417,719a7.18,7.18,0,0,1-1,2.28,12.74,12.74,0,0,1-3.73,3.77,30.5,30.5,0,0,1-5.19,2.78,47.51,47.51,0,0,1-5.82,2c-2,.54-3.88,1-5.64,1.45s-3.07.79-3.59.91a6.86,6.86,0,0,1-1,.19,10.18,10.18,0,0,0,3.63,4.18,9.1,9.1,0,0,0,5.83,1.27,16.34,16.34,0,0,0,6-1.68A59.74,59.74,0,0,0,412.31,733.05Zm-16.74-18.28a10.36,10.36,0,0,0-4.45,4.14,13.15,13.15,0,0,0-1.64,5.77l.95-.27c.46-.12,1.14-.32,2.05-.59l3.91-1.14c.61-.18,1.52-.44,2.73-.77s2.44-.73,3.68-1.18a22.47,22.47,0,0,0,3.46-1.6,5.1,5.1,0,0,0,2.14-2c.12-1.75-.28-3-1.19-3.63a5.36,5.36,0,0,0-3.27-1,14.28,14.28,0,0,0-4.46.77A33.21,33.21,0,0,0,395.57,714.77ZM463.79,746c-2.13-.37-3.52-1.15-4.19-2.36l-.27-.55a4.89,4.89,0,0,1-.64-2.09V701.56a3.43,3.43,0,0,1-.82.23,9.31,9.31,0,0,1-1.09.05,4.89,4.89,0,0,1-3.27-1.09,3.27,3.27,0,0,1-1.27-2.55,4.24,4.24,0,0,1,2.36-3.58,23.13,23.13,0,0,1,5.68-2.5,42.11,42.11,0,0,1,6.87-1.45,47,47,0,0,1,5.91-.46,31.29,31.29,0,0,1,12,2.18,26.45,26.45,0,0,1,8.87,5.86,25.25,25.25,0,0,1,5.5,8.58,28.26,28.26,0,0,1-.18,20.88,26.71,26.71,0,0,1-6.19,9.17,23.17,23.17,0,0,1-6.32,4.23,41.92,41.92,0,0,1-7.32,2.54,64.6,64.6,0,0,1-7.82,1.45c-2.67.34-5.22.62-7.64.87ZM473,698.22a19.12,19.12,0,0,0-2.59.18l-2.68.36v38.75c1.63-.18,3.36-.41,5.18-.69a46.1,46.1,0,0,0,5.28-1.09,25.77,25.77,0,0,0,4.77-1.77,12.35,12.35,0,0,0,3.78-2.82,21,21,0,0,0,4.23-7,23,23,0,0,0,1.41-8,19.28,19.28,0,0,0-1.23-6.82,16,16,0,0,0-3.69-5.73,18.38,18.38,0,0,0-6.09-3.95A21.85,21.85,0,0,0,473,698.22Zm35.93-5.82a5.12,5.12,0,0,1,5.09-5.1,5,5,0,0,1,3.69,1.5,4.91,4.91,0,0,1,1.5,3.6,4.75,4.75,0,0,1-1.5,3.54A5.12,5.12,0,0,1,514,697.4a5,5,0,0,1-3.59-1.46A4.75,4.75,0,0,1,508.9,692.4Zm9.73,48.66a4.31,4.31,0,0,1-1.44,3.36,4.6,4.6,0,0,1-3,1.09,4.31,4.31,0,0,1-4.42-4.09l-.26-34.56a4.94,4.94,0,0,1,1.62-2.87,4.31,4.31,0,0,1,2.79-1,4.73,4.73,0,0,1,2.7.86,4.38,4.38,0,0,1,1.71,2.68Zm22.28.18a4.31,4.31,0,0,1-1.44,3.36,4.6,4.6,0,0,1-3,1.09,4.53,4.53,0,0,1-2.83-1,4.38,4.38,0,0,1-1.58-3.09V716.41h-1.2a6.45,6.45,0,0,1-3.47-1.47,3.47,3.47,0,0,1-1.15-2.58,4,4,0,0,1,1.25-2.71,4.88,4.88,0,0,1,3.74-1.34h.83v-9.6a16.11,16.11,0,0,1,1-5.94A14.55,14.55,0,0,1,536,688.1a13,13,0,0,1,4.37-3.08,14.2,14.2,0,0,1,5.63-1.08,18.81,18.81,0,0,1,3.5.41,23,23,0,0,1,4.18,1.22,12.47,12.47,0,0,1,3.51,2.09,3.92,3.92,0,0,1,1.45,3,3.54,3.54,0,0,1-1.23,2.68,4.31,4.31,0,0,1-3,1.14,6.45,6.45,0,0,1-2.09-.37,21.59,21.59,0,0,1-2.09-.81h.09c-.73-.31-1.47-.61-2.23-.91a5.65,5.65,0,0,0-2.13-.46q-3.92,0-5,6.24v10l10.28-.27a5.4,5.4,0,0,1,3,1.7,3.72,3.72,0,0,1,.91,2.34,2.93,2.93,0,0,1-1.09,2.44,7.22,7.22,0,0,1-2.82,1.29,18.42,18.42,0,0,1-3.82.46c-1.39,0-2.76,0-4.09,0h-2.37Zm33.11,0a4.31,4.31,0,0,1-1.44,3.36,4.56,4.56,0,0,1-5.81.09,4.37,4.37,0,0,1-1.57-3.09V716.41H564a6.45,6.45,0,0,1-3.47-1.47,3.47,3.47,0,0,1-1.15-2.58,4,4,0,0,1,1.24-2.71,4.89,4.89,0,0,1,3.75-1.34h.83v-9.6a16.31,16.31,0,0,1,1-5.94,14.55,14.55,0,0,1,2.88-4.67,12.93,12.93,0,0,1,4.38-3.08,14.19,14.19,0,0,1,5.62-1.08,18.71,18.71,0,0,1,3.5.41,23.05,23.05,0,0,1,4.19,1.22,12.41,12.41,0,0,1,3.5,2.09,3.89,3.89,0,0,1,1.45,3,3.53,3.53,0,0,1-1.22,2.68,4.32,4.32,0,0,1-3,1.14,6.41,6.41,0,0,1-2.09-.37,20.63,20.63,0,0,1-2.09-.81h.09c-.73-.31-1.47-.61-2.23-.91a5.66,5.66,0,0,0-2.14-.46c-2.61,0-4.27,2.08-5,6.24v10l10.28-.27a5.43,5.43,0,0,1,3,1.7,3.78,3.78,0,0,1,.91,2.34,2.93,2.93,0,0,1-1.09,2.44,7.22,7.22,0,0,1-2.82,1.29,18.59,18.59,0,0,1-3.82.46c-1.4,0-2.76,0-4.1,0H574ZM594.3,692.4a5.12,5.12,0,0,1,5.1-5.1,5,5,0,0,1,3.68,1.5,4.91,4.91,0,0,1,1.5,3.6,4.75,4.75,0,0,1-1.5,3.54,5.09,5.09,0,0,1-3.68,1.46,5,5,0,0,1-3.6-1.46A4.75,4.75,0,0,1,594.3,692.4ZM604,741.06a4.31,4.31,0,0,1-1.44,3.36,4.6,4.6,0,0,1-3,1.09,4.29,4.29,0,0,1-4.41-4.09l-.27-34.56a5.05,5.05,0,0,1,1.62-2.87,4.31,4.31,0,0,1,2.79-1,4.73,4.73,0,0,1,2.7.86,4.38,4.38,0,0,1,1.71,2.68Zm32.29-7.1a3.92,3.92,0,0,1,1.64-1,6.32,6.32,0,0,1,1.82-.27,4.19,4.19,0,0,1,3,1.13,3.61,3.61,0,0,1,1.18,2.69,5,5,0,0,1-1.36,3.18,15.91,15.91,0,0,1-5.91,4.18,18.51,18.51,0,0,1-7,1.37,17.32,17.32,0,0,1-4.68-.64,15.2,15.2,0,0,1-4.35-2,16.67,16.67,0,0,1-3.66-3.22,13.75,13.75,0,0,1-2.51-4.45v.09a21.37,21.37,0,0,1-1.81-10.52,28.32,28.32,0,0,1,1.67-7.67,26.23,26.23,0,0,1,3.83-7,19.86,19.86,0,0,1,5.83-5.17,14.57,14.57,0,0,1,7.5-2,21.71,21.71,0,0,1,2.46.14,11.25,11.25,0,0,1,2.45.58,27.83,27.83,0,0,1,4.59,2.07,20,20,0,0,1,4.14,3.24,5.34,5.34,0,0,1,.91,2.61,4.05,4.05,0,0,1-.54,2.1,3.52,3.52,0,0,1-1.5,1.36,4.92,4.92,0,0,1-2.28.41,6.79,6.79,0,0,1-2.77-.77,13.35,13.35,0,0,0-3.68-2.87,7.89,7.89,0,0,0-3.42-.86,7.08,7.08,0,0,0-4.09,1.32,11.72,11.72,0,0,0-3.27,3.5,20.17,20.17,0,0,0-2.19,4.91,19.41,19.41,0,0,0-.81,5.55,21.41,21.41,0,0,0,.22,3.09,10.22,10.22,0,0,0,.87,2.91,8.83,8.83,0,0,0,3.09,4,7.09,7.09,0,0,0,4,1.27,7.78,7.78,0,0,0,3.28-.81,11.16,11.16,0,0,0,3.27-2.46Zm53.48,3.55a5.25,5.25,0,0,1,1.18,3,3.37,3.37,0,0,1-1.22,2.68,4.41,4.41,0,0,1-3,1,4.77,4.77,0,0,1-3.56-1.55,13.27,13.27,0,0,1-2.47-3.64,23.12,23.12,0,0,1-5.37,3.64,13.85,13.85,0,0,1-6.26,1.55,14.17,14.17,0,0,1-4.86-.87,17.33,17.33,0,0,1-4.46-2.36,17,17,0,0,1-3.54-3.5,16.5,16.5,0,0,1-2.32-4.28,24.34,24.34,0,0,1-1-5.18q-.22-2.82-.23-5.91v-3.91c0-1.28,0-2.52.09-3.73.06-1,.11-2,.14-3s0-1.88,0-2.73a4.74,4.74,0,0,1,1.66-2.91,4.59,4.59,0,0,1,2.84-.91,4.71,4.71,0,0,1,2.65.86,4.31,4.31,0,0,1,1.76,2.68v4.1c0,1.33,0,2.66-.09,4s-.11,2.76-.14,4.09,0,2.76,0,4.28a15,15,0,0,0,1.92,8,5.87,5.87,0,0,0,5.21,3.09,7.28,7.28,0,0,0,4.94-2,38.89,38.89,0,0,0,4.39-4.69,72.5,72.5,0,0,1-.55-8.91c0-1.76,0-3.55,0-5.37a24.67,24.67,0,0,1,.54-4.95,9.59,9.59,0,0,1,1.53-3.64,3.61,3.61,0,0,1,3.11-1.41,4.46,4.46,0,0,1,2.93,1.09,4,4,0,0,1,1.3,3.27,40.45,40.45,0,0,1-.27,4.37q-.18,1.54-.27,3.27c-.06,1.16-.09,2.34-.09,3.55,0,1.64,0,3.29.13,5a39,39,0,0,0,.55,4.77,28.41,28.41,0,0,0,1,4.14A9.46,9.46,0,0,0,689.8,737.51Zm20.49,1.82q2.43,1.73,2.43,3.64a3.79,3.79,0,0,1-.55,2,4.19,4.19,0,0,1-1.45,1.45,4.46,4.46,0,0,1-2.14.59,5.15,5.15,0,0,1-2.59-.68l-3.91-2.55a4,4,0,0,1-1.09-1.36,7.18,7.18,0,0,1-.46-1.73V690.85a5,5,0,0,1,1.62-2.78,4.18,4.18,0,0,1,2.7-1,4.44,4.44,0,0,1,2.7.86,5.5,5.5,0,0,1,1.81,2.6v48.2a1.63,1.63,0,0,0,.46.32Zm11-26.56a6.2,6.2,0,0,1-3.41-1.46,3.39,3.39,0,0,1-1.14-2.54A3.89,3.89,0,0,1,718,706a4.89,4.89,0,0,1,3.68-1.27h4.19V690.85A4.9,4.9,0,0,1,727.5,688a4.43,4.43,0,0,1,2.77-1,4.82,4.82,0,0,1,2.73.86,4.35,4.35,0,0,1,1.73,2.69v14.19h8a5.82,5.82,0,0,1,3,1.63,3.53,3.53,0,0,1,1,2.37q0,2.91-4.19,4h-7.73V729.5c0,1.88,0,3.76,0,5.64s0,3.76,0,5.64a3.94,3.94,0,0,1-1.45,3.37,5,5,0,0,1-3,1.09,4.67,4.67,0,0,1-2.86-1,4.39,4.39,0,0,1-1.59-3.09q0-3.46,0-7.14t0-7.33V712.77ZM782,705.49a4.46,4.46,0,0,1,4.18-2.54,4.07,4.07,0,0,1,3,1.27,4.93,4.93,0,0,1,1.22,3.55,98.19,98.19,0,0,1-3.59,11.14q-2.13,5.51-4.73,10.82t-5.45,10.51q-2.87,5.18-5.78,10.27l-2.87,5q-1.41,2.44-2.86,5.09a6.15,6.15,0,0,1-2.14,1.82,5,5,0,0,1-2.14.54,4.34,4.34,0,0,1-2.91-1,3.83,3.83,0,0,1-1.18-3.09v-.59a2.83,2.83,0,0,1,.09-.68q1.55-2.91,3.23-5.73t3.23-5.64l5.55-9.92a60.45,60.45,0,0,1-6.46-5.91,49.43,49.43,0,0,1-5.05-6.32,45.27,45.27,0,0,1-3.91-7.18,63.75,63.75,0,0,1-3-8.42q0-5.18,4.27-5.18a4.68,4.68,0,0,1,2.68.82,4.61,4.61,0,0,1,1.78,2.63,39.55,39.55,0,0,0,5.27,12.37,49.76,49.76,0,0,0,8.37,9.55A121.28,121.28,0,0,0,778,717.54a104.05,104.05,0,0,0,3.91-12Z"/></svg>