<svg id="arrow" xmlns="http://www.w3.org/2000/svg" viewBox="0 0 454.75 338.09"><defs><style>.cls-1{fill:#133c2a;}</style></defs><title>hollowleft copy</title><path class="cls-1" d="M242.55,43.9a15,15,0,0,1,15,15v68.72H402.91a15,15,0,0,1,15,15v52a15,15,0,0,1-15,15H257.57v69.53a15,15,0,0,1-22.5,13L44.34,182a15,15,0,0,1,0-26L235.07,45.94a14.85,14.85,0,0,1,7.48-2m0-32a47.06,47.06,0,0,0-23.5,6.33L28.34,128.34a47,47,0,0,0,0,81.4L219.07,319.87a47,47,0,0,0,70.5-40.7V241.64H402.91a47.06,47.06,0,0,0,47-47v-52a47.05,47.05,0,0,0-47-47H289.57V58.93a47.08,47.08,0,0,0-47-47Z"/></svg>