<svg id="arrow" xmlns="http://www.w3.org/2000/svg" viewBox="0 0 454.75 338.09"><defs><style>.cls-1{fill:#267855;}.cls-2{fill:#133c2a;}</style></defs><title>insetright copy 2</title><path class="cls-1" d="M212.45,43.9a14.92,14.92,0,0,1,7.48,2L410.66,156.05a15,15,0,0,1,0,26L219.93,292.15A14.93,14.93,0,0,1,202,290a14.59,14.59,0,0,1-4.58-10.79V209.64H52.09a15,15,0,0,1-15-15v-52a15,15,0,0,1,15-15H197.43V58.93a15,15,0,0,1,15-15m0-32a47.08,47.08,0,0,0-47,47V95.65H52.09a47.05,47.05,0,0,0-47,47v52a47.06,47.06,0,0,0,47,47H165.43v37.53a47,47,0,0,0,47,47h0a47,47,0,0,0,23.46-6.31L426.66,209.75a47,47,0,0,0,0-81.41L235.93,18.22a47,47,0,0,0-23.48-6.32Z"/><path class="cls-2" d="M212.45,43.9a14.85,14.85,0,0,1,7.48,2L410.66,156.06a15,15,0,0,1,0,26L219.93,292.16a15,15,0,0,1-22.5-13V209.64H52.09a15,15,0,0,1-15-15v-52a15,15,0,0,1,15-15H197.43V58.93a15,15,0,0,1,15-15m0-8h0a23.05,23.05,0,0,0-23,23v60.72H52.09a23,23,0,0,0-23,23v52a23,23,0,0,0,23,23H189.43v61.53a23,23,0,0,0,34.5,19.91L414.66,189a23,23,0,0,0,0-39.83L223.93,39a23,23,0,0,0-11.48-3.11Z"/></svg>