<svg xmlns="http://www.w3.org/2000/svg" viewBox="0 0 3000 3000"><defs><style>.cls-1{fill:#267855;}</style></defs><title>lineArtboard 1 copy</title><g id="Layer_3" data-name="Layer 3"><path class="cls-1" d="M1616,1035.14h0v939c8.39.23,20,1.29,30,4.65v-946C1636.07,1034.32,1626,1034.63,1616,1035.14Z"/><path class="cls-1" d="M1656,927.27h-10c0-14.4-55.54-34.48-146-34.48-39.94,0-77.41,4-105.5,11.38-29.85,7.79-40.48,17-40.48,23.1h-10c0-16.74,26.08-27.06,48-32.78,28.89-7.55,67.25-11.7,108-11.7s79.13,4.15,108,11.7C1629.9,900.21,1656,910.53,1656,927.27Z"/><path class="cls-1" d="M1381.5,1034.58c-6.38.37-12.88-.71-19.17-1.67-2.71-.41-5.42-.86-8.12-1.31l-.19,0V1984a127.77,127.77,0,0,1,21.8-6.59c2.6-.59,5.36-1.19,8.2-1.71v-941.3Q1382.76,1034.51,1381.5,1034.58Z"/><path class="cls-1" d="M1817.81,2049.54a38,38,0,0,1-4,16,48.22,48.22,0,0,1-8.3,11.63c-6.12,6.43-12.76,10.78-19.35,14.63a154.66,154.66,0,0,1-20.07,9.42c-6.73,2.65-13.49,4.92-20.26,6.94a399,399,0,0,1-40.83,9.61c-13.64,2.55-27.3,4.53-41,6.16-27.34,3.29-54.67,5.34-82,6.82s-54.62,2.3-81.94,2.58c-13.66.17-27.33.15-41-.16q-10.26-.22-20.51-.53c-6.84-.25-13.67-.52-20.51-.89-27.34-1.41-54.68-3.7-82-7.3s-54.56-8.51-81.61-16.57c-6.76-2-13.51-4.3-20.23-6.94a161.92,161.92,0,0,1-20-9.35,84.84,84.84,0,0,1-19.39-14.42,48.93,48.93,0,0,1-8.39-11.46,36.69,36.69,0,0,1-1-32.29,50.49,50.49,0,0,1,7.84-12.39c5.91-7,12.38-11.9,18.85-16.32a170.76,170.76,0,0,1,19.76-11.21c6.65-3.26,13.34-6.16,20.07-8.76a412,412,0,0,1,40.68-13.25q20.46-5.57,41.09-9.62a822,822,0,0,1,82.87-11.89c13.86-1.27,27.74-2.34,41.62-3s27.79-1.09,41.68-1.29c55.57-.53,111.33,4.09,166.26,15.66,27.44,5.91,54.72,13.16,81.57,23.67,6.72,2.62,13.4,5.5,20,8.75,3.32,1.6,6.62,3.36,9.91,5.18s6.56,3.83,9.82,6a91.27,91.27,0,0,1,18.89,16.12,50.65,50.65,0,0,1,7.94,12.22A38.46,38.46,0,0,1,1817.81,2049.54Zm-29.39,0a10,10,0,0,0-1.22-3.38,22,22,0,0,0-3.61-4.52,59.55,59.55,0,0,0-13-9.21,132.72,132.72,0,0,0-16.55-7.53c-5.82-2.23-11.86-4.22-18-6a385,385,0,0,0-38-8.74c-12.89-2.36-26-4.22-39.08-5.76-26.26-3.1-52.75-5.05-79.29-6.48s-53.17-2.21-79.82-2.49c-13.32-.17-26.65-.15-40,.15q-10,.21-20,.51c-6.65.23-13.3.5-19.94.85-26.57,1.35-53.08,3.56-79.3,7s-52.22,8.1-76.84,15.33c-6.13,1.83-12.16,3.82-18,6a138.78,138.78,0,0,0-16.51,7.49,61.4,61.4,0,0,0-13,9.07,21.89,21.89,0,0,0-3.62,4.42,9.52,9.52,0,0,0-1.28,3.32,8.19,8.19,0,0,0,.53,3.8,19.94,19.94,0,0,0,3.17,5.28c3,3.78,7.5,7.55,12.43,10.95a136.73,136.73,0,0,0,16.21,9.36c5.73,2.86,11.7,5.48,17.81,7.87a379,379,0,0,0,37.8,12.43q19.34,5.31,39.19,9.24a787.85,787.85,0,0,0,80.19,11.57c13.48,1.23,27,2.28,40.52,2.94s27.09,1.07,40.65,1.27a803.94,803.94,0,0,0,81.24-3.24,689,689,0,0,0,80.19-12.08c26.32-5.71,52.38-12.79,76.78-22.51,6.09-2.42,12-5,17.77-7.9,2.87-1.41,5.64-2.92,8.36-4.46s5.31-3.19,7.81-4.86a59.24,59.24,0,0,0,12.4-10.81,19.68,19.68,0,0,0,3.19-5.17A8.45,8.45,0,0,0,1788.42,2049.54Z"/><path class="cls-1" d="M1818,966.14a38.89,38.89,0,0,1-3.43,16.37,50.49,50.49,0,0,1-7.92,12.32,90.91,90.91,0,0,1-18.89,16.25c-3.26,2.15-6.54,4.13-9.82,6s-6.6,3.61-9.92,5.22c-6.64,3.28-13.33,6.18-20,8.82-26.86,10.58-54.15,17.88-81.61,23.84-54.94,11.66-110.73,16.32-166.32,15.79-13.9-.21-27.8-.61-41.69-1.3s-27.78-1.75-41.64-3a816.93,816.93,0,0,1-82.91-12q-20.64-4.08-41.12-9.66a412.54,412.54,0,0,1-40.69-13.3c-6.74-2.62-13.44-5.52-20.09-8.79a171.49,171.49,0,0,1-19.78-11.26,91.17,91.17,0,0,1-18.88-16.34,52,52,0,0,1-7.9-12.35A39.33,39.33,0,0,1,1182,966.4a37.65,37.65,0,0,1,4.11-16.12,47.53,47.53,0,0,1,8.41-11.62c6.2-6.38,12.84-10.69,19.46-14.48a163,163,0,0,1,20.08-9.34c6.73-2.63,13.49-4.88,20.25-6.92,27.08-8,54.35-12.8,81.65-16.49s54.65-5.86,82-7.25c6.84-.36,13.68-.64,20.51-.88s13.68-.37,20.51-.53c13.67-.3,27.34-.32,41-.15q41,.43,81.95,2.56c27.31,1.47,54.64,3.49,82,6.74,13.68,1.62,27.35,3.58,41,6.1a405,405,0,0,1,40.86,9.52c6.78,2,13.54,4.26,20.29,6.9a155.87,155.87,0,0,1,20.11,9.36c6.61,3.82,13.27,8.15,19.45,14.57a48.7,48.7,0,0,1,8.38,11.65A38.08,38.08,0,0,1,1818,966.14Zm-29.85,0a8,8,0,0,0-.57-3.58,19.46,19.46,0,0,0-3.17-5.1,58.33,58.33,0,0,0-12.4-10.75c-2.49-1.67-5.11-3.28-7.8-4.85s-5.5-3.05-8.37-4.46c-5.71-2.85-11.67-5.47-17.76-7.88-24.4-9.72-50.45-16.81-76.77-22.54a686.59,686.59,0,0,0-80.19-12.11,797.89,797.89,0,0,0-81.24-3.23c-13.56.21-27.11.61-40.64,1.29s-27,1.72-40.52,3a787.8,787.8,0,0,0-80.18,11.63c-13.2,2.63-26.29,5.72-39.18,9.27a377.84,377.84,0,0,0-37.78,12.45c-6.1,2.39-12.06,5-17.79,7.88a138.29,138.29,0,0,0-16.18,9.36c-4.9,3.41-9.4,7.16-12.34,10.92a18.88,18.88,0,0,0-3,5.18,7.43,7.43,0,0,0-.43,3.6,9.83,9.83,0,0,0,1.32,3.3,23.4,23.4,0,0,0,3.66,4.4,61,61,0,0,0,12.94,9,139.11,139.11,0,0,0,16.48,7.46c5.8,2.22,11.82,4.2,17.94,6,24.6,7.21,50.64,11.79,76.79,15.27s52.7,5.59,79.26,6.93q10,.51,19.94.84l20,.5c13.31.29,26.64.3,40,.13q39.95-.43,79.77-2.49c26.53-1.42,53-3.36,79.25-6.44,13.12-1.52,26.18-3.37,39.06-5.73a377.92,377.92,0,0,0,37.92-8.72c6.15-1.79,12.17-3.78,18-6a131.93,131.93,0,0,0,16.5-7.51c5-2.82,9.69-6,12.87-9.19a21.4,21.4,0,0,0,3.55-4.48A9.86,9.86,0,0,0,1788.19,966.14Z"/><path class="cls-1" d="M1651.59,1263.55l90.86,7.06,45.4,3.67,45.36,3.85q90.69,7.86,181.13,17.46l-1.21,0,1.92,0,1.07,0,.18,0c66.87,7.52,133.62,16.18,200.06,26.84l24.91,4,24.86,4.38,12.43,2.17c4.14.75,8.26,1.56,12.4,2.34l24.79,4.72,24.72,5.08,12.36,2.56,12.31,2.76,12.32,2.75c4.11.91,8.22,1.8,12.3,2.81l24.54,5.91q49,12.24,97.24,27.11c8,2.57,16.05,5,24,7.69l23.92,8,23.77,8.46,11.86,4.44c2,.73,3.95,1.51,5.91,2.3l5.88,2.36a449.18,449.18,0,0,1,46.1,21.52,252.13,252.13,0,0,1,21.93,13.36,135.14,135.14,0,0,1,20.19,16.62c.76.82,1.55,1.61,2.29,2.45l2.18,2.52c.7.83,1.37,1.59,2.09,2.48l.59.77.52.71c.34.47.67,1,1,1.45a37.23,37.23,0,0,1,3.47,6.43c.25.58.47,1.18.68,1.79.11.3.2.62.29.93l.29,1a19,19,0,0,1,.41,4.36c0,.22,0,.67,0,1s0,.71-.07,1.06c-.06.71-.17,1.39-.29,2.07a26.91,26.91,0,0,1-1.06,3.83,34.85,34.85,0,0,1-3.26,6.62,66.56,66.56,0,0,1-8.47,10.72c-1.51,1.66-3.15,3.13-4.73,4.68s-3.28,2.93-5,4.3c-3.38,2.77-6.85,5.37-10.39,7.84a248.18,248.18,0,0,1-21.91,13.47,461.77,461.77,0,0,1-46,21.84c-3.92,1.59-7.83,3.22-11.76,4.77l-11.83,4.57-23.56,8.83c-31.41,11.8-63.08,23.33-95.28,33.56s-64.86,19.06-97.79,26.72-66.07,14.21-99.36,20c-8.34,1.4-16.65,2.89-25,4.22l-25,3.82c-4.19.62-8.4,1.23-12.63,1.8l-3.07.42-3.08.44-6.22.91-24.89,3.64c-8.28,1.24-16.66,2.31-25,3.47s-16.68,2.32-25,3.39l-25.05,3.21-12.52,1.6-12.54,1.48q-100.28,12.09-201,19.8c-134.27,10.22-269,14.52-403.57,13.63-8.42,0-16.83-.12-25.24-.23l-25.25-.32c-16.83-.27-33.66-.68-50.48-1l-25.24-.75c-8.42-.27-16.83-.46-25.24-.82-16.83-.68-33.65-1.2-50.47-2.07-67.28-3.12-134.52-7.57-201.62-13.78s-134.09-14-200.81-23.73L846.76,1692l-12.49-1.93-25-3.89c-16.63-2.77-33.27-5.45-49.87-8.45-33.21-5.87-66.33-12.22-99.31-19.36-65.93-14.25-131.46-30.8-195.6-52.07l-12-4.1c-4-1.37-8-2.69-12-4.17l-11.91-4.32-6-2.16-5.91-2.29-11.83-4.58c-2-.75-3.93-1.54-5.89-2.35l-5.89-2.41q-11.73-4.9-23.29-10.31c-15.38-7.26-30.54-15.15-44.87-24.76q-5.37-3.59-10.53-7.59a131.3,131.3,0,0,1-10-8.53,84.23,84.23,0,0,1-9-10,41.8,41.8,0,0,1-6.85-12.59l-.25-.8,0-.73c.07-3.64.1-7.28,0-10.92h0l0-.62.22-.78a28.34,28.34,0,0,1,1.83-4.82,39.35,39.35,0,0,1,2.35-4.25,61.11,61.11,0,0,1,5.58-7.48,105.81,105.81,0,0,1,13-12.46,217.35,217.35,0,0,1,29.09-19.65c20.19-11.53,41.29-21,62.66-29.46s43-16.11,64.75-23.27l8.17-2.66c2.72-.89,5.45-1.77,8.19-2.6l16.43-5,16.49-4.83c2.75-.79,5.5-1.62,8.26-2.38l8.28-2.28c44.15-12.27,88.77-22.63,133.59-31.9s89.91-17.17,135.11-24.27c90.4-14.12,181.31-24.64,272.38-32.75s182.35-13.77,273.68-17.73l24.94-1-1.78,58.87-22-.66c-90.64,0-181.3,1.71-271.83,5.83s-180.95,10.64-271,20.74c-45,5.09-89.91,11-134.59,18.21S583.07,1382.1,539,1392.31l-8.27,1.9c-2.75.63-5.49,1.33-8.24,2l-16.46,4.06-16.4,4.28c-2.74.69-5.46,1.44-8.18,2.21l-8.16,2.27c-21.74,6.11-43.36,12.72-64.67,20.13s-42.19,15.71-62,25.91a206,206,0,0,0-28.21,17.31,95.14,95.14,0,0,0-12.1,10.61,52.13,52.13,0,0,0-4.89,6,30.51,30.51,0,0,0-1.91,3.13,19.06,19.06,0,0,0-1.36,3.09l.21-1.41h0c-.1,3.64-.07,7.28,0,10.92l-.24-1.52a32.18,32.18,0,0,0,5.59,9.11,73.93,73.93,0,0,0,8.21,8.31,119,119,0,0,0,9.45,7.4q4.94,3.49,10.15,6.68c6.95,4.25,14.17,8.13,21.55,11.75s14.91,7,22.55,10.14,15.35,6.14,23.13,9l5.85,2.09q2.92,1.05,5.89,2l11.82,3.95,5.91,2,5.95,1.85,11.91,3.69c4,1.26,8,2.36,12,3.51l12,3.42c32.06,8.92,64.49,16.54,97.12,23.23s65.45,12.49,98.37,17.66,66,9.6,99.07,13.57c16.54,2,33.12,3.79,49.69,5.6l24.89,2.47,12.44,1.21,12.46,1.11c66.41,6.08,133,10.42,199.6,13.87,8.32.48,16.66.82,25,1.21l25,1.17,25,1,12.5.53,12.5.43,25,.91,25,.77c8.33.24,16.67.54,25,.74l25,.64q100,2.49,200.19,2.73,200.28.52,400.49-5.46c66.74-2.17,133.46-5,200.14-9l12.5-.73,12.5-.83,25-1.65c8.34-.55,16.66-1.22,25-1.83s16.63-1.18,25-1.92l25.06-2.09,6.26-.53,3.17-.25,3.18-.23,12.35-1c8.26-.71,16.57-1.49,24.93-2.29s16.52-1.71,24.79-2.56c33.08-3.57,66.1-8,98.85-13.7s65.28-12.72,97.4-21.42c8-2.22,16.06-4.37,24-6.79,4-1.19,8-2.32,12-3.56l11.95-3.7q23.85-7.59,47.61-15.72l23.76-8.15,11.72-4.2c3.9-1.44,7.76-3,11.64-4.42s7.69-3.11,11.54-4.65,7.61-3.27,11.41-4.91c7.5-3.46,15-7,22.23-10.88,3.66-1.89,7.18-4,10.75-6l5.21-3.23c1.74-1.07,3.4-2.24,5.1-3.36a117.67,117.67,0,0,0,18.55-15.19,54.23,54.23,0,0,0,7.17-8.9,25.94,25.94,0,0,0,2.32-4.62,16.91,16.91,0,0,0,.62-2.22c.05-.35.13-.7.15-1a4.32,4.32,0,0,0,0-.5c0-.19,0-.27,0-.57a9.71,9.71,0,0,0-.11-1.89l-.13-.48c-.06-.19-.11-.38-.18-.57-.13-.38-.27-.76-.43-1.15a26.66,26.66,0,0,0-2.49-4.61c-.24-.38-.51-.76-.77-1.13l-.77-1-2-2.32-1.92-2.25c-.65-.73-1.33-1.43-2-2.14a124.69,124.69,0,0,0-18.61-15.21,240.66,240.66,0,0,0-21-12.74c-1.78-1-3.64-1.93-5.47-2.88s-3.65-1.92-5.51-2.82l-5.59-2.68c-1.86-.9-3.72-1.79-5.62-2.62q-11.31-5.14-22.89-9.73l-5.8-2.27c-1.93-.77-3.86-1.52-5.82-2.22-3.9-1.43-7.79-2.89-11.71-4.28l-23.69-8.13-23.82-7.72c-4-1.32-8-2.45-12-3.67l-12-3.6c-32-9.44-64.38-17.71-96.94-25.07s-65.41-13.43-98.33-19l-24.75-3.87c-4.12-.63-8.24-1.3-12.37-1.91l-12.41-1.72-24.81-3.41-24.87-3c-66.34-7.88-133-13.14-199.74-16.53l1.24,0-1.92,0H2013l-1,0q-90.32-4.56-180.75-5.42c-15.07-.16-30.14-.19-45.21-.18l-22.6.05-22.6.22q-45.2.51-90.38,2.13l-12.71-.31-4-59.13Z"/><path class="cls-1" d="M2781,1503.46a2.21,2.21,0,0,0,0-.51l.1.48c.05.35.09.7.11,1a11.45,11.45,0,0,1-.07,1.81,22.5,22.5,0,0,1-.46,2.33l.12-1.09a14.81,14.81,0,0,1-.15,2.43,9.06,9.06,0,0,1-1.24,3.43h0l.7-1.88a80.46,80.46,0,0,1-2.08,12,99.25,99.25,0,0,1-3.81,11.54,126.93,126.93,0,0,1-11.36,21.18,190.55,190.55,0,0,1-14.32,18.9c-5.1,6-10.46,11.69-16,17.2-11.05,11-22.67,21.21-34.58,31q-8.92,7.32-18,14.35c-6.07,4.65-12.21,9.36-18.37,13.78-49,36.07-99.36,70.09-150.52,102.8s-103.08,64.14-155.48,94.67S2250.21,1909.06,2197,1938c-26.58,14.51-53.31,28.71-80,42.93s-53.47,28.2-80.3,42.12-53.69,27.89-81,41.54-54.94,27.13-83.84,39.64c-14.42,6.28-29.29,12.18-44.55,17.59-3.79,1.4-7.66,2.66-11.51,3.94-1.93.64-3.84,1.31-5.8,1.91l-5.86,1.79-5.87,1.79-2.94.89-3,.81-11.93,3.22c-16,4-32.23,7.19-48.38,9.67l-12.08,1.64c-2,.26-4,.57-6,.78l-6,.65c-4,.4-8,.9-12,1.23l-11.89,1c-4,.36-7.89.55-11.83.81s-7.88.5-11.78.69l-11.68.53-5.85.26-5.8.18c-7.73.24-15.47.5-23.13.62l-11.51.23-11.46.15c-30.53.37-60.78.38-91,.38s-60.44,0-91-.43l-11.46-.16-11.51-.23c-7.66-.12-15.4-.4-23.13-.64l-5.8-.18-5.84-.26-11.69-.53c-3.9-.18-7.85-.47-11.77-.71s-7.84-.46-11.83-.82l-11.89-1c-4-.33-8-.83-12-1.23l-6-.65c-2-.21-4-.52-6-.78l-12.08-1.63c-16.16-2.46-32.36-5.72-48.37-9.72l-11.92-3.21-3-.81-2.94-.89-5.86-1.79-5.87-1.79c-1.95-.6-3.86-1.27-5.79-1.9-3.86-1.29-7.73-2.55-11.51-3.94-15.26-5.41-30.1-11.37-44.53-17.62s-28.61-12.72-42.53-19.37-27.68-13.43-41.3-20.28c-27.29-13.64-54.13-27.65-81-41.55-53.57-28-107.11-56.11-160.32-85.09s-106.14-58.51-158.53-89-104.33-62-155.5-94.64-101.55-66.68-150.55-102.72c-6.16-4.43-12.3-9.13-18.37-13.77s-12.1-9.46-18.06-14.34c-11.91-9.75-23.54-20-34.59-30.94-5.51-5.5-10.86-11.2-16-17.18a193.12,193.12,0,0,1-14.33-18.88,126.88,126.88,0,0,1-11.37-21.17,98.11,98.11,0,0,1-3.83-11.54,79.91,79.91,0,0,1-2.09-12h0l.7,1.88a9.09,9.09,0,0,1-1.25-3.43,15,15,0,0,1-.15-2.44l.12,1.09a22.5,22.5,0,0,1-.46-2.33,9.58,9.58,0,0,1,.29-3.92l-.15,2.21a30.65,30.65,0,0,1,0-9.27l.15,2.21a9.52,9.52,0,0,1-.37-2.25,11.26,11.26,0,0,1,.11-1.86c.15-1,.3-1.63.38-2.13l-.07.82a13.78,13.78,0,0,1,.18-2.53,11,11,0,0,1,1-2.88l0,0-.47,1.46a79.15,79.15,0,0,1,2.1-12,96.89,96.89,0,0,1,3.83-11.54,127.28,127.28,0,0,1,11.37-21.17,191.77,191.77,0,0,1,14.31-18.91c5.09-6,10.44-11.7,15.94-17.22,11-11,22.65-21.24,34.56-31q8.94-7.34,18.07-14.35c6.09-4.67,12.22-9.33,18.36-13.77,48.88-36.15,99.23-70.26,150.34-103s103-64.24,155.41-94.81q19.62-11.51,39.38-22.75l19.75-11.27,19.8-11.16L743,1094l19.88-11c13.23-7.37,26.55-14.59,39.85-21.83,26.59-14.5,53.31-28.73,80-42.92s53.49-28.17,80.28-42.13,53.67-27.9,81-41.55q20.41-10.27,41.29-20.3t42.54-19.39c14.43-6.27,29.27-12.25,44.54-17.67,3.79-1.4,7.68-2.67,11.54-4,1.94-.63,3.85-1.32,5.82-1.92l5.89-1.8,5.9-1.79,2.94-.9,3-.81,12-3.22c16-4,32.28-7.23,48.47-9.72,8-1.08,16.16-2.31,24.15-3.07,4-.4,8-.9,12-1.22l11.92-1c4-.37,7.89-.55,11.83-.81s7.89-.52,11.79-.7l11.69-.53,5.85-.26,5.8-.19c7.73-.25,15.48-.5,23.14-.62l11.51-.24,11.46-.16c30.54-.38,60.78-.39,91-.41s60.43,0,91,.41l11.45.16,11.52.24c7.66.12,15.4.37,23.14.62l5.8.19,5.84.26,11.7.53c3.9.18,7.86.46,11.79.69s7.84.45,11.83.81l11.91,1c4,.32,8,.82,12,1.23,8,.75,16.09,2,24.15,3.06,16.19,2.49,32.43,5.7,48.47,9.72l12,3.22,3,.81,3,.9,5.9,1.79,5.89,1.8c2,.6,3.88,1.28,5.82,1.92,3.86,1.3,7.75,2.57,11.54,4,15.27,5.42,30.11,11.39,44.54,17.67s28.61,12.75,42.54,19.39,27.68,13.44,41.3,20.29c27.28,13.66,54.13,27.64,81,41.56s53.53,28,80.28,42.12,53.43,28.42,80,42.93c13.31,7.24,26.62,14.45,39.86,21.83l19.88,11,19.83,11.1,19.81,11.16,19.74,11.27q19.77,11.23,39.39,22.75,78.57,45.84,155.4,94.81c51.11,32.76,101.47,66.88,150.35,103,6.14,4.44,12.27,9.1,18.35,13.77s12.12,9.46,18.07,14.35c11.91,9.77,23.54,20,34.57,31,5.5,5.51,10.85,11.23,15.94,17.22a190.22,190.22,0,0,1,14.31,18.91,127.23,127.23,0,0,1,11.38,21.16,98.73,98.73,0,0,1,3.83,11.54,78,78,0,0,1,2.1,12v0l-.47-1.46a10.67,10.67,0,0,1,1,2.89,13.49,13.49,0,0,1,.19,2.56l-.07-.82c.08.5.23,1.11.38,2.13a11.26,11.26,0,0,1,.11,1.86,9.69,9.69,0,0,1-.37,2.26l.15-2.22a30.68,30.68,0,0,1,.35,4.64c0,.76,0,1.53-.09,2.3,0,.38-.06.77-.1,1.16l-.08.58A1.37,1.37,0,0,0,2781,1503.46Zm-10,.67a11.36,11.36,0,0,1,.1-1.48l0-.38.07-.77c0-.51.06-1,.06-1.56a20.47,20.47,0,0,0-.23-3.08l.15-2.22a1.31,1.31,0,0,0-.05.27s0,0,0-.16-.19-1-.33-1.84l-.07-.41v-.41a5.32,5.32,0,0,0,0-.75,1.1,1.1,0,0,0-.09-.23l-.17-.34-.3-1.12v0c-3.31-13.64-11.07-25.78-20.38-36.59a227.47,227.47,0,0,0-31.77-29.59c-11.52-9-23.63-17.48-36-25.57s-25-15.82-38-23.36c-51.68-30.6-104.2-59.66-157.21-87.9-106-56.48-213.73-109.81-322-162.15q-81.23-39.2-163-78-40.77-19.52-81.35-38.6-20.28-9.5-40.48-18.51t-40.22-17.23q-20.05-8.19-39.9-14.87c-3.31-1.16-6.61-2.16-9.91-3.21-1.66-.51-3.31-1.07-5-1.53l-5-1.42-5-1.41-2.48-.71-2.48-.62-9.94-2.49c-13.29-3-26.7-5.51-40.36-7.43l-10.35-1.25c-3.42-.45-6.93-.77-10.43-1.1s-7-.71-10.53-1l-10.64-.76c-3.53-.29-7.17-.41-10.75-.61s-7.17-.41-10.81-.54l-10.91-.4-5.46-.19-5.51-.13c-7.34-.16-14.67-.37-22.1-.44l-11.11-.15-11.17-.09-22.4-.12-22.49,0h-90.33l-22.49,0-22.4.11-11.17.09-11.11.15c-7.43.07-14.76.28-22.1.44l-5.51.13-5.46.19-10.91.4c-3.64.13-7.2.36-10.81.54s-7.22.32-10.75.61l-10.64.76c-3.56.24-7,.65-10.53,1l-5.25.49c-1.75.15-3.45.41-5.18.6l-10.35,1.26c-13.66,1.92-27.06,4.39-40.36,7.42l-9.94,2.5-2.48.62-2.48.71-5,1.41-5,1.41c-1.65.47-3.3,1-5,1.54-3.31,1-6.61,2-9.92,3.21q-19.84,6.71-39.9,14.87T1120,989.39q-20.19,9-40.47,18.52-40.53,19-81.36,38.59-81.64,39-162.95,78c-108.28,52.35-216,105.67-322,162.15-53,28.24-105.53,57.3-157.2,87.9-13,7.54-25.58,15.29-38,23.36s-24.5,16.54-36,25.58a227.47,227.47,0,0,0-31.77,29.59c-9.3,10.82-17.07,23-20.37,36.59l-.25,1-.22.43h0c-.08.18-.08.2-.09.22a3.88,3.88,0,0,0,0,.75v.41l-.07.41c-.14.83-.3,1.53-.33,1.84s0,.21,0,.16a1.31,1.31,0,0,0-.05-.27l.15,2.22a21.13,21.13,0,0,0,0,6.15l-.15,2.22c.07-.23,0-.37.06-.17s.12.63.29,1.38l.12.53v.55a4.73,4.73,0,0,0,0,.89,2.31,2.31,0,0,0-.15-.32l.7,1.88h0c3.23,13.67,10.93,25.85,20.19,36.71a227.09,227.09,0,0,0,31.71,29.69c11.51,9.08,23.6,17.56,36,25.7s25,16,37.93,23.5c51.62,30.64,104.16,59.78,157.14,88.1,106,56.62,213.66,110.13,321.91,162.63q81.21,39.3,162.89,78.19,40.74,19.57,81.35,38.65c27,12.64,54,24.89,80.73,35.79q20.07,8.2,40,14.85c3.31,1.16,6.64,2.17,10,3.21,1.66.52,3.32,1.07,5,1.55l5,1.42,5,1.43,2.49.71,2.5.63,10,2.5c13.33,3.07,26.78,5.53,40.48,7.48l10.36,1.27c1.74.2,3.44.45,5.2.6l5.26.5c3.52.31,7,.71,10.55.95l10.66.76c3.54.29,7.17.42,10.77.61s7.18.39,10.82.53l10.92.4,5.47.2,5.51.13c7.35.16,14.69.35,22.12.43l11.12.16,11.17.08c29.82.21,59.92.14,90.09.14s60.26,0,90.08-.2l11.17-.09,11.12-.15c7.43-.08,14.76-.28,22.12-.45l5.51-.14,5.46-.19,10.93-.4c3.63-.14,7.21-.37,10.82-.54s7.23-.34,10.76-.64l10.66-.75c3.56-.25,7-.64,10.55-.95l5.26-.5c1.75-.16,3.46-.41,5.19-.61l10.37-1.26c13.7-1.93,27.13-4.46,40.46-7.52l10-2.5,2.5-.63,2.49-.71,5-1.42,5-1.42c1.66-.48,3.32-1,5-1.55,3.32-1,6.65-2,10-3.21,6.63-2.19,13.27-4.61,19.92-7.07l10-3.8,10-4c26.74-10.88,53.67-23.19,80.72-35.81,13.52-6.3,27-12.77,40.6-19.21l40.74-19.46,81.53-39q40.74-19.5,81.34-39.17c108.24-52.5,215.92-106,321.91-162.59,53-28.3,105.54-57.42,157.17-88,12.92-7.55,25.53-15.37,37.95-23.48s24.49-16.59,36-25.67a225.76,225.76,0,0,0,31.72-29.65c9.27-10.85,17-23,20.22-36.69l.7-1.88h0a2.31,2.31,0,0,0-.15.32,4.73,4.73,0,0,0,0-.89V1507l.12-.53c.17-.75.27-1.18.29-1.38s0-.12,0-.08,0,.06,0,.1,0,.1,0,0A7.71,7.71,0,0,1,2771,1504.13Z"/></g></svg>