<svg xmlns="http://www.w3.org/2000/svg" viewBox="0 0 200 100"><defs><style>.cls-1{fill:#267855;}</style></defs><title>lineArtboard 1 copy</title><g id="Layer_3" data-name="Layer 3"><path class="cls-1" d="M108.85,14.59h0V86.21a8.5,8.5,0,0,1,2.28.35V14.41A21.66,21.66,0,0,1,108.85,14.59Z"/><path class="cls-1" d="M111.9,6.36h-.77c0-1.1-4.23-2.63-11.13-2.63a33.37,33.37,0,0,0-8,.87c-2.27.59-3.08,1.3-3.08,1.76H88.1c0-1.28,2-2.06,3.66-2.5A33.88,33.88,0,0,1,100,3a33.88,33.88,0,0,1,8.24.89C109.91,4.3,111.9,5.08,111.9,6.36Z"/><path class="cls-1" d="M91,14.55a7.93,7.93,0,0,1-1.46-.13l-.62-.1h0V87a9,9,0,0,1,1.66-.5l.62-.13V14.53Z"/><path class="cls-1" d="M124.24,92a2.86,2.86,0,0,1-.31,1.22,3.73,3.73,0,0,1-.63.89,6.23,6.23,0,0,1-1.48,1.11,10.61,10.61,0,0,1-1.53.72c-.51.2-1,.38-1.54.53a29.31,29.31,0,0,1-3.12.73c-1,.2-2.08.35-3.12.47-2.09.25-4.17.41-6.25.52s-4.17.18-6.25.2c-1.05,0-2.09,0-3.13,0l-1.57,0-1.56-.07c-2.09-.11-4.17-.28-6.25-.56a41.44,41.44,0,0,1-6.23-1.26c-.51-.16-1-.33-1.54-.53a13.08,13.08,0,0,1-1.53-.71,6.68,6.68,0,0,1-1.48-1.1,4,4,0,0,1-.64-.88A3,3,0,0,1,75.76,92,2.88,2.88,0,0,1,76,90.73a3.76,3.76,0,0,1,.6-1,6.84,6.84,0,0,1,1.44-1.24,12.57,12.57,0,0,1,1.5-.86c.51-.24,1-.47,1.53-.66a29.65,29.65,0,0,1,3.11-1c1-.29,2.08-.53,3.13-.74a62,62,0,0,1,6.32-.91c1.06-.09,2.12-.17,3.18-.23s2.11-.08,3.17-.09a58.84,58.84,0,0,1,12.68,1.19A40.14,40.14,0,0,1,118.9,87q.76.3,1.53.66l.75.4q.38.21.75.45a7.36,7.36,0,0,1,1.44,1.23,4,4,0,0,1,.61.94A3,3,0,0,1,124.24,92ZM122,92a.9.9,0,0,0-.09-.26,1.91,1.91,0,0,0-.28-.34,4.43,4.43,0,0,0-1-.71,11.18,11.18,0,0,0-1.26-.57c-.44-.17-.9-.32-1.37-.46-.94-.27-1.92-.48-2.9-.66s-2-.33-3-.44c-2-.24-4-.39-6-.5s-4-.17-6.09-.19c-1,0-2,0-3,0l-1.53,0L93.9,88c-2,.1-4.05.27-6.05.53A40.25,40.25,0,0,0,82,89.65c-.47.14-.93.29-1.37.46a11.18,11.18,0,0,0-1.26.57,4.56,4.56,0,0,0-1,.69,1.56,1.56,0,0,0-.28.34A.68.68,0,0,0,78,92a.65.65,0,0,0,0,.29,2,2,0,0,0,.24.41,5,5,0,0,0,1,.83,10.6,10.6,0,0,0,1.24.72c.44.21.89.41,1.36.6a30.29,30.29,0,0,0,2.88.94c1,.27,2,.51,3,.71a59.52,59.52,0,0,0,6.11.88c1,.09,2.06.18,3.1.23s2.06.08,3.1.09a61,61,0,0,0,6.19-.24,52.23,52.23,0,0,0,6.12-.93,36.94,36.94,0,0,0,5.86-1.71c.46-.19.91-.39,1.35-.61.22-.1.43-.22.64-.34s.4-.24.59-.37a4.36,4.36,0,0,0,.95-.82,1.46,1.46,0,0,0,.24-.4A.62.62,0,0,0,122,92Z"/><path class="cls-1" d="M124.26,9.33a3,3,0,0,1-.26,1.24,3.63,3.63,0,0,1-.61.94A6.56,6.56,0,0,1,122,12.75c-.25.17-.5.32-.75.46s-.5.28-.75.4c-.51.25-1,.47-1.53.67a39.12,39.12,0,0,1-6.23,1.82A57.67,57.67,0,0,1,100,17.3q-1.59,0-3.18-.09c-1.06-.06-2.12-.14-3.18-.23-2.12-.21-4.23-.5-6.32-.92-1-.2-2.1-.45-3.14-.73a32.08,32.08,0,0,1-3.1-1c-.52-.2-1-.42-1.54-.67a13.41,13.41,0,0,1-1.5-.86,6.56,6.56,0,0,1-1.44-1.24A4,4,0,0,1,76,10.6a2.84,2.84,0,0,1,0-2.48,3.41,3.41,0,0,1,.65-.89,6.1,6.1,0,0,1,1.48-1.1,11.72,11.72,0,0,1,1.53-.72c.52-.2,1-.37,1.55-.53a41,41,0,0,1,6.22-1.25c2.09-.28,4.17-.45,6.26-.56L95.3,3l1.57,0c1,0,2.08,0,3.12,0q3.14,0,6.25.19c2.09.11,4.17.27,6.26.51,1,.13,2.08.28,3.12.47a28.75,28.75,0,0,1,3.12.73c.52.15,1,.32,1.55.52a11.14,11.14,0,0,1,1.53.72,6.48,6.48,0,0,1,1.49,1.11,3.61,3.61,0,0,1,.63.89A2.87,2.87,0,0,1,124.26,9.33Zm-2.28,0a.61.61,0,0,0,0-.28,1.58,1.58,0,0,0-.24-.39,4.64,4.64,0,0,0-1-.82l-.6-.37-.63-.34c-.44-.21-.89-.41-1.36-.6a37.93,37.93,0,0,0-5.85-1.72,52.21,52.21,0,0,0-6.12-.92,61.09,61.09,0,0,0-6.2-.25c-1,0-2.06,0-3.1.1s-2.06.13-3.09.23a59.52,59.52,0,0,0-6.11.88c-1,.2-2,.44-3,.71s-2,.59-2.88,1c-.47.18-.92.38-1.36.6a10.45,10.45,0,0,0-1.23.72,4.09,4.09,0,0,0-.94.83,1.33,1.33,0,0,0-.24.39.58.58,0,0,0,0,.28.81.81,0,0,0,.1.25,1.91,1.91,0,0,0,.28.34,4.63,4.63,0,0,0,1,.68,11,11,0,0,0,1.25.57c.45.17.91.32,1.37.46a40,40,0,0,0,5.86,1.17c2,.26,4,.42,6,.52l1.52.07,1.52,0c1,0,2,0,3.05,0q3,0,6.08-.19c2-.11,4-.26,6-.49,1-.12,2-.26,3-.44a27.19,27.19,0,0,0,2.9-.67c.47-.13.92-.28,1.37-.45a9.68,9.68,0,0,0,1.26-.58,4.25,4.25,0,0,0,1-.7,1.81,1.81,0,0,0,.27-.34A.85.85,0,0,0,122,9.33Z"/><path class="cls-1" d="M111.56,32l6.93.54,3.46.28,3.46.29q6.93.6,13.82,1.33h.15c5.1.57,10.19,1.23,15.26,2l1.9.3,1.9.34.94.16,1,.18,1.89.36,1.89.39.94.19.94.21.94.21.94.22,1.87.45q3.73.93,7.41,2.07l1.84.58,1.82.62,1.81.64.91.34c.15.06.3.11.45.18l.45.18a31.88,31.88,0,0,1,3.51,1.64,19.27,19.27,0,0,1,1.68,1,10.74,10.74,0,0,1,1.54,1.26l.17.19.17.19c.05.07.1.12.16.19l0,.06,0,0,.08.12a2.54,2.54,0,0,1,.26.49.69.69,0,0,1,0,.13l0,.07,0,.08a1.47,1.47,0,0,1,0,.33V50a.19.19,0,0,1,0,.08.78.78,0,0,1,0,.16,2.45,2.45,0,0,1-.08.29,2.69,2.69,0,0,1-.25.51,4.76,4.76,0,0,1-.64.81l-.36.36-.38.33c-.26.21-.53.41-.8.6a19.11,19.11,0,0,1-1.67,1,33.12,33.12,0,0,1-3.51,1.67c-.29.12-.59.25-.89.36l-.9.35-1.8.68c-2.4.9-4.81,1.78-7.27,2.56s-4.95,1.45-7.46,2-5,1.09-7.58,1.53l-1.9.32-1.91.3-1,.13-.24,0-.23,0-.48.07-1.9.28-1.9.26-1.91.26-1.91.24-.95.13-1,.11q-7.65.92-15.33,1.51c-10.24.78-20.52,1.11-30.78,1l-1.93,0-1.93,0L89.52,68l-1.92-.06-1.93-.06c-1.28,0-2.56-.09-3.85-.16-5.13-.24-10.26-.58-15.37-1s-10.23-1.06-15.32-1.81l-1-.14-1-.15-1.9-.29c-1.27-.21-2.54-.42-3.81-.65-2.53-.44-5.06-.93-7.57-1.47a142.59,142.59,0,0,1-14.92-4l-.92-.31c-.3-.1-.61-.2-.91-.32l-.91-.33L17.83,57l-.45-.17-.9-.35L16,56.33l-.45-.19c-.6-.25-1.19-.51-1.78-.78a27.18,27.18,0,0,1-3.42-1.89c-.28-.18-.54-.38-.8-.58a9.45,9.45,0,0,1-.77-.65,6.23,6.23,0,0,1-.68-.76,3.17,3.17,0,0,1-.53-1l0-.06V50.4c0-.28,0-.55,0-.83h0v0l0-.06c0-.13.09-.25.14-.37a3.3,3.3,0,0,1,.18-.32,4.05,4.05,0,0,1,.43-.57,8.07,8.07,0,0,1,1-1,16.32,16.32,0,0,1,2.22-1.5,37.67,37.67,0,0,1,4.77-2.25q2.45-1,4.94-1.77l.63-.2.62-.2,1.25-.39L25,40.57l.63-.18.63-.17c3.37-.94,6.77-1.73,10.19-2.43s6.86-1.31,10.31-1.86c6.89-1.07,13.83-1.87,20.77-2.49s13.91-1,20.88-1.36l1.9-.07L90.2,36.5l-1.67,0c-6.91,0-13.83.13-20.73.44S54,37.71,47.13,38.48c-3.43.38-6.86.83-10.27,1.38s-6.8,1.19-10.16,2l-.63.15-.63.15-1.25.31-1.25.32-.63.17-.62.18c-1.66.46-3.31,1-4.93,1.53a37.15,37.15,0,0,0-4.73,2,15.09,15.09,0,0,0-2.15,1.32,6.5,6.5,0,0,0-.92.81,3.23,3.23,0,0,0-.38.45c-.05.08-.1.16-.14.24a1.28,1.28,0,0,0-.11.24l0-.11h0c0,.28,0,.55,0,.83l0-.11a2.25,2.25,0,0,0,.43.69,6.21,6.21,0,0,0,.62.64c.23.19.47.38.72.56s.51.35.78.51c.53.32,1.08.62,1.64.9s1.14.53,1.72.77,1.17.47,1.77.68l.44.16.45.16.9.3.45.15.46.14.91.28c.3.1.61.18.91.27l.91.26c2.45.68,4.92,1.26,7.41,1.77s5,1,7.51,1.35,5,.73,7.55,1c1.26.16,2.53.29,3.79.43l1.9.19.95.09,1,.09c5.06.46,10.14.79,15.22,1l1.91.1,1.91.09,1.9.07,1,0,1,0,1.91.07,1.9.06,1.91.05,1.91,0c5.09.13,10.18.19,15.27.21q15.27,0,30.54-.42,7.63-.24,15.27-.68l.95-.06,1-.06,1.9-.13,1.91-.14,1.91-.14,1.91-.16.47,0,.25,0,.24,0,.94-.08,1.9-.17,1.89-.2c2.53-.27,5-.61,7.54-1s5-1,7.43-1.64c.61-.16,1.23-.33,1.83-.51l.92-.27.91-.29q1.82-.57,3.63-1.2l1.81-.62.9-.32.88-.34.88-.35.87-.37c.58-.27,1.15-.54,1.7-.83l.82-.46.4-.25.39-.25a8.89,8.89,0,0,0,1.41-1.16,4.82,4.82,0,0,0,.55-.68,3.91,3.91,0,0,0,.18-.35,1.36,1.36,0,0,0,0-.17.25.25,0,0,0,0-.08.08.08,0,0,0,0,0v0c0-.08,0-.13,0-.15v0s0,0,0-.05a.36.36,0,0,0,0-.09,1.74,1.74,0,0,0-.19-.35l-.06-.08-.05-.08-.15-.18-.15-.17-.15-.17a10.1,10.1,0,0,0-1.42-1.16,18.57,18.57,0,0,0-1.61-1c-.13-.08-.27-.14-.41-.22l-.42-.21-.43-.21-.43-.2c-.57-.26-1.15-.51-1.74-.74l-.45-.17-.44-.17-.89-.33-1.81-.62L178.71,43l-.91-.28-.91-.27c-2.45-.72-4.91-1.35-7.4-1.91s-5-1-7.5-1.45l-1.89-.3-.94-.14-.95-.14-1.89-.26-1.9-.23c-5.06-.6-10.14-1-15.23-1.26h-.14q-6.9-.34-13.79-.42h-5.17l-1.73,0c-2.3,0-4.59.08-6.89.16l-1,0L110.2,32Z"/><path class="cls-1" d="M197.71,50.31s0,0,0,0v0s0,0,0,.08a.53.53,0,0,1,0,.13,1.64,1.64,0,0,1,0,.18v-.08a1.36,1.36,0,0,1,0,.18,1.12,1.12,0,0,1-.1.27h0l0-.15a6.37,6.37,0,0,1-.45,1.8,9.19,9.19,0,0,1-.86,1.61,15.77,15.77,0,0,1-1.1,1.45c-.38.45-.79.89-1.21,1.31-.85.84-1.73,1.62-2.64,2.36-.45.37-.91.74-1.38,1.09s-.93.72-1.4,1.06c-3.73,2.75-7.58,5.34-11.48,7.84s-7.86,4.89-11.86,7.22-8,4.59-12.09,6.79c-2,1.11-4.07,2.19-6.1,3.27s-4.08,2.16-6.13,3.22-4.09,2.12-6.17,3.17-4.2,2.07-6.4,3c-1.1.48-2.23.93-3.4,1.34-.29.11-.58.2-.88.3l-.44.15-.45.13-.44.14-.23.07-.22.06-.91.25c-1.23.3-2.46.54-3.69.73l-.93.13-.46.06-.45.05-.92.09-.91.08-.9.06-.9,0-.89,0-.44,0h-.44l-1.77,0-.88,0h-.87c-2.33,0-4.64,0-6.94,0s-4.61,0-6.94,0h-.87l-.88,0-1.76,0-.45,0-.44,0-.89,0-.9,0c-.3,0-.6,0-.9-.06l-.91-.08-.91-.09-.46,0-.46-.06-.92-.13a36,36,0,0,1-3.69-.74l-.91-.24-.23-.06-.22-.07L76.81,98l-.45-.13-.44-.15c-.29-.1-.59-.19-.88-.3-1.16-.41-2.29-.87-3.39-1.34s-2.19-1-3.25-1.48-2.11-1-3.15-1.55c-2.08-1-4.13-2.11-6.17-3.17-4.09-2.13-8.17-4.28-12.23-6.49S38.75,79,34.76,76.64s-8-4.72-11.86-7.22-7.75-5.08-11.49-7.83c-.47-.34-.93-.7-1.4-1.05s-.92-.72-1.37-1.1A34.51,34.51,0,0,1,6,57.08c-.42-.42-.83-.85-1.22-1.31a13,13,0,0,1-1.09-1.44,9.23,9.23,0,0,1-.87-1.61,7,7,0,0,1-.29-.88,5.71,5.71,0,0,1-.16-.92h0l0,.15a.78.78,0,0,1-.09-.27.65.65,0,0,1,0-.18v.08s0-.1,0-.18a.8.8,0,0,1,0-.3v.17a2.06,2.06,0,0,1,0-.7v.17a.57.57,0,0,1,0-.18.61.61,0,0,1,0-.14,1.16,1.16,0,0,1,0-.16v.06a.76.76,0,0,1,0-.19A.71.71,0,0,1,2.4,49h0l0,.11a5.71,5.71,0,0,1,.16-.92,7,7,0,0,1,.29-.88,9.23,9.23,0,0,1,.87-1.61,14.08,14.08,0,0,1,1.09-1.45c.39-.45.79-.89,1.21-1.31.85-.84,1.73-1.62,2.64-2.37.45-.37.91-.73,1.38-1.09s.93-.71,1.4-1C15.14,35.7,19,33.1,22.88,30.6s7.85-4.9,11.85-7.23l3-1.74,1.51-.85,1.51-.86,1.51-.84,1.52-.84,3-1.67q3-1.65,6.1-3.27t6.13-3.21C61.09,9,63.14,8,65.22,6.92c1-.53,2.09-1,3.15-1.55s2.14-1,3.24-1.48S73.85,3,75,2.54l.88-.3.45-.15L76.78,2l.45-.14.23-.07.23-.06.91-.25c1.22-.3,2.46-.55,3.7-.74.61-.08,1.23-.17,1.84-.23l.91-.1L86,.3l.9-.06.9-.06.9,0,.44,0h.44l1.77,0,.88,0h.87C95.39,0,97.7,0,100,0s4.61,0,6.94,0h.87l.88,0,1.76.05h.45l.44,0,.89,0,.9.06L114,.3l.9.07.92.1c.61.05,1.23.15,1.84.23,1.24.19,2.47.44,3.7.74l.91.25.23.06.22.07.45.13.45.14.45.15c.29.1.59.19.88.3,1.16.41,2.29.87,3.39,1.35s2.19,1,3.25,1.48,2.11,1,3.15,1.55c2.08,1,4.13,2.1,6.17,3.17s4.09,2.13,6.13,3.21,4.07,2.17,6.1,3.27c1,.55,2,1.1,3,1.67l1.52.84,1.51.84,1.51.85,1.51.86,3,1.74q6,3.49,11.85,7.23c3.9,2.5,7.74,5.1,11.47,7.86.47.34.94.69,1.4,1s.92.72,1.38,1.09c.91.75,1.79,1.53,2.63,2.37.42.42.83.85,1.22,1.31a15.12,15.12,0,0,1,1.09,1.44,9.7,9.7,0,0,1,.87,1.62,7,7,0,0,1,.29.88,5.79,5.79,0,0,1,.16.91h0l0-.11a.63.63,0,0,1,.07.22.76.76,0,0,1,0,.19v-.06a1.16,1.16,0,0,1,0,.16.61.61,0,0,1,0,.14.57.57,0,0,1,0,.18v-.17a2.07,2.07,0,0,1,0,.35,1.09,1.09,0,0,1,0,.18.25.25,0,0,1,0,.08v0Zm-.77,0s0-.08,0-.11v-.09s0-.08,0-.12a1.64,1.64,0,0,0,0-.23v-.17s0-.07,0-.14v-.12h0v0l0-.08h0a6.85,6.85,0,0,0-1.56-2.79,17.29,17.29,0,0,0-2.42-2.25c-.88-.69-1.8-1.34-2.75-2s-1.91-1.21-2.9-1.79c-3.94-2.33-7.94-4.55-12-6.7-8.08-4.31-16.3-8.38-24.56-12.37q-6.19-3-12.43-5.95l-6.2-2.94L129,11.1c-1-.46-2-.9-3.07-1.32s-2-.79-3-1.13c-.25-.09-.5-.16-.76-.24l-.37-.12-.38-.11L121,8.07,120.79,8l-.19,0-.76-.19c-1-.23-2-.42-3.07-.57L116,7.12c-.26,0-.53-.06-.8-.08l-.8-.08-.81-.06-.82,0-.83,0-.83,0-.42,0h-.42l-1.68,0H91.43c-.57,0-1.12,0-1.69,0h-.42l-.41,0-.83,0-.83,0-.82,0L85.62,7l-.8.08-.4,0-.4,0-.79.09c-1,.15-2.06.34-3.08.57L79.4,8l-.19,0L79,8.07l-.38.11-.38.11-.38.12-.75.24c-1,.34-2,.72-3,1.13S72,10.64,71,11.1,69,12,67.93,12.51l-6.21,2.94c-4.15,2-8.29,4-12.42,5.95-8.26,4-16.48,8.06-24.57,12.37-4,2.15-8,4.37-12,6.7-1,.58-2,1.17-2.89,1.79S8,43.52,7.1,44.21a18,18,0,0,0-2.43,2.25,6.87,6.87,0,0,0-1.55,2.8l0,.07v0h0v.12c0,.07,0,.12,0,.14v.17a1.77,1.77,0,0,0,0,.46v.17s0,0,0,0a.31.31,0,0,0,0,.11v.12l.05.15h0a6.84,6.84,0,0,0,1.54,2.8,17.36,17.36,0,0,0,2.42,2.26c.88.69,1.8,1.34,2.74,2s1.91,1.22,2.9,1.79c3.93,2.34,7.94,4.56,12,6.72,8.09,4.32,16.3,8.4,24.56,12.41q6.2,3,12.42,6,3.1,1.5,6.2,3c2.07,1,4.12,1.9,6.16,2.73,1,.42,2,.79,3,1.13l.76.25.38.11.38.11.38.11.19.06.19,0,.76.2c1,.23,2,.42,3.09.57l.79.09.4,0,.4,0,.8.07.82.06.82,0,.82,0,.83,0,.42,0h.42c.56,0,1.12,0,1.69,0h1.7c2.27,0,4.57,0,6.87,0h8.57l1.69,0h.84l.83,0,.82,0,.83,0,.81-.06.8-.07.4,0,.4,0,.79-.09c1-.15,2.07-.34,3.09-.58l.76-.19.19,0,.19,0,.38-.11.38-.11.38-.11.76-.25,1.52-.54.76-.29.76-.3c2-.83,4.1-1.77,6.16-2.73l3.1-1.47,3.1-1.48,6.22-3,6.21-3c8.25-4,16.46-8.09,24.55-12.4,4-2.16,8.05-4.38,12-6.72,1-.57,1.94-1.17,2.89-1.79s1.87-1.26,2.75-2a18,18,0,0,0,2.42-2.27,6.86,6.86,0,0,0,1.54-2.79l.05-.15h0v-.12c0-.06,0-.09,0-.11h0S197,50.38,196.94,50.36Z"/></g></svg>