<svg xmlns="http://www.w3.org/2000/svg" xmlns:xlink="http://www.w3.org/1999/xlink" viewBox="0 0 2914.04 2785.11"><defs><style>.cls-1{fill:#133c2a;}.cls-2{fill:url(#linear-gradient);}.cls-3{fill:url(#linear-gradient-2);}.cls-4{fill:url(#linear-gradient-3);}.cls-5{fill:url(#linear-gradient-4);}.cls-6{fill:url(#linear-gradient-5);}.cls-7{fill:url(#linear-gradient-6);}.cls-8{fill:url(#linear-gradient-7);}.cls-9{fill:url(#linear-gradient-8);}.cls-10{fill:url(#linear-gradient-9);}.cls-11{fill:url(#linear-gradient-10);}.cls-12{fill:url(#linear-gradient-11);}.cls-13{fill:url(#linear-gradient-12);}.cls-14{fill:url(#linear-gradient-13);}.cls-15{fill:url(#linear-gradient-14);}.cls-16{fill:url(#linear-gradient-15);}.cls-17{fill:url(#linear-gradient-16);}.cls-18{fill:url(#linear-gradient-17);}.cls-19{fill:url(#linear-gradient-18);}.cls-20{fill:url(#linear-gradient-19);}.cls-21{fill:url(#linear-gradient-20);}.cls-22{fill:url(#linear-gradient-21);}.cls-23{fill:url(#linear-gradient-22);}.cls-24{fill:url(#linear-gradient-23);}.cls-25{fill:url(#linear-gradient-24);}.cls-26{fill:url(#linear-gradient-25);}.cls-27{fill:url(#linear-gradient-26);}.cls-28{fill:url(#linear-gradient-27);}.cls-29{fill:url(#linear-gradient-28);}.cls-30{fill:url(#linear-gradient-29);}.cls-31{fill:url(#linear-gradient-30);}.cls-32{fill:url(#linear-gradient-31);}.cls-33{fill:url(#linear-gradient-32);}.cls-34{fill:url(#linear-gradient-33);}.cls-35{fill:url(#linear-gradient-34);}.cls-36{fill:url(#linear-gradient-35);}.cls-37{fill:url(#linear-gradient-36);}.cls-38{fill:url(#linear-gradient-37);}.cls-39{fill:url(#linear-gradient-38);}.cls-40{fill:url(#linear-gradient-39);}.cls-41{fill:url(#linear-gradient-40);}.cls-42{fill:url(#linear-gradient-41);}.cls-43{fill:url(#linear-gradient-42);}.cls-44{fill:url(#linear-gradient-43);}.cls-45{fill:url(#linear-gradient-44);}.cls-46{fill:url(#linear-gradient-45);}.cls-47{fill:url(#linear-gradient-46);}.cls-48{fill:url(#linear-gradient-47);}.cls-49{fill:url(#linear-gradient-48);}.cls-50{fill:url(#linear-gradient-49);}.cls-51{fill:url(#linear-gradient-50);}.cls-52{fill:url(#linear-gradient-51);}.cls-53{fill:url(#linear-gradient-52);}.cls-54{fill:url(#linear-gradient-53);}.cls-55{fill:url(#linear-gradient-54);}.cls-56{fill:url(#linear-gradient-55);}.cls-57{fill:url(#linear-gradient-56);}.cls-58{fill:url(#linear-gradient-57);}.cls-59{fill:url(#linear-gradient-58);}.cls-60{fill:url(#linear-gradient-59);}.cls-61{fill:url(#linear-gradient-60);}.cls-62{fill:url(#linear-gradient-61);}</style><linearGradient id="linear-gradient" x1="931.28" y1="1151.83" x2="1006.9" y2="1151.83" gradientUnits="userSpaceOnUse"><stop offset="0" stop-color="#353535"/><stop offset="0.37" stop-color="#666"/><stop offset="0.39" stop-color="#6f6f6f"/><stop offset="0.48" stop-color="#868686"/><stop offset="0.55" stop-color="#949494"/><stop offset="0.62" stop-color="#999"/><stop offset="0.71" stop-color="#878787"/><stop offset="0.83" stop-color="#666"/><stop offset="0.92" stop-color="#555"/><stop offset="1" stop-color="#4c4c4c"/></linearGradient><linearGradient id="linear-gradient-2" x1="1419.03" y1="1151.83" x2="1494.65" y2="1151.83" xlink:href="#linear-gradient"/><linearGradient id="linear-gradient-3" x1="1901.11" y1="1151.83" x2="1976.74" y2="1151.83" xlink:href="#linear-gradient"/><linearGradient id="linear-gradient-4" x1="2394.54" y1="1151.83" x2="2470.16" y2="1151.83" xlink:href="#linear-gradient"/><linearGradient id="linear-gradient-5" x1="430.29" y1="1151.83" x2="505.91" y2="1151.83" xlink:href="#linear-gradient"/><linearGradient id="linear-gradient-6" x1="430.29" y1="401.29" x2="505.91" y2="401.29" xlink:href="#linear-gradient"/><linearGradient id="linear-gradient-7" x1="931.28" y1="401.29" x2="1006.9" y2="401.29" xlink:href="#linear-gradient"/><linearGradient id="linear-gradient-8" x1="1419.03" y1="401.29" x2="1494.65" y2="401.29" xlink:href="#linear-gradient"/><linearGradient id="linear-gradient-9" x1="1901.11" y1="401.29" x2="1976.74" y2="401.29" xlink:href="#linear-gradient"/><linearGradient id="linear-gradient-10" x1="2394.54" y1="401.29" x2="2470.16" y2="401.29" xlink:href="#linear-gradient"/><linearGradient id="linear-gradient-11" x1="1578.06" y1="430.95" x2="1334.37" y2="639.26" gradientUnits="userSpaceOnUse"><stop offset="0" stop-color="#c4191b"/><stop offset="0.22" stop-color="#e64539"/><stop offset="0.47" stop-color="#c4191b"/><stop offset="0.81" stop-color="#690f15"/></linearGradient><linearGradient id="linear-gradient-12" x1="1235.53" y1="506.8" x2="1681.5" y2="506.8" gradientUnits="userSpaceOnUse"><stop offset="0" stop-color="#690f15"/><stop offset="0.09" stop-color="#721016"/><stop offset="0.24" stop-color="#8a1418"/><stop offset="0.42" stop-color="#b1191c"/><stop offset="0.6" stop-color="#df2021"/><stop offset="0.63" stop-color="#e2312c"/><stop offset="0.66" stop-color="#e43c33"/><stop offset="0.7" stop-color="#e64338"/><stop offset="0.83" stop-color="#e64539"/><stop offset="1" stop-color="#df2021"/></linearGradient><linearGradient id="linear-gradient-13" x1="2554.34" y1="430.95" x2="2310.64" y2="639.26" xlink:href="#linear-gradient-11"/><linearGradient id="linear-gradient-14" x1="2211.8" y1="506.8" x2="2657.78" y2="506.8" xlink:href="#linear-gradient-12"/><linearGradient id="linear-gradient-15" x1="2554.34" y1="758.01" x2="2310.64" y2="966.32" xlink:href="#linear-gradient-11"/><linearGradient id="linear-gradient-16" x1="2211.8" y1="833.8" x2="2657.78" y2="833.8" xlink:href="#linear-gradient-12"/><linearGradient id="linear-gradient-17" x1="2554.34" y1="1041.47" x2="2310.64" y2="1249.79" xlink:href="#linear-gradient-11"/><linearGradient id="linear-gradient-18" x1="2211.8" y1="1116.08" x2="2657.78" y2="1116.08" xlink:href="#linear-gradient-12"/><linearGradient id="linear-gradient-19" x1="2554.34" y1="1325.05" x2="2310.64" y2="1533.37" xlink:href="#linear-gradient-11"/><linearGradient id="linear-gradient-20" x1="2211.8" y1="1400.35" x2="2657.78" y2="1400.35" xlink:href="#linear-gradient-12"/><linearGradient id="linear-gradient-21" x1="2554.34" y1="1608.63" x2="2310.64" y2="1816.95" xlink:href="#linear-gradient-11"/><linearGradient id="linear-gradient-22" x1="2211.8" y1="1684.64" x2="2657.78" y2="1684.64" xlink:href="#linear-gradient-12"/><linearGradient id="linear-gradient-23" x1="2060.15" y1="758.01" x2="1816.45" y2="966.32" xlink:href="#linear-gradient-11"/><linearGradient id="linear-gradient-24" x1="1717.61" y1="833.8" x2="2163.59" y2="833.8" xlink:href="#linear-gradient-12"/><linearGradient id="linear-gradient-25" x1="2060.15" y1="1041.48" x2="1816.45" y2="1249.79" xlink:href="#linear-gradient-11"/><linearGradient id="linear-gradient-26" x1="1717.61" y1="1116.08" x2="2163.59" y2="1116.08" xlink:href="#linear-gradient-12"/><linearGradient id="linear-gradient-27" x1="2060.15" y1="1325.05" x2="1816.45" y2="1533.37" xlink:href="#linear-gradient-11"/><linearGradient id="linear-gradient-28" x1="1717.61" y1="1400.35" x2="2163.59" y2="1400.35" xlink:href="#linear-gradient-12"/><linearGradient id="linear-gradient-29" x1="2060.15" y1="1909.33" x2="1816.45" y2="2117.65" xlink:href="#linear-gradient-11"/><linearGradient id="linear-gradient-30" x1="1717.61" y1="1985.37" x2="2163.59" y2="1985.37" xlink:href="#linear-gradient-12"/><linearGradient id="linear-gradient-31" x1="1090.31" y1="1909.33" x2="846.61" y2="2117.65" xlink:href="#linear-gradient-11"/><linearGradient id="linear-gradient-32" x1="747.77" y1="1985.37" x2="1193.75" y2="1985.37" xlink:href="#linear-gradient-12"/><linearGradient id="linear-gradient-33" x1="1090.31" y1="1625.76" x2="846.61" y2="1834.08" xlink:href="#linear-gradient-11"/><linearGradient id="linear-gradient-34" x1="747.77" y1="1701.09" x2="1193.75" y2="1701.09" xlink:href="#linear-gradient-12"/><linearGradient id="linear-gradient-35" x1="1090.31" y1="430.95" x2="846.61" y2="639.26" xlink:href="#linear-gradient-11"/><linearGradient id="linear-gradient-36" x1="747.77" y1="506.8" x2="1193.75" y2="506.8" xlink:href="#linear-gradient-12"/><linearGradient id="linear-gradient-37" x1="2060.15" y1="164.38" x2="1816.45" y2="372.7" xlink:href="#linear-gradient-11"/><linearGradient id="linear-gradient-38" x1="1717.61" y1="240.16" x2="2163.59" y2="240.16" xlink:href="#linear-gradient-12"/><linearGradient id="linear-gradient-39" x1="589.32" y1="164.38" x2="345.63" y2="372.7" xlink:href="#linear-gradient-11"/><linearGradient id="linear-gradient-40" x1="246.78" y1="240.16" x2="692.76" y2="240.16" xlink:href="#linear-gradient-12"/><linearGradient id="linear-gradient-41" x1="589.32" y1="758.01" x2="345.63" y2="966.32" xlink:href="#linear-gradient-11"/><linearGradient id="linear-gradient-42" x1="246.78" y1="833.8" x2="692.76" y2="833.8" xlink:href="#linear-gradient-12"/><linearGradient id="linear-gradient-43" x1="589.32" y1="1909.33" x2="345.63" y2="2117.65" xlink:href="#linear-gradient-11"/><linearGradient id="linear-gradient-44" x1="246.78" y1="1985.37" x2="692.76" y2="1985.37" xlink:href="#linear-gradient-12"/><linearGradient id="linear-gradient-45" x1="589.32" y1="1625.76" x2="345.63" y2="1834.08" xlink:href="#linear-gradient-11"/><linearGradient id="linear-gradient-46" x1="246.78" y1="1701.09" x2="692.76" y2="1701.09" xlink:href="#linear-gradient-12"/><linearGradient id="linear-gradient-47" x1="589.32" y1="1342.18" x2="345.63" y2="1550.5" xlink:href="#linear-gradient-11"/><linearGradient id="linear-gradient-48" x1="246.78" y1="1416.81" x2="692.76" y2="1416.81" xlink:href="#linear-gradient-12"/><linearGradient id="linear-gradient-49" x1="1090.31" y1="758.01" x2="846.61" y2="966.32" xlink:href="#linear-gradient-11"/><linearGradient id="linear-gradient-50" x1="747.77" y1="833.8" x2="1193.75" y2="833.8" xlink:href="#linear-gradient-12"/><linearGradient id="linear-gradient-51" x1="1090.31" y1="1041.47" x2="846.61" y2="1249.79" xlink:href="#linear-gradient-11"/><linearGradient id="linear-gradient-52" x1="747.77" y1="1116.08" x2="1193.75" y2="1116.08" xlink:href="#linear-gradient-12"/><linearGradient id="linear-gradient-53" x1="1578.06" y1="1909.33" x2="1334.37" y2="2117.65" xlink:href="#linear-gradient-11"/><linearGradient id="linear-gradient-54" x1="1235.53" y1="1985.37" x2="1681.5" y2="1985.37" xlink:href="#linear-gradient-12"/><linearGradient id="linear-gradient-55" x1="1578.06" y1="1625.76" x2="1334.37" y2="1834.07" xlink:href="#linear-gradient-11"/><linearGradient id="linear-gradient-56" x1="1235.53" y1="1701.09" x2="1681.5" y2="1701.09" xlink:href="#linear-gradient-12"/><linearGradient id="linear-gradient-57" x1="1578.06" y1="1342.18" x2="1334.37" y2="1550.5" xlink:href="#linear-gradient-11"/><linearGradient id="linear-gradient-58" x1="1235.53" y1="1416.81" x2="1681.5" y2="1416.81" xlink:href="#linear-gradient-12"/><linearGradient id="linear-gradient-59" x1="1578.06" y1="1058.26" x2="1334.37" y2="1266.58" xlink:href="#linear-gradient-11"/><linearGradient id="linear-gradient-60" x1="1235.53" y1="1134.08" x2="1681.5" y2="1134.08" xlink:href="#linear-gradient-12"/><linearGradient id="linear-gradient-61" x1="29.51" y1="2252.2" x2="2884.53" y2="29.63" gradientUnits="userSpaceOnUse"><stop offset="0" stop-color="#024712"/><stop offset="0.44" stop-color="#025e1a"/><stop offset="1" stop-color="#028125"/></linearGradient></defs><title>expandread_abacus_expanded</title><g id="_5and8" data-name="5and8"><path class="cls-1" d="M274.31,2373.2a69.29,69.29,0,0,0,8.74-.54,35.21,35.21,0,0,0,7.67-1.81,20.27,20.27,0,0,0,5.87-3.25,9.17,9.17,0,0,0,3.18-4.88h11.61V2426h-15.6v-44.63H274.31Z"/><path class="cls-1" d="M371.79,2361.46q9.36,0,15.29,3.11a25.12,25.12,0,0,1,9.24,7.95,28.92,28.92,0,0,1,4.49,10.62,53.3,53.3,0,0,1,0,22.4,28.92,28.92,0,0,1-4.49,10.62,25.12,25.12,0,0,1-9.24,8q-5.93,3.12-15.29,3.11t-15.29-3.11a25.12,25.12,0,0,1-9.24-8,28.92,28.92,0,0,1-4.49-10.62,53.74,53.74,0,0,1,0-22.4,28.92,28.92,0,0,1,4.49-10.62,25.12,25.12,0,0,1,9.24-7.95Q362.42,2361.45,371.79,2361.46Zm0,57.18a14.34,14.34,0,0,0,7.74-1.94,14,14,0,0,0,4.93-5.24,24.35,24.35,0,0,0,2.56-7.72,56.3,56.3,0,0,0,.75-9.4A55.44,55.44,0,0,0,387,2385a24.94,24.94,0,0,0-2.56-7.73,14,14,0,0,0-4.93-5.28,16.53,16.53,0,0,0-15.54,0,14.17,14.17,0,0,0-4.87,5.28,25.2,25.2,0,0,0-2.56,7.73,55.47,55.47,0,0,0-.74,9.35,56.33,56.33,0,0,0,.74,9.4,24.61,24.61,0,0,0,2.56,7.72,14.13,14.13,0,0,0,4.87,5.24A14.27,14.27,0,0,0,371.79,2418.64Z"/><path class="cls-1" d="M415.1,2413.76h17.35V2426a12.08,12.08,0,0,1-4.74,9.4,24.06,24.06,0,0,1-12.11,4.87v-5.51a9.71,9.71,0,0,0,6.18-3.29,8,8,0,0,0,1.94-5.47H415.1Z"/><path class="cls-1" d="M475.89,2361.46q9.36,0,15.29,3.11a25.12,25.12,0,0,1,9.24,7.95,28.92,28.92,0,0,1,4.49,10.62,53.3,53.3,0,0,1,0,22.4,28.92,28.92,0,0,1-4.49,10.62,25.12,25.12,0,0,1-9.24,8q-5.93,3.12-15.29,3.11t-15.29-3.11a25.12,25.12,0,0,1-9.24-8,28.92,28.92,0,0,1-4.49-10.62,53.74,53.74,0,0,1,0-22.4,28.92,28.92,0,0,1,4.49-10.62,25.12,25.12,0,0,1,9.24-7.95Q466.53,2361.45,475.89,2361.46Zm0,57.18a14.34,14.34,0,0,0,7.74-1.94,14,14,0,0,0,4.93-5.24,24.35,24.35,0,0,0,2.56-7.72,56.3,56.3,0,0,0,.75-9.4,55.44,55.44,0,0,0-.75-9.35,24.94,24.94,0,0,0-2.56-7.73,14,14,0,0,0-4.93-5.28,16.53,16.53,0,0,0-15.54,0,14.17,14.17,0,0,0-4.87,5.28,24.94,24.94,0,0,0-2.56,7.73,55.44,55.44,0,0,0-.75,9.35,56.3,56.3,0,0,0,.75,9.4,24.35,24.35,0,0,0,2.56,7.72,14.13,14.13,0,0,0,4.87,5.24A14.27,14.27,0,0,0,475.89,2418.64Z"/><path class="cls-1" d="M545.29,2361.46q9.36,0,15.29,3.11a25.12,25.12,0,0,1,9.24,7.95,28.92,28.92,0,0,1,4.49,10.62,53.3,53.3,0,0,1,0,22.4,28.92,28.92,0,0,1-4.49,10.62,25.12,25.12,0,0,1-9.24,8q-5.93,3.12-15.29,3.11T530,2424.11a25.12,25.12,0,0,1-9.24-8,28.92,28.92,0,0,1-4.49-10.62,53.74,53.74,0,0,1,0-22.4,28.92,28.92,0,0,1,4.49-10.62,25.12,25.12,0,0,1,9.24-7.95Q535.93,2361.45,545.29,2361.46Zm0,57.18a14.34,14.34,0,0,0,7.74-1.94,14,14,0,0,0,4.93-5.24,24.35,24.35,0,0,0,2.56-7.72,56.3,56.3,0,0,0,.75-9.4,55.44,55.44,0,0,0-.75-9.35,24.94,24.94,0,0,0-2.56-7.73A14,14,0,0,0,553,2372a16.53,16.53,0,0,0-15.54,0,14.17,14.17,0,0,0-4.87,5.28,24.94,24.94,0,0,0-2.56,7.73,55.44,55.44,0,0,0-.75,9.35,56.3,56.3,0,0,0,.75,9.4,24.35,24.35,0,0,0,2.56,7.72,14.13,14.13,0,0,0,4.87,5.24A14.27,14.27,0,0,0,545.29,2418.64Z"/><path class="cls-1" d="M614.69,2361.46q9.36,0,15.29,3.11a25.12,25.12,0,0,1,9.24,7.95,28.92,28.92,0,0,1,4.49,10.62,53.3,53.3,0,0,1,0,22.4,28.92,28.92,0,0,1-4.49,10.62,25.12,25.12,0,0,1-9.24,8q-5.93,3.12-15.29,3.11t-15.29-3.11a25.12,25.12,0,0,1-9.24-8,28.92,28.92,0,0,1-4.49-10.62,53.74,53.74,0,0,1,0-22.4,28.92,28.92,0,0,1,4.49-10.62,25.12,25.12,0,0,1,9.24-7.95Q605.33,2361.45,614.69,2361.46Zm0,57.18a14.34,14.34,0,0,0,7.74-1.94,14,14,0,0,0,4.93-5.24,24.35,24.35,0,0,0,2.56-7.72,56.3,56.3,0,0,0,.75-9.4,55.44,55.44,0,0,0-.75-9.35,24.94,24.94,0,0,0-2.56-7.73,14,14,0,0,0-4.93-5.28,16.53,16.53,0,0,0-15.54,0,14.17,14.17,0,0,0-4.87,5.28,24.94,24.94,0,0,0-2.56,7.73,55.44,55.44,0,0,0-.75,9.35,56.3,56.3,0,0,0,.75,9.4,24.35,24.35,0,0,0,2.56,7.72,14.13,14.13,0,0,0,4.87,5.24A14.27,14.27,0,0,0,614.69,2418.64Z"/><path class="cls-1" d="M659,2381.69c3-.3,5-1.22,6.06-2.75a9.22,9.22,0,0,0,1.56-5.29H659v-12.19h15.6v12.19a11.4,11.4,0,0,1-4.18,8.9q-4.18,3.66-11.42,4.38Z"/><path class="cls-1" d="M693.08,2411a7.62,7.62,0,0,0,4.74,6.33,24.53,24.53,0,0,0,9.86,1.8c1.33,0,2.85-.07,4.56-.22a26.22,26.22,0,0,0,4.8-.86,9.7,9.7,0,0,0,3.69-1.85A3.71,3.71,0,0,0,722,2413a4.14,4.14,0,0,0-2-3.25,15.72,15.72,0,0,0-4.8-2,59.51,59.51,0,0,0-6.68-1.31q-3.75-.56-7.62-1.18t-7.67-1.53a29.83,29.83,0,0,1-6.62-2.44,13.54,13.54,0,0,1-4.68-3.93,9.75,9.75,0,0,1-1.75-5.92,8.71,8.71,0,0,1,2.56-6.37,19.09,19.09,0,0,1,6.49-4.16,36.08,36.08,0,0,1,8.74-2.21,70.58,70.58,0,0,1,9.17-.63,56.57,56.57,0,0,1,9.55.77,32,32,0,0,1,8.24,2.48,18.58,18.58,0,0,1,6.12,4.47,13,13,0,0,1,3.06,6.64H719.29a6.91,6.91,0,0,0-4.68-5,25.93,25.93,0,0,0-8.42-1.26c-1,0-2.19.06-3.56.18a21.81,21.81,0,0,0-3.87.68,8.86,8.86,0,0,0-3.06,1.44,3,3,0,0,0-1.25,2.49,3.53,3.53,0,0,0,1.81,3.07,16.43,16.43,0,0,0,4.75,1.94,61.16,61.16,0,0,0,6.67,1.31q3.75.54,7.74,1.18t7.62,1.53a29.06,29.06,0,0,1,6.67,2.44,14.32,14.32,0,0,1,4.75,3.88,9.26,9.26,0,0,1,1.81,5.79,10.12,10.12,0,0,1-2.62,7,19.35,19.35,0,0,1-6.81,4.7,38.26,38.26,0,0,1-9.3,2.62,64.56,64.56,0,0,1-10.11.81,60.21,60.21,0,0,1-11.29-1,31.44,31.44,0,0,1-9-3,17.15,17.15,0,0,1-6-5,12.6,12.6,0,0,1-2.31-7.19Z"/><path class="cls-1" d="M818,2373.2a69.18,69.18,0,0,0,8.74-.54,34.94,34.94,0,0,0,7.67-1.81,20.27,20.27,0,0,0,5.87-3.25,9.17,9.17,0,0,0,3.18-4.88h11.61V2426h-15.6v-44.63H818Z"/><path class="cls-1" d="M915.49,2361.46q9.38,0,15.3,3.11a25,25,0,0,1,9.23,7.95,28.94,28.94,0,0,1,4.5,10.62,53.74,53.74,0,0,1,0,22.4,28.94,28.94,0,0,1-4.5,10.62,25,25,0,0,1-9.23,8q-5.94,3.12-15.3,3.11t-15.29-3.11a25,25,0,0,1-9.23-8,28.77,28.77,0,0,1-4.5-10.62,53.74,53.74,0,0,1,0-22.4,28.77,28.77,0,0,1,4.5-10.62,25,25,0,0,1,9.23-7.95Q906.14,2361.45,915.49,2361.46Zm0,57.18a14.34,14.34,0,0,0,7.74-1.94,13.88,13.88,0,0,0,4.93-5.24,24.35,24.35,0,0,0,2.56-7.72,56.3,56.3,0,0,0,.75-9.4,55.44,55.44,0,0,0-.75-9.35,24.94,24.94,0,0,0-2.56-7.73,13.92,13.92,0,0,0-4.93-5.28,16.53,16.53,0,0,0-15.54,0,14.06,14.06,0,0,0-4.86,5.28,24.94,24.94,0,0,0-2.56,7.73,55.44,55.44,0,0,0-.75,9.35,56.3,56.3,0,0,0,.75,9.4,24.35,24.35,0,0,0,2.56,7.72,14,14,0,0,0,4.86,5.24A14.27,14.27,0,0,0,915.49,2418.64Z"/><path class="cls-1" d="M984.9,2361.46q9.36,0,15.29,3.11a25,25,0,0,1,9.23,7.95,28.94,28.94,0,0,1,4.5,10.62,53.74,53.74,0,0,1,0,22.4,28.94,28.94,0,0,1-4.5,10.62,25,25,0,0,1-9.23,8q-5.94,3.12-15.29,3.11t-15.3-3.11a25,25,0,0,1-9.23-8,28.77,28.77,0,0,1-4.5-10.62,53.74,53.74,0,0,1,0-22.4,28.77,28.77,0,0,1,4.5-10.62,25,25,0,0,1,9.23-7.95Q975.54,2361.45,984.9,2361.46Zm0,57.18a14.33,14.33,0,0,0,7.73-1.94,13.88,13.88,0,0,0,4.93-5.24,24.35,24.35,0,0,0,2.56-7.72,56.3,56.3,0,0,0,.75-9.4,55.44,55.44,0,0,0-.75-9.35,24.94,24.94,0,0,0-2.56-7.73,13.92,13.92,0,0,0-4.93-5.28,16.53,16.53,0,0,0-15.54,0,14.06,14.06,0,0,0-4.86,5.28,24.94,24.94,0,0,0-2.56,7.73,55.44,55.44,0,0,0-.75,9.35,56.3,56.3,0,0,0,.75,9.4,24.35,24.35,0,0,0,2.56,7.72,14,14,0,0,0,4.86,5.24A14.29,14.29,0,0,0,984.9,2418.64Z"/><path class="cls-1" d="M1054.29,2361.46q9.38,0,15.29,3.11a25,25,0,0,1,9.24,7.95,28.94,28.94,0,0,1,4.5,10.62,53.74,53.74,0,0,1,0,22.4,28.94,28.94,0,0,1-4.5,10.62,25,25,0,0,1-9.24,8q-5.92,3.12-15.29,3.11t-15.29-3.11a25,25,0,0,1-9.23-8,28.77,28.77,0,0,1-4.5-10.62,53.74,53.74,0,0,1,0-22.4,28.77,28.77,0,0,1,4.5-10.62,25,25,0,0,1,9.23-7.95Q1044.93,2361.45,1054.29,2361.46Zm0,57.18a14.34,14.34,0,0,0,7.74-1.94,13.88,13.88,0,0,0,4.93-5.24,24.35,24.35,0,0,0,2.56-7.72,56.3,56.3,0,0,0,.75-9.4,55.44,55.44,0,0,0-.75-9.35,24.94,24.94,0,0,0-2.56-7.73A13.92,13.92,0,0,0,1062,2372a16.53,16.53,0,0,0-15.54,0,14.17,14.17,0,0,0-4.87,5.28,25.2,25.2,0,0,0-2.55,7.73,55.44,55.44,0,0,0-.75,9.35,56.3,56.3,0,0,0,.75,9.4,24.6,24.6,0,0,0,2.55,7.72,14.13,14.13,0,0,0,4.87,5.24A14.27,14.27,0,0,0,1054.29,2418.64Z"/><path class="cls-1" d="M1098.61,2381.69q4.48-.45,6.05-2.75a9.22,9.22,0,0,0,1.56-5.29h-7.61v-12.19h15.6v12.19a11.43,11.43,0,0,1-4.18,8.9q-4.18,3.66-11.42,4.38Z"/><path class="cls-1" d="M1132.68,2411a7.63,7.63,0,0,0,4.75,6.33,24.49,24.49,0,0,0,9.86,1.8c1.33,0,2.85-.07,4.55-.22a26.33,26.33,0,0,0,4.81-.86,9.65,9.65,0,0,0,3.68-1.85,3.68,3.68,0,0,0,1.31-3.21,4.12,4.12,0,0,0-2-3.25,15.62,15.62,0,0,0-4.8-2,59.07,59.07,0,0,0-6.68-1.31q-3.75-.56-7.61-1.18t-7.68-1.53a29.83,29.83,0,0,1-6.62-2.44,13.54,13.54,0,0,1-4.68-3.93,9.81,9.81,0,0,1-1.74-5.92,8.7,8.7,0,0,1,2.55-6.37,19,19,0,0,1,6.5-4.16,36,36,0,0,1,8.73-2.21,70.73,70.73,0,0,1,9.18-.63,56.66,56.66,0,0,1,9.55.77,32.07,32.07,0,0,1,8.23,2.48,18.37,18.37,0,0,1,6.12,4.47,13,13,0,0,1,3.06,6.64h-14.86a6.87,6.87,0,0,0-4.68-5,25.93,25.93,0,0,0-8.42-1.26c-1,0-2.19.06-3.56.18a22,22,0,0,0-3.87.68,8.86,8.86,0,0,0-3.06,1.44,3,3,0,0,0-1.24,2.49,3.53,3.53,0,0,0,1.81,3.07,16.24,16.24,0,0,0,4.74,1.94,60.9,60.9,0,0,0,6.68,1.31q3.74.54,7.74,1.18,3.85.63,7.61,1.53a29.14,29.14,0,0,1,6.68,2.44,14.38,14.38,0,0,1,4.74,3.88,9.2,9.2,0,0,1,1.81,5.79,10.07,10.07,0,0,1-2.62,7,19.4,19.4,0,0,1-6.8,4.7,38.39,38.39,0,0,1-9.3,2.62,64.75,64.75,0,0,1-10.11.81,60.25,60.25,0,0,1-11.3-1,31.55,31.55,0,0,1-9-3,17.24,17.24,0,0,1-6-5,12.67,12.67,0,0,1-2.31-7.19Z"/><path class="cls-1" d="M1335.62,2373.2a69.18,69.18,0,0,0,8.74-.54,35.07,35.07,0,0,0,7.67-1.81,20.27,20.27,0,0,0,5.87-3.25,9.17,9.17,0,0,0,3.18-4.88h11.61V2426h-15.6v-44.63h-21.47Z"/><path class="cls-1" d="M1433.1,2361.46q9.38,0,15.29,3.11a25,25,0,0,1,9.24,7.95,28.92,28.92,0,0,1,4.49,10.62,53.3,53.3,0,0,1,0,22.4,28.92,28.92,0,0,1-4.49,10.62,25,25,0,0,1-9.24,8q-5.92,3.12-15.29,3.11t-15.29-3.11a25,25,0,0,1-9.23-8,28.77,28.77,0,0,1-4.5-10.62,53.74,53.74,0,0,1,0-22.4,28.77,28.77,0,0,1,4.5-10.62,25,25,0,0,1,9.23-7.95Q1423.74,2361.45,1433.1,2361.46Zm0,57.18a14.34,14.34,0,0,0,7.74-1.94,13.88,13.88,0,0,0,4.93-5.24,24.35,24.35,0,0,0,2.56-7.72,56.3,56.3,0,0,0,.75-9.4,55.44,55.44,0,0,0-.75-9.35,24.94,24.94,0,0,0-2.56-7.73,13.92,13.92,0,0,0-4.93-5.28,16.53,16.53,0,0,0-15.54,0,14.17,14.17,0,0,0-4.87,5.28,24.93,24.93,0,0,0-2.55,7.73,55.44,55.44,0,0,0-.75,9.35,56.3,56.3,0,0,0,.75,9.4,24.35,24.35,0,0,0,2.55,7.72,14.13,14.13,0,0,0,4.87,5.24A14.27,14.27,0,0,0,1433.1,2418.64Z"/><path class="cls-1" d="M1502.5,2361.46q9.38,0,15.29,3.11a25,25,0,0,1,9.24,7.95,28.94,28.94,0,0,1,4.5,10.62,53.74,53.74,0,0,1,0,22.4,28.94,28.94,0,0,1-4.5,10.62,25,25,0,0,1-9.24,8q-5.93,3.12-15.29,3.11t-15.29-3.11a25,25,0,0,1-9.23-8,28.77,28.77,0,0,1-4.5-10.62,53.74,53.74,0,0,1,0-22.4,28.77,28.77,0,0,1,4.5-10.62,25,25,0,0,1,9.23-7.95Q1493.14,2361.45,1502.5,2361.46Zm0,57.18a14.34,14.34,0,0,0,7.74-1.94,13.88,13.88,0,0,0,4.93-5.24,24.35,24.35,0,0,0,2.56-7.72,56.3,56.3,0,0,0,.75-9.4,55.44,55.44,0,0,0-.75-9.35,24.94,24.94,0,0,0-2.56-7.73,13.92,13.92,0,0,0-4.93-5.28,16.53,16.53,0,0,0-15.54,0,14.17,14.17,0,0,0-4.87,5.28,25.2,25.2,0,0,0-2.55,7.73,55.44,55.44,0,0,0-.75,9.35,56.3,56.3,0,0,0,.75,9.4,24.6,24.6,0,0,0,2.55,7.72,14.13,14.13,0,0,0,4.87,5.24A14.27,14.27,0,0,0,1502.5,2418.64Z"/><path class="cls-1" d="M1546.82,2381.69q4.48-.45,6-2.75a9.22,9.22,0,0,0,1.56-5.29h-7.61v-12.19h15.6v12.19a11.43,11.43,0,0,1-4.18,8.9q-4.18,3.66-11.42,4.38Z"/><path class="cls-1" d="M1580.89,2411a7.63,7.63,0,0,0,4.75,6.33,24.49,24.49,0,0,0,9.86,1.8c1.33,0,2.85-.07,4.55-.22a26.33,26.33,0,0,0,4.81-.86,9.65,9.65,0,0,0,3.68-1.85,3.68,3.68,0,0,0,1.31-3.21,4.12,4.12,0,0,0-2-3.25,15.62,15.62,0,0,0-4.8-2,59.07,59.07,0,0,0-6.68-1.31q-3.75-.56-7.61-1.18t-7.68-1.53a29.83,29.83,0,0,1-6.62-2.44,13.54,13.54,0,0,1-4.68-3.93,9.81,9.81,0,0,1-1.74-5.92,8.7,8.7,0,0,1,2.55-6.37,19,19,0,0,1,6.5-4.16,36,36,0,0,1,8.73-2.21,70.73,70.73,0,0,1,9.18-.63,56.66,56.66,0,0,1,9.55.77,32.07,32.07,0,0,1,8.23,2.48,18.37,18.37,0,0,1,6.12,4.47,13,13,0,0,1,3.06,6.64H1607.1a6.87,6.87,0,0,0-4.68-5,25.93,25.93,0,0,0-8.42-1.26c-1,0-2.19.06-3.56.18a22,22,0,0,0-3.87.68,8.86,8.86,0,0,0-3.06,1.44,3,3,0,0,0-1.24,2.49,3.54,3.54,0,0,0,1.8,3.07,16.43,16.43,0,0,0,4.75,1.94,60.9,60.9,0,0,0,6.68,1.31q3.74.54,7.74,1.18,3.85.63,7.61,1.53a29.14,29.14,0,0,1,6.68,2.44,14.38,14.38,0,0,1,4.74,3.88,9.2,9.2,0,0,1,1.81,5.79,10.07,10.07,0,0,1-2.62,7,19.4,19.4,0,0,1-6.8,4.7,38.39,38.39,0,0,1-9.3,2.62,64.75,64.75,0,0,1-10.11.81,60.25,60.25,0,0,1-11.3-1,31.55,31.55,0,0,1-9-3,17.24,17.24,0,0,1-6-5,12.67,12.67,0,0,1-2.31-7.19Z"/><path class="cls-1" d="M1847.59,2373.2a69.29,69.29,0,0,0,8.74-.54,34.64,34.64,0,0,0,7.67-1.81,20.27,20.27,0,0,0,5.87-3.25,9.13,9.13,0,0,0,3.18-4.88h11.61V2426h-15.6v-44.63h-21.47Z"/><path class="cls-1" d="M1945.07,2361.46q9.36,0,15.29,3.11a25.12,25.12,0,0,1,9.24,7.95,29,29,0,0,1,4.49,10.62,53.3,53.3,0,0,1,0,22.4,28.92,28.92,0,0,1-4.49,10.62,25.12,25.12,0,0,1-9.24,8q-5.92,3.12-15.29,3.12t-15.29-3.12a25,25,0,0,1-9.23-8,28.77,28.77,0,0,1-4.5-10.62,53.74,53.74,0,0,1,0-22.4,28.84,28.84,0,0,1,4.5-10.62,25,25,0,0,1,9.23-7.95Q1935.71,2361.47,1945.07,2361.46Zm0,57.18a14.34,14.34,0,0,0,7.74-1.94,14,14,0,0,0,4.93-5.24,24.35,24.35,0,0,0,2.56-7.72,56.3,56.3,0,0,0,.75-9.4,55.44,55.44,0,0,0-.75-9.35,24.87,24.87,0,0,0-2.56-7.72,14,14,0,0,0-4.93-5.29,16.53,16.53,0,0,0-15.54,0,14.12,14.12,0,0,0-4.87,5.29,25.14,25.14,0,0,0-2.56,7.72,56.53,56.53,0,0,0-.74,9.35,57.41,57.41,0,0,0,.74,9.4,24.61,24.61,0,0,0,2.56,7.72,14.13,14.13,0,0,0,4.87,5.24A14.27,14.27,0,0,0,1945.07,2418.64Z"/><path class="cls-1" d="M1989.38,2381.69q4.5-.45,6.06-2.75a9.22,9.22,0,0,0,1.56-5.29h-7.62v-12.19H2005v12.19a11.42,11.42,0,0,1-4.18,8.9q-4.18,3.66-11.43,4.38Z"/><path class="cls-1" d="M2023.46,2411a7.64,7.64,0,0,0,4.74,6.33,24.56,24.56,0,0,0,9.86,1.8c1.34,0,2.85-.07,4.56-.22a26.48,26.48,0,0,0,4.81-.86,9.72,9.72,0,0,0,3.68-1.85,3.7,3.7,0,0,0,1.31-3.21,4.14,4.14,0,0,0-2-3.25,15.72,15.72,0,0,0-4.8-2,61.37,61.37,0,0,0-6.68-1.31c-2.5-.36-5-.76-7.62-1.18s-5.22-.93-7.67-1.53a29.83,29.83,0,0,1-6.62-2.44,13.54,13.54,0,0,1-4.68-3.93,9.81,9.81,0,0,1-1.75-5.92,8.71,8.71,0,0,1,2.56-6.37,19.09,19.09,0,0,1,6.49-4.16,36.2,36.2,0,0,1,8.74-2.21,70.62,70.62,0,0,1,9.18-.63,57.51,57.51,0,0,1,9.54.77,32,32,0,0,1,8.24,2.48,18.51,18.51,0,0,1,6.12,4.47,13,13,0,0,1,3.06,6.64h-14.86a6.87,6.87,0,0,0-4.68-5,25.93,25.93,0,0,0-8.42-1.26c-1,0-2.19.06-3.56.18a22,22,0,0,0-3.87.68,8.86,8.86,0,0,0-3.06,1.44,3,3,0,0,0-1.25,2.49,3.55,3.55,0,0,0,1.81,3.07,16.43,16.43,0,0,0,4.75,1.94,61.16,61.16,0,0,0,6.67,1.31c2.5.36,5.08.76,7.74,1.18s5.12.93,7.62,1.53a29.32,29.32,0,0,1,6.68,2.44,14.29,14.29,0,0,1,4.74,3.89,9.21,9.21,0,0,1,1.81,5.78,10.07,10.07,0,0,1-2.62,7,19.35,19.35,0,0,1-6.81,4.7,38.18,38.18,0,0,1-9.29,2.62,63.59,63.59,0,0,1-10.11.82,60.22,60.22,0,0,1-11.3-1,31.86,31.86,0,0,1-9-3,17.26,17.26,0,0,1-6-5.06,12.57,12.57,0,0,1-2.31-7.19Z"/><path class="cls-1" d="M2370.85,2373.2a69.13,69.13,0,0,0,8.73-.54,35.17,35.17,0,0,0,7.68-1.81,20.4,20.4,0,0,0,5.87-3.25,9.17,9.17,0,0,0,3.18-4.88h11.61V2426h-15.6v-44.63h-21.47Z"/><path class="cls-1" d="M2443.24,2381.69c3-.3,5-1.22,6.06-2.75a9.3,9.3,0,0,0,1.56-5.29h-7.62v-12.19h15.6v12.19a11.4,11.4,0,0,1-4.18,8.9q-4.18,3.66-11.42,4.38Z"/><path class="cls-1" d="M2477.32,2411a7.62,7.62,0,0,0,4.74,6.33,24.53,24.53,0,0,0,9.86,1.8c1.33,0,2.85-.07,4.56-.22a26.22,26.22,0,0,0,4.8-.86,9.7,9.7,0,0,0,3.69-1.85,3.71,3.71,0,0,0,1.31-3.21,4.14,4.14,0,0,0-2-3.25,15.68,15.68,0,0,0-4.81-2,58.86,58.86,0,0,0-6.67-1.31q-3.75-.56-7.62-1.18t-7.67-1.53a29.83,29.83,0,0,1-6.62-2.44,13.36,13.36,0,0,1-4.68-3.93,9.75,9.75,0,0,1-1.75-5.92A8.71,8.71,0,0,1,2467,2385a19.09,19.09,0,0,1,6.49-4.16,36.08,36.08,0,0,1,8.74-2.21,70.58,70.58,0,0,1,9.17-.63,56.57,56.57,0,0,1,9.55.77,32,32,0,0,1,8.24,2.48,18.58,18.58,0,0,1,6.12,4.47,12.86,12.86,0,0,1,3.05,6.64h-14.85a6.91,6.91,0,0,0-4.68-5,25.93,25.93,0,0,0-8.42-1.26c-1,0-2.19.06-3.56.18a21.65,21.65,0,0,0-3.87.68,8.86,8.86,0,0,0-3.06,1.44,3,3,0,0,0-1.25,2.49,3.53,3.53,0,0,0,1.81,3.07,16.47,16.47,0,0,0,4.74,1.94,61.85,61.85,0,0,0,6.68,1.31q3.75.54,7.74,1.18t7.62,1.53a29.06,29.06,0,0,1,6.67,2.44,14.32,14.32,0,0,1,4.75,3.88,9.26,9.26,0,0,1,1.81,5.79,10.12,10.12,0,0,1-2.62,7,19.35,19.35,0,0,1-6.81,4.7,38.26,38.26,0,0,1-9.3,2.62,64.56,64.56,0,0,1-10.11.81,60.21,60.21,0,0,1-11.29-1,31.44,31.44,0,0,1-9-3,17.15,17.15,0,0,1-6-5,12.6,12.6,0,0,1-2.31-7.19Z"/><path class="cls-1" d="M481.41,2640.38a129.58,129.58,0,0,0,16.44-1,67,67,0,0,0,14.45-3.4,38.24,38.24,0,0,0,11-6.13,17.21,17.21,0,0,0,6-9.17h21.84v119H521.81v-84h-40.4Z"/><path class="cls-1" d="M968.84,2620.66h112.5v16.15a236.57,236.57,0,0,0-23.48,21.84,154.07,154.07,0,0,0-18.44,24,134.71,134.71,0,0,0-12.8,26.78,131.36,131.36,0,0,0-6.58,30.26H990.68a107,107,0,0,1,6.7-27.88,144.92,144.92,0,0,1,13.62-26.7,178.62,178.62,0,0,1,19.38-24.81A233.86,233.86,0,0,1,1054.1,2638H968.84Z"/><path class="cls-1" d="M1472.42,2620.66h85V2638h-65.06l-8.45,30.25.47.35a36.79,36.79,0,0,1,13.74-6.72,62.09,62.09,0,0,1,16.56-2.3,74.09,74.09,0,0,1,21.84,3,47.48,47.48,0,0,1,16.2,8.33,35.62,35.62,0,0,1,10,12.67,37.1,37.1,0,0,1,3.4,15.81,37.81,37.81,0,0,1-3.17,14.7,38.47,38.47,0,0,1-10.1,13.77,54.6,54.6,0,0,1-17.73,10.2q-10.8,4-25.84,4a101.2,101.2,0,0,1-22.19-2.3,61.53,61.53,0,0,1-18-6.88,38.18,38.18,0,0,1-12.33-11.31,30,30,0,0,1-5-15.72h26.77a19.74,19.74,0,0,0,9.16,14.87q8,5.19,21.14,5.19a43.94,43.94,0,0,0,14.33-2,25.16,25.16,0,0,0,9.51-5.61,20.15,20.15,0,0,0,5.17-8.33,33.2,33.2,0,0,0,1.53-10.2,24.32,24.32,0,0,0-1.88-9.44,22.09,22.09,0,0,0-5.64-7.9,27.69,27.69,0,0,0-9.75-5.45,43.63,43.63,0,0,0-14-2,53.3,53.3,0,0,0-15.86,2.29,17.19,17.19,0,0,0-10.68,8.59H1454.8Z"/><path class="cls-1" d="M1974.35,2670a86.5,86.5,0,0,0,13.15-.68,46.46,46.46,0,0,0,11.74-3,21.32,21.32,0,0,0,8.34-5.86,13.71,13.71,0,0,0,3.17-9.19q0-7.64-7.16-12.23t-18.44-4.6a33.35,33.35,0,0,0-12.21,2,24.26,24.26,0,0,0-8.57,5.53,22.31,22.31,0,0,0-5,7.82,21.65,21.65,0,0,0-1.41,8.93h-26.78a37.67,37.67,0,0,1,4.46-16.07,41,41,0,0,1,10.93-12.84,51.88,51.88,0,0,1,16.79-8.5,75.23,75.23,0,0,1,22.31-3,87.84,87.84,0,0,1,18.91,2,65.44,65.44,0,0,1,16.68,5.95,34.51,34.51,0,0,1,11.86,9.94,22.71,22.71,0,0,1,4.46,13.86,23.7,23.7,0,0,1-5.64,15.72q-5.64,6.72-17.61,9.78v.34q14.09,2,22,10.11a27.11,27.11,0,0,1,7.87,19.64,25.93,25.93,0,0,1-4.7,15.21,39.65,39.65,0,0,1-12.68,11.39,68.16,68.16,0,0,1-18.56,7.23,102.78,102.78,0,0,1-47.33-.43,52.63,52.63,0,0,1-17.85-8.41,36.47,36.47,0,0,1-10.92-13.09,40.23,40.23,0,0,1-4-17h26.77a22.15,22.15,0,0,0,7.4,18.1q7.88,7.23,23.61,7.23,13.38,0,22.43-5.53t9-15.72q0-7-3.76-11.06a23.78,23.78,0,0,0-9.86-6.2,52,52,0,0,0-13.74-2.63q-7.63-.51-15.62-.34Z"/><path class="cls-1" d="M2447.17,2709.57a16.69,16.69,0,0,0,7.16,11.81q6.23,4.5,16.8,4.51,10.8,0,17.26-4.17a29.66,29.66,0,0,0,10-10.37,42,42,0,0,0,4.82-13.26q1.29-7.05,2-13l-.47-.33a33.78,33.78,0,0,1-14.8,10.62,56.5,56.5,0,0,1-20.67,3.66,73.22,73.22,0,0,1-21.26-2.89,51.28,51.28,0,0,1-16.32-8.08,36.36,36.36,0,0,1-10.57-12.58,36,36,0,0,1-3.76-16.57,34.88,34.88,0,0,1,3.76-16.07,37.4,37.4,0,0,1,11-12.92,54.32,54.32,0,0,1,17.85-8.59,86.22,86.22,0,0,1,24-3q17.37,0,28.65,4.84a43.27,43.27,0,0,1,17.73,13.26,50.38,50.38,0,0,1,9.05,19.81,109.78,109.78,0,0,1,2.58,24.31,76.92,76.92,0,0,1-3.17,21.58,55.67,55.67,0,0,1-10.45,19.81,54,54,0,0,1-19.14,14.53Q2487.34,2742,2470,2742a70.24,70.24,0,0,1-18.55-2.38A56.47,56.47,0,0,1,2436,2733a38.75,38.75,0,0,1-10.92-10.2,25.23,25.23,0,0,1-4.69-13.26Zm25.6-75.15a37.33,37.33,0,0,0-12.68,2,24.75,24.75,0,0,0-8.93,5.36,22.14,22.14,0,0,0-5.28,7.82,24.41,24.41,0,0,0-1.76,9.18,25.55,25.55,0,0,0,1.76,9.43,22.13,22.13,0,0,0,5.28,7.91,27,27,0,0,0,8.93,5.52,34.47,34.47,0,0,0,12.68,2.13,38.91,38.91,0,0,0,13.16-2,26.11,26.11,0,0,0,9.27-5.53,23.41,23.41,0,0,0,5.52-8,24.31,24.31,0,0,0,1.88-9.43,23.24,23.24,0,0,0-1.88-9.18,21.93,21.93,0,0,0-5.52-7.74,27.73,27.73,0,0,0-9.27-5.36A38.91,38.91,0,0,0,2472.77,2634.42Z"/></g><g id="abacus2"><path class="cls-1" d="M154.45,121V2160.85H2757.7V121ZM2682.69,2084.87H229.46V197H2682.69Z"/><rect class="cls-2" x="931.28" y="148.9" width="75.62" height="2005.84" rx="15.23" ry="15.23"/><rect class="cls-3" x="1419.03" y="148.9" width="75.62" height="2005.84" rx="15.23" ry="15.23"/><rect class="cls-4" x="1901.11" y="148.9" width="75.62" height="2005.84" rx="15.23" ry="15.23"/><rect class="cls-5" x="2394.54" y="148.9" width="75.62" height="2005.84" rx="15.23" ry="15.23"/><rect class="cls-6" x="430.29" y="148.9" width="75.62" height="2005.84" rx="15.23" ry="15.23"/><polygon class="cls-1" points="2757.88 678.25 155.13 678.25 229.76 657.45 2683.25 657.45 2757.88 678.25"/><rect class="cls-7" x="430.29" y="126.22" width="75.62" height="550.14" rx="15.23" ry="15.23"/><rect class="cls-8" x="931.28" y="126.22" width="75.62" height="550.14" rx="15.23" ry="15.23"/><rect class="cls-9" x="1419.03" y="126.22" width="75.62" height="550.14" rx="15.23" ry="15.23"/><rect class="cls-10" x="1901.11" y="126.22" width="75.62" height="550.14" rx="15.23" ry="15.23"/><rect class="cls-11" x="2394.54" y="126.22" width="75.62" height="550.14" rx="15.23" ry="15.23"/><path class="cls-12" d="M1680.89,535.52a9.19,9.19,0,0,1-3.28,6.06l-23.23,20.91-34.23,30.83-81.13,73a43.22,43.22,0,0,1-24,9.83c-1.26.11-2.54.17-3.83.17H1402.52c-1.28,0-2.57-.06-3.83-.17a43.22,43.22,0,0,1-24-9.83l-81.24-73.15-57.35-51.63a9.23,9.23,0,0,1-3.28-6.06,9,9,0,0,1,3.28-8l49.36-44.45,9.86-8.88,79.37-71.45a43.22,43.22,0,0,1,24-9.83c1.26-.11,2.55-.17,3.83-.17h108.64c1.29,0,2.57.06,3.83.17a43.22,43.22,0,0,1,24,9.83L1619.26,475l58.35,52.54,0,0a9.16,9.16,0,0,1,3.26,6A7.87,7.87,0,0,1,1680.89,535.52Z"/><path class="cls-13" d="M1681.45,535.91a9.93,9.93,0,0,1-3.29,6.52l-22.88,20.41-.42.1c-42.8,10.06-118.94,14.34-207.35,5.13-.32-.06-175.42-15.13-212-40.14,0,0,59.36-53.47,59.36-53.47l38.12-34c30.41,34.42,92.37,74,130,88.91,72,28.5,148.41,24.26,188.91,11.84,10.94-3.37,19.77-7.81,26.23-13.25a.85.85,0,0,0,.17-.29,9.92,9.92,0,0,1,3.11,6.3A9.08,9.08,0,0,1,1681.45,535.91Z"/><path class="cls-14" d="M2657.17,535.52a9.21,9.21,0,0,1-3.29,6.06l-23.23,20.91-34.23,30.83-81.13,73a43.16,43.16,0,0,1-24,9.83c-1.27.11-2.55.17-3.83.17H2378.79c-1.28,0-2.56-.06-3.83-.17a43.16,43.16,0,0,1-24-9.83l-81.25-73.15-57.34-51.63a9.21,9.21,0,0,1-3.29-6.06,8.93,8.93,0,0,1,3.29-8l49.35-44.45,9.86-8.88,79.38-71.45a43.16,43.16,0,0,1,24-9.83c1.27-.11,2.55-.17,3.83-.17h108.65c1.28,0,2.56.06,3.83.17a43.16,43.16,0,0,1,24,9.83L2595.54,475l58.34,52.54,0,0a9.18,9.18,0,0,1,3.27,6A9,9,0,0,1,2657.17,535.52Z"/><path class="cls-15" d="M2657.72,535.91a9.88,9.88,0,0,1-3.29,6.52l-22.88,20.41-.41.1c-42.8,10.06-118.95,14.34-207.36,5.13-.32-.06-175.42-15.13-212-40.14,0,0,59.36-53.47,59.36-53.47l38.13-34c30.4,34.42,92.37,74,130,88.91,71.94,28.5,148.41,24.26,188.9,11.84,10.95-3.37,19.77-7.81,26.24-13.25a1.38,1.38,0,0,0,.17-.29,10,10,0,0,1,3.1,6.3A9.08,9.08,0,0,1,2657.72,535.91Z"/><path class="cls-16" d="M2657.17,862.58a9.21,9.21,0,0,1-3.29,6.06l-23.23,20.91-34.23,30.84-81.13,73a43.16,43.16,0,0,1-24,9.83c-1.27.11-2.55.17-3.83.17H2378.79c-1.28,0-2.56-.06-3.83-.17a43.16,43.16,0,0,1-24-9.83l-81.25-73.15-57.34-51.63a9.21,9.21,0,0,1-3.29-6.06,9.36,9.36,0,0,1,0-2,9.25,9.25,0,0,1,3.29-6l49.35-44.46,9.86-8.88,79.38-71.45a43.16,43.16,0,0,1,24-9.83c1.27-.11,2.55-.17,3.83-.17h108.65c1.28,0,2.56.06,3.83.17a43.16,43.16,0,0,1,24,9.83l80.25,72.24,58.34,52.55h0a9.18,9.18,0,0,1,3.27,6A9,9,0,0,1,2657.17,862.58Z"/><path class="cls-17" d="M2657.72,862.91a9.84,9.84,0,0,1-3.29,6.52l-22.88,20.42-.41.1c-42.8,10-118.95,14.34-207.36,5.13-.32-.06-175.42-15.14-212-40.15,0,0,59.36-53.46,59.36-53.46l38.13-34c30.4,34.43,92.37,74,130,88.92,71.94,28.5,148.41,24.25,188.9,11.83,10.95-3.36,19.77-7.8,26.24-13.25a1.31,1.31,0,0,0,.17-.28,10,10,0,0,1,3.1,6.29A9.08,9.08,0,0,1,2657.72,862.91Z"/><path class="cls-18" d="M2657.17,1146.05a9.21,9.21,0,0,1-3.29,6L2630.65,1173l-34.23,30.83-81.13,73a43.23,43.23,0,0,1-24,9.83c-1.27.11-2.55.17-3.83.17H2378.79c-1.28,0-2.56-.06-3.83-.17a43.23,43.23,0,0,1-24-9.83l-81.25-73.15-57.34-51.64a9.21,9.21,0,0,1-3.29-6,9.36,9.36,0,0,1,0-2,9.25,9.25,0,0,1,3.29-6l49.35-44.45,9.86-8.88,79.38-71.46a43.14,43.14,0,0,1,24-9.82c1.27-.12,2.55-.17,3.83-.17h108.65c1.28,0,2.56.05,3.83.17a43.14,43.14,0,0,1,24,9.82l80.25,72.25,58.34,52.54,0,0a9.13,9.13,0,0,1,3.27,6A9,9,0,0,1,2657.17,1146.05Z"/><path class="cls-19" d="M2657.72,1145.19a9.86,9.86,0,0,1-3.29,6.52l-22.88,20.42-.41.09c-42.8,10.06-118.95,14.34-207.36,5.13-.32-.06-175.42-15.13-212-40.14,0,0,59.36-53.47,59.36-53.47l38.13-34c30.4,34.42,92.37,74,130,88.91,71.94,28.5,148.41,24.26,188.9,11.84,10.95-3.37,19.77-7.81,26.24-13.25a1.17,1.17,0,0,0,.17-.29,10,10,0,0,1,3.1,6.3A9.08,9.08,0,0,1,2657.72,1145.19Z"/><path class="cls-20" d="M2657.17,1429.63a9.21,9.21,0,0,1-3.29,6l-23.23,20.91-34.23,30.84-81.13,73a43.14,43.14,0,0,1-24,9.82c-1.27.12-2.55.17-3.83.17H2378.79c-1.28,0-2.56,0-3.83-.17a43.14,43.14,0,0,1-24-9.82l-81.25-73.16-57.34-51.63a9.21,9.21,0,0,1-3.29-6,9.36,9.36,0,0,1,0-2,9.25,9.25,0,0,1,3.29-6l49.35-44.45,9.86-8.89,79.38-71.45a43.23,43.23,0,0,1,24-9.83c1.27-.11,2.55-.17,3.83-.17h108.65c1.28,0,2.56.06,3.83.17a43.23,43.23,0,0,1,24,9.83l80.25,72.25,58.34,52.54,0,0a9,9,0,0,1,3.27,7.94Z"/><path class="cls-21" d="M2657.72,1429.46a9.84,9.84,0,0,1-3.29,6.52l-22.88,20.42-.41.1c-42.8,10-118.95,14.34-207.36,5.13-.32-.06-175.42-15.14-212-40.15,0,0,59.36-53.46,59.36-53.46l38.13-34c30.4,34.43,92.37,74,130,88.92,71.94,28.5,148.41,24.26,188.9,11.83,10.95-3.36,19.77-7.8,26.24-13.25a1.31,1.31,0,0,0,.17-.28,10,10,0,0,1,3.1,6.29A9.08,9.08,0,0,1,2657.72,1429.46Z"/><path class="cls-22" d="M2657.17,1713.21a9.21,9.21,0,0,1-3.29,6l-23.23,20.92L2596.42,1771l-81.13,73a43.23,43.23,0,0,1-24,9.83c-1.27.11-2.55.17-3.83.17H2378.79c-1.28,0-2.56-.06-3.83-.17a43.23,43.23,0,0,1-24-9.83l-81.25-73.15-57.34-51.64a9.21,9.21,0,0,1-3.29-6,9.36,9.36,0,0,1,0-2,9.25,9.25,0,0,1,3.29-6l49.35-44.45,9.86-8.88,79.38-71.46a43.14,43.14,0,0,1,24-9.82c1.27-.12,2.55-.17,3.83-.17h108.65c1.28,0,2.56,0,3.83.17a43.14,43.14,0,0,1,24,9.82l80.25,72.25,58.34,52.54,0,0a9.13,9.13,0,0,1,3.27,6A9,9,0,0,1,2657.17,1713.21Z"/><path class="cls-23" d="M2657.72,1713.74a9.88,9.88,0,0,1-3.29,6.53l-22.88,20.41-.41.1c-42.8,10.06-118.95,14.34-207.36,5.13-.32-.06-175.42-15.13-212-40.14,0,0,59.36-53.47,59.36-53.47l38.13-34c30.4,34.42,92.37,74,130,88.91,71.94,28.5,148.41,24.26,188.9,11.84,10.95-3.37,19.77-7.81,26.24-13.25a1.38,1.38,0,0,0,.17-.29,10,10,0,0,1,3.1,6.3A9,9,0,0,1,2657.72,1713.74Z"/><path class="cls-24" d="M2163,862.58a9.21,9.21,0,0,1-3.29,6.06l-23.23,20.91-34.23,30.84-81.13,73a43.16,43.16,0,0,1-24,9.83c-1.27.11-2.55.17-3.83.17H1884.6c-1.28,0-2.56-.06-3.83-.17a43.16,43.16,0,0,1-24-9.83l-81.25-73.15-57.34-51.63a9.21,9.21,0,0,1-3.29-6.06,9.36,9.36,0,0,1,0-2,9.25,9.25,0,0,1,3.29-6l49.35-44.46,9.86-8.88,79.38-71.45a43.16,43.16,0,0,1,24-9.83c1.27-.11,2.55-.17,3.83-.17h108.65c1.28,0,2.56.06,3.83.17a43.16,43.16,0,0,1,24,9.83l80.25,72.24,58.34,52.55h0a9.18,9.18,0,0,1,3.27,6A9,9,0,0,1,2163,862.58Z"/><path class="cls-25" d="M2163.53,862.91a9.84,9.84,0,0,1-3.29,6.52l-22.88,20.42-.41.1c-42.8,10-118.95,14.34-207.36,5.13-.32-.06-175.42-15.14-212-40.15,0,0,59.36-53.46,59.36-53.46l38.13-34c30.4,34.43,92.37,74,130,88.92,71.94,28.5,148.41,24.25,188.9,11.83,10.95-3.36,19.77-7.8,26.24-13.25a1.31,1.31,0,0,0,.17-.28,10,10,0,0,1,3.1,6.29A9.08,9.08,0,0,1,2163.53,862.91Z"/><path class="cls-26" d="M2163,1146.05a9.21,9.21,0,0,1-3.29,6.06L2136.46,1173l-34.23,30.83-81.13,73a43.16,43.16,0,0,1-24,9.83c-1.27.11-2.55.17-3.83.17H1884.6c-1.28,0-2.56-.06-3.83-.17a43.16,43.16,0,0,1-24-9.83l-81.25-73.15-57.34-51.63a9.21,9.21,0,0,1-3.29-6.06,8.93,8.93,0,0,1,3.29-8l49.35-44.45,9.86-8.88,79.38-71.45a43.16,43.16,0,0,1,24-9.83c1.27-.11,2.55-.17,3.83-.17h108.65c1.28,0,2.56.06,3.83.17a43.16,43.16,0,0,1,24,9.83l80.25,72.24,58.34,52.54,0,0a9.13,9.13,0,0,1,3.27,6A9,9,0,0,1,2163,1146.05Z"/><path class="cls-27" d="M2163.53,1145.19a9.86,9.86,0,0,1-3.29,6.52l-22.88,20.42-.41.09c-42.8,10.06-118.95,14.34-207.36,5.13-.32-.06-175.42-15.13-212-40.14,0,0,59.36-53.47,59.36-53.47l38.13-34c30.4,34.42,92.37,74,130,88.91,71.94,28.5,148.41,24.26,188.9,11.84,10.95-3.37,19.77-7.81,26.24-13.25a1.17,1.17,0,0,0,.17-.29,10,10,0,0,1,3.1,6.3A9.08,9.08,0,0,1,2163.53,1145.19Z"/><path class="cls-28" d="M2163,1429.63a9.21,9.21,0,0,1-3.29,6l-23.23,20.92-34.23,30.83-81.13,73a43.23,43.23,0,0,1-24,9.83c-1.27.11-2.55.17-3.83.17H1884.6c-1.28,0-2.56-.06-3.83-.17a43.23,43.23,0,0,1-24-9.83l-81.25-73.15-57.34-51.64a9.21,9.21,0,0,1-3.29-6,9.36,9.36,0,0,1,0-2,9.25,9.25,0,0,1,3.29-6l49.35-44.45,9.86-8.88,79.38-71.46a43.14,43.14,0,0,1,24-9.82c1.27-.11,2.55-.17,3.83-.17h108.65c1.28,0,2.56.06,3.83.17a43.14,43.14,0,0,1,24,9.82l80.25,72.25,58.34,52.54,0,0a9.13,9.13,0,0,1,3.27,6A9,9,0,0,1,2163,1429.63Z"/><path class="cls-29" d="M2163.53,1429.46a9.84,9.84,0,0,1-3.29,6.52l-22.88,20.42-.41.1c-42.8,10-118.95,14.34-207.36,5.13-.32-.06-175.42-15.14-212-40.15,0,0,59.36-53.46,59.36-53.46l38.13-34c30.4,34.43,92.37,74,130,88.92,71.94,28.5,148.41,24.26,188.9,11.83,10.95-3.36,19.77-7.8,26.24-13.25a1.31,1.31,0,0,0,.17-.28,10,10,0,0,1,3.1,6.29A9.08,9.08,0,0,1,2163.53,1429.46Z"/><path class="cls-30" d="M2163,2013.91a9.23,9.23,0,0,1-3.29,6.06l-23.23,20.91-34.23,30.83-81.13,73a43.16,43.16,0,0,1-24,9.83c-1.27.11-2.55.17-3.83.17H1884.6c-1.28,0-2.56-.06-3.83-.17a43.16,43.16,0,0,1-24-9.83l-81.25-73.15L1718.16,2020a9.23,9.23,0,0,1-3.29-6.06,8.93,8.93,0,0,1,3.29-8l49.35-44.45,9.86-8.88,79.38-71.45a43.16,43.16,0,0,1,24-9.83c1.27-.11,2.55-.17,3.83-.17h108.65c1.28,0,2.56.06,3.83.17a43.16,43.16,0,0,1,24,9.83l80.25,72.24,58.34,52.54,0,0a9.13,9.13,0,0,1,3.27,6A9,9,0,0,1,2163,2013.91Z"/><path class="cls-31" d="M2163.53,2014.47a9.84,9.84,0,0,1-3.29,6.52l-22.88,20.42-.41.1c-42.8,10-118.95,14.34-207.36,5.13-.32-.06-175.42-15.13-212-40.15,0,0,59.36-53.46,59.36-53.46l38.13-34c30.4,34.43,92.37,74,130,88.92,71.94,28.5,148.41,24.26,188.9,11.84,10.95-3.37,19.77-7.81,26.24-13.26a1.31,1.31,0,0,0,.17-.28,10,10,0,0,1,3.1,6.3A9,9,0,0,1,2163.53,2014.47Z"/><path class="cls-32" d="M1193.14,2013.91a9.26,9.26,0,0,1-3.28,6.06l-23.24,20.91-34.23,30.83-81.13,73a43.16,43.16,0,0,1-24,9.83c-1.27.11-2.55.17-3.83.17H914.76c-1.28,0-2.56-.06-3.82-.17a43.16,43.16,0,0,1-24-9.83l-81.24-73.15L748.32,2020a9.17,9.17,0,0,1-3.28-6.06,8.2,8.2,0,0,1,0-2,9.24,9.24,0,0,1,3.28-6l49.35-44.45,9.86-8.88,79.38-71.45a43.16,43.16,0,0,1,24-9.83c1.26-.11,2.54-.17,3.82-.17h108.65c1.28,0,2.56.06,3.83.17a43.16,43.16,0,0,1,24,9.83l80.25,72.24,58.35,52.54,0,0a9.16,9.16,0,0,1,3.26,6A9,9,0,0,1,1193.14,2013.91Z"/><path class="cls-33" d="M1193.69,2014.47a9.84,9.84,0,0,1-3.29,6.52l-22.87,20.42-.42.1c-42.8,10-118.94,14.34-207.36,5.13-.32-.06-175.41-15.13-212-40.15,0,0,59.37-53.46,59.37-53.46l38.12-34c30.4,34.43,92.37,74,130,88.92,72,28.5,148.41,24.26,188.9,11.84,11-3.37,19.77-7.81,26.24-13.26a1.31,1.31,0,0,0,.17-.28,10,10,0,0,1,3.1,6.3A7.87,7.87,0,0,1,1193.69,2014.47Z"/><path class="cls-34" d="M1193.14,1730.34a9.24,9.24,0,0,1-3.28,6.05l-23.24,20.91-34.23,30.84-81.13,73a43.14,43.14,0,0,1-24,9.82c-1.27.12-2.55.17-3.83.17H914.76c-1.28,0-2.56-.05-3.82-.17a43.15,43.15,0,0,1-24-9.82L805.67,1788l-57.35-51.63a9.15,9.15,0,0,1-3.28-6.05,8.2,8.2,0,0,1,0-2,9.19,9.19,0,0,1,3.28-6l49.35-44.45,9.86-8.88,79.38-71.46a43.23,43.23,0,0,1,24-9.83c1.26-.11,2.54-.17,3.82-.17h108.65c1.28,0,2.56.06,3.83.17a43.23,43.23,0,0,1,24,9.83l80.25,72.25,58.35,52.54,0,0a9,9,0,0,1,3.26,7.94Z"/><path class="cls-35" d="M1193.69,1730.2a9.86,9.86,0,0,1-3.29,6.52l-22.87,20.42-.42.09c-42.8,10.06-118.94,14.34-207.36,5.13-.32,0-175.41-15.13-212-40.14,0,0,59.37-53.46,59.37-53.46l38.12-34c30.4,34.42,92.37,74,130,88.92,72,28.49,148.41,24.25,188.9,11.83,11-3.36,19.77-7.81,26.24-13.25a1.17,1.17,0,0,0,.17-.29,10,10,0,0,1,3.1,6.3A8,8,0,0,1,1193.69,1730.2Z"/><path class="cls-36" d="M1193.14,535.52a9.23,9.23,0,0,1-3.28,6.06l-23.24,20.91-34.23,30.83-81.13,73a43.16,43.16,0,0,1-24,9.83c-1.27.11-2.55.17-3.83.17H914.76c-1.28,0-2.56-.06-3.82-.17a43.16,43.16,0,0,1-24-9.83l-81.24-73.15-57.35-51.63a9.15,9.15,0,0,1-3.28-6.06,8.2,8.2,0,0,1,0-2,9.24,9.24,0,0,1,3.28-6l49.35-44.45,9.86-8.88,79.38-71.45a43.16,43.16,0,0,1,24-9.83c1.26-.11,2.54-.17,3.82-.17h108.65c1.28,0,2.56.06,3.83.17a43.16,43.16,0,0,1,24,9.83L1131.51,475l58.35,52.54,0,0a9.21,9.21,0,0,1,3.26,6A9,9,0,0,1,1193.14,535.52Z"/><path class="cls-37" d="M1193.69,535.9a9.88,9.88,0,0,1-3.29,6.53l-22.87,20.41-.42.1c-42.8,10.06-118.94,14.34-207.36,5.13-.32-.06-175.41-15.13-212-40.14,0,0,59.37-53.47,59.37-53.47l38.12-34c30.4,34.42,92.37,74,130,88.91,72,28.5,148.41,24.26,188.9,11.84,11-3.37,19.77-7.81,26.24-13.26a1.1,1.1,0,0,0,.17-.28,10,10,0,0,1,3.1,6.3A7.87,7.87,0,0,1,1193.69,535.9Z"/><path class="cls-38" d="M2163,269a9.21,9.21,0,0,1-3.29,6.05l-23.23,20.92-34.23,30.83-81.13,73a43.23,43.23,0,0,1-24,9.83c-1.27.11-2.55.17-3.83.17H1884.6c-1.28,0-2.56-.06-3.83-.17a43.23,43.23,0,0,1-24-9.83l-81.25-73.15L1718.16,275a9.21,9.21,0,0,1-3.29-6.05,9.36,9.36,0,0,1,0-2,9.25,9.25,0,0,1,3.29-6l49.35-44.45,9.86-8.88,79.38-71.46a43.14,43.14,0,0,1,24-9.82c1.27-.12,2.55-.17,3.83-.17h108.65c1.28,0,2.56,0,3.83.17a43.14,43.14,0,0,1,24,9.82l80.25,72.25L2159.69,261l0,0a9.13,9.13,0,0,1,3.27,6A9,9,0,0,1,2163,269Z"/><path class="cls-39" d="M2163.53,269.27a9.84,9.84,0,0,1-3.29,6.52l-22.88,20.42-.41.1c-42.8,10.05-118.95,14.34-207.36,5.13-.32-.06-175.42-15.13-212-40.15,0,0,59.36-53.46,59.36-53.46l38.13-34c30.4,34.43,92.37,74,130,88.92,71.94,28.5,148.41,24.26,188.9,11.84,10.95-3.37,19.77-7.81,26.24-13.26a1.31,1.31,0,0,0,.17-.28,10,10,0,0,1,3.1,6.29A9.08,9.08,0,0,1,2163.53,269.27Z"/><path class="cls-40" d="M692.15,269a9.24,9.24,0,0,1-3.28,6.05l-23.24,20.92-34.22,30.83-81.13,73a43.29,43.29,0,0,1-24,9.83c-1.26.11-2.55.17-3.83.17H413.78c-1.29,0-2.57-.06-3.83-.17a43.29,43.29,0,0,1-24-9.83l-81.24-73.15L247.33,275a9.19,9.19,0,0,1-3.28-6.05,8.2,8.2,0,0,1,0-2,9.23,9.23,0,0,1,3.28-6l49.35-44.45,9.87-8.88,79.37-71.46a43.2,43.2,0,0,1,24-9.82c1.26-.12,2.54-.17,3.83-.17H522.42c1.28,0,2.57,0,3.83.17a43.2,43.2,0,0,1,24,9.82l80.24,72.25L688.87,261l0,0a9.16,9.16,0,0,1,3.26,6A9,9,0,0,1,692.15,269Z"/><path class="cls-41" d="M692.7,269.27a9.84,9.84,0,0,1-3.29,6.52l-22.87,20.42-.42.1c-42.8,10.05-118.94,14.34-207.36,5.13-.32-.06-175.41-15.13-212-40.15l59.37-53.46,38.12-34c30.4,34.43,92.37,74,130,88.92C546.24,291.23,622.7,287,663.2,274.57c10.94-3.37,19.76-7.81,26.23-13.26.09-.07.11-.19.17-.28a9.91,9.91,0,0,1,3.1,6.29A8,8,0,0,1,692.7,269.27Z"/><path class="cls-42" d="M692.15,862.58a9.23,9.23,0,0,1-3.28,6.06l-23.24,20.91-34.22,30.84-81.13,73a43.22,43.22,0,0,1-24,9.83c-1.26.11-2.55.17-3.83.17H413.78c-1.29,0-2.57-.06-3.83-.17a43.22,43.22,0,0,1-24-9.83l-81.24-73.15-57.35-51.63a9.19,9.19,0,0,1-3.28-6.06,8.2,8.2,0,0,1,0-2,9.24,9.24,0,0,1,3.28-6l49.35-44.46,9.87-8.88,79.37-71.45A43.22,43.22,0,0,1,410,720c1.26-.11,2.54-.17,3.83-.17H522.42c1.28,0,2.57.06,3.83.17a43.22,43.22,0,0,1,24,9.83l80.24,72.24,58.35,52.55h0a9.21,9.21,0,0,1,3.26,6A9,9,0,0,1,692.15,862.58Z"/><path class="cls-43" d="M692.7,862.91a9.84,9.84,0,0,1-3.29,6.52l-22.87,20.42-.42.1c-42.8,10-118.94,14.34-207.36,5.13-.32-.06-175.41-15.14-212-40.15l59.37-53.46,38.12-34c30.4,34.43,92.37,74,130,88.92,71.95,28.5,148.41,24.25,188.91,11.83,10.94-3.36,19.76-7.8,26.23-13.25.09-.07.11-.19.17-.28a9.91,9.91,0,0,1,3.1,6.29A8,8,0,0,1,692.7,862.91Z"/><path class="cls-44" d="M692.15,2013.91a9.26,9.26,0,0,1-3.28,6.06l-23.24,20.91-34.22,30.83-81.13,73a43.22,43.22,0,0,1-24,9.83c-1.26.11-2.55.17-3.83.17H413.78c-1.29,0-2.57-.06-3.83-.17a43.22,43.22,0,0,1-24-9.83l-81.24-73.15L247.33,2020a9.21,9.21,0,0,1-3.28-6.06,8.2,8.2,0,0,1,0-2,9.28,9.28,0,0,1,3.28-6l49.35-44.45,9.87-8.88,79.37-71.45a43.22,43.22,0,0,1,24-9.83c1.26-.11,2.54-.17,3.83-.17H522.42c1.28,0,2.57.06,3.83.17a43.22,43.22,0,0,1,24,9.83l80.24,72.24L688.87,2006l0,0a9.16,9.16,0,0,1,3.26,6A9,9,0,0,1,692.15,2013.91Z"/><path class="cls-45" d="M692.7,2014.47a9.84,9.84,0,0,1-3.29,6.52l-22.87,20.42-.42.1c-42.8,10-118.94,14.34-207.36,5.13-.32-.06-175.41-15.13-212-40.15L306.15,1953l38.12-34c30.4,34.43,92.37,74,130,88.92,71.95,28.5,148.41,24.26,188.91,11.84,10.94-3.37,19.76-7.81,26.23-13.26.09-.07.11-.19.17-.28a9.91,9.91,0,0,1,3.1,6.3A7.87,7.87,0,0,1,692.7,2014.47Z"/><path class="cls-46" d="M692.15,1730.34a9.24,9.24,0,0,1-3.28,6.05l-23.24,20.91-34.22,30.84-81.13,73a43.2,43.2,0,0,1-24,9.82c-1.26.12-2.55.17-3.83.17H413.78c-1.29,0-2.57-.05-3.83-.17a43.2,43.2,0,0,1-24-9.82L304.68,1788l-57.35-51.63a9.19,9.19,0,0,1-3.28-6.05,8.2,8.2,0,0,1,0-2,9.23,9.23,0,0,1,3.28-6l49.35-44.45,9.87-8.88,79.37-71.46a43.29,43.29,0,0,1,24-9.83c1.26-.11,2.54-.17,3.83-.17H522.42c1.28,0,2.57.06,3.83.17a43.29,43.29,0,0,1,24,9.83l80.24,72.25,58.35,52.54,0,0a9,9,0,0,1,3.26,7.94Z"/><path class="cls-47" d="M692.7,1730.2a9.86,9.86,0,0,1-3.29,6.52l-22.87,20.42-.42.09c-42.8,10.06-118.94,14.34-207.36,5.13-.32,0-175.41-15.13-212-40.14l59.37-53.46,38.12-34c30.4,34.42,92.37,74,130,88.92,71.95,28.49,148.41,24.25,188.91,11.83,10.94-3.36,19.76-7.81,26.23-13.25.09-.07.11-.19.17-.29a9.91,9.91,0,0,1,3.1,6.3A8,8,0,0,1,692.7,1730.2Z"/><path class="cls-48" d="M692.15,1446.75a9.23,9.23,0,0,1-3.28,6.06l-23.24,20.91-34.22,30.84-81.13,73a43.2,43.2,0,0,1-24,9.82c-1.26.12-2.55.17-3.83.17H413.78c-1.29,0-2.57,0-3.83-.17a43.2,43.2,0,0,1-24-9.82l-81.24-73.16-57.35-51.63a9.19,9.19,0,0,1-3.28-6.06,8.2,8.2,0,0,1,0-2,9.24,9.24,0,0,1,3.28-6l49.35-44.45,9.87-8.89L385.92,1314a43.29,43.29,0,0,1,24-9.83c1.26-.11,2.54-.17,3.83-.17H522.42c1.28,0,2.57.06,3.83.17a43.29,43.29,0,0,1,24,9.83l80.24,72.25,58.35,52.54,0,0a9.16,9.16,0,0,1,3.26,6A9,9,0,0,1,692.15,1446.75Z"/><path class="cls-49" d="M692.7,1445.92a9.86,9.86,0,0,1-3.29,6.52l-22.87,20.42-.42.09c-42.8,10.06-118.94,14.34-207.36,5.13-.32,0-175.41-15.13-212-40.14l59.37-53.47,38.12-34c30.4,34.42,92.37,74,130,88.92,71.95,28.49,148.41,24.25,188.91,11.83,10.94-3.36,19.76-7.81,26.23-13.25.09-.07.11-.19.17-.29a9.91,9.91,0,0,1,3.1,6.3A8,8,0,0,1,692.7,1445.92Z"/><path class="cls-50" d="M1193.14,862.58a9.23,9.23,0,0,1-3.28,6.06l-23.24,20.91-34.23,30.84-81.13,73a43.16,43.16,0,0,1-24,9.83c-1.27.11-2.55.17-3.83.17H914.76c-1.28,0-2.56-.06-3.82-.17a43.16,43.16,0,0,1-24-9.83l-81.24-73.15-57.35-51.63a9.15,9.15,0,0,1-3.28-6.06,8.2,8.2,0,0,1,0-2,9.19,9.19,0,0,1,3.28-6l49.35-44.46,9.86-8.88,79.38-71.45a43.16,43.16,0,0,1,24-9.83c1.26-.11,2.54-.17,3.82-.17h108.65c1.28,0,2.56.06,3.83.17a43.16,43.16,0,0,1,24,9.83l80.25,72.24,58.35,52.55h0a9.21,9.21,0,0,1,3.26,6A9,9,0,0,1,1193.14,862.58Z"/><path class="cls-51" d="M1193.69,862.91a9.84,9.84,0,0,1-3.29,6.52l-22.87,20.42-.42.1c-42.8,10-118.94,14.34-207.36,5.13-.32-.06-175.41-15.14-212-40.15,0,0,59.37-53.46,59.37-53.46l38.12-34c30.4,34.43,92.37,74,130,88.92,72,28.5,148.41,24.25,188.9,11.83,11-3.36,19.77-7.8,26.24-13.25a1.31,1.31,0,0,0,.17-.28,10,10,0,0,1,3.1,6.29A8,8,0,0,1,1193.69,862.91Z"/><path class="cls-52" d="M1193.14,1146.05a9.21,9.21,0,0,1-3.28,6L1166.62,1173l-34.23,30.83-81.13,73a43.23,43.23,0,0,1-24,9.83c-1.27.11-2.55.17-3.83.17H914.76c-1.28,0-2.56-.06-3.82-.17a43.23,43.23,0,0,1-24-9.83l-81.24-73.15-57.35-51.64a9.13,9.13,0,0,1-3.28-6,8.2,8.2,0,0,1,0-2,9.19,9.19,0,0,1,3.28-6l49.35-44.45,9.86-8.88,79.38-71.46a43.15,43.15,0,0,1,24-9.82c1.26-.11,2.54-.17,3.82-.17h108.65c1.28,0,2.56.06,3.83.17a43.14,43.14,0,0,1,24,9.82l80.25,72.25,58.35,52.54,0,0a9.16,9.16,0,0,1,3.26,6A9,9,0,0,1,1193.14,1146.05Z"/><path class="cls-53" d="M1193.69,1145.19a9.86,9.86,0,0,1-3.29,6.52l-22.87,20.42-.42.09c-42.8,10.06-118.94,14.34-207.36,5.13-.32-.06-175.41-15.13-212-40.14,0,0,59.37-53.47,59.37-53.47l38.12-34c30.4,34.42,92.37,74,130,88.91,72,28.5,148.41,24.26,188.9,11.84,11-3.37,19.77-7.81,26.24-13.25a1.17,1.17,0,0,0,.17-.29,10,10,0,0,1,3.1,6.3A8,8,0,0,1,1193.69,1145.19Z"/><path class="cls-54" d="M1680.89,2013.91a9.21,9.21,0,0,1-3.28,6.06l-23.23,20.91-34.23,30.83-81.13,73a43.22,43.22,0,0,1-24,9.83c-1.26.11-2.54.17-3.83.17H1402.52c-1.28,0-2.57-.06-3.83-.17a43.22,43.22,0,0,1-24-9.83l-81.24-73.15L1236.07,2020a9.26,9.26,0,0,1-3.28-6.06,9,9,0,0,1,3.28-8l49.36-44.45,9.86-8.88,79.37-71.45a43.22,43.22,0,0,1,24-9.83c1.26-.11,2.55-.17,3.83-.17h108.64c1.29,0,2.57.06,3.83.17a43.22,43.22,0,0,1,24,9.83l80.24,72.24,58.35,52.54,0,0a9.12,9.12,0,0,1,3.26,6A7.87,7.87,0,0,1,1680.89,2013.91Z"/><path class="cls-55" d="M1681.45,2014.47a9.88,9.88,0,0,1-3.29,6.52l-22.88,20.42-.42.1c-42.8,10-118.94,14.34-207.35,5.13-.32-.06-175.42-15.13-212-40.15,0,0,59.36-53.46,59.36-53.46l38.12-34c30.41,34.43,92.37,74,130,88.92,72,28.5,148.41,24.26,188.91,11.84,10.94-3.37,19.77-7.81,26.23-13.26a.81.81,0,0,0,.17-.28,9.92,9.92,0,0,1,3.11,6.3A9,9,0,0,1,1681.45,2014.47Z"/><path class="cls-56" d="M1680.89,1730.33a9.19,9.19,0,0,1-3.28,6.06l-23.23,20.91-34.23,30.84-81.13,73a43.22,43.22,0,0,1-24,9.83c-1.26.11-2.54.17-3.83.17H1402.52c-1.28,0-2.57-.06-3.83-.17a43.22,43.22,0,0,1-24-9.83L1293.42,1788l-57.35-51.63a9.23,9.23,0,0,1-3.28-6.06,9.36,9.36,0,0,1,0-2,9.24,9.24,0,0,1,3.28-6l49.36-44.46,9.86-8.88,79.37-71.45a43.22,43.22,0,0,1,24-9.83c1.26-.11,2.55-.17,3.83-.17h108.64c1.29,0,2.57.06,3.83.17a43.22,43.22,0,0,1,24,9.83l80.24,72.24,58.35,52.55h0a9.16,9.16,0,0,1,3.26,6A7.87,7.87,0,0,1,1680.89,1730.33Z"/><path class="cls-57" d="M1681.45,1730.2a9.9,9.9,0,0,1-3.29,6.52l-22.88,20.42c-.13,0-.26,0-.42.09-42.8,10.06-118.94,14.34-207.35,5.13-.32,0-175.42-15.13-212-40.14,0,0,59.36-53.46,59.36-53.46l38.12-34c30.41,34.42,92.37,74,130,88.92,72,28.49,148.41,24.25,188.91,11.83,10.94-3.36,19.77-7.81,26.23-13.25a.77.77,0,0,0,.17-.29,9.92,9.92,0,0,1,3.11,6.3A9.08,9.08,0,0,1,1681.45,1730.2Z"/><path class="cls-58" d="M1680.89,1446.75a9.19,9.19,0,0,1-3.28,6.06l-23.23,20.91-34.23,30.84-81.13,73a43.2,43.2,0,0,1-24,9.82c-1.26.12-2.54.17-3.83.17H1402.52c-1.28,0-2.57,0-3.83-.17a43.2,43.2,0,0,1-24-9.82l-81.24-73.16-57.35-51.63a9.23,9.23,0,0,1-3.28-6.06,9.36,9.36,0,0,1,0-2,9.24,9.24,0,0,1,3.28-6l49.36-44.45,9.86-8.89,79.37-71.45a43.29,43.29,0,0,1,24-9.83c1.26-.11,2.55-.17,3.83-.17h108.64c1.29,0,2.57.06,3.83.17a43.29,43.29,0,0,1,24,9.83l80.24,72.25,58.35,52.54,0,0a9.12,9.12,0,0,1,3.26,6A7.87,7.87,0,0,1,1680.89,1446.75Z"/><path class="cls-59" d="M1681.45,1445.92a9.9,9.9,0,0,1-3.29,6.52l-22.88,20.42a3.82,3.82,0,0,1-.42.09c-42.8,10.06-118.94,14.35-207.35,5.14-.32-.06-175.42-15.14-212-40.15,0,0,59.36-53.46,59.36-53.46l38.12-34c30.41,34.42,92.37,74,130,88.92,72,28.49,148.41,24.25,188.91,11.83,10.94-3.36,19.77-7.81,26.23-13.25a.81.81,0,0,0,.17-.28,9.92,9.92,0,0,1,3.11,6.29A9.08,9.08,0,0,1,1681.45,1445.92Z"/><path class="cls-60" d="M1680.89,1162.83a9.19,9.19,0,0,1-3.28,6.06l-23.23,20.91-34.23,30.84-81.13,73a43.2,43.2,0,0,1-24,9.82c-1.26.11-2.54.17-3.83.17H1402.52c-1.28,0-2.57-.06-3.83-.17a43.2,43.2,0,0,1-24-9.82l-81.24-73.16-57.35-51.63a9.23,9.23,0,0,1-3.28-6.06,9.36,9.36,0,0,1,0-2,9.24,9.24,0,0,1,3.28-6l49.36-44.45,9.86-8.89,79.37-71.45a43.29,43.29,0,0,1,24-9.83c1.26-.11,2.55-.17,3.83-.17h108.64c1.29,0,2.57.06,3.83.17a43.29,43.29,0,0,1,24,9.83l80.24,72.25,58.35,52.54h0a9.16,9.16,0,0,1,3.26,6A7.87,7.87,0,0,1,1680.89,1162.83Z"/><path class="cls-61" d="M1681.45,1163.19a9.9,9.9,0,0,1-3.29,6.52l-22.88,20.42a3.82,3.82,0,0,1-.42.09c-42.8,10.06-118.94,14.35-207.35,5.14-.32-.06-175.42-15.14-212-40.15,0,0,59.36-53.46,59.36-53.46l38.12-34c30.41,34.42,92.37,74,130,88.92,72,28.49,148.41,24.25,188.91,11.83,10.94-3.36,19.77-7.8,26.23-13.25a.81.81,0,0,0,.17-.28,9.92,9.92,0,0,1,3.11,6.29A9.08,9.08,0,0,1,1681.45,1163.19Z"/><path class="cls-62" d="M33.46,24.56V2257.27H2880.58V24.56ZM2757.7,2160.85H154.45V733.08H2757.52V678.25H154.45V121H2757.7Z"/></g></svg>