<svg id="arrow" xmlns="http://www.w3.org/2000/svg" viewBox="0 0 454.75 338.09"><defs><style>.cls-1{fill:#133c2a;}.cls-2{fill:#267855;}</style></defs><title>insetleft copy</title><path class="cls-1" d="M242.55,43.9a15,15,0,0,1,15,15v68.72H402.91a15,15,0,0,1,15,15v52a15,15,0,0,1-15,15H257.57v69.53A14.59,14.59,0,0,1,253,290a14.86,14.86,0,0,1-10.45,4.22,15,15,0,0,1-7.47-2L44.35,182a15,15,0,0,1,0-26L235.08,45.93a15,15,0,0,1,7.47-2m0-32a47,47,0,0,0-23.48,6.32L28.35,128.34a47,47,0,0,0,0,81.41L219.07,319.87a47,47,0,0,0,23.47,6.31h0a47,47,0,0,0,47-47V241.64H402.91a47.06,47.06,0,0,0,47-47v-52a47.05,47.05,0,0,0-47-47H289.57V58.93a47.08,47.08,0,0,0-47-47Z"/><path class="cls-2" d="M242.55,43.9a15,15,0,0,1,15,15v68.72H402.91a15,15,0,0,1,15,15v52a15,15,0,0,1-15,15H257.57v69.53a15,15,0,0,1-22.5,13L44.34,182a15,15,0,0,1,0-26L235.07,45.94a14.85,14.85,0,0,1,7.48-2m0-16a31.09,31.09,0,0,0-15.49,4.18L36.34,142.2a31,31,0,0,0,0,53.69L227.07,306a31,31,0,0,0,46.5-26.84V225.64H402.91a31,31,0,0,0,31-31v-52a31,31,0,0,0-31-31H273.57V58.93a31.06,31.06,0,0,0-31-31Z"/></svg>