<svg xmlns="http://www.w3.org/2000/svg" viewBox="0 0 214.36 115.85"><defs><style>.cls-1{fill:#edce8c;}.cls-2{fill:#2e2e2e;}.cls-3,.cls-5{fill:#133c2a;}.cls-4{fill:none;}.cls-5{font-size:28.07px;font-family:Impact, Impact;}</style></defs><title>plain_yellowArtboard 1 copy 7</title><g id="Layer_13" data-name="Layer 13"><path class="cls-1" d="M20.86,109.45a100.24,100.24,0,0,1-.11-101.7H193.46a100.18,100.18,0,0,1-.11,101.7Z"/><path class="cls-2" d="M193.17,8.25a99.69,99.69,0,0,1-.1,100.7H21.15A99.72,99.72,0,0,1,21,8.25H193.17m.58-1H20.47A100.71,100.71,0,0,0,20.58,110H193.64a100.71,100.71,0,0,0,.11-102.7Z"/><path class="cls-3" d="M192,10.25a97.68,97.68,0,0,1-.11,96.7H22.3a97.75,97.75,0,0,1-.11-96.7H192m1.73-3H20.47A100.71,100.71,0,0,0,20.58,110H193.64a100.71,100.71,0,0,0,.11-102.7Z"/><path class="cls-4" d="M-35.89-99.19V183.24H246.55V-99.19ZM193.64,110H20.58a100.71,100.71,0,0,1-.11-102.7H193.75a100.71,100.71,0,0,1-.11,102.7Z"/><text class="cls-5" transform="translate(28.37 43.52) scale(1.03 1)">Progressive<tspan x="0" y="33.68">Abacus</tspan></text></g></svg>