<svg xmlns="http://www.w3.org/2000/svg" xmlns:xlink="http://www.w3.org/1999/xlink" viewBox="0 0 676.54 203.95"><defs><style>.cls-1{opacity:0.8;}.cls-2{fill:#996aab;}.cls-3{fill:#133c2a;}.cls-4{fill:url(#linear-gradient);}.cls-5{fill:url(#linear-gradient-2);}.cls-6{fill:url(#linear-gradient-3);}.cls-7{fill:url(#linear-gradient-4);}.cls-8{opacity:0.7;}.cls-9{fill:#ecf8ec;}.cls-10{opacity:0.1;}</style><linearGradient id="linear-gradient" x1="2.27" y1="30.31" x2="674.27" y2="30.31" gradientUnits="userSpaceOnUse"><stop offset="0" stop-color="#267855"/><stop offset="1" stop-color="#b1ddb1"/></linearGradient><linearGradient id="linear-gradient-2" x1="344.69" y1="9.96" x2="349.7" y2="9.96" xlink:href="#linear-gradient"/><linearGradient id="linear-gradient-3" x1="2.27" y1="30.31" x2="674.27" y2="30.31" gradientUnits="userSpaceOnUse"><stop offset="0" stop-color="#133c2a"/><stop offset="0.26" stop-color="#153f2c"/><stop offset="0.42" stop-color="#1e4733"/><stop offset="0.55" stop-color="#2c553f"/><stop offset="0.67" stop-color="#406a50"/><stop offset="0.77" stop-color="#598466"/><stop offset="0.87" stop-color="#79a481"/><stop offset="0.96" stop-color="#9ecaa1"/><stop offset="1" stop-color="#b1ddb1"/></linearGradient><linearGradient id="linear-gradient-4" x1="342.69" y1="9.96" x2="347.7" y2="9.96" xlink:href="#linear-gradient-3"/></defs><title>large_tagArtboard 5 copy 2</title><g id="Layer_15" data-name="Layer 15"><g class="cls-1"><path class="cls-2" d="M71.56,175.08c26.69,0,40.09,4.26,40.09,6.65s-13.4,6.65-40.09,6.65-40.09-4.26-40.09-6.65,13.4-6.65,40.09-6.65m0-1c-23,0-41.12,3.44-41.12,7.68s18.11,7.67,41.12,7.67,41.12-3.43,41.12-7.67-18.11-7.68-41.12-7.68Z"/></g><g class="cls-1"><path class="cls-2" d="M112.68,181.73a1.85,1.85,0,0,1-.47,1.17,9.5,9.5,0,0,1-4,2.36A64.26,64.26,0,0,1,95.36,188a186.78,186.78,0,0,1-23.8,1.4c-16.35,0-30.23-1.74-36.89-4.26-2.45-.93-3.93-2-4.18-3.07a.18.18,0,0,1,0-.1.25.25,0,0,1,0-.12.3.3,0,0,1,0-.13.25.25,0,0,1,0-.12.3.3,0,0,1,0-.13.2.2,0,0,1,0-.1c.25-1.1,1.73-2.13,4.18-3.06,6.66-2.52,20.54-4.26,36.89-4.26,5.86,0,11.4.22,16.4.62,8.76.71,15.89,2,20.2,3.53a9.52,9.52,0,0,1,4,2.34h0A1.85,1.85,0,0,1,112.68,181.73Z"/></g><g class="cls-1"><path class="cls-2" d="M112.68,181.73a.93.93,0,0,1-.25.54c-.38.47-1.32,1.2-3.67,2A65,65,0,0,1,96,187l-1.44.17a193.64,193.64,0,0,1-22.52,1.22c-15.89,0-30.07-1.61-37-4.2-2.94-1.1-3.49-2-3.59-2.3l0-.17,0-.18c.09-.31.63-1.2,3.59-2.31,6.92-2.58,21.1-4.19,37-4.19,5.78,0,11.34.21,16.52.62h.06c8.71.71,15.85,1.93,20.13,3.47,2.45.88,3.33,1.65,3.64,2l.07.08a1.05,1.05,0,0,1,.19.36A.41.41,0,0,1,112.68,181.73Z"/></g><path class="cls-3" d="M138.84,96.82l3.09-14.26c.52-2.37.94-4.87,1.25-7.43a58.18,58.18,0,0,0,.47-7.14c0-.5,0-.94,0-1.33v-.13l3.07-1.4v1c0,1.07-.1,2.82-.29,5.19-.13,1.62-.27,3-.41,4.12a31.48,31.48,0,0,1,3.14-5.21,22.84,22.84,0,0,1,4.57-4.74,7.52,7.52,0,0,1,4.34-1.77,3.87,3.87,0,0,1,3.21,1.6,6.79,6.79,0,0,1,1.19,4.19,16.54,16.54,0,0,1-1.4,6.52,22.65,22.65,0,0,1-3.81,6,19.73,19.73,0,0,1-5.31,4.34A12,12,0,0,1,146.19,88a8.2,8.2,0,0,1-1.52-.17l-.31-.07,1.56-2.09.14,0a7.33,7.33,0,0,0,2.36.38,7.12,7.12,0,0,0,3.94-1.31A12.91,12.91,0,0,0,155.94,81a22.41,22.41,0,0,0,2.5-5.57,20,20,0,0,0,1-5.76,6,6,0,0,0-.67-3.08,1.94,1.94,0,0,0-1.76-1,6.42,6.42,0,0,0-3.9,2,25.15,25.15,0,0,0-4.44,5.38,26.8,26.8,0,0,0-2.61,5.22,47.69,47.69,0,0,0-1.88,6.51l-2.66,12.23Z"/><path class="cls-3" d="M139.09,96.62l3-14c.52-2.38.93-4.87,1.25-7.45a58.37,58.37,0,0,0,.47-7.16c0-.5,0-.94,0-1.33l2.67-1.22v.68c0,1.07-.09,2.8-.29,5.18s-.4,4.21-.61,5.49a31.13,31.13,0,0,1,3.7-6.45,22.21,22.21,0,0,1,4.53-4.7,7.26,7.26,0,0,1,4.22-1.73,3.66,3.66,0,0,1,3,1.52,6.56,6.56,0,0,1,1.15,4.07,16.31,16.31,0,0,1-1.38,6.44,22.54,22.54,0,0,1-3.78,6,19.43,19.43,0,0,1-5.25,4.29,11.65,11.65,0,0,1-5.65,1.57,8.09,8.09,0,0,1-1.49-.17L146,85.86a8.11,8.11,0,0,0,2.43.38,7.32,7.32,0,0,0,4.05-1.34,13,13,0,0,0,3.63-3.81,22.45,22.45,0,0,0,2.53-5.62,20.08,20.08,0,0,0,1.05-5.82,6.16,6.16,0,0,0-.7-3.19,2.14,2.14,0,0,0-1.93-1.14q-1.76,0-4,2a25.15,25.15,0,0,0-4.48,5.44A26.84,26.84,0,0,0,145.91,78,49.43,49.43,0,0,0,144,84.54L141.4,96.62Z"/><path class="cls-3" d="M165,97.06a2,2,0,0,1-1.64-.7,2.71,2.71,0,0,1-.6-1.85,11.11,11.11,0,0,1,1.43-4.71c.34-.7.79-1.5,1.32-2.4q.66-1.09,1.59-2.52a4.08,4.08,0,0,1-.62.32,4.69,4.69,0,0,1-1.77.32,3.68,3.68,0,0,1-.79-.09,15.49,15.49,0,0,1-2.9,4.81l-.13.15-.73-.65.12-.15A15.14,15.14,0,0,0,163,85.1a3.59,3.59,0,0,1-1.93-3.23,2.77,2.77,0,0,1,.5-1.7,1.6,1.6,0,0,1,1.33-.69,1.58,1.58,0,0,1,1.35.76,3.18,3.18,0,0,1,.5,1.85,5.88,5.88,0,0,1-.22,1.53,4.12,4.12,0,0,0,.94.11,3.38,3.38,0,0,0,2.35-.82l.06,0h1.56l-.31.63a45.6,45.6,0,0,0-2.87,6.28,15.2,15.2,0,0,0-1.12,4.57,1.26,1.26,0,0,0,.25.81.66.66,0,0,0,.55.3c.41,0,1.28-.36,3.07-2.06l.14-.14.65.72-.12.14A18.57,18.57,0,0,1,167.55,96,4.15,4.15,0,0,1,165,97.06ZM162.88,80.9a.32.32,0,0,0-.26.16.65.65,0,0,0-.14.44,2.13,2.13,0,0,0,1.15,1.71,6.21,6.21,0,0,0,.05-.69,2.6,2.6,0,0,0-.25-1.23A.64.64,0,0,0,162.88,80.9Z"/><path class="cls-3" d="M160.45,89.72a14.72,14.72,0,0,0,2.8-4.72,3.42,3.42,0,0,1-2-3.13,2.51,2.51,0,0,1,.46-1.58,1.43,1.43,0,0,1,1.17-.61,1.39,1.39,0,0,1,1.19.67,3,3,0,0,1,.46,1.74,6.09,6.09,0,0,1-.27,1.68,5,5,0,0,0,1.19.17,3.58,3.58,0,0,0,2.48-.88h1.17l-.17.34a45.46,45.46,0,0,0-2.88,6.31A15.25,15.25,0,0,0,165,94.34a1.49,1.49,0,0,0,.29.93.87.87,0,0,0,.71.38c.66,0,1.73-.71,3.2-2.12l.39.44a17.11,17.11,0,0,1-2.11,1.87,4,4,0,0,1-2.41,1,1.86,1.86,0,0,1-1.49-.63,2.5,2.5,0,0,1-.55-1.72,10.85,10.85,0,0,1,1.41-4.62c.34-.7.78-1.49,1.31-2.38s1.21-2,2-3.19L168,84a5.5,5.5,0,0,1-1.54,1,4.5,4.5,0,0,1-1.69.3,3.81,3.81,0,0,1-.92-.12,14.94,14.94,0,0,1-2.92,4.91Zm3.33-6.17a6.2,6.2,0,0,0,.1-1,2.63,2.63,0,0,0-.28-1.33.81.81,0,0,0-.72-.49.53.53,0,0,0-.42.23.92.92,0,0,0-.18.57A2.5,2.5,0,0,0,163.78,83.55Z"/><path class="cls-3" d="M173.67,97.09a1.73,1.73,0,0,1-1.44-.85,3.56,3.56,0,0,1-.56-2,14.24,14.24,0,0,1,.3-2.34l1.55-8.61,2.86-1.2-2.25,8.39a12.52,12.52,0,0,0-.52,3.11,2.48,2.48,0,0,0,.24,1.17c.19.34.39.38.53.38.3,0,.94-.3,2.26-1.74l.13-.14.69.6-.38.42A24.94,24.94,0,0,1,175,96.47,2.13,2.13,0,0,1,173.67,97.09Zm3.11-21.17a1.69,1.69,0,0,1-1.63-1.63,1.57,1.57,0,0,1,.47-1.14,1.6,1.6,0,0,1,1.16-.47,1.51,1.51,0,0,1,1.61,1.61,1.58,1.58,0,0,1-.47,1.16A1.55,1.55,0,0,1,176.78,75.92Z"/><path class="cls-3" d="M176.08,82.4l-2.14,8a12.54,12.54,0,0,0-.53,3.16,2.68,2.68,0,0,0,.26,1.26.8.8,0,0,0,.71.49q.75,0,2.4-1.8l.39.34-.24.27a23.16,23.16,0,0,1-2,2.2,1.93,1.93,0,0,1-1.22.57,1.52,1.52,0,0,1-1.27-.77,3.29,3.29,0,0,1-.53-1.91,13.89,13.89,0,0,1,.3-2.3l1.53-8.51Zm.7-9.52a1.36,1.36,0,0,1,1,.39,1.44,1.44,0,1,1-2,0A1.42,1.42,0,0,1,176.78,72.88Z"/><path class="cls-3" d="M181,83.26l2.77-1.2L182,89.69a24.12,24.12,0,0,1,3.28-5c1.36-1.51,2.69-2.27,4-2.27a2.1,2.1,0,0,1,1.6.66,2.4,2.4,0,0,1,.62,1.72,6.56,6.56,0,0,1-.28,1.63l-.24,1-.73,3-.24,1a9.72,9.72,0,0,0-.36,2.18,2.41,2.41,0,0,0,.24,1.16.61.61,0,0,0,.53.37c.31,0,.94-.3,2.26-1.74l.13-.14.69.6-.38.42A22.27,22.27,0,0,1,191,96.47a2.11,2.11,0,0,1-1.34.62,1.7,1.7,0,0,1-1.44-.86,3.51,3.51,0,0,1-.56-2,13.52,13.52,0,0,1,.3-2.34l.94-5.15a12,12,0,0,0,.19-1.67.82.82,0,0,0-.21-.63.78.78,0,0,0-.58-.21c-1.05,0-2.38,1.18-4,3.51a23.21,23.21,0,0,0-2,3.38,45.34,45.34,0,0,0-1.74,4.66l-.25.75-2,.64Z"/><path class="cls-3" d="M178.63,96.86l2.58-13.46,2.31-1-2.09,8.92a27,27,0,0,1,4-6.46c1.32-1.48,2.6-2.21,3.81-2.21a1.93,1.93,0,0,1,1.46.59,2.25,2.25,0,0,1,.56,1.59,6.62,6.62,0,0,1-.27,1.58l-.24,1-.73,3-.24.95a9.71,9.71,0,0,0-.37,2.23,2.49,2.49,0,0,0,.27,1.25.79.79,0,0,0,.7.48c.5,0,1.31-.6,2.41-1.8l.39.34-.25.27a23.16,23.16,0,0,1-2,2.2,1.91,1.91,0,0,1-1.21.57,1.54,1.54,0,0,1-1.28-.77,3.28,3.28,0,0,1-.52-1.91,14,14,0,0,1,.29-2.3l.95-5.16a12.27,12.27,0,0,0,.19-1.7,1.1,1.1,0,0,0-.26-.78,1,1,0,0,0-.73-.26q-1.68,0-4.13,3.6a22.26,22.26,0,0,0-2,3.41,44.76,44.76,0,0,0-1.75,4.68l-.22.65Z"/><path class="cls-3" d="M197.78,97.09a2.6,2.6,0,0,1-2-.83,3.11,3.11,0,0,1-.74-2.14,14.14,14.14,0,0,1,.37-2.72l1.53-7.56h-2.34l.26-1.22h2.33l1.35-6.51,2.79-1.1-1.73,7.61h3.93l-.25,1.22h-3.94l-1.82,7.94a10,10,0,0,0-.28,1.85,2,2,0,0,0,.37,1.29,1.11,1.11,0,0,0,.93.46,1.86,1.86,0,0,0,1.09-.35,12.71,12.71,0,0,0,1.64-1.54l.43-.43.64.63-.12.14a15.35,15.35,0,0,1-2.43,2.5A3.36,3.36,0,0,1,197.78,97.09Z"/><path class="cls-3" d="M199.17,83.64l-1.85,8.1a9.81,9.81,0,0,0-.29,1.89,2.21,2.21,0,0,0,.41,1.41,1.31,1.31,0,0,0,1.09.54,2.11,2.11,0,0,0,1.21-.38,12,12,0,0,0,1.66-1.57l.29-.29.37.36a15.4,15.4,0,0,1-2.4,2.47,3.13,3.13,0,0,1-1.88.72,2.38,2.38,0,0,1-1.86-.77,2.88,2.88,0,0,1-.69-2,14.46,14.46,0,0,1,.36-2.68l1.58-7.8h-2.33l.17-.82h2.33l1.36-6.56,2.34-.93-1.7,7.49h3.93l-.17.82Z"/><path class="cls-3" d="M206.43,97.11A2.86,2.86,0,0,1,204.09,96a4.37,4.37,0,0,1-.85-2.8,10.62,10.62,0,0,1,1.33-4.88,13.37,13.37,0,0,1,3.28-4.18,6.15,6.15,0,0,1,3.88-1.66,3.48,3.48,0,0,1,2.79,1.17l.18-.63,2.74-1.14-2.38,9.28a9.88,9.88,0,0,0-.36,2.24A2.24,2.24,0,0,0,215,94.6a.73.73,0,0,0,.6.44c.29,0,.89-.29,2.19-1.67l.14-.15.62.62-.39.46a23.11,23.11,0,0,1-2,2.1,2.16,2.16,0,0,1-1.33.64,1.83,1.83,0,0,1-1.52-.9,3.42,3.42,0,0,1-.6-2,18.93,18.93,0,0,1,.45-2.91,20.14,20.14,0,0,1-1.72,2.6C209.71,96,208,97.11,206.43,97.11Zm5.35-13.51a3.47,3.47,0,0,0-2.13.94,9.34,9.34,0,0,0-2.14,2.68,16,16,0,0,0-1.29,3,9.52,9.52,0,0,0-.51,2.71,3.28,3.28,0,0,0,.44,1.83,1.32,1.32,0,0,0,1.18.62,3.45,3.45,0,0,0,2.2-1,12.54,12.54,0,0,0,2.37-2.94,10.94,10.94,0,0,0,1.13-2.2c.27-.74.58-1.78.91-3.09l.21-.79a2.68,2.68,0,0,0-.9-1.3A2.38,2.38,0,0,0,211.78,83.6Z"/><path class="cls-3" d="M217.15,82.26l-2.28,8.89a9.8,9.8,0,0,0-.37,2.29,2.46,2.46,0,0,0,.32,1.26.91.91,0,0,0,.77.54c.47,0,1.25-.58,2.34-1.73l.34.34-.27.32a22.27,22.27,0,0,1-2,2.07,2,2,0,0,1-1.2.6,1.63,1.63,0,0,1-1.35-.82,3.17,3.17,0,0,1-.57-1.88,22.72,22.72,0,0,1,.58-3.52l.19-.93a17.68,17.68,0,0,1-2.4,4q-2.53,3.21-4.84,3.21a2.65,2.65,0,0,1-2.18-1,4.14,4.14,0,0,1-.81-2.68,10.43,10.43,0,0,1,1.3-4.78A13.18,13.18,0,0,1,208,84.34a5.91,5.91,0,0,1,3.75-1.62,3.22,3.22,0,0,1,2.87,1.41l.27-.92Zm-2.8,3.11a2.79,2.79,0,0,0-1-1.45,2.55,2.55,0,0,0-1.59-.52,3.65,3.65,0,0,0-2.26,1,10,10,0,0,0-2.19,2.74,15.73,15.73,0,0,0-1.3,3.06,9.65,9.65,0,0,0-.52,2.77,3.51,3.51,0,0,0,.47,2,1.54,1.54,0,0,0,1.35.7,3.66,3.66,0,0,0,2.33-1,12.72,12.72,0,0,0,2.41-3,10.77,10.77,0,0,0,1.14-2.24,30.94,30.94,0,0,0,.93-3.11Z"/><path class="cls-3" d="M224.8,97.23a5.15,5.15,0,0,1-1.79-.31,8.55,8.55,0,0,1-1.78-1l-2,1.19,6.62-33.67,3-1.46-6.66,28.51c2.69-5.48,5.3-8.16,7.95-8.16a2.9,2.9,0,0,1,1.63.49A3.14,3.14,0,0,1,233,84.27a4.85,4.85,0,0,1,.39,1.92,11.64,11.64,0,0,1-.89,4.17,14.09,14.09,0,0,1-2.24,3.91A7,7,0,0,1,224.8,97.23Zm-3-3.1a3.18,3.18,0,0,0,2.92,2.1A3.58,3.58,0,0,0,227.32,95a10.72,10.72,0,0,0,2.18-3.6,18.83,18.83,0,0,0,.92-2.92,12,12,0,0,0,.36-2.5c0-1.4-.46-2.08-1.41-2.08a3.66,3.66,0,0,0-2.29,1.25,17,17,0,0,0-2.7,3.62A38.16,38.16,0,0,0,221.84,94.13Z"/><path class="cls-3" d="M226,63.62l2.58-1.24-7,30q4.38-9.77,8.58-9.77a2.66,2.66,0,0,1,1.52.45,3,3,0,0,1,1,1.33,4.63,4.63,0,0,1,.38,1.84,11.45,11.45,0,0,1-.87,4.1,13.94,13.94,0,0,1-2.22,3.85A6.77,6.77,0,0,1,224.8,97a5,5,0,0,1-1.72-.3,8.45,8.45,0,0,1-1.85-1l-1.7,1Zm-4.42,30.52a3.43,3.43,0,0,0,3.14,2.29,3.76,3.76,0,0,0,2.71-1.27,11.1,11.1,0,0,0,2.22-3.67,18.55,18.55,0,0,0,.92-2.95A11.67,11.67,0,0,0,231,86c0-1.52-.54-2.28-1.61-2.28A3.77,3.77,0,0,0,226.94,85a16.86,16.86,0,0,0-2.73,3.66A38.09,38.09,0,0,0,221.62,94.14Z"/><path class="cls-3" d="M237.59,97.09a1.74,1.74,0,0,1-1.44-.9,3.47,3.47,0,0,1-.59-2,13.73,13.73,0,0,1,.32-2.34l5.64-28.39,3-1.46-6.7,29.37a10.35,10.35,0,0,0-.31,2.22,2.27,2.27,0,0,0,.25,1.12.61.61,0,0,0,.52.38c.31,0,.94-.3,2.26-1.74l.13-.14.69.6-.38.42a23.5,23.5,0,0,1-2.06,2.22A2.11,2.11,0,0,1,237.59,97.09Z"/><path class="cls-3" d="M244.25,62.38l-6.39,28-.22.95a10.15,10.15,0,0,0-.32,2.26,2.32,2.32,0,0,0,.28,1.22.81.81,0,0,0,.69.48c.5,0,1.31-.6,2.41-1.8l.39.34-.25.27a23.16,23.16,0,0,1-2,2.2,1.91,1.91,0,0,1-1.21.57,1.55,1.55,0,0,1-1.28-.82,3.28,3.28,0,0,1-.54-1.86,13.13,13.13,0,0,1,.31-2.3l5.61-28.29Z"/><path class="cls-3" d="M246.65,97.19a4.26,4.26,0,0,1-3.3-1.38,5.18,5.18,0,0,1-1.25-3.61,9.93,9.93,0,0,1,1.18-4.53,12.3,12.3,0,0,1,2.94-3.78,5.57,5.57,0,0,1,3.57-1.52,2.55,2.55,0,0,1,1.77.64,2.14,2.14,0,0,1,.71,1.65,5.46,5.46,0,0,1-2.1,3.89,17.07,17.07,0,0,1-5.52,3.18,2.81,2.81,0,0,0,0,.3,3.82,3.82,0,0,0,.87,2.6,2.82,2.82,0,0,0,2.24,1,3.79,3.79,0,0,0,2.1-.68,10.67,10.67,0,0,0,2.23-2.21l.13-.16.74.62-.11.15a11.67,11.67,0,0,1-3,2.93A6,6,0,0,1,246.65,97.19Zm2.92-13.83c-1,0-2,.8-3,2.4a11.81,11.81,0,0,0-1.84,4.92,12.61,12.61,0,0,0,3.66-2.41,8.51,8.51,0,0,0,1.49-2,4.16,4.16,0,0,0,.56-1.92C250.41,83.65,250.15,83.36,249.57,83.36Z"/><path class="cls-3" d="M252.24,92.85l.44.37a11.57,11.57,0,0,1-2.94,2.88,5.79,5.79,0,0,1-3.09.88,4.05,4.05,0,0,1-3.16-1.31,5,5,0,0,1-1.19-3.47,9.68,9.68,0,0,1,1.16-4.44A11.91,11.91,0,0,1,246.35,84a5.36,5.36,0,0,1,3.44-1.47,2.36,2.36,0,0,1,1.64.59,1.93,1.93,0,0,1,.64,1.5,5.25,5.25,0,0,1-2,3.75,17,17,0,0,1-5.56,3.18,2.94,2.94,0,0,0,0,.44,4,4,0,0,0,.92,2.73,3,3,0,0,0,2.39,1.06A3.92,3.92,0,0,0,250,95.1,10.83,10.83,0,0,0,252.24,92.85ZM244.47,91a13.3,13.3,0,0,0,4-2.6A9.1,9.1,0,0,0,250,86.32a4.44,4.44,0,0,0,.58-2c0-.76-.34-1.14-1-1.14-1,0-2.12.83-3.2,2.49A12,12,0,0,0,244.47,91Z"/><path class="cls-3" d="M266,97.11A2.86,2.86,0,0,1,263.63,96a4.37,4.37,0,0,1-.85-2.8,10.62,10.62,0,0,1,1.33-4.88,13.37,13.37,0,0,1,3.28-4.18,6.15,6.15,0,0,1,3.88-1.66,3.48,3.48,0,0,1,2.79,1.17l.18-.63L277,81.92,274.6,91.2a9.88,9.88,0,0,0-.36,2.24,2.24,2.24,0,0,0,.29,1.16.73.73,0,0,0,.6.44c.29,0,.89-.29,2.19-1.67l.14-.15.62.62-.39.46a23.11,23.11,0,0,1-2,2.1,2.16,2.16,0,0,1-1.33.64,1.83,1.83,0,0,1-1.52-.9,3.42,3.42,0,0,1-.6-2,18.93,18.93,0,0,1,.45-2.91,20.14,20.14,0,0,1-1.72,2.6C269.25,96,267.57,97.11,266,97.11Zm5.35-13.51a3.47,3.47,0,0,0-2.13.94,9.34,9.34,0,0,0-2.14,2.68,16,16,0,0,0-1.29,3,9.52,9.52,0,0,0-.51,2.71,3.28,3.28,0,0,0,.44,1.83,1.32,1.32,0,0,0,1.18.62,3.45,3.45,0,0,0,2.2-1,12.54,12.54,0,0,0,2.37-2.94,10.94,10.94,0,0,0,1.13-2.2c.27-.74.58-1.78.91-3.09l.21-.79a2.68,2.68,0,0,0-.9-1.3A2.38,2.38,0,0,0,271.32,83.6Z"/><path class="cls-3" d="M276.69,82.26l-2.28,8.89a9.8,9.8,0,0,0-.37,2.29,2.46,2.46,0,0,0,.32,1.26.91.91,0,0,0,.77.54c.47,0,1.25-.58,2.34-1.73l.34.34-.27.32a22.27,22.27,0,0,1-2,2.07,2,2,0,0,1-1.2.6A1.63,1.63,0,0,1,273,96a3.17,3.17,0,0,1-.57-1.88,22.72,22.72,0,0,1,.58-3.52l.19-.93a17.68,17.68,0,0,1-2.4,4q-2.54,3.21-4.84,3.21a2.65,2.65,0,0,1-2.18-1,4.14,4.14,0,0,1-.81-2.68,10.43,10.43,0,0,1,1.3-4.78,13.18,13.18,0,0,1,3.24-4.12,5.91,5.91,0,0,1,3.75-1.62,3.22,3.22,0,0,1,2.87,1.41l.27-.92Zm-2.8,3.11a2.79,2.79,0,0,0-1-1.45,2.55,2.55,0,0,0-1.59-.52,3.65,3.65,0,0,0-2.26,1,10,10,0,0,0-2.19,2.74,15.73,15.73,0,0,0-1.3,3.06,9.65,9.65,0,0,0-.52,2.77,3.51,3.51,0,0,0,.47,2,1.54,1.54,0,0,0,1.35.7,3.66,3.66,0,0,0,2.33-1,12.72,12.72,0,0,0,2.41-3,10.77,10.77,0,0,0,1.14-2.24,30.94,30.94,0,0,0,.93-3.11Z"/><path class="cls-3" d="M284.34,97.23a5.19,5.19,0,0,1-1.79-.31,8.55,8.55,0,0,1-1.78-1l-2,1.19,6.62-33.67,3-1.46-6.66,28.51c2.69-5.48,5.3-8.16,7.95-8.16a2.9,2.9,0,0,1,1.63.49,3.14,3.14,0,0,1,1.12,1.41,4.85,4.85,0,0,1,.39,1.92,11.64,11.64,0,0,1-.89,4.17,14.09,14.09,0,0,1-2.24,3.91A7,7,0,0,1,284.34,97.23Zm-3-3.1a3.18,3.18,0,0,0,2.92,2.1A3.58,3.58,0,0,0,286.86,95a10.72,10.72,0,0,0,2.18-3.6A18.83,18.83,0,0,0,290,88.5a12,12,0,0,0,.36-2.5c0-1.4-.46-2.08-1.41-2.08a3.66,3.66,0,0,0-2.29,1.25,17,17,0,0,0-2.7,3.62A38.16,38.16,0,0,0,281.38,94.13Z"/><path class="cls-3" d="M285.58,63.62l2.58-1.24-7,30q4.38-9.77,8.58-9.77a2.66,2.66,0,0,1,1.52.45,3,3,0,0,1,1,1.33,4.63,4.63,0,0,1,.38,1.84,11.45,11.45,0,0,1-.87,4.1,13.94,13.94,0,0,1-2.22,3.85A6.77,6.77,0,0,1,284.34,97a5,5,0,0,1-1.72-.3,8.45,8.45,0,0,1-1.85-1l-1.7,1Zm-4.42,30.52a3.43,3.43,0,0,0,3.14,2.29A3.76,3.76,0,0,0,287,95.16a11.1,11.1,0,0,0,2.22-3.67,18.55,18.55,0,0,0,.92-2.95,11.67,11.67,0,0,0,.37-2.54c0-1.52-.54-2.28-1.61-2.28A3.77,3.77,0,0,0,286.48,85a16.86,16.86,0,0,0-2.73,3.66A38.09,38.09,0,0,0,281.16,94.14Z"/><path class="cls-3" d="M297.66,97.11A2.86,2.86,0,0,1,295.32,96a4.37,4.37,0,0,1-.85-2.8,10.62,10.62,0,0,1,1.33-4.88,13.37,13.37,0,0,1,3.28-4.18A6.15,6.15,0,0,1,303,82.52a3.48,3.48,0,0,1,2.79,1.17l.18-.63,2.74-1.14-2.38,9.28a9.88,9.88,0,0,0-.36,2.24,2.24,2.24,0,0,0,.29,1.16.73.73,0,0,0,.6.44c.29,0,.89-.29,2.19-1.67l.14-.15.62.62-.39.46a23.11,23.11,0,0,1-2,2.1,2.16,2.16,0,0,1-1.33.64,1.83,1.83,0,0,1-1.52-.9,3.42,3.42,0,0,1-.6-2,18.93,18.93,0,0,1,.45-2.91,20.14,20.14,0,0,1-1.72,2.6C300.94,96,299.26,97.11,297.66,97.11ZM303,83.6a3.47,3.47,0,0,0-2.13.94,9.34,9.34,0,0,0-2.14,2.68,16,16,0,0,0-1.29,3,9.52,9.52,0,0,0-.51,2.71,3.28,3.28,0,0,0,.44,1.83,1.32,1.32,0,0,0,1.18.62,3.45,3.45,0,0,0,2.2-1,12.54,12.54,0,0,0,2.37-2.94,10.94,10.94,0,0,0,1.13-2.2c.27-.74.58-1.78.91-3.09l.21-.79a2.68,2.68,0,0,0-.9-1.3A2.38,2.38,0,0,0,303,83.6Z"/><path class="cls-3" d="M308.38,82.26l-2.28,8.89a9.8,9.8,0,0,0-.37,2.29,2.46,2.46,0,0,0,.32,1.26.91.91,0,0,0,.77.54c.47,0,1.25-.58,2.34-1.73l.34.34-.27.32a22.27,22.27,0,0,1-2,2.07,2,2,0,0,1-1.2.6A1.63,1.63,0,0,1,304.7,96a3.17,3.17,0,0,1-.57-1.88,22.72,22.72,0,0,1,.58-3.52l.19-.93a17.68,17.68,0,0,1-2.4,4q-2.53,3.21-4.84,3.21a2.65,2.65,0,0,1-2.18-1,4.14,4.14,0,0,1-.81-2.68,10.43,10.43,0,0,1,1.3-4.78,13.18,13.18,0,0,1,3.24-4.12A5.91,5.91,0,0,1,303,82.72a3.22,3.22,0,0,1,2.87,1.41l.27-.92Zm-2.8,3.11a2.79,2.79,0,0,0-1-1.45A2.55,2.55,0,0,0,303,83.4a3.65,3.65,0,0,0-2.26,1,9.8,9.8,0,0,0-2.19,2.74,15.73,15.73,0,0,0-1.3,3.06,9.65,9.65,0,0,0-.52,2.77,3.51,3.51,0,0,0,.47,2,1.54,1.54,0,0,0,1.35.7,3.66,3.66,0,0,0,2.33-1,12.72,12.72,0,0,0,2.41-3,10.77,10.77,0,0,0,1.14-2.24,30.94,30.94,0,0,0,.93-3.11Z"/><path class="cls-3" d="M315.09,97.19a4.14,4.14,0,0,1-3.2-1.38,5.1,5.1,0,0,1-1.23-3.54,10.1,10.1,0,0,1,1.16-4.54,11.91,11.91,0,0,1,3-3.8,5.65,5.65,0,0,1,3.57-1.53,2.75,2.75,0,0,1,1.93.67,2.32,2.32,0,0,1,.75,1.81,3,3,0,0,1-.77,1.94,2.21,2.21,0,0,1-1.69.94,1.11,1.11,0,0,1-.8-.35l-.21-.21.27-.12a2.42,2.42,0,0,0,1.46-2.44,1.29,1.29,0,0,0-.3-.92,1,1,0,0,0-.79-.31,2.71,2.71,0,0,0-1.68.68,7.68,7.68,0,0,0-1.67,2,11.3,11.3,0,0,0-1.23,2.72,10.09,10.09,0,0,0-.44,2.92,4.52,4.52,0,0,0,.81,2.8,2.46,2.46,0,0,0,2.07,1,4,4,0,0,0,2.2-.72,10.78,10.78,0,0,0,2.29-2.27l.13-.16.63.54-.1.15a12.45,12.45,0,0,1-2.93,3.1A5.57,5.57,0,0,1,315.09,97.19Z"/><path class="cls-3" d="M321.07,93a12.15,12.15,0,0,1-2.88,3,5.38,5.38,0,0,1-3.1,1,3.88,3.88,0,0,1-3-1.31,4.87,4.87,0,0,1-1.18-3.4A9.84,9.84,0,0,1,312,87.82a11.64,11.64,0,0,1,2.93-3.74,5.47,5.47,0,0,1,3.44-1.48,2.61,2.61,0,0,1,1.8.62,2.15,2.15,0,0,1,.68,1.66,2.78,2.78,0,0,1-.72,1.81,2,2,0,0,1-1.54.87.88.88,0,0,1-.66-.3,2.61,2.61,0,0,0,1.58-2.62,1.52,1.52,0,0,0-.35-1.06,1.24,1.24,0,0,0-.94-.37,2.89,2.89,0,0,0-1.81.73,7.64,7.64,0,0,0-1.71,2,11.71,11.71,0,0,0-1.25,2.77,10.21,10.21,0,0,0-.45,3,4.69,4.69,0,0,0,.85,2.92,2.68,2.68,0,0,0,2.23,1.12,4.08,4.08,0,0,0,2.31-.76,10.72,10.72,0,0,0,2.34-2.31Z"/><path class="cls-3" d="M332.9,97.09a1.73,1.73,0,0,1-1.44-.85,3.56,3.56,0,0,1-.56-2v-.06c-1.59,1.95-3.2,2.94-4.78,2.94a2.94,2.94,0,0,1-2.12-.77,2.76,2.76,0,0,1-.8-2.06,12.15,12.15,0,0,1,.27-2.3l1.67-8.7,2.83-1.2-2.46,9.8A9.18,9.18,0,0,0,325.2,94a1.57,1.57,0,0,0,.48,1.21,1.68,1.68,0,0,0,1.24.46c1.3,0,2.69-1.11,4.14-3.29l.09-.15c0-.08,0-.21.05-.31l1.55-8.61,2.85-1.2-2.24,8.39a12.69,12.69,0,0,0-.53,3.11,2.36,2.36,0,0,0,.25,1.17c.18.34.39.38.53.38.3,0,.94-.3,2.25-1.74l.14-.14.68.6-.37.42a25.09,25.09,0,0,1-2.06,2.22A2.16,2.16,0,0,1,332.9,97.09Z"/><path class="cls-3" d="M327.68,82.4l-2.36,9.41A9.09,9.09,0,0,0,325,94a1.78,1.78,0,0,0,.54,1.36,1.9,1.9,0,0,0,1.38.51q2.07,0,4.3-3.38l.1-.15c0-.16.06-.29.07-.38l1.53-8.51,2.39-1-2.14,8a12.64,12.64,0,0,0-.54,3.16,2.56,2.56,0,0,0,.27,1.26.79.79,0,0,0,.71.49q.75,0,2.4-1.8l.39.34-.24.27a26.22,26.22,0,0,1-2,2.2,2,2,0,0,1-1.22.57,1.54,1.54,0,0,1-1.28-.77,3.36,3.36,0,0,1-.52-1.91c0-.24,0-.47,0-.68q-2.53,3.36-5,3.36a2.71,2.71,0,0,1-2-.72,2.51,2.51,0,0,1-.74-1.91,11.78,11.78,0,0,1,.27-2.26l1.65-8.6Z"/><path class="cls-3" d="M340.05,97.26a4.61,4.61,0,0,1-3.81-2.08l-.1-.12,1.68-2,.13.3a3.35,3.35,0,0,0,3.21,2.41,2.76,2.76,0,0,0,1.95-.74,2.22,2.22,0,0,0,.79-1.69,1.81,1.81,0,0,0-.37-1.16,14.71,14.71,0,0,0-1.93-1.77,11.81,11.81,0,0,1-2-1.87,2.71,2.71,0,0,1-.54-1.66,3.86,3.86,0,0,1,.71-2.23,5.31,5.31,0,0,1,4.3-2.25,3.23,3.23,0,0,1,2,.59,1.88,1.88,0,0,1,.82,1.56,1.71,1.71,0,0,1-1.07,1.71l-.24.11,0-.27a2.59,2.59,0,0,0-.79-1.66,2.48,2.48,0,0,0-1.71-.59,2.33,2.33,0,0,0-1.6.59,1.73,1.73,0,0,0-.67,1.32,2.53,2.53,0,0,0,1.18,1.86l1.41,1.15a4.63,4.63,0,0,1,2.15,3.48,4.56,4.56,0,0,1-.75,2.48,5.49,5.49,0,0,1-2,1.83A5.68,5.68,0,0,1,340.05,97.26Z"/><path class="cls-3" d="M336.4,95.07l1.36-1.61a3.56,3.56,0,0,0,3.4,2.53,3,3,0,0,0,2.08-.79,2.41,2.41,0,0,0,.86-1.84,2,2,0,0,0-.41-1.28,14.1,14.1,0,0,0-2-1.8,12.13,12.13,0,0,1-1.93-1.84,2.51,2.51,0,0,1-.5-1.54,3.6,3.6,0,0,1,.67-2.11,5.16,5.16,0,0,1,4.14-2.17,3.06,3.06,0,0,1,1.84.55,1.67,1.67,0,0,1,.74,1.4,1.54,1.54,0,0,1-.95,1.53,2.75,2.75,0,0,0-.86-1.79,2.64,2.64,0,0,0-1.84-.64,2.54,2.54,0,0,0-1.73.64,1.89,1.89,0,0,0-.74,1.47,2.71,2.71,0,0,0,1.26,2l1.41,1.14c1.38,1.09,2.06,2.2,2.06,3.33a4.27,4.27,0,0,1-.71,2.37,5.19,5.19,0,0,1-1.95,1.76,5.35,5.35,0,0,1-2.58.66A4.43,4.43,0,0,1,336.4,95.07Z"/><path class="cls-3" d="M363,106.47l3.13-14.3a19.55,19.55,0,0,1-1.85,2.56c-1.38,1.65-2.78,2.48-4.17,2.48a3,3,0,0,1-2.47-1.13,4.36,4.36,0,0,1-.91-2.86,11.61,11.61,0,0,1,2.64-6.93,11.3,11.3,0,0,1,2.86-2.76,5.73,5.73,0,0,1,3-.91,4,4,0,0,1,2.8,1l.14-.6,2.7-1.14-6.19,24.55Zm2.39-22.77a3.46,3.46,0,0,0-2,.77,7.27,7.27,0,0,0-1.83,2,16.56,16.56,0,0,0-1.67,3.56,10.59,10.59,0,0,0-.64,3.27,2.67,2.67,0,0,0,.49,1.68,1.54,1.54,0,0,0,1.28.59,3.66,3.66,0,0,0,2.38-1.32,14.83,14.83,0,0,0,2.49-3.6,17.62,17.62,0,0,0,1.59-4.51l.19-.87A2.32,2.32,0,0,0,365.42,83.7Z"/><path class="cls-3" d="M370.62,82.26l-6.05,24h-1.29l3.38-15.43a18,18,0,0,1-2.51,3.76q-2,2.41-4,2.41A2.84,2.84,0,0,1,357.82,96a4.19,4.19,0,0,1-.86-2.73,11.35,11.35,0,0,1,2.6-6.81,11.07,11.07,0,0,1,2.81-2.71,5.39,5.39,0,0,1,2.9-.88,3.74,3.74,0,0,1,2.92,1.24l.19-.85Zm-2.72,3a2.54,2.54,0,0,0-2.48-1.77,3.65,3.65,0,0,0-2.13.81,7.39,7.39,0,0,0-1.88,2.08,16.93,16.93,0,0,0-1.69,3.6,10.73,10.73,0,0,0-.65,3.33,2.81,2.81,0,0,0,.54,1.81,1.73,1.73,0,0,0,1.43.66,3.82,3.82,0,0,0,2.52-1.38,14.32,14.32,0,0,0,2.52-3.65,17.61,17.61,0,0,0,1.62-4.57Z"/><path class="cls-3" d="M382.11,97.09a1.73,1.73,0,0,1-1.44-.85,3.56,3.56,0,0,1-.56-2v-.06c-1.59,1.95-3.19,2.94-4.78,2.94a3,3,0,0,1-2.12-.77,2.76,2.76,0,0,1-.8-2.06,12.15,12.15,0,0,1,.27-2.3l1.67-8.7,2.83-1.2-2.46,9.8a9.18,9.18,0,0,0-.31,2.09,1.57,1.57,0,0,0,.48,1.21,1.7,1.7,0,0,0,1.24.46c1.3,0,2.69-1.11,4.14-3.29l.1-.15a1.88,1.88,0,0,1,0-.31L382,83.26l2.86-1.2-2.25,8.39a12.59,12.59,0,0,0-.52,3.11,2.48,2.48,0,0,0,.24,1.17c.19.34.39.38.53.38.3,0,.94-.3,2.26-1.74l.13-.14.69.6-.38.42a23.63,23.63,0,0,1-2.06,2.22A2.13,2.13,0,0,1,382.11,97.09Z"/><path class="cls-3" d="M376.89,82.4l-2.36,9.41a9.09,9.09,0,0,0-.32,2.14,1.78,1.78,0,0,0,.54,1.36,1.91,1.91,0,0,0,1.38.51c1.38,0,2.81-1.13,4.31-3.38l.09-.15c0-.16.06-.29.08-.38l1.53-8.51,2.38-1-2.14,8a12.54,12.54,0,0,0-.53,3.16,2.57,2.57,0,0,0,.26,1.26.8.8,0,0,0,.71.49q.75,0,2.4-1.8l.39.34-.24.27a23.16,23.16,0,0,1-2,2.2,2,2,0,0,1-1.22.57,1.51,1.51,0,0,1-1.27-.77,3.29,3.29,0,0,1-.53-1.91c0-.24,0-.47,0-.68q-2.54,3.36-5,3.36a2.74,2.74,0,0,1-2-.72,2.55,2.55,0,0,1-.74-1.91,11.78,11.78,0,0,1,.27-2.26l1.65-8.6Z"/><path class="cls-3" d="M391.3,97.19A4.28,4.28,0,0,1,388,95.81a5.22,5.22,0,0,1-1.24-3.61,9.92,9.92,0,0,1,1.17-4.53,12.18,12.18,0,0,1,2.95-3.78,5.56,5.56,0,0,1,3.56-1.52,2.57,2.57,0,0,1,1.78.64,2.14,2.14,0,0,1,.71,1.65,5.44,5.44,0,0,1-2.11,3.89,16.91,16.91,0,0,1-5.51,3.18,2.81,2.81,0,0,0,0,.3,3.82,3.82,0,0,0,.87,2.6,2.78,2.78,0,0,0,2.23,1,3.74,3.74,0,0,0,2.1-.68,10.69,10.69,0,0,0,2.24-2.21l.13-.16.74.62-.12.15a11.65,11.65,0,0,1-3,2.93A6,6,0,0,1,391.3,97.19Zm2.91-13.83c-1,0-2,.8-3,2.4a11.81,11.81,0,0,0-1.84,4.92A12.55,12.55,0,0,0,393,88.27a8.55,8.55,0,0,0,1.5-2,4.28,4.28,0,0,0,.56-1.92C395.06,83.65,394.8,83.36,394.21,83.36Z"/><path class="cls-3" d="M396.89,92.85l.44.37a11.43,11.43,0,0,1-2.95,2.88,5.73,5.73,0,0,1-3.08.88,4,4,0,0,1-3.16-1.31A5,5,0,0,1,387,92.2a9.66,9.66,0,0,1,1.15-4.44A12.05,12.05,0,0,1,391,84a5.38,5.38,0,0,1,3.44-1.47,2.34,2.34,0,0,1,1.64.59,1.94,1.94,0,0,1,.65,1.5,5.25,5.25,0,0,1-2,3.75,16.93,16.93,0,0,1-5.57,3.18,3,3,0,0,0,0,.44,4,4,0,0,0,.92,2.73,3,3,0,0,0,2.38,1.06,3.9,3.9,0,0,0,2.21-.72A10.61,10.61,0,0,0,396.89,92.85ZM389.11,91a13.23,13.23,0,0,0,4-2.6,9.1,9.1,0,0,0,1.53-2.09,4.44,4.44,0,0,0,.58-2q0-1.14-1.05-1.14c-1,0-2.11.83-3.19,2.49A12,12,0,0,0,389.11,91Z"/><path class="cls-3" d="M401.31,97.26a4.6,4.6,0,0,1-3.8-2.08l-.1-.12,1.67-2,.13.3a3.37,3.37,0,0,0,3.22,2.41,2.74,2.74,0,0,0,1.94-.74,2.2,2.2,0,0,0,.8-1.69,1.81,1.81,0,0,0-.37-1.16,15,15,0,0,0-1.94-1.77,11.65,11.65,0,0,1-2-1.87,2.71,2.71,0,0,1-.54-1.66,3.85,3.85,0,0,1,.7-2.23,5.35,5.35,0,0,1,4.31-2.25,3.18,3.18,0,0,1,1.95.59,1.86,1.86,0,0,1,.83,1.56,1.71,1.71,0,0,1-1.07,1.71l-.25.11,0-.27a2.59,2.59,0,0,0-.8-1.66,2.48,2.48,0,0,0-1.7-.59,2.36,2.36,0,0,0-1.61.59,1.73,1.73,0,0,0-.67,1.32,2.52,2.52,0,0,0,1.19,1.86l1.41,1.15a4.62,4.62,0,0,1,2.14,3.48,4.48,4.48,0,0,1-.75,2.48,5.34,5.34,0,0,1-2,1.83A5.62,5.62,0,0,1,401.31,97.26Z"/><path class="cls-3" d="M397.67,95.07,399,93.46a3.55,3.55,0,0,0,3.4,2.53,3,3,0,0,0,2.08-.79,2.45,2.45,0,0,0,.86-1.84,2,2,0,0,0-.41-1.28,14.74,14.74,0,0,0-2-1.8,11.69,11.69,0,0,1-1.93-1.84,2.45,2.45,0,0,1-.5-1.54,3.6,3.6,0,0,1,.67-2.11A4.85,4.85,0,0,1,403,83.22a4.93,4.93,0,0,1,2.36-.6,3,3,0,0,1,1.83.55,1.66,1.66,0,0,1,.75,1.4A1.54,1.54,0,0,1,407,86.1a2.84,2.84,0,0,0-.86-1.79,2.64,2.64,0,0,0-1.84-.64,2.58,2.58,0,0,0-1.74.64,1.92,1.92,0,0,0-.74,1.47,2.69,2.69,0,0,0,1.27,2l1.4,1.14q2.07,1.64,2.07,3.33a4.28,4.28,0,0,1-.72,2.37,5.09,5.09,0,0,1-1.94,1.76,5.39,5.39,0,0,1-2.59.66A4.41,4.41,0,0,1,397.67,95.07Z"/><path class="cls-3" d="M412.85,97.09a2.58,2.58,0,0,1-2-.83,3.07,3.07,0,0,1-.75-2.14,15,15,0,0,1,.37-2.72L412,83.84h-2.33l.25-1.22h2.33l1.35-6.51,2.79-1.1-1.73,7.61h3.93l-.25,1.22H414.4l-1.81,7.94a10.28,10.28,0,0,0-.29,1.85,2.1,2.1,0,0,0,.37,1.29,1.12,1.12,0,0,0,.94.46A1.89,1.89,0,0,0,414.7,95a12.17,12.17,0,0,0,1.63-1.54l.44-.43.63.63-.11.14a15.78,15.78,0,0,1-2.43,2.5A3.41,3.41,0,0,1,412.85,97.09Z"/><path class="cls-3" d="M414.24,83.64l-1.85,8.1a10.7,10.7,0,0,0-.29,1.89,2.27,2.27,0,0,0,.41,1.41,1.32,1.32,0,0,0,1.1.54,2.06,2.06,0,0,0,1.2-.38,11.93,11.93,0,0,0,1.67-1.57l.29-.29.36.36a15,15,0,0,1-2.39,2.47,3.16,3.16,0,0,1-1.89.72,2.38,2.38,0,0,1-1.85-.77,2.84,2.84,0,0,1-.7-2,13.82,13.82,0,0,1,.37-2.68l1.58-7.8h-2.34l.17-.82h2.34l1.36-6.56,2.33-.93-1.7,7.49h3.94l-.17.82Z"/><path class="cls-3" d="M421,97.09a1.73,1.73,0,0,1-1.44-.85,3.56,3.56,0,0,1-.56-2,14.24,14.24,0,0,1,.3-2.34l1.55-8.61,2.86-1.2-2.25,8.39a12.61,12.61,0,0,0-.53,3.11,2.48,2.48,0,0,0,.25,1.17c.18.34.39.38.53.38.3,0,.94-.3,2.25-1.74l.14-.14.69.6-.38.42a26.58,26.58,0,0,1-2.06,2.22A2.16,2.16,0,0,1,421,97.09Zm3.11-21.17a1.62,1.62,0,0,1-1.14-.49,1.59,1.59,0,1,1,1.14.49Z"/><path class="cls-3" d="M423.38,82.4l-2.14,8a12.64,12.64,0,0,0-.54,3.16,2.56,2.56,0,0,0,.27,1.26.79.79,0,0,0,.71.49q.75,0,2.4-1.8l.39.34-.24.27a26.22,26.22,0,0,1-2,2.2,2,2,0,0,1-1.22.57,1.51,1.51,0,0,1-1.27-.77,3.29,3.29,0,0,1-.53-1.91,14.75,14.75,0,0,1,.29-2.3L421,83.4Zm.7-9.52a1.34,1.34,0,0,1,1.41,1.41,1.42,1.42,0,0,1-.41,1,1.39,1.39,0,0,1-1,.41,1.37,1.37,0,0,1-1-.44,1.33,1.33,0,0,1-.44-1,1.39,1.39,0,0,1,.41-1A1.42,1.42,0,0,1,424.08,72.88Z"/><path class="cls-3" d="M430.28,97.23a4.49,4.49,0,0,1-3.48-1.46A5.5,5.5,0,0,1,425.49,92a9.27,9.27,0,0,1,1.2-4.45,10.81,10.81,0,0,1,3.11-3.61,6.68,6.68,0,0,1,3.93-1.39,4.49,4.49,0,0,1,3.44,1.41,5.1,5.1,0,0,1,1.3,3.62,9.87,9.87,0,0,1-1.17,4.62,10.78,10.78,0,0,1-3.1,3.65A6.56,6.56,0,0,1,430.28,97.23Zm3.26-13.78a3.21,3.21,0,0,0-1.85.62A6.27,6.27,0,0,0,430,85.94a14.56,14.56,0,0,0-1.43,3.35,12.37,12.37,0,0,0-.56,3.39,4.47,4.47,0,0,0,.67,2.66,2.12,2.12,0,0,0,1.85.89c1.32,0,2.52-1,3.54-2.84a14.8,14.8,0,0,0,1.3-3.33,13.81,13.81,0,0,0,.48-3.45,3.73,3.73,0,0,0-.68-2.29A2,2,0,0,0,433.54,83.45Z"/><path class="cls-3" d="M425.69,92a9.15,9.15,0,0,1,1.17-4.36,10.49,10.49,0,0,1,3.05-3.53,6.42,6.42,0,0,1,3.82-1.36A4.3,4.3,0,0,1,437,84a4.91,4.91,0,0,1,1.25,3.49,9.55,9.55,0,0,1-1.15,4.52,10.52,10.52,0,0,1-3,3.59,6.32,6.32,0,0,1-3.8,1.39A4.27,4.27,0,0,1,427,95.64,5.31,5.31,0,0,1,425.69,92Zm10.4-5.34a3.88,3.88,0,0,0-.72-2.41,2.21,2.21,0,0,0-1.83-1,3.35,3.35,0,0,0-2,.66,6.37,6.37,0,0,0-1.71,1.92,14.32,14.32,0,0,0-1.45,3.4,12.49,12.49,0,0,0-.57,3.45,4.65,4.65,0,0,0,.7,2.77,2.35,2.35,0,0,0,2,1q2.12,0,3.72-2.94a14.59,14.59,0,0,0,1.31-3.38A13.76,13.76,0,0,0,436.09,86.61Z"/><path class="cls-3" d="M442.91,83.26l2.77-1.2-1.79,7.63a24.12,24.12,0,0,1,3.28-5c1.36-1.51,2.69-2.27,4-2.27a2.1,2.1,0,0,1,1.6.66,2.4,2.4,0,0,1,.62,1.72,6.56,6.56,0,0,1-.28,1.63l-.24,1-.73,3-.24,1a9.72,9.72,0,0,0-.36,2.18,2.41,2.41,0,0,0,.24,1.16.61.61,0,0,0,.53.37c.31,0,.94-.3,2.26-1.74l.13-.14.69.6-.38.42a22.27,22.27,0,0,1-2.06,2.22,2.11,2.11,0,0,1-1.34.62,1.7,1.7,0,0,1-1.44-.86,3.51,3.51,0,0,1-.56-2,14.34,14.34,0,0,1,.29-2.34l.95-5.15a12,12,0,0,0,.19-1.67.86.86,0,0,0-.21-.63.78.78,0,0,0-.58-.21c-1,0-2.38,1.18-4,3.51a22.33,22.33,0,0,0-1.95,3.38,45.34,45.34,0,0,0-1.74,4.66l-.25.75-2.05.64Z"/><path class="cls-3" d="M440.51,96.86l2.58-13.46,2.3-1-2.08,8.92a27.3,27.3,0,0,1,4-6.46c1.33-1.48,2.6-2.21,3.82-2.21a1.93,1.93,0,0,1,1.46.59,2.25,2.25,0,0,1,.56,1.59,6.62,6.62,0,0,1-.27,1.58l-.24,1-.73,3-.25.95a10.15,10.15,0,0,0-.36,2.23,2.49,2.49,0,0,0,.27,1.25.79.79,0,0,0,.7.48c.5,0,1.31-.6,2.41-1.8l.39.34-.25.27a23.16,23.16,0,0,1-2,2.2,1.91,1.91,0,0,1-1.21.57,1.54,1.54,0,0,1-1.28-.77,3.28,3.28,0,0,1-.52-1.91,14,14,0,0,1,.29-2.3l.95-5.16a12.27,12.27,0,0,0,.19-1.7,1.1,1.1,0,0,0-.26-.78,1,1,0,0,0-.73-.26q-1.68,0-4.13,3.6a21.47,21.47,0,0,0-2,3.41,42.59,42.59,0,0,0-1.75,4.68l-.22.65Z"/><path class="cls-3" d="M458.71,97.26a4.6,4.6,0,0,1-3.8-2.08l-.1-.12,1.68-2,.12.3a3.37,3.37,0,0,0,3.22,2.41,2.72,2.72,0,0,0,1.94-.74,2.2,2.2,0,0,0,.8-1.69,1.81,1.81,0,0,0-.37-1.16,15,15,0,0,0-1.94-1.77,11.65,11.65,0,0,1-2-1.87,2.71,2.71,0,0,1-.54-1.66,3.92,3.92,0,0,1,.7-2.23,5.35,5.35,0,0,1,4.31-2.25,3.18,3.18,0,0,1,2,.59,1.86,1.86,0,0,1,.83,1.56,1.71,1.71,0,0,1-1.07,1.71l-.25.11,0-.27a2.59,2.59,0,0,0-.8-1.66,2.48,2.48,0,0,0-1.7-.59,2.33,2.33,0,0,0-1.6.59,1.71,1.71,0,0,0-.68,1.32,2.52,2.52,0,0,0,1.19,1.86L462,88.79a4.62,4.62,0,0,1,2.14,3.48,4.48,4.48,0,0,1-.75,2.48,5.34,5.34,0,0,1-2,1.83A5.62,5.62,0,0,1,458.71,97.26Z"/><path class="cls-3" d="M455.07,95.07l1.36-1.61a3.56,3.56,0,0,0,3.4,2.53,3,3,0,0,0,2.08-.79,2.45,2.45,0,0,0,.86-1.84,2,2,0,0,0-.41-1.28,14.1,14.1,0,0,0-2-1.8,11.69,11.69,0,0,1-1.93-1.84,2.45,2.45,0,0,1-.5-1.54,3.6,3.6,0,0,1,.67-2.11,4.85,4.85,0,0,1,1.78-1.57,4.93,4.93,0,0,1,2.36-.6,3.06,3.06,0,0,1,1.84.55,1.67,1.67,0,0,1,.74,1.4,1.54,1.54,0,0,1-1,1.53,2.84,2.84,0,0,0-.86-1.79,2.64,2.64,0,0,0-1.84-.64,2.58,2.58,0,0,0-1.74.64,1.92,1.92,0,0,0-.74,1.47,2.69,2.69,0,0,0,1.27,2l1.41,1.14c1.37,1.09,2.06,2.2,2.06,3.33a4.35,4.35,0,0,1-.71,2.37,5.19,5.19,0,0,1-1.95,1.76,5.39,5.39,0,0,1-2.59.66A4.43,4.43,0,0,1,455.07,95.07Z"/><path class="cls-3" d="M470,106.42a5.11,5.11,0,0,1-2.08-.41l-.21-.09,1.44-2.13.17.14a3.33,3.33,0,0,0,2.09.78,2.68,2.68,0,0,0,2.52-1.78,25.8,25.8,0,0,0,1.37-4.63l3.1-14.46H476l.26-1.22h2.4l2.25-10.51a31.48,31.48,0,0,1,1.2-4.26,11.33,11.33,0,0,1,1.49-2.77A6.5,6.5,0,0,1,489,62.2a5.34,5.34,0,0,1,2,.36l.19.07-1.09,2.74-.21-.3a2.72,2.72,0,0,0-2.31-1.28,2.07,2.07,0,0,0-1.71.82,7.52,7.52,0,0,0-1.19,2.85L481,82.62h3.91l-.25,1.22h-3.95L477.4,97.49a24,24,0,0,1-1.29,4.17,10,10,0,0,1-1.72,2.58A5.93,5.93,0,0,1,470,106.42Z"/><path class="cls-3" d="M478.64,83.64h-2.38l.17-.82h2.4l2.29-10.67a29.67,29.67,0,0,1,1.19-4.23,11.1,11.1,0,0,1,1.46-2.72,6.28,6.28,0,0,1,5.2-2.8,5.37,5.37,0,0,1,1.92.34L490,65a2.93,2.93,0,0,0-2.47-1.36,2.27,2.27,0,0,0-1.86.89,7.78,7.78,0,0,0-1.23,2.93l-3.72,15.41h3.91l-.17.82h-3.93l-3.33,13.81a24.7,24.7,0,0,1-1.28,4.13,9.65,9.65,0,0,1-1.69,2.53,5.7,5.7,0,0,1-4.25,2.11,4.81,4.81,0,0,1-2-.39l1.19-1.75a3.44,3.44,0,0,0,2.21.83,2.88,2.88,0,0,0,2.7-1.9,25.3,25.3,0,0,0,1.38-4.66Z"/><path class="cls-3" d="M488.19,97.23a4.49,4.49,0,0,1-3.48-1.46A5.5,5.5,0,0,1,483.4,92a9.27,9.27,0,0,1,1.2-4.45,10.81,10.81,0,0,1,3.11-3.61,6.68,6.68,0,0,1,3.93-1.39,4.49,4.49,0,0,1,3.44,1.41,5.11,5.11,0,0,1,1.31,3.62,9.88,9.88,0,0,1-1.18,4.62,10.78,10.78,0,0,1-3.1,3.65A6.56,6.56,0,0,1,488.19,97.23Zm3.26-13.78a3.16,3.16,0,0,0-1.84.62A6.16,6.16,0,0,0,488,85.94a14.56,14.56,0,0,0-1.43,3.35,12.37,12.37,0,0,0-.56,3.39,4.47,4.47,0,0,0,.67,2.66,2.12,2.12,0,0,0,1.85.89c1.33,0,2.52-1,3.54-2.84a14.34,14.34,0,0,0,1.3-3.33,13.81,13.81,0,0,0,.48-3.45,3.73,3.73,0,0,0-.68-2.29A2,2,0,0,0,491.45,83.45Z"/><path class="cls-3" d="M483.6,92a9.05,9.05,0,0,1,1.18-4.36,10.27,10.27,0,0,1,3.05-3.53,6.39,6.39,0,0,1,3.81-1.36A4.3,4.3,0,0,1,494.93,84a4.92,4.92,0,0,1,1.26,3.49A9.56,9.56,0,0,1,495,92.05a10.52,10.52,0,0,1-3,3.59,6.32,6.32,0,0,1-3.8,1.39,4.27,4.27,0,0,1-3.33-1.39A5.31,5.31,0,0,1,483.6,92ZM494,86.61a3.88,3.88,0,0,0-.72-2.41,2.21,2.21,0,0,0-1.83-1,3.35,3.35,0,0,0-2,.66,6.5,6.5,0,0,0-1.71,1.92,14.32,14.32,0,0,0-1.45,3.4,12.49,12.49,0,0,0-.57,3.45,4.64,4.64,0,0,0,.71,2.77,2.32,2.32,0,0,0,2,1q2.11,0,3.72-2.94a14.59,14.59,0,0,0,1.31-3.38A13.76,13.76,0,0,0,494,86.61Z"/><path class="cls-3" d="M502.75,97.06a2.08,2.08,0,0,1-1.65-.7,2.76,2.76,0,0,1-.59-1.85,11.11,11.11,0,0,1,1.43-4.71q.51-1,1.32-2.4c.44-.73,1-1.57,1.58-2.52a4.08,4.08,0,0,1-.62.32,4.64,4.64,0,0,1-1.76.32,3.77,3.77,0,0,1-.8-.09,15.44,15.44,0,0,1-2.89,4.81l-.13.15-.74-.65.12-.15a14.72,14.72,0,0,0,2.71-4.49,3.59,3.59,0,0,1-1.92-3.23,2.7,2.7,0,0,1,.5-1.7,1.58,1.58,0,0,1,1.32-.69,1.6,1.6,0,0,1,1.36.76,3.18,3.18,0,0,1,.5,1.85,6.34,6.34,0,0,1-.22,1.53,4.12,4.12,0,0,0,.94.11,3.34,3.34,0,0,0,2.34-.82l.06,0h1.57l-.32.63A46.82,46.82,0,0,0,504,89.77a15.1,15.1,0,0,0-1.11,4.57,1.32,1.32,0,0,0,.24.81.69.69,0,0,0,.55.3c.42,0,1.29-.36,3.07-2.06l.15-.14.65.72-.12.14A18.57,18.57,0,0,1,505.28,96,4.17,4.17,0,0,1,502.75,97.06ZM500.61,80.9a.34.34,0,0,0-.27.16.7.7,0,0,0-.14.44,2.15,2.15,0,0,0,1.15,1.71,4.6,4.6,0,0,0,.06-.69,2.47,2.47,0,0,0-.26-1.23A.63.63,0,0,0,500.61,80.9Z"/><path class="cls-3" d="M498.18,89.72A14.85,14.85,0,0,0,501,85a3.41,3.41,0,0,1-2-3.13,2.51,2.51,0,0,1,.46-1.58,1.4,1.4,0,0,1,1.16-.61,1.37,1.37,0,0,1,1.19.67,3,3,0,0,1,.47,1.74,6.09,6.09,0,0,1-.27,1.68,4.94,4.94,0,0,0,1.19.17,3.6,3.6,0,0,0,2.48-.88h1.16l-.17.34a46.57,46.57,0,0,0-2.87,6.31,15,15,0,0,0-1.13,4.63,1.44,1.44,0,0,0,.29.93.87.87,0,0,0,.7.38c.67,0,1.73-.71,3.21-2.12l.39.44a17.34,17.34,0,0,1-2.12,1.87,4,4,0,0,1-2.4,1,1.9,1.9,0,0,1-1.5-.63,2.55,2.55,0,0,1-.54-1.72,10.85,10.85,0,0,1,1.41-4.62c.34-.7.77-1.49,1.31-2.38s1.21-2,2-3.19l.24-.34a5.64,5.64,0,0,1-1.54,1,4.5,4.5,0,0,1-1.69.3,3.89,3.89,0,0,1-.93-.12,15.07,15.07,0,0,1-2.91,4.91Zm3.33-6.17a7.51,7.51,0,0,0,.1-1,2.74,2.74,0,0,0-.28-1.33.82.82,0,0,0-.72-.49.57.57,0,0,0-.43.23.92.92,0,0,0-.18.57C500,82.27,500.5,83,501.51,83.55Z"/><path class="cls-3" d="M520.56,97.11A2.86,2.86,0,0,1,518.22,96a4.37,4.37,0,0,1-.85-2.8,10.62,10.62,0,0,1,1.33-4.88A13.37,13.37,0,0,1,522,84.18a6.13,6.13,0,0,1,3.88-1.66,3.48,3.48,0,0,1,2.79,1.17l.18-.63,2.74-1.14-2.38,9.28a9.88,9.88,0,0,0-.36,2.24,2.24,2.24,0,0,0,.29,1.16.73.73,0,0,0,.6.44c.29,0,.89-.29,2.19-1.67l.14-.15.62.62-.39.46a23.11,23.11,0,0,1-2,2.1A2.16,2.16,0,0,1,529,97a1.83,1.83,0,0,1-1.52-.9,3.42,3.42,0,0,1-.6-2,17.7,17.7,0,0,1,.45-2.91,19.24,19.24,0,0,1-1.73,2.6C523.84,96,522.16,97.11,520.56,97.11Zm5.35-13.51a3.47,3.47,0,0,0-2.13.94,9.53,9.53,0,0,0-2.15,2.68,15.94,15.94,0,0,0-1.28,3,9.52,9.52,0,0,0-.51,2.71,3.28,3.28,0,0,0,.44,1.83,1.32,1.32,0,0,0,1.18.62,3.45,3.45,0,0,0,2.2-1A12.54,12.54,0,0,0,526,91.46a10.88,10.88,0,0,0,1.12-2.2,29.71,29.71,0,0,0,.92-3.09l.21-.79a2.68,2.68,0,0,0-.9-1.3A2.4,2.4,0,0,0,525.91,83.6Z"/><path class="cls-3" d="M531.28,82.26,529,91.15a10.23,10.23,0,0,0-.36,2.29A2.36,2.36,0,0,0,529,94.7a.91.91,0,0,0,.77.54c.47,0,1.25-.58,2.34-1.73l.34.34-.27.32a22.27,22.27,0,0,1-2,2.07,2,2,0,0,1-1.2.6A1.63,1.63,0,0,1,527.6,96a3.17,3.17,0,0,1-.57-1.88,22.72,22.72,0,0,1,.58-3.52l.19-.93a18.05,18.05,0,0,1-2.4,4q-2.53,3.21-4.84,3.21a2.68,2.68,0,0,1-2.19-1,4.19,4.19,0,0,1-.8-2.68,10.43,10.43,0,0,1,1.3-4.78,13.3,13.3,0,0,1,3.23-4.12,5.93,5.93,0,0,1,3.76-1.62,3.22,3.22,0,0,1,2.87,1.41l.26-.92Zm-2.8,3.11a2.79,2.79,0,0,0-1-1.45,2.55,2.55,0,0,0-1.59-.52,3.63,3.63,0,0,0-2.26,1,9.63,9.63,0,0,0-2.19,2.74,15.73,15.73,0,0,0-1.3,3.06,9.65,9.65,0,0,0-.52,2.77,3.51,3.51,0,0,0,.47,2,1.54,1.54,0,0,0,1.35.7,3.66,3.66,0,0,0,2.33-1,12.72,12.72,0,0,0,2.41-3,10.77,10.77,0,0,0,1.14-2.24,30.94,30.94,0,0,0,.93-3.11Z"/><path class="cls-3" d="M536.21,97.09a1.76,1.76,0,0,1-1.44-.9,3.46,3.46,0,0,1-.58-2,12.77,12.77,0,0,1,.32-2.34l5.63-28.39,3-1.46-6.7,29.37a9.84,9.84,0,0,0-.32,2.22,2.16,2.16,0,0,0,.26,1.12.61.61,0,0,0,.52.38c.3,0,.94-.3,2.26-1.74l.13-.14.69.6-.38.42a26.58,26.58,0,0,1-2.06,2.22A2.13,2.13,0,0,1,536.21,97.09Z"/><path class="cls-3" d="M542.87,62.38l-6.39,28-.22.95a10.15,10.15,0,0,0-.32,2.26,2.42,2.42,0,0,0,.28,1.22.82.82,0,0,0,.7.48q.75,0,2.4-1.8l.39.34-.24.27a26.22,26.22,0,0,1-2,2.2,2,2,0,0,1-1.22.57,1.53,1.53,0,0,1-1.27-.82,3.21,3.21,0,0,1-.55-1.86,13.13,13.13,0,0,1,.31-2.3l5.62-28.29Z"/><path class="cls-3" d="M543.38,97.09a1.76,1.76,0,0,1-1.44-.9,3.46,3.46,0,0,1-.58-2,12.77,12.77,0,0,1,.32-2.34l5.63-28.39,3-1.46-6.71,29.37a10.35,10.35,0,0,0-.31,2.22,2.16,2.16,0,0,0,.26,1.12.59.59,0,0,0,.52.38c.3,0,.94-.3,2.25-1.74l.14-.14.69.6-.38.42a26.58,26.58,0,0,1-2.06,2.22A2.16,2.16,0,0,1,543.38,97.09Z"/><path class="cls-3" d="M550,62.38l-6.39,28-.22.95a10.15,10.15,0,0,0-.32,2.26,2.42,2.42,0,0,0,.28,1.22.82.82,0,0,0,.7.48q.75,0,2.4-1.8l.39.34-.24.27a26.22,26.22,0,0,1-2,2.2,2,2,0,0,1-1.22.57,1.55,1.55,0,0,1-1.28-.82,3.28,3.28,0,0,1-.54-1.86,13.13,13.13,0,0,1,.31-2.3l5.62-28.29Z"/><path class="cls-3" d="M559,97.26a4.6,4.6,0,0,1-3.8-2.08l-.1-.12,1.67-2,.13.3a3.37,3.37,0,0,0,3.22,2.41,2.74,2.74,0,0,0,1.94-.74,2.2,2.2,0,0,0,.8-1.69,1.81,1.81,0,0,0-.37-1.16,15,15,0,0,0-1.94-1.77,11.65,11.65,0,0,1-2-1.87,2.71,2.71,0,0,1-.54-1.66,3.85,3.85,0,0,1,.7-2.23,5.35,5.35,0,0,1,4.31-2.25A3.18,3.18,0,0,1,565,83a1.86,1.86,0,0,1,.83,1.56,1.71,1.71,0,0,1-1.07,1.71l-.25.11,0-.27a2.59,2.59,0,0,0-.8-1.66,2.48,2.48,0,0,0-1.7-.59,2.36,2.36,0,0,0-1.61.59,1.73,1.73,0,0,0-.67,1.32,2.52,2.52,0,0,0,1.19,1.86l1.41,1.15a4.62,4.62,0,0,1,2.14,3.48,4.48,4.48,0,0,1-.75,2.48,5.34,5.34,0,0,1-2,1.83A5.62,5.62,0,0,1,559,97.26Z"/><path class="cls-3" d="M555.39,95.07l1.36-1.61a3.55,3.55,0,0,0,3.4,2.53,3,3,0,0,0,2.08-.79,2.45,2.45,0,0,0,.86-1.84,2,2,0,0,0-.41-1.28,14.1,14.1,0,0,0-2-1.8,11.69,11.69,0,0,1-1.93-1.84,2.45,2.45,0,0,1-.5-1.54,3.6,3.6,0,0,1,.67-2.11,4.85,4.85,0,0,1,1.78-1.57,4.93,4.93,0,0,1,2.36-.6,3,3,0,0,1,1.83.55,1.66,1.66,0,0,1,.75,1.4,1.54,1.54,0,0,1-.95,1.53,2.84,2.84,0,0,0-.86-1.79,2.64,2.64,0,0,0-1.84-.64,2.58,2.58,0,0,0-1.74.64,1.92,1.92,0,0,0-.74,1.47,2.69,2.69,0,0,0,1.27,2l1.4,1.14q2.07,1.64,2.07,3.33a4.28,4.28,0,0,1-.72,2.37,5.09,5.09,0,0,1-1.94,1.76,5.39,5.39,0,0,1-2.59.66A4.41,4.41,0,0,1,555.39,95.07Z"/><path class="cls-3" d="M577.16,97.14a2.16,2.16,0,0,1-1.55-.72,10.66,10.66,0,0,1-1.57-2.3,48.47,48.47,0,0,1-2.36-5A21.08,21.08,0,0,0,569,96.36l0,.12-2,.65,6.6-33.65L576.65,62l-6.32,27.45c.19-.33.38-.66.59-1a21.55,21.55,0,0,1,1.79-2.39,13.84,13.84,0,0,1,1.95-1.91,9.4,9.4,0,0,1,2.44-1.44,9.09,9.09,0,0,1,2.77-.55h.27l-.54,2.39-.19,0a6.4,6.4,0,0,0-1.06-.14,6.86,6.86,0,0,0-5.12,2.74,43.07,43.07,0,0,0,2.07,4.67c.42.83.78,1.49,1.09,2a5.33,5.33,0,0,0,.84,1,1.07,1.07,0,0,0,.66.29c.56,0,1.29-.48,2.19-1.42l.34-.39L581,94l-.11.13C579.2,96.14,578,97.14,577.16,97.14Z"/><path class="cls-3" d="M576.36,62.38l-6.61,28.75a16.56,16.56,0,0,1,1.34-2.53,19.2,19.2,0,0,1,1.77-2.37,13.41,13.41,0,0,1,1.92-1.88,9.18,9.18,0,0,1,2.39-1.41,8.76,8.76,0,0,1,2.71-.54l-.43,1.95a6.11,6.11,0,0,0-1.1-.15c-1.91,0-3.69,1-5.34,2.89a40.66,40.66,0,0,0,2.11,4.82q.63,1.23,1.11,2A4.81,4.81,0,0,0,577.1,95a1.27,1.27,0,0,0,.79.34c.62,0,1.39-.5,2.33-1.48l.2-.22.31.36q-2.44,3-3.57,3a2,2,0,0,1-1.41-.66A10.23,10.23,0,0,1,574.22,94a43.56,43.56,0,0,1-2.5-5.3,21.18,21.18,0,0,0-2.92,7.61l-1.58.51,6.51-33.22Z"/><path class="cls-3" d="M584.18,97.09a1.73,1.73,0,0,1-1.44-.85,3.56,3.56,0,0,1-.55-2,14,14,0,0,1,.29-2.34L584,83.26l2.86-1.2-2.25,8.39a12.52,12.52,0,0,0-.52,3.11,2.48,2.48,0,0,0,.24,1.17c.19.34.39.38.53.38.3,0,.94-.3,2.26-1.74l.13-.14.69.6-.38.42a24.94,24.94,0,0,1-2.06,2.22A2.13,2.13,0,0,1,584.18,97.09Zm3.11-21.17a1.69,1.69,0,0,1-1.63-1.63,1.57,1.57,0,0,1,.47-1.14,1.59,1.59,0,0,1,2.77,1.14,1.61,1.61,0,0,1-1.61,1.63Z"/><path class="cls-3" d="M586.59,82.4l-2.14,8a12.54,12.54,0,0,0-.53,3.16,2.68,2.68,0,0,0,.26,1.26.8.8,0,0,0,.71.49q.75,0,2.4-1.8l.39.34-.24.27a23.16,23.16,0,0,1-2,2.2,1.93,1.93,0,0,1-1.22.57,1.52,1.52,0,0,1-1.27-.77,3.28,3.28,0,0,1-.52-1.91,13.6,13.6,0,0,1,.29-2.3l1.53-8.51Zm.7-9.52a1.39,1.39,0,0,1,1,.39,1.41,1.41,0,0,1,.38,1,1.42,1.42,0,1,1-2.43-1A1.42,1.42,0,0,1,587.29,72.88Z"/><path class="cls-3" d="M591.35,97.09a1.76,1.76,0,0,1-1.44-.9,3.54,3.54,0,0,1-.58-2,13.73,13.73,0,0,1,.32-2.34l5.63-28.39,3-1.46-6.7,29.37a9.75,9.75,0,0,0-.31,2.22,2.16,2.16,0,0,0,.25,1.12.61.61,0,0,0,.52.38c.3,0,.94-.3,2.26-1.74l.13-.14.69.6-.38.42a24.94,24.94,0,0,1-2.06,2.22A2.13,2.13,0,0,1,591.35,97.09Z"/><path class="cls-3" d="M598,62.38l-6.39,28-.22.95a10.06,10.06,0,0,0-.31,2.26,2.32,2.32,0,0,0,.28,1.22.79.79,0,0,0,.69.48q.75,0,2.4-1.8l.39.34-.24.27a23.16,23.16,0,0,1-2,2.2,1.93,1.93,0,0,1-1.22.57,1.53,1.53,0,0,1-1.27-.82,3.21,3.21,0,0,1-.55-1.86,13.4,13.4,0,0,1,.32-2.3l5.61-28.29Z"/><path class="cls-3" d="M598.52,97.09a1.76,1.76,0,0,1-1.44-.9,3.54,3.54,0,0,1-.58-2,12.77,12.77,0,0,1,.32-2.34l5.63-28.39,3-1.46-6.7,29.37a9.75,9.75,0,0,0-.31,2.22,2.16,2.16,0,0,0,.25,1.12.61.61,0,0,0,.52.38c.3,0,.94-.3,2.26-1.74l.13-.14.69.6-.38.42a24.94,24.94,0,0,1-2.06,2.22A2.13,2.13,0,0,1,598.52,97.09Z"/><path class="cls-3" d="M605.18,62.38l-6.39,28-.22.95a10.06,10.06,0,0,0-.31,2.26,2.42,2.42,0,0,0,.27,1.22.82.82,0,0,0,.7.48q.75,0,2.4-1.8l.39.34-.24.27a24.59,24.59,0,0,1-2,2.2,2,2,0,0,1-1.22.57,1.53,1.53,0,0,1-1.27-.82,3.21,3.21,0,0,1-.55-1.86,13.4,13.4,0,0,1,.32-2.3l5.61-28.29Z"/><path class="cls-3" d="M614.32,97.09a1.74,1.74,0,0,1-1.44-.9,3.46,3.46,0,0,1-.58-2,12.77,12.77,0,0,1,.32-2.34l5.63-28.39,3-1.46-6.71,29.37a10.35,10.35,0,0,0-.31,2.22,2.27,2.27,0,0,0,.25,1.12.61.61,0,0,0,.52.38c.31,0,1-.3,2.26-1.74l.13-.14.69.6-.38.42a25.26,25.26,0,0,1-2.05,2.22A2.16,2.16,0,0,1,614.32,97.09Z"/><path class="cls-3" d="M621,62.38l-6.39,28-.22.95a10.15,10.15,0,0,0-.32,2.26,2.32,2.32,0,0,0,.28,1.22.81.81,0,0,0,.69.48c.51,0,1.31-.6,2.41-1.8l.39.34-.24.27a24.28,24.28,0,0,1-2.05,2.2,1.91,1.91,0,0,1-1.21.57,1.55,1.55,0,0,1-1.28-.82,3.28,3.28,0,0,1-.54-1.86,13.13,13.13,0,0,1,.31-2.3l5.62-28.29Z"/><path class="cls-3" d="M623.38,97.19a4.28,4.28,0,0,1-3.3-1.38,5.18,5.18,0,0,1-1.25-3.61A9.93,9.93,0,0,1,620,87.67,12.3,12.3,0,0,1,623,83.89a5.57,5.57,0,0,1,3.57-1.52,2.55,2.55,0,0,1,1.77.64,2.14,2.14,0,0,1,.71,1.65,5.46,5.46,0,0,1-2.1,3.89,17,17,0,0,1-5.52,3.18c0,.09,0,.19,0,.3a3.82,3.82,0,0,0,.88,2.6,2.78,2.78,0,0,0,2.23,1,3.79,3.79,0,0,0,2.1-.68,10.93,10.93,0,0,0,2.24-2.21l.12-.16.74.62-.11.15a11.52,11.52,0,0,1-3,2.93A6,6,0,0,1,623.38,97.19Zm2.92-13.83c-1,0-2,.8-3,2.4a11.79,11.79,0,0,0-1.83,4.92,12.69,12.69,0,0,0,3.65-2.41,8.51,8.51,0,0,0,1.49-2,4.16,4.16,0,0,0,.56-1.92C627.14,83.65,626.88,83.36,626.3,83.36Z"/><path class="cls-3" d="M629,92.85l.44.37a11.26,11.26,0,0,1-2.94,2.88,5.79,5.79,0,0,1-3.09.88,4.05,4.05,0,0,1-3.16-1.31A5,5,0,0,1,619,92.2a9.68,9.68,0,0,1,1.16-4.44A11.91,11.91,0,0,1,623.08,84a5.36,5.36,0,0,1,3.44-1.47,2.36,2.36,0,0,1,1.64.59,1.93,1.93,0,0,1,.64,1.5,5.25,5.25,0,0,1-2,3.75,17,17,0,0,1-5.56,3.18,2.94,2.94,0,0,0,0,.44,4,4,0,0,0,.93,2.73,3,3,0,0,0,2.38,1.06,3.9,3.9,0,0,0,2.21-.72A10.83,10.83,0,0,0,629,92.85ZM621.2,91a13.17,13.17,0,0,0,4-2.6,9.1,9.1,0,0,0,1.53-2.09,4.44,4.44,0,0,0,.58-2c0-.76-.34-1.14-1-1.14-1,0-2.12.83-3.2,2.49A12,12,0,0,0,621.2,91Z"/><path class="cls-3" d="M634.42,97.14a1.14,1.14,0,0,1-1-.56,5.52,5.52,0,0,1-.44-1.83l-1.42-11.47,2.6-1.19v1c0,2.35.19,4.85.41,7.44.13,1.35.25,2.37.34,3a4,4,0,0,0,.32,1.26.39.39,0,0,0,.36.24c.29,0,1.08-.44,3-3.34a9.9,9.9,0,0,0,2-5.46,4.37,4.37,0,0,0-.2-1.42,3.29,3.29,0,0,0-.78-1.13l-.15-.15,2.14-2,.13.18a4.56,4.56,0,0,1,.89,2.84c0,2.19-1.3,5.09-3.88,8.65a21.56,21.56,0,0,1-2.5,2.89,6.56,6.56,0,0,1-1,.82A1.61,1.61,0,0,1,634.42,97.14Z"/><path class="cls-3" d="M631.74,83.4l2.19-1V83q.08,3.54.41,7.46c.13,1.36.25,2.37.34,3a4.43,4.43,0,0,0,.34,1.33.61.61,0,0,0,.54.34c.6,0,1.67-1.15,3.21-3.43a10.09,10.09,0,0,0,2.06-5.57,4.3,4.3,0,0,0-.22-1.49,3.3,3.3,0,0,0-.82-1.2l1.82-1.7a4.33,4.33,0,0,1,.85,2.72q0,3.23-3.84,8.53a21.88,21.88,0,0,1-2.48,2.87,7.46,7.46,0,0,1-1,.79,1.45,1.45,0,0,1-.74.23.91.91,0,0,1-.85-.46,5.1,5.1,0,0,1-.42-1.75Z"/><path class="cls-3" d="M648.15,97.19a4.28,4.28,0,0,1-3.31-1.38,5.22,5.22,0,0,1-1.24-3.61,9.92,9.92,0,0,1,1.17-4.53,12.3,12.3,0,0,1,2.94-3.78,5.57,5.57,0,0,1,3.57-1.52,2.57,2.57,0,0,1,1.78.64,2.14,2.14,0,0,1,.71,1.65,5.44,5.44,0,0,1-2.11,3.89,17,17,0,0,1-5.51,3.18,2.81,2.81,0,0,0,0,.3,3.82,3.82,0,0,0,.87,2.6,2.78,2.78,0,0,0,2.23,1,3.77,3.77,0,0,0,2.1-.68,10.69,10.69,0,0,0,2.24-2.21l.13-.16.74.62-.12.15a11.65,11.65,0,0,1-3,2.93A6,6,0,0,1,648.15,97.19Zm2.91-13.83c-1,0-2,.8-3,2.4a11.81,11.81,0,0,0-1.84,4.92,12.55,12.55,0,0,0,3.65-2.41,8.55,8.55,0,0,0,1.5-2,4.28,4.28,0,0,0,.56-1.92C651.91,83.65,651.65,83.36,651.06,83.36Z"/><path class="cls-3" d="M653.74,92.85l.43.37a11.26,11.26,0,0,1-2.94,2.88,5.73,5.73,0,0,1-3.08.88A4,4,0,0,1,645,95.67a4.93,4.93,0,0,1-1.19-3.47A9.66,9.66,0,0,1,645,87.76,11.91,11.91,0,0,1,647.84,84a5.38,5.38,0,0,1,3.44-1.47,2.34,2.34,0,0,1,1.64.59,1.94,1.94,0,0,1,.65,1.5,5.25,5.25,0,0,1-2,3.75A17,17,0,0,1,646,91.59a3,3,0,0,0,0,.44,4,4,0,0,0,.92,2.73,3,3,0,0,0,2.38,1.06,3.9,3.9,0,0,0,2.21-.72A10.61,10.61,0,0,0,653.74,92.85ZM646,91a13.17,13.17,0,0,0,4-2.6,8.87,8.87,0,0,0,1.54-2.09,4.57,4.57,0,0,0,.58-2q0-1.14-1.05-1.14c-1,0-2.11.83-3.19,2.49A11.87,11.87,0,0,0,646,91Z"/><path class="cls-3" d="M658.31,97.09a1.77,1.77,0,0,1-1.45-.9,3.54,3.54,0,0,1-.58-2,13.73,13.73,0,0,1,.32-2.34l5.64-28.39,3-1.46-6.7,29.37a9.75,9.75,0,0,0-.31,2.22,2.16,2.16,0,0,0,.25,1.12.61.61,0,0,0,.52.38c.3,0,.94-.3,2.26-1.74l.13-.14.69.6-.38.42a23.5,23.5,0,0,1-2.06,2.22A2.11,2.11,0,0,1,658.31,97.09Z"/><path class="cls-3" d="M665,62.38l-6.39,28-.22.95a10.06,10.06,0,0,0-.31,2.26,2.32,2.32,0,0,0,.28,1.22.79.79,0,0,0,.69.48c.5,0,1.3-.6,2.41-1.8l.39.34-.25.27a23.16,23.16,0,0,1-2,2.2,1.93,1.93,0,0,1-1.21.57,1.53,1.53,0,0,1-1.28-.82,3.28,3.28,0,0,1-.55-1.86,13.4,13.4,0,0,1,.32-2.3l5.61-28.29Z"/><path class="cls-3" d="M665.33,97.26a4.63,4.63,0,0,1-3.81-2.08l-.09-.12,1.67-2,.13.3a3.36,3.36,0,0,0,3.22,2.41,2.74,2.74,0,0,0,1.94-.74,2.2,2.2,0,0,0,.8-1.69,1.81,1.81,0,0,0-.37-1.16,15,15,0,0,0-1.94-1.77,12.24,12.24,0,0,1-2-1.87,2.76,2.76,0,0,1-.53-1.66,3.85,3.85,0,0,1,.7-2.23A5.09,5.09,0,0,1,666.94,83a5.15,5.15,0,0,1,2.45-.62,3.2,3.2,0,0,1,2,.59,1.85,1.85,0,0,1,.82,1.56,1.71,1.71,0,0,1-1.06,1.71l-.25.11,0-.27a2.59,2.59,0,0,0-.8-1.66,2.48,2.48,0,0,0-1.7-.59,2.36,2.36,0,0,0-1.61.59,1.73,1.73,0,0,0-.67,1.32,2.52,2.52,0,0,0,1.19,1.86l1.41,1.15a4.62,4.62,0,0,1,2.14,3.48,4.48,4.48,0,0,1-.75,2.48,5.34,5.34,0,0,1-2,1.83A5.65,5.65,0,0,1,665.33,97.26Z"/><path class="cls-3" d="M661.68,95.07,663,93.46A3.57,3.57,0,0,0,666.45,96a2.93,2.93,0,0,0,2.07-.79,2.42,2.42,0,0,0,.87-1.84,2,2,0,0,0-.42-1.28,13.82,13.82,0,0,0-2-1.8,12.31,12.31,0,0,1-1.94-1.84,2.51,2.51,0,0,1-.49-1.54,3.66,3.66,0,0,1,.66-2.11,5.16,5.16,0,0,1,4.15-2.17,3,3,0,0,1,1.83.55,1.65,1.65,0,0,1,.74,1.4A1.53,1.53,0,0,1,671,86.1a2.8,2.8,0,0,0-.87-1.79,2.64,2.64,0,0,0-1.83-.64,2.55,2.55,0,0,0-1.74.64,1.92,1.92,0,0,0-.74,1.47,2.71,2.71,0,0,0,1.26,2l1.41,1.14q2.07,1.64,2.07,3.33a4.28,4.28,0,0,1-.72,2.37,5.23,5.23,0,0,1-1.94,1.76,5.39,5.39,0,0,1-2.59.66A4.44,4.44,0,0,1,661.68,95.07Z"/><path class="cls-4" d="M674.27,41.91H593.9a6.61,6.61,0,0,0,2-5.08,5.6,5.6,0,0,0-2.06-4.57,14.75,14.75,0,0,0-6.39-2.58A13.6,13.6,0,0,1,583,28.14a2.94,2.94,0,0,1-1.41-2.63,3.28,3.28,0,0,1,.44-1.72,3.66,3.66,0,0,1,1.18-1.2,4.89,4.89,0,0,1,1.67-.68,8.51,8.51,0,0,1,1.87-.21,6.8,6.8,0,0,1,3.63,1,6.17,6.17,0,0,1,2.37,2.47l2.72-2a8,8,0,0,0-3.6-3.24,11.46,11.46,0,0,0-5-1.14,12.82,12.82,0,0,0-3.23.41,8.7,8.7,0,0,0-2.79,1.28,6.22,6.22,0,0,0-2.69,5.4,5.57,5.57,0,0,0,.68,2.87,6,6,0,0,0,1.72,1.9,7.84,7.84,0,0,0,2.27,1.15c.82.26,1.59.48,2.32.65a24.72,24.72,0,0,1,5.35,1.8,3.11,3.11,0,0,1,1.85,2.9,3.75,3.75,0,0,1-1.72,3.34,5.17,5.17,0,0,1-1.83.73,11,11,0,0,1-2.19.21,8,8,0,0,1-6.78-3.81l-2.82,2.08a10.38,10.38,0,0,0,2.1,2.27h-8.68c0-.32,0-.63,0-1,0-1.05-.05-1.9-.05-2.56v-19h-3.55V31.87a12.86,12.86,0,0,1-.63,4.25,8.64,8.64,0,0,1-1.67,3,6.62,6.62,0,0,1-2.37,1.74,6.74,6.74,0,0,1-2.74.58,7.29,7.29,0,0,1-3.21-.63,5.09,5.09,0,0,1-2-1.75,7.35,7.35,0,0,1-1.07-2.68,17.87,17.87,0,0,1-.31-3.5V19.35h-3.55v15a11,11,0,0,0,2.32,7.31l.27.28H542.2A12,12,0,0,0,544,40.17l-2.66-2a7.78,7.78,0,0,1-6.62,3.19,9.53,9.53,0,0,1-3.86-.76,8.39,8.39,0,0,1-2.93-2.09,9.47,9.47,0,0,1-1.85-3.1,11.21,11.21,0,0,1-.65-3.86,11.46,11.46,0,0,1,.65-3.89,9.24,9.24,0,0,1,1.88-3.13,8.77,8.77,0,0,1,3-2.08,9.4,9.4,0,0,1,3.86-.76,7.77,7.77,0,0,1,3.68.91A6.88,6.88,0,0,1,541,24.93l2.76-2a9.73,9.73,0,0,0-4.09-3.15,12.63,12.63,0,0,0-5-1.07,14.36,14.36,0,0,0-5.38,1,11.94,11.94,0,0,0-4.09,2.69,12.23,12.23,0,0,0-2.64,4.07,14.5,14.5,0,0,0,0,10.22,12.23,12.23,0,0,0,2.64,4.07,11.75,11.75,0,0,0,1.37,1.17H514.43c0-.23,0-.46,0-.7-.07-1-.11-2-.11-2.92V27.59a9.67,9.67,0,0,0-.73-3.91,7.46,7.46,0,0,0-2-2.76,8.9,8.9,0,0,0-3-1.65,12.3,12.3,0,0,0-3.7-.54,15,15,0,0,0-5.61,1,11.69,11.69,0,0,0-4,2.5l2,2.35a9.72,9.72,0,0,1,3.18-2.09,10.54,10.54,0,0,1,4.07-.78,6.89,6.89,0,0,1,4.85,1.55A6.13,6.13,0,0,1,510.93,28v.77q-3.33,0-6.44.24a22.22,22.22,0,0,0-5.5,1,8.8,8.8,0,0,0-3.84,2.46A6.64,6.64,0,0,0,493.72,37a6.83,6.83,0,0,0,.81,3.45,7.42,7.42,0,0,0,1.12,1.5H483.07a13.48,13.48,0,0,0,1.39-1.22A12.29,12.29,0,0,0,487,36.62a14.52,14.52,0,0,0,0-10.12,12.19,12.19,0,0,0-2.56-4.07,11.88,11.88,0,0,0-4-2.71,13.12,13.12,0,0,0-5.19-1A11.71,11.71,0,0,0,470.14,20a10.15,10.15,0,0,0-4.07,3.63H466V4.33h-3.55V41.91H456.3L441.24,6.83h-3.65L422.43,41.91h-20a14.65,14.65,0,0,0,2.73-2.68l-2.66-2.09a9.59,9.59,0,0,1-3.05,3,9.29,9.29,0,0,1-8.27.57,9,9,0,0,1-2.82-1.9,8.63,8.63,0,0,1-1.87-2.82,9.25,9.25,0,0,1-.73-3.44H406c0-.32,0-.61,0-.89v-.78a14.17,14.17,0,0,0-.76-4.7,11.07,11.07,0,0,0-2.22-3.83,10.55,10.55,0,0,0-3.65-2.61,12.48,12.48,0,0,0-5.06-1,12,12,0,0,0-8.76,3.65A12.47,12.47,0,0,0,383,26.45a13.74,13.74,0,0,0-.94,5.11,13.18,13.18,0,0,0,1,5.11,12.68,12.68,0,0,0,2.63,4.07A11.56,11.56,0,0,0,387,41.91H369.18l9.16-22.56h-3.81l-8,20.66h-.11l-7.92-20.66h-4l9.21,22.56H349V19.35h-3.55V41.91h-9.09a6.61,6.61,0,0,0,2-5.08,5.63,5.63,0,0,0-2.06-4.57,14.75,14.75,0,0,0-6.39-2.58,13.51,13.51,0,0,1-4.43-1.54A2.94,2.94,0,0,1,324,25.51a3.28,3.28,0,0,1,.44-1.72,3.73,3.73,0,0,1,1.17-1.2,5.06,5.06,0,0,1,1.67-.68,8.67,8.67,0,0,1,1.88-.21,6.8,6.8,0,0,1,3.63,1,6.17,6.17,0,0,1,2.37,2.47l2.71-2a8,8,0,0,0-3.6-3.24,11.41,11.41,0,0,0-4.95-1.14,13,13,0,0,0-3.24.41,8.9,8.9,0,0,0-2.79,1.28,6.24,6.24,0,0,0-2.68,5.4,5.47,5.47,0,0,0,.68,2.87,6,6,0,0,0,1.72,1.9,7.71,7.71,0,0,0,2.27,1.15c.81.26,1.59.48,2.32.65a24.41,24.41,0,0,1,5.34,1.8,3.11,3.11,0,0,1,1.86,2.9,3.73,3.73,0,0,1-1.73,3.34,5.19,5.19,0,0,1-1.82.73,11.14,11.14,0,0,1-2.19.21,7.69,7.69,0,0,1-4-1.1,7.56,7.56,0,0,1-2.76-2.71l-2.82,2.08a10.34,10.34,0,0,0,2.09,2.27h-8.42a6.61,6.61,0,0,0,2-5.08,5.63,5.63,0,0,0-2.06-4.57,14.75,14.75,0,0,0-6.39-2.58,13.51,13.51,0,0,1-4.43-1.54,2.94,2.94,0,0,1-1.41-2.63,3.28,3.28,0,0,1,.44-1.72,3.66,3.66,0,0,1,1.18-1.2,4.89,4.89,0,0,1,1.67-.68A8.51,8.51,0,0,1,306,21.7a6.8,6.8,0,0,1,3.63,1A6.17,6.17,0,0,1,312,25.14l2.71-2a8,8,0,0,0-3.6-3.24,11.41,11.41,0,0,0-4.95-1.14,12.82,12.82,0,0,0-3.23.41,8.85,8.85,0,0,0-2.8,1.28,6.24,6.24,0,0,0-2.68,5.4,5.47,5.47,0,0,0,.68,2.87,6,6,0,0,0,1.72,1.9,7.71,7.71,0,0,0,2.27,1.15c.81.26,1.59.48,2.32.65a24.41,24.41,0,0,1,5.34,1.8,3.11,3.11,0,0,1,1.86,2.9A3.73,3.73,0,0,1,310,40.43a5.19,5.19,0,0,1-1.82.73,11.14,11.14,0,0,1-2.19.21,7.69,7.69,0,0,1-4-1.1,7.56,7.56,0,0,1-2.76-2.71l-2.82,2.08a10.34,10.34,0,0,0,2.09,2.27h-10.6a14.92,14.92,0,0,0,2.72-2.68l-2.66-2.09a9.59,9.59,0,0,1-3.05,3,9.29,9.29,0,0,1-8.27.57,9,9,0,0,1-2.82-1.9,8.63,8.63,0,0,1-1.87-2.82,9.25,9.25,0,0,1-.73-3.44h20.24c0-.32.05-.61.05-.89v-.78a14.17,14.17,0,0,0-.76-4.7,11.07,11.07,0,0,0-2.22-3.83,10.55,10.55,0,0,0-3.65-2.61,12.48,12.48,0,0,0-5.06-1A12,12,0,0,0,271,22.38a12.47,12.47,0,0,0-2.61,4.07,13.74,13.74,0,0,0-.94,5.11,13.18,13.18,0,0,0,1,5.11A12.68,12.68,0,0,0,271,40.74a11.56,11.56,0,0,0,1.35,1.17H254.92V31.28a12.93,12.93,0,0,1,.6-4.19,8.55,8.55,0,0,1,1.57-2.86,5.68,5.68,0,0,1,2.27-1.64,7.18,7.18,0,0,1,2.71-.52,10.24,10.24,0,0,1,1.46.1,6.28,6.28,0,0,1,1,.21L265,19a5.65,5.65,0,0,0-1.12-.21c-.36,0-.77-.05-1.22-.05a8.53,8.53,0,0,0-4.7,1.33,8.43,8.43,0,0,0-3.13,3.47h-.1c0-.53,0-1.19-.05-2s-.09-1.53-.16-2.19h-3.39c.07.84.12,1.78.16,2.82s0,1.9,0,2.56V41.91h-9.23V19.35H238.6v4.23h-.11a9.52,9.52,0,0,0-4-3.6,11.68,11.68,0,0,0-5.22-1.25,13.12,13.12,0,0,0-5.19,1,11.68,11.68,0,0,0-4,2.71,12.38,12.38,0,0,0-2.56,4,13.09,13.09,0,0,0-.91,4.9,13.29,13.29,0,0,0,.91,5,11.39,11.39,0,0,0,2.56,3.93,11,11,0,0,0,2.15,1.67h-16.5a12,12,0,0,0,1.39-1.17,12.32,12.32,0,0,0,2.68-4.07,13.94,13.94,0,0,0,0-10.22A12,12,0,0,0,203,19.69a14.78,14.78,0,0,0-10.48,0,12.08,12.08,0,0,0-6.81,6.76,14.08,14.08,0,0,0,0,10.22,12.35,12.35,0,0,0,2.69,4.07,12,12,0,0,0,1.39,1.17H172.25V31.28a12.93,12.93,0,0,1,.6-4.19,8.54,8.54,0,0,1,1.56-2.86,5.75,5.75,0,0,1,2.27-1.64,7.23,7.23,0,0,1,2.72-.52,10.34,10.34,0,0,1,1.46.1,6.79,6.79,0,0,1,1,.21l.47-3.39a5.79,5.79,0,0,0-1.12-.21c-.37,0-.78-.05-1.23-.05a8.5,8.5,0,0,0-4.69,1.33,8.36,8.36,0,0,0-3.13,3.47h-.11c0-.53,0-1.19-.05-2s-.09-1.53-.16-2.19h-3.39c.07.84.13,1.78.16,2.82s0,1.9,0,2.56V41.91H144.92V26.6h6.57a20.06,20.06,0,0,0,5.14-.62,11.79,11.79,0,0,0,4-1.85,8.49,8.49,0,0,0,2.56-3.08,9.76,9.76,0,0,0,.91-4.36,10,10,0,0,0-.89-4.35,8.14,8.14,0,0,0-2.53-3.08,11.23,11.23,0,0,0-3.93-1.83,20.32,20.32,0,0,0-5.12-.6H141.16V41.91H2.27V44H194.45a14.78,14.78,0,0,0,3.31.38,15.08,15.08,0,0,0,3.35-.38h37.47a12.92,12.92,0,0,1-.5,3.28,8.27,8.27,0,0,1-1.65,3.05,7.7,7.7,0,0,1-2.94,2.06,11.71,11.71,0,0,1-4.44.75,11.48,11.48,0,0,1-5.34-1.3,11.75,11.75,0,0,1-4-3.18l-2.56,2.71a15.63,15.63,0,0,0,5.27,3.6,16.4,16.4,0,0,0,6.47,1.3A15,15,0,0,0,235.52,55a11.47,11.47,0,0,0,4-3.13,10.69,10.69,0,0,0,2-4.12,18.77,18.77,0,0,0,.53-3.77h34.75a13.73,13.73,0,0,0,3.19.38A14.28,14.28,0,0,0,283.3,44h19.61a13.32,13.32,0,0,0,3.08.38,14.37,14.37,0,0,0,3.26-.38h16.82a13.32,13.32,0,0,0,3.08.38,14.44,14.44,0,0,0,3.26-.38h59.11a13.88,13.88,0,0,0,3.2.38A14.28,14.28,0,0,0,398,44H472.4a11.91,11.91,0,0,0,2.91.38,14.38,14.38,0,0,0,3.28-.38h20.73a11.46,11.46,0,0,0,2.85.38,13.14,13.14,0,0,0,3.18-.38h25.87a15.79,15.79,0,0,0,3.45.38A14.17,14.17,0,0,0,538,44h17.46a12.09,12.09,0,0,0,3.13.38,9.77,9.77,0,0,0,2.69-.38h22.39a13.32,13.32,0,0,0,3.08.38A14.31,14.31,0,0,0,590,44h84.29ZM386.63,26.68a8.89,8.89,0,0,1,4.49-4.33,8.28,8.28,0,0,1,3.28-.65A7.53,7.53,0,0,1,400.27,24a8.85,8.85,0,0,1,2.22,5.71H385.85A8.33,8.33,0,0,1,386.63,26.68ZM272,26.68a8.89,8.89,0,0,1,4.49-4.33,8.28,8.28,0,0,1,3.28-.65A7.53,7.53,0,0,1,285.62,24a8.8,8.8,0,0,1,2.22,5.71H271.2A8.33,8.33,0,0,1,272,26.68Zm-83.46,4.88a11.07,11.07,0,0,1,.66-3.84A9.44,9.44,0,0,1,191,24.59a8.88,8.88,0,0,1,2.89-2.11,9.08,9.08,0,0,1,3.84-.78,9.28,9.28,0,0,1,3.86.78,8.9,8.9,0,0,1,2.92,2.11,9.61,9.61,0,0,1,1.85,3.13,11.64,11.64,0,0,1,0,7.67,9.41,9.41,0,0,1-1.85,3.13,8.44,8.44,0,0,1-2.92,2.09,9.6,9.6,0,0,1-3.86.76,9.4,9.4,0,0,1-3.84-.76A8.42,8.42,0,0,1,191,38.52a9.24,9.24,0,0,1-1.85-3.13A11,11,0,0,1,188.52,31.56Zm-43.6-21.49h6.36a11.87,11.87,0,0,1,6.65,1.59,5.63,5.63,0,0,1,2.37,5,5.88,5.88,0,0,1-2.29,5q-2.3,1.73-6.73,1.72h-6.36Zm422,29.52H567c0,.52,0,1.18,0,2,0,.12,0,.22,0,.34h-2A7.57,7.57,0,0,0,566.9,39.59Zm-68.38-5.53a7.73,7.73,0,0,1,2.94-1.59,19.46,19.46,0,0,1,4-.73q2.22-.18,4.41-.18h1v1.82a9,9,0,0,1-.52,3.08A7.73,7.73,0,0,1,508.9,39a7.14,7.14,0,0,1-2.45,1.78,8.22,8.22,0,0,1-3.34.65,8.92,8.92,0,0,1-2.06-.24,5.35,5.35,0,0,1-1.85-.78A4,4,0,0,1,497.87,39a4.43,4.43,0,0,1-.5-2.19A3.56,3.56,0,0,1,498.52,34.06ZM511,39.8h.1c0,.66,0,1.34.11,2v.07h-2A12.61,12.61,0,0,0,511,39.8ZM466.26,27.67a9.74,9.74,0,0,1,1.95-3.13,9.18,9.18,0,0,1,6.73-2.84,9.35,9.35,0,0,1,3.91.78,8.52,8.52,0,0,1,2.9,2.11,9.5,9.5,0,0,1,1.8,3.13,12.17,12.17,0,0,1,0,7.67,9.3,9.3,0,0,1-1.8,3.13,8.09,8.09,0,0,1-2.9,2.09,9.67,9.67,0,0,1-3.91.76,9.26,9.26,0,0,1-6.73-2.82,9.44,9.44,0,0,1-1.95-3.11,11,11,0,0,1,0-7.77Zm-.29,12h.1a10.47,10.47,0,0,0,2.07,2.27H466ZM439.31,11l8.14,19.61H431.18Zm-9.54,23.05h19.09l3.29,7.85H426.52ZM220.39,31.25a10.58,10.58,0,0,1,.63-3.66,9.29,9.29,0,0,1,1.8-3,8.66,8.66,0,0,1,2.89-2.09,9.43,9.43,0,0,1,3.92-.78,9,9,0,0,1,3.75.78A9.57,9.57,0,0,1,239,31.25a10.27,10.27,0,0,1-.71,3.88,8.85,8.85,0,0,1-1.95,3,8.57,8.57,0,0,1-3,1.93,10.2,10.2,0,0,1-3.75.68,9.59,9.59,0,0,1-3.92-.76,8.32,8.32,0,0,1-2.89-2.06,9.19,9.19,0,0,1-1.8-3A10.57,10.57,0,0,1,220.39,31.25ZM238.49,39h.11v2.94h-3A9.11,9.11,0,0,0,238.49,39Z"/><path class="cls-5" d="M347.2,12.47a2.53,2.53,0,0,0,1.72-.71,2.32,2.32,0,0,0,.78-1.8,2.32,2.32,0,0,0-.78-1.8,2.46,2.46,0,0,0-3.44,0,2.29,2.29,0,0,0-.79,1.8,2.29,2.29,0,0,0,.79,1.8A2.51,2.51,0,0,0,347.2,12.47Z"/><path class="cls-6" d="M674.27,42.91H590.65l.33-.21a6.77,6.77,0,0,0,2.92-5.87,5.6,5.6,0,0,0-2.06-4.57,14.75,14.75,0,0,0-6.39-2.58A13.6,13.6,0,0,1,581,28.14a2.94,2.94,0,0,1-1.41-2.63,3.28,3.28,0,0,1,.44-1.72,3.66,3.66,0,0,1,1.18-1.2,4.89,4.89,0,0,1,1.67-.68,8.51,8.51,0,0,1,1.87-.21,6.8,6.8,0,0,1,3.63,1,6.17,6.17,0,0,1,2.37,2.47l2.72-2a8,8,0,0,0-3.6-3.24,11.46,11.46,0,0,0-5-1.14,12.82,12.82,0,0,0-3.23.41,8.7,8.7,0,0,0-2.79,1.28,6.22,6.22,0,0,0-2.69,5.4,5.57,5.57,0,0,0,.68,2.87,6,6,0,0,0,1.72,1.9,7.84,7.84,0,0,0,2.27,1.15c.82.26,1.59.48,2.32.65a24.72,24.72,0,0,1,5.35,1.8,3.11,3.11,0,0,1,1.85,2.9,3.75,3.75,0,0,1-1.72,3.34,5.17,5.17,0,0,1-1.83.73,11,11,0,0,1-2.19.21,8,8,0,0,1-6.78-3.81l-2.82,2.08a10.06,10.06,0,0,0,3.64,3.27H568.55c0-.61-.08-1.25-.1-2,0-1.05-.05-1.9-.05-2.56v-19h-3.55V31.87a12.86,12.86,0,0,1-.63,4.25,8.64,8.64,0,0,1-1.67,3,6.62,6.62,0,0,1-2.37,1.74,6.74,6.74,0,0,1-2.74.58,7.29,7.29,0,0,1-3.21-.63,5.09,5.09,0,0,1-2-1.75,7.35,7.35,0,0,1-1.07-2.68,17.87,17.87,0,0,1-.31-3.5V19.35h-3.55v15a11,11,0,0,0,2.32,7.31A7.19,7.19,0,0,0,551,42.91h-12.3A11.72,11.72,0,0,0,542,40.17l-2.66-2a7.78,7.78,0,0,1-6.62,3.19,9.53,9.53,0,0,1-3.86-.76,8.39,8.39,0,0,1-2.93-2.09,9.47,9.47,0,0,1-1.85-3.1,11.21,11.21,0,0,1-.65-3.86,11.46,11.46,0,0,1,.65-3.89,9.24,9.24,0,0,1,1.88-3.13,8.77,8.77,0,0,1,3-2.08,9.4,9.4,0,0,1,3.86-.76,7.77,7.77,0,0,1,3.68.91A6.88,6.88,0,0,1,539,24.93l2.76-2a9.73,9.73,0,0,0-4.09-3.15,12.63,12.63,0,0,0-5-1.07,14.36,14.36,0,0,0-5.38,1,11.94,11.94,0,0,0-4.09,2.69,12.23,12.23,0,0,0-2.64,4.07,14.5,14.5,0,0,0,0,10.22,12.23,12.23,0,0,0,2.64,4.07,11.48,11.48,0,0,0,3,2.17H512.55c-.07-.51-.13-1.07-.17-1.7-.07-1-.11-2-.11-2.92V27.59a9.67,9.67,0,0,0-.73-3.91,7.46,7.46,0,0,0-2-2.76,8.9,8.9,0,0,0-3-1.65,12.3,12.3,0,0,0-3.7-.54,15,15,0,0,0-5.61,1,11.69,11.69,0,0,0-4,2.5l2,2.35a9.72,9.72,0,0,1,3.18-2.09,10.54,10.54,0,0,1,4.07-.78,6.89,6.89,0,0,1,4.85,1.55A6.13,6.13,0,0,1,508.93,28v.77q-3.33,0-6.44.24a22.22,22.22,0,0,0-5.5,1,8.8,8.8,0,0,0-3.84,2.46A6.64,6.64,0,0,0,491.72,37a6.83,6.83,0,0,0,.81,3.45,7.22,7.22,0,0,0,2,2.31c.1.07.2.12.29.19H479.51a11.84,11.84,0,0,0,2.95-2.22A12.29,12.29,0,0,0,485,36.62a14.52,14.52,0,0,0,0-10.12,12.19,12.19,0,0,0-2.56-4.07,11.88,11.88,0,0,0-4-2.71,13.12,13.12,0,0,0-5.19-1A11.71,11.71,0,0,0,468.14,20a10.15,10.15,0,0,0-4.07,3.63H464V4.33h-3.55V42.91h-5.69L439.24,6.83h-3.65L420,42.91H398.9a13.69,13.69,0,0,0,4.3-3.68l-2.66-2.09a9.59,9.59,0,0,1-3.05,3,9.29,9.29,0,0,1-8.27.57,9,9,0,0,1-2.82-1.9,8.63,8.63,0,0,1-1.87-2.82,9.25,9.25,0,0,1-.73-3.44H404c0-.32,0-.61,0-.89v-.78a14.17,14.17,0,0,0-.76-4.7,11.07,11.07,0,0,0-2.22-3.83,10.55,10.55,0,0,0-3.65-2.61,12.48,12.48,0,0,0-5.06-1,12,12,0,0,0-8.76,3.65A12.47,12.47,0,0,0,381,26.45a13.74,13.74,0,0,0-.94,5.11,13.18,13.18,0,0,0,1,5.11,12.68,12.68,0,0,0,2.63,4.07,11.52,11.52,0,0,0,2.9,2.17H366.77l9.57-23.56h-3.81l-8,20.66h-.11l-7.92-20.66h-4l9.61,23.56H347V19.35h-3.55V42.91H333.07l.34-.21a6.77,6.77,0,0,0,2.92-5.87,5.63,5.63,0,0,0-2.06-4.57,14.75,14.75,0,0,0-6.39-2.58,13.51,13.51,0,0,1-4.43-1.54A2.94,2.94,0,0,1,322,25.51a3.28,3.28,0,0,1,.44-1.72,3.73,3.73,0,0,1,1.17-1.2,5.06,5.06,0,0,1,1.67-.68,8.67,8.67,0,0,1,1.88-.21,6.8,6.8,0,0,1,3.63,1,6.17,6.17,0,0,1,2.37,2.47l2.71-2a8,8,0,0,0-3.6-3.24,11.41,11.41,0,0,0-4.95-1.14,13,13,0,0,0-3.24.41,8.9,8.9,0,0,0-2.79,1.28,6.24,6.24,0,0,0-2.68,5.4,5.47,5.47,0,0,0,.68,2.87,6,6,0,0,0,1.72,1.9,7.71,7.71,0,0,0,2.27,1.15c.81.26,1.59.48,2.32.65a24.41,24.41,0,0,1,5.34,1.8,3.11,3.11,0,0,1,1.86,2.9,3.73,3.73,0,0,1-1.73,3.34,5.19,5.19,0,0,1-1.82.73,11.14,11.14,0,0,1-2.19.21,7.69,7.69,0,0,1-4-1.1,7.56,7.56,0,0,1-2.76-2.71l-2.82,2.08a10,10,0,0,0,3.64,3.27H309.91l.34-.21a6.77,6.77,0,0,0,2.92-5.87,5.63,5.63,0,0,0-2.06-4.57,14.75,14.75,0,0,0-6.39-2.58,13.51,13.51,0,0,1-4.43-1.54,2.94,2.94,0,0,1-1.41-2.63,3.28,3.28,0,0,1,.44-1.72,3.66,3.66,0,0,1,1.18-1.2,4.89,4.89,0,0,1,1.67-.68A8.51,8.51,0,0,1,304,21.7a6.8,6.8,0,0,1,3.63,1A6.17,6.17,0,0,1,310,25.14l2.71-2a8,8,0,0,0-3.6-3.24,11.41,11.41,0,0,0-4.95-1.14,12.82,12.82,0,0,0-3.23.41,8.85,8.85,0,0,0-2.8,1.28,6.24,6.24,0,0,0-2.68,5.4,5.47,5.47,0,0,0,.68,2.87,6,6,0,0,0,1.72,1.9,7.71,7.71,0,0,0,2.27,1.15c.81.26,1.59.48,2.32.65a24.41,24.41,0,0,1,5.34,1.8,3.11,3.11,0,0,1,1.86,2.9A3.73,3.73,0,0,1,308,40.43a5.19,5.19,0,0,1-1.82.73,11.14,11.14,0,0,1-2.19.21,7.69,7.69,0,0,1-4-1.1,7.56,7.56,0,0,1-2.76-2.71l-2.82,2.08A10,10,0,0,0,298,42.91H284.25a13.69,13.69,0,0,0,4.3-3.68l-2.66-2.09a9.59,9.59,0,0,1-3.05,3,9.29,9.29,0,0,1-8.27.57,9,9,0,0,1-2.82-1.9,8.63,8.63,0,0,1-1.87-2.82,9.25,9.25,0,0,1-.73-3.44h20.24c0-.32.05-.61.05-.89v-.78a14.17,14.17,0,0,0-.76-4.7,11.07,11.07,0,0,0-2.22-3.83,10.55,10.55,0,0,0-3.65-2.61,12.48,12.48,0,0,0-5.06-1A12,12,0,0,0,269,22.38a12.47,12.47,0,0,0-2.61,4.07,13.74,13.74,0,0,0-.94,5.11,13.18,13.18,0,0,0,1,5.11A12.68,12.68,0,0,0,269,40.74a11.52,11.52,0,0,0,2.9,2.17h-19V31.28a12.93,12.93,0,0,1,.6-4.19,8.55,8.55,0,0,1,1.57-2.86,5.68,5.68,0,0,1,2.27-1.64,7.18,7.18,0,0,1,2.71-.52,10.24,10.24,0,0,1,1.46.1,6.28,6.28,0,0,1,1,.21L263,19a5.65,5.65,0,0,0-1.12-.21c-.36,0-.77-.05-1.22-.05a8.53,8.53,0,0,0-4.7,1.33,8.43,8.43,0,0,0-3.13,3.47h-.1c0-.53,0-1.19-.05-2s-.09-1.53-.16-2.19h-3.39c.07.84.12,1.78.16,2.82s0,1.9,0,2.56V42.91h-9.23V19.35H236.6v4.23h-.11a9.52,9.52,0,0,0-4-3.6,11.68,11.68,0,0,0-5.22-1.25,13.12,13.12,0,0,0-5.19,1,11.68,11.68,0,0,0-4,2.71,12.38,12.38,0,0,0-2.56,4,13.09,13.09,0,0,0-.91,4.9,13.29,13.29,0,0,0,.91,5,11.39,11.39,0,0,0,2.56,3.93,11.68,11.68,0,0,0,4,2.59l.24.08H202.16a12,12,0,0,0,3-2.17,12.32,12.32,0,0,0,2.68-4.07,13.94,13.94,0,0,0,0-10.22A12,12,0,0,0,201,19.69a14.78,14.78,0,0,0-10.48,0,12.08,12.08,0,0,0-6.81,6.76,14.08,14.08,0,0,0,0,10.22,12.35,12.35,0,0,0,2.69,4.07,11.82,11.82,0,0,0,3,2.17H170.25V31.28a12.93,12.93,0,0,1,.6-4.19,8.54,8.54,0,0,1,1.56-2.86,5.75,5.75,0,0,1,2.27-1.64,7.23,7.23,0,0,1,2.72-.52,10.34,10.34,0,0,1,1.46.1,6.79,6.79,0,0,1,1,.21l.47-3.39a5.79,5.79,0,0,0-1.12-.21c-.37,0-.78-.05-1.23-.05a8.5,8.5,0,0,0-4.69,1.33,8.36,8.36,0,0,0-3.13,3.47h-.11c0-.53,0-1.19-.05-2s-.09-1.53-.16-2.19h-3.39c.07.84.13,1.78.16,2.82s0,1.9,0,2.56V42.91H142.92V26.6h6.57a20.06,20.06,0,0,0,5.14-.62,11.79,11.79,0,0,0,4-1.85,8.49,8.49,0,0,0,2.56-3.08,9.76,9.76,0,0,0,.91-4.36,10,10,0,0,0-.89-4.35,8.14,8.14,0,0,0-2.53-3.08,11.23,11.23,0,0,0-3.93-1.83,20.32,20.32,0,0,0-5.12-.6H139.16V42.91H2.27V44H192.45a14.78,14.78,0,0,0,3.31.38,15.08,15.08,0,0,0,3.35-.38h37.47a12.92,12.92,0,0,1-.5,3.28,8.27,8.27,0,0,1-1.65,3.05,7.7,7.7,0,0,1-2.94,2.06,11.71,11.71,0,0,1-4.44.75,11.48,11.48,0,0,1-5.34-1.3,11.75,11.75,0,0,1-4-3.18l-2.56,2.71a15.63,15.63,0,0,0,5.27,3.6,16.4,16.4,0,0,0,6.47,1.3A15,15,0,0,0,233.52,55a11.47,11.47,0,0,0,4-3.13,10.69,10.69,0,0,0,2-4.12,18.77,18.77,0,0,0,.53-3.77h34.75a13.73,13.73,0,0,0,3.19.38A14.28,14.28,0,0,0,281.3,44h19.61a13.32,13.32,0,0,0,3.08.38,14.37,14.37,0,0,0,3.26-.38h16.82a13.32,13.32,0,0,0,3.08.38,14.44,14.44,0,0,0,3.26-.38h59.11a13.88,13.88,0,0,0,3.2.38A14.28,14.28,0,0,0,396,44H470.4a11.91,11.91,0,0,0,2.91.38,14.38,14.38,0,0,0,3.28-.38h20.73a11.46,11.46,0,0,0,2.85.38,13.14,13.14,0,0,0,3.18-.38h25.87a15.79,15.79,0,0,0,3.45.38A14.17,14.17,0,0,0,536,44h17.46a12.09,12.09,0,0,0,3.13.38,9.77,9.77,0,0,0,2.69-.38h22.39a13.32,13.32,0,0,0,3.08.38A14.31,14.31,0,0,0,588,44h86.29ZM384.63,26.68a8.89,8.89,0,0,1,4.49-4.33,8.28,8.28,0,0,1,3.28-.65A7.53,7.53,0,0,1,398.27,24a8.85,8.85,0,0,1,2.22,5.71H383.85A8.33,8.33,0,0,1,384.63,26.68ZM270,26.68a8.89,8.89,0,0,1,4.49-4.33,8.28,8.28,0,0,1,3.28-.65A7.53,7.53,0,0,1,283.62,24a8.8,8.8,0,0,1,2.22,5.71H269.2A8.33,8.33,0,0,1,270,26.68Zm-82.8,8.71a11.47,11.47,0,0,1,0-7.67A9.44,9.44,0,0,1,189,24.59a8.88,8.88,0,0,1,2.89-2.11,9.08,9.08,0,0,1,3.84-.78,9.28,9.28,0,0,1,3.86.78,8.9,8.9,0,0,1,2.92,2.11,9.61,9.61,0,0,1,1.85,3.13,11.64,11.64,0,0,1,0,7.67,9.41,9.41,0,0,1-1.85,3.13,8.44,8.44,0,0,1-2.92,2.09,9.6,9.6,0,0,1-3.86.76,9.4,9.4,0,0,1-3.84-.76A8.42,8.42,0,0,1,189,38.52,9.24,9.24,0,0,1,187.18,35.39ZM142.92,10.07h6.36a11.87,11.87,0,0,1,6.65,1.59,5.63,5.63,0,0,1,2.37,5,5.88,5.88,0,0,1-2.29,5q-2.3,1.73-6.73,1.72h-6.36Zm353.6,24a7.73,7.73,0,0,1,2.94-1.59,19.46,19.46,0,0,1,4-.73q2.22-.18,4.41-.18h1v1.82a9,9,0,0,1-.52,3.08A7.73,7.73,0,0,1,506.9,39a7.14,7.14,0,0,1-2.45,1.78,8.22,8.22,0,0,1-3.34.65,8.92,8.92,0,0,1-2.06-.24,5.35,5.35,0,0,1-1.85-.78A4,4,0,0,1,495.87,39a4.43,4.43,0,0,1-.5-2.19A3.56,3.56,0,0,1,496.52,34.06ZM509,39.8h.1c0,.66,0,1.34.11,2,0,.37.08.72.12,1.07h-3.43A10.91,10.91,0,0,0,509,39.8ZM464.26,27.67a9.74,9.74,0,0,1,1.95-3.13,9.18,9.18,0,0,1,6.73-2.84,9.35,9.35,0,0,1,3.91.78,8.52,8.52,0,0,1,2.9,2.11,9.5,9.5,0,0,1,1.8,3.13,12.17,12.17,0,0,1,0,7.67,9.3,9.3,0,0,1-1.8,3.13,8.09,8.09,0,0,1-2.9,2.09,9.67,9.67,0,0,1-3.91.76,9.26,9.26,0,0,1-6.73-2.82,9.44,9.44,0,0,1-1.95-3.11,11,11,0,0,1,0-7.77Zm-.29,12h.1a10.07,10.07,0,0,0,3.57,3.27H464ZM437.31,11l8.14,19.61H429.18Zm-9.54,23.05h19.09l3.71,8.85H424.11ZM220.82,37.92a9.19,9.19,0,0,1-1.8-3,10.92,10.92,0,0,1,0-7.31,9.29,9.29,0,0,1,1.8-3,8.66,8.66,0,0,1,2.89-2.09,9.43,9.43,0,0,1,3.92-.78,9,9,0,0,1,3.75.78A9.57,9.57,0,0,1,237,31.25a10.27,10.27,0,0,1-.71,3.88,8.85,8.85,0,0,1-1.95,3,8.57,8.57,0,0,1-3,1.93,10.2,10.2,0,0,1-3.75.68,9.59,9.59,0,0,1-3.92-.76A8.32,8.32,0,0,1,220.82,37.92Zm11.68,4.59a9.19,9.19,0,0,0,4-3.54h.11v3.94h-5C231.88,42.78,232.19,42.66,232.5,42.51Zm332.4-2.92H565c0,.52,0,1.18,0,2,0,.48.05.91.08,1.34h-3.39A8,8,0,0,0,564.9,39.59Z"/><path class="cls-7" d="M345.2,12.47a2.53,2.53,0,0,0,1.72-.71,2.32,2.32,0,0,0,.78-1.8,2.32,2.32,0,0,0-.78-1.8,2.46,2.46,0,0,0-3.44,0,2.29,2.29,0,0,0-.79,1.8,2.29,2.29,0,0,0,.79,1.8A2.51,2.51,0,0,0,345.2,12.47Z"/><g class="cls-1"><path class="cls-2" d="M71.56,135.72c26.69,0,40.09,4.26,40.09,6.65S98.25,149,71.56,149s-40.09-4.26-40.09-6.65,13.4-6.65,40.09-6.65m0-1c-23,0-41.12,3.44-41.12,7.68S48.55,150,71.56,150s41.12-3.43,41.12-7.67-18.11-7.68-41.12-7.68Z"/></g><g class="cls-1"><path class="cls-2" d="M112.68,142.37a1.85,1.85,0,0,1-.47,1.17,9.5,9.5,0,0,1-4,2.36,64.26,64.26,0,0,1-12.8,2.75,186.78,186.78,0,0,1-23.8,1.4c-16.35,0-30.23-1.74-36.89-4.26-2.45-.93-3.93-2-4.18-3.07a.18.18,0,0,1,0-.1.25.25,0,0,1,0-.12.3.3,0,0,1,0-.13.25.25,0,0,1,0-.12.3.3,0,0,1,0-.13.2.2,0,0,1,0-.1c.25-1.1,1.73-2.13,4.18-3.06,6.66-2.52,20.54-4.26,36.89-4.26,5.86,0,11.4.22,16.4.62,8.76.71,15.89,2,20.2,3.53a9.52,9.52,0,0,1,4,2.34h0A1.85,1.85,0,0,1,112.68,142.37Z"/></g><g class="cls-1"><path class="cls-2" d="M112.68,142.37a.93.93,0,0,1-.25.54c-.38.47-1.32,1.2-3.67,2.05A65,65,0,0,1,96,147.66l-1.44.17a193.64,193.64,0,0,1-22.52,1.22c-15.89,0-30.07-1.61-37-4.2-2.94-1.1-3.49-2-3.59-2.3l0-.17,0-.18c.09-.31.63-1.2,3.59-2.31,6.92-2.58,21.1-4.19,37-4.19,5.78,0,11.34.21,16.52.62h.06c8.71.71,15.85,1.93,20.13,3.47,2.45.88,3.33,1.65,3.64,2l.07.08a1.05,1.05,0,0,1,.19.36A.41.41,0,0,1,112.68,142.37Z"/></g><path class="cls-2" d="M71.49,123.68c8.52,0,8.52,0,17.05,4.27a195.61,195.61,0,0,1,19.59,10.88c2.33,1.55,3.41,2.68,3.41,3.54s-1.08,2-3.41,3.54a197.66,197.66,0,0,1-19.59,10.88c-8.53,4.27-8.53,4.27-17.05,4.27s-8.51,0-17-4.27a197.66,197.66,0,0,1-19.58-10.88c-2.33-1.55-3.42-2.68-3.42-3.54s1.09-2,3.42-3.54A195.61,195.61,0,0,1,54.44,128c8.54-4.27,8.54-4.27,17-4.27m0-1c-8.75,0-8.75,0-17.5,4.38A197.77,197.77,0,0,0,34.3,138c-5.14,3.44-5.14,5.32,0,8.75A198.13,198.13,0,0,0,54,157.68c8.75,4.38,8.75,4.38,17.5,4.38s8.75,0,17.5-4.38a195.91,195.91,0,0,0,19.69-10.94c5.15-3.43,5.15-5.31,0-8.75A195.56,195.56,0,0,0,89,127.06c-8.75-4.38-8.75-4.38-17.5-4.38Z"/><g class="cls-1"><path class="cls-2" d="M112.21,143.54a9.5,9.5,0,0,1-4,2.36l0,0c-.93.62-1.9,1.23-2.9,1.85,1.35-.35,2.56-.73,3.45-1A197.93,197.93,0,0,1,89,157.69c-8.75,4.37-8.75,4.37-17.5,4.37s-8.75,0-17.5-4.37A200.2,200.2,0,0,1,34.3,146.75c-2.35-1.57-3.62-2.81-3.81-4a.18.18,0,0,1,0-.1.25.25,0,0,1,0-.12,1,1,0,0,1,0-.25.3.3,0,0,1,0-.13.2.2,0,0,1,0-.1c.19-1.21,1.46-2.46,3.81-4A198.13,198.13,0,0,1,54,127.06c8.75-4.37,8.75-4.37,17.5-4.37A49.41,49.41,0,0,1,79,123h0c2.69.42,4.8,1.48,10,4.07A195.91,195.91,0,0,1,108.68,138a10.94,10.94,0,0,1,3.52,3.19h0A2.24,2.24,0,0,1,112.21,143.54Z"/></g><g class="cls-8"><path class="cls-9" d="M112.68,142.37a.93.93,0,0,1-.25.54c-.38.47-1.32,1.2-3.67,2.05A65,65,0,0,1,96,147.66l-1.44.17a1.14,1.14,0,0,1-.08-.46c0-1.18-.8-3.48-5.86-11.05l-.68-1c-.56-.82-1.16-1.69-1.81-2.62-2.2-3.15-4.62-6.36-6.26-8.51-.34-.45-.65-.85-.9-1.2,2.69.42,4.8,1.48,10,4.07A195.91,195.91,0,0,1,108.68,138a10.94,10.94,0,0,1,3.52,3.19h0a1.87,1.87,0,0,1,.46,1.06A.41.41,0,0,1,112.68,142.37Z"/></g><g class="cls-10"><path class="cls-9" d="M112.68,142.37a.93.93,0,0,1-.25.54c-.38.47-1.32,1.2-3.67,2.05A65,65,0,0,1,96,147.66l-1.44.17a1.14,1.14,0,0,1-.08-.46c0-1.18-.8-3.48-5.86-11.05l-.68-1c-.56-.82-1.16-1.69-1.81-2.62-2.2-3.15-4.62-6.36-6.26-8.51-.34-.45-.65-.85-.9-1.2,2.69.42,4.8,1.48,10,4.07A195.91,195.91,0,0,1,108.68,138a10.94,10.94,0,0,1,3.52,3.19h0a1.87,1.87,0,0,1,.46,1.06A.41.41,0,0,1,112.68,142.37Z"/></g><path class="cls-2" d="M71.49,163c8.52,0,8.52,0,17.05,4.27a197.66,197.66,0,0,1,19.59,10.88c2.33,1.55,3.41,2.68,3.41,3.54s-1.08,2-3.41,3.54a197.66,197.66,0,0,1-19.59,10.88c-8.53,4.27-8.53,4.27-17.05,4.27s-8.51,0-17-4.27a197.66,197.66,0,0,1-19.58-10.88c-2.33-1.55-3.42-2.68-3.42-3.54s1.09-2,3.42-3.54a197.66,197.66,0,0,1,19.58-10.88C63,163,63,163,71.49,163m0-1c-8.75,0-8.75,0-17.5,4.38A197.77,197.77,0,0,0,34.3,177.35c-5.14,3.44-5.14,5.32,0,8.75A198.13,198.13,0,0,0,54,197c8.75,4.38,8.75,4.38,17.5,4.38s8.75,0,17.5-4.38a195.91,195.91,0,0,0,19.69-10.94c5.15-3.43,5.15-5.31,0-8.75A195.56,195.56,0,0,0,89,166.42C80.24,162,80.24,162,71.49,162Z"/><g class="cls-1"><path class="cls-2" d="M112.21,182.9a9.5,9.5,0,0,1-4,2.36l0,0c-.93.62-1.9,1.23-2.9,1.85,1.35-.35,2.56-.73,3.45-1A197.93,197.93,0,0,1,89,197.05c-8.75,4.37-8.75,4.37-17.5,4.37s-8.75,0-17.5-4.37A200.2,200.2,0,0,1,34.3,186.11c-2.35-1.57-3.62-2.81-3.81-4a.18.18,0,0,1,0-.1.25.25,0,0,1,0-.12,1,1,0,0,1,0-.25.3.3,0,0,1,0-.13.2.2,0,0,1,0-.1c.19-1.21,1.46-2.46,3.81-4A198.13,198.13,0,0,1,54,166.42c8.75-4.37,8.75-4.37,17.5-4.37a49.41,49.41,0,0,1,7.49.3h0c2.69.42,4.8,1.48,10,4.07a195.91,195.91,0,0,1,19.69,10.94,10.94,10.94,0,0,1,3.52,3.19h0A2.24,2.24,0,0,1,112.21,182.9Z"/></g><g class="cls-8"><path class="cls-9" d="M112.68,181.73a.93.93,0,0,1-.25.54c-.38.47-1.32,1.2-3.67,2A65,65,0,0,1,96,187l-1.44.17a1.14,1.14,0,0,1-.08-.46c0-1.18-.8-3.48-5.86-11l-.68-1c-.56-.82-1.16-1.69-1.81-2.62-2.2-3.15-4.62-6.36-6.26-8.51-.34-.45-.65-.85-.9-1.2,2.69.42,4.8,1.48,10,4.07a195.91,195.91,0,0,1,19.69,10.94,10.94,10.94,0,0,1,3.52,3.19h0a1.87,1.87,0,0,1,.46,1.06A.41.41,0,0,1,112.68,181.73Z"/></g><g class="cls-10"><path class="cls-9" d="M112.68,181.73a.93.93,0,0,1-.25.54c-.38.47-1.32,1.2-3.67,2A65,65,0,0,1,96,187l-1.44.17a1.14,1.14,0,0,1-.08-.46c0-1.18-.8-3.48-5.86-11l-.68-1c-.56-.82-1.16-1.69-1.81-2.62-2.2-3.15-4.62-6.36-6.26-8.51-.34-.45-.65-.85-.9-1.2,2.69.42,4.8,1.48,10,4.07a195.91,195.91,0,0,1,19.69,10.94,10.94,10.94,0,0,1,3.52,3.19h0a1.87,1.87,0,0,1,.46,1.06A.41.41,0,0,1,112.68,181.73Z"/></g><g class="cls-1"><path class="cls-2" d="M72,96.37c26.69,0,40.09,4.26,40.09,6.65s-13.4,6.64-40.09,6.64S31.88,105.4,31.88,103,45.28,96.37,72,96.37m0-1c-23,0-41.12,3.44-41.12,7.68S49,110.69,72,110.69s41.12-3.44,41.12-7.67S95,95.34,72,95.34Z"/></g><g class="cls-1"><path class="cls-2" d="M113.09,103a1.85,1.85,0,0,1-.47,1.17,9.5,9.5,0,0,1-4.05,2.36,64.26,64.26,0,0,1-12.8,2.75,186.78,186.78,0,0,1-23.8,1.4c-16.35,0-30.23-1.74-36.89-4.26-2.45-.93-3.93-2-4.18-3.07a.18.18,0,0,1,0-.1.25.25,0,0,1,0-.12.3.3,0,0,1,0-.13.25.25,0,0,1,0-.12.3.3,0,0,1,0-.13.2.2,0,0,1,0-.1c.25-1.1,1.73-2.13,4.18-3.06,6.66-2.52,20.54-4.26,36.89-4.26,5.86,0,11.4.22,16.4.62,8.76.71,15.89,2,20.2,3.53a9.52,9.52,0,0,1,4,2.34s0,0,0,0A1.85,1.85,0,0,1,113.09,103Z"/></g><g class="cls-1"><path class="cls-2" d="M113.09,103a.93.93,0,0,1-.25.54c-.38.47-1.32,1.2-3.67,2a65,65,0,0,1-12.74,2.7l-1.44.17a193.64,193.64,0,0,1-22.52,1.22c-15.89,0-30.07-1.61-37-4.2-2.94-1.1-3.49-2-3.59-2.3l0-.17,0-.18c.09-.31.63-1.2,3.59-2.31,6.92-2.58,21.1-4.19,37-4.19,5.78,0,11.34.21,16.52.62h.06c8.71.71,15.85,1.93,20.13,3.47,2.45.88,3.33,1.65,3.64,2l.07.08a1.05,1.05,0,0,1,.19.36A.41.41,0,0,1,113.09,103Z"/></g><path class="cls-2" d="M71.9,84.33c8.52,0,8.52,0,17.06,4.27a197.29,197.29,0,0,1,19.58,10.87C110.87,101,112,102.15,112,103s-1.08,2-3.41,3.54A197.29,197.29,0,0,1,89,117.43c-8.54,4.27-8.54,4.27-17.06,4.27s-8.51,0-17.05-4.27a197.29,197.29,0,0,1-19.58-10.87c-2.33-1.55-3.42-2.68-3.42-3.54s1.09-2,3.42-3.55A197.29,197.29,0,0,1,54.85,88.6c8.54-4.27,8.54-4.27,17.05-4.27m0-1c-8.75,0-8.75,0-17.5,4.37A199.06,199.06,0,0,0,34.72,98.64c-5.15,3.43-5.15,5.32,0,8.75A197,197,0,0,0,54.4,118.33c8.75,4.37,8.75,4.37,17.5,4.37s8.75,0,17.5-4.37a195.91,195.91,0,0,0,19.69-10.94c5.15-3.43,5.15-5.32,0-8.75A197.93,197.93,0,0,0,89.4,87.7c-8.75-4.37-8.75-4.37-17.5-4.37Z"/><g class="cls-1"><path class="cls-2" d="M112.62,104.18a9.5,9.5,0,0,1-4.05,2.36l0,0c-.93.62-1.9,1.23-2.9,1.85,1.35-.35,2.56-.73,3.45-1A197.93,197.93,0,0,1,89.4,118.33c-8.75,4.37-8.75,4.37-17.5,4.37s-8.75,0-17.5-4.37a200.2,200.2,0,0,1-19.69-10.94c-2.35-1.57-3.62-2.81-3.81-4a.18.18,0,0,1,0-.1.25.25,0,0,1,0-.12,1,1,0,0,1,0-.25.3.3,0,0,1,0-.13.2.2,0,0,1,0-.1c.19-1.21,1.46-2.46,3.81-4A198.13,198.13,0,0,1,54.4,87.7c8.75-4.37,8.75-4.37,17.5-4.37a49.41,49.41,0,0,1,7.49.3h0c2.69.42,4.8,1.48,10,4.07a195.91,195.91,0,0,1,19.69,10.94,10.94,10.94,0,0,1,3.52,3.19s0,0,0,0A2.24,2.24,0,0,1,112.62,104.18Z"/></g><g class="cls-1"><path class="cls-2" d="M71.56,57c26.69,0,40.09,4.26,40.09,6.64s-13.4,6.65-40.09,6.65-40.09-4.26-40.09-6.65S44.87,57,71.56,57m0-1c-23,0-41.12,3.43-41.12,7.67s18.11,7.68,41.12,7.68,41.12-3.44,41.12-7.68S94.57,56,71.56,56Z"/></g><g class="cls-1"><path class="cls-2" d="M112.68,63.67a1.85,1.85,0,0,1-.47,1.17,9.5,9.5,0,0,1-4,2.36A64.26,64.26,0,0,1,95.36,70a186.78,186.78,0,0,1-23.8,1.4c-16.35,0-30.23-1.74-36.89-4.26-2.45-.93-3.93-2-4.18-3.07a.18.18,0,0,1,0-.1.25.25,0,0,1,0-.12.3.3,0,0,1,0-.13.25.25,0,0,1,0-.12.3.3,0,0,1,0-.13.2.2,0,0,1,0-.1c.25-1.1,1.73-2.13,4.18-3.06C41.33,57.74,55.21,56,71.56,56c5.86,0,11.4.22,16.4.62,8.76.71,15.89,2,20.2,3.53a9.52,9.52,0,0,1,4,2.34h0A1.85,1.85,0,0,1,112.68,63.67Z"/></g><g class="cls-1"><path class="cls-2" d="M112.68,63.67a.93.93,0,0,1-.25.54c-.38.47-1.32,1.2-3.67,2.05A65,65,0,0,1,96,69l-1.44.17a193.64,193.64,0,0,1-22.52,1.22c-15.89,0-30.07-1.61-37-4.2-2.94-1.1-3.49-2-3.59-2.3l0-.17,0-.18c.09-.31.63-1.2,3.59-2.31C42,58.61,56.17,57,72.06,57c5.78,0,11.34.21,16.52.62h.06c8.71.71,15.85,1.93,20.13,3.47,2.45.88,3.33,1.65,3.64,2l.07.08a1.05,1.05,0,0,1,.19.36A.41.41,0,0,1,112.68,63.67Z"/></g><path class="cls-2" d="M71.49,45C80,45,80,45,88.54,49.25a197.66,197.66,0,0,1,19.59,10.88c2.33,1.55,3.41,2.68,3.41,3.54s-1.08,2-3.41,3.55A197.29,197.29,0,0,1,88.54,78.09C80,82.36,80,82.36,71.49,82.36s-8.51,0-17-4.27A197.29,197.29,0,0,1,34.86,67.22c-2.33-1.56-3.42-2.68-3.42-3.55s1.09-2,3.42-3.54A197.66,197.66,0,0,1,54.44,49.25C63,45,63,45,71.49,45m0-1c-8.75,0-8.75,0-17.5,4.38A198.13,198.13,0,0,0,34.3,59.3c-5.14,3.43-5.14,5.32,0,8.75A200.2,200.2,0,0,0,54,79c8.75,4.37,8.75,4.37,17.5,4.37s8.75,0,17.5-4.37a197.93,197.93,0,0,0,19.69-10.94c5.15-3.43,5.15-5.32,0-8.75A195.91,195.91,0,0,0,89,48.36C80.24,44,80.24,44,71.49,44Z"/><g class="cls-1"><path class="cls-2" d="M112.21,64.84a9.5,9.5,0,0,1-4,2.36l0,0c-.93.62-1.9,1.23-2.9,1.85,1.35-.35,2.56-.73,3.45-1A197.93,197.93,0,0,1,89,79c-8.75,4.37-8.75,4.37-17.5,4.37S62.74,83.36,54,79A200.2,200.2,0,0,1,34.3,68.05c-2.35-1.57-3.62-2.81-3.81-4a.18.18,0,0,1,0-.1.25.25,0,0,1,0-.12,1,1,0,0,1,0-.25.3.3,0,0,1,0-.13.2.2,0,0,1,0-.1c.19-1.21,1.46-2.46,3.81-4A198.13,198.13,0,0,1,54,48.36C62.74,44,62.74,44,71.49,44a49.41,49.41,0,0,1,7.49.3h0c2.69.42,4.8,1.48,10,4.07A195.91,195.91,0,0,1,108.68,59.3a10.94,10.94,0,0,1,3.52,3.19h0A2.24,2.24,0,0,1,112.21,64.84Z"/></g><g class="cls-8"><path class="cls-9" d="M112.68,63.67a.93.93,0,0,1-.25.54c-.38.47-1.32,1.2-3.67,2.05A65,65,0,0,1,96,69l-1.44.17a1.14,1.14,0,0,1-.08-.46c0-1.18-.8-3.48-5.86-11.05l-.68-1c-.56-.82-1.16-1.69-1.81-2.62-2.2-3.15-4.62-6.36-6.26-8.51-.34-.45-.65-.85-.9-1.2,2.69.42,4.8,1.48,10,4.07A195.91,195.91,0,0,1,108.68,59.3a10.94,10.94,0,0,1,3.52,3.19h0a1.87,1.87,0,0,1,.46,1.06A.41.41,0,0,1,112.68,63.67Z"/></g><g class="cls-10"><path class="cls-9" d="M112.68,63.67a.93.93,0,0,1-.25.54c-.38.47-1.32,1.2-3.67,2.05A65,65,0,0,1,96,69l-1.44.17a1.14,1.14,0,0,1-.08-.46c0-1.18-.8-3.48-5.86-11.05l-.68-1c-.56-.82-1.16-1.69-1.81-2.62-2.2-3.15-4.62-6.36-6.26-8.51-.34-.45-.65-.85-.9-1.2,2.69.42,4.8,1.48,10,4.07A195.91,195.91,0,0,1,108.68,59.3a10.94,10.94,0,0,1,3.52,3.19h0a1.87,1.87,0,0,1,.46,1.06A.41.41,0,0,1,112.68,63.67Z"/></g><g class="cls-1"><path class="cls-2" d="M71.56,15.58c26.69,0,40.09,4.26,40.09,6.64s-13.4,6.65-40.09,6.65-40.09-4.26-40.09-6.65,13.4-6.64,40.09-6.64m0-1c-23,0-41.12,3.43-41.12,7.67S48.55,29.9,71.56,29.9s41.12-3.44,41.12-7.68-18.11-7.67-41.12-7.67Z"/></g><g class="cls-1"><path class="cls-2" d="M112.68,22.22a1.85,1.85,0,0,1-.47,1.17,9.5,9.5,0,0,1-4,2.36,64.26,64.26,0,0,1-12.8,2.75,186.78,186.78,0,0,1-23.8,1.4c-16.35,0-30.23-1.74-36.89-4.26-2.45-.93-3.93-2-4.18-3.07a.18.18,0,0,1,0-.1.25.25,0,0,1,0-.12.3.3,0,0,1,0-.13.25.25,0,0,1,0-.12.3.3,0,0,1,0-.13.2.2,0,0,1,0-.1c.25-1.1,1.73-2.13,4.18-3.06,6.66-2.52,20.54-4.26,36.89-4.26,5.86,0,11.4.22,16.4.62,8.76.71,15.89,2,20.2,3.53a9.52,9.52,0,0,1,4,2.34s0,0,0,0A1.85,1.85,0,0,1,112.68,22.22Z"/></g><g class="cls-1"><path class="cls-2" d="M112.68,22.22a.93.93,0,0,1-.25.54c-.38.47-1.32,1.2-3.67,2A65,65,0,0,1,96,27.51l-1.44.17A193.64,193.64,0,0,1,72.06,28.9c-15.89,0-30.07-1.61-37-4.2-2.94-1.1-3.49-2-3.59-2.3l0-.17,0-.18c.09-.31.63-1.2,3.59-2.31,6.92-2.58,21.1-4.19,37-4.19,5.78,0,11.34.21,16.52.62h.06c8.71.71,15.85,1.93,20.13,3.47,2.45.88,3.33,1.65,3.64,2l.07.08a1.05,1.05,0,0,1,.19.36A.41.41,0,0,1,112.68,22.22Z"/></g><path class="cls-2" d="M71.49,3.53c8.52,0,8.52,0,17.05,4.27a197.66,197.66,0,0,1,19.59,10.88c2.33,1.55,3.41,2.68,3.41,3.54s-1.08,2-3.41,3.55A198.22,198.22,0,0,1,88.54,36.64C80,40.91,80,40.91,71.49,40.91s-8.51,0-17.06-4.27A199.37,199.37,0,0,1,34.86,25.77c-2.33-1.56-3.42-2.68-3.42-3.55s1.09-2,3.42-3.54A197.66,197.66,0,0,1,54.44,7.8C63,3.53,63,3.53,71.49,3.53m0-1c-8.75,0-8.75,0-17.5,4.38A198.13,198.13,0,0,0,34.3,17.85c-5.14,3.43-5.14,5.32,0,8.75A200.2,200.2,0,0,0,54,37.54c8.75,4.37,8.75,4.37,17.5,4.37s8.75,0,17.5-4.37A197.93,197.93,0,0,0,108.68,26.6c5.15-3.43,5.15-5.32,0-8.75A195.91,195.91,0,0,0,89,6.91c-8.75-4.38-8.75-4.38-17.5-4.38Z"/><g class="cls-1"><path class="cls-2" d="M112.21,23.39a9.5,9.5,0,0,1-4,2.36l0,0c-.93.62-1.9,1.23-2.9,1.85,1.35-.35,2.56-.73,3.45-1A197.93,197.93,0,0,1,89,37.54c-8.75,4.37-8.75,4.37-17.5,4.37s-8.75,0-17.5-4.37A200.2,200.2,0,0,1,34.3,26.6c-2.35-1.57-3.62-2.81-3.81-4a.18.18,0,0,1,0-.1.25.25,0,0,1,0-.12,1,1,0,0,1,0-.25.3.3,0,0,1,0-.13.2.2,0,0,1,0-.1c.19-1.21,1.46-2.46,3.81-4A198.13,198.13,0,0,1,54,6.91c8.75-4.37,8.75-4.37,17.5-4.37a49.41,49.41,0,0,1,7.49.3h0c2.69.42,4.8,1.48,10,4.07a195.91,195.91,0,0,1,19.69,10.94A10.94,10.94,0,0,1,112.2,21s0,0,0,0A2.24,2.24,0,0,1,112.21,23.39Z"/></g><g class="cls-8"><path class="cls-9" d="M112.68,22.22a.93.93,0,0,1-.25.54c-.38.47-1.32,1.2-3.67,2A65,65,0,0,1,96,27.51l-1.44.17a1.14,1.14,0,0,1-.08-.46c0-1.18-.8-3.48-5.86-11l-.68-1c-.56-.82-1.16-1.69-1.81-2.62C84,9.4,81.53,6.19,79.89,4c-.34-.45-.65-.85-.9-1.2,2.69.42,4.8,1.48,10,4.07a195.91,195.91,0,0,1,19.69,10.94A10.94,10.94,0,0,1,112.2,21s0,0,0,0a1.87,1.87,0,0,1,.46,1.06A.41.41,0,0,1,112.68,22.22Z"/></g><g class="cls-10"><path class="cls-9" d="M112.68,22.22a.93.93,0,0,1-.25.54c-.38.47-1.32,1.2-3.67,2A65,65,0,0,1,96,27.51l-1.44.17a1.14,1.14,0,0,1-.08-.46c0-1.18-.8-3.48-5.86-11l-.68-1c-.56-.82-1.16-1.69-1.81-2.62C84,9.4,81.53,6.19,79.89,4c-.34-.45-.65-.85-.9-1.2,2.69.42,4.8,1.48,10,4.07a195.91,195.91,0,0,1,19.69,10.94A10.94,10.94,0,0,1,112.2,21s0,0,0,0a1.87,1.87,0,0,1,.46,1.06A.41.41,0,0,1,112.68,22.22Z"/></g><g class="cls-8"><path class="cls-9" d="M113.09,103a.93.93,0,0,1-.25.54c-.38.47-1.32,1.2-3.67,2a65,65,0,0,1-12.74,2.7l-1.44.17a1.14,1.14,0,0,1-.08-.46c0-1.18-.8-3.48-5.86-11.05l-.68-1c-.56-.82-1.16-1.69-1.81-2.62-2.2-3.15-4.62-6.36-6.26-8.51-.34-.45-.65-.85-.9-1.2,2.69.42,4.8,1.48,10,4.07a195.91,195.91,0,0,1,19.69,10.94,10.94,10.94,0,0,1,3.52,3.19s0,0,0,0a1.87,1.87,0,0,1,.46,1.06A.41.41,0,0,1,113.09,103Z"/></g><g class="cls-10"><path class="cls-9" d="M113.09,103a.93.93,0,0,1-.25.54c-.38.47-1.32,1.2-3.67,2a65,65,0,0,1-12.74,2.7l-1.44.17a1.14,1.14,0,0,1-.08-.46c0-1.18-.8-3.48-5.86-11.05l-.68-1c-.56-.82-1.16-1.69-1.81-2.62-2.2-3.15-4.62-6.36-6.26-8.51-.34-.45-.65-.85-.9-1.2,2.69.42,4.8,1.48,10,4.07a195.91,195.91,0,0,1,19.69,10.94,10.94,10.94,0,0,1,3.52,3.19s0,0,0,0a1.87,1.87,0,0,1,.46,1.06A.41.41,0,0,1,113.09,103Z"/></g></g></svg>