<svg xmlns="http://www.w3.org/2000/svg" viewBox="0 0 454.75 338.09"><defs><style>.cls-1{fill:#d7dddb;}.cls-2{fill:#133c2a;}.cls-3{fill:#426254;}</style></defs><title>right_button</title><g id="Layer_7" data-name="Layer 7"><path class="cls-1" d="M210.46,317.18a38,38,0,0,1-38-38V232.63H50.09a38,38,0,0,1-38-38v-52a38,38,0,0,1,38-38H172.43V58.93a38,38,0,0,1,57-32.92L420.15,136.13a38,38,0,0,1,0,65.83L229.42,312.08a38,38,0,0,1-19,5.1Z"/><path class="cls-2" d="M210.45,29.9a29,29,0,0,1,14.48,3.91L415.66,143.93a29,29,0,0,1,0,50.23L224.93,304.28a29,29,0,0,1-34.61-4.21,28.71,28.71,0,0,1-8.89-20.9V223.64H50.09a29,29,0,0,1-29-29v-52a29,29,0,0,1,29-29H181.43V58.93a29.06,29.06,0,0,1,29-29m0-18a47.08,47.08,0,0,0-47,47V95.65H50.09a47.05,47.05,0,0,0-47,47v52a47.06,47.06,0,0,0,47,47H163.43v37.53a47,47,0,0,0,47,47h0a47,47,0,0,0,23.46-6.31L424.66,209.75a47,47,0,0,0,0-81.41L233.93,18.22a47,47,0,0,0-23.48-6.32Z"/><path class="cls-3" d="M408.66,182,217.93,292.16a15,15,0,0,1-22.5-13V209.64H50.09a15,15,0,0,1-15-15v-52a15,15,0,0,1,15-15H195.43V58.93a15,15,0,0,1,22.5-13L408.66,156.06A15,15,0,0,1,408.66,182Z"/></g></svg>