<svg xmlns="http://www.w3.org/2000/svg" viewBox="0 0 200 200"><defs><style>.cls-1{fill:#133c2a;}.cls-2{fill:#fff;}.cls-3{fill:none;stroke:#133c2a;stroke-miterlimit:10;stroke-width:4px;}</style></defs><title>rotate_beadsciricle copy 2</title><g id="Layer_15" data-name="Layer 15"><path class="cls-1" d="M200,100A100,100,0,0,1,16,154.26,100,100,0,1,1,200,100Z"/><path class="cls-1" d="M100,4A96,96,0,1,1,19.34,47.92,95.73,95.73,0,0,1,100,4m0-4a100,100,0,1,0,84,45.75A99.92,99.92,0,0,0,100,0Z"/></g><g id="Layer_18" data-name="Layer 18"><path class="cls-1" d="M200,100A100,100,0,0,1,16,154.26,100,100,0,1,1,200,100Z"/><ellipse class="cls-2" cx="99.26" cy="100.3" rx="95.55" ry="61.67" transform="translate(-41.85 99.57) rotate(-45)"/><ellipse class="cls-1" cx="99.26" cy="100.3" rx="17.5" ry="11.3" transform="translate(-41.85 99.57) rotate(-45)"/><ellipse class="cls-1" cx="121.09" cy="122.13" rx="17.5" ry="11.3" transform="translate(-50.89 121.4) rotate(-45)"/><ellipse class="cls-1" cx="85.74" cy="157.48" rx="17.5" ry="11.3" transform="translate(-86.24 106.75) rotate(-45)"/><ellipse class="cls-1" cx="156.45" cy="86.77" rx="17.5" ry="11.3" transform="translate(-15.53 136.04) rotate(-45)"/><ellipse class="cls-1" cx="134.62" cy="64.94" rx="17.5" ry="11.3" transform="translate(-6.49 114.21) rotate(-45)"/><ellipse class="cls-1" cx="112.65" cy="42.98" rx="17.5" ry="11.3" transform="translate(2.61 92.25) rotate(-45)"/><ellipse class="cls-1" cx="77.3" cy="78.33" rx="17.5" ry="11.3" transform="translate(-32.75 77.6) rotate(-45)"/><ellipse class="cls-1" cx="63.91" cy="135.65" rx="17.5" ry="11.3" transform="translate(-77.2 84.92) rotate(-45)"/><ellipse class="cls-1" cx="41.95" cy="113.69" rx="17.5" ry="11.3" transform="translate(-68.1 62.96) rotate(-45)"/><line class="cls-3" x1="43.43" y1="44.46" x2="156.57" y2="157.6"/><line class="cls-3" x1="78.78" y1="9.11" x2="191.92" y2="122.25"/><line class="cls-3" x1="8.07" y1="79.82" x2="121.21" y2="192.96"/></g></svg>