<svg id="Layer_2_copy" data-name="Layer 2 copy" xmlns="http://www.w3.org/2000/svg" viewBox="0 0 608 359.73"><defs><style>.cls-1{fill:#133c2a;}.cls-2{fill:none;}</style></defs><title>swirlArtboard 1</title><path class="cls-1" d="M310.47,339.66c-36.63,3.26-68.7-11.29-100.75-25.64-17.26-7.73-34.23-16.11-51.22-24.42C126.31,273.86,95.88,255.11,66.26,235c-13.73-9.31-27.16-19-39-30.76-15.32-15.18-14.72-31.49.13-47.83C66.94,112.92,117.71,86.29,170,62.72c27.87-12.55,55.1-27,84.49-36.1,41.14-12.78,80.64-7.29,119.41,9.93,24.27,10.78,48.51,21.59,72.24,33.5,22,11,44.17,21.79,65.88,33.37,22.8,12.17,44.62,26.13,64,43.29,9.81,8.7,16.93,20.47,15.88,34.28-.68,8.83-6.86,15.94-12.85,22.64-30,33.55-69,54.2-107.53,75.49-12,6.66-23.94,13.78-37,18.36-29.22,10.24-55.79,26.73-85.43,36A130.35,130.35,0,0,1,310.47,339.66Zm-83-208.42c-5.66.3-11.36.26-17,1-26.61,3.39-52.81,8.91-79,14.78-32.84,7.37-65.79,14.15-96.07,29.72-4,2.07-5.26,8.75-1.74,11.58a35.85,35.85,0,0,0,11,6.24c18.39,6.23,37.45,9.83,56.3,14.2,28.77,6.68,58,10.63,87.32,14.23,46.32,5.68,92.8,6.29,139.33,4.22,21.41-1,42.86-1.92,64.16-4.18,44.23-4.69,87.56-14.78,131.13-23.41,15.45-3.06,30.71-7.08,45-13.92,7.29-3.48,9-9.34,3.94-12.91-6.08-4.32-12.43-8.43-19.65-10.59a943.16,943.16,0,0,0-112.94-26c-10.89-1.86-22-2.25-32.9-3.53-16.58-2-33.39-2-50.1-2.83-1.58-.08-3.47-.08-3.81,1.75s1.42,2.73,2.85,3.35c4.85,2.13,9.78,4.07,14.62,6.21,3.32,1.47,6.9,3.46,5.07,7.74-1.54,3.59-5.31,3.69-8.83,2.75-19.65-5.24-39.11-11.38-59-15.53C281,130.58,254.24,130.52,227.51,131.24ZM75.05,220.81c9,5.82,17.07,11.72,25.74,16.44,30.43,16.55,60.32,34.06,91.3,49.66,16.31,8.21,30.9,10.36,47.47,1.81,14.47-7.45,30.17-11.67,46.77-10.11,16.28,1.54,30.66,7.11,40.48,21,2.49,3.53,2.3,7.39-2.2,9.73-14.78,7.67-29.55,6.17-44.26-.17-2-.85-4.05-2.09-3.57-4.67.88-4.8,5.16-5.5,8.87-6.54,2-.56,4.92-1.49,6.2.67,4.34,7.3,10.9,6.7,17.7,5.61a3,3,0,0,0,2.8-2.46,4.06,4.06,0,0,0-1.65-3.88c-8.44-6.9-18.33-9-28.88-8.62-12.36.48-23.61,5.18-34.75,10-3.14,1.34-7,3.45-7.44,6.86-.54,4,4,4.94,6.87,6.49,12.51,6.73,26,10.18,40.06,11.4,25.14,2.18,49.46-1.12,72.52-11.76,3-1.4,7.35-2.65,7.62-6.48.25-3.39-3.86-4.47-6.35-6.22-10.12-7.08-22.11-10-33.22-14.84-2-.87-3.53-2.33-2.9-4.7s2.08-3.39,4.75-3.44c11.75-.26,22.32,3.42,32.2,9.34,13.37,8,26.45,12.13,42.29,5.09,43.08-19.15,85.65-39.19,125.78-64.08,4-2.51,16.09-12.77,16.74-14.16C479.35,232.48,411,243,341.32,245.94c-69.57,2.91-138.72.76-207.38-11.86l.25.95C114.58,231.15,95.1,226.76,75.05,220.81ZM528.22,136c-8.63-3.81-16.29-9-24.32-13.4-30.34-16.82-60.36-34.2-91.37-49.84C396.19,64.5,381.6,62.48,365.05,71,350.62,78.39,335,82.6,318.43,81.07,302.09,79.55,287.65,74,277.83,60c-2.47-3.52-2.26-7.36,2.28-9.71,14.79-7.62,29.56-6.13,44.26.24,2,.84,4,2.11,3.51,4.69-1,4.84-5.31,5.52-9.07,6.53-2,.52-4.75,1.42-6-.76-4.34-7.28-10.9-6.68-17.71-5.54a2.93,2.93,0,0,0-2.76,2.49A4.14,4.14,0,0,0,294,61.79c8.4,6.86,18.24,9,28.74,8.59,12.41-.45,23.72-5.17,34.9-10,3.11-1.34,7-3.44,7.39-6.89.47-4-4-4.91-6.92-6.46-12.46-6.7-25.89-10.15-39.9-11.36-25.2-2.19-49.58,1.09-72.67,11.77-3,1.39-7.37,2.64-7.59,6.5-.19,3.37,3.9,4.45,6.4,6.2,10.12,7.08,22.12,9.95,33.22,14.84,2,.87,3.51,2.36,2.85,4.72-.61,2.17-2,3.33-4.63,3.4-11.75.28-22.38-3.31-32.21-9.3C229.72,65.35,216.17,61.7,200,69.2,171,82.65,141.6,95,114.24,111.76c-13.38,8.18-27.08,15.74-39.59,28.88C226.58,102.87,377.19,100.26,528.22,136Z"/><path class="cls-2" d="M227.51,131.24c26.73-.72,53.52-.66,79.76,4.81,19.87,4.15,39.33,10.29,59,15.53,3.52.94,7.29.84,8.83-2.75,1.83-4.28-1.75-6.27-5.07-7.74-4.84-2.14-9.77-4.08-14.62-6.21-1.43-.62-3.18-1.57-2.85-3.35s2.23-1.83,3.81-1.75c16.71.84,33.52.88,50.1,2.83,10.95,1.28,22,1.67,32.9,3.53a943.16,943.16,0,0,1,112.94,26c7.22,2.16,13.57,6.27,19.65,10.59,5,3.57,3.35,9.43-3.94,12.91-14.29,6.84-29.55,10.86-45,13.92-43.57,8.63-86.9,18.72-131.13,23.41-21.3,2.26-42.75,3.23-64.16,4.18-46.53,2.07-93,1.46-139.33-4.22-29.3-3.6-58.55-7.55-87.32-14.23-18.85-4.37-37.91-8-56.3-14.2a35.85,35.85,0,0,1-11-6.24c-3.52-2.83-2.28-9.51,1.74-11.58,30.28-15.57,63.23-22.35,96.07-29.72,26.17-5.87,52.37-11.39,79-14.78C216.15,131.5,221.85,131.54,227.51,131.24Zm48,68.56c-10.21-.52-28.46-1.43-46.7-2.39-17.8-.94-35.51-2.65-52.71-7.54-5.39-1.53-8.93-5.38-7.21-11.63,1.77-6.49,6.89-9.63,12.86-11.51,19.29-6.06,38.23-2.19,56.81,3,18.27,5.09,35.69,13.2,54.81,15.3,11,1.22,22,1.55,32.45-3.1,3.49-1.56,6.4-4,6.48-8.14.08-3.85-3.4-5.25-6.23-6.44-5-2.12-10.86-4.93-15,.73S299.35,178,292.33,176c-12.69-3.6-25.46-7-37.83-11.54C237.69,158.34,221.09,151,203,150.65c-20.67-.44-40.75,3.52-59.55,12.77-12,5.9-15.15,15.66-5,25.67,9.23,9.08,20.84,14.12,33.48,16,40,5.89,80.37,8.25,120.81,8.24,22.88,0,45.78-.83,68.62-2.64,18.58-1.47,37.1-3.33,55.47-6.67,16.1-2.92,32.2-5.56,44.48-17.86,4-4,3.4-16.22-1.52-18.86-13.42-7.18-27.76-11.57-43.14-11.66-3.71,0-8.44,1.35-8.77,4.77-.45,4.62,5.06,3.24,8,4.48a12,12,0,0,0,1.25.23c7.35,2.14,15.79.06,22.21,5.85,3.28,3,3.11,5.74-.27,8.27-11.12,8.32-24.65,9.88-37.58,12.36C362.56,199,323.07,200.2,275.48,199.8Z"/><path class="cls-2" d="M75.05,220.81c20,5.95,39.53,10.34,59.14,14.22l-.25-.95c68.66,12.62,137.81,14.77,207.38,11.86C411,243,479.35,232.48,546,212.76c-.65,1.39-12.69,11.65-16.74,14.16-40.13,24.89-82.7,44.93-125.78,64.08-15.84,7-28.92,2.91-42.29-5.09-9.88-5.92-20.45-9.6-32.2-9.34-2.67.05-4.15,1.18-4.75,3.44s.93,3.83,2.9,4.7c11.11,4.87,23.1,7.76,33.22,14.84,2.49,1.75,6.6,2.83,6.35,6.22-.27,3.83-4.59,5.08-7.62,6.48C336,322.89,311.7,326.19,286.56,324c-14.07-1.22-27.55-4.67-40.06-11.4-2.9-1.55-7.41-2.49-6.87-6.49.46-3.41,4.3-5.52,7.44-6.86,11.14-4.78,22.39-9.48,34.75-10,10.55-.41,20.44,1.72,28.88,8.62a4.06,4.06,0,0,1,1.65,3.88,3,3,0,0,1-2.8,2.46c-6.8,1.09-13.36,1.69-17.7-5.61-1.28-2.16-4.17-1.23-6.2-.67-3.71,1-8,1.74-8.87,6.54-.48,2.58,1.61,3.82,3.57,4.67,14.71,6.34,29.48,7.84,44.26.17,4.5-2.34,4.69-6.2,2.2-9.73-9.82-13.91-24.2-19.48-40.48-21-16.6-1.56-32.3,2.66-46.77,10.11-16.57,8.55-31.16,6.4-47.47-1.81-31-15.6-60.87-33.11-91.3-49.66C92.12,232.53,84.09,226.63,75.05,220.81Z"/><path class="cls-2" d="M528.22,136c-151-35.71-301.64-33.1-453.57,4.67,12.51-13.14,26.21-20.7,39.59-28.88C141.6,95,171,82.65,200,69.2c16.18-7.5,29.73-3.85,43.6,4.61,9.83,6,20.46,9.58,32.21,9.3,2.62-.07,4-1.23,4.63-3.4.66-2.36-.88-3.85-2.85-4.72-11.1-4.89-23.1-7.76-33.22-14.84-2.5-1.75-6.59-2.83-6.4-6.2.22-3.86,4.57-5.11,7.59-6.5,23.09-10.68,47.47-14,72.67-11.77,14,1.21,27.44,4.66,39.9,11.36,2.9,1.55,7.39,2.47,6.92,6.46-.42,3.45-4.28,5.55-7.39,6.89-11.18,4.82-22.49,9.54-34.9,10-10.5.39-20.34-1.73-28.74-8.59a4.14,4.14,0,0,1-1.71-3.86,2.93,2.93,0,0,1,2.76-2.49c6.81-1.14,13.37-1.74,17.71,5.54,1.29,2.18,4.07,1.28,6,.76,3.76-1,8.1-1.69,9.07-6.53.52-2.58-1.55-3.85-3.51-4.69-14.7-6.37-29.47-7.86-44.26-.24-4.54,2.35-4.75,6.19-2.28,9.71,9.82,14,24.26,19.56,40.6,21.08C335,82.6,350.62,78.39,365.05,71c16.55-8.5,31.14-6.48,47.48,1.75,31,15.64,61,33,91.37,49.84C511.93,127,519.59,132.16,528.22,136Z"/><path class="cls-1" d="M275.48,199.8c47.59.4,87.08-.76,126-8.23,12.93-2.48,26.46-4,37.58-12.36,3.38-2.53,3.55-5.31.27-8.27-6.42-5.79-14.86-3.71-22.21-5.85a12,12,0,0,1-1.25-.23c-2.93-1.24-8.44.14-8-4.48.33-3.42,5.06-4.79,8.77-4.77,15.38.09,29.72,4.48,43.14,11.66,4.92,2.64,5.52,14.86,1.52,18.86C449.07,198.43,433,201.07,416.87,204c-18.37,3.34-36.89,5.2-55.47,6.67-22.84,1.81-45.74,2.63-68.62,2.64-40.44,0-80.77-2.35-120.81-8.24-12.64-1.85-24.25-6.89-33.48-16-10.18-10-7-19.77,5-25.67,18.8-9.25,38.88-13.21,59.55-12.77,18.08.38,34.68,7.69,51.49,13.81,12.37,4.5,25.14,7.94,37.83,11.54,7,2,14.48-2.15,18.71-7.93s10-2.85,15-.73c2.83,1.19,6.31,2.59,6.23,6.44-.08,4.09-3,6.58-6.48,8.14-10.45,4.65-21.41,4.32-32.45,3.1-19.12-2.1-36.54-10.21-54.81-15.3-18.58-5.18-37.52-9.05-56.81-3-6,1.88-11.09,5-12.86,11.51-1.72,6.25,1.82,10.1,7.21,11.63,17.2,4.89,34.91,6.6,52.71,7.54C247,198.37,265.27,199.28,275.48,199.8Z"/></svg>