<svg xmlns="http://www.w3.org/2000/svg" xmlns:xlink="http://www.w3.org/1999/xlink" viewBox="0 0 800 800"><defs><style>.cls-1{fill:url(#linear-gradient);}.cls-2{fill:#fff;}</style><linearGradient id="linear-gradient" x1="10" y1="400" x2="790" y2="400" gradientUnits="userSpaceOnUse"><stop offset="0" stop-color="#edce8c"/><stop offset="0.2" stop-color="#edce8c"/><stop offset="0.27" stop-color="#e7cb8a"/><stop offset="0.38" stop-color="#d4c385"/><stop offset="0.5" stop-color="#b7b67d"/><stop offset="0.63" stop-color="#8da571"/><stop offset="0.78" stop-color="#598e63"/><stop offset="0.9" stop-color="#267855"/><stop offset="1" stop-color="#267855"/></linearGradient></defs><title>target1 copy 5</title><g id="Layer_3" data-name="Layer 3"><circle class="cls-1" cx="400" cy="400" r="390"/><path class="cls-2" d="M400,760.75c-8.62,0-15.6-9.14-15.6-20.42V59.67c0-11.28,7-20.42,15.6-20.42s15.6,9.14,15.6,20.42V740.33C415.6,751.61,408.62,760.75,400,760.75Z"/><path class="cls-2" d="M740.33,415.6H59.67c-11.28,0-20.42-7-20.42-15.6s9.14-15.6,20.42-15.6H740.33c11.28,0,20.42,7,20.42,15.6S751.61,415.6,740.33,415.6Z"/><path class="cls-2" d="M400,123.1a275.95,275.95,0,1,1-107.78,21.75A275.25,275.25,0,0,1,400,123.1m0-15.6c-161.54,0-292.5,131-292.5,292.5s131,292.5,292.5,292.5,292.5-131,292.5-292.5S561.54,107.5,400,107.5Z"/><path class="cls-2" d="M400,236.2a163.81,163.81,0,1,1-115.82,48A162.7,162.7,0,0,1,400,236.2m0-15.6A179.4,179.4,0,1,0,579.4,400,179.4,179.4,0,0,0,400,220.6Z"/><circle class="cls-2" cx="400" cy="400" r="66.3"/></g></svg>