<svg xmlns="http://www.w3.org/2000/svg" viewBox="0 0 454.75 338.09"><defs><style>.cls-1{fill:#edce8c;}.cls-2{fill:#267855;}</style></defs><title>yellowright copy</title><g id="Layer_5" data-name="Layer 5"><path class="cls-1" d="M202.79,303.9a16.16,16.16,0,0,1-16.14-16.13V227.55H46.33a16.14,16.14,0,0,1-16.12-16.12V125.86a16.14,16.14,0,0,1,16.12-16.12H186.65V50.32a16.11,16.11,0,0,1,24.19-14L416.48,155.08a16.13,16.13,0,0,1,0,27.93L210.84,301.73a16.12,16.12,0,0,1-8.05,2.17Z"/><path class="cls-2" d="M202.79,42.18a8.13,8.13,0,0,1,4.05,1.1L412.48,162a8.13,8.13,0,0,1,0,14.07L206.84,294.8a8,8,0,0,1-4.05,1.1,8.14,8.14,0,0,1-8.14-8.13V219.55H46.33a8.12,8.12,0,0,1-8.12-8.12V125.86a8.12,8.12,0,0,1,8.12-8.12H194.65V50.32a8.14,8.14,0,0,1,8.14-8.14m0-16a24.17,24.17,0,0,0-24.14,24.14v51.42H46.33a24.15,24.15,0,0,0-24.12,24.12v85.57a24.15,24.15,0,0,0,24.12,24.12H178.65v52.22a24.12,24.12,0,0,0,36.19,20.89L420.48,189.94a24.13,24.13,0,0,0,0-41.79L214.84,29.43a24,24,0,0,0-12.05-3.25Z"/></g></svg>