<svg xmlns="http://www.w3.org/2000/svg" viewBox="0 0 214.36 115.85"><defs><style>.cls-1{fill:#edce8c;}.cls-2{fill:none;stroke:#edce8c;stroke-miterlimit:10;stroke-width:0.45px;}.cls-3{font-size:28.07px;font-family:Impact, Impact;}.cls-3,.cls-4{fill:#133c2a;}.cls-5{fill:#fff;}</style></defs><title>yellowArtboard 1 copy 7</title><g id="Layer_13" data-name="Layer 13"><ellipse class="cls-1" cx="71.43" cy="84.28" rx="13.92" ry="6.7"/><ellipse class="cls-1" cx="71.43" cy="109.96" rx="13.92" ry="6.7"/><line class="cls-2" x1="71.43" y1="-86.87" x2="71.43" y2="165.18"/><ellipse class="cls-1" cx="35.75" cy="109.96" rx="13.92" ry="6.7"/><line class="cls-2" x1="35.75" y1="-79.61" x2="35.75" y2="172.44"/><ellipse class="cls-1" cx="107.11" cy="84.28" rx="13.92" ry="6.7"/><ellipse class="cls-1" cx="107.11" cy="109.96" rx="13.92" ry="6.7"/><ellipse class="cls-1" cx="107.11" cy="58.61" rx="13.91" ry="6.7"/><line class="cls-2" x1="106.92" y1="-90.74" x2="106.92" y2="161.31"/><ellipse class="cls-1" cx="142.79" cy="32.93" rx="13.92" ry="6.7"/><ellipse class="cls-1" cx="142.79" cy="84.28" rx="13.92" ry="6.7"/><ellipse class="cls-1" cx="142.79" cy="109.96" rx="13.92" ry="6.7"/><ellipse class="cls-1" cx="142.79" cy="58.61" rx="13.92" ry="6.7"/><line class="cls-2" x1="142.79" y1="-90.74" x2="142.79" y2="161.31"/><ellipse class="cls-1" cx="178.47" cy="32.93" rx="13.92" ry="6.7"/><ellipse class="cls-1" cx="178.47" cy="7.26" rx="13.92" ry="6.7"/><ellipse class="cls-1" cx="178.47" cy="84.28" rx="13.92" ry="6.7"/><ellipse class="cls-1" cx="178.47" cy="109.96" rx="13.92" ry="6.7"/><ellipse class="cls-1" cx="178.47" cy="58.61" rx="13.92" ry="6.7"/><line class="cls-2" x1="178.47" y1="-86.87" x2="178.47" y2="165.18"/><text class="cls-3" transform="translate(28.4 57.19) scale(1.03 1)">Progressive<tspan x="0" y="33.68">Abacus</tspan></text><path class="cls-4" d="M192,10.25a97.68,97.68,0,0,1-.11,96.7H22.3a97.75,97.75,0,0,1-.11-96.7H192m1.73-3H20.47A100.71,100.71,0,0,0,20.58,110H193.64a100.71,100.71,0,0,0,.11-102.7Z"/><path class="cls-5" d="M-35.89-99.19V183.24H246.55V-99.19ZM193.64,110H20.58a100.71,100.71,0,0,1-.11-102.7H193.75a100.71,100.71,0,0,1-.11,102.7Z"/></g></svg>