<svg xmlns="http://www.w3.org/2000/svg" viewBox="0 0 454.75 338.09"><defs><style>.cls-1{fill:#edce8c;}.cls-2{fill:#267855;}</style></defs><title>yellowleft copy</title><g id="Layer_6" data-name="Layer 6"><path class="cls-1" d="M252,299.9a12.09,12.09,0,0,1-6.05-1.63L40.27,179.54a12.13,12.13,0,0,1,0-21L245.91,39.82a12.1,12.1,0,0,1,18.18,10.5v63.42H408.42a12.14,12.14,0,0,1,12.12,12.12v85.57a12.14,12.14,0,0,1-12.12,12.12H264.09v64.22A12.14,12.14,0,0,1,252,299.9Z"/><path class="cls-2" d="M252,42.18a8.14,8.14,0,0,1,8.13,8.14v67.42H408.42a8.13,8.13,0,0,1,8.12,8.12v85.57a8.13,8.13,0,0,1-8.12,8.12H260.09v68.22A8.13,8.13,0,0,1,252,295.9a8,8,0,0,1-4.05-1.1L42.27,176.08a8.12,8.12,0,0,1,0-14.07L247.91,43.28a8.07,8.07,0,0,1,4.05-1.1m0-8h0a16.11,16.11,0,0,0-8,2.17L38.27,155.08a16.13,16.13,0,0,0,0,27.93L243.91,301.73a16.11,16.11,0,0,0,24.18-14V227.55H408.42a16.14,16.14,0,0,0,16.12-16.12V125.86a16.14,16.14,0,0,0-16.12-16.12H268.09V50.32A16.16,16.16,0,0,0,252,34.18Z"/></g></svg>