<svg xmlns="http://www.w3.org/2000/svg" xmlns:xlink="http://www.w3.org/1999/xlink" viewBox="0 0 150 150"><defs><style>.cls-1{fill:url(#radial-gradient);}</style><radialGradient id="radial-gradient" cx="75" cy="75" r="71.84" gradientUnits="userSpaceOnUse"><stop offset="0.02" stop-color="#267855"/><stop offset="0.58" stop-color="#267855"/><stop offset="1" stop-color="#133c2a"/></radialGradient></defs><title>favicon</title><g id="favicon"><path class="cls-1" d="M135.36,36a71.87,71.87,0,1,0,11.48,39A71.78,71.78,0,0,0,135.36,36ZM123,26.68c11,11,11.88,29.5,4.16,48.4l-4.9-4.9c4.1-4.75,5.12-10.62,2.17-13.57s-8.81-1.93-13.57,2.18l-4.28-4.29c4.1-4.76,5.12-10.62,2.17-13.57S100,39,95.19,43.1l-4.38-4.38C94.91,34,95.93,28.1,93,25.15s-8.81-1.93-13.57,2.18l-4.8-4.8C93.51,14.8,112,15.67,123,26.68ZM42.14,44.92,52,54.76c-4.11,4.75-5.12,10.62-2.18,13.57s8.82,1.93,13.58-2.18l4.38,4.38c-4.11,4.76-5.12,10.63-2.18,13.58S74.4,86,79.16,81.93l4.28,4.29c-4.1,4.75-5.12,10.62-2.18,13.57s8.82,1.93,13.58-2.18l9.93,9.94a98.16,98.16,0,0,1-27.59,19.13L71.47,121c4.11-4.76,5.12-10.63,2.18-13.57s-8.82-1.93-13.58,2.17l-4.28-4.28c4.1-4.76,5.12-10.63,2.17-13.57S49.15,89.8,44.39,93.9L40,89.52c4.1-4.76,5.12-10.63,2.17-13.57S33.37,74,28.61,78.12L23,72.52A98.06,98.06,0,0,1,42.14,44.92Zm-16.2,78.83c-11-11-11.88-29.5-4.16-48.4l4.8,4.8c-4.1,4.76-5.12,10.63-2.17,13.58S33.22,95.65,38,91.55l4.38,4.38c-4.1,4.76-5.12,10.63-2.17,13.58s8.81,1.92,13.57-2.18L58,111.62c-4.1,4.75-5.12,10.62-2.17,13.57s8.81,1.93,13.57-2.18l4.9,4.9C55.44,135.63,37,134.77,25.94,123.75Zm80.86-18.24-9.93-9.93C101,90.82,102,85,99,82s-8.81-1.93-13.57,2.17L81.19,79.9c4.1-4.76,5.12-10.63,2.17-13.57S74.55,64.4,69.79,68.5l-4.38-4.38c4.1-4.76,5.12-10.62,2.17-13.57S58.77,48.62,54,52.72l-9.83-9.83A98,98,0,0,1,71.77,23.75l5.61,5.61C73.27,34.11,72.26,40,75.2,42.93S84,44.86,88.77,40.75l4.39,4.39C89.05,49.89,88,55.76,91,58.71s8.82,1.93,13.57-2.18l4.29,4.29c-4.1,4.75-5.12,10.62-2.18,13.57s8.82,1.93,13.58-2.18l5.7,5.71A98,98,0,0,1,106.8,105.51Z"/></g></svg>